<svg width="19" height="19" viewBox="0 0 19 19" fill="none" xmlns="http://www.w3.org/2000/svg">
<path fill-rule="evenodd" clip-rule="evenodd" d="M8.13121 0.375009C8.15688 0.375013 8.18285 0.375018 8.20916 0.375018H10.4575C10.4838 0.375018 10.5098 0.375013 10.5355 0.375009C11.2762 0.37488 11.7536 0.374798 12.21 0.484387C12.6139 0.581353 13 0.741287 13.3542 0.958317C13.7545 1.2036 14.0919 1.5412 14.6156 2.06505C14.6338 2.0832 14.6521 2.10157 14.6707 2.12017L16.5465 3.99598C16.5651 4.01457 16.5835 4.03294 16.6016 4.05108C17.1255 4.57475 17.4631 4.91224 17.7084 5.31251C17.9254 5.66667 18.0853 6.05278 18.1823 6.45667C18.2919 6.91315 18.2918 7.3905 18.2917 8.13121C18.2917 8.15687 18.2917 8.18285 18.2917 8.20916V10.4575C18.2917 10.4838 18.2917 10.5098 18.2917 10.5355C18.2918 11.2762 18.2919 11.7536 18.1823 12.21C18.0853 12.6139 17.9254 13 17.7084 13.3542C17.4631 13.7545 17.1255 14.0919 16.6017 14.6156C16.5835 14.6338 16.5651 14.6521 16.5465 14.6707L14.6707 16.5465C14.6521 16.5651 14.6338 16.5835 14.6156 16.6016C14.0919 17.1255 13.7545 17.4631 13.3542 17.7084C13 17.9254 12.6139 18.0853 12.21 18.1823C11.7536 18.2919 11.2762 18.2918 10.5355 18.2917C10.5098 18.2917 10.4838 18.2917 10.4575 18.2917H8.20915C8.18285 18.2917 8.15687 18.2917 8.13121 18.2917C7.3905 18.2918 6.91315 18.2919 6.45667 18.1823C6.05278 18.0853 5.66667 17.9254 5.31251 17.7084C4.91224 17.4631 4.57476 17.1255 4.05109 16.6017C4.03295 16.5835 4.01458 16.5651 3.99598 16.5465L2.12017 14.6707C2.10158 14.6521 2.08321 14.6338 2.06506 14.6156C1.5412 14.0919 1.2036 13.7545 0.958317 13.3542C0.741287 13 0.581353 12.6139 0.484387 12.21C0.374798 11.7536 0.37488 11.2762 0.375009 10.5355C0.375013 10.5098 0.375018 10.4838 0.375018 10.4575V8.20915C0.375018 8.18285 0.375013 8.15687 0.375009 8.13121C0.37488 7.3905 0.374798 6.91315 0.484387 6.45667C0.581353 6.05278 0.741287 5.66667 0.958317 5.31251C1.2036 4.91224 1.5412 4.57476 2.06505 4.05109C2.0832 4.03294 2.10157 4.01458 2.12017 3.99598L3.99598 2.12017C4.01458 2.10158 4.03294 2.0832 4.05108 2.06506C4.57475 1.5412 4.91224 1.2036 5.31251 0.958317C5.66667 0.741287 6.05278 0.581353 6.45667 0.484387C6.91315 0.374798 7.3905 0.37488 8.13121 0.375009ZM8.20916 1.62502C7.3641 1.62502 7.04345 1.62903 6.74848 1.69985C6.47213 1.76619 6.20795 1.87562 5.96563 2.02412C5.70698 2.18261 5.4774 2.40652 4.87986 3.00406L3.00406 4.87986C2.40652 5.4774 2.18261 5.70698 2.02412 5.96563C1.87562 6.20795 1.76619 6.47213 1.69985 6.74848C1.62903 7.04345 1.62502 7.3641 1.62502 8.20915V10.4575C1.62502 11.3026 1.62903 11.6233 1.69985 11.9182C1.76619 12.1946 1.87562 12.4587 2.02412 12.7011C2.18261 12.9597 2.40652 13.1893 3.00406 13.7868L4.87986 15.6626C5.4774 16.2602 5.70698 16.4841 5.96563 16.6426C6.20795 16.7911 6.47213 16.9005 6.74848 16.9669C7.04345 17.0377 7.3641 17.0417 8.20915 17.0417H10.4575C11.3026 17.0417 11.6233 17.0377 11.9182 16.9669C12.1946 16.9005 12.4587 16.7911 12.7011 16.6426C12.9597 16.4841 13.1893 16.2602 13.7868 15.6626L15.6626 13.7868C16.2602 13.1893 16.4841 12.9597 16.6426 12.7011C16.7911 12.4587 16.9005 12.1946 16.9669 11.9182C17.0377 11.6233 17.0417 11.3026 17.0417 10.4575V8.20916C17.0417 7.3641 17.0377 7.04345 16.9669 6.74848C16.9005 6.47213 16.7911 6.20795 16.6426 5.96563C16.4841 5.70698 16.2602 5.4774 15.6626 4.87986L13.7868 3.00406C13.1893 2.40652 12.9597 2.18261 12.7011 2.02412C12.4587 1.87562 12.1946 1.76619 11.9182 1.69985C11.6233 1.62903 11.3026 1.62502 10.4575 1.62502H8.20916ZM9.33335 4.54168C9.67853 4.54168 9.95835 4.82151 9.95835 5.16668V10.1667C9.95835 10.5119 9.67853 10.7917 9.33335 10.7917C8.98817 10.7917 8.70835 10.5119 8.70835 10.1667V5.16668C8.70835 4.82151 8.98817 4.54168 9.33335 4.54168ZM8.29168 13.0833C8.29168 12.5081 8.75805 12.0417 9.33335 12.0417C9.90865 12.0417 10.375 12.5081 10.375 13.0833C10.375 13.6586 9.90865 14.125 9.33335 14.125C8.75805 14.125 8.29168 13.6586 8.29168 13.0833Z" fill="#2F384C"/>
</svg>
