<svg width="120" height="216" viewBox="0 0 120 216" fill="none" xmlns="http://www.w3.org/2000/svg">
<path d="M70.7629 43.3934C71.1435 43.1644 71.5268 42.9355 71.9073 42.7066C72.3291 42.4554 72.5993 42.0631 72.4623 41.6064C72.1396 40.5299 71.9775 39.4555 72.0862 38.3266C72.1162 38.0251 71.9037 37.6962 71.8031 37.3806L71.6627 37.2267C71.3939 36.6057 71.2164 35.9247 70.8424 35.3766C68.7916 32.373 67.4929 28.9887 65.9332 25.7398C65.7376 25.3341 65.57 24.9028 65.4722 24.4666C65.0554 22.5869 64.4915 20.8157 63.2755 19.2313C62.6106 18.3668 62.2992 17.2211 61.6676 16.2724C61.3093 15.733 61.1467 15.0205 61.035 14.3639C60.5289 11.3462 59.8593 8.38248 58.6883 5.54031C58.2594 4.49909 57.9865 3.39008 57.7156 2.29453C57.6118 1.87421 57.6741 1.39728 57.7454 0.958274C57.7682 0.811899 58.0393 0.68777 58.2205 0.596986C58.2946 0.560201 58.4644 0.600242 58.5256 0.667404C58.7501 0.913721 59.0014 1.15859 59.1434 1.44933C59.6329 2.45582 60.0785 3.48167 60.5309 4.47841C61.5893 4.25672 61.8084 3.46273 62.0597 2.72381C62.2025 2.3042 62.2292 1.84432 62.3536 1.41583C62.4526 1.07461 63.2222 0.839583 63.529 1.04414C64.8422 1.91725 66.1707 2.75085 67.2378 3.96105C69.0305 5.99836 70.9994 7.8776 72.4437 10.2043C73.2194 11.4546 74.0725 12.655 74.8346 13.91C76.4784 16.6159 78.0809 19.344 79.708 22.0626C80.1734 22.8374 80.6304 23.6199 81.1345 24.3698C83.7817 28.3285 85.9969 32.5272 88.0389 36.8198C88.4321 37.6476 88.6818 38.5089 88.6629 39.4355L88.696 39.4157C88.4519 39.4204 88.2102 39.428 87.9661 39.4327C87.9598 39.3359 87.97 39.2319 87.9391 39.1473C87.9153 39.0819 87.8315 39.0404 87.7777 38.987C87.8544 39.1246 87.9338 39.2623 88.0105 39.3999C88.2135 39.8784 88.4191 40.3571 88.622 40.8383L88.5841 40.7883C89.1179 43.4991 90.2802 45.9495 91.777 48.2411C92.2249 48.9294 92.5349 49.5871 92.5496 50.4268C92.5591 50.9741 92.7527 51.5407 92.959 52.0622C93.4581 53.3238 94.0152 54.5479 93.9787 55.9723C93.9654 56.489 94.3179 57.0388 94.5765 57.5333C96.3308 60.8609 97.477 64.4124 98.4814 68.0162C98.8467 69.3305 99.1909 70.6386 99.9959 71.7776C100.32 72.2377 100.534 72.773 100.795 73.2756C101.331 74.3084 101.63 75.3918 101.383 76.5545C101.157 77.6163 101.42 78.5747 101.878 79.5101C102.177 80.119 102.528 80.709 102.786 81.3348C102.998 81.8513 103.143 82.4049 103.244 82.9564C103.466 84.173 103.569 85.4163 103.862 86.6147C104.074 87.4823 104.392 88.3709 104.875 89.1144C106.226 91.1956 106.612 93.5671 106.742 95.9106C106.863 98.1117 107.55 100.114 108.103 102.179C108.745 102.962 108.69 103.842 108.511 104.764C108.448 105.088 108.56 105.442 108.542 105.778C108.511 106.378 108.276 106.881 107.696 107.139C107.075 107.415 106.441 107.662 105.813 107.917C105.182 108.172 104.539 108.4 103.92 108.676C102.765 109.197 101.73 109.886 101.059 110.999C100.084 112.616 98.636 113.656 96.9665 114.455C96.2894 114.778 95.6607 114.808 95.0423 114.385C94.5174 114.028 94.0005 114.017 93.4532 114.316C93.1561 114.48 92.8588 114.651 92.5471 114.781C91.8802 115.059 91.173 115.047 90.5759 114.684C88.6575 113.507 86.4094 112.851 84.8556 111.095C82.6725 109.672 80.5126 108.211 78.2921 106.842C77.5337 106.376 76.6469 106.077 75.7852 105.815C73.0309 104.974 70.6305 103.495 68.3334 101.813C65.2249 99.5349 62.0991 97.2857 58.9963 95C55.984 92.7855 52.9891 90.545 49.9967 88.3073C49.6365 88.0387 49.286 87.7356 48.9991 87.3899C47.9762 86.1522 46.7546 85.152 45.3853 84.3299C44.7934 83.9727 44.2907 83.5393 43.919 82.9431C43.8142 82.7747 43.5463 82.5988 43.3636 82.6064C42.0873 82.6705 41.6478 81.6851 41.0778 80.8545L41.0974 80.8367C41.0655 80.9451 41.0548 81.0625 41.002 81.1593C40.6265 81.8576 40.1454 82.0578 39.7283 81.6873C39.3936 81.3903 39.0176 81.1155 38.7552 80.7629C36.9811 78.3806 34.6791 76.5744 32.3149 74.8376C31.7783 74.4428 31.1841 74.0748 30.5587 73.8609C28.5374 73.1694 26.4884 72.5543 24.4488 71.9102L24.4713 71.8899C24.9974 72.9142 25.7651 73.7593 26.6186 74.4878C28.7845 76.3413 30.428 78.6479 32.2168 80.8271C32.9349 81.7021 33.4035 82.6968 33.6094 83.8644C33.7814 84.8374 34.2939 85.7512 34.655 86.6928L34.6915 86.6596C34.5194 86.7856 34.311 86.8859 34.1776 87.0459C33.8257 87.4665 33.763 87.8952 33.979 88.2082C34.5869 89.0888 35.2057 89.9646 35.819 90.8428L35.8444 90.8171C35.1402 90.6263 34.4335 90.4327 33.5333 90.1899C33.8425 90.8637 34.0669 91.3405 34.2778 91.8221C34.3165 91.9124 34.3211 92.0466 34.2821 92.1359C34.1853 92.3727 33.9924 92.4281 33.7514 92.307C33.0754 91.9701 32.4051 91.6281 31.7291 91.2911L31.7728 91.3307C31.5214 91.3191 31.2672 91.3073 31.0158 91.2956L31.052 91.2651C30.1843 90.7853 29.4185 90.1868 28.3217 90.0797C27.1182 89.9622 25.9475 89.4844 24.7741 89.1218C24.6499 89.0838 24.5868 88.77 24.545 88.5723C24.5272 88.4938 24.6268 88.3697 24.7026 88.2955C25.0426 87.9574 25.4772 87.7765 25.9167 87.9523C26.4299 88.1584 26.8739 88.5248 27.384 88.7388C27.6733 88.8594 28.0378 88.8629 28.3586 88.8242C28.5447 88.8006 28.7809 88.6186 28.853 88.4504C28.9252 88.2822 28.8681 88.0114 28.78 87.8304C28.687 87.6385 28.5133 87.4535 28.3281 87.343C27.2923 86.7294 26.614 85.9232 26.7545 84.6269C26.7628 84.563 26.6033 84.4162 26.5228 84.4178C26.3081 84.424 26.0661 84.4396 25.8922 84.5468C25.7156 84.6565 25.5826 84.8648 25.4773 85.0556C25.3691 85.249 25.2946 85.468 25.2471 85.6829C25.0733 86.4844 24.442 86.6884 23.7672 86.8448L23.7823 86.8669C23.5553 86.6178 23.3283 86.3687 23.1012 86.1196L23.1219 86.1366C22.9285 85.8569 22.786 85.5179 22.5356 85.3106C20.4441 83.5892 18.7064 81.4633 16.4107 79.9817C15.5336 79.4156 14.7436 78.7598 14.3822 77.7672C13.7379 75.995 12.5137 74.6461 11.1363 73.4805C9.33564 71.9602 8.08929 70.2244 7.74748 67.8254C7.60805 66.8432 7.08861 65.905 6.68419 64.9722C6.23378 63.9326 5.70377 62.9323 5.23694 61.9C4.53202 60.3367 3.67944 58.8952 2.33212 57.7739C1.2532 56.8768 0.672986 55.6302 0.206988 54.3487C-0.171199 53.3125 0.0403563 52.3332 0.760208 51.4926C1.05489 51.1498 1.38059 50.8325 1.71379 50.5262C2.55968 49.7425 3.21606 48.824 3.58304 47.7312C4.06816 46.2874 5.06961 45.2132 6.0505 44.1194C6.53675 43.5763 7.26674 43.5566 7.8645 44.0775C8.36944 44.5191 8.83739 45.0073 9.30183 45.4551C10.0988 45.6099 10.5879 45.0643 11.1607 44.737C11.7857 44.38 12.4204 44.278 13.1079 44.5405C13.7399 44.7842 14.3843 44.9937 15.0134 45.2427C15.3214 45.3642 15.7403 45.4667 15.8845 45.7092C16.4687 46.696 17.5073 46.9023 18.4269 47.3041C19.9981 47.9909 21.4613 48.8093 22.6317 50.1047C23.5597 51.1342 24.7204 51.8287 26.0588 52.2177L26.0359 52.1926C26.7257 53.1548 27.6554 53.742 28.803 54.0257C29.4603 54.1876 30.11 54.3973 30.7512 54.6174C31.5191 54.8808 32.2002 55.2796 32.5332 56.0778C32.9554 57.0892 33.7609 57.6386 34.7243 58.08C35.958 58.6438 37.1733 59.2604 38.3509 59.937C39.633 60.6719 40.9067 61.3582 42.3672 61.7154C43.8172 62.0668 45.0155 62.9908 46.2381 63.7954C47.653 64.7295 48.9758 65.8042 50.3445 66.8112C51.2726 67.4922 51.9859 68.3536 52.6088 69.3154C53.2391 70.2908 54.1092 71.0068 55.1936 71.4404C56.7702 72.0684 58.1503 73.1188 59.8195 73.542L59.8073 73.5173C59.9352 74.8636 59.9402 74.8691 61.1497 74.9735L61.1182 74.9586C61.6773 75.3303 62.1918 75.7992 62.799 76.0605C64.6729 76.8658 66.5317 77.649 67.9041 79.2701C68.1533 79.5631 68.6964 79.7035 69.1184 79.7364C69.9597 79.8023 70.6114 80.1434 71.218 80.705C71.8785 81.3173 72.5786 81.8859 73.296 82.4285C73.6663 82.7084 74.1414 82.8109 74.5304 82.4563C75.0203 82.0099 75.5236 81.9662 76.0659 82.2969C78.2923 83.652 80.7636 84.4662 83.1336 85.5009L83.0973 85.5341C83.0294 84.9734 83.0186 84.3992 82.883 83.8541C82.2033 81.1097 81.4775 78.3767 80.7924 75.6348C80.5189 74.5391 80.2969 73.4298 80.0613 72.3252C79.9205 71.6619 79.8285 70.9847 79.6551 70.3307C78.8892 67.4215 78.8059 67.2514 79.0211 64.7496C79.118 63.6417 78.8506 62.7607 78.1568 61.9404C77.834 61.5609 77.8123 61.1042 78.1335 60.709C78.506 60.2491 78.642 59.746 78.6908 59.1559C78.8928 56.8224 78.1628 54.9335 76.1697 53.6321C76.5008 52.8513 76.668 52.1326 76.2975 51.3354C75.4422 49.4889 74.6555 47.6109 73.8056 45.7621C73.4646 45.0225 72.9612 44.4308 72.0604 44.3167C71.4769 44.2414 70.9851 43.98 70.7721 43.3696C70.7881 43.3731 70.7629 43.3934 70.7629 43.3934ZM95.5665 67.6907C95.5665 67.6907 95.5302 67.7212 95.5301 67.7239L95.5665 67.6907ZM22.8213 78.6249C23.0381 78.8628 23.2522 79.1033 23.469 79.3412C23.5246 79.4135 23.5688 79.5013 23.6362 79.5527C23.6854 79.5898 23.769 79.5802 23.8382 79.5915C23.7048 79.5183 23.5688 79.445 23.4355 79.3718C23.2187 79.1339 22.9991 78.8985 22.7822 78.6606L22.8213 78.6249ZM30.7306 69.4618C30.8282 69.4959 30.9232 69.5271 31.0208 69.5611C30.9174 69.5349 30.8143 69.5059 30.7109 69.4797L30.7306 69.4618ZM20.8722 76.4945C20.9516 76.6886 21.0172 76.8927 21.1214 77.0718C21.1463 77.1131 21.3747 77.1023 21.3783 77.081C21.4879 76.625 21.082 76.649 20.8414 76.52L20.8722 76.4945ZM26.3777 59.7357C25.6673 59.2149 24.9599 58.6888 24.2437 58.1785C24.1866 58.1383 23.9664 58.2032 23.9682 58.222C23.9646 58.4148 23.9156 58.6646 24.0169 58.7926C24.6242 59.5713 25.5154 59.6609 26.414 59.7052L26.3777 59.7357ZM21.3966 79.926C21.8105 80.7119 22.1717 81.5354 22.6631 82.2686C22.8863 82.6006 23.3467 82.8472 23.7463 82.9595C23.995 83.03 24.3689 82.8275 24.6209 82.6543C24.859 82.4911 24.7781 81.9244 24.5362 81.7657C23.5165 81.0938 22.5726 80.2915 21.3602 79.9592C21.3604 79.9565 21.3966 79.926 21.3966 79.926ZM99.8084 85.4188C99.6591 86.0955 100.103 86.6468 100.381 87.2333C100.454 87.3869 100.761 87.5431 100.915 87.5074C101.056 87.4737 101.231 87.1762 101.223 87.0016C101.185 86.3136 100.836 85.7479 100.374 85.252C100.31 85.1847 100.159 85.1456 100.069 85.1682C99.9771 85.1934 99.9125 85.3137 99.8084 85.4188ZM18.6551 76.9011C18.8957 77.0302 19.0993 76.9753 19.1381 76.7171C19.189 76.371 19.0102 76.1214 18.6572 76.0461C18.5749 76.0289 18.4468 76.0739 18.385 76.1353C18.183 76.3297 18.3095 76.6653 18.6551 76.9011ZM16.6406 74.3871C16.7312 74.3404 16.905 74.2921 16.9015 74.2517C16.8863 73.8275 16.8961 73.2677 16.2385 73.634C16.0431 73.7429 16.3296 74.2735 16.6406 74.3871ZM99.5623 81.7054C99.8151 81.6313 99.8948 81.4715 99.7631 81.2483C99.7184 81.1712 99.6144 81.102 99.5241 81.0844C99.2796 81.0382 99.094 81.1717 99.148 81.394C99.1822 81.5242 99.4169 81.6049 99.5623 81.7054Z" fill="#EC87FF"/>
<path d="M77.6149 160.25C78.017 160.075 78.41 159.868 78.8262 159.738C79.0574 159.665 79.2659 159.852 79.2356 160.1C79.1706 160.635 79.0468 161.166 78.9711 161.701C78.9633 161.752 79.1247 161.858 79.2226 161.884C79.3233 161.911 79.4683 161.904 79.5434 161.846C80.4264 161.187 81.3349 160.556 82.1671 159.836C83.0132 159.106 83.6398 158.194 83.927 157.087L83.8983 157.131C84.6006 156.263 85.2977 155.392 86.0105 154.53C86.2207 154.274 86.4674 154.044 86.706 153.811C86.9784 153.545 87.6876 153.514 87.9456 153.788C88.7863 154.677 89.6574 155.546 90.423 156.496C90.7576 156.91 90.9371 157.49 91.0732 158.024C91.3474 159.106 91.5618 160.205 91.7655 161.305C91.851 161.773 92.0562 162.144 92.4071 162.439C92.9308 162.882 92.9087 163.417 92.6215 163.945C92.3579 164.426 92.0315 164.877 91.695 165.312C91.4186 165.667 91.0587 165.62 90.5376 165.181C90.4551 165.11 90.4066 165 90.3412 164.909C90.5819 164.69 90.8253 164.468 91.066 164.248C91.1412 163.957 91.2457 163.67 91.2674 163.376C91.2725 163.322 90.9442 163.235 90.7614 163.189C90.7402 163.182 90.6158 163.38 90.6426 163.438C90.7715 163.723 90.9358 163.993 91.0866 164.268C90.8459 164.487 90.6024 164.709 90.3617 164.929C89.4151 165.11 88.7466 165.535 88.832 166.643C88.8488 166.858 88.8308 167.075 88.8289 167.289C88.8246 167.613 88.8204 167.935 88.8161 168.259L88.8496 168.228C88.3253 168.434 87.8363 168.693 87.5341 169.197C87.2493 169.674 86.9011 170.13 86.719 170.647C85.9973 172.683 84.5158 174.225 83.3337 175.958C83.0951 176.306 82.646 176.511 82.2957 176.781L82.3212 176.809C82.2931 175.682 82.541 174.611 82.9435 173.562C83.3003 172.63 83.6097 171.682 83.9375 170.74L83.9578 170.762C83.3218 170.315 82.6859 169.867 81.9928 169.379C80.99 169.73 80.5978 170.733 79.9398 171.453C79.3102 172.139 79.1266 173.034 79.0152 173.935L79.0432 173.91C78.7475 174.043 78.4085 174.124 78.1581 174.322C77.1315 175.129 76.1302 175.97 75.1212 176.802C74.3493 177.437 73.7612 178.211 73.3596 179.125C73.1162 179.345 72.8755 179.564 72.6322 179.781C72.5982 179.878 72.567 179.973 72.533 180.071C72.5594 179.965 72.5829 179.861 72.6093 179.755C72.8501 179.533 73.0882 179.311 73.3291 179.089C74.0958 178.972 74.8634 178.836 75.6334 178.764C75.7357 178.756 75.9496 179.058 75.9656 179.233C75.9859 179.432 75.8861 179.674 75.7655 179.848C75.3196 180.503 74.7771 181.046 74.0669 181.447C73.7007 181.656 73.4509 182.07 73.1622 182.4C73.0915 182.48 73.0592 182.599 73.0142 182.701C71.7275 185.593 69.9024 188.128 67.7635 190.436C67.3232 190.911 66.6825 191.2 66.0207 191.658C65.7564 192.5 65.4573 193.46 65.1554 194.421L65.1196 194.382C65.3251 194.287 65.5792 194.24 65.7256 194.089C67.5877 192.143 69.6531 190.381 71.0933 188.054C71.3279 187.676 71.722 187.386 72.2171 187.404C72.4313 187.411 72.661 187.486 72.8518 187.591C73.0793 187.715 73.1446 187.986 72.9546 188.151C72.2003 188.81 72.6251 189.937 71.9453 190.608C71.3833 191.166 70.775 191.682 70.2464 192.272C69.7969 192.774 69.3116 193.298 69.053 193.903C68.503 195.185 67.6559 196.224 66.7095 197.209C65.8673 198.087 65.474 199.17 65.7018 200.328C66.1406 202.544 65.504 204.595 64.9574 206.671C64.8762 206.975 64.7257 207.389 64.4897 207.507C63.5816 207.956 63.3128 208.838 62.8614 209.614C62.6401 209.992 62.3216 210.331 61.9891 210.621C61.855 210.738 61.5074 210.779 61.3615 210.686C60.9917 210.452 60.6299 210.162 60.3588 209.822C59.7205 209.018 59.126 208.947 58.4198 209.724C58.1966 209.971 57.9678 210.282 57.6788 210.387C56.9236 210.66 56.6666 211.289 56.505 211.941C56.2318 213.035 56.0725 214.156 55.8204 215.257C55.7899 215.395 55.4741 215.557 55.2975 215.549C55.121 215.541 54.9398 215.345 54.7883 215.201C54.7138 215.131 54.6878 214.998 54.6633 214.89C54.6146 214.668 54.5473 214.445 54.5469 214.222C54.5411 212.439 53.895 210.938 52.553 209.642C51.7587 210.991 51.6033 212.665 50.5381 213.784C49.8676 213.676 49.763 213.156 49.4585 212.844C48.9926 212.37 48.1295 212.255 48.0286 211.481C47.8861 210.391 47.0721 209.388 47.6395 208.195C47.8949 207.657 47.6534 207.083 47.5125 206.538L47.538 206.566C46.774 206.509 46.0541 206.194 45.2409 206.387C43.9129 206.701 43.8869 206.624 44.1758 205.019L44.1989 205.044C43.8848 204.533 43.7645 204.005 44.1269 203.472C44.5039 202.916 44.9172 202.383 45.2891 201.821C45.5052 201.496 45.304 200.809 44.9611 200.629C44.7622 200.526 44.5556 200.412 44.3403 200.373C42.7962 200.084 42.9006 199.161 43.1155 198.112C43.2745 197.342 43.5236 196.593 43.7199 195.83C43.8571 195.297 43.6497 195.089 42.7752 194.813C42.6722 194.781 42.5817 194.707 42.4826 194.649C42.2518 193.96 42.6266 193.337 42.7106 192.681L42.7258 192.698C42.1754 192.541 41.7084 192.268 41.6135 191.655C41.3775 190.153 41.1685 188.648 40.9514 187.145L40.9129 187.164C41.4387 187.561 41.956 187.966 42.4904 188.35C42.877 188.628 43.2819 188.451 43.4891 187.914C43.5681 187.711 43.5947 187.487 43.6448 187.272C44.1029 186.931 44.5485 186.571 44.7199 185.998C44.891 185.429 44.8463 184.832 44.536 184.354C43.1821 182.275 41.9554 180.117 40.6484 178.011C40.5884 177.917 40.5064 177.833 40.4242 177.757C39.0059 176.431 37.8965 174.862 36.8152 173.265C36.6372 173 36.3099 172.829 36.0318 172.642C35.9564 172.59 35.7634 172.592 35.7099 172.649C35.5688 172.8 35.366 173.011 35.3853 173.172C35.4239 173.496 35.5033 173.923 35.7286 174.094C37.585 175.51 38.6276 177.537 39.8259 179.444C40.6071 180.692 41.3551 181.963 42.139 183.211C42.9329 184.473 43.5279 185.803 43.6674 187.305C42.9794 186.938 42.5596 186.337 42.1664 185.684C41.6163 184.771 41.0083 183.893 40.4251 183L40.4628 183.053C39.9778 181.891 39.3678 180.825 38.3461 180.025C37.8081 179.603 37.299 179.193 36.6105 179.011C36.2001 178.901 35.742 178.663 35.4808 178.34C33.7007 176.147 31.7424 174.097 30.2239 171.695C29.7419 170.932 29.1891 170.191 28.5566 169.553C27.0993 168.086 26.1431 166.275 25.0291 164.575C24.8514 164.302 24.7633 163.946 24.7116 163.617C24.621 163.026 25.4639 162.714 25.2434 162.092C25.0559 161.569 24.7594 161.083 24.5338 160.571C24.4999 160.492 24.5547 160.296 24.6233 160.262C24.8127 160.166 25.0796 160.018 25.2293 160.084C25.8468 160.354 26.4716 160.637 27.0193 161.022C27.7566 161.541 28.4249 162.159 29.1247 162.733C29.3441 162.974 29.5636 163.215 29.7856 163.455C29.9876 165.17 30.615 166.67 31.8991 167.883C32.382 168.337 32.7353 168.927 33.1618 169.442C33.3749 169.701 33.6417 169.902 34.0106 169.809C34.2304 169.752 34.3038 169.208 34.1305 168.9C32.9764 166.85 31.736 164.867 29.7519 163.489C29.5325 163.248 29.3131 163.007 29.0937 162.767C28.8394 161.372 27.8653 160.469 26.8791 159.595C26.1427 158.941 25.3385 158.365 24.5654 157.753L24.5985 157.789C24.477 156.768 24.0996 155.828 23.5187 155.002C21.7405 152.478 20.9614 149.565 20.2367 146.637C19.9162 145.338 19.5513 144.074 18.875 142.821C18.1885 143.172 17.6037 143.469 17.0189 143.767L17.055 143.798C16.8347 142.479 16.6172 141.158 16.3991 139.848C17.0818 139.116 18.0181 138.923 18.8413 138.919C19.8791 138.91 20.8367 138.783 21.7747 138.382C22.5678 138.043 23.3302 138.194 24.0266 138.61C24.5979 138.95 25.1165 139.386 25.6529 139.787C26.4587 140.387 27.2615 140.995 28.0646 141.598L28.0268 141.545C28.2969 142.255 28.5858 142.96 28.8178 143.681C28.8694 143.839 28.778 144.135 28.6503 144.231C28.5113 144.337 28.2234 144.358 28.0524 144.289C27.5499 144.083 27.0746 143.812 26.5899 143.57L26.6123 143.549C26.6421 143.658 26.6555 143.776 26.7073 143.873C26.8652 144.167 26.9742 144.534 27.2144 144.73C28.702 145.949 29.3834 147.902 31.0865 148.925C31.6654 149.273 32.243 149.651 32.7226 150.119C33.1126 150.496 33.4542 150.992 33.6343 151.501C33.895 152.24 34.011 153.031 34.1439 153.809C34.2453 154.395 34.4884 154.875 34.9737 155.22C35.537 155.618 35.9251 156.151 36.306 156.724C36.6693 157.271 37.3222 157.645 37.6202 158.213C37.9182 158.782 37.9305 159.501 38.0646 160.135C38.5432 160.393 38.9162 160.673 39.3361 160.81C40.7199 161.26 41.5638 162.313 42.307 163.454C42.5347 163.805 42.5355 164.306 42.6413 164.74L42.6724 164.71C42.6606 164.964 42.6489 165.215 42.6371 165.469L42.6116 165.441C42.9244 166.037 43.3688 166.511 43.9336 166.875L43.9031 166.841C43.9713 167.394 44.0423 167.944 44.1245 168.599C44.3335 168.716 44.5997 168.93 44.9009 169.024C45.974 169.353 46.6688 169.98 46.8102 171.15C46.8318 171.32 47.0464 171.491 47.207 171.611C47.3677 171.731 47.6743 171.246 47.6856 170.829C47.6985 170.376 47.7436 169.923 47.7054 169.476C47.3788 165.534 46.9849 161.599 46.4941 157.67C45.917 153.062 44.9692 148.528 44.0268 143.992C43.4503 141.22 42.7326 138.488 41.427 135.945C41.0656 135.242 40.7783 134.499 40.4963 133.76C39.2061 130.365 37.3975 127.225 35.737 124.012C35.4788 123.51 35.2015 123.014 34.9707 122.499C34.6962 121.886 34.8379 121.434 35.4952 121.132C35.8595 120.964 35.8348 120.572 35.6668 120.264C35.2345 119.469 34.7637 118.697 34.3177 117.909C34.1144 117.552 34.1767 117.018 34.4146 117.032C34.7194 117.049 35.0158 117.247 35.3158 117.369C35.535 117.612 35.7572 117.853 35.9765 118.094L35.9514 118.114C35.7293 117.873 35.5101 117.632 35.288 117.391C35.2876 116.418 34.9668 115.645 34.0571 115.144C32.8311 114.471 31.8688 113.547 31.4999 112.136C31.4774 112.044 31.5212 111.909 31.5811 111.832C31.6383 111.754 31.7767 111.658 31.8427 111.68C32.3739 111.844 32.8923 112.053 33.4265 112.209C33.8443 112.333 34.2872 111.801 34.2001 111.369C34.0172 110.457 33.5734 109.677 33.0532 108.93C32.3446 107.908 31.6142 106.895 30.9167 105.866C30.6658 105.495 30.309 105.095 30.285 104.689C30.2063 103.436 29.4039 102.646 28.6773 101.781C27.8744 100.83 27.0742 99.8759 26.2963 98.9043C25.8554 98.3531 25.321 97.9691 24.6344 97.8033L24.6545 97.831C24.9303 96.9136 25.3126 96.1271 26.4996 96.3109C26.6088 96.3266 26.7267 96.3267 26.8322 96.3048C26.9351 96.2828 27.1032 96.245 27.1195 96.1814C27.1687 95.988 27.2547 95.6944 27.1578 95.5881C25.1256 93.3386 23.2771 90.9395 21.3648 88.5911C20.5633 87.6076 19.9684 86.5614 19.7748 85.3032L19.7469 85.3288C21.1843 86.2425 22.2247 87.5051 23.1012 88.953C24.03 90.4865 25.1625 91.8472 26.9344 92.4842L26.8986 92.4451C27.3119 92.609 27.7161 92.7966 28.1358 92.9367C28.9676 93.2084 29.0009 93.2422 28.8792 94.1319C28.8502 94.353 28.7491 94.5681 28.7361 94.79C28.7014 95.3648 29.2185 95.8337 29.8408 95.825C30.4255 95.8173 31.0641 95.3992 31.1498 94.9394C31.2106 94.6099 31.2801 94.2673 31.2524 93.9389C31.1916 93.2284 31.4056 92.6004 31.7286 91.9935L31.6954 92.0187C32.2935 92.3011 32.7228 92.7553 33.0422 93.325C33.4582 94.0654 33.8796 94.8033 34.2957 95.541L34.2626 95.5046C34.7965 96.0735 35.3832 96.602 35.8451 97.2212C36.2689 97.7931 36.2813 98.3914 35.7791 99.049C35.2798 99.6987 35.5297 100.324 36.2393 100.631C36.4416 100.718 36.6616 100.771 36.8759 100.832C36.9843 100.863 37.0963 100.877 37.2022 100.906C38.0686 101.125 38.4623 101.771 38.6965 102.559L38.7328 102.526C38.2694 102.518 37.8087 102.51 37.3452 102.505L37.3761 102.477C37.262 102.914 37.1488 103.388 37.4863 103.742C38.0207 104.3 38.6053 104.815 39.1989 105.311C39.5885 105.638 40.0015 105.577 40.3974 105.246C40.5563 105.114 40.7867 105.061 40.981 104.973C41.9337 105.529 42.8863 106.086 43.8361 106.647C43.93 106.702 44.0282 106.782 44.0748 106.875C44.1678 107.067 44.3308 107.308 44.2803 107.472C44.1919 107.76 44.0016 108.049 43.7802 108.255C43.6429 108.383 43.3603 108.41 43.152 108.393C42.7116 108.351 42.2766 108.25 41.8405 108.174C41.7957 107.984 41.7755 107.785 41.7033 107.607C41.5947 107.347 41.4324 107.321 41.3235 107.53C41.294 107.588 41.3572 107.73 41.4188 107.789C41.5601 107.922 41.7269 108.024 41.885 108.141C41.7269 109.527 41.8616 110.785 42.9094 111.893C43.3336 112.341 43.418 113.12 43.6433 113.752C44.1697 115.235 44.6337 116.734 45.5455 118.057C45.9849 118.697 46.1919 119.492 46.5619 120.185C47.038 121.075 47.5746 121.934 48.0837 122.807C48.6745 123.824 49.5409 124.505 50.6375 124.904L50.618 124.922C50.6604 124.816 50.695 124.705 50.7504 124.609C51.1271 123.943 51.6681 123.606 52.433 123.875C53.1796 124.134 53.9077 124.45 54.6394 124.741C55.1612 125.339 55.7109 125.911 56.1912 126.536C56.4591 126.887 56.7714 127.322 56.7822 127.725C56.8122 128.812 57.3684 129.652 57.8221 130.563C58.7807 132.495 59.6138 134.474 60.1218 136.584C60.4387 137.901 60.8342 139.198 61.1783 140.506C61.1989 140.582 61.0987 140.722 61.0181 140.783C60.9405 140.838 60.7615 140.883 60.7205 140.841C60.0904 140.209 59.4771 139.561 58.8583 138.916L58.8242 138.957C58.8379 138.719 58.8543 138.482 58.8681 138.241L58.8731 138.249C58.5857 137.279 58.3009 136.309 58.0108 135.338C57.8114 134.667 57.4109 134.115 56.8473 133.724C56.6058 133.555 56.1876 133.439 55.9313 133.532C55.4814 133.696 55.1182 133.84 54.7006 133.48C54.4351 133.251 54.0768 133.175 53.7966 133.435C53.368 133.834 53.0894 134.352 53.2336 134.943C53.3398 135.368 53.573 135.773 53.8045 136.157C54.2701 136.926 54.8072 137.659 55.2507 138.441C55.5829 139.024 55.8186 139.665 56.0984 140.279L58.801 151.773C58.7754 152.557 58.7685 153.345 58.7161 154.128C58.6566 155.007 58.1218 155.553 57.3573 155.912L57.3825 155.889C59.064 157.897 59.3279 160.415 59.8351 162.833C60.0439 163.821 60.1298 164.859 60.099 165.871C59.9744 169.948 60.6824 173.986 60.6599 178.057C60.6579 178.274 60.744 178.5 60.8283 178.705C60.8643 178.795 60.9911 178.892 61.0896 178.908C61.3557 178.949 61.5365 178.808 61.5653 178.533C61.5863 178.311 61.5542 178.082 61.5592 177.857C61.5799 176.949 61.7775 176.618 62.4191 176.771C63.5513 177.041 64.3987 176.512 65.2971 176.041L65.2666 176.005C65.4885 176.249 65.7104 176.492 65.9323 176.736L65.9425 176.747C65.937 176.983 65.9343 177.216 65.9287 177.451C65.678 177.887 65.43 178.321 65.1792 178.757C64.9437 178.979 64.711 179.202 64.4755 179.424C64.2376 179.41 64.0023 179.397 63.7672 179.38L63.7867 179.362C64.0113 179.376 64.236 179.386 64.4605 179.399C64.696 179.177 64.9287 178.957 65.1641 178.735C65.4095 178.298 65.6549 177.862 65.9005 177.423C66.1438 177.204 66.3898 176.987 66.6332 176.768L66.6109 176.786C66.7872 176.625 66.9662 176.465 67.1427 176.301C67.2531 176.175 67.3635 176.049 67.4712 175.922C67.6795 175.535 67.8878 175.148 68.0986 174.764L68.0511 174.807C68.4171 174.545 68.8161 174.32 69.1464 174.019C69.9079 173.32 70.5462 172.561 70.5854 171.427C70.5999 170.998 70.8768 170.58 71.0357 170.158L71.0105 170.181C71.6971 170.403 72.3179 170.311 72.8231 169.764C73.8024 168.705 74.6209 167.531 75.3123 166.263L75.2787 166.294C75.8099 165.879 76.3641 165.491 76.8647 165.043C77.3065 164.648 77.5507 164.123 77.2912 163.535C77.0096 162.9 76.8842 162.251 76.8918 161.567L76.861 161.595C77.1179 161.143 77.3746 160.692 77.6315 160.24L77.6149 160.25ZM42.4913 123.859C42.2745 123.621 42.0576 123.383 41.8436 123.142C41.6396 122.685 41.4358 122.226 41.2345 121.769C41.0151 121.528 40.793 121.287 40.5737 121.044L40.6073 121.013C40.8267 121.254 41.0487 121.495 41.2681 121.735C41.4665 122.197 41.6676 122.66 41.8661 123.119C42.083 123.357 42.3026 123.593 42.5194 123.831L42.4913 123.859ZM39.4972 115.528C39.7167 115.766 39.9335 116.004 40.153 116.242L40.1306 116.262C39.9139 116.022 39.6971 115.784 39.4804 115.543L39.4972 115.528ZM43.6567 172.963C43.7626 173.282 43.8217 173.628 43.9827 173.914C44.4011 174.66 44.7537 174.802 45.6614 174.651C45.8801 174.616 46.0887 174.513 46.3039 174.44C46.3598 174.507 46.4042 174.587 46.4717 174.635C46.5209 174.672 46.5961 174.67 46.6623 174.687C46.5316 174.617 46.4007 174.546 46.2673 174.476C46.2236 174.262 46.199 174.044 46.1307 173.839C45.9399 173.27 45.5509 172.928 44.9318 172.926C44.4976 172.925 44.0642 172.966 43.629 172.986C43.4096 172.745 43.1929 172.502 42.9736 172.262C43.0172 170.974 42.6493 169.831 41.9164 168.757C41.0855 167.539 40.204 166.372 39.22 165.279L39.2424 165.258C38.9917 165.925 39.1105 166.542 39.4993 167.117C40.6612 168.828 41.8313 170.533 42.996 172.241C43.218 172.482 43.4374 172.723 43.6567 172.963ZM48.9414 131.656C48.1429 130.897 47.234 130.263 46.905 129.092C46.6634 128.231 46.0907 127.518 45.3603 126.967C45.2852 126.91 45.0798 126.887 45.0456 126.931C44.9202 127.092 44.7159 127.334 44.7606 127.468C45.3548 129.165 46.3841 130.612 47.4994 131.996C47.72 132.269 48.1183 132.178 48.4243 131.996C48.6145 131.884 48.7923 131.748 48.975 131.622L48.9414 131.656ZM40.9214 129.214C41.3152 132.168 42.6464 134.736 44.2264 137.198C44.3365 137.369 44.5645 137.481 44.7554 137.584C44.8391 137.628 44.9849 137.608 45.0832 137.57C45.1789 137.529 45.2717 137.436 45.3215 137.345C45.3713 137.253 45.4099 137.113 45.3766 137.023C44.3209 134.178 42.8909 131.547 40.8823 129.25L40.9214 129.214ZM48.8276 135.033C48.89 135.248 48.9027 135.495 49.0205 135.672C50.2267 137.468 50.9087 139.47 51.3856 141.556C51.4347 141.77 51.5378 141.973 51.6139 142.183C51.7208 142.477 52.1517 142.723 52.4259 142.65C52.8332 142.537 53.3079 142.01 53.271 141.708C53.2436 141.489 53.26 141.251 53.178 141.055C52.2976 138.998 51.4008 136.946 50.5041 134.894C50.463 134.798 50.3688 134.692 50.2763 134.663C50.0728 134.6 49.828 134.503 49.6509 134.565C49.3429 134.674 49.0727 134.895 48.7858 135.069C48.7885 135.069 48.8276 135.033 48.8276 135.033ZM51.4794 130.395C52.292 130.562 52.8269 130.702 53.371 130.762C53.539 130.78 53.8039 130.618 53.8968 130.465C53.9898 130.308 54.004 130.003 53.9089 129.857C53.3765 129.025 52.8136 128.213 52.2284 127.422C52.1427 127.306 51.8638 127.309 51.6737 127.303C51.6149 127.3 51.503 127.458 51.5015 127.547C51.4826 128.417 51.4851 129.291 51.4794 130.395ZM32.4524 98.356C32.5876 98.2738 32.75 98.1795 32.7477 98.1713C32.6079 97.8914 32.4906 97.5885 32.2866 97.3645C32.1743 97.2414 31.911 97.256 31.7176 97.2068C31.7193 97.3999 31.6458 97.6538 31.7396 97.7707C31.935 98.0077 32.2196 98.1737 32.4524 98.356ZM55.0292 154.206C55.0172 154.291 54.9779 154.389 54.9926 154.475C55.0479 154.786 55.1494 154.793 55.2491 154.492C55.2771 154.41 55.258 154.302 55.2269 154.22C55.2201 154.193 55.1014 154.209 55.0292 154.206ZM87.1392 156.263L86.9386 156.138L86.8953 156.321L87.1392 156.263Z" fill="#EC87FF"/>
<path d="M57.406 7.98996C56.9828 9.60286 57.4479 11.1336 57.887 12.6498C58.1985 13.7365 58.6482 14.7894 58.4897 15.9535C58.4775 16.0441 58.3545 16.1536 58.2591 16.1867C58.1638 16.2198 58.0282 16.1947 57.9283 16.1526C57.831 16.1106 57.7303 16.0281 57.6755 15.9371C55.6866 12.6389 55.3441 9.15692 56.5344 5.51012C56.6283 5.2196 57.017 5.27787 57.3591 5.64758C57.4332 5.72606 57.4597 5.84789 57.5085 5.95202L57.5336 5.93179C56.9583 6.60476 56.8482 7.30195 57.4309 8.03129L57.406 7.98996Z" fill="#EC87FF"/>
<path d="M48.7338 117.862C48.7283 117.749 48.7228 117.636 48.7171 117.526C48.7035 117.185 48.728 116.832 49.1135 116.727C49.3063 116.674 49.5967 116.709 49.7495 116.826C50.7307 117.577 51.6922 118.348 52.6335 119.147C52.7367 119.235 52.6692 119.535 52.6547 119.733C52.6538 119.751 52.4234 119.805 52.3505 119.759C51.6528 119.311 51.1563 119.612 50.5441 120.04C49.7934 120.562 48.8627 120.055 48.7758 119.212C48.7539 118.989 48.7403 118.763 48.7345 118.54C48.7289 118.315 48.7341 118.087 48.7338 117.862Z" fill="#EC87FF"/>
<path d="M42.0404 102.13C41.094 101.496 40.3428 100.641 39.759 99.7027C38.9208 98.3556 37.8686 97.2293 36.7196 96.1681C36.5602 96.0213 36.4629 95.805 36.3347 95.6222L36.2931 95.6524C36.845 95.7155 37.4309 95.6837 37.9369 95.8706C38.4351 96.0519 38.9945 96.3593 39.2807 96.7773C40.2768 98.2469 41.1706 99.7842 42.0865 101.306C42.196 101.488 42.2117 101.73 42.2714 101.945L42.0404 102.13Z" fill="#EC87FF"/>
<path d="M40.9566 187.147C40.6215 186.859 40.2334 186.615 39.9649 186.276C39.2104 185.321 38.5223 184.319 37.7788 183.357C37.3539 182.807 37.1434 182.202 37.1323 181.515L37.096 181.548C38.172 182.161 39.1823 182.918 40.4678 183.061L40.43 183.008C40.521 183.648 40.5495 184.306 40.7192 184.925C40.9232 185.672 40.9908 186.409 40.918 187.17L40.9566 187.147Z" fill="#EC87FF"/>
<path d="M65.3137 176.031C65.7437 174.85 66.5652 173.956 67.4389 173.093C67.703 172.832 68.2012 172.723 68.3096 172.929C68.4007 173.103 68.4757 173.337 68.4377 173.52C68.3506 173.953 68.1945 174.372 68.0649 174.797L68.1124 174.754C67.9042 175.141 67.696 175.528 67.4852 175.912C67.3748 176.039 67.267 176.165 67.1566 176.291C66.9803 176.452 66.8011 176.615 66.6221 176.776C66.6221 176.776 66.6444 176.758 66.6443 176.761C66.4141 176.753 66.1865 176.747 65.9564 176.739L65.9462 176.728C65.7242 176.485 65.5022 176.241 65.2803 175.998L65.3137 176.031Z" fill="#EC87FF"/>
<path d="M28.9802 105.714C29.086 105.746 29.2363 105.742 29.2921 105.812C29.9777 106.693 30.6879 107.563 30.8976 108.706C30.9126 108.787 30.8314 108.92 30.7564 108.976C30.6843 109.029 30.555 109.042 30.4593 109.024C30.3557 109.003 30.2403 108.949 30.1715 108.874C29.4122 108.021 28.8861 107.05 28.7274 105.906C28.7217 105.855 28.8914 105.78 28.9802 105.714Z" fill="#EC87FF"/>
<path d="M58.7896 141.438C58.8996 141.435 59.033 141.39 59.1141 141.434C59.8592 141.842 60.1714 142.51 60.187 143.328C60.1888 143.406 60.0707 143.524 59.9807 143.557C59.8907 143.591 59.744 143.576 59.6688 143.521C59.1323 143.124 58.6524 142.662 58.5123 141.983C58.4846 141.829 58.6926 141.621 58.7896 141.438Z" fill="#EC87FF"/>
<path d="M47.1196 112.49C47.7267 112.811 48.202 113.259 48.5136 113.879C48.6684 114.184 48.5979 114.663 48.3349 114.785C47.9868 114.948 47.6797 114.808 47.4192 114.587C46.6892 113.969 46.8039 113.229 47.1369 112.464C47.1395 112.467 47.1196 112.49 47.1196 112.49Z" fill="#EC87FF"/>
<path d="M62.1486 170.521C62.2114 170.438 62.2592 170.33 62.3389 170.288C62.4213 170.247 62.5645 170.224 62.6321 170.27C63.4727 170.813 63.5853 171.622 63.4017 172.517C63.3878 172.586 63.245 172.66 63.1532 172.674C63.0587 172.689 62.9233 172.661 62.8592 172.599C62.2744 172.028 62.2538 171.257 62.1486 170.521Z" fill="#EC87FF"/>
<path d="M82.2954 176.787C82.036 177.64 81.6981 178.453 80.8749 178.919C80.7346 178.998 80.4142 178.97 80.3199 178.864C80.2079 178.735 80.1659 178.43 80.2426 178.278C80.3843 177.998 80.5906 177.707 80.8503 177.543C81.3115 177.25 81.83 177.052 82.3236 176.815C82.3209 176.815 82.2954 176.787 82.2954 176.787Z" fill="#EC87FF"/>
<path d="M58.8666 138.908C57.8169 138.828 56.9363 138.508 56.666 137.343C56.6483 137.262 56.7025 137.133 56.7644 137.069C56.8263 137.007 56.9821 136.945 57.0316 136.976C57.6558 137.389 58.2657 137.819 58.8813 138.244L58.8763 138.236C58.8626 138.474 58.8462 138.712 58.8324 138.952L58.8666 138.908Z" fill="#EC87FF"/>
<path d="M47.5608 107.313C47.2087 107.506 46.9706 107.73 46.715 107.751C46.3921 107.776 46.1271 107.536 46.0657 107.185C45.9937 106.771 46.5167 106.358 46.931 106.557C47.1644 106.67 47.2998 106.987 47.5608 107.313Z" fill="#EC87FF"/>
<path d="M42.2687 101.945C42.6978 102.461 43.1492 102.961 43.5504 103.5C43.722 103.73 43.599 103.955 43.3289 103.999C43.2344 104.013 43.1004 103.954 43.0232 103.883C42.5092 103.406 42.2294 102.793 42.0429 102.133C42.0403 102.13 42.2687 101.945 42.2687 101.945Z" fill="#EC87FF"/>
<path d="M17.0243 143.767C17.0233 144.193 17.0596 144.626 16.9972 145.047C16.9743 145.193 16.7191 145.321 16.5458 145.415C16.4908 145.444 16.3018 145.358 16.2783 145.287C16.212 145.099 16.1018 144.818 16.1848 144.704C16.4309 144.369 16.7651 144.095 17.0631 143.798C17.0604 143.798 17.0243 143.767 17.0243 143.767Z" fill="#EC87FF"/>
<path d="M58.7573 8.73621C58.3051 8.48739 57.8555 8.23869 57.4033 7.98986L57.4257 8.0284C57.4609 7.3277 57.4933 6.62959 57.5284 5.92889L57.5033 5.94912C58.1373 6.7854 58.6401 7.67991 58.7324 8.75377L58.7573 8.73621Z" fill="#EC87FF"/>
<path d="M60.2969 19.7044C59.8605 19.577 59.4596 19.3788 59.3175 18.9165C59.2616 18.7343 59.2852 18.4539 59.3934 18.3168C59.5413 18.1334 59.7838 18.2224 59.8766 18.476C60.0238 18.8876 60.1354 19.3136 60.2634 19.7324L60.2969 19.7044Z" fill="#EC87FF"/>
<path d="M45.2445 110.382C45.1588 110.322 45.0322 110.278 44.9904 110.196C44.8529 109.924 45.2265 109.556 45.5773 109.62C45.673 109.638 45.787 109.724 45.8313 109.809C45.979 110.092 45.6398 110.414 45.2445 110.382Z" fill="#EC87FF"/>
<path d="M63.0107 163.894C62.8665 163.997 62.7152 164.197 62.5789 164.188C62.2636 164.165 62.1056 163.755 62.2744 163.468C62.3209 163.39 62.4288 163.32 62.5208 163.3C62.8273 163.223 63.0756 163.535 63.0107 163.894Z" fill="#EC87FF"/>
<path d="M78.1891 176.545C78.1247 176.489 78.0601 176.435 77.9957 176.378C78.1088 176.252 78.2221 176.123 78.3455 176.006C78.3511 176.001 78.4667 176.11 78.5312 176.164C78.418 176.293 78.3021 176.419 78.1891 176.545Z" fill="#EC87FF"/>
<path d="M83.927 157.087C83.6146 157.177 83.3069 157.283 82.9901 157.352C82.9115 157.37 82.7515 157.293 82.7227 157.222C82.6316 156.989 82.7599 156.765 83.0183 156.798C83.3194 156.839 83.6034 157.016 83.8955 157.134C83.8983 157.131 83.927 157.087 83.927 157.087Z" fill="#EC87FF"/>
<path d="M28.0699 141.598C28.1936 141.416 28.2844 141.193 28.4486 141.061C28.6519 140.899 28.8814 140.979 29.0018 141.215C29.0436 141.298 29.0392 141.45 28.9877 141.52C28.9333 141.595 28.7964 141.656 28.6976 141.649C28.4756 141.638 28.2556 141.583 28.0348 141.546C28.032 141.548 28.0699 141.598 28.0699 141.598Z" fill="#EC87FF"/>
<path d="M83.763 152.761C83.6154 152.88 83.4652 152.999 83.3176 153.118C83.2112 152.985 82.9921 152.798 83.025 152.724C83.0937 152.572 83.2806 152.411 83.4457 152.379C83.6756 152.333 83.7932 152.516 83.763 152.761Z" fill="#EC87FF"/>
<path d="M37.0808 93.6355C37.5357 93.8845 37.9906 94.1334 38.4429 94.3796L38.4047 94.3375C37.8111 94.8837 37.0797 94.9329 36.3276 94.9087L36.3637 94.9399C36.374 94.7179 36.3844 94.4932 36.3947 94.2712L36.3669 94.2914C36.6216 94.0592 36.8764 93.827 37.1284 93.5948L37.0808 93.6355Z" fill="#EC87FF"/>
<path d="M51.2452 122.726C51.0752 122.635 50.9052 122.544 50.7379 122.45C50.8367 122.286 50.9079 122.021 51.0409 121.985C51.1712 121.95 51.3632 122.147 51.5303 122.243C51.4343 122.405 51.3385 122.564 51.2452 122.726Z" fill="#EC87FF"/>
<path d="M22.4248 160.385C22.1106 160.108 21.7907 159.838 21.4905 159.548C21.4367 159.495 21.4288 159.32 21.4749 159.25C21.6165 159.029 21.8726 158.998 21.9904 159.231C22.1744 159.599 22.2676 160.016 22.3968 160.411L22.4248 160.385Z" fill="#EC87FF"/>
<path d="M38.4429 94.3796C38.5082 94.1869 38.5577 93.9881 38.6492 93.8074C38.6845 93.7393 38.83 93.663 38.8934 93.6847C39.1337 93.7628 39.1783 93.9579 38.9668 94.125C38.8165 94.2441 38.5954 94.2713 38.4047 94.3375L38.4429 94.3796Z" fill="#EC87FF"/>
<path d="M90.6266 167.946L90.5322 168.188L90.413 167.984L90.6266 167.946Z" fill="#EC87FF"/>
<path d="M45.736 112.386C45.638 112.649 45.6757 113.051 45.2015 112.929C45.1724 112.923 45.1511 112.686 45.184 112.669C45.3682 112.57 45.5697 112.504 45.7636 112.427C45.7661 112.43 45.736 112.386 45.736 112.386Z" fill="#EC87FF"/>
<path d="M60.5119 73.5821C60.6206 73.6086 60.7409 73.6169 60.8404 73.667C61.5665 74.0224 61.5636 74.0249 61.1287 74.9644L61.1602 74.9793C60.9491 74.5031 60.738 74.0269 60.5268 73.5507C60.5294 73.5535 60.5119 73.5821 60.5119 73.5821Z" fill="#EC87FF"/>
<path d="M74.5619 191.525C74.5363 191.441 74.4664 191.331 74.4985 191.276C74.5307 191.216 74.6545 191.205 74.7392 191.172C74.7646 191.259 74.8295 191.364 74.7998 191.424C74.7704 191.482 74.6439 191.492 74.5619 191.525Z" fill="#EC87FF"/>
<path d="M36.4239 93.5809C36.3872 92.6383 36.3872 92.6383 37.1863 92.2867L37.1528 92.2583C37.1288 92.7182 37.1048 93.1756 37.0808 93.6355L37.1281 93.6002C36.8847 93.5889 36.6414 93.5749 36.3953 93.5635L36.4239 93.5809Z" fill="#EC87FF"/>
<path d="M44.1025 35.9651L44.228 35.802L44.2886 35.9979L44.1025 35.9651Z" fill="#EC87FF"/>
<path d="M38.4496 20.7423C38.5281 20.8987 38.604 21.0551 38.6826 21.2115C38.6067 21.1705 38.498 21.1466 38.4634 21.0834C38.4164 20.9981 38.4245 20.8805 38.4079 20.7752L38.4496 20.7423Z" fill="#EC87FF"/>
<path d="M45.7662 112.43C46.2331 112.071 46.6907 111.972 47.1196 112.49L47.1396 112.467C46.6717 112.44 46.2039 112.413 45.7359 112.389C45.736 112.386 45.7662 112.43 45.7662 112.43Z" fill="#EC87FF"/>
<path d="M88.6654 39.4383C88.8662 39.906 89.067 40.3764 89.2678 40.8441L89.3042 40.8109C89.0658 40.8053 88.8277 40.7969 88.5894 40.7912L88.6272 40.8412C88.6519 40.3679 88.6765 39.8919 88.7012 39.4186L88.6654 39.4383Z" fill="#EC87FF"/>
<path d="M35.8323 90.8487C36.285 91.0869 36.7348 91.3275 37.1875 91.5656L37.2182 91.5429C36.7656 91.3021 36.3102 91.0612 35.8575 90.8231C35.8574 90.8258 35.8323 90.8487 35.8323 90.8487Z" fill="#EC87FF"/>
<path d="M59.8326 73.5506C60.0599 73.5612 60.2845 73.5716 60.5118 73.5848L60.5292 73.5561C60.2937 73.5479 60.0556 73.5369 59.8201 73.5286L59.8326 73.5506Z" fill="#EC87FF"/>
<path d="M38.7044 102.56L38.7408 102.526C38.7407 102.529 38.7044 102.56 38.7044 102.56Z" fill="#EC87FF"/>
<path d="M37.1863 92.2867C37.1977 92.0406 37.2092 91.7945 37.218 91.5456L37.1874 91.5683C37.1767 91.7984 37.1635 92.0282 37.1528 92.2583L37.1863 92.2867Z" fill="#EC87FF"/>
<path d="M36.3945 94.2739C36.4052 94.0438 36.4133 93.811 36.4239 93.5809L36.398 93.5609C36.3867 93.8043 36.3781 94.0506 36.3668 94.294L36.3945 94.2739Z" fill="#EC87FF"/>
<path d="M36.3274 94.9114C36.316 95.1575 36.3046 95.4036 36.2931 95.6524L36.3347 95.6222C36.3451 95.3975 36.353 95.17 36.3634 94.9453C36.3635 94.9426 36.3274 94.9114 36.3274 94.9114Z" fill="#EC87FF"/>
<path d="M31.734 91.9937C31.5119 91.7529 31.2899 91.5147 31.0651 91.2738L31.0288 91.3042C31.2829 91.316 31.5343 91.3276 31.7858 91.3393C31.7858 91.3393 31.7419 91.3025 31.7421 91.2998C31.7282 91.5404 31.7145 91.7783 31.698 92.0188C31.7007 92.0189 31.734 91.9937 31.734 91.9937Z" fill="#EC87FF"/>
<path d="M21.9715 154.955C22.1911 155.19 22.4108 155.425 22.6304 155.661L22.6528 155.64C22.4388 155.4 22.2248 155.159 22.0107 154.919C22.0108 154.916 21.9715 154.955 21.9715 154.955Z" fill="#EC87FF"/>
<path d="M23.9404 97.7979C24.1784 97.8089 24.4192 97.8201 24.6573 97.8311L24.6371 97.8034C24.4179 97.7905 24.1959 97.7776 23.9767 97.7647L23.9404 97.7979Z" fill="#EC87FF"/>
<path d="M22.0108 154.916L21.9688 154.955C21.9714 154.955 22.0108 154.916 22.0108 154.916Z" fill="#EC87FF"/>
<path d="M23.9795 97.7648L23.943 97.798C23.9403 97.7979 23.9795 97.7648 23.9795 97.7648Z" fill="#EC87FF"/>
<path d="M23.7854 86.8563C23.5579 86.8485 23.3331 86.8407 23.1056 86.8329L23.081 86.8451C23.3217 86.8562 23.5599 86.8647 23.8006 86.8758L23.7854 86.8563Z" fill="#EC87FF"/>
<path d="M23.1084 86.833C23.119 86.603 23.1296 86.3756 23.1402 86.1455L23.1195 86.1285C23.1085 86.3665 23.0947 86.6071 23.0837 86.8452L23.1084 86.833Z" fill="#EC87FF"/>
<path d="M40.5663 195.335L40.5433 195.31C40.5459 195.31 40.5663 195.335 40.5663 195.335Z" fill="#EC87FF"/>
<path d="M42.6442 164.738C42.6334 164.97 42.6225 165.206 42.6117 165.439L42.6373 165.467C42.649 165.212 42.6607 164.961 42.6725 164.707L42.6442 164.738Z" fill="#EC87FF"/>
<path d="M118.899 120.648L118.871 120.454L119.062 120.498L118.899 120.648Z" fill="#EC87FF"/>
<path d="M88.816 168.261L88.8495 168.231C88.8493 168.234 88.816 168.261 88.816 168.261Z" fill="#EC87FF"/>
<path d="M89.2704 40.8443L89.3068 40.8111C89.3041 40.8109 89.2704 40.8443 89.2704 40.8443Z" fill="#EC87FF"/>
<path d="M76.9031 161.554L76.8723 161.582C76.8696 161.582 76.9031 161.554 76.9031 161.554Z" fill="#EC87FF"/>
<path d="M71.0469 170.145L71.0218 170.168C71.0219 170.165 71.0469 170.145 71.0469 170.145Z" fill="#EC87FF"/>
<path d="M71.8056 37.3834L71.6108 37.4227L71.6679 37.2296L71.8056 37.3834Z" fill="#EC87FF"/>
</svg>
