<svg width="518" height="430" viewBox="0 0 518 430" fill="none" xmlns="http://www.w3.org/2000/svg">
<path fill-rule="evenodd" clip-rule="evenodd" d="M263.115 27.8025L263.115 27.8034C263.314 30.317 263.516 32.8626 263.354 35.2523C262.393 48.8893 262.286 62.5181 263.031 76.1386C263.429 83.6696 262.609 89.6596 259.701 95.9728C259.547 96.3109 259.296 96.596 258.981 96.7926C258.665 96.9891 258.299 97.0882 257.928 97.0776C257.557 97.067 257.196 96.9471 256.893 96.7329C256.589 96.5187 256.356 96.2197 256.221 95.8734C253.802 89.7591 252.576 83.7442 252.543 77.8287C252.5 66.8841 252.846 56.5344 253.191 46.1886L253.191 46.1876C253.656 32.2399 254.121 18.299 253.636 2.91622C253.622 2.41701 253.747 1.92516 253.998 1.49826C254.249 1.07136 254.615 0.726931 255.053 0.505217C257.373 -0.671248 259.427 0.206952 261.217 3.13983C261.576 3.72775 261.781 4.40308 261.813 5.10331C262.244 13.322 262.609 19.9335 262.907 24.9376C262.962 25.8774 263.037 26.8324 263.113 27.792L263.113 27.7929L263.114 27.7938L263.114 27.7947L263.114 27.7956L263.114 27.7965L263.114 27.7973L263.114 27.7982L263.114 27.7991L263.114 27.7999L263.114 27.8008L263.114 27.8017L263.115 27.8025ZM306.528 115.535C306.031 118.998 307 119.47 309.436 116.952C316.428 109.694 322.518 101.881 327.704 93.5137C329.936 89.9168 332.134 86.345 334.317 82.7957L334.349 82.7436L334.352 82.738L334.353 82.7373C348.978 58.9612 362.983 36.1924 382.758 13.6302C383.019 13.3342 383.36 13.1203 383.74 13.0144C384.12 12.9085 384.522 12.9151 384.899 13.0335C385.275 13.1519 385.609 13.377 385.859 13.6814C386.11 13.9859 386.268 14.3565 386.312 14.7485L386.61 17.5075C386.818 19.3506 386.358 21.1957 385.318 22.7021C381.225 28.6673 376.635 34.8562 371.548 41.2688C362.228 52.9754 353.752 66.571 345.972 79.595C339.03 91.2436 331.846 102.718 324.423 114.019C323.561 115.311 323.835 115.626 325.244 114.963C332.601 111.467 340.604 108.7 349.253 106.662C350.318 106.403 351.433 106.49 352.435 106.91C355.633 108.236 356.552 110.722 355.193 114.367C354.937 115.066 354.525 115.701 353.988 116.226C353.45 116.75 352.801 117.151 352.087 117.399C333.677 123.895 319.162 130.299 308.541 136.612C306.52 137.805 304.481 139.288 302.427 141.061C302.111 141.333 301.738 141.53 301.336 141.637C300.933 141.744 300.512 141.759 300.103 141.68C299.694 141.601 299.308 141.431 298.975 141.181C298.641 140.932 298.368 140.611 298.177 140.241C296.95 137.871 296.395 135.146 296.511 132.064C296.942 121.293 298.467 110.009 301.085 98.2113C301.252 97.4506 301.702 96.7816 302.343 96.339C302.984 95.8963 303.768 95.7126 304.539 95.8251C306.958 96.1731 308.077 97.9047 307.895 101.02C307.547 106.77 307.091 111.608 306.528 115.535ZM173.925 82.527C180.388 91.0274 187.173 99.4284 194.654 106.785C196.278 108.376 196.005 108.823 193.834 108.128C188.35 106.321 182.898 104.209 177.48 101.79C175.998 101.135 174.342 100.989 172.772 101.376C171.202 101.763 169.806 102.66 168.805 103.927L164.953 108.799C163.064 111.168 163.511 112.958 166.295 114.167C173.586 117.332 181.332 120.406 189.534 123.388C190.684 123.806 191.786 124.214 192.848 124.607C203.797 128.659 210.48 131.131 220.652 126.396C222.492 125.534 223.718 124.308 224.331 122.717C225.143 120.646 225.118 118.741 224.257 117.001C221.009 110.389 219.493 103.488 219.708 96.2966C219.726 95.7676 219.614 95.2422 219.38 94.7674C219.146 94.2926 218.798 93.8832 218.368 93.5755C217.937 93.2678 217.437 93.0716 216.911 93.0043C216.386 92.937 215.853 93.0006 215.358 93.1897C212.939 94.1011 210.039 96.8103 206.659 101.317C206.145 101.997 205.624 102.013 205.093 101.367C202.487 98.2768 199.7 95.2469 196.916 92.22L196.916 92.2198L196.916 92.2197L196.916 92.2195L196.915 92.2194L196.915 92.2193L196.915 92.2191L196.915 92.219L196.915 92.2189L196.915 92.2187L196.915 92.2186L196.914 92.2184L196.914 92.2183C192.555 87.4797 188.203 82.7485 184.563 77.8045C177.405 68.078 170.33 58.2935 163.337 48.4509C160.504 44.4576 157.206 40.8206 153.445 37.5398C152.815 36.9929 152.103 36.8603 151.308 37.142C148.64 38.0865 146.991 39.6524 146.361 41.8396C146.152 42.6026 146.112 43.403 146.245 44.1845C146.378 44.9659 146.681 45.7096 147.132 46.3632C149.005 49.0594 150.819 51.8002 152.63 54.5353L152.63 54.5358L152.631 54.536L152.631 54.5361C157.162 61.3816 161.67 68.1911 167.016 74.1758C169.418 76.8602 171.722 79.6439 173.925 82.527ZM254.528 111.358C254.777 111.358 255.125 111.035 255.572 110.388C258.389 106.279 261.761 101.349 265.688 95.5996C265.946 95.2216 266.21 94.8348 266.478 94.441C271.731 86.7305 278.79 76.3682 284.702 77.9525C285.55 78.1788 286.299 78.6827 286.83 79.3848C287.361 80.0868 287.644 80.9472 287.635 81.83C287.602 86.9004 286.293 91.2085 283.708 94.7545C277.527 103.238 271.62 111.556 265.986 119.709C262.407 124.895 259.541 130.272 257.387 135.84C257.277 136.126 257.092 136.376 256.851 136.565C256.611 136.754 256.323 136.874 256.019 136.912C255.716 136.951 255.408 136.906 255.127 136.782C254.847 136.659 254.606 136.462 254.429 136.212C250.916 131.275 248.348 126.403 246.724 121.598C242.548 109.303 239.301 97.7371 236.981 86.9004C236.831 86.2233 236.886 85.5168 237.141 84.8717C237.395 84.2265 237.836 83.672 238.408 83.2794C238.979 82.8868 239.656 82.6739 240.349 82.668C241.042 82.6622 241.722 82.8637 242.3 83.2466C243.675 84.1414 244.653 85.4754 245.233 87.2484C245.979 89.4729 246.755 91.6552 247.526 93.8235L247.527 93.8259L247.527 93.8279L247.528 93.8287L247.528 93.8299C249.401 99.0971 251.245 104.282 252.565 109.792C252.671 110.238 252.923 110.635 253.279 110.919C253.635 111.203 254.075 111.358 254.528 111.358ZM128.867 133.306C143.962 146.148 159.032 159.015 174.078 171.906C174.906 172.619 174.782 172.9 173.705 172.751L155.561 170.266C154.551 170.125 153.525 170.376 152.69 170.966C151.855 171.557 151.273 172.443 151.062 173.447L149.149 182.469C148.718 184.491 149.521 185.709 151.559 186.123C169.422 189.818 188.146 193.505 207.731 197.183C209.687 197.548 211.633 197.531 213.572 197.134C214.434 196.951 215.122 196.504 215.635 195.792L222.694 186.222C223.626 184.966 224.145 183.45 224.18 181.884C224.216 180.318 223.766 178.777 222.893 177.474C216.894 168.542 211.807 158.145 207.632 146.281C207.366 145.526 206.898 144.86 206.28 144.353C205.661 143.846 204.915 143.518 204.123 143.405C203.331 143.293 202.524 143.399 201.789 143.713C201.053 144.027 200.418 144.537 199.952 145.187C196.837 149.495 195.851 154.259 196.994 159.479C197.349 161.104 198.116 162.589 198.884 164.075C199.408 165.088 199.932 166.101 200.325 167.159C200.971 168.882 200.507 169.263 198.933 168.302C195.983 166.513 192.934 164.383 189.786 161.914C168.229 144.963 147.425 127.656 127.376 109.992C126.974 109.641 126.487 109.4 125.964 109.293C125.442 109.186 124.9 109.217 124.395 109.383C123.89 109.549 123.438 109.844 123.084 110.239C122.731 110.633 122.488 111.114 122.38 111.633L120.118 122.246C120.022 122.676 120.102 123.132 120.341 123.514C122.711 127.225 125.553 130.489 128.867 133.306ZM201.741 176.827C201.609 176.148 201.807 175.626 202.338 175.261C202.439 175.19 202.554 175.14 202.676 175.115C202.798 175.09 202.924 175.09 203.047 175.115C203.17 175.141 203.288 175.191 203.392 175.263C203.497 175.335 203.586 175.428 203.655 175.535C204.02 176.065 204.102 176.637 203.904 177.25C203.738 177.73 203.407 177.921 202.91 177.822C202.247 177.706 201.857 177.374 201.741 176.827ZM320.275 169.146C350.979 151.366 381.351 132.7 411.392 113.148C411.887 112.823 412.457 112.634 413.048 112.598C413.638 112.563 414.228 112.683 414.76 112.946C415.292 113.209 415.747 113.607 416.08 114.1C416.414 114.593 416.614 115.164 416.662 115.758C417.027 120.646 414.905 124.647 410.299 127.763C378.75 149.121 347.143 169.535 315.478 189.005C315.266 189.141 315.112 189.349 315.048 189.589C314.983 189.829 315.012 190.082 315.13 190.297L315.453 190.869C315.585 191.134 315.784 191.2 316.049 191.068C324.334 187.224 332.81 183.761 341.476 180.679C344.541 179.585 347.217 179.593 349.504 180.703C350.018 180.951 350.466 181.315 350.815 181.765C351.164 182.216 351.404 182.742 351.514 183.301C351.625 183.86 351.604 184.438 351.454 184.988C351.304 185.537 351.027 186.045 350.647 186.47C346.555 191.043 341.136 194.804 334.392 197.754C324.069 202.294 314.409 207.016 305.411 211.921C305.003 212.142 304.551 212.272 304.088 212.303C303.625 212.333 303.16 212.264 302.726 212.099C302.292 211.934 301.899 211.677 301.573 211.346C301.247 211.015 300.996 210.618 300.838 210.181C298.601 204.067 298.601 198.085 300.838 192.236C306.223 178.069 311.716 163.786 317.317 149.386C317.491 148.94 317.778 148.547 318.148 148.247C318.519 147.946 318.96 147.748 319.429 147.671C320.871 147.439 321.89 147.713 322.487 148.491C324.227 150.728 324.707 152.883 323.928 154.954C322.039 159.991 320.565 164.531 319.504 168.574C319.289 169.386 319.546 169.577 320.275 169.146ZM441.443 175.061L420.067 175.036C418.725 175.036 418.684 174.821 419.943 174.39C444.367 165.873 470.928 155.426 499.628 143.048C505.792 140.397 511.542 137.05 516.877 133.007C517.232 132.741 517.519 132.394 517.714 131.995C517.91 131.597 518.008 131.157 518.001 130.714C517.993 130.27 517.881 129.834 517.673 129.442C517.464 129.05 517.166 128.713 516.802 128.458C515.792 127.746 514.325 127.738 512.403 128.434C488.228 137.315 464.002 146.064 439.727 154.68C428.327 158.74 416.795 162.244 405.13 165.194C403.837 165.525 403.68 165.244 404.657 164.349C408.899 160.422 412.661 156.13 415.941 151.474C416.527 150.636 416.904 149.671 417.042 148.659C417.181 147.648 417.076 146.619 416.737 145.658L416.438 144.788C416.333 144.479 416.152 144.201 415.911 143.981C415.67 143.761 415.377 143.605 415.059 143.528C414.742 143.452 414.411 143.456 414.095 143.542C413.78 143.627 413.492 143.791 413.257 144.017C401.923 154.854 391.318 166.163 381.443 177.944C377.516 182.601 376.505 187.754 378.411 193.404C378.676 194.199 379.231 194.622 380.076 194.672C385.952 194.959 391.604 193.615 397.24 192.275C400.376 191.529 403.507 190.784 406.671 190.322C408.328 190.096 409.979 189.451 411.554 188.837C413.095 188.235 414.563 187.661 415.892 187.538C423.116 186.892 431.409 186.221 440.771 185.525C441.975 185.431 443.099 184.886 443.915 184C444.732 183.115 445.18 181.954 445.171 180.753V178.765C445.164 177.78 444.768 176.838 444.07 176.144C443.372 175.451 442.427 175.061 441.443 175.061ZM110.05 214.954C105.36 215.054 100.679 214.863 96.0068 214.383C90.6713 213.836 86.0231 213.679 82.0629 213.911C74.5402 214.341 67.0092 214.59 59.4699 214.656C57.8729 214.67 56.3074 214.96 54.7158 215.256L54.7156 215.256L54.7154 215.256C53.4832 215.484 52.2354 215.716 50.9449 215.824C50.0335 215.891 49.6522 216.371 49.8013 217.266C49.9836 218.36 50.6881 219.636 51.9142 221.094L23.3557 221.914C22.5272 221.947 21.7901 221.707 21.1439 221.193C19.7851 220.099 18.3931 219.528 16.9681 219.478C10.8207 219.196 5.49331 218.467 0.986294 217.291C0.157798 217.059 -0.148733 216.529 0.0666756 215.7C0.630053 213.645 1.92265 212.096 3.94418 211.052C8.65004 208.633 13.3311 207.216 17.9873 206.802C44.35 204.466 73.1319 202.552 104.333 201.061C105.211 201.011 105.576 200.555 105.427 199.694C105.387 199.469 105.346 199.244 105.305 199.017C104.381 193.884 103.338 188.089 106.694 183.662C107.208 182.983 107.896 182.627 108.757 182.593C111.862 182.429 114.161 183.499 116.444 184.561L116.444 184.561L116.444 184.561L116.444 184.561L116.445 184.562L116.445 184.562L116.445 184.562L116.445 184.562C117.269 184.945 118.091 185.328 118.948 185.65C130.679 190.091 141.002 194.839 149.917 199.892C152.783 201.516 154.449 203.952 154.913 207.2C155.041 207.995 154.854 208.807 154.391 209.462C154.138 209.825 153.898 210.165 153.67 210.489L153.668 210.49L153.668 210.491L153.666 210.494L153.666 210.494L153.666 210.494C151.993 212.867 150.936 214.365 149.668 217.862C146.81 225.791 115.468 235.012 106.296 237.15C102.717 237.995 100.961 236.578 101.027 232.9C101.06 230.795 101.085 228.691 101.102 226.587C101.168 222.925 102.974 220.63 106.52 219.702C112.287 218.21 116.404 216.835 118.873 215.576C119.702 215.161 119.66 214.855 118.749 214.656C115.982 214.076 113.082 214.176 110.05 214.954ZM424.507 220.745C407.722 222.617 383.464 223.926 351.732 224.672C350.589 224.705 350.365 224.266 351.061 223.354C351.873 222.277 352.809 221.3 353.87 220.422C358.294 216.743 361.301 210.281 362.445 205.26C363.555 200.355 362.122 199.444 358.145 202.526C357.222 203.237 356.156 204.56 355.031 205.956C353.912 207.344 352.735 208.805 351.583 209.809C350.381 210.87 349.108 211.965 347.8 213.089C340.811 219.101 332.835 225.962 329.338 233.122C321.956 248.135 330.307 261.283 346.289 265.086C349.04 265.749 350.813 264.63 351.608 261.73C351.823 260.918 352.354 260.488 353.199 260.438L356.977 260.165C357.822 260.098 358.393 259.667 358.692 258.872C359.653 256.287 358.659 254.373 355.709 253.13C348.833 250.231 342.461 245.923 336.596 240.206C336.178 239.788 335.927 239.233 335.891 238.647C335.854 238.06 336.034 237.483 336.397 237.025C338.153 234.821 339.794 232.998 341.318 231.557C344.102 228.922 345.195 229.502 344.599 233.296C344.566 233.429 344.201 233.976 343.505 234.937C343.008 235.6 342.735 236.196 342.685 236.726C342.586 237.737 342.917 238.499 343.679 239.013C344.458 239.543 345.402 239.692 346.513 239.46C348.551 239.029 350.531 238.748 352.453 238.615C362.975 237.919 376.123 237.505 391.898 237.373C401.492 237.306 412.014 236.569 423.464 235.16C435.808 233.653 446.28 232.766 454.88 232.501C471.4 232.021 481.748 231.2 485.924 230.04C491.127 228.615 496.33 226.246 501.533 222.932C502.013 222.627 502.406 222.201 502.673 221.698C502.94 221.195 503.07 220.63 503.053 220.061C503.035 219.492 502.87 218.937 502.573 218.451C502.276 217.965 501.857 217.565 501.359 217.29C497.978 215.417 493.919 214.647 489.18 214.978C466.794 216.536 445.236 218.458 424.507 220.745ZM118.325 255.294C122.666 254.581 126.975 253.828 131.25 253.032C131.647 252.949 131.829 252.709 131.796 252.311V252.286C131.747 251.872 131.515 251.673 131.101 251.69C125.384 251.856 119.676 252.344 113.976 253.156L65.3344 261.905C64.7904 262.003 64.2291 261.898 63.754 261.61C63.2788 261.322 62.922 260.871 62.7497 260.339C62.2857 258.898 62.6501 257.539 63.8432 256.263C64.141 255.943 64.5052 255.689 64.912 255.517C65.3189 255.346 65.7593 255.262 66.2046 255.269C70.2476 255.385 74.1414 255.161 77.8862 254.598C80.877 254.143 83.8634 253.702 86.8475 253.262C99.6605 251.373 112.432 249.49 125.334 246.446C142.467 242.436 159.725 238.707 177.107 235.261C177.388 235.207 177.647 235.074 177.855 234.878C178.062 234.681 178.208 234.429 178.276 234.151C178.344 233.873 178.331 233.582 178.238 233.312C178.146 233.041 177.977 232.803 177.753 232.626L167.96 224.698C167.198 224.084 167.19 223.463 167.935 222.833L169.924 221.168C170.603 220.605 170.769 219.917 170.421 219.105C169.211 216.321 169.717 214.118 171.937 212.494C172.633 211.997 173.329 211.997 174.025 212.494C183.47 219.337 192.981 225.957 202.558 232.353C206.535 235.012 215.234 241.748 211.307 248.16C209.882 250.497 208.979 252.982 208.598 255.617C208.469 256.486 208.057 257.275 207.43 257.854C203.95 261.151 200.512 263.314 197.115 264.341C187.339 267.307 178.085 270.248 169.352 273.165C167.298 273.861 166.312 273.123 166.394 270.952L166.718 262.949C166.77 261.764 167.17 260.62 167.869 259.661C168.567 258.702 169.533 257.97 170.645 257.556L195.425 248.384C197.761 247.523 197.687 247.075 195.201 247.042C192.765 247.009 190.297 247.307 187.794 247.937C177.389 250.571 167.024 252.469 156.701 253.629C153.767 253.964 150.738 254.624 147.612 255.305L147.612 255.305C144.939 255.887 142.195 256.486 139.377 256.909C121.565 259.561 96.834 263.72 65.1854 269.387C63.6113 269.668 62.5012 269.072 61.8549 267.597C61.5401 266.851 61.6312 266.04 62.1283 265.161C62.2896 264.871 62.5218 264.626 62.804 264.448C63.0862 264.27 63.4091 264.165 63.7436 264.142C64.7436 264.079 65.7404 264.021 66.735 263.963L66.7372 263.963L66.7392 263.962C71.9982 263.655 77.1973 263.352 82.4843 262.328C94.5307 260.008 106.478 257.663 118.325 255.294ZM415.667 306.494L398.666 293.221C398.468 293.072 398.484 293.039 398.716 293.122C419.76 301.042 446.404 309.75 478.65 319.244C487.829 321.945 495.982 323.353 503.107 323.469C503.952 323.486 504.598 323.13 505.045 322.4C505.543 321.572 505.642 320.702 505.344 319.791C505.212 319.38 504.986 319.005 504.684 318.695C504.382 318.385 504.013 318.147 503.604 318.001C475.303 308.159 447.117 298.134 419.048 287.927C412.055 285.375 404.391 282.053 396.057 277.96C394.715 277.297 394.781 276.833 396.256 276.568C399.056 276.071 401.914 275.748 404.831 275.599C409.619 275.367 412.701 274.646 414.077 273.436C419.445 268.664 418.368 266.535 410.845 267.049C396.479 268.01 382.055 270.015 367.573 273.064C362.983 274.041 359.586 277.074 357.382 282.161C357.051 282.923 357.142 283.644 357.656 284.323C359.064 286.179 360.821 287.686 362.925 288.846C369.487 292.442 376.131 295.864 382.859 299.111C389.271 302.21 394.367 305.093 398.145 307.761C402.519 310.843 406.612 313.585 410.423 315.988C411.032 316.371 411.719 316.62 412.439 316.718C413.158 316.817 413.894 316.763 414.598 316.56C416.106 316.112 417.092 315.375 417.556 314.348C418.998 311.216 418.368 308.598 415.667 306.494ZM219.263 305.301L211.085 307.34C210.19 307.572 209.47 307.306 208.923 306.544L205.344 301.548C204.88 300.886 204.714 300.165 204.847 299.386C205.36 296.072 206.752 293.752 209.022 292.427C219.992 286.014 232.726 281.407 247.224 278.607C251.847 277.712 256.122 279.378 254.606 285.02C254.521 285.34 254.437 285.657 254.353 285.972L254.247 286.375L254.245 286.38C252.943 291.307 251.789 295.675 248.964 300.231C240.033 314.581 231.781 329.427 224.209 344.771C224.018 345.157 223.717 345.479 223.344 345.695C222.971 345.911 222.543 346.012 222.113 345.986C221.683 345.959 221.27 345.806 220.926 345.546C220.583 345.285 220.324 344.929 220.182 344.522C218.459 339.419 218.459 334.556 220.182 329.933C221.889 325.343 221.309 325.036 218.442 329.013C210.141 340.446 199.727 351.647 187.2 362.617C185.383 364.215 183.325 365.539 181.311 366.834C179.441 368.038 177.608 369.218 176.04 370.57C166.761 378.607 157.307 386.477 147.68 394.182C145.162 396.22 143.563 395.657 142.884 392.492L142.585 391.125C142.252 389.572 142.339 387.956 142.837 386.441C143.334 384.926 144.225 383.567 145.419 382.501C152.792 375.939 160.058 369.452 167.216 363.039C187.133 345.227 204.673 326.262 219.834 306.147C220.431 305.351 220.24 305.069 219.263 305.301ZM323.83 347.058C322.156 342.418 320.094 337.762 317.641 333.089C316.879 331.615 317.136 331.416 318.412 332.493C326.912 339.684 334.443 344.456 341.005 346.809C353.731 351.399 366.456 356.428 379.182 361.896C380.756 362.576 383.656 362.551 387.881 361.822C388.577 361.706 389.198 361.871 389.745 362.319C389.912 362.457 390.076 362.6 390.24 362.743C390.786 363.22 391.333 363.698 391.982 363.984C398.544 366.851 406.481 369.751 415.793 372.683C416.359 372.862 416.957 372.916 417.547 372.843C418.137 372.771 418.704 372.572 419.212 372.262C419.721 371.952 420.157 371.536 420.493 371.043C420.83 370.55 421.057 369.99 421.162 369.402L421.286 368.557C422.032 364.2 420.4 361.076 416.39 359.187C393.507 348.45 370.789 338.193 348.238 328.417C339.207 324.523 330.93 319.138 323.408 312.261C321.519 310.554 321.85 309.767 324.402 309.9C330.765 310.273 346.175 307.042 346.846 298.069C346.912 297.241 346.614 296.561 345.951 296.031C343.896 294.357 341.519 293.413 338.818 293.197C326.589 292.22 314.335 291.483 302.057 290.985C299.292 290.885 296.708 290.321 294.061 289.743L294.061 289.743C292.782 289.464 291.488 289.182 290.152 288.947C289.241 288.781 288.677 289.154 288.462 290.066L285.355 303.736C285.156 304.598 285.322 305.385 285.852 306.097C292.513 315.111 296.887 321.938 298.975 326.577C300.273 329.457 301.497 332.36 302.697 335.206C307.267 346.04 311.484 356.038 318.039 360.703C318.718 361.184 319.398 361.184 320.077 360.703C324.717 357.472 325.968 352.924 323.83 347.058ZM159.085 314.101C152.026 321.226 144.669 327.572 137.013 333.14C131.628 337.05 123.31 342.038 112.059 348.103C102.415 353.322 92.9291 358.815 83.6003 364.581C79.0893 367.364 74.3815 368.984 69.6137 370.625C68.7597 370.919 67.9039 371.214 67.0468 371.516C64.8927 372.278 64.4619 371.723 65.7543 369.851C69.2672 364.797 73.9978 360.381 79.9464 356.603C100.791 343.363 121.04 329.751 140.692 315.766C143.095 314.06 142.838 313.397 139.921 313.778C136.773 314.175 132.821 315.476 128.065 317.68C123.906 319.586 122.374 318.318 123.467 313.877L125.481 305.75C126.607 301.176 129.482 298.426 134.105 297.498C143.766 295.543 154.221 293.504 165.472 291.384C168.786 290.77 171.669 290.522 174.122 290.638C175.091 290.68 176.038 290.942 176.89 291.406C177.742 291.87 178.477 292.523 179.039 293.314C179.6 294.106 179.973 295.015 180.128 295.973C180.284 296.931 180.219 297.911 179.938 298.84C174.917 315.443 164.9 328.591 153.915 342.038C153.749 342.239 153.536 342.395 153.295 342.491C153.053 342.587 152.791 342.62 152.533 342.588C152.275 342.556 152.03 342.459 151.819 342.306C151.609 342.154 151.44 341.95 151.33 341.715C150.733 340.472 150.766 338.964 151.429 337.191C154.296 329.503 157.635 322.411 161.446 315.915C165.489 309.006 164.702 308.401 159.085 314.101ZM256.119 341.441C257.262 339.569 257.867 339.726 257.933 341.913C258.281 354.523 258.249 367.431 257.834 380.637C257.619 387.53 256.881 395.376 255.622 404.175C254.479 412.062 253.435 419.966 252.49 427.886C252.374 428.765 252.764 429.253 253.658 429.353C254.023 429.402 254.396 429.345 254.777 429.179C255.341 428.914 255.771 428.35 256.069 427.489C260.659 414.282 263.816 400.737 265.539 386.851C267.113 374.026 268.298 361.275 269.093 348.599C269.143 347.771 269.433 347.68 269.963 348.326L281.471 362.941C283.228 365.161 285.009 365.169 286.815 362.965C288.82 360.497 289.533 357.754 288.953 354.738C288.018 349.979 283.322 343.07 279.507 337.459C277.943 335.158 276.528 333.076 275.581 331.449C272.631 326.379 269.69 321.201 266.757 315.915C266.633 315.694 266.461 315.502 266.255 315.356C266.048 315.209 265.812 315.11 265.563 315.067C265.315 315.024 265.061 315.038 264.82 315.107C264.579 315.177 264.358 315.3 264.172 315.468C259.764 319.362 255.945 324.051 252.714 329.535C248.472 336.777 244.181 343.985 239.839 351.159C238.066 354.109 237.18 357.489 237.18 361.3C237.178 362.119 237.473 362.912 238.012 363.533C238.551 364.153 239.296 364.561 240.113 364.68C240.792 364.796 241.455 364.366 242.101 363.388C247.055 355.899 251.728 348.583 256.119 341.441Z" fill="#F5E48E"/>
</svg>
