<svg width="111" height="200" viewBox="0 0 111 200" fill="none" xmlns="http://www.w3.org/2000/svg">
<path d="M65.4846 39.9633C65.8364 39.7516 66.1908 39.54 66.5426 39.3283C66.9325 39.0961 67.1822 38.7335 67.0556 38.3113C66.7572 37.3161 66.6075 36.3228 66.7079 35.2792C66.7357 35.0005 66.5392 34.6965 66.4462 34.4047L66.3164 34.2624C66.0679 33.6883 65.9038 33.0587 65.5581 32.552C63.6621 29.7753 62.4615 26.6467 61.0197 23.6432C60.8388 23.2681 60.6839 22.8693 60.5935 22.4662C60.2082 20.7285 59.6868 19.091 58.5627 17.6263C57.948 16.8271 57.6602 15.7679 57.0763 14.8909C56.7451 14.3923 56.5947 13.7335 56.4915 13.1265C56.0236 10.3367 55.4046 7.59691 54.322 4.96944C53.9255 4.00687 53.6732 2.98162 53.4228 1.96882C53.3268 1.58025 53.3844 1.13934 53.4503 0.733498C53.4714 0.598178 53.7221 0.483426 53.8895 0.399492C53.958 0.365503 54.115 0.402506 54.1716 0.464596C54.3791 0.6923 54.6115 0.918696 54.7428 1.18745C55.1953 2.11793 55.6072 3.06629 56.0254 3.98774C57.0039 3.7828 57.2064 3.04878 57.4388 2.36566C57.5708 1.97776 57.5955 1.55262 57.7105 1.15649C57.8019 0.841035 58.5134 0.623765 58.7971 0.81287C60.0111 1.62004 61.2392 2.39069 62.2257 3.50947C63.883 5.39288 65.7033 7.13018 67.0384 9.28117C67.7555 10.437 68.5442 11.5467 69.2487 12.7069C70.7683 15.2084 72.2498 17.7305 73.754 20.2437C74.1842 20.96 74.6067 21.6834 75.0727 22.3766C77.52 26.0363 79.5678 29.9179 81.4556 33.8862C81.8191 34.6515 82.0499 35.4477 82.0325 36.3044L82.0631 36.286C81.8374 36.2904 81.614 36.2974 81.3883 36.3018C81.3825 36.2123 81.392 36.1161 81.3634 36.0379C81.3414 35.9775 81.2639 35.9392 81.2142 35.8898C81.2851 36.017 81.3585 36.1443 81.4294 36.2715C81.617 36.7139 81.8071 37.1563 81.9947 37.6012L81.9597 37.555C82.4531 40.061 83.5276 42.3263 84.9114 44.4448C85.3255 45.0811 85.6121 45.6892 85.6256 46.4654C85.6344 46.9714 85.8134 47.4952 86.0041 47.9773C86.4655 49.1436 86.9805 50.2752 86.9468 51.5921C86.9345 52.0698 87.2604 52.578 87.4994 53.0352C89.1212 56.1114 90.1808 59.3946 91.1093 62.7262C91.447 63.9413 91.7653 65.1505 92.5095 66.2036C92.8094 66.6289 93.007 67.1237 93.2481 67.5884C93.7441 68.5432 94.0199 69.5447 93.7916 70.6196C93.5826 71.6012 93.8264 72.4872 94.2498 73.3519C94.526 73.9149 94.8501 74.4603 95.0884 75.0388C95.2844 75.5163 95.4193 76.0281 95.5121 76.5379C95.7177 77.6626 95.8131 78.812 96.0839 79.9199C96.2797 80.722 96.5737 81.5435 97.0201 82.2308C98.2691 84.1548 98.626 86.3471 98.7461 88.5137C98.8574 90.5485 99.4928 92.3994 100.004 94.3089C100.597 95.0328 100.547 95.8458 100.381 96.6981C100.323 96.9977 100.427 97.3247 100.41 97.6361C100.382 98.1899 100.164 98.6557 99.6279 98.8935C99.0535 99.1494 98.4679 99.3775 97.887 99.6132C97.3036 99.8489 96.709 100.059 96.1371 100.315C95.069 100.796 94.1127 101.433 93.4925 102.463C92.5906 103.957 91.2523 104.919 89.7088 105.658C89.0829 105.956 88.5018 105.983 87.9301 105.592C87.4448 105.263 86.967 105.253 86.461 105.529C86.1864 105.68 85.9114 105.838 85.6233 105.959C85.0068 106.215 84.353 106.205 83.801 105.869C82.0276 104.781 79.9492 104.174 78.5128 102.551C76.4946 101.236 74.4978 99.8845 72.4451 98.6196C71.7439 98.1881 70.9241 97.9122 70.1275 97.6696C67.5812 96.8924 65.3621 95.5256 63.2386 93.97C60.3649 91.8642 57.4752 89.7849 54.6067 87.6718C51.822 85.6246 49.0533 83.5533 46.2869 81.4847C45.9539 81.2363 45.6299 80.9561 45.3647 80.6365C44.4191 79.4924 43.2897 78.5677 42.0239 77.8077C41.4766 77.4775 41.012 77.0768 40.6683 76.5256C40.5714 76.37 40.3237 76.2073 40.1549 76.2144C38.975 76.2737 38.5687 75.3626 38.0417 74.5948L38.0598 74.5783C38.0304 74.6785 38.0204 74.7871 37.9717 74.8765C37.6245 75.5221 37.1798 75.7072 36.7942 75.3647C36.4848 75.0901 36.1372 74.8361 35.8946 74.5101C34.2545 72.3078 32.1264 70.638 29.9407 69.0324C29.4447 68.6674 28.8954 68.3272 28.3172 68.1294C26.4486 67.4901 24.5544 66.9216 22.6688 66.3261L22.6895 66.3073C23.176 67.2542 23.8857 68.0355 24.6747 68.709C26.677 70.4225 28.1963 72.5548 29.8501 74.5694C30.5139 75.3783 30.9471 76.298 31.1375 77.3774C31.2965 78.2769 31.7702 79.1216 32.1041 79.9921L32.1378 79.9614C31.9787 80.0779 31.7861 80.1706 31.6628 80.3185C31.3374 80.7074 31.2794 81.1037 31.4791 81.393C32.0411 82.2071 32.6131 83.0167 33.1802 83.8286L33.2037 83.8049C32.5526 83.6285 31.8993 83.4495 31.0671 83.2251C31.353 83.848 31.5604 84.2888 31.7554 84.734C31.7911 84.8174 31.7954 84.9415 31.7593 85.0241C31.6699 85.243 31.4915 85.2942 31.2687 85.1823C30.6438 84.8708 30.0241 84.5546 29.3992 84.2431L29.4396 84.2797C29.2071 84.2689 28.9722 84.258 28.7397 84.2473L28.7732 84.219C27.9711 83.7754 27.2631 83.2222 26.2492 83.1232C25.1366 83.0146 24.0543 82.5729 22.9695 82.2376C22.8547 82.2025 22.7963 81.9124 22.7577 81.7297C22.7413 81.657 22.8333 81.5423 22.9034 81.4737C23.2178 81.1612 23.6195 80.9939 24.0258 81.1565C24.5002 81.347 24.9107 81.6857 25.3823 81.8835C25.6497 81.995 25.9867 81.9983 26.2833 81.9625C26.4553 81.9407 26.6737 81.7724 26.7404 81.6169C26.807 81.4614 26.7542 81.2111 26.6728 81.0438C26.5868 80.8663 26.4262 80.6954 26.255 80.5932C25.2975 80.026 24.6704 79.2807 24.8003 78.0823C24.808 78.0232 24.6606 77.8875 24.5861 77.889C24.3876 77.8946 24.1639 77.9091 24.0032 78.0082C23.8399 78.1097 23.717 78.3022 23.6196 78.4786C23.5196 78.6574 23.4507 78.8598 23.4068 79.0585C23.2461 79.7995 22.6625 79.988 22.0387 80.1326L22.0526 80.1531C21.8427 79.9228 21.6329 79.6925 21.423 79.4622L21.4421 79.4779C21.2633 79.2194 21.1316 78.906 20.9001 78.7143C18.9665 77.1229 17.3601 75.1576 15.2379 73.7879C14.427 73.2646 13.6967 72.6583 13.3626 71.7407C12.7669 70.1023 11.6352 68.8554 10.3618 67.7778C8.6972 66.3724 7.54499 64.7676 7.22899 62.5499C7.10009 61.6418 6.61989 60.7745 6.24602 59.9121C5.82963 58.9511 5.33966 58.0263 4.90809 57.072C4.25642 55.6268 3.46823 54.2942 2.22268 53.2576C1.22526 52.4282 0.68887 51.2758 0.258071 50.0911C-0.0915498 49.1332 0.104025 48.2278 0.769504 47.4508C1.04193 47.1338 1.34303 46.8405 1.65106 46.5574C2.43305 45.8328 3.03986 44.9837 3.37912 43.9734C3.82759 42.6387 4.75339 41.6457 5.6602 40.6345C6.10972 40.1324 6.78457 40.1142 7.33718 40.5958C7.80397 41.004 8.23658 41.4553 8.66594 41.8692C9.40276 42.0124 9.85488 41.508 10.3844 41.2054C10.9622 40.8754 11.5489 40.7811 12.1845 41.0237C12.7688 41.2491 13.3645 41.4427 13.9461 41.6729C14.2309 41.7852 14.618 41.88 14.7514 42.1042C15.2915 43.0164 16.2516 43.2072 17.1018 43.5787C18.5543 44.2135 19.907 44.9701 20.9889 46.1676C21.8469 47.1194 22.9199 47.7614 24.1571 48.1211L24.136 48.0979C24.7737 48.9874 25.6332 49.5302 26.6941 49.7925C27.3017 49.9421 27.9024 50.1361 28.4952 50.3395C29.205 50.583 29.8347 50.9517 30.1425 51.6896C30.5328 52.6246 31.2775 53.1325 32.1681 53.5406C33.3087 54.0618 34.4321 54.6318 35.5208 55.2572C36.7061 55.9367 37.8835 56.5712 39.2337 56.9014C40.5742 57.2262 41.682 58.0805 42.8122 58.8243C44.1203 59.6878 45.3432 60.6813 46.6085 61.6123C47.4665 62.2418 48.1259 63.0382 48.7017 63.9273C49.2844 64.8291 50.0888 65.4909 51.0913 65.8918C52.5488 66.4723 53.8246 67.4434 55.3677 67.8346L55.3565 67.8118C55.4747 69.0564 55.4794 69.0616 56.5975 69.158L56.5684 69.1442C57.0853 69.4879 57.5609 69.9213 58.1222 70.1629C59.8546 70.9074 61.573 71.6314 62.8417 73.1301C63.072 73.4009 63.5741 73.5307 63.9643 73.5612C64.7421 73.622 65.3445 73.9374 65.9053 74.4566C66.516 75.0227 67.1631 75.5483 67.8263 76.0499C68.1687 76.3087 68.6079 76.4034 68.9675 76.0756C69.4203 75.6629 69.8857 75.6225 70.387 75.9283C72.4453 77.181 74.7299 77.9337 76.9209 78.8902L76.8873 78.9209C76.8246 78.4026 76.8145 77.8717 76.6892 77.3678C76.0609 74.8307 75.3899 72.3042 74.7565 69.7694C74.5036 68.7565 74.2984 67.7309 74.0806 66.7097C73.9504 66.0965 73.8654 65.4705 73.7051 64.8659C72.9971 62.1765 72.9201 62.0192 73.119 59.7064C73.2086 58.6821 72.9614 57.8677 72.32 57.1094C72.0215 56.7585 72.0015 56.3364 72.2985 55.971C72.6428 55.5458 72.7685 55.0808 72.8136 54.5352C73.0004 52.3779 72.3255 50.6317 70.483 49.4287C70.7891 48.7068 70.9437 48.0424 70.6011 47.3054C69.8104 45.5984 69.0831 43.8623 68.2975 42.1531C67.9822 41.4693 67.5168 40.9224 66.6841 40.8168C66.1446 40.7472 65.69 40.5056 65.4931 39.9414C65.5078 39.9445 65.4846 39.9633 65.4846 39.9633ZM88.4146 62.4253C88.4146 62.4253 88.3811 62.4535 88.381 62.456L88.4146 62.4253ZM21.1642 72.5336C21.3647 72.7536 21.5625 72.9759 21.763 73.1958C21.8144 73.2626 21.8553 73.3438 21.9175 73.3913C21.963 73.4256 22.0403 73.4168 22.1043 73.4272C21.981 73.3595 21.8553 73.2918 21.732 73.2241C21.5316 73.0041 21.3285 72.7866 21.1281 72.5666L21.1642 72.5336ZM28.4761 64.0627C28.5663 64.0941 28.6541 64.123 28.7443 64.1544C28.6488 64.1302 28.5534 64.1035 28.4579 64.0792L28.4761 64.0627ZM19.3623 70.5642C19.4358 70.7435 19.4964 70.9322 19.5928 71.0978C19.6158 71.136 19.8269 71.126 19.8303 71.1063C19.9316 70.6848 19.5563 70.707 19.3339 70.5877L19.3623 70.5642ZM24.452 55.0712C23.7953 54.5897 23.1413 54.1034 22.4792 53.6316C22.4264 53.5945 22.2228 53.6544 22.2245 53.6718C22.2212 53.8501 22.1759 54.081 22.2695 54.1993C22.8309 54.9192 23.6548 55.002 24.4856 55.043L24.452 55.0712ZM19.8471 73.7365C20.2298 74.463 20.5637 75.2243 21.018 75.9021C21.2243 76.209 21.65 76.437 22.0193 76.5408C22.2493 76.606 22.595 76.4188 22.8279 76.2586C23.048 76.1077 22.9733 75.5838 22.7496 75.4372C21.8069 74.8161 20.9343 74.0743 19.8135 73.7671C19.8136 73.7646 19.8471 73.7365 19.8471 73.7365ZM92.3361 78.8144C92.1981 79.4399 92.6082 79.9496 92.8656 80.4918C92.9333 80.6337 93.2166 80.7782 93.3594 80.7452C93.4897 80.714 93.6511 80.439 93.6437 80.2776C93.6088 79.6416 93.2861 79.1186 92.8588 78.6602C92.7997 78.5979 92.6601 78.5617 92.5774 78.5827C92.492 78.606 92.4323 78.7172 92.3361 78.8144ZM17.3127 70.9401C17.5352 71.0594 17.7234 71.0086 17.7593 70.7699C17.8063 70.4499 17.641 70.2193 17.3146 70.1496C17.2386 70.1337 17.1202 70.1753 17.063 70.2321C16.8762 70.4118 16.9932 70.722 17.3127 70.9401ZM15.4504 68.6159C15.5342 68.5727 15.6948 68.5281 15.6916 68.4908C15.6775 68.0986 15.6866 67.5811 15.0786 67.9197C14.898 68.0203 15.1628 68.5109 15.4504 68.6159ZM92.1087 75.3814C92.3423 75.313 92.416 75.1652 92.2943 74.9588C92.253 74.8875 92.1568 74.8236 92.0733 74.8073C91.8473 74.7646 91.6756 74.888 91.7256 75.0935C91.7572 75.214 91.9742 75.2885 92.1087 75.3814Z" fill="#4F5375"/>
<path d="M71.819 147.993C72.1908 147.832 72.5541 147.64 72.9388 147.519C73.1526 147.453 73.3453 147.625 73.3173 147.854C73.2572 148.35 73.1428 148.84 73.0727 149.335C73.0656 149.382 73.2147 149.48 73.3053 149.504C73.3984 149.528 73.5325 149.522 73.6019 149.468C74.4182 148.859 75.258 148.276 76.0274 147.611C76.8095 146.936 77.3888 146.093 77.6544 145.069L77.6278 145.11C78.2771 144.307 78.9215 143.502 79.5805 142.705C79.7748 142.469 80.0028 142.256 80.2234 142.041C80.4752 141.795 81.1308 141.766 81.3693 142.02C82.1466 142.841 82.9519 143.644 83.6596 144.522C83.969 144.906 84.1349 145.441 84.2607 145.935C84.5142 146.936 84.7124 147.951 84.9007 148.969C84.9798 149.401 85.1695 149.744 85.4939 150.017C85.978 150.426 85.9576 150.921 85.6921 151.409C85.4484 151.854 85.1466 152.271 84.8356 152.673C84.58 153.001 84.2473 152.958 83.7656 152.552C83.6893 152.486 83.6445 152.385 83.584 152.3C83.8065 152.097 84.0316 151.892 84.2541 151.689C84.3236 151.42 84.4202 151.154 84.4402 150.883C84.445 150.833 84.1415 150.752 83.9725 150.71C83.9529 150.704 83.8379 150.887 83.8627 150.94C83.9818 151.203 84.1338 151.453 84.2731 151.708C84.0506 151.91 83.8255 152.116 83.603 152.318C82.7279 152.486 82.1099 152.879 82.1888 153.903C82.2044 154.102 82.1877 154.302 82.1859 154.501C82.1819 154.8 82.1781 155.097 82.1741 155.397L82.2051 155.369C81.7204 155.559 81.2683 155.799 80.989 156.264C80.7257 156.705 80.4038 157.127 80.2354 157.604C79.5683 159.487 78.1987 160.913 77.1059 162.515C76.8853 162.837 76.4701 163.026 76.1462 163.276L76.1698 163.302C76.1438 162.26 76.373 161.269 76.7451 160.3C77.075 159.438 77.361 158.562 77.6641 157.691L77.6828 157.712C77.0949 157.298 76.507 156.884 75.8662 156.433C74.9392 156.757 74.5766 157.684 73.9683 158.35C73.3862 158.984 73.2166 159.812 73.1135 160.645L73.1394 160.621C72.866 160.745 72.5527 160.819 72.3212 161.002C71.3721 161.748 70.4465 162.526 69.5137 163.295C68.8 163.882 68.2564 164.598 67.8851 165.443C67.6601 165.645 67.4376 165.848 67.2127 166.049C67.1812 166.139 67.1524 166.227 67.121 166.317C67.1454 166.219 67.1671 166.123 67.1915 166.025C67.4141 165.82 67.6343 165.615 67.8569 165.409C68.5657 165.301 69.2754 165.175 69.9872 165.109C70.0817 165.101 70.2795 165.38 70.2943 165.542C70.313 165.726 70.2208 165.95 70.1093 166.111C69.6971 166.716 69.1955 167.218 68.539 167.589C68.2004 167.782 67.9696 168.165 67.7027 168.47C67.6373 168.544 67.6074 168.654 67.5658 168.749C66.3763 171.422 64.6891 173.765 62.7117 175.899C62.3047 176.338 61.7124 176.606 61.1005 177.028C60.8563 177.808 60.5797 178.694 60.3006 179.584L60.2675 179.547C60.4575 179.459 60.6924 179.416 60.8278 179.276C62.5492 177.477 64.4586 175.848 65.79 173.697C66.0069 173.348 66.3713 173.08 66.829 173.096C67.0269 173.103 67.2393 173.172 67.4157 173.269C67.626 173.383 67.6864 173.634 67.5108 173.787C66.8134 174.396 67.2061 175.438 66.5777 176.058C66.0581 176.574 65.4958 177.051 65.0071 177.596C64.5916 178.06 64.1429 178.545 63.9038 179.104C63.3954 180.29 62.6123 181.249 61.7374 182.161C60.9588 182.972 60.5952 183.974 60.8058 185.044C61.2114 187.093 60.6229 188.988 60.1176 190.908C60.0426 191.189 59.9034 191.572 59.6852 191.681C58.8457 192.095 58.5972 192.911 58.1799 193.628C57.9753 193.978 57.6809 194.291 57.3735 194.56C57.2496 194.668 56.9281 194.705 56.7933 194.62C56.4515 194.403 56.1169 194.135 55.8663 193.821C55.2763 193.077 54.7267 193.012 54.0738 193.73C53.8675 193.959 53.6559 194.246 53.3888 194.343C52.6906 194.595 52.453 195.177 52.3037 195.779C52.0511 196.791 51.9038 197.828 51.6707 198.845C51.6425 198.973 51.3506 199.123 51.1874 199.115C51.0242 199.108 50.8566 198.926 50.7166 198.794C50.6477 198.728 50.6237 198.606 50.6011 198.506C50.5561 198.3 50.4938 198.094 50.4934 197.889C50.488 196.24 49.8907 194.852 48.6502 193.655C47.9158 194.902 47.7721 196.449 46.7874 197.484C46.1676 197.383 46.0709 196.903 45.7894 196.615C45.3587 196.176 44.5607 196.07 44.4675 195.354C44.3358 194.347 43.5833 193.42 44.1077 192.317C44.3439 191.82 44.1206 191.289 43.9904 190.785L44.014 190.81C43.3076 190.758 42.6421 190.467 41.8904 190.645C40.6626 190.935 40.6386 190.865 40.9057 189.38L40.927 189.403C40.6367 188.932 40.5255 188.443 40.8605 187.951C41.209 187.436 41.5912 186.944 41.9349 186.424C42.1347 186.124 41.9487 185.488 41.6317 185.322C41.4478 185.227 41.2568 185.122 41.0578 185.085C39.6303 184.818 39.7269 183.965 39.9255 182.996C40.0725 182.284 40.3028 181.591 40.4842 180.885C40.6111 180.393 40.4194 180.201 39.6109 179.945C39.5156 179.916 39.432 179.848 39.3404 179.794C39.127 179.157 39.4735 178.581 39.5512 177.975L39.5652 177.99C39.0565 177.845 38.6247 177.592 38.537 177.026C38.3188 175.638 38.1256 174.246 37.9249 172.856L37.8893 172.875C38.3753 173.242 38.8536 173.616 39.3476 173.971C39.705 174.227 40.0793 174.064 40.2708 173.567C40.344 173.38 40.3685 173.173 40.4149 172.974C40.8384 172.659 41.2503 172.327 41.4087 171.796C41.5669 171.271 41.5255 170.719 41.2387 170.277C39.9871 168.355 38.853 166.359 37.6447 164.413C37.5893 164.326 37.5135 164.248 37.4375 164.177C36.1263 162.952 35.1007 161.502 34.1011 160.025C33.9365 159.78 33.634 159.622 33.3768 159.449C33.3072 159.401 33.1288 159.403 33.0793 159.455C32.9489 159.595 32.7614 159.79 32.7792 159.939C32.8149 160.238 32.8883 160.633 33.0966 160.792C34.8127 162.1 35.7766 163.974 36.8844 165.738C37.6065 166.891 38.2981 168.066 39.0228 169.22C39.7567 170.386 40.3068 171.616 40.4357 173.005C39.7997 172.666 39.4116 172.11 39.0481 171.506C38.5395 170.662 37.9774 169.85 37.4383 169.025L37.4732 169.074C37.0249 168 36.4609 167.014 35.5164 166.274C35.019 165.884 34.5483 165.506 33.9118 165.337C33.5324 165.236 33.1089 165.015 32.8675 164.717C31.2218 162.69 29.4115 160.794 28.0077 158.573C27.5621 157.869 27.0511 157.183 26.4663 156.594C25.1191 155.238 24.2351 153.564 23.2052 151.992C23.041 151.739 22.9596 151.41 22.9117 151.106C22.828 150.559 23.6072 150.271 23.4034 149.696C23.23 149.212 22.9559 148.763 22.7473 148.29C22.7161 148.217 22.7666 148.036 22.8301 148.004C23.0052 147.916 23.2519 147.778 23.3903 147.839C23.9611 148.089 24.5388 148.351 25.0452 148.707C25.7267 149.187 26.3445 149.758 26.9915 150.289C27.1943 150.511 27.3972 150.734 27.6025 150.956C27.7892 152.541 28.3692 153.929 29.5563 155.049C30.0028 155.469 30.3294 156.014 30.7236 156.491C30.9207 156.731 31.1673 156.916 31.5084 156.83C31.7115 156.777 31.7794 156.275 31.6192 155.99C30.5522 154.094 29.4055 152.262 27.5713 150.987C27.3685 150.765 27.1657 150.542 26.9628 150.32C26.7277 149.03 25.8272 148.195 24.9155 147.387C24.2348 146.783 23.4913 146.251 22.7765 145.685L22.8072 145.718C22.6948 144.774 22.346 143.905 21.8089 143.142C20.165 140.808 19.4448 138.116 18.7748 135.408C18.4786 134.207 18.1413 133.039 17.516 131.88C16.8814 132.205 16.3407 132.48 15.8001 132.755L15.8335 132.784C15.6298 131.565 15.4287 130.344 15.2271 129.132C15.8582 128.455 16.7239 128.277 17.4849 128.273C18.4443 128.266 19.3295 128.148 20.1967 127.777C20.9299 127.464 21.6347 127.603 22.2785 127.987C22.8067 128.302 23.2861 128.706 23.7819 129.075C24.5269 129.63 25.2691 130.193 26.0115 130.75L25.9766 130.701C26.2262 131.357 26.4933 132.009 26.7077 132.676C26.7555 132.822 26.671 133.095 26.5529 133.184C26.4244 133.282 26.1583 133.302 26.0002 133.238C25.5357 133.048 25.0963 132.797 24.6482 132.573L24.6689 132.554C24.6965 132.654 24.7088 132.764 24.7567 132.853C24.9027 133.125 25.0034 133.464 25.2255 133.645C26.6007 134.772 27.2307 136.578 28.8051 137.524C29.3403 137.846 29.8743 138.195 30.3177 138.627C30.6782 138.976 30.994 139.434 31.1605 139.905C31.4014 140.588 31.5088 141.319 31.6315 142.038C31.7253 142.581 31.9501 143.025 32.3987 143.343C32.9194 143.711 33.2782 144.204 33.6304 144.733C33.9662 145.239 34.5698 145.585 34.8453 146.11C35.1208 146.636 35.1321 147.301 35.2562 147.886C35.6986 148.125 36.0434 148.384 36.4316 148.511C37.7108 148.927 38.491 149.9 39.1781 150.955C39.3885 151.28 39.3893 151.743 39.4872 152.144L39.5158 152.116C39.5049 152.351 39.4942 152.583 39.4833 152.818L39.4597 152.792C39.7488 153.343 40.1597 153.781 40.6818 154.118L40.6536 154.087C40.7167 154.598 40.7823 155.106 40.8583 155.712C41.0515 155.82 41.2976 156.017 41.576 156.105C42.5681 156.408 43.2104 156.988 43.3411 158.07C43.3611 158.227 43.5595 158.385 43.708 158.496C43.8565 158.607 44.1399 158.159 44.1504 157.773C44.1623 157.355 44.204 156.935 44.1687 156.522C43.8668 152.878 43.5026 149.24 43.0489 145.608C42.5154 141.349 41.6392 137.157 40.768 132.963C40.235 130.401 39.5715 127.875 38.3646 125.524C38.0304 124.874 37.7648 124.187 37.5041 123.504C36.3114 120.366 34.6394 117.463 33.1043 114.492C32.8657 114.028 32.6093 113.57 32.3959 113.094C32.1422 112.527 32.2731 112.11 32.8808 111.83C33.2176 111.675 33.1947 111.312 33.0394 111.027C32.6398 110.293 32.2045 109.579 31.7922 108.851C31.6043 108.52 31.6619 108.027 31.8818 108.04C32.1636 108.055 32.4376 108.239 32.7149 108.351C32.9176 108.576 33.123 108.798 33.3258 109.021L33.3025 109.04C33.0973 108.817 32.8945 108.595 32.6893 108.372C32.6888 107.472 32.3923 106.757 31.5513 106.295C30.4179 105.672 29.5283 104.818 29.1873 103.513C29.1665 103.428 29.207 103.304 29.2623 103.232C29.3152 103.16 29.4432 103.072 29.5042 103.092C29.9953 103.244 30.4745 103.437 30.9684 103.581C31.3546 103.696 31.7641 103.204 31.6835 102.804C31.5144 101.961 31.1042 101.241 30.6232 100.549C29.9682 99.6044 29.2929 98.6686 28.6481 97.7168C28.4162 97.374 28.0864 97.0043 28.0641 96.6291C27.9914 95.4709 27.2496 94.7401 26.5779 93.9407C25.8356 93.0612 25.0959 92.1795 24.3767 91.2812C23.9691 90.7717 23.4751 90.4167 22.8403 90.2633L22.859 90.289C23.1139 89.4409 23.4673 88.7138 24.5647 88.8837C24.6656 88.8983 24.7746 88.8983 24.8722 88.8781C24.9673 88.8577 25.1227 88.8228 25.1378 88.764C25.1832 88.5852 25.2627 88.3138 25.1731 88.2155C23.2944 86.1359 21.5856 83.918 19.8177 81.747C19.0768 80.8378 18.5269 79.8706 18.3478 78.7075L18.322 78.7311C19.6508 79.5758 20.6127 80.743 21.423 82.0816C22.2816 83.4993 23.3286 84.7572 24.9666 85.3461L24.9336 85.3099C25.3156 85.4614 25.6892 85.6348 26.0773 85.7643C26.8463 86.0156 26.877 86.0468 26.7645 86.8693C26.7377 87.0737 26.6443 87.2726 26.6323 87.4777C26.6002 88.0091 27.0782 88.4426 27.6535 88.4345C28.1941 88.4274 28.7844 88.0409 28.8636 87.6158C28.9199 87.3112 28.9841 86.9944 28.9585 86.6909C28.9022 86.0341 29.1001 85.4535 29.3987 84.8924L29.368 84.9157C29.9209 85.1768 30.3178 85.5967 30.6131 86.1233C30.9977 86.8078 31.3872 87.49 31.7719 88.1719L31.7413 88.1383C32.2349 88.6643 32.7773 89.1528 33.2043 89.7252C33.5961 90.2539 33.6076 90.8071 33.1432 91.415C32.6817 92.0157 32.9127 92.5939 33.5687 92.8771C33.7557 92.9576 33.9591 93.0067 34.1572 93.0629C34.2574 93.0924 34.3609 93.1046 34.4588 93.1314C35.2598 93.3346 35.6237 93.9314 35.8403 94.6601L35.8739 94.6294C35.4455 94.6219 35.0195 94.6146 34.591 94.6096L34.6196 94.5837C34.5141 94.9877 34.4095 95.4264 34.7215 95.7531C35.2155 96.2692 35.756 96.7453 36.3047 97.2044C36.6649 97.5061 37.0467 97.4494 37.4127 97.1443C37.5597 97.0222 37.7726 96.9726 37.9523 96.8917C38.833 97.4058 39.7137 97.92 40.5916 98.439C40.6785 98.4901 40.7693 98.5637 40.8124 98.65C40.8983 98.8274 41.049 99.05 41.0023 99.2015C40.9206 99.4678 40.7447 99.7347 40.54 99.926C40.4131 100.044 40.1518 100.069 39.9593 100.053C39.5521 100.014 39.15 99.921 38.7469 99.8503C38.7054 99.6749 38.6867 99.4907 38.62 99.3265C38.5196 99.0864 38.3695 99.0621 38.2689 99.2557C38.2416 99.3089 38.3 99.4405 38.357 99.4952C38.4876 99.6178 38.6418 99.7116 38.7879 99.82C38.6418 101.102 38.7663 102.265 39.7349 103.289C40.1271 103.703 40.2051 104.423 40.4135 105.008C40.9001 106.378 41.3291 107.764 42.1719 108.987C42.5782 109.579 42.7696 110.314 43.1116 110.954C43.5517 111.777 44.0478 112.571 44.5184 113.379C45.0646 114.318 45.8656 114.948 46.8794 115.317L46.8613 115.333C46.9005 115.236 46.9325 115.134 46.9837 115.044C47.332 114.428 47.8321 114.117 48.5393 114.365C49.2294 114.606 49.9025 114.897 50.5789 115.166C51.0613 115.719 51.5695 116.248 52.0136 116.826C52.2612 117.15 52.5499 117.552 52.5599 117.925C52.5877 118.93 53.1018 119.707 53.5212 120.549C54.4074 122.335 55.1776 124.165 55.6473 126.114C55.9402 127.332 56.3058 128.531 56.624 129.741C56.643 129.811 56.5503 129.94 56.4759 129.996C56.4041 130.048 56.2386 130.09 56.2007 130.051C55.6182 129.466 55.0513 128.867 54.4792 128.271L54.4477 128.309C54.4603 128.089 54.4755 127.869 54.4883 127.647L54.4929 127.654C54.2272 126.757 53.9639 125.86 53.6957 124.963C53.5114 124.343 53.1411 123.832 52.6201 123.471C52.3969 123.314 52.0102 123.207 51.7733 123.293C51.3574 123.445 51.0216 123.578 50.6355 123.245C50.3901 123.033 50.0588 122.963 49.7998 123.204C49.4036 123.572 49.146 124.051 49.2793 124.597C49.3775 124.991 49.5931 125.365 49.8071 125.72C50.2376 126.431 50.734 127.108 51.1441 127.831C51.4512 128.371 51.669 128.963 51.9277 129.53L54.4262 140.156C54.4026 140.881 54.3961 141.609 54.3477 142.333C54.2927 143.146 53.7984 143.651 53.0916 143.982L53.1148 143.961C54.6693 145.818 54.9133 148.146 55.3822 150.381C55.5752 151.294 55.6547 152.254 55.6262 153.19C55.5109 156.959 56.1655 160.692 56.1447 164.455C56.1428 164.656 56.2224 164.865 56.3004 165.054C56.3337 165.138 56.4509 165.227 56.5419 165.242C56.7879 165.28 56.9551 165.149 56.9817 164.895C57.0011 164.69 56.9714 164.478 56.9761 164.27C56.9952 163.431 57.1779 163.125 57.771 163.266C58.8177 163.516 59.6011 163.027 60.4316 162.592L60.4034 162.558C60.6086 162.783 60.8137 163.009 61.0189 163.234L61.0283 163.244C61.0232 163.462 61.0207 163.677 61.0156 163.895C60.7838 164.298 60.5544 164.699 60.3226 165.102C60.1049 165.308 59.8898 165.513 59.6721 165.719C59.4521 165.706 59.2346 165.694 59.0173 165.678L59.0353 165.662C59.2429 165.674 59.4507 165.684 59.6583 165.696C59.876 165.49 60.091 165.287 60.3087 165.082C60.5356 164.678 60.7624 164.275 60.9894 163.869C61.2144 163.666 61.4418 163.466 61.6668 163.264L61.6462 163.28C61.8092 163.132 61.9747 162.983 62.1378 162.832C62.2398 162.715 62.3419 162.599 62.4415 162.482C62.6341 162.124 62.8266 161.766 63.0215 161.411L62.9776 161.451C63.3159 161.209 63.6848 161.001 63.9902 160.722C64.6942 160.076 65.2843 159.375 65.3205 158.326C65.3339 157.93 65.5899 157.543 65.7368 157.153L65.7134 157.174C66.3482 157.379 66.9221 157.295 67.3892 156.788C68.2945 155.809 69.0511 154.724 69.6903 153.552L69.6592 153.58C70.1504 153.197 70.6626 152.839 71.1255 152.424C71.5339 152.059 71.7597 151.574 71.5197 151.03C71.2595 150.443 71.1435 149.843 71.1505 149.211L71.1221 149.237C71.3595 148.819 71.5969 148.401 71.8343 147.984L71.819 147.993ZM39.3484 114.351C39.148 114.131 38.9475 113.911 38.7497 113.689C38.5611 113.266 38.3727 112.841 38.1866 112.418C37.9838 112.196 37.7784 111.973 37.5757 111.748L37.6068 111.72C37.8096 111.942 38.0149 112.165 38.2177 112.388C38.4011 112.815 38.587 113.242 38.7705 113.667C38.971 113.887 39.174 114.105 39.3745 114.325L39.3484 114.351ZM36.5805 106.649C36.7835 106.869 36.9839 107.089 37.1868 107.309L37.1661 107.328C36.9657 107.106 36.7653 106.886 36.565 106.663L36.5805 106.649ZM40.4259 159.746C40.5237 160.041 40.5784 160.36 40.7272 160.625C41.114 161.315 41.4399 161.446 42.2791 161.307C42.4813 161.274 42.6742 161.179 42.8731 161.111C42.9247 161.173 42.9658 161.247 43.0282 161.292C43.0737 161.326 43.1432 161.324 43.2044 161.34C43.0835 161.275 42.9626 161.21 42.8392 161.144C42.7988 160.947 42.776 160.745 42.7129 160.556C42.5366 160.03 42.177 159.713 41.6046 159.712C41.2032 159.71 40.8025 159.749 40.4002 159.767C40.1974 159.545 39.9971 159.32 39.7943 159.097C39.8346 157.907 39.4946 156.851 38.817 155.858C38.0489 154.732 37.234 153.653 36.3243 152.642L36.345 152.623C36.1132 153.239 36.223 153.809 36.5825 154.342C37.6566 155.923 38.7383 157.5 39.815 159.079C40.0203 159.301 40.2231 159.524 40.4259 159.746ZM45.3114 121.559C44.5731 120.858 43.733 120.271 43.4288 119.189C43.2054 118.393 42.676 117.734 42.0007 117.224C41.9313 117.172 41.7414 117.151 41.7098 117.191C41.5939 117.339 41.405 117.564 41.4464 117.687C41.9957 119.256 42.9472 120.594 43.9783 121.874C44.1822 122.126 44.5505 122.041 44.8333 121.873C45.0091 121.77 45.1735 121.644 45.3424 121.528L45.3114 121.559ZM37.8971 119.302C38.2612 122.032 39.4918 124.406 40.9525 126.682C41.0542 126.84 41.265 126.944 41.4415 127.039C41.5189 127.08 41.6537 127.062 41.7445 127.026C41.833 126.988 41.9188 126.903 41.9648 126.818C42.0109 126.734 42.0466 126.604 42.0158 126.521C41.0399 123.891 39.7178 121.458 37.861 119.335L37.8971 119.302ZM45.2062 124.681C45.2639 124.88 45.2756 125.108 45.3845 125.272C46.4995 126.932 47.13 128.783 47.5709 130.711C47.6163 130.909 47.7116 131.097 47.7819 131.291C47.8808 131.563 48.2792 131.79 48.5326 131.722C48.9092 131.618 49.348 131.131 49.3139 130.851C49.2886 130.65 49.3037 130.43 49.2279 130.248C48.414 128.346 47.585 126.449 46.756 124.552C46.718 124.464 46.631 124.366 46.5454 124.339C46.3573 124.281 46.131 124.191 45.9673 124.248C45.6826 124.349 45.4327 124.553 45.1675 124.714C45.17 124.714 45.2062 124.681 45.2062 124.681ZM47.6577 120.394C48.4089 120.547 48.9034 120.677 49.4063 120.732C49.5617 120.749 49.8065 120.6 49.8924 120.458C49.9785 120.313 49.9915 120.031 49.9036 119.896C49.4114 119.127 48.8911 118.377 48.3501 117.645C48.2708 117.537 48.013 117.54 47.8373 117.535C47.7829 117.532 47.6794 117.679 47.6781 117.76C47.6606 118.565 47.6629 119.373 47.6577 120.394ZM30.0678 90.7743C30.1928 90.6984 30.343 90.6112 30.3409 90.6036C30.2116 90.3449 30.1032 90.0648 29.9145 89.8578C29.8108 89.7439 29.5673 89.7574 29.3885 89.712C29.3901 89.8905 29.3222 90.1252 29.4089 90.2333C29.5895 90.4523 29.8526 90.6058 30.0678 90.7743ZM50.9393 142.406C50.9282 142.484 50.8918 142.574 50.9055 142.654C50.9566 142.942 51.0504 142.949 51.1426 142.67C51.1684 142.595 51.1508 142.495 51.1221 142.419C51.1158 142.394 51.006 142.409 50.9393 142.406ZM80.6239 144.307L80.4384 144.192L80.3984 144.361L80.6239 144.307Z" fill="#4F5375"/>
<path d="M53.1366 7.23403C52.7453 8.72511 53.1754 10.1403 53.5812 11.5419C53.8692 12.5465 54.285 13.5199 54.1384 14.596C54.1271 14.6798 54.0134 14.7811 53.9253 14.8117C53.8371 14.8423 53.7118 14.8191 53.6194 14.7801C53.5295 14.7413 53.4364 14.6651 53.3858 14.5809C51.5471 11.5318 51.2304 8.31287 52.3309 4.94153C52.4177 4.67295 52.777 4.72682 53.0932 5.0686C53.1617 5.14117 53.1862 5.25377 53.2313 5.35003L53.2546 5.33133C52.7227 5.95348 52.6209 6.598 53.1596 7.27226L53.1366 7.23403Z" fill="#4F5375"/>
<path d="M45.1194 108.807C45.1143 108.703 45.1092 108.598 45.104 108.496C45.0914 108.181 45.114 107.855 45.4704 107.758C45.6487 107.709 45.9172 107.741 46.0584 107.849C46.9654 108.543 47.8543 109.256 48.7246 109.995C48.8199 110.076 48.7576 110.353 48.7442 110.536C48.7433 110.554 48.5303 110.603 48.4629 110.56C47.818 110.146 47.359 110.425 46.793 110.82C46.099 111.303 45.2386 110.835 45.1582 110.055C45.1381 109.849 45.1254 109.64 45.1201 109.434C45.1149 109.226 45.1197 109.015 45.1194 108.807Z" fill="#4F5375"/>
<path d="M38.9316 94.2632C38.0567 93.6774 37.3622 92.8869 36.8225 92.0193C36.0476 90.774 35.075 89.7327 34.0127 88.7517C33.8653 88.616 33.7754 88.416 33.6569 88.247L33.6184 88.2749C34.1287 88.3333 34.6703 88.3039 35.1381 88.4767C35.5987 88.6443 36.1158 88.9284 36.3804 89.3149C37.3013 90.6735 38.1275 92.0947 38.9742 93.5019C39.0755 93.6701 39.09 93.8938 39.1452 94.0921L38.9316 94.2632Z" fill="#4F5375"/>
<path d="M37.9297 172.859C37.6199 172.592 37.2611 172.367 37.0129 172.053C36.3153 171.171 35.6792 170.244 34.9919 169.355C34.5991 168.846 34.4045 168.287 34.3943 167.652L34.3607 167.683C35.3554 168.249 36.2894 168.949 37.4778 169.081L37.4429 169.032C37.527 169.624 37.5534 170.232 37.7102 170.804C37.8988 171.495 37.9613 172.177 37.894 172.88L37.9297 172.859Z" fill="#4F5375"/>
<path d="M60.4469 162.583C60.8445 161.491 61.604 160.664 62.4117 159.866C62.6558 159.624 63.1164 159.524 63.2166 159.715C63.3008 159.875 63.3701 160.091 63.335 160.261C63.2545 160.661 63.1102 161.048 62.9903 161.442L63.0343 161.402C62.8418 161.759 62.6493 162.117 62.4544 162.472C62.3524 162.589 62.2527 162.706 62.1507 162.823C61.9877 162.971 61.822 163.122 61.6565 163.271C61.6565 163.271 61.6772 163.254 61.677 163.257C61.4643 163.249 61.2539 163.245 61.0411 163.237L61.0317 163.227C60.8265 163.002 60.6212 162.777 60.4161 162.551L60.4469 162.583Z" fill="#4F5375"/>
<path d="M26.8579 97.5768C26.9557 97.6061 27.0947 97.6027 27.1462 97.667C27.78 98.482 28.4366 99.2856 28.6304 100.343C28.6443 100.418 28.5692 100.541 28.4999 100.592C28.4332 100.641 28.3137 100.653 28.2253 100.636C28.1295 100.617 28.0229 100.567 27.9592 100.498C27.2573 99.7092 26.7709 98.8119 26.6242 97.7543C26.6189 97.707 26.7758 97.6374 26.8579 97.5768Z" fill="#4F5375"/>
<path d="M54.4156 130.602C54.5174 130.6 54.6407 130.558 54.7156 130.599C55.4045 130.975 55.693 131.593 55.7075 132.35C55.7092 132.422 55.6 132.531 55.5168 132.561C55.4336 132.592 55.298 132.579 55.2284 132.528C54.7325 132.161 54.2888 131.734 54.1594 131.106C54.1338 130.963 54.326 130.772 54.4156 130.602Z" fill="#4F5375"/>
<path d="M43.6272 103.841C44.1884 104.137 44.6278 104.551 44.9159 105.125C45.059 105.407 44.9938 105.85 44.7506 105.962C44.4289 106.113 44.1449 105.984 43.9041 105.779C43.2293 105.208 43.3353 104.524 43.6432 103.817C43.6456 103.819 43.6272 103.841 43.6272 103.841Z" fill="#4F5375"/>
<path d="M57.5209 157.488C57.579 157.412 57.6232 157.312 57.6969 157.273C57.773 157.235 57.9054 157.214 57.9679 157.256C58.7451 157.758 58.8491 158.506 58.6794 159.334C58.6665 159.397 58.5345 159.466 58.4496 159.479C58.3623 159.492 58.2371 159.467 58.1778 159.409C57.6373 158.881 57.6182 158.169 57.5209 157.488Z" fill="#4F5375"/>
<path d="M76.146 163.281C75.9062 164.07 75.5937 164.821 74.8328 165.252C74.703 165.325 74.4068 165.299 74.3197 165.201C74.2162 165.082 74.1773 164.8 74.2482 164.66C74.3792 164.401 74.57 164.132 74.81 163.98C75.2364 163.709 75.7158 163.526 76.172 163.307C76.1695 163.307 76.146 163.281 76.146 163.281Z" fill="#4F5375"/>
<path d="M54.4869 128.264C53.5164 128.189 52.7024 127.893 52.4525 126.816C52.4361 126.741 52.4862 126.622 52.5435 126.563C52.6006 126.506 52.7447 126.448 52.7904 126.478C53.3675 126.859 53.9313 127.257 54.5004 127.65L54.4958 127.642C54.4832 127.862 54.468 128.082 54.4552 128.304L54.4869 128.264Z" fill="#4F5375"/>
<path d="M44.035 99.0546C43.7096 99.2328 43.4894 99.4407 43.2531 99.4595C42.9546 99.4828 42.7097 99.2608 42.6528 98.936C42.5863 98.5538 43.0698 98.1723 43.4528 98.3561C43.6686 98.4602 43.7937 98.7535 44.035 99.0546Z" fill="#4F5375"/>
<path d="M39.1427 94.092C39.5394 94.5689 39.9566 95.0318 40.3276 95.5298C40.4862 95.7428 40.3724 95.9507 40.1228 95.9912C40.0354 96.0045 39.9115 95.9491 39.8402 95.8839C39.365 95.443 39.1063 94.8759 38.9339 94.2657C38.9315 94.2631 39.1427 94.092 39.1427 94.092Z" fill="#4F5375"/>
<path d="M15.8051 132.755C15.8042 133.149 15.8377 133.55 15.78 133.938C15.7589 134.074 15.5229 134.192 15.3628 134.278C15.3119 134.306 15.1372 134.226 15.1155 134.16C15.0541 133.987 14.9523 133.727 15.029 133.621C15.2565 133.312 15.5655 133.059 15.8409 132.784C15.8385 132.784 15.8051 132.755 15.8051 132.755Z" fill="#4F5375"/>
<path d="M54.3858 7.92394C53.9678 7.69391 53.5521 7.46399 53.1341 7.23396L53.1548 7.26958C53.1873 6.62182 53.2172 5.97644 53.2497 5.32866L53.2265 5.34736C53.8127 6.12047 54.2775 6.94743 54.3628 7.94018L54.3858 7.92394Z" fill="#4F5375"/>
<path d="M55.8091 18.0637C55.4057 17.9458 55.035 17.7626 54.9037 17.3352C54.852 17.1668 54.8738 16.9076 54.9739 16.7809C55.1106 16.6113 55.3348 16.6935 55.4206 16.928C55.5566 17.3085 55.6598 17.7024 55.7782 18.0895L55.8091 18.0637Z" fill="#4F5375"/>
<path d="M41.8937 101.892C41.8145 101.836 41.6974 101.796 41.6588 101.72C41.5317 101.469 41.877 101.128 42.2014 101.188C42.2898 101.204 42.3952 101.283 42.4362 101.362C42.5727 101.624 42.2591 101.921 41.8937 101.892Z" fill="#4F5375"/>
<path d="M58.3179 151.362C58.1847 151.457 58.0447 151.642 57.9187 151.633C57.6273 151.612 57.4812 151.234 57.6373 150.968C57.6803 150.896 57.7799 150.831 57.8651 150.813C58.1484 150.742 58.3779 151.03 58.3179 151.362Z" fill="#4F5375"/>
<path d="M72.3498 163.058C72.2903 163.005 72.2306 162.955 72.1711 162.903C72.2756 162.786 72.3803 162.667 72.4944 162.559C72.4996 162.554 72.6064 162.656 72.6661 162.705C72.5614 162.825 72.4543 162.941 72.3498 163.058Z" fill="#4F5375"/>
<path d="M77.6544 145.069C77.3655 145.152 77.081 145.251 76.7882 145.314C76.7155 145.33 76.5677 145.259 76.541 145.193C76.4567 144.979 76.5754 144.771 76.8143 144.802C77.0926 144.84 77.3552 145.003 77.6252 145.112C77.6278 145.11 77.6544 145.069 77.6544 145.069Z" fill="#4F5375"/>
<path d="M26.0164 130.75C26.1308 130.582 26.2146 130.375 26.3665 130.253C26.5544 130.104 26.7666 130.178 26.8779 130.396C26.9165 130.472 26.9124 130.613 26.8648 130.678C26.8145 130.748 26.688 130.804 26.5966 130.797C26.3914 130.787 26.188 130.736 25.9839 130.702C25.9813 130.704 26.0164 130.75 26.0164 130.75Z" fill="#4F5375"/>
<path d="M77.5028 141.07C77.3663 141.18 77.2274 141.29 77.0909 141.4C76.9926 141.277 76.79 141.104 76.8204 141.036C76.8839 140.895 77.0568 140.747 77.2094 140.717C77.422 140.674 77.5306 140.843 77.5028 141.07Z" fill="#4F5375"/>
<path d="M34.3467 86.4104C34.7672 86.6405 35.1877 86.8707 35.6059 87.0983L35.5705 87.0594C35.0218 87.5643 34.3456 87.6098 33.6503 87.5874L33.6837 87.6163C33.6932 87.411 33.7028 87.2033 33.7123 86.9981L33.6867 87.0167C33.9221 86.8021 34.1576 86.5875 34.3906 86.3728L34.3467 86.4104Z" fill="#4F5375"/>
<path d="M47.4411 113.303C47.2839 113.219 47.1268 113.135 46.9722 113.049C47.0635 112.897 47.1293 112.652 47.2523 112.618C47.3727 112.587 47.5502 112.768 47.7047 112.857C47.616 113.007 47.5274 113.154 47.4411 113.303Z" fill="#4F5375"/>
<path d="M20.7976 148.118C20.5072 147.862 20.2115 147.613 19.934 147.345C19.8842 147.295 19.8769 147.134 19.9195 147.069C20.0504 146.864 20.2872 146.836 20.3961 147.051C20.5662 147.391 20.6524 147.777 20.7717 148.142L20.7976 148.118Z" fill="#4F5375"/>
<path d="M35.6059 87.0983C35.6662 86.9201 35.712 86.7364 35.7965 86.5693C35.8292 86.5064 35.9637 86.4358 36.0223 86.4558C36.2444 86.5281 36.2857 86.7085 36.0902 86.863C35.9512 86.973 35.7469 86.9982 35.5705 87.0594L35.6059 87.0983Z" fill="#4F5375"/>
<path d="M83.8478 155.108L83.7606 155.332L83.6504 155.143L83.8478 155.108Z" fill="#4F5375"/>
<path d="M42.3481 103.744C42.2575 103.988 42.2924 104.359 41.854 104.247C41.827 104.241 41.8073 104.022 41.8378 104.006C42.0081 103.915 42.1943 103.854 42.3735 103.783C42.3759 103.785 42.3481 103.744 42.3481 103.744Z" fill="#4F5375"/>
<path d="M56.0079 67.8717C56.1083 67.8962 56.2195 67.9039 56.3116 67.9502C56.9828 68.2787 56.9802 68.2811 56.5781 69.1497L56.6072 69.1634C56.412 68.7232 56.2169 68.2829 56.0217 67.8427C56.024 67.8452 56.0079 67.8717 56.0079 67.8717Z" fill="#4F5375"/>
<path d="M68.9966 176.906C68.973 176.828 68.9084 176.726 68.938 176.676C68.9678 176.62 69.0822 176.61 69.1605 176.579C69.184 176.66 69.244 176.757 69.2166 176.812C69.1893 176.866 69.0724 176.875 68.9966 176.906Z" fill="#4F5375"/>
<path d="M33.7394 86.3599C33.7054 85.4885 33.7055 85.4885 34.4442 85.1634L34.4132 85.1372C34.391 85.5624 34.3688 85.9852 34.3467 86.4104L34.3904 86.3777C34.1654 86.3673 33.9404 86.3544 33.7129 86.3438L33.7394 86.3599Z" fill="#4F5375"/>
<path d="M40.8379 33.0961L40.9539 32.9454L41.01 33.1264L40.8379 33.0961Z" fill="#4F5375"/>
<path d="M35.6121 19.0231C35.6847 19.1677 35.7548 19.3123 35.8274 19.4569C35.7573 19.419 35.6568 19.3969 35.6248 19.3384C35.5814 19.2596 35.5888 19.1509 35.5735 19.0536L35.6121 19.0231Z" fill="#4F5375"/>
<path d="M42.3759 103.785C42.8077 103.453 43.2306 103.362 43.6272 103.841L43.6456 103.819C43.2131 103.794 42.7806 103.769 42.348 103.747C42.3481 103.744 42.3759 103.785 42.3759 103.785Z" fill="#4F5375"/>
<path d="M82.0348 36.307C82.2205 36.7394 82.4061 37.1742 82.5917 37.6066L82.6253 37.5759C82.405 37.5707 82.1848 37.5629 81.9645 37.5577L81.9995 37.6039C82.0223 37.1663 82.0451 36.7263 82.0679 36.2887L82.0348 36.307Z" fill="#4F5375"/>
<path d="M33.1924 83.8341C33.6109 84.0543 34.0268 84.2768 34.4453 84.4969L34.4736 84.4759C34.0552 84.2533 33.6343 84.0305 33.2158 83.8104C33.2156 83.8129 33.1924 83.8341 33.1924 83.8341Z" fill="#4F5375"/>
<path d="M55.3799 67.8426C55.5901 67.8524 55.7977 67.862 56.0077 67.8742L56.0239 67.8477C55.8061 67.8401 55.5861 67.8299 55.3683 67.8223L55.3799 67.8426Z" fill="#4F5375"/>
<path d="M35.8476 94.6604L35.8812 94.6298C35.8811 94.6322 35.8476 94.6604 35.8476 94.6604Z" fill="#4F5375"/>
<path d="M34.4442 85.1634C34.4547 84.9359 34.4653 84.7084 34.4735 84.4783L34.4452 84.4994C34.4353 84.712 34.423 84.9245 34.4132 85.1372L34.4442 85.1634Z" fill="#4F5375"/>
<path d="M33.7122 87.0005C33.7221 86.7879 33.7295 86.5726 33.7394 86.3599L33.7154 86.3415C33.705 86.5665 33.697 86.7942 33.6865 87.0192L33.7122 87.0005Z" fill="#4F5375"/>
<path d="M33.6502 87.5899C33.6396 87.8174 33.6291 88.0449 33.6184 88.2749L33.6569 88.247C33.6665 88.0393 33.6738 87.829 33.6834 87.6212C33.6836 87.6188 33.6502 87.5899 33.6502 87.5899Z" fill="#4F5375"/>
<path d="M29.4037 84.8926C29.1984 84.67 28.9931 84.4498 28.7854 84.2271L28.7517 84.2552C28.9867 84.2661 29.2191 84.2769 29.4516 84.2876C29.4516 84.2876 29.411 84.2536 29.4112 84.2511C29.3984 84.4735 29.3857 84.6935 29.3704 84.9158C29.3729 84.9159 29.4037 84.8926 29.4037 84.8926Z" fill="#4F5375"/>
<path d="M20.3786 143.098C20.5816 143.315 20.7847 143.533 20.9877 143.751L21.0085 143.732C20.8106 143.509 20.6127 143.287 20.4149 143.065C20.415 143.062 20.3786 143.098 20.3786 143.098Z" fill="#4F5375"/>
<path d="M22.1987 90.2584C22.4188 90.2686 22.6414 90.2789 22.8615 90.2891L22.8429 90.2635C22.6402 90.2516 22.435 90.2396 22.2324 90.2277L22.1987 90.2584Z" fill="#4F5375"/>
<path d="M20.415 143.062L20.3761 143.098C20.3785 143.098 20.415 143.062 20.415 143.062Z" fill="#4F5375"/>
<path d="M22.2349 90.2278L22.2012 90.2585C22.1987 90.2584 22.2349 90.2278 22.2349 90.2278Z" fill="#4F5375"/>
<path d="M22.0555 80.1433C21.8452 80.136 21.6374 80.1289 21.4271 80.1216L21.4043 80.1329C21.6268 80.1432 21.847 80.151 22.0696 80.1613L22.0555 80.1433Z" fill="#4F5375"/>
<path d="M21.4296 80.1217C21.4395 79.909 21.4492 79.6988 21.4591 79.4862L21.4399 79.4704C21.4297 79.6905 21.417 79.9129 21.4068 80.133L21.4296 80.1217Z" fill="#4F5375"/>
<path d="M37.5689 180.428L37.5476 180.405C37.55 180.405 37.5689 180.428 37.5689 180.428Z" fill="#4F5375"/>
<path d="M39.4898 152.142C39.4798 152.357 39.4698 152.575 39.4598 152.79L39.4834 152.816C39.4943 152.581 39.5051 152.348 39.5159 152.113L39.4898 152.142Z" fill="#4F5375"/>
<path d="M109.985 111.383L109.959 111.203L110.135 111.244L109.985 111.383Z" fill="#4F5375"/>
<path d="M82.174 155.4L82.205 155.371C82.2049 155.374 82.174 155.4 82.174 155.4Z" fill="#4F5375"/>
<path d="M82.5941 37.6067L82.6277 37.576C82.6253 37.5759 82.5941 37.6067 82.5941 37.6067Z" fill="#4F5375"/>
<path d="M71.161 149.199L71.1325 149.225C71.13 149.225 71.161 149.199 71.161 149.199Z" fill="#4F5375"/>
<path d="M65.7472 157.141L65.7239 157.162C65.724 157.16 65.7472 157.141 65.7472 157.141Z" fill="#4F5375"/>
<path d="M66.4485 34.4073L66.2684 34.4436L66.3212 34.2651L66.4485 34.4073Z" fill="#4F5375"/>
</svg>
