<svg width="373" height="455" viewBox="0 0 373 455" fill="none" xmlns="http://www.w3.org/2000/svg">
<path fill-rule="evenodd" clip-rule="evenodd" d="M22.3367 214.815C23.1586 214.828 23.995 214.823 24.8356 214.817C27.0281 214.804 29.2485 214.791 31.3106 215.083C43.0763 216.783 54.889 217.743 66.7487 217.962C73.3053 218.095 78.448 219.187 83.7383 222.111C84.0217 222.266 84.2531 222.501 84.4035 222.787C84.5539 223.073 84.6166 223.397 84.5838 223.718C84.5509 224.04 84.4241 224.345 84.219 224.594C84.014 224.844 83.7398 225.027 83.4309 225.122C77.9745 226.832 72.6802 227.513 67.5479 227.165C58.0532 226.507 49.0992 225.549 40.1484 224.592C28.0818 223.302 16.0211 222.013 2.64945 221.456C2.2156 221.437 1.79704 221.296 1.44275 221.052C1.08846 220.807 0.813007 220.468 0.648561 220.074C-0.22429 217.987 0.667915 216.261 3.32519 214.896C3.85788 214.622 4.45661 214.487 5.06593 214.503C12.221 214.652 17.978 214.756 22.3367 214.815ZM103.68 182.743C106.652 183.395 107.123 182.584 105.093 180.311C99.2435 173.786 92.8549 168.008 85.9276 162.978C82.9339 160.802 79.9601 158.658 77.005 156.528C57.3144 142.333 38.4581 128.739 20.1476 110.156C19.9075 109.911 19.7437 109.602 19.676 109.265C19.6083 108.929 19.6396 108.58 19.7662 108.261C19.8929 107.943 20.1093 107.668 20.3892 107.469C20.6692 107.271 21.0006 107.158 21.3434 107.145L23.7551 107.061C25.3667 106.999 26.9376 107.514 28.178 108.513C33.0911 112.441 38.1668 116.815 43.4048 121.634C52.965 130.461 64.2171 138.676 75.0177 146.251C84.6787 153.012 94.1735 159.971 103.502 167.127C104.568 167.957 104.859 167.739 104.374 166.476C101.809 159.873 99.9179 152.757 98.7001 145.126C98.5435 144.186 98.6898 143.224 99.1178 142.382C100.471 139.693 102.685 139.054 105.76 140.464C106.35 140.731 106.874 141.128 107.295 141.627C107.716 142.127 108.022 142.715 108.192 143.351C112.655 159.729 117.287 172.724 122.087 182.337C122.993 184.166 124.149 186.028 125.557 187.922C125.772 188.213 125.919 188.549 125.987 188.905C126.054 189.261 126.04 189.627 125.946 189.977C125.851 190.326 125.679 190.65 125.441 190.924C125.204 191.197 124.908 191.413 124.575 191.556C122.442 192.469 120.043 192.777 117.378 192.481C108.064 191.423 98.375 189.383 88.3097 186.363C87.6607 186.169 87.1091 185.737 86.7659 185.153C86.4227 184.569 86.3134 183.876 86.4599 183.215C86.9154 181.139 88.4883 180.279 91.1783 180.635C96.1427 181.302 100.31 182.005 103.68 182.743ZM66.626 295.645C74.4086 290.581 82.1256 285.23 88.9815 279.209C90.4643 277.902 90.8349 278.168 90.0934 280.006C88.1784 284.648 85.9997 289.241 83.5573 293.787C82.8953 295.03 82.664 296.457 82.8997 297.843C83.1355 299.23 83.8249 300.497 84.8597 301.445L88.8398 305.096C90.7747 306.885 92.355 306.611 93.581 304.273C96.7891 298.152 99.9472 291.629 103.055 284.705C103.49 283.735 103.914 282.806 104.322 281.91L104.323 281.908C108.532 272.671 111.101 267.032 107.641 257.909C107.011 256.259 106.025 255.118 104.685 254.485C102.94 253.649 101.286 253.549 99.7222 254.186C93.7821 256.583 87.7004 257.459 81.4774 256.815C81.0198 256.765 80.5571 256.83 80.1304 257.002C79.7038 257.175 79.3266 257.451 79.0324 257.805C78.7382 258.159 78.5362 258.58 78.4445 259.031C78.3527 259.482 78.374 259.949 78.5065 260.39C79.1432 262.546 81.3084 265.233 85.0023 268.451C85.5588 268.939 85.5401 269.393 84.9459 269.812C82.1014 271.875 79.2978 274.098 76.497 276.32L76.4966 276.32L76.4961 276.32L76.4957 276.321L76.4953 276.321L76.4948 276.321L76.4944 276.322L76.4939 276.322L76.4935 276.322L76.4931 276.323L76.4926 276.323L76.4922 276.323L76.4918 276.324L76.4914 276.324C72.105 279.803 67.7254 283.277 63.2065 286.119C54.3162 291.709 45.3809 297.223 36.4005 302.662C32.7572 304.865 29.3934 307.494 26.309 310.547C25.7948 311.059 25.6345 311.668 25.8282 312.376C26.4778 314.749 27.731 316.279 29.5879 316.964C30.2363 317.194 30.9279 317.28 31.6141 317.214C32.3003 317.148 32.9644 316.933 33.5599 316.583C36.0175 315.13 38.5099 313.73 40.9971 312.334L40.9972 312.334C47.2221 308.839 53.4142 305.362 58.9442 301.107C61.4249 299.193 63.9855 297.373 66.626 295.645ZM96.752 227.574C96.7678 227.359 96.5098 227.036 95.9778 226.607C92.593 223.903 88.5321 220.666 83.7953 216.894C83.4839 216.646 83.1652 216.393 82.8407 216.136C76.4876 211.09 67.9495 204.309 69.6993 199.283C69.9494 198.562 70.434 197.945 71.0766 197.529C71.7192 197.113 72.4834 196.922 73.2485 196.986C77.6437 197.337 81.2966 198.746 84.2076 201.213C91.1724 207.112 98.0109 212.764 104.723 218.168C108.993 221.602 113.474 224.429 118.166 226.651C118.407 226.764 118.613 226.941 118.761 227.162C118.91 227.383 118.995 227.64 119.009 227.905C119.023 228.171 118.965 228.436 118.84 228.671C118.715 228.906 118.529 229.103 118.301 229.24C113.796 231.973 109.408 233.891 105.137 234.994C94.2088 237.834 83.9719 239.915 74.4263 241.238C73.8296 241.325 73.2204 241.232 72.6771 240.97C72.1337 240.709 71.6809 240.291 71.3767 239.77C71.0725 239.25 70.9309 238.65 70.9699 238.048C71.0089 237.446 71.2268 236.87 71.5957 236.393C72.4591 235.257 73.6781 234.494 75.2526 234.104C77.2312 233.597 79.1749 233.063 81.1063 232.531C85.7934 231.242 90.4075 229.972 95.2694 229.178C95.6629 229.114 96.0232 228.921 96.2923 228.63C96.5613 228.339 96.7233 227.967 96.752 227.574ZM107.8 337.949C119.897 325.674 132.013 313.422 144.15 301.193C144.82 300.52 145.056 300.646 144.859 301.57L141.55 317.148C141.364 318.015 141.516 318.92 141.975 319.682C142.434 320.444 143.166 321.005 144.023 321.252L151.726 323.485C153.452 323.987 154.559 323.367 155.048 321.626C159.388 306.37 163.775 290.366 168.21 273.614C168.651 271.941 168.76 270.252 168.538 268.545C168.435 267.786 168.091 267.161 167.506 266.671L159.655 259.941C158.625 259.053 157.343 258.506 155.987 258.376C154.631 258.246 153.267 258.538 152.08 259.212C143.954 263.847 134.613 267.598 124.059 270.465C123.388 270.648 122.779 271.011 122.301 271.515C121.822 272.019 121.49 272.645 121.342 273.325C121.194 274.004 121.235 274.712 121.461 275.369C121.686 276.027 122.088 276.61 122.622 277.056C126.16 280.031 130.229 281.189 134.828 280.529C136.261 280.325 137.597 279.754 138.934 279.182L138.934 279.182L138.935 279.182C139.846 278.792 140.758 278.403 141.701 278.129C143.236 277.678 143.537 278.105 142.604 279.409C140.864 281.853 138.824 284.362 136.483 286.935C120.412 304.554 104.08 321.495 87.4867 337.761C87.1563 338.087 86.9162 338.493 86.7902 338.94C86.6642 339.387 86.6567 339.858 86.7685 340.307C86.8803 340.756 87.1074 341.166 87.4273 341.498C87.7472 341.83 88.1488 342.071 88.5919 342.198L97.6522 344.834C98.0195 344.945 98.4197 344.904 98.7658 344.721C102.135 342.901 105.147 340.644 107.8 337.949ZM150.176 277.515C149.578 277.587 149.138 277.381 148.856 276.898C148.8 276.806 148.764 276.703 148.75 276.595C148.736 276.488 148.744 276.379 148.774 276.273C148.804 276.168 148.855 276.07 148.924 275.984C148.993 275.898 149.079 275.826 149.176 275.773C149.659 275.491 150.16 275.455 150.68 275.667C151.086 275.841 151.23 276.14 151.112 276.565C150.969 277.132 150.657 277.449 150.176 277.515ZM151.048 174.229C137.58 146.471 123.322 118.944 108.275 91.6477C108.024 91.1984 107.896 90.6914 107.903 90.1771C107.91 89.6628 108.051 89.1588 108.314 88.7144C108.576 88.27 108.95 87.9008 109.398 87.6429C109.847 87.385 110.355 87.2473 110.873 87.2435C115.135 87.2381 118.471 89.3319 120.88 93.5248C137.398 122.243 153.093 150.952 167.966 179.651C168.07 179.844 168.241 179.99 168.445 180.061C168.649 180.132 168.87 180.123 169.064 180.035L169.581 179.791C169.819 179.693 169.889 179.525 169.791 179.287C166.984 171.857 164.519 164.286 162.397 156.575C161.643 153.847 161.821 151.527 162.929 149.614C163.176 149.184 163.52 148.818 163.933 148.544C164.346 148.27 164.817 148.096 165.309 148.036C165.801 147.975 166.301 148.03 166.768 148.195C167.235 148.361 167.658 148.632 168.002 148.989C171.708 152.829 174.626 157.767 176.755 163.804C180.037 173.045 183.518 181.723 187.2 189.837C187.365 190.206 187.449 190.606 187.447 191.009C187.444 191.413 187.354 191.812 187.183 192.177C187.012 192.543 186.765 192.868 186.457 193.13C186.149 193.391 185.789 193.584 185.4 193.693C179.956 195.245 174.768 194.864 169.837 192.553C157.893 186.982 145.855 181.31 133.723 175.538C133.347 175.358 133.025 175.085 132.788 174.744C132.55 174.404 132.407 174.009 132.37 173.597C132.261 172.332 132.562 171.465 133.276 170.998C135.326 169.631 137.225 169.351 138.972 170.158C143.22 172.116 147.064 173.684 150.503 174.861C151.193 175.099 151.375 174.888 151.048 174.229ZM163.879 69.5216L162.499 88.0576C162.413 89.2216 162.224 89.244 161.93 88.1244C156.096 66.4014 148.724 42.7019 139.813 17.0259C137.906 11.5117 135.368 6.31232 132.201 1.42812C131.993 1.10318 131.71 0.832307 131.377 0.637596C131.044 0.442884 130.669 0.329897 130.284 0.308019C129.898 0.28611 129.513 0.355934 129.16 0.511625C128.807 0.667317 128.496 0.904504 128.252 1.20377C127.57 2.03507 127.469 3.30635 127.951 5.01756C134.117 26.5482 140.164 48.1136 146.094 69.7137C148.89 79.8585 151.197 90.0828 153.013 100.387C153.218 101.529 152.964 101.648 152.25 100.743C149.114 96.8145 145.631 93.2796 141.802 90.1383C141.112 89.5774 140.299 89.1888 139.431 89.0046C138.562 88.8203 137.663 88.8459 136.808 89.079L136.035 89.2824C135.76 89.354 135.508 89.4936 135.302 89.6887C135.095 89.8838 134.942 90.128 134.855 90.3982C134.768 90.6686 134.751 90.9563 134.805 91.235C134.859 91.5138 134.983 91.7744 135.164 91.9926C143.842 102.511 152.976 112.426 162.566 121.74C166.354 125.441 170.759 126.645 175.78 125.352C176.487 125.173 176.889 124.718 176.985 123.988C177.608 118.91 176.802 113.924 175.998 108.95C175.55 106.183 175.103 103.42 174.904 100.648C174.813 99.1957 174.359 97.7227 173.926 96.3183C173.502 94.9429 173.098 93.6333 173.075 92.4736C172.974 86.1671 172.919 78.9321 172.911 70.7687C172.905 69.7186 172.504 68.7096 171.788 67.9453C171.072 67.1809 170.094 66.7182 169.052 66.6501L167.327 66.5237C166.473 66.4668 165.631 66.7501 164.985 67.3118C164.339 67.8734 163.941 68.6678 163.879 69.5216ZM177.414 359.458C177.202 363.531 176.739 367.578 176.026 371.6C175.212 376.193 174.78 380.214 174.73 383.663C174.625 390.214 174.362 396.761 173.94 403.304C173.851 404.69 174.003 406.066 174.158 407.465C174.278 408.549 174.4 409.646 174.412 410.772C174.411 411.566 174.804 411.928 175.589 411.855C176.549 411.767 177.701 411.237 179.043 410.266L177.939 435.086C177.915 435.806 177.66 436.43 177.174 436.958C176.139 438.067 175.555 439.238 175.421 440.47C174.786 445.784 173.815 450.358 172.508 454.192C172.255 454.895 171.775 455.127 171.07 454.888C169.324 454.269 168.063 453.049 167.286 451.23C165.487 446.995 164.556 442.845 164.493 438.781C164.142 415.769 164.311 390.686 165.001 363.532C165.014 362.768 164.642 362.423 163.885 362.497C163.689 362.518 163.492 362.538 163.294 362.559L163.29 362.56C158.78 363.035 153.688 363.571 150.062 360.379C149.506 359.89 149.241 359.271 149.267 358.522C149.321 355.819 150.395 353.893 151.462 351.981C151.847 351.29 152.231 350.601 152.566 349.878C157.162 339.987 161.936 331.336 166.885 323.926C168.476 321.543 170.694 320.253 173.54 320.057C174.238 319.997 174.93 320.211 175.468 320.654C175.769 320.898 176.05 321.128 176.317 321.348C178.269 322.95 179.501 323.961 182.454 325.283C189.148 328.266 195.153 356.034 196.424 364.123C196.93 367.281 195.59 368.714 192.404 368.423C190.581 368.261 188.757 368.105 186.933 367.957C183.762 367.667 181.886 365.955 181.307 362.82C180.38 357.725 179.449 354.066 178.513 351.845C178.207 351.1 177.938 351.117 177.708 351.895C177.029 354.258 176.931 356.779 177.414 359.458ZM202.422 87.1123C202.979 101.788 202.572 122.91 201.202 150.476C201.158 151.47 200.763 151.636 200.017 150.974C199.134 150.202 198.346 149.328 197.652 148.352C194.743 144.281 189.329 141.263 185.048 139.952C180.865 138.677 179.983 139.862 182.404 143.507C182.961 144.352 184.041 145.361 185.181 146.426L185.181 146.426C186.313 147.484 187.505 148.598 188.302 149.661C189.145 150.769 190.011 151.94 190.902 153.142L190.906 153.149L190.907 153.15C195.676 159.593 201.119 166.947 207.107 170.434C219.658 177.791 231.591 171.384 235.905 157.765C236.655 155.422 235.797 153.813 233.333 152.939C232.643 152.701 232.303 152.213 232.313 151.477L232.316 148.184C232.313 147.446 231.975 146.923 231.304 146.614C229.124 145.616 227.401 146.357 226.135 148.836C223.184 154.615 219.042 159.867 213.712 164.591C213.323 164.926 212.826 165.108 212.315 165.103C211.804 165.097 211.315 164.904 210.94 164.561C209.141 162.898 207.664 161.359 206.511 159.945C204.403 157.364 204.975 156.452 208.228 157.211C208.341 157.248 208.792 157.599 209.581 158.263C210.125 158.737 210.624 159.011 211.081 159.088C211.951 159.239 212.634 159 213.128 158.372C213.637 157.73 213.826 156.92 213.695 155.943C213.451 154.148 213.333 152.413 213.34 150.737C213.405 141.568 213.882 130.139 214.769 116.45C215.322 108.125 215.351 98.9531 214.857 88.9337C214.334 78.132 214.231 68.9939 214.548 61.5189C215.181 47.1611 215.127 38.1345 214.387 34.4395C213.482 29.8367 211.757 25.174 209.214 20.4511C208.98 20.0147 208.636 19.6468 208.216 19.3836C207.797 19.1204 207.316 18.9711 206.821 18.9501C206.326 18.9292 205.834 19.0373 205.394 19.2641C204.954 19.4908 204.58 19.8283 204.31 20.2433C202.471 23.0558 201.545 26.5276 201.531 30.6586C201.459 50.1718 201.756 68.9898 202.422 87.1123ZM212.924 354.845C212.582 351.034 212.202 347.25 211.784 343.492C211.738 343.142 211.541 342.969 211.194 342.972L211.172 342.971C210.81 342.987 210.623 343.176 210.611 343.536C210.391 348.504 210.452 353.486 210.794 358.481L215.29 401.221C215.34 401.699 215.213 402.179 214.933 402.573C214.654 402.967 214.239 403.248 213.768 403.363C212.488 403.674 211.333 403.272 210.302 402.156C210.043 401.877 209.846 401.545 209.723 401.181C209.6 400.818 209.555 400.43 209.59 400.045C209.948 396.546 210.001 393.155 209.75 389.871C209.546 387.249 209.354 384.631 209.162 382.015C208.337 370.783 207.516 359.587 205.696 348.204C203.307 333.09 201.171 317.886 199.286 302.593C199.258 302.346 199.159 302.112 199.002 301.92C198.844 301.728 198.635 301.585 198.398 301.508C198.162 301.431 197.908 301.424 197.668 301.488C197.428 301.551 197.211 301.682 197.043 301.865L189.544 309.854C188.964 310.476 188.425 310.444 187.926 309.757L186.608 307.927C186.163 307.302 185.577 307.114 184.851 307.365C182.359 308.237 180.48 307.658 179.213 305.629C178.826 304.994 178.87 304.391 179.346 303.819C185.881 296.063 192.226 288.235 198.382 280.335C200.941 277.055 207.336 269.939 212.647 273.753C214.583 275.137 216.681 276.078 218.942 276.576C219.687 276.743 220.345 277.151 220.808 277.731C223.446 280.959 225.103 284.078 225.778 287.089C227.729 295.756 229.691 303.969 231.666 311.727C232.139 313.553 231.436 314.362 229.559 314.152L222.639 313.363C221.614 313.242 220.648 312.822 219.86 312.156C219.073 311.489 218.499 310.605 218.211 309.614L211.832 287.541C211.233 285.46 210.84 285.496 210.654 287.649C210.47 289.76 210.572 291.92 210.959 294.13C212.582 303.322 213.569 312.431 213.919 321.457C214.023 324.023 214.403 326.691 214.795 329.445L214.795 329.445L214.795 329.445L214.795 329.446L214.795 329.446L214.795 329.446C215.13 331.801 215.475 334.219 215.663 336.69C216.83 352.307 218.865 374.018 221.769 401.826C221.913 403.209 221.325 404.134 220.005 404.6C219.338 404.826 218.64 404.696 217.91 404.209C217.669 404.05 217.471 403.833 217.334 403.577C217.198 403.321 217.127 403.034 217.129 402.743C217.138 401.872 217.15 401.005 217.163 400.139L217.163 400.138L217.163 400.136L217.163 400.135L217.163 400.133C217.231 395.553 217.298 391.025 216.746 386.375C215.5 375.78 214.226 365.27 212.924 354.845ZM276.226 100.229L263.634 114.129C263.492 114.292 263.465 114.276 263.551 114.08C271.758 96.3331 281.003 73.7791 291.286 46.418C294.212 38.6285 295.952 31.6479 296.505 25.4761C296.573 24.7442 296.305 24.1611 295.701 23.7267C295.014 23.243 294.267 23.1015 293.457 23.3022C293.093 23.3907 292.753 23.5627 292.465 23.8046C292.177 24.0465 291.947 24.3518 291.795 24.6973C281.46 48.6161 270.974 72.4228 260.338 96.1174C257.681 102.019 254.312 108.455 250.233 115.423C249.573 116.545 249.175 116.458 249.039 115.162C248.786 112.702 248.687 110.202 248.743 107.663C248.846 103.496 248.417 100.777 247.456 99.5075C243.658 94.5482 241.743 95.3471 241.711 101.904C241.631 114.424 242.453 127.06 244.177 139.814C244.733 143.857 247.147 146.995 251.418 149.23C252.058 149.566 252.689 149.533 253.311 149.13C255.01 148.027 256.429 146.599 257.569 144.848C261.104 139.386 264.494 133.841 267.738 128.213C270.833 122.849 273.657 118.613 276.211 115.506C279.162 111.908 281.8 108.533 284.126 105.381C284.497 104.876 284.757 104.296 284.888 103.679C285.019 103.061 285.019 102.419 284.887 101.796C284.595 100.46 284.018 99.5575 283.157 99.0899C280.533 97.6406 278.222 98.0203 276.226 100.229ZM262.708 270.485L263.956 277.706C264.101 278.497 263.825 279.105 263.129 279.531L258.569 282.318C257.965 282.678 257.329 282.776 256.662 282.611C253.821 281.955 251.897 280.601 250.892 278.548C246.028 268.627 242.842 257.291 241.335 244.539C240.853 240.472 242.569 236.871 247.366 238.544C247.756 238.68 248.141 238.812 248.523 238.944C252.712 240.386 256.427 241.665 260.199 244.404C272.076 253.062 284.427 261.162 297.253 268.704C297.576 268.894 297.836 269.175 297.999 269.513C298.163 269.85 298.223 270.228 298.173 270.599C298.123 270.97 297.964 271.319 297.716 271.6C297.469 271.881 297.143 272.083 296.781 272.18C292.246 273.35 288.028 273.041 284.128 271.253C280.256 269.481 279.954 269.965 283.22 272.703C292.608 280.63 301.66 290.373 310.377 301.934C311.648 303.612 312.665 305.48 313.661 307.309L313.661 307.309C314.586 309.008 315.492 310.672 316.566 312.118C322.946 320.676 329.171 329.375 335.241 338.214C336.848 340.528 336.258 341.878 333.47 342.266L332.266 342.438C330.897 342.628 329.501 342.45 328.219 341.922C326.937 341.394 325.815 340.535 324.966 339.433C319.744 332.621 314.58 325.907 309.474 319.292C295.292 300.887 279.96 284.47 263.478 270.043C262.826 269.475 262.569 269.622 262.708 270.485ZM305.568 182.453C301.438 183.609 297.269 185.102 293.06 186.932C291.733 187.5 291.577 187.264 292.592 186.226C299.369 179.311 303.986 173.083 306.444 167.542C311.233 156.797 316.403 146.081 321.954 135.392C322.644 134.07 322.807 131.554 322.443 127.843C322.386 127.232 322.57 126.703 322.992 126.258C323.056 126.191 323.121 126.125 323.186 126.06C323.255 125.991 323.323 125.923 323.392 125.856C323.84 125.413 324.289 124.969 324.579 124.423C327.482 118.915 330.501 112.216 333.636 104.326C333.827 103.847 333.912 103.331 333.887 102.815C333.861 102.299 333.725 101.795 333.488 101.334C333.251 100.874 332.919 100.469 332.512 100.146C332.106 99.8229 331.636 99.5898 331.132 99.4618L330.407 99.3002C326.675 98.3766 323.863 99.5937 321.97 102.951C311.203 122.114 300.864 141.164 290.953 160.1C287.002 167.685 281.805 174.52 275.363 180.607C273.763 182.137 273.102 181.8 273.379 179.595C274.107 174.101 272.284 160.531 264.545 159.379C263.831 159.269 263.222 159.484 262.72 160.025C261.138 161.701 260.168 163.703 259.81 166.032C258.185 176.575 256.767 187.155 255.555 197.772C255.292 200.163 254.639 202.368 253.97 204.627L253.97 204.628C253.646 205.719 253.319 206.823 253.031 207.967C252.829 208.747 253.117 209.259 253.894 209.504L265.552 213.067C266.286 213.294 266.979 213.2 267.631 212.786C275.872 207.582 282.07 204.222 286.226 202.706C288.806 201.764 291.401 200.887 293.945 200.027L293.946 200.027C303.633 196.752 312.571 193.731 317.034 188.342C317.494 187.784 317.537 187.195 317.163 186.575C314.656 182.346 310.791 180.972 305.568 182.453ZM266.515 323.234C272.246 329.808 277.282 336.592 281.624 343.585C284.673 348.504 288.47 356.035 293.014 366.178C296.928 374.873 301.089 383.449 305.497 391.906C307.623 395.995 308.729 400.181 309.849 404.42L309.849 404.42C310.05 405.179 310.251 405.94 310.458 406.703C310.983 408.619 310.474 408.958 308.932 407.718C304.773 404.35 301.243 399.967 298.345 394.568C288.188 375.648 277.67 357.223 266.79 339.291C265.463 337.098 264.872 337.279 265.017 339.833C265.162 342.588 266.039 346.098 267.648 350.363C269.036 354.091 267.839 355.339 264.057 354.109L257.137 351.846C253.242 350.578 251.04 347.91 250.529 343.842C249.447 335.34 248.344 326.142 247.219 316.25C246.898 313.337 246.866 310.821 247.123 308.702C247.22 307.864 247.508 307.059 247.965 306.349C248.421 305.64 249.034 305.044 249.756 304.607C250.478 304.171 251.291 303.906 252.131 303.831C252.972 303.757 253.818 303.876 254.605 304.179C268.685 309.588 279.452 319.111 290.415 329.493C290.579 329.649 290.7 329.844 290.768 330.059C290.836 330.275 290.849 330.504 290.804 330.726C290.76 330.948 290.66 331.154 290.515 331.327C290.369 331.5 290.181 331.633 289.97 331.714C288.855 332.152 287.549 332.028 286.054 331.341C279.568 328.366 273.63 325.019 268.239 321.301C262.503 317.356 261.929 318 266.515 323.234ZM296.393 240.818C294.842 239.708 295.017 239.193 296.918 239.275C307.876 239.774 319.068 240.623 330.495 241.822C336.46 242.447 343.217 243.585 350.767 245.236C357.535 246.729 364.323 248.137 371.132 249.459C371.887 249.616 372.335 249.309 372.478 248.539C372.545 248.227 372.518 247.899 372.399 247.558C372.205 247.053 371.743 246.644 371.015 246.33C359.854 241.51 348.307 237.912 336.374 235.535C325.351 233.354 314.369 231.517 303.426 230.021C302.71 229.925 302.65 229.668 303.244 229.249L316.65 220.198C318.687 218.816 318.808 217.272 317.011 215.565C314.997 213.67 312.664 212.877 310.012 213.188C305.825 213.696 299.535 217.33 294.426 220.282C292.332 221.492 290.435 222.587 288.965 223.305C284.38 225.541 279.702 227.762 274.932 229.97C274.732 230.064 274.555 230.2 274.415 230.37C274.274 230.54 274.174 230.739 274.121 230.952C274.068 231.164 274.064 231.385 274.108 231.599C274.153 231.812 274.246 232.012 274.38 232.183C277.477 236.253 281.3 239.864 285.852 243.015C291.862 247.154 297.84 251.333 303.787 255.554C306.232 257.28 309.107 258.263 312.412 258.506C313.122 258.559 313.829 258.353 314.401 257.926C314.974 257.498 315.375 256.877 315.53 256.177C315.674 255.595 315.343 254.993 314.536 254.37C308.355 249.598 302.308 245.08 296.393 240.818Z" fill="#F5E48E"/>
</svg>
