<svg width="137" height="149" viewBox="0 0 137 149" fill="none" xmlns="http://www.w3.org/2000/svg">
<path fill-rule="evenodd" clip-rule="evenodd" d="M98.8517 78.7005C99.3232 80.2228 99.7644 80.2127 100.175 78.6702C104.21 63.3935 108.703 48.5917 113.654 34.2647C114.421 32.0554 115.391 30.0818 116.563 28.344C118.746 25.1209 123.717 25.3129 125.293 29.0007C125.805 30.2132 126.152 31.5098 126.334 32.8906C130.591 65.7881 134.11 96.6884 136.892 125.591C137.084 127.542 135.316 128.946 133.467 128.986C131.647 129.02 129.93 129.3 128.21 129.58C126.339 129.884 124.465 130.189 122.454 130.179C116.789 130.152 111.616 129.731 106.935 128.916C90.0144 125.952 73.1279 123.103 56.275 120.368C41.0589 117.896 27.0822 114.629 14.3449 110.567C7.94931 108.526 3.27132 105.293 4.57469 97.3721C5.96225 88.9389 7.2252 80.9267 8.36354 73.3355C10.8288 56.8868 10.9097 40.6502 10.8187 24.1207C10.7884 17.9474 10.7985 9.13699 14.1529 3.46885C17.3962 -2.00732 23.6403 -0.451371 26.4693 4.32765C29.9449 10.181 32.9221 16.0917 35.4009 22.0595C40.9107 35.3155 46.04 47.8171 50.7887 59.5642C51.8395 62.1508 52.3986 62.0497 52.4659 59.2611C52.7488 47.9653 53.2506 36.8984 53.9714 26.0606C54.1667 23.1238 54.5978 19.8805 55.2646 16.3308C57.0328 6.90408 65.4491 3.41833 70.9657 12.7945C74.7512 19.2272 78.0248 25.4678 80.7864 31.5166C87.832 46.9549 93.8538 62.6829 98.8517 78.7005ZM37.9975 53.5324C34.4343 44.7355 30.046 34.3422 24.8325 22.3525C24.4822 21.5577 24.1017 20.8303 23.6908 20.1702C22.896 18.9106 22.4985 19.0251 22.4985 20.5137C22.4953 23.9944 22.5547 27.4997 22.6142 31.013C22.7414 38.524 22.8693 46.0713 22.3874 53.492C21.4309 68.3106 19.0835 83.099 15.3452 97.857C15.2533 98.2188 15.3041 98.6017 15.4868 98.9257C15.6694 99.2496 15.9699 99.4894 16.3252 99.5948C30.1133 103.758 44.1877 106.893 58.5483 109.001C77.2266 111.743 96.2147 114.643 115.513 117.701C119.52 118.334 123.484 119.179 127.405 120.237C127.903 120.371 128.129 120.179 128.082 119.661C125.906 95.4591 123.134 72.3992 119.766 50.4811C119.726 50.2251 119.655 49.9961 119.554 49.794C119.197 49.0935 118.921 49.1238 118.726 49.885C114.772 65.1549 110.915 79.7311 107.157 93.6135C106.685 95.3446 106.096 97.0689 105.389 98.7866C103.59 103.131 98.2657 104.263 95.0932 100.585C93.874 99.1705 92.9714 97.3586 92.3854 95.1492C86.8217 73.9451 78.9038 52.202 68.6318 29.9202C68.0121 28.573 67.2981 27.273 66.4898 26.0202C65.7219 24.8212 65.3211 24.9357 65.2875 26.3637C64.9305 44.9207 63.8224 65.4749 61.9633 88.0262C61.6198 92.0879 58.4978 95.715 54.2038 94.2399C52.1763 93.5529 50.8696 92.1417 50.2835 90.0065C46.8012 77.3433 42.7058 65.1852 37.9975 53.5324ZM77.0244 132.015C86.4612 133.949 95.0493 136.4 102.789 139.371C104.358 139.977 105.517 140.725 106.264 141.614C108.507 144.291 106.78 147.646 103.688 148.212C102.523 148.434 101.337 148.478 100.131 148.343C95.2345 147.797 90.9236 147.137 87.1988 146.363C60.3298 140.779 32.5179 134.696 3.76294 128.115C3.42842 128.035 3.11105 127.902 2.82332 127.721C0.526413 126.273 -0.369446 125.044 0.135742 124.033C1.0518 122.181 2.61786 121.326 4.83392 121.467C17.9417 122.336 28.7762 123.424 37.3373 124.731C48.1954 126.388 61.4244 128.816 77.0244 132.015Z" fill="#F3B5C0"/>
</svg>
