<svg width="197" height="76" viewBox="0 0 197 76" fill="none" xmlns="http://www.w3.org/2000/svg">
<path d="M177.643 55.3254C145.237 72.9491 106.879 73.1713 70.9389 73.1324C59.0098 72.1274 47.1729 70.4631 35.7148 67.5049C22.4916 64.091 6.20739 57.0264 1.6441 42.3651C-3.79414 24.8927 26.6886 14.3602 37.3277 10.459C65.8806 -0.0110283 100.232 -0.584972 130.014 2.96388C144.558 4.69697 159.229 7.8463 172.804 13.634C180.484 16.9083 189.934 21.2738 194.224 29.0926C201.02 41.4779 186.753 50.3708 177.643 55.3254Z" fill="white"/>
<path d="M63.9391 73.1262C101.849 73.1262 143.124 74.0987 177.643 55.3254C186.753 50.3708 201.02 41.4779 194.224 29.0926C189.934 21.2738 180.484 16.9083 172.804 13.634C159.229 7.8463 144.558 4.69697 130.014 2.96388C100.232 -0.584972 65.8806 -0.0110283 37.3277 10.459C26.6886 14.3602 -3.79414 24.8927 1.6441 42.3651C6.20739 57.0264 22.4916 64.091 35.7148 67.5049C60.9386 74.0171 87.9985 74.2588 113.836 75" stroke="white" stroke-width="1.5" stroke-linecap="round"/>
</svg>
