<svg width="51" height="50" viewBox="0 0 51 50" fill="none" xmlns="http://www.w3.org/2000/svg">
<path d="M13.2169 43.9663C1.84723 35.494 2.06861 25.9965 2.43978 17.1043C3.22053 14.1783 4.4374 11.2921 6.50825 8.53301C8.89811 5.34884 13.7371 1.5012 23.4985 0.749444C35.1317 -0.146452 41.8198 7.66757 44.3033 10.4006C50.9685 17.7355 51.0187 26.2504 48.3803 33.5286C47.0918 37.083 44.8634 40.6322 40.8968 43.8423C38.6528 45.6584 35.6685 47.8844 30.4449 48.7447C22.1705 50.1075 16.4133 46.3481 13.2169 43.9663Z" fill="#FFB7C2"/>
<path d="M2.51115 15.3723C2.14681 24.7531 1.10559 34.9414 13.2169 43.9663C16.4133 46.3481 22.1705 50.1075 30.4449 48.7447C35.6685 47.8844 38.6528 45.6584 40.8968 43.8423C44.8634 40.6322 47.0918 37.083 48.3803 33.5286C51.0187 26.2504 50.9685 17.7355 44.3033 10.4006C41.8198 7.66757 35.1317 -0.146452 23.4985 0.749444C13.7371 1.5012 8.89811 5.34884 6.50825 8.53301C1.94949 14.6069 1.52922 21.2966 0.789664 27.6709" stroke="black" stroke-linecap="round"/>
</svg>
