<svg width="89" height="50" viewBox="0 0 89 50" fill="none" xmlns="http://www.w3.org/2000/svg">
<path d="M83.1777 6.66885C84.009 5.85599 84.8237 5.30709 85.6218 5.02212C86.2584 6.20871 87.1563 7.07996 88.3154 7.63588L87.7382 9.53491C87.0446 10.9504 85.8879 12.2164 84.2679 13.3329C86.0114 14.7438 87.2038 16.2714 87.8451 17.9158C87.7454 19.35 88.1278 20.8496 88.9924 22.4146C89.0446 24.2552 88.8285 25.8669 88.3439 27.2497C88.0351 28.1139 87.6456 28.1513 87.1753 27.3618C86.3986 26.0584 85.9995 25.2455 84.5031 24.5308C83.515 24.0636 82.5411 23.4213 81.5815 22.6037C75.0779 18.2825 67.496 15.6384 58.8357 14.6714C58.4936 14.634 58.4034 14.7648 58.5649 15.0638C59.9996 17.7873 61.0542 20.9173 61.7288 24.4537C62.1064 26.4228 61.2157 28.3638 61.0162 30.361C60.9924 30.6086 60.8642 30.7791 60.6314 30.8725L60.1397 31.0757C59.9497 31.1552 59.8143 31.2906 59.7335 31.4822C58.6694 34.0095 57.3535 36.1421 55.7858 37.88C55.154 38.5854 55.2965 38.8026 56.2133 38.5317C60.0186 37.4198 63.7573 36.0323 67.4295 34.3692C70.0233 33.192 72.8594 32.288 75.5316 31.0828C75.7644 30.98 75.9591 31.036 76.1159 31.2509C76.2489 31.4378 76.4247 31.4962 76.6433 31.4261C77.0091 31.3093 77.2466 31.0594 77.3558 30.6763C77.4271 30.4334 77.3345 30.3306 77.0779 30.368C76.9354 30.3913 76.7905 30.4217 76.6433 30.4591C76.3915 30.5245 76.2988 30.4334 76.3653 30.1858C76.4794 29.7373 76.7525 29.4524 77.1848 29.3309C77.4128 29.2655 77.6314 29.2888 77.8404 29.401C78.4152 29.7186 78.933 29.6229 79.3938 29.1137C79.8736 28.5764 80.161 28.1864 80.256 27.9434L81.9306 25.4067C82.0542 25.2152 82.2275 25.0891 82.4508 25.0283C82.9686 24.8882 83.3012 25.0774 83.4485 25.5959C83.6527 26.3247 83.724 27.857 83.6622 30.1928L81.2893 34.7897L79.1872 36.8428C72.0542 42.5819 64.5649 46.6953 55.5079 48.5382C46.154 50.4443 36.774 50.4863 27.3678 48.6644C20.3464 46.9966 13.9616 43.9554 8.21344 39.5407C7.21107 38.7699 5.9973 37.289 4.57213 35.098C4.26809 34.6355 3.42011 33.6942 2.02819 32.274C0.132703 30.34 -0.793678 27.3688 0.852399 24.9232C1.68613 23.6829 4.87853 20.8519 7.05905 20.1932C8.49135 19.7588 9.93078 19.2192 10.6647 17.8527C10.7788 17.6425 10.9403 17.4837 11.1493 17.3762C11.6481 17.1146 12.4604 16.7339 13.5863 16.234C13.7336 16.1686 13.7978 16.0798 13.7788 15.9677C13.7502 15.7762 13.6362 15.6945 13.4367 15.7225C12.5199 15.8533 11.679 16.0915 10.9141 16.4372C10.1683 16.7736 9.65287 16.5634 9.36783 15.8066L7.58636 11.0275C7.21582 10.0418 7.53651 9.38074 8.54838 9.04438C10.3251 8.45576 11.9878 7.66859 13.5365 6.68288C13.7313 6.55675 13.9047 6.58243 14.0567 6.75995C14.5887 7.38595 15.1992 7.90218 15.888 8.30861C16.0971 8.43474 16.2562 8.60524 16.3654 8.82014L18.3393 12.6392C18.4937 12.9354 18.7593 13.161 19.0798 13.2683C19.4002 13.3755 19.7505 13.356 20.0566 13.2138L26.7336 10.0885L28.7716 9.59098C29.0139 9.53025 29.1137 9.38075 29.0709 9.14249L28.6647 6.84404C28.5792 5.61073 28.3179 4.38677 27.8808 3.17215C27.4747 2.05797 27.5673 1.11199 28.8144 0.78965C29.0388 0.730891 29.2773 0.755834 29.4842 0.859707C31.1421 1.67257 32.3369 2.99462 33.0685 4.82589C34.1588 6.12928 32.8618 7.15239 33.8595 8.36468C34.0115 8.54687 34.0281 8.74071 33.9094 8.94627C33.8428 9.05838 33.7573 9.15652 33.6528 9.24061C33.401 9.44149 33.4367 9.52322 33.7597 9.48585C35.5459 9.29431 37.1326 8.95327 38.5198 8.46275C39.4272 8.14508 40.363 7.96057 41.3274 7.90918C42.3963 7.85779 43.4081 7.64755 44.363 7.27849C44.9758 7.04491 45.4533 6.69454 45.7953 6.22738C45.9853 5.96577 46.2229 5.7439 46.5079 5.56171C46.7149 5.43049 46.8687 5.23212 46.9426 5.00108C47.2989 3.81449 47.4319 2.5812 47.3417 1.30118C47.2846 0.478973 47.6718 0.109903 48.5031 0.193992L50.6338 0.418235C51.096 0.467777 51.5215 0.688289 51.8234 1.03472C52.1254 1.38115 52.281 1.82735 52.2585 2.28219L52.1374 4.55264C52.1237 4.80057 52.2041 5.04487 52.3631 5.23879C52.5222 5.43272 52.7488 5.56266 52.9996 5.60375L57.8879 6.38858C58.1112 6.42595 58.2751 6.5404 58.3796 6.73194L58.4794 6.90712C58.6219 7.15939 58.8119 7.20377 59.0495 7.04026L60.1611 6.27644C60.3654 6.13162 60.5934 6.08259 60.8452 6.12931L64.7502 6.84404C65.021 6.89542 65.2181 6.79967 65.3416 6.55675L68.3416 0.663478C68.7216 -0.0793093 69.2489 -0.1984 69.9235 0.306135L73.9212 3.29126C74.4675 3.70237 74.5767 4.20458 74.2489 4.79788L72.7881 7.46069C72.7186 7.5875 72.6795 7.72824 72.6737 7.87218C72.6679 8.01613 72.6957 8.15948 72.7548 8.29129C72.8139 8.42309 72.9028 8.5399 73.0148 8.63276C73.1268 8.72563 73.2589 8.79211 73.4009 8.82715C73.9995 8.97664 74.6147 9.12849 75.2466 9.28265C76.7644 9.66105 77.8119 10.6771 79.3653 10.9434C79.6318 10.9895 79.9063 10.9575 80.1545 10.8517C80.4028 10.7458 80.614 10.5706 80.762 10.3478L83.1777 6.66885ZM63.837 7.90127C63.8748 7.81814 63.8391 7.70677 63.7377 7.59166C63.6364 7.47654 63.4777 7.36707 63.2965 7.28739C63.2068 7.24793 63.1143 7.21699 63.0243 7.19629C62.9342 7.17559 62.8485 7.16557 62.7718 7.16678C62.6951 7.16799 62.6291 7.18041 62.5775 7.20335C62.5259 7.22628 62.4896 7.25926 62.4709 7.30043C62.4331 7.38356 62.4688 7.49493 62.5702 7.61005C62.6715 7.72516 62.8302 7.83463 63.0114 7.91431C63.1011 7.95377 63.1936 7.98471 63.2836 8.00541C63.3737 8.02611 63.4594 8.03613 63.5361 8.03492C63.6128 8.03371 63.6788 8.02129 63.7304 7.99835C63.7821 7.97542 63.8183 7.94244 63.837 7.90127ZM27.7973 11.3266C27.786 11.2896 27.7428 11.2625 27.6703 11.2467C27.5977 11.2309 27.4972 11.2268 27.3745 11.2347C27.2519 11.2426 27.1093 11.2623 26.9552 11.2926C26.801 11.3229 26.6382 11.3633 26.4761 11.4114C26.1486 11.5087 25.8437 11.6316 25.6283 11.7532C25.413 11.8748 25.305 11.985 25.3279 12.0597C25.3392 12.0968 25.3824 12.1239 25.4549 12.1397C25.5275 12.1555 25.6279 12.1595 25.7506 12.1517C25.8733 12.1438 26.0158 12.1241 26.17 12.0938C26.3241 12.0635 26.4869 12.0231 26.6491 11.975C26.9765 11.8778 27.2815 11.7548 27.4968 11.6332C27.7121 11.5117 27.8202 11.4014 27.7973 11.3266ZM20.8476 14.0547C21.0994 13.9986 21.3346 13.8959 21.5531 13.7464C21.8286 13.5642 21.8001 13.4778 21.4676 13.4871C20.9165 13.5011 20.4106 13.6646 19.9498 13.9776C19.9082 14.005 19.8759 14.0441 19.8571 14.0897C19.8191 14.1925 19.831 14.2906 19.8928 14.384C19.9925 14.5382 20.1232 14.5733 20.2847 14.4892C20.3939 14.4378 20.4818 14.3607 20.5483 14.2579C20.6166 14.1547 20.7241 14.0817 20.8476 14.0547ZM27.4889 19.3733L23.4842 20.957C17.5032 23.4657 12.3179 26.7545 7.92839 30.8235C7.33457 31.3747 7.33223 31.9283 7.9213 32.4842C10.4296 34.8528 13.2372 36.3453 16.3441 36.962C19.8857 37.6627 23.3559 38.9451 26.9759 39.0502C27.2134 39.0549 27.3203 38.9404 27.2966 38.7068C27.1303 37.254 26.9379 35.8081 26.7194 34.3692C26.3868 32.1923 26.7574 29.7397 27.831 27.0114C28.4628 25.4044 29.7146 23.6666 31.5863 21.7979C32.1754 21.214 32.717 20.5272 33.211 19.7377C33.6813 18.9856 34.1469 18.2498 34.6077 17.5304C34.7549 17.2921 34.6956 17.2151 34.4295 17.2992L27.4889 19.3733ZM39.2486 34.5039C39.5422 34.7496 40.2335 34.5119 41.1704 33.843C42.1073 33.1741 43.213 32.1288 44.2444 30.9371C44.755 30.3471 45.2321 29.7388 45.6483 29.1471C46.0644 28.5554 46.4116 27.9918 46.6699 27.4885C46.9282 26.9852 47.0926 26.5521 47.1537 26.2139C47.2148 25.8757 47.1715 25.639 47.0261 25.5173C46.7325 25.2716 46.0412 25.5093 45.1043 26.1782C44.1675 26.8471 43.0617 27.8924 42.0303 29.0841C41.5197 29.6741 41.0427 30.2824 40.6265 30.8741C40.2103 31.4658 39.8631 32.0294 39.6048 32.5327C39.3465 33.036 39.1821 33.4691 39.121 33.8073C39.0599 34.1455 39.1032 34.3823 39.2486 34.5039Z" fill="#F794AB"/>
</svg>
