<svg width="547" height="132" viewBox="0 0 547 132" fill="none" xmlns="http://www.w3.org/2000/svg">
<path d="M77.6135 79.4386C68.0158 80.0964 58.2141 80.1191 48.2083 79.5069C45.7185 79.3463 43.6016 78.6704 41.8575 77.4793C37.2322 74.2897 32.4948 71.0993 27.6452 67.9081C23.6623 65.274 21.3127 61.9267 17.3691 59.3932C12.7108 56.3932 11.747 52.7458 11.531 48.5656C11.4102 46.4366 12.6825 45.0853 15.3479 44.5117C29.4195 41.434 44.966 39.144 61.9872 37.6418C142.597 30.5313 229.775 27.6103 314.144 25.1399C314.249 25.1364 314.349 25.1082 314.428 25.0594C314.508 25.0107 314.563 24.944 314.585 24.8691L314.756 24.2222C314.831 23.9529 314.682 23.8078 314.309 23.7871C268.731 20.6022 222.964 19.3322 177.008 19.9771C171.947 20.0452 166.886 19.982 161.824 19.7875C153.918 19.4947 137.352 19.146 139.355 9.77272C139.696 8.22728 140.029 6.67052 140.356 5.10244C140.53 4.27281 141.078 3.51893 141.914 2.95947C142.749 2.4 143.825 2.0667 144.972 2.01202C166.368 0.950487 190.55 0.629503 217.519 1.04907C286.362 2.11149 357.408 5.52839 430.819 12.8349C453.824 15.1122 476.22 18.3893 498.006 22.6664C498.718 22.8058 499.371 23.0844 499.895 23.4722C500.419 23.86 500.795 24.3423 500.981 24.8669C502.804 30.0064 502.297 35.0816 503.532 40.3031C504.478 44.2832 504.5 48.4525 503.599 52.8111C503.479 53.3514 503.14 53.7975 502.581 54.1493C497.628 57.2537 491.855 57.7362 485.784 59.1537C484.222 59.5262 484.266 59.8076 485.916 59.998C505.51 62.2821 524.552 65.0607 543.043 68.3336C545.34 68.7351 546.403 69.7898 546.233 71.4979C545.176 82.007 547.046 90.7428 543.061 102.254C541.35 107.18 535.506 109.742 528.975 110.15C516.047 110.961 501.808 111.541 486.257 111.889C485.343 111.914 484.771 112.249 484.54 112.892L483.686 115.339C483.557 115.693 483.296 116.01 482.929 116.256C482.563 116.502 482.107 116.667 481.611 116.733L478.423 117.146C477.459 117.268 477.152 117.666 477.504 118.342L479.627 122.53C479.91 123.082 479.68 123.458 478.936 123.657C471.951 125.488 464.9 125.812 457.784 124.628C456.658 124.434 456.396 124.704 456.999 125.438L460.613 129.856C460.74 130.012 460.806 130.19 460.803 130.368C460.8 130.547 460.728 130.72 460.595 130.867C460.463 131.013 460.276 131.128 460.054 131.198C459.833 131.268 459.587 131.291 459.345 131.262C429.197 128.007 398.834 126.064 368.256 125.433C328.831 124.614 287.6 123.974 244.563 123.513C234.29 123.411 223.197 123.504 211.286 123.792C199.839 124.073 188.519 124.099 177.324 123.869C129.188 122.839 81.2524 123.292 33.5189 125.227C32.7539 125.261 32.064 125.425 31.4491 125.719C30.7572 126.052 30.0115 126.279 29.2118 126.398C28.4873 126.511 27.8436 126.382 27.2807 126.012C25.5628 124.888 23.7772 124.039 21.9239 123.465C16.7165 121.862 11.4937 117.715 8.99015 114.31C6.45952 110.854 5.93523 107.105 7.41727 103.063C7.44779 102.976 7.4416 102.882 7.39948 102.795C7.35736 102.708 7.28123 102.632 7.1808 102.575C7.08038 102.518 6.96023 102.484 6.83569 102.477C6.71115 102.47 6.58787 102.49 6.48161 102.535C5.53128 102.942 4.73951 102.92 4.10628 102.469C3.47367 102.007 3.39629 101.516 3.87416 100.995C4.46495 100.328 4.73687 99.6101 4.6899 98.8417C4.63565 98.2042 4.18614 97.8127 3.34139 97.6671C1.41443 97.341 0.51421 96.5797 0.640716 95.3834C0.689052 94.7844 1.0374 94.306 1.68576 93.9483C7.37058 90.7424 13.4914 88.5727 20.0483 87.4393C38.7056 84.2341 57.8406 81.8542 77.4533 80.2994C77.7535 80.2834 77.8798 80.1646 77.8323 79.9431L77.7655 79.5292C77.7543 79.4629 77.7036 79.4327 77.6135 79.4386Z" fill="#633598"/>
</svg>
