<svg width="413" height="156" viewBox="0 0 413 156" fill="none" xmlns="http://www.w3.org/2000/svg">
<path d="M354.233 98.2436C361.488 99.3186 368.886 99.6416 376.429 99.2126C378.305 99.0959 379.893 98.3528 381.191 96.983C384.632 93.3137 388.158 89.647 391.768 85.9827C394.733 82.9573 396.455 79.0312 399.392 76.1248C402.861 72.683 403.531 68.3565 403.629 63.3714C403.687 60.8326 402.706 59.1806 400.685 58.4153C390.016 54.3153 378.246 51.1115 365.375 48.804C304.422 37.8802 238.577 31.7609 174.858 26.2646C174.779 26.2573 174.703 26.2206 174.643 26.16C174.582 26.0994 174.539 26.018 174.521 25.9279L174.382 25.1503C174.321 24.8264 174.431 24.6577 174.713 24.6442C209.064 22.2166 243.588 22.0813 278.284 24.2384C282.106 24.4725 285.925 24.5498 289.742 24.4703C295.705 24.3592 308.203 24.4429 306.545 13.1894C306.264 11.3337 305.988 9.46461 305.717 7.58224C305.572 6.58628 305.147 5.66951 304.507 4.97621C303.868 4.28291 303.051 3.85243 302.184 3.75253C286.019 1.83917 267.762 0.726018 247.413 0.41308C195.468 -0.396004 141.897 1.54 86.6028 8.04936C69.2746 10.0744 52.4219 13.3119 36.0447 17.7617C35.5099 17.9067 35.0213 18.2197 34.6317 18.667C34.2421 19.1143 33.9662 19.6788 33.8338 20.2997C32.5378 26.3819 32.9998 32.4577 32.149 38.6556C31.4976 43.3799 31.546 48.358 32.2943 53.5899C32.3932 54.2387 32.656 54.7816 33.0829 55.2186C36.8701 59.0752 41.2346 59.8255 45.8393 61.7016C47.024 62.1935 46.995 62.5282 45.7525 62.7058C30.9995 64.842 16.6704 67.5852 2.76501 70.9354C1.03767 71.3455 0.251484 72.573 0.406452 74.6178C1.36815 87.199 0.09314 97.5743 3.28092 111.44C4.64912 117.374 9.09964 120.611 14.0358 121.294C23.8061 122.653 34.5626 123.775 46.3052 124.66C46.9955 124.718 47.4326 125.135 47.6166 125.91L48.2997 128.858C48.4022 129.284 48.6047 129.671 48.885 129.976C49.1652 130.281 49.5123 130.492 49.8878 130.585L52.3001 131.175C53.0299 131.349 53.2675 131.834 53.0128 132.631L51.4756 137.568C51.2702 138.218 51.45 138.673 52.0149 138.934C57.3154 141.332 62.642 141.931 67.9945 140.732C68.8416 140.534 69.0435 140.864 68.6002 141.722L65.9413 146.89C65.8477 147.072 65.8008 147.282 65.806 147.496C65.8111 147.709 65.868 147.917 65.9702 148.097C66.0724 148.276 66.2157 148.419 66.3837 148.509C66.5518 148.6 66.7377 148.634 66.9202 148.607C89.6242 145.63 112.511 144.226 135.581 144.395C165.325 144.608 196.436 145.088 228.911 145.836C236.664 146.024 245.038 146.47 254.033 147.173C262.677 147.855 271.222 148.227 279.667 148.29C315.984 148.513 352.171 150.5 388.229 154.252C388.807 154.316 389.331 154.532 389.799 154.902C390.327 155.321 390.893 155.614 391.499 155.781C392.047 155.937 392.531 155.803 392.95 155.377C394.229 154.087 395.564 153.127 396.954 152.498C400.859 150.741 404.736 145.946 406.573 141.956C408.429 137.905 408.766 133.444 407.584 128.573C407.56 128.468 407.563 128.356 407.594 128.254C407.624 128.151 407.68 128.062 407.755 127.997C407.83 127.933 407.92 127.896 408.014 127.891C408.108 127.886 408.202 127.914 408.282 127.971C409.006 128.485 409.603 128.483 410.074 127.963C410.545 127.431 410.595 126.846 410.226 126.211C409.77 125.396 409.554 124.531 409.577 123.614C409.608 122.855 409.941 122.401 410.577 122.253C412.026 121.921 412.694 121.039 412.579 119.607C412.534 118.89 412.263 118.308 411.768 117.862C407.427 113.862 402.774 111.086 397.807 109.535C383.675 105.144 369.195 101.725 354.368 99.2763C354.141 99.2481 354.044 99.1024 354.076 98.8394L354.12 98.3471C354.127 98.2683 354.165 98.2338 354.233 98.2436Z" fill="#FED0D8"/>
</svg>
