<svg width="405" height="317" viewBox="0 0 405 317" fill="none" xmlns="http://www.w3.org/2000/svg">
<path d="M350.693 187.412C350.761 187.104 350.979 186.868 351.347 186.704C351.245 185.48 351.528 184.444 352.196 183.596C352.435 183.302 352.384 183.073 352.043 182.909C351.845 182.806 351.583 182.762 351.255 182.775L350.918 182.498C350.665 182.3 350.699 182.191 351.02 182.17C351.327 182.156 351.501 182.037 351.542 181.811C351.999 181.818 352.37 181.685 352.657 181.411C352.909 181.179 352.974 180.898 352.851 180.57C350.785 175.041 351.716 171.051 352.115 165.594C352.231 163.898 352.469 162.189 352.831 160.466C353.458 157.443 353.891 154.417 354.13 151.388C354.798 149.644 355.174 147.842 355.255 145.982C356.428 140.252 357.452 134.419 358.325 128.483C358.666 126.152 359.034 123.837 359.429 121.539C360.309 116.39 360.279 111.231 361.312 106.307C362.383 101.192 363.378 95.9813 364.299 90.6749C364.504 89.4851 364.125 88.6029 363.532 87.6387C363.341 87.3242 363.344 87.013 363.542 86.7053C363.617 86.5822 363.719 86.5446 363.849 86.5925C364.258 86.7566 364.497 86.6233 364.565 86.1925C365.025 83.3204 365.711 80.5202 366.008 77.5866C366.56 72.181 367.368 66.7241 367.685 61.2672C367.849 58.2618 368.504 55.4 368.719 52.3639C369.223 45.2521 369.854 37.8703 370.611 30.2183C371.061 25.7188 371.464 22.8228 371.818 21.5304C373.251 16.265 375.058 12.5655 377.241 10.432C379.382 8.33264 382.942 5.83327 387.921 2.93387C388.181 2.78721 388.478 2.72619 388.77 2.7595C390.066 2.93729 391.26 3.38519 392.351 4.10321C392.815 4.41776 392.975 4.30152 392.832 3.75446C392.525 2.56461 391.918 1.51495 391.011 0.605466C390.996 0.592584 390.985 0.576674 390.977 0.558708C390.969 0.540741 390.965 0.52109 390.965 0.500946C390.965 0.480803 390.969 0.460587 390.977 0.441526C390.985 0.422464 390.996 0.404959 391.011 0.390064L391.348 0.0823414C391.471 -0.0339081 391.591 -0.0270655 391.707 0.10286C392.477 1.01234 393.371 1.91156 394.387 2.80053C395.287 3.58692 396.147 3.59718 396.965 2.8313C397.231 2.57829 397.545 2.49965 397.906 2.59539L400.28 3.20056C400.634 3.28946 400.791 3.51854 400.75 3.8878C400.648 4.83147 401.507 5.92559 403.328 7.17015C404.556 8.01808 404.457 8.22323 403.032 7.78558C401.572 7.34794 400.382 6.42136 399.461 5.00585C398.861 4.07586 398.026 3.75104 396.955 4.0314C396.845 4.06201 396.747 4.12467 396.673 4.21139C396.599 4.29811 396.552 4.40495 396.539 4.5183C396.526 4.63166 396.547 4.74637 396.599 4.84782C396.651 4.94927 396.732 5.03286 396.832 5.08791C399.635 6.57864 401.558 8.57539 402.602 11.0782C402.625 11.1352 402.661 11.1861 402.708 11.2268C402.754 11.2675 402.809 11.297 402.868 11.3129C402.928 11.3287 402.99 11.3306 403.05 11.3184C403.111 11.3062 403.167 11.2801 403.216 11.2423C403.304 11.1671 403.403 11.1295 403.512 11.1295C403.847 11.109 404.021 11.2662 404.034 11.6013C404.3 17.2018 405.405 22.5048 404.842 28.1361C404.317 33.4767 403.519 38.2053 402.448 42.3219C401.221 47.0745 400.119 52.1279 399.144 57.4822C397.221 68.0678 395.233 79.3064 393.18 91.198C392.75 93.67 392.556 96.3574 391.973 98.7987C390.049 106.772 388.586 114.68 387.584 122.524C386.772 128.836 385.858 134.645 384.842 139.951C383.764 145.545 382.789 151.35 381.916 157.368C381.541 159.973 381.091 162.438 380.566 164.763C380.04 167.061 379.549 169.301 379.092 171.482C378.997 171.954 378.946 172.463 378.939 173.01C378.932 173.393 378.86 173.78 378.724 174.169C377.421 177.883 376.323 181.705 375.43 185.637C375.368 185.89 375.409 186.126 375.553 186.345C375.634 186.475 375.658 186.612 375.624 186.755C375.583 186.94 375.495 187.097 375.358 187.227C374.669 187.849 374.168 188.56 373.854 189.36C373.711 189.716 373.479 189.996 373.159 190.202C371.801 191.077 371.358 192.503 371.829 194.479C372.197 196.017 371.593 196.701 370.018 196.53C368.797 196.394 367.706 196.653 366.744 197.31C366.403 197.542 366.042 197.58 365.66 197.423C365.107 197.197 364.555 197.129 364.002 197.218C363.484 197.306 363.106 197.118 362.867 196.653C362.649 196.243 362.348 195.918 361.967 195.679C361.653 195.474 361.349 195.491 361.056 195.73L359.358 197.105C359.296 197.159 359.242 197.156 359.194 197.094L358.938 196.807C358.897 196.753 358.894 196.698 358.928 196.643C359.419 195.973 359.429 195.231 358.959 194.417C358.761 194.075 358.492 194.004 358.151 194.202C358.048 194.27 357.963 194.352 357.895 194.448C357.67 194.763 357.363 194.855 356.974 194.725C356.865 194.684 356.81 194.599 356.81 194.469C356.804 194.346 356.841 194.236 356.923 194.14C357.55 193.429 357.629 192.561 357.158 191.535C357.145 191.501 357.121 191.477 357.087 191.463L356.503 191.217C356.162 191.067 356.029 191.176 356.105 191.545C356.336 192.633 356.217 193.539 355.746 194.263C355.521 194.605 355.252 194.65 354.938 194.397L354.468 194.017C354.256 193.846 354.212 193.638 354.335 193.392C354.546 192.968 354.601 192.506 354.498 192.007C354.41 191.61 354.171 191.473 353.782 191.597C353.543 191.679 353.393 191.843 353.332 192.089C353.23 192.513 352.984 192.786 352.595 192.909C352.118 193.06 351.985 192.909 352.196 192.458L353.588 189.494C353.642 189.384 353.629 189.282 353.547 189.186C353.486 189.118 353.397 189.084 353.281 189.084C353.233 189.09 353.192 189.107 353.158 189.135L351.89 190.161C351.617 190.379 351.47 190.663 351.45 191.012C351.429 191.367 351.259 191.648 350.938 191.853C350.679 192.017 350.539 191.949 350.519 191.648C350.491 191.333 350.587 191.087 350.805 190.909C351.126 190.643 351.136 190.362 350.836 190.068C350.768 190 350.682 189.955 350.58 189.935C350.287 189.887 350.048 189.979 349.864 190.212C349.728 190.376 349.571 190.506 349.393 190.602C348.807 190.909 348.612 190.745 348.81 190.109C349.069 189.295 349.663 188.936 350.59 189.032C351.034 189.08 351.184 188.889 351.04 188.458L350.693 187.412ZM352.79 184.683C352.735 185.059 352.879 185.329 353.22 185.493C353.313 185.541 353.418 185.559 353.522 185.547C353.626 185.534 353.723 185.491 353.803 185.424C353.883 185.356 353.941 185.266 353.97 185.165C353.999 185.065 353.998 184.958 353.966 184.858C353.891 184.632 353.745 184.454 353.526 184.324C353.104 184.064 352.858 184.184 352.79 184.683ZM363.43 195.648C363.968 195.477 364.098 195.135 363.818 194.622C363.786 194.564 363.742 194.514 363.689 194.474C363.636 194.434 363.575 194.406 363.51 194.392C363.445 194.377 363.378 194.376 363.313 194.39C363.248 194.403 363.187 194.43 363.133 194.469C362.867 194.66 362.775 194.94 362.857 195.31C362.869 195.371 362.895 195.429 362.931 195.48C362.968 195.531 363.015 195.574 363.069 195.606C363.122 195.638 363.182 195.658 363.245 195.665C363.307 195.672 363.37 195.667 363.43 195.648Z" fill="#D9DEFF"/>
<path d="M175.598 19.2945C176.58 20.1151 177.563 20.4946 178.545 20.4331C183.865 24.03 187.043 26.5191 188.079 27.9004C190.814 31.5315 193.021 35.6002 194.699 40.1066C196.561 45.1122 196.11 50.2511 195.803 55.39C195.783 55.8003 195.814 56.2208 195.896 56.6516C195.964 57.0072 195.892 57.332 195.681 57.6261C194.978 58.5903 195.033 59.4963 195.844 60.3443C196.117 60.6315 196.063 60.8298 195.681 60.9392C195.572 60.9665 195.469 60.9631 195.374 60.9289C195.149 60.84 195.067 60.9153 195.128 61.1546C195.449 62.4333 195.36 63.736 194.862 65.0626C194.658 65.6165 194.453 65.6131 194.248 65.0524C194.208 64.9361 194.129 64.8472 194.013 64.7857C193.877 64.7173 193.809 64.7583 193.809 64.9088V70.5195C193.809 70.8204 193.901 71.0905 194.085 71.3298C194.508 71.8701 194.371 72.4376 193.676 73.0326C192.741 73.8463 191.855 74.6566 191.016 75.4635C190.784 76.7013 190.753 77.9458 190.924 79.1972C190.712 79.2998 190.548 79.4229 190.432 79.5665C190.201 79.8605 190.238 80.1169 190.545 80.3358L191.159 80.7768C191.193 81.4538 191.005 81.9256 190.596 82.1923C190.269 82.2334 190.054 82.3428 189.952 82.5206C189.849 82.7052 189.853 82.8967 189.962 83.095C190.412 83.895 190.828 84.637 191.21 85.3208C191.374 85.6217 191.336 85.8918 191.097 86.1311L189.952 87.2902C189.488 87.7552 189.577 87.9262 190.218 87.8031C190.477 87.7552 190.739 87.7142 191.005 87.68C191.449 87.6048 191.568 87.7689 191.363 88.1723L189.348 92.0496C189.212 92.3026 189.205 92.5556 189.328 92.8087C189.369 92.9044 189.426 92.9796 189.502 93.0343C189.836 93.2531 189.805 93.3694 189.409 93.3831C188.721 93.4104 188.352 93.7694 188.305 94.4601C188.29 94.6327 188.345 94.8039 188.456 94.9365C188.567 95.069 188.726 95.1522 188.898 95.1678C189.232 95.202 189.484 95.3696 189.655 95.6704C189.764 95.8619 189.764 96.0671 189.655 96.2859C189.519 96.5457 189.331 96.5936 189.092 96.4295C188.963 96.3474 188.864 96.238 188.796 96.1013C188.536 95.561 188.339 95.5815 188.202 96.1628C187.766 98.0365 187.397 99.9443 187.097 101.886C187.009 102.454 187.203 102.577 187.68 102.256C187.858 102.139 188.049 102.057 188.253 102.009C188.867 101.873 188.987 102.057 188.611 102.563C188.195 103.117 187.663 103.48 187.015 103.651C186.79 103.705 186.637 103.839 186.555 104.051C186.344 104.598 186.378 105.141 186.657 105.682C186.883 106.119 187.142 106.14 187.435 105.743C187.783 105.264 188.206 104.923 188.704 104.717C189.242 104.499 189.324 104.611 188.949 105.056C188.233 105.897 187.929 106.724 188.039 107.538C188.086 107.887 187.936 108.061 187.588 108.061H186.77C186.628 108.058 186.488 108.101 186.372 108.183C186.256 108.266 186.169 108.383 186.124 108.519C186.08 108.654 186.08 108.8 186.124 108.936C186.168 109.071 186.255 109.189 186.371 109.272C186.835 109.607 187.316 110.096 187.813 110.738C187.859 110.794 187.888 110.861 187.898 110.932C187.908 111.003 187.898 111.075 187.869 111.141C187.841 111.207 187.794 111.263 187.736 111.304C187.677 111.346 187.609 111.37 187.537 111.374C187.128 111.402 186.732 111.402 186.351 111.374C185.771 111.333 185.651 111.549 185.992 112.021L186.596 112.841C186.663 112.931 186.748 113.006 186.845 113.062C186.942 113.118 187.049 113.153 187.161 113.166C187.272 113.178 187.384 113.168 187.491 113.135C187.598 113.102 187.698 113.047 187.783 112.975L188.376 112.451C188.71 112.171 188.802 112.236 188.652 112.646C188.407 113.303 187.94 113.621 187.251 113.6C186.876 113.593 186.569 113.734 186.33 114.021C185.778 114.691 185.566 115.436 185.696 116.257C185.728 116.445 185.797 116.625 185.899 116.785C186.001 116.945 186.134 117.083 186.289 117.19C186.685 117.464 186.818 117.823 186.688 118.267C186.177 120.052 185.955 122.039 186.023 124.227C186.044 124.699 186.153 124.719 186.351 124.288C186.541 123.892 186.702 123.492 186.831 123.088C186.995 122.616 187.336 122.558 187.854 122.914C188.386 123.495 188.547 124.165 188.335 124.924C188.015 125.321 187.571 125.523 187.005 125.529C186.535 125.529 186.368 125.755 186.504 126.206L187.005 127.848C187.142 128.285 187.183 128.733 187.128 129.191C186.821 131.776 187.036 134.235 187.773 136.566C187.791 136.619 187.795 136.676 187.784 136.73C187.774 136.785 187.748 136.834 187.711 136.874C186.818 137.9 186.501 138.724 186.76 139.346C187.06 140.064 187.561 140.173 188.264 139.674L188.601 140.105C187.844 140.905 187.452 141.558 187.425 142.064C187.35 143.487 187.841 143.716 188.898 142.751C189.471 142.232 189.989 141.647 190.453 140.997C190.673 140.696 190.975 140.465 191.323 140.331C192.08 140.037 192.612 139.486 192.918 138.679C194.085 137.038 194.6 135.301 194.463 133.469C195.773 131.978 196.707 130.279 197.266 128.371C196.85 128.09 196.472 127.998 196.131 128.094C196.008 128.128 195.913 128.101 195.844 128.012C195.824 127.984 195.81 127.95 195.803 127.909C195.769 127.574 195.916 127.454 196.243 127.55C196.387 127.584 196.53 127.591 196.673 127.571C197 127.523 197.249 127.359 197.42 127.078C197.952 126.244 198.235 125.335 198.269 124.35L198.709 123.037L200.09 119.601L204.653 112.462C204.681 112.418 204.698 112.368 204.701 112.316C204.705 112.264 204.695 112.211 204.673 112.164C204.632 112.075 204.588 111.983 204.54 111.887C204.431 111.675 204.421 111.46 204.51 111.241L207.088 105.076L208.285 102.42C208.96 101.531 209.396 100.594 209.594 99.6093C209.656 99.2742 209.816 98.9972 210.075 98.7784C210.941 98.0672 211.47 97.1475 211.661 96.0192C212.527 93.9951 213.867 92.2684 215.681 90.8392C216.029 90.5657 216.063 90.2546 215.784 89.9058C215.518 89.5844 215.173 89.4887 214.75 89.6186C213.782 89.9195 212.919 90.3948 212.162 91.0444C212.039 91.147 211.91 91.2324 211.773 91.3008C211.473 91.4376 211.282 91.441 211.2 91.3111C211.071 91.1128 211.095 90.9281 211.272 90.7572C211.893 90.1417 212.65 89.6699 213.543 89.3417C213.813 89.2396 214.054 89.0758 214.248 88.8637C214.442 88.6516 214.582 88.3971 214.658 88.1211C215.211 86.0696 216.476 84.9379 218.454 84.7259C219.797 84.5823 221.114 84.172 222.403 83.495C225.97 81.635 229.513 79.9118 233.032 78.3253C234.164 77.8125 234.533 76.9303 234.137 75.6789C233.891 74.9062 234.099 74.7489 234.761 75.2071C234.993 75.3644 235.123 75.5764 235.15 75.8431C235.18 76.1018 235.274 76.349 235.423 76.562C235.573 76.7749 235.773 76.9469 236.006 77.0622C236.239 77.1774 236.498 77.2323 236.757 77.2218C237.017 77.2114 237.27 77.1358 237.493 77.0021C239.014 76.0858 240.592 75.4772 242.229 75.1763C245.217 74.6224 247.631 73.0326 250.731 72.7454C252.378 72.5812 253.667 71.9761 255.345 71.8119C264.995 70.8888 274.622 71.1315 284.225 72.5402C288.515 73.1693 292.812 73.7882 297.116 74.3968C299.626 74.7524 302.095 75.2242 304.523 75.8123C306.964 76.4004 309.402 76.9919 311.837 77.5868C317.43 78.9408 321.87 81.7 325.157 85.8644C325.887 86.7944 326.614 87.6082 327.336 88.3057C328.046 88.9964 328.602 89.7588 329.004 90.5931C329.843 92.3368 330.597 94.272 331.265 96.3987C331.551 97.3082 331.524 98.1048 331.183 98.7887C330.283 100.628 329.161 102.444 327.817 104.235C327.21 105.343 326.44 106.201 325.505 106.81L320.277 110.143C319.971 110.342 319.63 110.431 319.254 110.41C317.761 110.349 316.199 110.441 314.569 110.687C313.198 110.892 312.206 110.318 310.876 111.272C310.645 111.436 310.364 111.514 310.08 111.493C309.797 111.473 309.529 111.355 309.321 111.159C308.386 110.284 307.302 109.826 306.067 109.785C305.59 109.771 305.433 109.99 305.597 110.441C305.631 110.544 305.597 110.636 305.494 110.718C305.358 110.827 305.211 110.844 305.055 110.769C304.584 110.55 304.182 110.263 303.847 109.908C303.37 109.415 303.309 109.463 303.663 110.051C303.725 110.154 303.711 110.256 303.622 110.359C303.554 110.455 303.465 110.482 303.356 110.441L302.139 110.041C301.764 109.918 301.44 110 301.167 110.287C300.969 110.499 300.727 110.602 300.441 110.595C300.038 110.588 299.98 110.444 300.267 110.164L301.177 109.272C301.211 109.235 301.234 109.188 301.242 109.138C301.25 109.089 301.244 109.037 301.223 108.991C301.202 108.945 301.168 108.907 301.125 108.88C301.083 108.853 301.033 108.839 300.983 108.841C299.278 108.909 297.692 108.728 296.226 108.297C293.371 107.446 292.819 109.897 291.796 111.774C291.578 112.171 291.243 112.417 290.793 112.513L289.883 112.698C289.521 112.773 289.419 112.646 289.576 112.318C290.087 111.217 290.766 110.26 291.612 109.446C292.778 108.338 292.573 107.935 290.998 108.236C290.016 108.42 289.037 108.437 288.062 108.287C285.924 107.948 283.796 108.523 281.586 108.687C281.218 108.714 281.05 108.547 281.085 108.184C281.091 108.075 281.122 107.979 281.177 107.897C281.381 107.61 281.31 107.494 280.962 107.548C278.943 107.863 276.945 107.743 274.967 107.189L272.573 106.984C271.809 107.012 270.667 106.95 269.146 106.8C268.211 106.704 267.011 106.806 265.544 107.107C262.823 108.407 260.218 109.21 257.728 109.518C257.081 109.347 256.34 109.415 255.508 109.723C255.215 109.832 254.966 110.01 254.762 110.256C254.482 110.591 254.121 110.79 253.677 110.851C253.261 110.906 252.855 111.029 252.46 111.221C246.499 114.038 241.472 117.973 237.38 123.027C236.589 123.464 235.924 124.011 235.385 124.668C234.867 125.304 234.301 125.906 233.687 126.473C232.101 127.93 231.958 130.227 231.099 131.838C229.025 135.756 227.463 139.852 226.413 144.126C225.656 145.357 225.257 146.728 225.216 148.239C225.175 149.45 225.509 150.544 226.219 151.521C226.935 152.52 227.514 153.546 227.958 154.599C228.231 155.249 228.743 155.77 229.386 156.052C230.03 156.335 230.757 156.358 231.416 156.117L236.418 154.291L238.884 154.188C244.156 152.404 249.507 151.357 254.936 151.05C254.772 151.139 254.666 151.111 254.618 150.968C254.557 150.803 254.612 150.708 254.782 150.68C256.187 150.441 257.616 150.198 259.069 149.952C260.399 149.733 261.756 149.439 263.14 149.07C270.295 147.189 276.464 145.323 281.647 143.47C283.461 142.82 285.487 141.729 287.724 140.197C287.976 140.026 288.137 139.794 288.205 139.5L288.41 138.659C288.519 138.207 288.774 138.102 289.177 138.341C289.388 138.464 289.514 138.652 289.555 138.905C289.651 139.438 289.849 139.479 290.149 139.028C290.381 138.686 290.558 138.317 290.681 137.92C290.838 137.435 291.076 137.39 291.397 137.787C291.533 137.965 291.7 138.102 291.898 138.197C292.335 138.402 292.73 138.337 293.085 138.002C293.453 137.667 293.9 137.479 294.425 137.438C294.855 137.404 295.076 137.168 295.09 136.73C295.104 136.464 295.042 136.2 294.906 135.941C294.715 135.565 294.78 135.24 295.1 134.966C295.278 134.816 295.486 134.747 295.724 134.761C296.134 134.782 296.321 134.997 296.287 135.407C296.28 135.53 296.29 135.65 296.318 135.766C296.379 136.047 296.553 136.159 296.839 136.105C297.208 136.03 297.542 135.766 297.842 135.315C298.04 135.322 298.272 135.414 298.538 135.592C299.077 136.091 299.581 136.173 300.052 135.838L301.331 135.223C301.597 135.093 301.866 135.089 302.139 135.212L304.113 136.115C304.475 136.286 304.84 136.289 305.208 136.125C306.204 135.674 307.118 135.831 307.95 136.597C308.079 136.72 308.233 136.761 308.41 136.72C308.547 136.693 308.666 136.621 308.768 136.505C308.834 136.431 308.87 136.336 308.87 136.238C308.87 136.14 308.834 136.045 308.768 135.971C308.338 135.479 308.069 134.918 307.96 134.289C308.171 133.701 308.608 133.445 309.269 133.52C309.44 133.539 309.601 133.604 309.736 133.709C309.872 133.814 309.976 133.955 310.037 134.115C310.569 135.462 310.548 136.806 309.975 138.146C309.846 138.454 309.887 138.734 310.098 138.987C310.521 139.493 311.111 139.654 311.868 139.469C312.1 139.408 312.206 139.254 312.185 139.008C312.117 138.228 312.407 137.671 313.055 137.336C313.6 137.048 313.716 137.168 313.403 137.695C313.321 137.831 313.29 137.975 313.31 138.125C313.338 138.337 313.433 138.512 313.597 138.649C314.497 139.428 315.053 140.42 315.265 141.623C315.346 142.088 315.186 142.444 314.784 142.69C314.149 143.08 313.631 143.593 313.229 144.229C313.174 144.317 313.146 144.419 313.146 144.523C313.147 144.627 313.177 144.728 313.232 144.816C313.288 144.904 313.367 144.974 313.46 145.019C313.554 145.064 313.658 145.081 313.761 145.07C314.177 145.015 314.569 145.053 314.937 145.182C315.285 145.299 315.53 145.528 315.674 145.87C315.926 146.465 316.335 146.933 316.901 147.275C316.967 147.312 317.023 147.366 317.063 147.43C317.104 147.494 317.128 147.568 317.134 147.644C317.14 147.721 317.128 147.798 317.098 147.87C317.068 147.941 317.022 148.004 316.963 148.055C315.742 149.073 314.814 150.304 314.18 151.747C313.587 152.198 313.232 152.78 313.116 153.491L311.305 154.753C310.964 154.992 310.876 155.303 311.039 155.686L311.684 157.204C311.854 157.601 311.738 157.878 311.336 158.035C310.333 158.435 309.464 158.938 308.697 159.707C303.302 165.02 298.343 169.017 293.821 171.698C289.443 174.296 284.246 176.16 278.23 177.288C276.15 177.684 274.029 178.208 271.867 178.857C269.698 179.507 267.516 180.064 265.319 180.529C263.041 180.372 260.729 180.604 258.383 181.227C257.578 181.398 256.835 181.726 256.153 182.211C253.022 182.15 250.533 183.111 248.685 185.094C248.241 184.3 247.859 183.791 247.539 183.565C246.932 183.148 246.683 183.394 246.792 184.304C246.847 184.748 247.089 185.21 247.518 185.689C247.368 185.873 247.089 186.013 246.68 186.109C245.882 185.993 245.343 185.511 245.063 184.663C244.961 184.341 244.753 184.119 244.439 183.996C243.716 183.709 243.392 184.023 243.467 184.94C242.71 185.254 241.731 185.432 240.531 185.473L237.431 186.325L232.797 187.381C232.435 187.354 232.128 187.374 231.876 187.443C231.535 187.538 231.354 187.761 231.334 188.109C231.32 188.335 231.214 188.516 231.017 188.653C230.682 188.872 230.352 188.872 230.024 188.653C229.717 188.441 229.383 188.386 229.022 188.489C225.673 189.439 222.754 190.732 220.264 192.366C218.471 193.535 217.615 195.307 217.697 197.679C217.758 199.574 217.727 201.492 217.605 203.434C217.472 205.639 218.382 207.475 218.771 209.578C219.17 211.732 220.408 213.506 221.492 215.373C222.502 217.103 224.046 218.409 226.127 219.292C227.579 219.907 228.684 219.271 230.106 219.733C230.434 219.835 230.71 220.01 230.935 220.256C231.781 221.165 232.814 221.757 234.035 222.03C235.092 222.851 236.756 223.053 239.027 222.635C244.436 222.075 250.543 220.847 257.35 218.953C265.521 216.683 272.423 213.243 278.056 208.634C280.604 206.552 283.325 205.116 285.944 203.27C286.687 202.75 287.472 202.418 288.297 202.275C289.381 202.09 290.394 201.758 291.335 201.28C291.678 201.101 292.079 201.058 292.461 201.157C293.006 201.3 293.467 201.194 293.842 200.839C294.081 200.613 294.36 200.483 294.681 200.449C295.711 200.353 296.754 200.175 297.811 199.915C299.503 199.512 301.044 199.751 302.436 200.633C302.722 200.811 303.036 200.9 303.377 200.9H303.858C304.246 200.9 304.529 201.075 304.707 201.423C305.968 203.981 307.963 205.687 310.691 206.542C311.142 206.685 311.5 206.959 311.766 207.362C312.004 207.732 312.035 208.108 311.858 208.491C311.715 208.819 311.721 209.144 311.878 209.465C311.94 209.588 312.032 209.667 312.154 209.701C312.598 209.824 312.714 210.091 312.502 210.501C312.032 211.417 311.322 211.643 310.374 211.178C310.02 211.007 309.733 211.082 309.515 211.404C309.413 211.547 309.362 211.708 309.362 211.886C309.358 211.983 309.38 212.079 309.425 212.166C309.47 212.252 309.536 212.325 309.617 212.378C309.747 212.46 309.894 212.508 310.057 212.522C310.371 212.542 310.552 212.71 310.599 213.024C310.627 213.25 310.538 213.472 310.333 213.691C309.542 213.274 309.102 214.245 309.014 216.604C308.427 217.732 307.752 218.888 306.988 220.071C306.504 220.823 305.815 221.965 304.922 223.497C303.748 225.528 302.367 227.357 300.778 228.985C299.257 230.53 297.607 231.788 295.827 232.759C292.478 234.585 289.201 236.568 285.995 238.709C283.199 240.589 279.867 242.374 276 244.063C269.814 246.764 264.661 248.809 260.542 250.197C256.272 251.626 251.15 252.778 245.176 253.654C242.516 254.043 239.907 253.961 237.247 254.3C236.926 254.339 236.632 254.505 236.429 254.761L235.252 256.238C235.136 256.389 235.007 256.399 234.863 256.269L234.628 256.043C234.601 256.016 234.601 255.989 234.628 255.961C235.065 255.469 235.429 254.953 235.723 254.413C235.914 254.043 235.805 253.889 235.395 253.951C234.14 254.129 232.691 254.088 231.047 253.828C230.011 253.664 229.312 254.023 228.95 254.905C228.602 254.857 228.401 254.86 228.347 254.915L227.907 253.879C227.743 253.483 227.46 253.346 227.058 253.469C226.335 253.688 225.635 253.746 224.96 253.643C224.667 253.595 224.565 253.715 224.653 254.002C224.694 254.119 224.698 254.231 224.664 254.341L224.193 254.392C223.763 254.351 223.467 254.235 223.303 254.043C223.187 253.9 223.204 253.77 223.354 253.654C223.429 253.599 223.514 253.582 223.61 253.602C224.176 253.718 224.186 253.643 223.641 253.377C222.038 252.597 221.438 253.199 221.84 255.182C221.062 255.052 220.605 254.563 220.469 253.715C220.421 253.401 220.241 253.223 219.927 253.182C218.341 252.966 217.799 251.571 215.978 251.92L212.602 250.515C211.906 249.667 211.159 249.164 210.361 249.007C210 248.932 209.925 249.048 210.136 249.356L211.006 250.628C211.258 250.99 211.193 251.284 210.812 251.51C210.464 251.715 210.054 251.828 209.584 251.848C209.175 251.862 208.963 251.664 208.95 251.253L208.888 249.202C208.875 248.853 208.701 248.648 208.366 248.586L208.029 248.515C207.93 248.495 207.828 248.5 207.732 248.53C207.636 248.56 207.549 248.614 207.479 248.686C207.408 248.759 207.357 248.848 207.33 248.945C207.303 249.042 207.301 249.144 207.323 249.243C207.517 250.063 207.384 250.864 207.896 251.571C208.332 252.187 208.482 252.891 208.346 253.684C208.315 253.865 208.331 254.05 208.394 254.221C208.457 254.393 208.564 254.543 208.704 254.659C208.827 254.754 208.967 254.799 209.124 254.792C209.451 254.772 209.686 254.614 209.829 254.32C210.102 253.78 210.484 253.322 210.975 252.946C211.582 252.481 212.155 252.471 212.694 252.915C213.015 253.175 213.025 253.445 212.725 253.725L210.76 255.592C210.597 255.743 210.535 255.927 210.576 256.146C210.644 256.481 210.917 256.779 211.395 257.038C210.863 257.421 210.665 257.78 210.801 258.115C210.897 258.341 211.132 258.488 211.507 258.557C211.787 258.604 212.084 258.635 212.397 258.649C212.52 258.765 212.619 258.967 212.694 259.254L211.824 260.003C211.736 260.078 211.669 260.176 211.631 260.286C211.593 260.395 211.584 260.514 211.606 260.629C211.627 260.744 211.679 260.852 211.755 260.942C211.831 261.032 211.929 261.1 212.039 261.141C212.919 261.456 213.485 262.003 213.737 262.783C214.133 264.02 214.324 265.299 214.31 266.619C214.3 268.065 215.333 269.357 216.336 270.27C216.377 270.309 216.41 270.356 216.431 270.409C216.452 270.462 216.461 270.518 216.458 270.575C216.456 270.632 216.44 270.687 216.414 270.737C216.387 270.787 216.35 270.831 216.305 270.865C216.196 270.947 216.135 271.053 216.121 271.183C216.087 271.498 216.148 271.826 216.305 272.168C216.524 272.647 216.633 273.293 216.633 274.107C216.633 274.893 216.902 276.828 217.441 279.912C217.502 281.177 217.158 282.145 216.408 282.815C216.155 283.048 216.101 283.321 216.244 283.636C216.394 283.971 216.691 284.159 217.134 284.2C217.475 284.234 217.635 284.425 217.615 284.774C217.601 285.061 217.38 285.352 216.95 285.646C216.786 285.885 216.711 286.244 216.725 286.723C216.732 287.099 216.544 287.274 216.162 287.246L215.466 287.185C214.825 287.13 214.75 287.315 215.241 287.739C215.521 287.978 215.852 288.142 216.234 288.231C216.479 288.283 216.701 288.416 216.864 288.609C217.027 288.802 217.122 289.044 217.134 289.298C217.175 290.46 216.711 290.85 215.743 290.467C215.641 290.426 215.531 290.41 215.42 290.421C215.31 290.431 215.203 290.468 215.108 290.529C214.945 290.638 214.818 290.802 214.73 291.021L213.021 291.072C212.667 291.079 212.428 291.25 212.305 291.585C212.148 291.995 212.135 292.512 212.264 293.134C211.391 294.043 210.215 294.385 208.735 294.16C208.742 294.009 208.728 293.876 208.694 293.76C208.598 293.397 208.452 293.373 208.254 293.688C207.742 294.481 207.33 295.606 207.016 297.062C206.552 296.132 206.341 295.291 206.382 294.539C206.409 294.122 206.245 293.807 205.891 293.595C204.561 292.795 203.64 293.719 202.341 293.513C201.836 293.438 201.311 293.291 200.765 293.072C200.022 292.744 199.374 292.235 198.821 291.544C198.167 290.457 197.294 289.588 196.202 288.939C195.793 288.474 195.312 288.087 194.76 287.78C194.467 287.615 194.255 287.687 194.126 287.995C193.819 288.713 193.379 289.192 192.806 289.431L191.507 289.841C191.132 289.958 190.968 289.821 191.016 289.431C191.036 289.199 191.162 288.963 191.394 288.723C191.585 288.272 191.698 287.786 191.732 287.267C191.759 286.747 192.018 286.569 192.509 286.733C192.625 286.774 192.745 286.791 192.867 286.785C193.338 286.757 193.522 286.518 193.42 286.067C193.304 285.554 193.048 285.113 192.652 284.743C192.53 284.627 192.393 284.607 192.243 284.682C192.148 284.73 192.066 284.795 191.998 284.877C191.8 285.137 191.592 285.147 191.374 284.908C191.115 284.62 190.999 284.145 191.026 283.482C191.169 283.379 191.251 283.249 191.271 283.092C191.285 282.989 191.254 282.894 191.179 282.805C191.084 282.682 190.988 282.606 190.893 282.579L188.744 281.984C188.247 281.847 188.243 281.697 188.734 281.533C188.959 281.458 189.174 281.444 189.379 281.492C190.197 281.697 190.361 281.478 189.87 280.835L185.194 274.691C184.751 273.549 184.148 272.524 183.384 271.614C183.636 270.561 183.384 269.604 182.627 268.742C181.303 267.224 180.502 265.815 180.222 264.516C180.018 263.709 179.622 263.193 179.036 262.967L177.9 261.326L170.954 242.699C171.049 241.454 170.732 240.5 170.002 239.837C169.525 236.972 168.665 234.507 167.424 232.441C166.902 231.58 166.749 230.718 166.79 229.713C166.804 229.474 166.718 229.282 166.534 229.139C166.35 228.995 166.121 228.981 165.849 229.098C165.446 229.015 165.33 228.725 165.501 228.226C166.231 227.672 166.408 227.22 166.033 226.872C165.869 226.584 165.883 226.434 166.074 226.42C166.456 225.593 166.316 224.854 165.654 224.205C165.416 223.965 165.129 223.849 164.795 223.856C164.311 223.856 163.881 224.013 163.506 224.328C163.151 224.629 163.005 224.547 163.066 224.082C163.175 223.2 163.056 222.372 162.708 221.599C162.627 221.424 162.594 221.231 162.612 221.038C162.63 220.846 162.699 220.661 162.81 220.502L164.109 218.676C164.171 218.587 164.161 218.512 164.079 218.45L163.864 218.276C163.728 218.153 163.598 218.163 163.475 218.307C163.121 218.744 162.687 219.097 162.176 219.363C161.808 219.548 161.596 219.435 161.542 219.025L161.48 218.676C161.465 218.572 161.484 218.466 161.534 218.372C161.583 218.278 161.661 218.201 161.756 218.153C162.752 217.661 163.1 216.888 162.8 215.835C162.909 215.397 162.889 215.086 162.739 214.901C162.691 214.163 162.51 213.476 162.196 212.84C162.135 212.719 162.03 212.626 161.903 212.578C161.776 212.531 161.637 212.532 161.511 212.583C161.252 212.693 161.054 212.645 160.918 212.44C160.679 212.077 160.73 211.759 161.071 211.486C161.767 210.911 161.961 210.204 161.654 209.362C161.47 208.836 161.214 208.798 160.887 209.25L160.365 209.968C159.915 210.597 159.714 210.525 159.762 209.752C159.809 208.952 159.895 208.214 160.017 207.537C160.092 207.099 159.942 206.764 159.567 206.531C159.049 206.21 158.646 205.776 158.36 205.229C158.286 205.086 158.253 204.927 158.264 204.767C158.275 204.608 158.329 204.455 158.421 204.326L159.68 202.634C159.925 202.299 159.935 201.96 159.71 201.618C159.213 200.832 158.868 199.984 158.677 199.074C158.575 198.616 158.34 198.244 157.971 197.956C157.357 197.485 157.279 196.896 157.736 196.192C157.838 196.035 157.981 195.97 158.166 195.997C158.404 196.031 158.449 196.141 158.299 196.325C158.162 196.496 158.172 196.66 158.329 196.818C158.377 196.859 158.435 196.876 158.503 196.869C158.851 196.835 159.172 196.698 159.465 196.459C159.888 196.11 159.83 195.963 159.291 196.018C159.243 196.025 159.195 196.038 159.148 196.059C158.97 196.148 158.824 196.113 158.708 195.956C158.571 195.765 158.524 195.529 158.565 195.248C158.708 194.335 158.35 193.433 157.357 193.228C156.996 193.152 156.658 193.211 156.345 193.402C156.133 193.532 155.901 193.597 155.649 193.597C155.199 193.604 155.11 193.429 155.383 193.074C155.997 192.274 156.757 191.905 157.664 191.966C158.067 191.993 158.186 191.822 158.022 191.453C157.9 191.159 157.715 190.906 157.47 190.694C157.054 190.345 157.088 190.048 157.572 189.802C157.654 189.754 157.743 189.72 157.838 189.699C157.947 189.665 158.026 189.59 158.074 189.474C158.326 188.851 158.234 188.212 157.797 187.555C157.306 186.837 156.539 186.827 155.792 186.55C155.651 186.497 155.53 186.399 155.449 186.272C155.368 186.144 155.33 185.993 155.342 185.842C155.369 185.466 155.492 185.124 155.71 184.817C155.969 184.441 156.143 184.478 156.232 184.93C156.314 185.374 156.553 185.706 156.948 185.925C157.46 186.212 157.668 186.065 157.572 185.483C157.49 185.032 157.32 184.612 157.061 184.222C157.007 184.134 156.969 184.036 156.948 183.935L155.833 178.006C155.758 177.602 155.519 177.384 155.117 177.349C154.496 177.288 153.988 177.045 153.593 176.621C152.685 175.65 152.863 175.373 154.125 175.79C155.577 176.269 156.338 175.859 156.406 174.559C156.421 174.306 156.364 174.054 156.241 173.834C156.117 173.614 155.933 173.435 155.71 173.318C154.537 172.717 153.647 172.877 153.04 173.8C152.733 174.265 152.413 174.279 152.078 173.841L151.761 173.421C151.475 173.045 151.557 172.785 152.007 172.641L153.634 172.128C153.968 172.026 154.193 171.81 154.309 171.482C154.568 170.764 155.008 170.139 155.628 169.605C155.915 169.352 155.929 169.089 155.669 168.815C155.437 168.576 155.137 168.453 154.769 168.446C154.367 168.446 154.176 168.648 154.196 169.051L154.217 169.369C154.244 169.78 154.067 170.053 153.685 170.19C152.743 170.545 151.778 170.692 150.789 170.631C150.203 170.597 150.135 170.392 150.585 170.015C151.144 169.557 151.778 169.267 152.488 169.144C153.511 168.959 153.794 168.402 153.337 167.472C152.996 166.781 153.088 166.162 153.613 165.615C153.81 165.407 153.929 165.137 153.949 164.851C153.97 164.564 153.891 164.28 153.726 164.046C153.275 163.423 153.067 162.757 153.102 162.045C153.122 161.608 153.023 161.577 152.805 161.953C152.201 163.04 152.549 164.641 152.887 165.759C152.918 165.867 152.924 165.981 152.904 166.092C152.883 166.203 152.837 166.308 152.768 166.398C152.7 166.489 152.611 166.563 152.509 166.614C152.407 166.664 152.295 166.691 152.181 166.692C151.028 166.685 150.281 167.222 149.94 168.302C148.624 172.501 146.97 176.71 144.979 180.929C143.88 183.275 142.854 186.095 141.899 189.391C140.774 193.31 139.819 196.079 139.035 197.7C136.948 202.015 134.977 206.35 133.121 210.706C133.265 211.253 132.937 212.026 132.139 213.024C132.167 213.141 132.194 213.257 132.221 213.373C132.098 214.419 131.781 215.431 131.27 216.409C131.058 216.71 130.936 217.001 130.901 217.281C130.861 217.609 130.997 217.828 131.311 217.938L132.589 218.368C133.367 218.628 133.698 219.162 133.582 219.969C133.261 222.259 131.955 223.046 129.664 222.328C129.002 222.123 128.879 222.3 129.295 222.861C129.548 223.196 129.462 223.391 129.039 223.446C128.514 223.507 128.374 223.771 128.62 224.236C128.75 224.475 128.937 224.615 129.183 224.656C129.592 225.046 129.967 225.648 130.308 226.461L128.477 229.969C128.211 230.475 128.064 230.441 128.037 229.867C127.982 228.916 128.296 228.099 128.978 227.415C129.203 227.191 129.335 226.891 129.349 226.573C129.362 226.255 129.255 225.944 129.05 225.702C128.661 225.251 128.194 225.07 127.648 225.159C127.287 225.213 127.055 225.419 126.952 225.774C126.789 226.342 126.727 226.902 126.768 227.456C126.789 227.764 126.721 228.048 126.564 228.308L124.61 231.549C124.419 231.877 124.354 232.233 124.415 232.616C124.504 233.135 124.674 233.618 124.927 234.062C124.988 234.164 125.025 234.28 125.036 234.401C125.046 234.522 125.03 234.644 124.988 234.76C124.961 234.855 124.93 234.951 124.896 235.047C124.794 235.396 124.739 235.385 124.732 235.016C124.726 234.448 124.514 233.966 124.098 233.57C123.922 233.402 123.783 233.199 123.688 232.975C123.594 232.751 123.546 232.51 123.549 232.267C123.552 232.024 123.605 231.785 123.705 231.564C123.805 231.344 123.949 231.146 124.129 230.985C124.934 230.267 125.251 229.474 125.08 228.605C125.012 228.27 125.131 228.024 125.438 227.867C125.561 227.805 125.694 227.781 125.837 227.795C126.41 227.85 126.577 227.617 126.339 227.097C126.277 226.967 126.192 226.851 126.083 226.749C125.817 226.482 125.537 226.472 125.244 226.718C123.703 228.031 122.581 229.395 121.878 230.811C121.674 231.234 121.523 231.217 121.428 230.759C121.373 230.506 121.408 230.253 121.53 230C121.81 229.412 121.653 229.251 121.06 229.518C119.709 230.127 118.284 230.766 116.783 231.436C115.556 231.983 115.546 232.582 116.753 233.231C117.046 233.388 117.264 233.621 117.407 233.929C117.537 234.209 117.469 234.421 117.203 234.565C117.094 234.619 116.981 234.636 116.865 234.616C116.777 234.602 116.695 234.551 116.62 234.462C115.999 233.703 115.488 232.889 115.085 232.021C114.928 231.686 114.669 231.477 114.308 231.395C110.441 230.493 106.891 229.036 103.658 227.026C103.167 226.718 102.631 226.632 102.052 226.769C101.84 226.817 101.639 226.796 101.448 226.708C101.346 226.653 101.254 226.588 101.172 226.513C101.13 226.475 101.102 226.426 101.089 226.372C101.076 226.318 101.079 226.261 101.099 226.208C101.119 226.156 101.154 226.112 101.2 226.08C101.246 226.048 101.3 226.031 101.356 226.031C101.52 226.031 101.673 225.986 101.816 225.897C102.028 225.774 102.089 225.596 102 225.364C101.489 223.938 100.374 223.559 99.6576 222.389C98.6346 220.738 97.3455 217.517 95.8212 216.419C95.5893 216.249 95.4427 216.019 95.3813 215.732C95.1903 214.775 94.7368 213.954 94.0206 213.27C93.8915 213.148 93.7949 212.993 93.7396 212.822C93.6842 212.65 93.6718 212.466 93.7035 212.286L93.9388 211.096C93.9933 210.809 93.9865 210.525 93.9183 210.245C93.325 207.844 92.8168 205.324 92.394 202.685C92.1178 200.982 91.5448 199.782 90.3479 198.592C90.2859 198.529 90.241 198.452 90.2177 198.368C90.1944 198.283 90.1934 198.194 90.2149 198.11C90.7469 195.895 90.6923 194.589 90.0512 194.192L89.6011 189.802C89.567 189.467 89.4681 189.45 89.3044 189.75L87.8823 192.428C87.7596 192.735 87.6061 192.971 87.422 193.135C86.8627 193.799 86.4126 194.585 86.0715 195.495L83.5753 198.982C82.6137 200.042 82.2385 201.413 82.45 203.095C82.1499 202.993 81.8839 202.952 81.652 202.972C81.3519 202.993 81.1371 203.14 81.0075 203.413C80.1481 205.294 79.224 207.256 78.235 209.301C77.4507 210.922 76.4924 212.464 75.3603 213.927C74.0917 215.561 72.7856 217.544 71.442 219.876C71.0669 220.533 70.852 221.199 70.7975 221.876C70.7702 222.205 70.6406 222.485 70.4087 222.717C67.7897 225.364 65.5697 228.304 63.7487 231.539C63.5714 231.86 63.3531 232.147 63.0939 232.4C62.8075 232.674 62.6881 233.012 62.7359 233.416C62.7632 233.662 62.6574 233.819 62.4187 233.888C62.2619 233.936 62.18 233.915 62.1732 233.826C62.1459 233.354 61.9993 233.313 61.7333 233.703C61.3513 234.243 60.9114 234.688 60.4136 235.037C59.9702 235.337 59.9532 235.662 60.3624 236.011C60.9353 236.503 61.382 237.078 61.7026 237.734C62.3096 238.979 62.1834 239.057 61.3241 237.97C60.4443 236.855 59.6019 236.613 58.7971 237.242C57.8866 237.96 56.9454 239.016 56.3316 239.981C56.0656 240.398 56.1816 240.575 56.6794 240.514C57.1637 240.452 57.607 240.251 58.0094 239.909C58.2549 239.697 58.5243 239.652 58.8176 239.775C59.2405 239.946 59.2575 240.151 58.8688 240.391C58.0435 240.897 57.2558 241.105 56.5055 241.017C56.1713 240.975 55.8474 241.023 55.5336 241.16C54.3946 241.68 53.4944 242.466 52.8328 243.519C52.485 244.087 52.5873 244.189 53.1397 243.827C53.699 243.458 54.2207 243.338 54.705 243.468C56.6147 243.974 56.5908 244.374 54.6334 244.668C54.0195 244.757 53.3955 244.86 52.7612 244.976C52.5974 245.003 52.4453 245.078 52.3234 245.191C52.2016 245.304 52.1155 245.45 52.0757 245.612C51.7756 246.761 51.2607 247.721 50.5309 248.494C50.4837 248.545 50.4237 248.584 50.356 248.607C50.2884 248.63 50.215 248.637 50.1422 248.627C49.8557 248.58 49.7125 248.446 49.7125 248.227C49.7057 248.056 49.7841 247.95 49.9478 247.909C51.0118 247.615 51.4756 246.976 51.3391 245.991C51.2982 245.718 51.3801 245.489 51.5847 245.304C51.6597 245.243 51.7279 245.174 51.7893 245.099C51.9462 244.921 51.9223 244.887 51.7177 244.996C50.5821 245.581 49.3033 246.022 48.6178 247.15C48.0449 248.101 47.4004 248.997 46.6843 249.838C46.3705 250.214 46.4183 250.535 46.8275 250.802C46.9094 250.857 46.9094 250.959 46.8275 251.11C46.7729 251.205 46.6911 251.26 46.582 251.274C46.316 251.315 46.1421 251.469 46.0602 251.735C45.8863 252.289 46.3058 253.018 46.316 253.623C46.3228 254.122 46.1898 254.163 45.917 253.746C45.4396 253.021 45.2657 252.105 45.3952 250.997C45.5317 249.896 45.31 249.814 44.7303 250.751C44.3552 251.352 43.7993 251.763 43.0627 251.982C42.6876 252.091 42.367 252.282 42.101 252.556C40.6585 254.043 38.8375 255.52 36.6891 255.767C35.3319 255.924 34.0667 256.58 32.8936 257.736C32.6208 258.009 32.2934 258.153 31.9115 258.167C31.7001 258.174 31.6046 258.081 31.625 257.89C31.666 257.425 31.4545 257.216 30.9908 257.264C29.9404 257.367 29.2038 257.876 28.781 258.792C28.6616 259.054 28.4529 259.263 28.1934 259.382C27.9339 259.5 27.6412 259.521 27.3692 259.439C25.7459 258.946 24.3989 259.056 23.3281 259.767C22.9121 260.04 22.7484 259.931 22.8371 259.439C22.878 259.24 22.7928 259.076 22.5813 258.946C22.3904 258.823 22.1823 258.748 21.9573 258.721L17.6809 258.218C17.5592 258.203 17.4356 258.219 17.3217 258.265C17.2079 258.311 17.1074 258.385 17.0298 258.48C16.9522 258.575 16.8999 258.689 16.8778 258.81C16.8557 258.931 16.8645 259.055 16.9034 259.172C17.299 260.355 17.9265 261.374 18.7858 262.229C18.8404 262.283 18.8336 262.324 18.7654 262.352L18.4687 262.495C18.3664 262.55 18.2743 262.54 18.1925 262.465C16.767 261.145 15.877 259.575 15.5223 257.756C15.4405 257.339 15.1847 257.131 14.755 257.131C14.3935 257.124 14.1344 257.285 13.9775 257.613C13.8275 257.927 13.6058 258.184 13.3125 258.382C12.9442 258.635 12.743 258.539 12.7089 258.095C12.6748 257.685 12.7294 257.278 12.8726 256.874C13.0022 256.491 12.8828 256.218 12.5146 256.054C11.9075 255.78 11.3449 255.866 10.8265 256.31C10.7524 256.377 10.6583 256.417 10.5589 256.424C10.4596 256.431 10.3607 256.406 10.2776 256.35C10.1946 256.295 10.1321 256.214 10.1 256.12C10.0679 256.025 10.0679 255.923 10.1002 255.828C10.182 255.568 10.1922 255.308 10.1309 255.049C10.0354 254.645 9.78643 254.334 9.38403 254.115C7.29702 252.953 5.65332 251.595 4.45295 250.043C3.06843 248.265 1.86124 246.029 0.83137 243.335C-0.703199 239.314 0.043623 235.457 1.79303 231.672C3.68226 227.603 6.87416 225.34 11.3687 224.882C12.2349 224.793 12.9988 224.417 13.6604 223.753C14.0491 223.371 14.3458 223.432 14.5504 223.938C14.605 224.068 14.6902 224.174 14.8062 224.256C15.0858 224.461 15.3961 224.567 15.7371 224.574C19.2496 224.697 22.8303 224.947 26.4791 225.323C26.9838 225.378 27.451 225.272 27.8807 225.005C29.1697 224.212 30.5406 223.507 31.9933 222.892C33.1937 222.379 34.1554 221.565 34.8783 220.451C39.1751 213.855 43.9323 207.937 47.8506 200.962C52.5225 192.64 56.7545 184.034 60.5466 175.144C62.2755 171.082 63.2781 166.784 64.6387 162.671C64.6865 162.534 64.6763 162.36 64.6081 162.148C64.5158 161.87 64.5231 161.569 64.6285 161.297C66.279 157.214 67.5544 153.327 68.4547 149.634C70.1325 142.741 71.7967 135.729 73.4472 128.596C74.2315 125.177 74.8283 121.604 75.2375 117.878C75.5581 114.971 76.1037 112.311 76.8744 109.897C77.9793 106.461 78.6033 102.902 80.2606 99.5477C82.8455 94.3233 85.9522 90.2717 89.5806 87.3928C91.8722 85.5738 95.1119 84.4216 99.2995 83.9361C99.4155 83.9224 99.4189 83.8882 99.3098 83.8335C99.2825 83.8198 99.2552 83.7993 99.2279 83.772C99.1938 83.7309 99.2006 83.707 99.2484 83.7002C100.885 83.4198 102.116 83.4471 102.942 83.7822C104.919 84.5891 106.901 85.2148 108.885 85.6593C109.192 85.7277 109.462 85.861 109.694 86.0593C110.123 86.4354 110.645 86.6372 111.259 86.6645C111.675 86.6919 112.047 86.8286 112.374 87.0748C113.172 87.6766 114.008 88.2647 114.881 88.8391C115.658 89.3519 116.354 90.0016 116.968 90.788C117.827 91.8889 118.836 92.8087 119.996 93.5472C120.282 93.725 120.521 93.954 120.712 94.2344L122.461 96.8193L124.303 100.132L125.612 102.799C125.994 103.613 125.902 104.311 125.336 104.892C124.947 105.282 125.012 105.579 125.53 105.784C126.212 106.044 126.642 106.506 126.819 107.169C126.908 107.504 126.833 107.795 126.594 108.041C126.253 108.396 126.131 108.82 126.226 109.313C126.257 109.477 126.335 109.63 126.451 109.752C126.568 109.874 126.717 109.96 126.881 110C127.27 110.089 127.467 110.379 127.474 110.872C127.147 112.363 126.823 113.877 126.502 115.416C126.195 116.906 125.796 118.373 125.305 119.816C123.996 123.666 122.813 127.526 121.755 131.397C121.353 132.874 121.278 134.364 121.53 135.869C121.591 136.213 121.566 136.565 121.459 136.895C120.893 138.645 120.852 140.334 121.336 141.962C122.311 145.237 123.269 148.69 124.211 152.322C124.272 152.554 124.412 152.629 124.63 152.547L127.781 151.368C127.811 151.357 127.844 151.353 127.876 151.356C127.908 151.359 127.939 151.369 127.966 151.386C127.994 151.403 128.017 151.425 128.035 151.452C128.052 151.479 128.063 151.51 128.068 151.542L128.098 151.798C128.112 151.915 128.068 152 127.965 152.055L125.53 153.358C125.203 153.535 125.009 153.805 124.947 154.168C124.784 155.071 124.862 155.973 125.183 156.876C125.387 157.457 125.582 157.457 125.766 156.876C126.23 155.412 127.154 154.233 128.538 153.337C128.604 153.294 128.684 153.275 128.762 153.285C128.841 153.294 128.914 153.331 128.968 153.388L129.193 153.624C129.336 153.775 129.35 153.935 129.234 154.106C128.299 155.549 127.195 156.746 125.919 157.696C125.756 157.819 125.62 157.975 125.523 158.154C125.426 158.333 125.369 158.53 125.357 158.732C125.281 159.792 125.544 160.278 126.144 160.189C126.506 160.134 126.717 159.929 126.779 159.573L126.83 159.256C126.898 158.859 127.106 158.558 127.454 158.353C130.83 156.373 129.776 153.604 130.595 150.537C131.74 146.229 133.091 141.38 134.646 135.992C136.01 131.267 136.549 126.477 136.262 121.621C136.023 118.086 136.214 115.494 136.835 113.846C137.49 112.072 137.306 111.549 137.377 109.969C137.384 109.826 137.428 109.692 137.51 109.569C137.64 109.378 137.712 109.162 137.725 108.923C137.909 106.263 138.097 103.582 138.288 100.881C138.411 99.1989 139.29 97.9886 139.239 96.3064C139.226 95.8688 139.331 95.4619 139.556 95.0858C140.218 93.9711 140.054 93.007 139.065 92.1932C139.966 89.5263 140.286 86.75 140.027 83.8643C139.966 83.1326 140.024 82.4488 140.201 81.8128C140.426 81.0059 140.539 80.2195 140.539 79.4536C140.545 77.0124 140.723 74.6566 141.071 72.3863C141.261 71.1418 141.316 69.8562 141.234 68.5296C141.132 66.8371 141.705 65.196 141.654 63.4933C141.572 60.758 141.657 58.0124 141.909 55.2566C141.93 54.9694 141.868 54.6993 141.725 54.4463C141.589 54.207 141.616 53.9984 141.807 53.8206C142.066 53.5881 142.192 53.3009 142.186 52.959C142.152 50.9691 142.407 48.9655 142.953 46.9482C143.28 45.7276 142.892 44.1582 143.454 43.194C143.884 42.4418 144.191 41.6589 144.375 40.8451C144.58 39.8946 144.399 39.816 143.833 40.6092C143.171 41.5392 142.68 42.6265 142.36 43.871C142.316 44.0513 142.207 44.2088 142.054 44.313C141.9 44.4173 141.714 44.4608 141.531 44.4352C140.965 44.3531 140.743 44.1514 140.866 43.83C140.941 43.6454 141.053 43.4915 141.203 43.3684C142.114 42.6401 141.848 41.6247 142.288 40.6092C142.895 39.2005 143.533 38.0244 144.201 37.0807C144.863 36.1507 145.49 35.1523 146.083 34.0855C146.288 33.7231 146.213 33.6513 145.858 33.8701L145.173 34.2804C144.873 34.4651 144.556 34.5164 144.221 34.4343C143.703 34.3112 143.253 34.0992 142.871 33.7983C142.366 33.3949 142.435 33.1761 143.076 33.1419C144.453 33.0667 145.429 32.4615 146.002 31.3263C146.609 30.1228 147.291 28.9603 148.048 27.8389C148.154 27.6808 148.293 27.547 148.455 27.4463C148.617 27.3455 148.799 27.28 148.989 27.2542C149.572 27.1619 150.084 27.008 150.472 26.5157C152.696 23.7052 155.799 21.093 159.782 18.6791C160.266 18.385 160.686 18.4602 161.04 18.9047C161.231 19.1441 161.484 19.2774 161.797 19.3048C162.159 19.339 162.476 19.2364 162.749 18.997L164.826 17.2123C165.453 16.6721 166.04 16.7165 166.585 17.3456C167.574 18.4808 168.485 18.4671 169.317 17.3046C169.521 17.0174 169.787 16.9422 170.115 17.0789L175.598 19.2945ZM189.665 145.285C189.549 145.265 189.474 145.2 189.44 145.09C189.079 144.078 188.601 144.01 188.008 144.885C187.674 145.377 187.459 145.952 187.363 146.608C187.281 147.217 187.544 147.48 188.151 147.398C190.088 147.152 191.449 147.548 192.233 148.588C192.513 148.971 192.68 148.926 192.734 148.455C192.878 147.189 192.359 146.297 191.179 145.777C191.118 145.752 191.064 145.712 191.02 145.662C190.976 145.612 190.944 145.553 190.926 145.489C190.909 145.425 190.906 145.357 190.917 145.292C190.929 145.226 190.956 145.164 190.995 145.111C191.207 144.823 191.493 144.711 191.855 144.772C192.243 144.834 192.421 144.666 192.386 144.27C192.305 143.456 192.462 142.683 192.857 141.951C193.116 141.473 192.976 141.271 192.438 141.346L192.11 141.398C191.619 141.473 191.292 141.739 191.128 142.198C190.794 143.121 190.354 143.948 189.808 144.68C189.754 144.748 189.764 144.806 189.839 144.854C189.866 144.875 189.89 144.899 189.911 144.926C190.095 145.22 190.013 145.34 189.665 145.285ZM189.962 150.106C189.689 149.497 189.29 149.005 188.765 148.629C188.363 148.342 188.141 148.444 188.1 148.937C187.923 150.865 187.912 152.705 188.069 154.455C188.161 155.583 187.64 156.373 187.609 157.348C187.547 159.153 187.803 159.201 188.376 157.491C188.785 156.274 188.925 154.927 188.796 153.45C188.748 152.944 188.932 152.544 189.348 152.25L191.271 150.906C191.701 150.598 191.653 150.462 191.128 150.496L190.658 150.516C190.33 150.537 190.098 150.4 189.962 150.106ZM159.823 204.049C159.767 204.132 159.742 204.233 159.753 204.332C159.765 204.432 159.811 204.524 159.884 204.593C160.328 204.996 160.675 204.921 160.928 204.367C161.016 204.169 160.976 204.001 160.805 203.865C160.437 203.564 160.109 203.625 159.823 204.049ZM309.945 208.573C309.501 208.162 309.007 207.95 308.461 207.937C308.107 207.93 307.946 208.104 307.98 208.46L308.093 209.414C308.148 209.913 308.417 210.094 308.901 209.957C309.31 209.841 309.658 209.653 309.945 209.393C310.238 209.12 310.238 208.846 309.945 208.573ZM230.784 221.692C230.83 221.632 230.856 221.558 230.86 221.472C230.864 221.386 230.845 221.291 230.806 221.192C230.766 221.093 230.706 220.992 230.63 220.895C230.553 220.797 230.461 220.706 230.358 220.625C230.256 220.544 230.145 220.476 230.033 220.424C229.92 220.372 229.808 220.337 229.703 220.322C229.598 220.307 229.501 220.311 229.419 220.335C229.337 220.359 229.271 220.402 229.224 220.461C229.177 220.52 229.152 220.595 229.148 220.681C229.144 220.766 229.162 220.861 229.202 220.96C229.241 221.059 229.301 221.161 229.378 221.258C229.455 221.355 229.547 221.447 229.65 221.528C229.752 221.609 229.863 221.677 229.975 221.729C230.087 221.781 230.2 221.815 230.305 221.831C230.41 221.846 230.507 221.841 230.589 221.818C230.671 221.794 230.737 221.751 230.784 221.692ZM163.77 222.252C163.885 222.351 164.056 222.376 164.243 222.322C164.431 222.267 164.62 222.138 164.77 221.962C164.92 221.786 165.018 221.578 165.042 221.384C165.066 221.19 165.015 221.025 164.899 220.926C164.784 220.827 164.613 220.802 164.426 220.857C164.238 220.911 164.049 221.04 163.899 221.216C163.749 221.392 163.651 221.6 163.627 221.794C163.603 221.988 163.654 222.153 163.77 222.252Z" fill="#D9DEFF"/>
<path d="M350.867 215.599C351.583 215.517 351.835 216.078 351.624 217.281C351.569 217.589 351.392 217.794 351.092 217.897C351.01 217.924 350.928 217.951 350.846 217.979C350.58 218.068 350.546 218.208 350.744 218.399C352.742 220.362 354.897 220.823 357.209 219.784C357.537 219.64 357.724 219.746 357.772 220.102C357.793 220.314 357.898 220.461 358.089 220.543C359.337 221.09 360.534 221.224 361.68 220.943L362.386 219.025C362.891 218.464 363.569 219.052 364.422 220.789C363.358 220.352 362.84 220.803 362.867 222.143C362.881 222.533 363.082 222.745 363.47 222.779L363.829 222.81C363.549 222.919 363.668 223.077 364.187 223.282C364.282 223.658 364.514 223.873 364.882 223.928C365.001 223.944 365.122 223.928 365.233 223.883C365.344 223.838 365.442 223.765 365.517 223.672L366.182 222.861C366.407 222.581 366.656 222.56 366.928 222.8C367.297 223.128 367.457 223.552 367.409 224.072C367.341 224.714 367.464 225.285 367.778 225.785C367.955 226.065 368.054 226.366 368.074 226.687C368.108 227.18 368.265 227.535 368.545 227.754C368.811 227.973 369.029 228.233 369.2 228.534C369.329 228.752 369.336 228.927 369.22 229.057C368.92 229.392 368.957 229.679 369.333 229.918C370.246 230.513 370.69 231.409 370.663 232.606C370.656 232.839 370.697 233.071 370.783 233.288C370.869 233.504 370.999 233.702 371.164 233.867C371.484 234.182 371.713 234.565 371.849 235.016C371.912 235.224 372.04 235.407 372.215 235.538C372.39 235.669 372.602 235.741 372.821 235.744C372.91 235.751 372.998 235.765 373.087 235.785C373.742 235.956 373.827 236.281 373.343 236.76C372.777 237.321 372.354 237.898 372.074 238.493C372.299 239.362 371.931 240.022 370.969 240.473C370.315 240.788 370.349 240.972 371.072 241.027C371.556 241.068 371.958 240.88 372.279 240.463C372.524 240.135 372.797 240.107 373.097 240.381C373.288 240.559 373.343 240.753 373.261 240.965C373.104 241.273 373.08 241.649 373.189 242.094C372.923 242.579 372.528 242.781 372.003 242.699C371.293 243.054 371.027 243.537 371.205 244.145C371.321 244.542 371.57 244.668 371.952 244.525C372.463 244.34 372.954 244.344 373.425 244.535C373.923 244.726 373.957 244.976 373.527 245.284L370.714 247.304C370.448 247.496 370.359 247.749 370.448 248.063C370.495 248.234 370.605 248.327 370.775 248.34C371.082 248.368 371.249 248.535 371.276 248.843C371.304 249.185 371.041 249.472 370.489 249.705C369.738 249.794 369.2 249.975 368.872 250.248L367.604 250.73C367.14 250.901 367.061 251.178 367.368 251.561C367.498 251.739 367.689 251.828 367.941 251.828C368.241 251.828 368.327 251.965 368.197 252.238C368.156 252.32 368.081 252.392 367.972 252.454C367.931 252.474 367.887 252.481 367.839 252.474C366.741 252.406 365.895 252.802 365.302 253.664C365.118 253.924 364.872 254.105 364.565 254.208L363.736 254.474C363.58 254.488 363.423 254.467 363.266 254.413C362.952 254.31 362.806 254.095 362.826 253.767C362.826 253.637 362.792 253.517 362.724 253.408C362.499 253.052 362.236 253.018 361.936 253.305C361.329 253.886 360.95 254.587 360.8 255.408C360.337 256.474 360.296 257.552 360.678 258.639C360.343 260.622 360.19 262.615 360.217 264.619C360.408 279.205 360.708 295.746 361.117 314.244C361.152 315.721 360.453 316.63 359.02 316.972C358.802 317.02 358.601 317.006 358.417 316.931C356.875 316.268 356.098 315.044 356.084 313.259C355.955 298.147 355.787 282.48 355.583 266.26C355.542 263.439 355.122 260.629 354.672 257.921C354.65 257.78 354.595 257.647 354.511 257.531C354.428 257.416 354.318 257.321 354.191 257.254C352.636 256.413 352.439 256.83 353.598 258.505C353.677 258.623 353.727 258.757 353.743 258.898C353.76 259.038 353.743 259.18 353.694 259.312C353.645 259.444 353.565 259.561 353.461 259.655C353.357 259.748 353.232 259.815 353.097 259.849C352.49 260.006 351.913 259.921 351.368 259.593C350.965 259.347 350.969 259.111 351.378 258.885C351.63 258.755 351.832 258.577 351.982 258.352C352.044 258.254 352.086 258.145 352.105 258.031C352.124 257.917 352.12 257.8 352.092 257.689C352.064 257.577 352.013 257.472 351.943 257.382C351.873 257.291 351.785 257.216 351.685 257.162C350.846 256.704 350.106 256.782 349.465 257.398C349.179 257.671 348.957 257.627 348.8 257.264C348.568 256.738 348.52 256.157 348.657 255.521C348.78 254.987 348.595 254.847 348.104 255.1C347.511 255.415 346.873 256.051 346.191 257.008L345.557 254.505C345.468 254.17 345.257 254.033 344.923 254.095C343.252 254.396 342.082 253.732 341.414 252.105C341.223 249.479 339.957 247.445 337.618 246.002C336.452 245.284 335.289 244.723 334.13 244.32C331.92 244.155 330.934 243.058 331.173 241.027C331.268 240.2 331.892 239.102 333.045 237.734C333.413 237.29 333.898 237.051 334.498 237.016C334.832 236.996 335.003 236.818 335.009 236.483C335.03 235.457 334.293 234.473 334.416 233.611C334.61 232.165 335.654 232.001 336.186 230.903C336.616 230.021 336.861 229.04 336.922 227.959C336.943 227.583 337.086 227.262 337.352 226.995L337.68 226.656C337.932 226.403 337.986 226.113 337.843 225.785C337.686 225.429 337.782 225.166 338.13 224.995C338.723 224.879 339.204 224.588 339.572 224.123C339.865 222.892 340.588 222.082 341.741 221.692C342.225 221.521 342.508 221.692 342.59 222.205C342.638 222.513 342.812 222.694 343.112 222.748C343.269 222.781 343.433 222.761 343.579 222.693C343.724 222.625 343.844 222.511 343.92 222.369C344.704 220.919 346.021 219.965 347.869 219.507C348.237 219.415 348.559 219.184 348.769 218.861C349.069 218.403 349.161 218.033 349.046 217.753C349.489 217.247 349.683 216.779 349.629 216.348C349.609 216.176 349.649 216.005 349.741 215.866C350.028 215.421 350.403 215.332 350.867 215.599Z" fill="#D9DEFF"/>
</svg>
