<svg width="355" height="148" viewBox="0 0 355 148" fill="none" xmlns="http://www.w3.org/2000/svg">
<path d="M50.4703 92.7883C44.2324 93.7933 37.8796 94.0846 31.4117 93.6622C29.8025 93.5477 28.4488 92.8394 27.3508 91.5374C24.4397 88.0496 21.4559 84.5641 18.3994 81.0807C15.8896 78.2047 14.4575 74.4768 11.9704 71.7138C9.03272 68.4417 8.50688 64.3361 8.48014 59.6069C8.45954 57.1985 9.32069 55.6334 11.0636 54.9115C20.2664 51.044 30.4038 48.0289 41.4755 45.8662C93.9096 35.6282 150.486 29.9579 205.231 24.8742C205.299 24.8674 205.364 24.8327 205.417 24.7753C205.47 24.718 205.507 24.6409 205.524 24.5555L205.652 23.8181C205.708 23.511 205.615 23.3507 205.374 23.3373C175.923 20.9642 146.297 20.7654 116.496 22.7408C113.214 22.955 109.936 23.0205 106.661 22.9373C101.545 22.8198 90.8183 22.8736 92.3706 12.2018C92.6331 10.4419 92.8915 8.66948 93.1458 6.88439C93.2811 5.9399 93.6567 5.0711 94.2134 4.41473C94.7702 3.75836 95.4764 3.35167 96.221 3.25867C110.116 1.47665 125.796 0.457992 143.263 0.202705C187.85 -0.458686 233.801 1.48729 281.178 7.77514C296.026 9.73158 310.451 12.8371 324.454 17.0918C324.912 17.2304 325.327 17.5283 325.657 17.9534C325.986 18.3785 326.216 18.9146 326.323 19.5039C327.365 25.2762 326.899 31.0388 327.558 36.9201C328.063 41.4029 327.964 46.1251 327.262 51.0867C327.17 51.702 326.938 52.2164 326.567 52.6301C323.272 56.2808 319.518 56.9837 315.545 58.7539C314.523 59.2181 314.544 59.5357 315.608 59.7067C328.244 61.7633 340.51 64.3948 352.404 67.6013C353.882 67.9939 354.543 69.1599 354.386 71.0993C353.417 83.0321 354.392 92.8769 351.497 106.024C350.255 111.65 346.398 114.711 342.155 115.35C333.754 116.619 324.51 117.661 314.423 118.476C313.83 118.53 313.45 118.925 313.283 119.66L312.663 122.455C312.571 122.859 312.392 123.225 312.148 123.514C311.904 123.802 311.604 124.002 311.281 124.09L309.204 124.644C308.575 124.808 308.366 125.268 308.575 126.024L309.838 130.71C310.007 131.328 309.847 131.759 309.36 132.005C304.783 134.269 300.205 134.827 295.626 133.678C294.901 133.489 294.724 133.802 295.094 134.617L297.317 139.524C297.395 139.697 297.433 139.896 297.426 140.099C297.419 140.301 297.368 140.499 297.278 140.669C297.189 140.839 297.064 140.974 296.919 141.059C296.773 141.145 296.614 141.177 296.457 141.151C277.007 138.281 257.383 136.902 237.583 137.015C212.054 137.156 185.351 137.548 157.473 138.191C150.817 138.354 143.626 138.76 135.899 139.409C128.473 140.037 121.135 140.373 113.887 140.416C82.7186 140.553 51.6407 142.364 20.6534 145.849C20.1567 145.909 19.7051 146.113 19.2987 146.463C18.8412 146.859 18.3518 147.136 17.8303 147.293C17.3577 147.44 16.944 147.312 16.5893 146.907C15.5064 145.68 14.3722 144.767 13.1866 144.168C9.85524 142.493 6.58284 137.937 5.0526 134.147C3.50617 130.301 3.26794 126.069 4.3379 121.451C4.36005 121.35 4.35857 121.245 4.33363 121.148C4.30869 121.05 4.26142 120.965 4.19788 120.904C4.13433 120.842 4.05739 120.807 3.97687 120.802C3.89634 120.798 3.8159 120.824 3.74582 120.878C3.11892 121.364 2.6064 121.36 2.20824 120.867C1.81077 120.361 1.77393 119.806 2.09772 119.204C2.49867 118.432 2.69433 117.612 2.68471 116.742C2.66682 116.022 2.38612 115.59 1.84259 115.448C0.602616 115.131 0.0398237 114.293 0.154216 112.935C0.201768 112.255 0.440481 111.704 0.870354 111.281C4.64139 107.495 8.66694 104.872 12.947 103.41C25.1252 99.2743 37.5905 96.0601 50.3432 93.7677C50.5381 93.7413 50.6232 93.6034 50.5984 93.3538L50.5664 92.8867C50.5609 92.8119 50.5288 92.7791 50.4703 92.7883Z" fill="#3E426B"/>
</svg>
