<svg width="275" height="117" viewBox="0 0 275 117" fill="none" xmlns="http://www.w3.org/2000/svg">
<path d="M39.871 71.0517C35.0345 71.6602 30.132 71.7044 25.1632 71.1844C23.9273 71.0476 22.9069 70.4516 22.1021 69.3963C19.9694 66.5705 17.7807 63.7442 15.5359 60.9175C13.6931 58.5841 12.7073 55.6125 10.8784 53.3685C8.71852 50.7114 8.44259 47.4693 8.57072 43.7515C8.6306 41.858 9.34313 40.6529 10.7083 40.1362C17.9186 37.364 25.8219 35.289 34.4181 33.9111C75.1285 27.3888 118.886 24.5769 161.214 22.1729C161.267 22.1695 161.318 22.1442 161.361 22.1006C161.403 22.0571 161.434 21.9976 161.45 21.9309L161.572 21.3551C161.624 21.1153 161.558 20.9867 161.373 20.9691C138.762 18.2477 115.948 17.2302 92.9316 17.9164C90.397 17.9893 87.8697 17.9455 85.3497 17.7849C81.4127 17.5438 73.1484 17.2742 74.6798 8.93167C74.9373 7.55615 75.1921 6.17058 75.444 4.77495C75.578 4.03655 75.8946 3.36463 76.3441 2.86493C76.7936 2.36523 77.3504 2.06612 77.9268 2.01467C88.6856 1.01802 100.796 0.673272 114.258 0.980424C148.623 1.75685 183.956 4.62222 220.252 10.9416C231.627 12.911 242.64 15.7712 253.293 19.5223C253.641 19.6446 253.952 19.8908 254.192 20.2345C254.432 20.5782 254.593 21.0062 254.656 21.4725C255.278 26.0396 254.737 30.5553 255.06 35.1969C255.308 38.7349 255.083 42.4435 254.387 46.3228C254.296 46.8037 254.101 47.2013 253.802 47.5156C251.15 50.2891 248.236 50.7324 245.12 52.0082C244.318 52.3434 244.324 52.5936 245.139 52.7589C254.807 54.7427 264.172 57.1676 273.234 60.0336C274.359 60.3851 274.832 61.3207 274.65 62.8405C273.528 72.1911 273.969 79.9571 271.326 90.206C270.193 94.592 267.126 96.8858 263.837 97.2641C257.326 98.0174 250.173 98.5679 242.378 98.9154C241.919 98.9405 241.614 99.2395 241.463 99.8125L240.897 101.991C240.813 102.306 240.664 102.589 240.467 102.808C240.27 103.028 240.033 103.176 239.781 103.236L238.164 103.611C237.674 103.722 237.499 104.077 237.636 104.677L238.461 108.398C238.572 108.888 238.436 109.222 238.052 109.401C234.456 111.048 230.912 111.353 227.421 110.317C226.868 110.147 226.722 110.388 226.982 111.039L228.54 114.961C228.594 115.099 228.617 115.257 228.606 115.416C228.594 115.575 228.548 115.729 228.474 115.859C228.399 115.99 228.299 116.093 228.185 116.156C228.07 116.219 227.946 116.239 227.826 116.215C212.935 113.393 197.862 111.739 182.607 111.252C162.939 110.621 142.358 110.153 120.864 109.847C115.732 109.782 110.18 109.892 104.208 110.177C98.4679 110.455 92.8057 110.506 87.2211 110.329C63.2087 109.531 39.2134 110.051 15.2353 111.889C14.8508 111.921 14.4966 112.068 14.1725 112.331C13.8077 112.63 13.422 112.833 13.0153 112.941C12.6467 113.043 12.3321 112.93 12.0715 112.602C11.276 111.606 10.4311 110.856 9.53674 110.35C7.02335 108.937 4.64601 105.261 3.58647 102.238C2.51625 99.1702 2.46584 95.8369 3.43524 92.2381C3.45545 92.16 3.45763 92.077 3.44148 91.9997C3.42533 91.9224 3.3916 91.8544 3.34458 91.8042C3.29757 91.754 3.23941 91.724 3.17753 91.7181C3.11565 91.7121 3.05287 91.7304 2.99719 91.7707C2.49902 92.1346 2.10436 92.1168 1.81319 91.7171C1.52295 91.3078 1.512 90.8711 1.78035 90.4071C2.11346 89.8121 2.28998 89.1729 2.3099 88.4895C2.31879 87.9226 2.11613 87.5754 1.70193 87.448C0.756796 87.1626 0.349646 86.4877 0.480483 85.4232C0.538489 84.8903 0.739699 84.4639 1.08411 84.1442C4.10787 81.2785 7.29113 79.3336 10.6339 78.3093C20.1444 75.4126 29.8472 73.2487 39.7422 71.8177C39.8932 71.8027 39.9631 71.6967 39.9519 71.4999L39.9419 71.1318C39.94 71.0729 39.9164 71.0462 39.871 71.0517Z" fill="#FED0D8"/>
</svg>
