<svg width="56" height="62" viewBox="0 0 56 62" fill="none" xmlns="http://www.w3.org/2000/svg">
<path d="M28.0819 23.5325C28.3039 18.1533 28.6481 12.9448 29.1145 7.90691C29.171 7.33673 29.3722 6.30515 29.7183 4.81217C30.3559 2.0888 31.7722 -0.263185 34.9152 0.023782C41.1898 0.592088 46.4036 5.99942 49.0783 11.4574C50.109 13.5618 50.9798 15.8219 51.6908 18.2377C55.8099 32.2484 59.1899 47.9866 50.9121 61.1251C49.8739 62.7738 47.2782 61.716 46.0538 61.0013C37.1666 55.8247 27.7321 51.6384 19.302 46.7993C12.243 42.7424 5.52824 36.8624 1.69123 29.6882C0.128219 26.7679 -1.32759 21.5744 2.07493 19.56C3.1997 18.8961 4.52385 18.5059 6.04737 18.3896C14.011 17.7819 21.2261 19.5638 27.6926 23.7351C27.9409 23.8964 28.0706 23.8289 28.0819 23.5325ZM36.8901 34.848C36.8976 35.6583 36.497 36.0334 35.6882 35.9734C33.1942 35.7821 30.9992 34.8649 29.1032 33.2219C27.67 31.984 27.9409 30.4929 27.9747 28.7992C27.9822 28.5441 27.8882 28.3341 27.6926 28.169C22.7722 23.9001 17.2706 22.3171 11.1878 23.42C8.78405 23.8532 7.0969 25.0124 7.74016 27.7864C10.0142 37.6051 20.9609 44.4417 29.8537 48.6224C34.2625 50.6931 38.6243 52.7937 42.939 54.9244C43.1159 55.0107 43.2494 54.9675 43.3397 54.795C48.1641 45.5502 47.8087 35.315 45.4387 24.9336C44.4607 20.6347 43.3058 16.5534 41.9741 12.6897C41.361 10.9116 40.5748 9.1842 39.6155 7.50741C39.5868 7.45497 39.5432 7.41215 39.4902 7.38429C39.4372 7.35643 39.3771 7.34477 39.3175 7.35077C39.2579 7.35678 39.2014 7.38018 39.155 7.41805C39.1087 7.45592 39.0745 7.50657 39.0569 7.56368C38.9177 8.01383 38.8105 8.47898 38.7353 8.95913C37.3961 17.6582 36.781 26.2878 36.8901 34.848Z" fill="#FF5739"/>
</svg>
