<svg width="72" height="79" viewBox="0 0 72 79" fill="none" xmlns="http://www.w3.org/2000/svg">
<path d="M36.1053 29.985C36.3907 23.1308 36.8333 16.4941 37.433 10.0749C37.5055 9.34841 37.7643 8.03398 38.2092 6.13164C39.029 2.66154 40.85 -0.335348 44.891 0.0303028C52.9583 0.754435 59.6618 7.64443 63.1006 14.599C64.4258 17.2804 65.5455 20.1602 66.4596 23.2384C71.7556 41.0907 76.1013 61.1442 65.4585 77.8853C64.1236 79.986 60.7863 78.6381 59.212 77.7275C47.7856 71.1315 35.6555 65.7973 24.8168 59.6314C15.741 54.4621 7.10774 46.9698 2.17444 37.8286C0.164853 34.1075 -1.7069 27.49 2.66777 24.9232C4.1139 24.0772 5.81638 23.5801 7.77519 23.4319C18.0142 22.6576 27.2907 24.928 35.6048 30.2431C35.924 30.4486 36.0908 30.3626 36.1053 29.985ZM47.4302 44.4031C47.4398 45.4355 46.9247 45.9135 45.8849 45.837C42.6782 45.5933 39.8561 44.4246 37.4185 42.3311C35.5757 40.7538 35.924 38.8538 35.9675 36.6958C35.9772 36.3707 35.8563 36.1031 35.6048 35.8928C29.2785 30.4534 22.2051 28.4363 14.3843 29.8416C11.2938 30.3937 9.12459 31.8706 9.95164 35.4052C12.8753 47.9162 26.9497 56.6273 38.3834 61.9544C44.0518 64.5928 49.6598 67.2694 55.2074 69.9843C55.4347 70.0943 55.6064 70.0393 55.7224 69.8194C61.9253 58.0397 61.4683 44.9982 58.4212 31.7702C57.1637 26.2926 55.6789 21.0923 53.9668 16.1691C53.1784 13.9035 52.1676 11.7024 50.9342 9.5659C50.8973 9.49908 50.8413 9.44452 50.7731 9.40902C50.7049 9.37352 50.6277 9.35865 50.5511 9.36631C50.4744 9.37396 50.4017 9.40378 50.3422 9.45203C50.2826 9.50029 50.2387 9.56483 50.216 9.6376C50.0371 10.2112 49.8992 10.8039 49.8025 11.4157C48.0807 22.4999 47.2899 33.4957 47.4302 44.4031Z" fill="#EC87FF"/>
</svg>
