<svg width="349" height="235" viewBox="0 0 349 235" fill="none" xmlns="http://www.w3.org/2000/svg">
<path fill-rule="evenodd" clip-rule="evenodd" d="M253.285 185.042C246.623 180.336 232.232 173.488 225.253 181.612C219.467 188.31 227.985 193.749 234.255 197.003C254.116 207.281 273.022 218.136 290.974 229.569C295.306 232.319 307.085 237.872 310.799 231.871C311.052 231.466 311.121 231.002 310.993 230.556C310.134 227.301 307.739 224.23 303.805 221.343C287.004 209.021 270.164 196.921 253.285 185.042ZM4.44332 222.036C14.4631 223.024 24.2652 218.078 32.4788 213.716C42.7657 208.263 53.0166 202.786 63.2316 197.282C64.3443 196.683 65.4519 196.1 66.547 195.523C74.2219 191.484 81.2838 187.767 85.2216 180.849C86.4203 178.741 85.8471 176.658 84.2709 174.773C79.1534 168.625 71.4683 170.522 65.5443 174.296C46.4146 186.461 27.8827 198.415 9.94846 210.157C6.44974 212.446 3.81493 215.357 2.044 218.888C1.88097 219.214 1.81605 219.567 1.85456 219.919C1.89307 220.27 2.03386 220.612 2.26593 220.916C2.49803 221.221 2.81519 221.48 3.19281 221.675C3.57041 221.869 3.99834 221.993 4.44332 222.036ZM150.07 220.539C148.638 214.504 146.861 205.654 147.944 198.923C148.654 194.445 155.292 191.887 159.384 195.675C160.981 197.145 161.795 199.211 161.825 201.876C161.837 202.616 161.858 203.401 161.88 204.219C162.074 211.478 162.339 221.345 156.708 225.927C156.372 226.203 155.91 226.364 155.42 226.374C154.93 226.384 154.452 226.243 154.087 225.981C151.891 224.413 150.552 222.599 150.07 220.539ZM19.3371 151.852C19.5096 152.066 19.7377 152.249 20.006 152.388C23.1111 153.988 26.23 154.658 29.3629 154.399C37.4912 153.723 46.3051 152.432 55.8045 150.526C61.5076 149.388 66.4132 144.663 60.9312 140.507C59.1878 139.183 55.7683 138.846 53.6306 139.309C45.2906 141.12 36.5663 143.199 27.4574 145.545C24.392 146.338 21.7482 147.743 19.5258 149.757C19.3173 149.945 19.1629 150.166 19.0733 150.406C18.9837 150.646 18.961 150.899 19.0065 151.149C19.052 151.398 19.1647 151.638 19.3371 151.852ZM268.489 139.959C281.496 140.441 308.181 142.837 315.109 151.561C315.275 151.772 315.375 152.01 315.401 152.255C315.426 152.5 315.377 152.745 315.257 152.97C315.136 153.194 314.949 153.39 314.71 153.542C314.472 153.694 314.189 153.797 313.886 153.843C310.708 154.342 307.492 154.342 304.238 153.841C292.175 151.998 278.243 150.874 262.441 150.469C257.661 150.341 254.701 148.824 253.56 145.918C253.207 145.001 253.314 144.019 253.859 143.176C254.404 142.334 255.345 141.698 256.484 141.401C260.741 140.309 264.742 139.829 268.489 139.959ZM335.22 71.4387C318.786 76.1251 302.137 81.1526 285.839 86.1633C279.797 88.0157 267.184 94.215 276.182 100.179C280.204 102.832 289.824 100.45 294.05 98.8396C306.464 94.0908 318.936 89.3053 331.464 84.483C337.429 82.1776 346.147 78.6753 348.261 74.1296C348.409 73.8078 348.47 73.4641 348.439 73.1205C348.408 72.7768 348.286 72.4409 348.081 72.1342C347.876 71.8275 347.593 71.5569 347.25 71.3397C346.906 71.1225 346.51 70.9634 346.087 70.8727C342.425 70.0916 338.667 70.4547 335.22 71.4387ZM51.5481 91.0249C43.2172 88.6867 2.66566 77.1072 0.508404 70.7133C0.344047 70.2171 0.317294 69.7005 0.429829 69.1992C0.542365 68.698 0.791546 68.224 1.16029 67.8101C1.52904 67.3961 2.00846 67.052 2.56549 66.8016C3.12248 66.5512 3.74379 66.4005 4.38646 66.3598C7.62822 66.153 10.9863 66.4878 14.461 67.3641C29.3091 71.1444 43.0197 74.9238 55.5927 78.7024C59.9924 80.0321 67.4347 82.9929 66.4485 87.4762C65.1947 93.2865 57.3032 92.6342 51.5481 91.0249ZM226.389 52.0359C223.767 53.5231 221.743 55.5056 220.316 57.9835C215.683 65.9954 212.259 73.9187 210.043 81.7534C209.702 82.9587 209.836 84.2245 210.428 85.3835C211.02 86.5426 212.042 87.5405 213.359 88.2457C213.794 88.4739 214.282 88.5974 214.822 88.6162C218.975 88.7317 221.61 87.2256 222.728 84.0979C225.647 75.8519 228.625 66.9736 231.661 57.4632C232.222 55.667 231.232 53.904 229.898 52.4776C229.501 52.0556 228.909 51.7723 228.252 51.6896C227.595 51.6069 226.925 51.7313 226.389 52.0359ZM92.2309 53.6564C92.0434 53.3586 91.9643 53.0269 92.0026 52.6986C92.0409 52.3704 92.1952 52.0586 92.4478 51.7985C92.7005 51.5385 93.0417 51.3405 93.4327 51.2268C93.8237 51.1132 94.2492 51.0884 94.6609 51.1553C96.1651 51.4013 97.5121 52.0971 98.7021 53.2425C103.843 58.1762 109.02 63.1547 114.232 68.1781C116.374 70.2379 116.179 72.1244 113.648 73.8374C113.333 74.0492 112.983 74.2162 112.597 74.3383C110.484 74.9814 108.739 74.5769 107.363 73.1248C101.942 67.4066 96.8977 60.9171 92.2309 53.6564ZM157.131 17.8233C156.074 12.1649 154.499 3.73346 148.277 0.205667C148.133 0.124472 147.969 0.0700792 147.795 0.046616C147.622 0.0231528 147.445 0.0312653 147.278 0.07038C147.111 0.109479 146.958 0.178499 146.831 0.272122C146.704 0.365746 146.607 0.481466 146.547 0.610309C145.105 3.88171 144.516 7.18278 144.782 10.5136C145.807 23.4677 147.057 36.4731 148.534 49.5301C148.93 52.9913 149.462 55.1936 150.13 56.1368C153.243 60.5158 160.286 60.1217 161.926 55.3998C162.663 53.2853 162.856 51.118 162.503 48.8977C160.961 39.1408 159.179 28.8332 157.159 17.975L157.131 17.8233Z" fill="#060B41"/>
</svg>
