<svg width="349" height="235" viewBox="0 0 349 235" fill="none" xmlns="http://www.w3.org/2000/svg">
<path fill-rule="evenodd" clip-rule="evenodd" d="M253.286 185.044C246.624 180.338 232.233 173.489 225.254 181.613C219.468 188.312 227.986 193.75 234.255 197.004C254.117 207.283 273.023 218.138 290.975 229.57C295.307 232.321 307.086 237.873 310.8 231.872C311.053 231.468 311.121 231.004 310.993 230.557C310.135 227.303 307.739 224.232 303.806 221.345C287.004 209.023 270.164 196.923 253.286 185.044ZM4.44478 222.038C14.4645 223.026 24.2666 218.08 32.4802 213.717C42.7672 208.265 53.0181 202.787 63.2331 197.284C64.3458 196.684 65.4534 196.101 66.5484 195.525C74.2234 191.485 81.2852 187.769 85.2231 180.851C86.4218 178.742 85.8486 176.66 84.2723 174.775C79.1549 168.626 71.4698 170.523 65.5458 174.297C46.4161 186.463 27.8842 198.416 9.94992 210.159C6.4512 212.448 3.81639 215.358 2.04549 218.889C1.88243 219.216 1.81751 219.568 1.85602 219.92C1.89453 220.272 2.03532 220.613 2.26739 220.918C2.49949 221.222 2.81665 221.482 3.19425 221.676C3.57187 221.87 3.9998 221.994 4.44478 222.038ZM150.071 220.54C148.639 214.506 146.862 205.656 147.945 198.925C148.654 194.446 155.293 191.888 159.385 195.677C160.982 197.146 161.796 199.213 161.826 201.877C161.838 202.618 161.859 203.403 161.881 204.221C162.075 211.479 162.339 221.346 156.709 225.928C156.373 226.205 155.911 226.365 155.421 226.375C154.931 226.385 154.453 226.244 154.088 225.982C151.891 224.414 150.552 222.601 150.071 220.54ZM19.3355 151.853C19.5079 152.067 19.7361 152.25 20.0043 152.39C23.1094 153.989 26.2283 154.66 29.3612 154.401C37.4896 153.725 46.3035 152.434 55.8029 150.527C61.506 149.39 66.4115 144.665 60.9295 140.509C59.1862 139.184 55.7666 138.847 53.629 139.31C45.289 141.122 36.5646 143.2 27.4557 145.546C24.3903 146.34 21.7465 147.744 19.5241 149.759C19.3156 149.946 19.1612 150.167 19.0717 150.408C18.9821 150.648 18.9593 150.901 19.0048 151.15C19.0503 151.4 19.163 151.64 19.3355 151.853ZM268.488 139.961C281.496 140.443 308.18 142.839 315.108 151.563C315.274 151.773 315.374 152.011 315.4 152.257C315.425 152.502 315.376 152.747 315.256 152.971C315.135 153.195 314.948 153.392 314.709 153.544C314.471 153.696 314.188 153.799 313.885 153.844C310.707 154.344 307.491 154.343 304.237 153.843C292.174 151.999 278.242 150.875 262.44 150.47C257.661 150.343 254.7 148.826 253.559 145.92C253.206 145.003 253.313 144.02 253.858 143.178C254.403 142.335 255.344 141.699 256.484 141.402C260.74 140.311 264.742 139.83 268.488 139.961ZM335.22 71.4403C318.786 76.1267 302.137 81.1542 285.839 86.1649C279.797 88.0173 267.184 94.2166 276.182 100.18C280.204 102.833 289.824 100.452 294.05 98.8412C306.464 94.0924 318.936 89.3069 331.464 84.4846C337.429 82.1793 346.147 78.6769 348.261 74.1312C348.409 73.8094 348.47 73.4657 348.439 73.1221C348.408 72.7784 348.286 72.4425 348.081 72.1358C347.876 71.8291 347.593 71.5585 347.25 71.3413C346.906 71.1241 346.51 70.965 346.087 70.8744C342.425 70.0932 338.667 70.4563 335.22 71.4403ZM51.5463 91.0263C43.2154 88.6882 2.66386 77.1086 0.506603 70.7147C0.342246 70.2185 0.315493 69.7019 0.428029 69.2006C0.540565 68.6994 0.789745 68.2255 1.15849 67.8115C1.52724 67.3976 2.00666 67.0535 2.56368 66.8031C3.12068 66.5527 3.74199 66.4019 4.38466 66.3612C7.62642 66.1544 10.9845 66.4892 14.4592 67.3655C29.3073 71.1458 43.0179 74.9253 55.5909 78.7038C59.9906 80.0336 67.4329 82.9944 66.4467 87.4776C65.1929 93.2879 57.3014 92.6356 51.5463 91.0263ZM226.388 52.0377C223.766 53.5249 221.741 55.5074 220.315 57.9853C215.682 65.9973 212.258 73.9205 210.042 81.7552C209.7 82.9605 209.835 84.2263 210.427 85.3854C211.019 86.5444 212.041 87.5423 213.358 88.2475C213.793 88.4757 214.28 88.5992 214.821 88.618C218.974 88.7335 221.609 87.2274 222.726 84.0997C225.645 75.8537 228.623 66.9754 231.66 57.465C232.22 55.6688 231.23 53.9058 229.896 52.4794C229.499 52.0574 228.908 51.7741 228.251 51.6914C227.593 51.6087 226.924 51.7332 226.388 52.0377ZM92.2328 53.6582C92.0452 53.3605 91.9661 53.0287 92.0045 52.7004C92.0428 52.3722 92.197 52.0604 92.4497 51.8004C92.7024 51.5403 93.0435 51.3423 93.4346 51.2287C93.8256 51.115 94.251 51.0902 94.6628 51.1571C96.167 51.4032 97.514 52.0989 98.704 53.2443C103.845 58.1781 109.022 63.1566 114.234 68.1799C116.376 70.2397 116.181 72.1262 113.649 73.8393C113.335 74.0511 112.984 74.218 112.599 74.3402C110.486 74.9832 108.741 74.5787 107.365 73.1266C101.944 67.4084 96.8996 60.919 92.2328 53.6582ZM157.129 17.8248C156.072 12.1664 154.497 3.73499 148.275 0.207197C148.132 0.126002 147.967 0.0716092 147.794 0.048146C147.621 0.0246981 147.444 0.0327958 147.276 0.0718947C147.109 0.111009 146.956 0.180029 146.83 0.273652C146.703 0.367276 146.606 0.482996 146.545 0.611839C145.103 3.88324 144.515 7.18431 144.78 10.5151C145.805 23.4692 147.056 36.4747 148.532 49.5316C148.928 52.9929 149.46 55.1951 150.129 56.1383C153.242 60.5173 160.284 60.1232 161.924 55.4013C162.662 53.2868 162.854 51.1195 162.501 48.8993C160.959 39.1423 159.178 28.8347 157.157 17.9765L157.129 17.8248Z" fill="#EC87FF"/>
</svg>
