<svg width="14" height="14" viewBox="0 0 14 14" fill="none" xmlns="http://www.w3.org/2000/svg">
<path d="M2.7962 7.58317C1.88659 6.04213 1.33222 4.20981 1.19857 2.15172C1.17766 1.82962 1.1672 1.66856 1.23092 1.52808C1.28467 1.4096 1.38691 1.3005 1.50166 1.2392C1.63771 1.1665 1.80938 1.1665 2.15271 1.1665H3.6057C3.88088 1.1665 4.01847 1.1665 4.13294 1.2146C4.23394 1.25703 4.32179 1.32563 4.38746 1.41332C4.46187 1.5127 4.49525 1.64618 4.56199 1.91315L5.0061 3.6896C5.09557 4.04749 5.14031 4.22643 5.13357 4.40204C5.1276 4.55755 5.09222 4.71052 5.02931 4.85286C4.95827 5.0136 4.83952 5.15473 4.60201 5.437L2.7962 7.58317ZM2.7962 7.58317C3.64501 9.02121 4.80315 10.2056 6.21741 11.0832M6.21741 11.0832C7.79896 12.0645 9.70079 12.6621 11.8485 12.8016C12.1706 12.8225 12.3316 12.833 12.4721 12.7692C12.5906 12.7155 12.6997 12.6133 12.761 12.4985C12.8337 12.3624 12.8337 12.1908 12.8337 11.8476C12.8337 11.371 12.8337 10.8574 12.8337 10.3943C12.8337 10.1192 12.8337 9.98169 12.7856 9.86722C12.7431 9.76622 12.6745 9.67837 12.5868 9.61271C12.4875 9.53829 12.354 9.50492 12.087 9.43818L10.2431 8.97719C9.90896 8.89366 9.74192 8.8519 9.57692 8.85542C9.43073 8.85854 9.28627 8.88765 9.15028 8.9414C8.9968 9.00207 8.85897 9.10527 8.5833 9.31167L6.21741 11.0832Z" stroke="black" stroke-width="0.5" stroke-linecap="round" stroke-linejoin="round"/>
</svg>
