<svg width="14" height="14" viewBox="0 0 14 14" fill="none" xmlns="http://www.w3.org/2000/svg">
<path d="M2.79522 7.58366C1.88561 6.04262 1.33124 4.2103 1.1976 2.15221C1.17668 1.8301 1.16622 1.66905 1.22995 1.52857C1.28369 1.41009 1.38593 1.30099 1.50068 1.23968C1.63674 1.16699 1.8084 1.16699 2.15173 1.16699H3.60473C3.87991 1.16699 4.0175 1.16699 4.13196 1.21508C4.23296 1.25752 4.32082 1.32611 4.38648 1.4138C4.4609 1.51319 4.49427 1.64667 4.56101 1.91364L5.00512 3.69009C5.09459 4.04798 5.13933 4.22692 5.13259 4.40252C5.12662 4.55803 5.09125 4.71101 5.02834 4.85335C4.9573 5.01409 4.83854 5.15522 4.60104 5.43749L2.79522 7.58366ZM2.79522 7.58366C3.64403 9.0217 4.80217 10.2061 6.21644 11.0837M6.21644 11.0837C7.79798 12.065 9.69981 12.6626 11.8475 12.8021C12.1696 12.823 12.3306 12.8334 12.4711 12.7697C12.5896 12.716 12.6987 12.6137 12.76 12.499C12.8327 12.3629 12.8327 12.1913 12.8327 11.8481C12.8327 11.3715 12.8327 10.8579 12.8327 10.3948C12.8327 10.1197 12.8327 9.98218 12.7846 9.86771C12.7422 9.76671 12.6736 9.67886 12.5859 9.61319C12.4865 9.53877 12.353 9.5054 12.086 9.43866L10.2421 8.97767C9.90799 8.89415 9.74094 8.85239 9.57594 8.85591C9.42975 8.85903 9.28529 8.88814 9.14931 8.94189C8.99582 9.00255 8.85799 9.10576 8.58233 9.31216L6.21644 11.0837Z" stroke="white" stroke-width="0.5" stroke-linecap="round" stroke-linejoin="round"/>
</svg>
