<svg width="20" height="14" viewBox="0 0 20 14" fill="none" xmlns="http://www.w3.org/2000/svg">
<path d="M0.00288063 9.6C0.00288063 4.10182 2.60688 0 7.81488 0V1.39636C5.54688 1.39636 4.20288 2.44364 3.95088 5.49818C6.13488 5.49818 7.89888 7.33091 7.81488 9.6C7.81488 11.8691 6.05088 13.7018 3.86688 13.7018C1.68288 13.7018 -0.0811194 11.8691 0.00288063 9.6ZM19.6589 1.39636C17.3909 1.39636 16.0469 2.44364 15.7949 5.49818C17.9789 5.49818 19.6589 7.33091 19.6589 9.6C19.6589 11.8691 17.8949 13.7018 15.7109 13.7018C13.5269 13.7018 11.7629 11.8691 11.7629 9.6C11.7629 4.10182 14.3669 0 19.6589 0V1.39636Z" fill="#DBDBDB"/>
</svg>
