<svg width="24" height="24" viewBox="0 0 24 24" fill="none" xmlns="http://www.w3.org/2000/svg">
<path fill-rule="evenodd" clip-rule="evenodd" d="M16.4316 1.85803C15.5324 1.91055 15.0829 1.93681 14.6615 2.05635C14.2878 2.16238 13.9316 2.32227 13.604 2.531C13.2346 2.76634 12.9162 3.08478 12.2793 3.72166L5.57911 10.4218C5.3241 10.6768 5.19659 10.8043 5.09702 10.9204C3.8205 12.4087 3.8109 14.6028 5.07435 16.1022C5.1729 16.2191 5.29929 16.3477 5.55207 16.605C5.58416 16.6376 5.60021 16.654 5.61479 16.6667C5.80181 16.8297 6.08006 16.8309 6.2685 16.6695C6.28318 16.657 6.29937 16.6408 6.33175 16.6084L8.94013 14C9.23302 13.7071 9.7079 13.7071 10.0008 14C10.2937 14.2929 10.2937 14.7678 10.0008 15.0607L7.39243 17.669C7.36003 17.7014 7.34383 17.7176 7.33126 17.7323C7.16992 17.9208 7.17114 18.199 7.33412 18.386C7.34682 18.4006 7.36316 18.4166 7.39584 18.4488C7.65319 18.7016 7.78186 18.8281 7.89887 18.9267C9.39819 20.19 11.5922 20.1804 13.0804 18.904C13.1965 18.8044 13.3241 18.6768 13.5792 18.4217L20.2987 11.7022C20.9286 11.0723 21.2435 10.7574 21.4772 10.3924C21.6845 10.0687 21.8441 9.71676 21.951 9.3475C22.0714 8.93118 22.1008 8.48677 22.1594 7.59795L22.2038 6.92476C22.3275 5.04994 22.3893 4.11254 22.0554 3.40805C21.7621 2.78946 21.2662 2.28975 20.6498 1.99188C19.9479 1.65266 19.01 1.70744 17.1343 1.81699L16.4316 1.85803ZM17.0034 8.99953C17.0034 10.1041 16.1079 10.9995 15.0034 10.9995C13.8988 10.9995 13.0034 10.1041 13.0034 8.99953C13.0034 7.89496 13.8988 6.99953 15.0034 6.99953C16.1079 6.99953 17.0034 7.89496 17.0034 8.99953Z" fill="#6922BC" fill-opacity="0.867"/>
<path d="M1.95912 9.154C1.40398 8.78252 1.12641 8.59677 1.00811 8.35257C0.904339 8.13837 0.880375 7.89418 0.940521 7.6639C1.00909 7.40135 1.24526 7.16519 1.71759 6.69287L2.22135 6.18913C3.07228 5.33823 3.49774 4.91277 3.99146 4.63975C4.58508 4.31148 5.25243 4.13957 5.93077 4.14018C6.49495 4.14068 7.07302 4.30762 8.22915 4.6415C8.60379 4.74969 8.79111 4.80378 8.88582 4.9066C8.9993 5.02979 9.04356 5.20161 9.00373 5.36429C8.97048 5.50007 8.83261 5.63794 8.55688 5.91367L4.43512 10.0354C4.26966 10.2009 4.18693 10.2836 4.08949 10.3217C4.00357 10.3553 3.91003 10.3645 3.81922 10.3483C3.71623 10.3298 3.619 10.2647 3.42452 10.1346L1.95912 9.154Z" fill="#6922BC" fill-opacity="0.867"/>
<path d="M14.3663 20.046C14.2362 19.8516 14.1711 19.7543 14.1526 19.6513C14.1364 19.5605 14.1456 19.467 14.1792 19.381C14.2173 19.2836 14.3 19.2009 14.4655 19.0354L18.5873 14.9136C18.8631 14.6378 19.0009 14.5 19.1367 14.4667C19.2994 14.4269 19.4711 14.4711 19.5943 14.5846C19.6972 14.6793 19.7513 14.8666 19.8595 15.2412C20.1937 16.3978 20.3608 16.976 20.3613 17.5404C20.362 18.2187 20.1901 18.886 19.8619 19.4796C19.5889 19.9735 19.1632 20.3992 18.312 21.2504L17.8087 21.7537C17.3364 22.226 17.1003 22.4621 16.8377 22.5307C16.6075 22.5909 16.3633 22.5669 16.1491 22.4631C15.9049 22.3449 15.7191 22.0673 15.3476 21.5123L14.3663 20.046Z" fill="#6922BC" fill-opacity="0.867"/>
</svg>
