<svg width="634" height="152" viewBox="0 0 634 152" fill="none" xmlns="http://www.w3.org/2000/svg">
<path d="M136.606 117.921L129.264 97.063C128.915 96.0866 129.042 95.0591 129.627 94.1407C130.212 93.2223 131.222 92.4646 132.498 91.9859L148.171 86.0192C169.119 81.5353 188.672 77.2521 206.83 73.1695C210.787 72.2797 215.656 69.2178 221.21 70.8927C222.326 71.2242 223.391 71.1544 224.405 70.6833C225.952 69.9854 227.309 69.5319 228.476 69.3225C242.855 66.8101 256.17 63.9314 271.462 62.3612C284.827 61.0003 298.002 59.0026 310.987 56.3681C317.53 55.0596 326.47 55.3214 333.85 51.579C334.94 51.0207 335.841 51.1428 336.551 51.9453L337.388 52.8613C338.072 53.6464 339.087 53.9779 340.431 53.8558C349.003 53.0358 357.486 51.9366 365.881 50.5583C384.787 47.4964 403.275 46.1617 421.953 42.8642C430.208 41.3987 438.729 42.0006 447.403 40.6397C450.674 40.1338 454.808 39.8023 459.804 39.6453C467.945 39.4098 473.233 36.1647 481.374 37.5255C482.616 37.7349 483.872 37.7349 485.14 37.5255C493.762 36.1821 502.423 35.4754 511.122 35.4057C511.274 35.4057 511.35 35.3533 511.35 35.2486L511.312 34.5944C511.312 34.1233 510.97 33.8878 510.285 33.8878C481.323 33.6436 462.099 33.251 452.615 32.7101C438.92 31.9425 418.948 31.8204 392.7 32.3438C364.752 32.9021 336.817 33.4953 308.895 34.1233C271.361 34.9782 222.579 38.8253 162.55 45.6645C108.532 50.0088 56.3392 54.0128 2.1305 48.3862C0.913179 48.2641 0.291818 47.7756 0.266458 46.9207L0.000199358 33.2336C-0.0107236 32.4391 0.42759 31.6729 1.2226 31.0967C2.0176 30.5205 3.10703 30.1794 4.2608 30.1455C12.782 29.8663 21.2526 29.2382 29.6724 28.2612C36.4437 27.4761 43.532 25.8622 50.9374 23.4197C59.2557 20.6631 69.0703 19.215 80.3812 19.0754C92.2501 18.9533 104.068 18.3078 115.836 17.1388C135.896 15.1324 156.109 12.7247 176.473 9.91577C181.596 9.60173 186.783 9.03472 192.032 8.21471C203.559 6.40896 212.194 6.25196 223.112 6.27813C224.405 6.27813 225.61 6.07747 226.726 5.67619C234.334 3.00681 241.334 4.99572 247.648 4.6555C271.234 3.36443 294.858 2.64917 318.519 2.5096C319.407 2.5096 320.054 2.73635 320.459 3.18997C320.992 3.78317 321.753 4.01875 322.742 3.89662C327.053 3.42556 331.365 2.98938 335.676 2.5881C339.936 2.20427 342.954 2.71895 344.73 4.13215C345.541 4.79513 346.53 4.96088 347.697 4.62939C348.585 4.38513 349.092 3.92279 349.219 3.24236C349.371 2.30023 350.144 1.89889 351.539 2.03847C355.242 2.38741 359.008 2.36999 362.837 1.98616C364.055 1.86403 365.158 2.05595 366.147 2.56191C368.277 3.66106 370.484 3.87915 372.766 3.21617C373.907 2.88468 375.099 2.74509 376.342 2.79743C391.203 3.37318 406.065 4.03619 420.926 4.7864C428.725 5.20513 441.05 4.86488 448.963 3.68721C473.208 0.023366 497.668 -0.909983 522.344 0.887048C529.42 1.41045 535.887 0.0233786 542.81 0.756148C556.606 2.18679 570.377 3.48656 584.123 4.6555C599.568 5.93785 614.176 9.13071 629.544 11.3552C630.787 11.5471 631.459 12.0704 631.56 12.9253C632.093 17.7145 631.789 21.6662 633.196 26.7433C634.566 31.8029 634.185 36.8538 632.055 41.8959C631.7 42.7334 630.888 43.2132 629.62 43.3354C613.897 44.766 598.693 45.7517 584.009 46.2925C563.086 47.0602 547.92 47.8105 538.511 48.5432C465.32 54.3007 397.455 61.9773 334.915 71.5731C327.028 72.7769 327.117 73.6057 335.181 74.0593C345.123 74.6351 355.521 74.3646 366.375 73.248C371.701 72.7246 380.831 76.2053 386.537 73.7191C387.577 73.2655 388.718 73.0648 389.961 73.1171C405.405 73.9023 417.997 73.5882 428.002 79.555C428.991 80.1308 429.612 80.8549 429.866 81.7272C431.996 88.6711 433.416 95.4841 434.127 102.166C434.786 108.552 431.451 112.975 424.122 115.435C404.467 122.047 383.697 129.261 361.81 137.078C351.691 140.689 341.357 145.513 330.807 151.55C330.452 151.757 330.027 151.899 329.571 151.963C329.115 152.026 328.641 152.009 328.195 151.912C327.748 151.816 327.342 151.644 327.014 151.411C326.686 151.178 326.446 150.893 326.318 150.581C322.361 140.846 315.971 130.692 322.247 120.067C325.975 113.707 334.192 110.672 342.447 107.296C342.654 107.215 342.827 107.098 342.948 106.957C343.07 106.816 343.136 106.656 343.14 106.492C343.143 106.328 343.085 106.166 342.97 106.023C342.856 105.879 342.688 105.759 342.485 105.673C342.054 105.499 341.357 105.455 340.393 105.542C308.629 108.473 277.625 111.3 245.518 115.487C209.721 120.172 180.582 120.512 147.79 122.03C142.198 122.291 140.03 120.538 136.606 117.921ZM293.031 6.81195C293.037 6.56213 292.335 6.31324 291.077 6.11992C289.82 5.9266 288.11 5.80471 286.325 5.78113C284.539 5.75754 282.824 5.83419 281.557 5.99413C280.289 6.15408 279.573 6.38422 279.566 6.63401C279.559 6.88384 280.262 7.13281 281.52 7.32613C282.777 7.51945 284.487 7.64126 286.272 7.66484C288.057 7.68842 289.772 7.61186 291.04 7.45192C292.307 7.29197 293.023 7.06175 293.031 6.81195ZM305.699 13.8413C305.395 13.8413 305.078 13.8413 304.748 13.8413C304.723 13.8413 304.71 13.8413 304.71 13.8413C304.71 13.8239 304.723 13.8151 304.748 13.8151C308.248 13.9547 311.05 14.0071 313.155 13.9722C315.844 13.9024 315.882 13.6319 313.27 13.1609C311.012 12.777 308.793 12.9515 306.612 13.6843C306.283 13.789 305.978 13.8413 305.699 13.8413ZM207.857 22.0327C210.241 21.2999 210.14 20.951 207.553 20.9859L200.021 21.0906C199.643 21.0963 199.282 21.1987 199.007 21.3777C198.733 21.5567 198.566 21.7995 198.537 22.0588L198.461 22.7916C198.451 22.8715 198.464 22.952 198.502 23.028C198.539 23.104 198.599 23.1738 198.678 23.233C198.757 23.2921 198.852 23.3393 198.959 23.3714C199.066 23.4036 199.181 23.42 199.298 23.4197C202.088 23.3673 204.941 22.905 207.857 22.0327ZM382.847 83.2189C394.297 83.0619 405.481 84.4751 416.095 83.69C416.729 83.6551 417.021 83.4195 416.97 82.9833L416.894 82.2768C416.868 82.0675 416.716 81.9714 416.437 81.9888C405 82.268 393.854 82.7565 382.999 83.4544C382.822 83.4718 382.733 83.4282 382.733 83.3236C382.733 83.3061 382.733 83.2974 382.733 83.2974C382.707 83.245 382.745 83.2189 382.847 83.2189Z" fill="#3E426B"/>
</svg>
