<svg width="158" height="160" viewBox="0 0 158 160" fill="none" xmlns="http://www.w3.org/2000/svg">
<path d="M116.703 18.6434L111.361 21.3254L108.69 22.6444C93.3824 29.8221 78.1831 37.3296 63.9609 46.277C62.7015 47.0684 62.7739 47.2223 64.1781 46.7386C66.9574 45.786 70.0081 44.6611 73.3302 43.3641C74.0106 43.093 74.6982 42.9867 75.393 43.0454C75.7477 43.0747 76.0841 43.0051 76.4026 42.8365C79.2326 41.3709 81.9142 40.2241 84.4474 39.396C86.4885 38.7219 90.9939 37.3479 97.9639 35.2741L102.621 34.8344C102.998 34.8051 103.32 34.9224 103.588 35.1862L106.096 37.6703C107.97 39.5829 109.447 41.9865 110.525 44.881C110.655 45.2254 110.576 45.5075 110.286 45.7274C106.932 48.3544 103.881 50.6297 99.8205 52.5423C95.2462 54.6967 90.9831 57.0637 87.0313 59.6431C85.6706 60.5298 85.7466 60.6873 87.2593 60.1158C93.3498 57.8075 99.5056 55.0815 106.693 55.5541C106.888 55.5688 107.138 55.5212 107.442 55.4112C107.76 55.3013 107.995 55.4002 108.147 55.708C108.394 56.2283 108.734 56.4811 109.168 56.4664L114.89 65.3259C115.092 65.6337 115.165 65.9708 115.107 66.3372C114.781 68.4183 113.703 69.8216 111.871 70.547C111.806 69.8582 111.531 69.5138 111.046 69.5138C110.344 69.5065 109.635 69.4405 108.918 69.316C108.549 69.25 108.26 69.3709 108.05 69.6787C107.601 70.3529 107.626 71.0893 108.126 71.8881L106.704 73.361L105.596 73.0862C105.242 72.9982 104.916 73.0605 104.619 73.273C103.019 74.4528 101.818 75.8708 101.015 77.5269C100.964 77.63 100.891 77.7197 100.8 77.7888C100.709 77.858 100.603 77.9045 100.491 77.9248C100.379 77.9451 100.264 77.9386 100.155 77.9058C100.046 77.8729 99.9465 77.8147 99.8638 77.7357C98.9663 76.893 97.8952 76.7062 96.6503 77.1752C96.0785 77.395 96.0967 77.5086 96.7046 77.5159L98.1811 77.5269C98.3047 77.5237 98.426 77.5617 98.5262 77.6351C98.6264 77.7085 98.7 77.8131 98.7357 77.933C98.7715 78.0528 98.7674 78.1813 98.7241 78.2986C98.6808 78.4158 98.6005 78.5154 98.4959 78.5821C95.76 80.4397 93.4476 82.5062 90.5706 84.111C87.7117 85.7012 84.6536 87.4709 81.3966 89.4201C80.8972 89.7279 80.4449 89.6656 80.0396 89.2333C79.7645 88.9401 79.4208 88.7606 79.0082 88.6947C78.9065 88.6786 78.8025 88.6864 78.7043 88.7174C78.6062 88.7484 78.5166 88.8017 78.4429 88.8732C78.3691 88.9447 78.3131 89.0324 78.2793 89.1292C78.2455 89.226 78.235 89.3294 78.2483 89.4311C78.2773 89.6509 78.3714 89.8305 78.5306 89.9697C78.9504 90.3508 78.925 90.6952 78.4545 91.003C75.0962 93.2307 71.5967 95.0076 67.9561 96.334C67.7607 96.4073 67.5291 96.4403 67.2613 96.4329C67.0514 96.4256 66.8488 96.4329 66.6533 96.4549C66.2987 96.4916 65.9838 96.6235 65.7088 96.8506C65.3035 97.1877 64.8186 97.3783 64.2541 97.4222C63.8922 97.4515 63.6859 97.283 63.6352 96.9166C63.5846 96.5575 63.3964 96.3267 63.0707 96.2241C62.7232 96.1069 62.4229 96.1838 62.1695 96.4549C61.7642 96.8726 61.2974 97.1657 60.769 97.3343C60.4289 97.4369 60.1068 97.5908 59.8028 97.7959L46.5794 106.721C46.3321 106.886 46.1391 107.123 46.0257 107.403C45.7868 108.004 45.3779 108.403 44.7989 108.601C44.2705 108.769 43.7747 109.019 43.3115 109.348C39.5551 111.964 35.8892 114.595 32.3137 117.241C31.9156 117.534 31.5176 117.574 31.1195 117.362C31.0178 117.309 30.9385 117.221 30.8965 117.114C30.8545 117.007 30.8527 116.887 30.8915 116.779C31.7383 114.449 33.1425 113.419 35.1039 113.69C35.5237 113.749 35.7336 113.566 35.7336 113.141V112.558C35.7336 112.082 35.5201 111.939 35.093 112.129C33.1099 113.016 31.4271 114.302 30.0447 115.988C29.7986 116.281 29.7841 116.581 30.0012 116.889C30.4138 117.475 30.982 117.882 31.7058 118.109C32.0387 118.212 32.3644 118.197 32.6829 118.065C43.5033 113.646 51.8268 110.118 57.6532 107.48C60.3456 106.256 62.9114 105.329 65.3505 104.699C66.4362 104.42 67.4567 104.028 68.4121 103.523C69.4182 102.995 70.4423 102.596 71.4846 102.325C74.1408 101.628 75.5196 101.262 75.6209 101.225C80.4485 99.5986 85.2834 97.9975 90.1254 96.422L99.4947 93.4102L103.447 92.256C112.805 89.4934 122.21 87.1741 131.663 85.2982C134.442 84.7486 141.307 83.8069 152.258 82.4733C152.62 82.4293 152.891 82.5722 153.072 82.9019C154.259 85.1369 155.729 88.3319 157.48 92.4868C157.969 93.652 158.457 94.8941 157.22 95.7624C155.859 96.7151 154.571 96.8213 153.355 96.0812C153.036 95.8907 152.692 95.8137 152.323 95.8504C150.427 96.0262 148.646 96.5392 146.982 97.3893C145.107 98.3492 142.74 99.0783 139.882 99.5766C139.397 99.6646 138.995 99.9027 138.676 100.291C138.416 100.614 138.094 100.852 137.71 101.006C137.312 101.167 137.059 101.035 136.95 100.61C136.921 100.515 136.914 100.412 136.928 100.302C136.95 100.068 136.863 99.8881 136.668 99.7635C136.197 99.4557 135.814 99.5143 135.517 99.9393C135.097 100.54 134.692 101.156 134.301 101.786C134.113 102.086 133.852 102.299 133.519 102.424C132.18 102.929 131.283 103.882 130.827 105.281C130.711 105.633 130.472 105.805 130.111 105.798C129.199 105.776 128.392 105.49 127.689 104.941C127.407 104.714 127.114 104.706 126.81 104.919L124.096 106.809C123.821 107 123.694 107.264 123.716 107.601C123.774 108.429 123.423 109 122.663 109.315L121.143 109.689L120.372 108.359C120.169 108.015 119.916 107.967 119.612 108.216C114.473 112.349 108.973 115.9 103.11 118.867C103.016 117.644 101.789 117.475 99.4297 118.362C99.0895 118.494 98.8181 118.71 98.6154 119.01C97.9133 120.066 97.0412 120.241 95.9989 119.538C95.6949 119.333 95.3837 119.314 95.0653 119.483C94.2619 119.886 93.6358 120.48 93.1871 121.264C93.0134 121.564 92.7563 121.711 92.4162 121.703C91.8733 121.689 91.4536 121.89 91.1569 122.308C90.9542 122.601 90.6936 122.832 90.3751 123C88.7358 123.913 86.3582 124.693 85.2291 126.21C84.0783 127.76 83.3617 129.562 80.8647 128.98C80.5028 128.899 80.2025 129.006 79.9636 129.299C79.7392 129.584 79.6633 129.903 79.7357 130.255C79.8153 130.636 80.0396 130.768 80.4088 130.651C81.3424 130.358 82.3015 130.281 83.2858 130.42C83.6332 130.471 83.9733 130.438 84.3063 130.321L89.4415 128.551C89.6792 128.465 89.9337 128.433 90.1869 128.458C90.4401 128.483 90.6859 128.563 90.9071 128.694C92.2823 129.493 92.6623 130.248 92.0471 130.958C91.7431 131.303 91.6599 131.699 91.7974 132.146C92.2172 133.494 93.1074 134.058 94.4681 133.838C94.7759 133.788 95.0678 133.675 95.3258 133.509L95.8904 133.124C96.4549 132.75 96.625 132.886 96.4006 133.531C96.1618 134.197 95.7528 134.575 95.1738 134.663C94.3125 134.795 93.4439 134.982 92.5682 135.223C90.6031 136.421 90.3752 138.422 87.9867 138.928C87.2774 139.074 86.93 139.528 86.9445 140.291C85.6851 139.543 84.6536 139.213 83.8503 139.301C83.4666 139.338 83.34 139.543 83.4703 139.917C84.4546 142.687 83.5861 144.698 80.8647 145.951C72.0563 150.004 63.143 153.818 54.1248 157.394C51.027 158.618 47.8315 159.482 44.5383 159.988C44.1909 160.039 43.905 159.926 43.6807 159.647C43.2175 159.039 42.7072 158.563 42.1498 158.218C39.5732 156.643 36.8482 154.188 33.9748 150.854C33.7287 150.575 33.7324 150.304 33.9857 150.04C52.0512 131.288 75.3278 118.549 98.3005 106.436C99.6612 105.725 101.203 105.047 102.925 104.402C103.063 104.351 103.106 104.252 103.056 104.105L102.947 103.809C102.94 103.787 102.925 103.776 102.904 103.776C100.602 104.336 98.344 105.523 96.3029 106.084C92.8795 107.036 89.4595 107.985 86.0433 108.931C85.6959 109.026 85.3956 109.206 85.1423 109.469C82.7321 111.932 80.4414 110.634 77.8575 111.8C74.8031 113.177 72.3748 114.467 70.5726 115.669C69.2915 116.526 68.0901 117.054 66.9682 117.252C65.5569 117.515 64.102 117.633 62.6038 117.603C61.2359 117.574 59.9186 117.776 58.652 118.208C56.9077 118.809 55.167 119.212 53.4299 119.417C52.8582 119.483 52.7025 119.776 52.9631 120.296C53.0789 120.516 53.2671 120.692 53.5277 120.824C53.9764 121.058 54.0089 121.344 53.6253 121.681C52.7858 122.429 51.8883 122.59 50.9329 122.165C50.6 122.018 50.2525 121.956 49.8907 121.978C47.3719 122.125 45.1174 122.993 43.127 124.583C42.6276 124.986 42.0558 125.217 41.4116 125.276C40.9916 125.319 40.5882 125.47 40.2391 125.715C39.2476 126.426 39.005 127.053 39.5117 127.595C39.765 127.866 39.718 128.06 39.3705 128.178C39.0231 128.295 38.6721 128.313 38.3175 128.232C38.1003 128.181 37.9701 128.049 37.9267 127.837C37.8832 127.588 37.7385 127.448 37.4924 127.419C36.9278 127.346 36.4791 127.441 36.1462 127.705C35.8928 127.903 35.806 128.163 35.8856 128.485C36.0086 128.984 35.5381 129.335 34.4742 129.54C34.7203 129.145 34.6298 128.775 34.2028 128.43C34.1202 128.368 34.0508 128.289 33.9985 128.198C33.9463 128.108 33.9124 128.007 33.8988 127.903L33.584 125.671C33.5731 125.584 33.5428 125.5 33.4954 125.427C33.448 125.353 33.3846 125.29 33.3098 125.244C33.235 125.198 33.1507 125.169 33.0629 125.159C32.9751 125.149 32.8861 125.159 32.8023 125.188C32.672 125.232 32.5562 125.298 32.4549 125.386C32.4018 125.43 32.358 125.485 32.3259 125.547C32.2939 125.608 32.2743 125.676 32.2682 125.746C32.2621 125.815 32.2697 125.885 32.2906 125.952C32.3115 126.018 32.3452 126.08 32.3897 126.133C33.0411 126.91 33.4066 127.855 33.4863 128.969C33.5152 129.35 33.7179 129.54 34.0942 129.54H34.4742C34.4525 129.892 34.2426 130.138 33.8445 130.277C29.7986 131.728 26.2268 133.582 23.129 135.839C21.515 137.011 20.2484 137.656 19.3292 137.773C17.1144 138.07 15.5619 137.323 13.8249 135.718C11.3495 133.432 8.7512 131.468 6.0298 129.826C5.87417 129.733 5.74003 129.607 5.63619 129.457C5.53235 129.307 5.4611 129.136 5.42726 128.955C5.39341 128.774 5.39769 128.588 5.43978 128.409C5.48187 128.229 5.56086 128.061 5.67151 127.914C7.67637 125.254 9.98522 122.802 12.5981 120.56C22.7671 111.825 31.0291 105.355 37.3838 101.148C41.1619 98.6496 44.9184 96.1142 48.653 93.5421C53.2997 90.3325 58.2503 87.4636 63.0489 84.4078C63.143 84.3492 63.1647 84.2686 63.1141 84.166C63.0634 84.0707 62.9874 84.0414 62.8861 84.0781C57.816 86.2325 53.7014 88.7826 47.8822 87.4086C46.9485 87.1888 46.4781 86.5769 46.4708 85.573C46.4636 85.2066 46.3405 84.8878 46.1017 84.6166C44.2561 82.5355 42.5407 80.1723 40.9556 77.5269C40.7529 77.1896 40.6664 76.7934 40.7096 76.3999C40.7528 76.0063 40.9232 75.6374 41.1945 75.3505C44.8857 71.474 49.004 67.92 53.5493 64.6884C53.6724 64.6005 53.7267 64.4795 53.7122 64.3256C53.705 64.223 53.6652 64.1205 53.5928 64.0179C53.5494 63.9666 53.4987 63.9556 53.4408 63.9849C51.2803 65.0071 48.7181 65.5897 46.7639 66.579C35.2124 72.3754 26.69 76.5083 21.1965 78.9778C18.0553 80.3921 14.0745 81.6672 9.25419 82.803C8.90678 82.8909 8.59557 82.814 8.32053 82.5722L4.21669 79.0218C3.61595 78.1278 2.83793 77.3144 1.88254 76.5816C-1.07047 74.3026 -0.549345 71.8221 3.4459 69.1401L35.6576 48.0137C35.8096 47.9111 35.8422 47.7828 35.7553 47.629L35.6251 47.3871C35.5527 47.2626 35.4549 47.2333 35.3319 47.2992C29.1798 50.5821 22.9915 53.6708 16.767 56.5654C14.4726 57.6352 12.0444 58.6905 9.4822 59.731C8.67881 60.0535 7.95503 59.9215 7.31087 59.3353C6.0515 58.1775 4.54964 56.3565 2.80533 53.8724C2.28421 53.1323 2.3566 52.4581 3.02248 51.8498C3.47122 51.4395 4.01405 50.9449 4.65098 50.366C6.43147 48.7392 6.38803 46.5408 8.77649 45.3866C10.6113 44.5073 12.2723 43.9907 14.0094 42.7925C16.6259 40.9679 20.0023 39.7038 22.2713 38.4398C29.842 34.2189 34.9266 31.5552 37.525 30.4486C43.7784 27.7996 50.0753 24.513 56.0464 22.1278C59.8969 20.5889 63.7402 19.0391 67.5762 17.4782C83.2315 11.1396 99.1872 5.71324 115.443 1.19924L122.63 0.01213C123.028 -0.0464934 123.311 0.107374 123.477 0.47377C123.578 0.693608 123.6 0.964731 123.542 1.28716C123.47 1.65356 123.521 2.00165 123.694 2.3314L128.211 11.2238C128.339 11.4758 128.363 11.7695 128.278 12.0411C128.193 12.3128 128.005 12.5405 127.755 12.6748L116.703 18.6434ZM47.5999 41.9791C47.267 42.1843 47.2959 42.3126 47.6868 42.3639C48.4323 42.4518 49.0005 42.1257 49.3913 41.3856C49.6663 40.8653 49.5541 40.759 49.0547 41.0668L47.5999 41.9791ZM95.1738 61.8305C92.7202 62.3141 90.643 62.9956 88.9421 63.875C88.1025 64.3073 88.1532 64.5821 89.0941 64.6994C90.1653 64.8386 91.1894 64.5382 92.1665 63.798C92.4919 63.5548 92.8817 63.4169 93.2848 63.4023C94.298 63.3657 95.228 63.0799 96.0749 62.545C96.1643 62.4885 96.2348 62.4059 96.277 62.3081C96.3191 62.2103 96.331 62.1019 96.311 61.9971C96.291 61.8923 96.2401 61.7962 96.165 61.7213C96.0899 61.6464 95.9942 61.5963 95.8904 61.5777C95.5647 61.519 95.3258 61.6033 95.1738 61.8305ZM81.2772 66.6999C81.2794 66.6272 81.2617 66.5554 81.2262 66.4922C81.1907 66.4291 81.1387 66.377 81.0759 66.3418C81.0131 66.3066 80.942 66.2896 80.8702 66.2927C80.7985 66.2957 80.729 66.3187 80.6693 66.3591C80.2206 66.6669 79.9238 67.037 79.779 67.4693C79.6125 67.953 79.7718 68.1252 80.2568 67.986C80.9154 67.8028 81.2555 67.3741 81.2772 66.6999ZM82.9717 109.474C83.0248 109.486 83.0814 109.476 83.1386 109.447C83.1957 109.418 83.2522 109.37 83.3048 109.305C83.3573 109.24 83.4049 109.159 83.4448 109.068C83.4848 108.977 83.5163 108.877 83.5376 108.774C83.5589 108.671 83.5695 108.567 83.5689 108.467C83.5683 108.368 83.5564 108.275 83.5339 108.194C83.5115 108.113 83.4789 108.046 83.4381 107.996C83.3972 107.946 83.3489 107.915 83.2959 107.903C83.2429 107.892 83.1861 107.901 83.1289 107.93C83.0718 107.96 83.0154 108.008 82.9628 108.073C82.9103 108.138 82.8626 108.218 82.8226 108.309C82.7827 108.4 82.7511 108.5 82.7299 108.604C82.7086 108.707 82.698 108.811 82.6986 108.911C82.6992 109.01 82.7111 109.103 82.7336 109.184C82.756 109.265 82.7887 109.332 82.8295 109.382C82.8704 109.432 82.9187 109.463 82.9717 109.474ZM28.3268 118.941C28.3091 118.905 28.2428 118.894 28.1315 118.908C28.0203 118.922 27.8664 118.962 27.6787 119.024C27.491 119.087 27.2731 119.171 27.0374 119.272C26.8017 119.373 26.5529 119.489 26.3051 119.614C26.0574 119.738 25.8155 119.869 25.5934 119.998C25.3714 120.127 25.1734 120.252 25.0107 120.365C24.8481 120.479 24.724 120.579 24.6456 120.66C24.5672 120.741 24.536 120.802 24.5537 120.838C24.5715 120.874 24.6378 120.885 24.749 120.871C24.8603 120.857 25.0141 120.817 25.2018 120.755C25.3896 120.693 25.6075 120.608 25.8432 120.507C26.0789 120.406 26.3277 120.29 26.5755 120.165C26.8232 120.041 27.0651 119.91 27.2872 119.781C27.5092 119.653 27.7072 119.528 27.8699 119.414C28.0325 119.3 28.1566 119.2 28.235 119.119C28.3134 119.038 28.3446 118.978 28.3268 118.941ZM29.6436 127.009C29.5991 126.902 29.2029 126.948 28.5423 127.139C27.8816 127.329 27.0105 127.648 26.1206 128.025C25.68 128.211 25.2481 128.407 24.8494 128.599C24.4508 128.792 24.0932 128.979 23.7972 129.148C23.5012 129.318 23.2725 129.467 23.1243 129.588C22.976 129.709 22.911 129.798 22.933 129.851C22.9775 129.959 23.3737 129.912 24.0343 129.722C24.695 129.532 25.5661 129.213 26.4559 128.836C26.8966 128.649 27.3285 128.454 27.7272 128.261C28.1259 128.068 28.4834 127.882 28.7794 127.712C29.0754 127.543 29.304 127.393 29.4523 127.273C29.6006 127.152 29.6656 127.063 29.6436 127.009ZM90.3968 132.069C91.0844 131.373 91.146 130.61 90.5815 129.782C90.5331 129.712 90.4612 129.663 90.3793 129.643C90.2975 129.622 90.211 129.633 90.1363 129.672L89.8975 129.804C89.7535 129.884 89.6425 130.013 89.5847 130.168C89.5269 130.324 89.5262 130.495 89.5826 130.651C89.959 131.64 89.9987 132.651 89.702 133.684C89.5934 134.058 89.7273 134.197 90.1037 134.102C90.2485 134.066 90.3932 133.956 90.538 133.772C90.8854 133.318 90.8492 132.922 90.4295 132.585C90.2196 132.424 90.2087 132.252 90.3968 132.069ZM77.3233 132.709C77.4045 132.737 77.4931 132.739 77.5841 132.715C77.675 132.691 77.7666 132.643 77.8535 132.572C77.9404 132.501 78.0208 132.409 78.0903 132.302C78.1599 132.194 78.2171 132.073 78.2588 131.946C78.3004 131.818 78.3256 131.687 78.333 131.559C78.3404 131.431 78.3298 131.308 78.3018 131.199C78.2739 131.09 78.229 130.995 78.1699 130.921C78.1107 130.847 78.0385 130.795 77.9573 130.768C77.8761 130.741 77.7874 130.739 77.6965 130.763C77.6055 130.787 77.514 130.835 77.4272 130.906C77.3403 130.977 77.2598 131.069 77.1902 131.176C77.1207 131.283 77.0634 131.404 77.0218 131.532C76.9801 131.659 76.9549 131.791 76.9475 131.919C76.9402 132.047 76.9508 132.169 76.9788 132.279C77.0068 132.388 77.0516 132.482 77.1107 132.556C77.1698 132.63 77.242 132.682 77.3233 132.709ZM72.7548 133.849C73.493 133.695 73.9274 133.432 74.0577 133.058C74.0863 132.98 74.0927 132.896 74.0761 132.815C74.0595 132.734 74.0207 132.659 73.964 132.599C73.9072 132.539 73.8348 132.497 73.7554 132.477C73.6759 132.457 73.5926 132.46 73.5148 132.486C72.943 132.662 72.6282 133.062 72.5703 133.684C72.568 133.709 72.5713 133.733 72.5801 133.756C72.5889 133.778 72.6029 133.798 72.6209 133.815C72.6389 133.831 72.6605 133.842 72.6837 133.848C72.707 133.854 72.7313 133.855 72.7548 133.849ZM83.7743 135.96C84.6356 135.916 85.4028 136.187 86.0759 136.773C86.3582 137.015 86.673 137.081 87.0204 136.971C87.4619 136.832 87.8057 136.48 88.0518 135.916C88.2182 135.542 88.1097 135.3 87.7262 135.19L83.9481 134.124C83.5934 134.022 83.3184 134.128 83.1229 134.443C82.4426 135.542 81.2158 136.396 79.4425 137.004C77.7851 137.576 77.8249 137.982 79.5619 138.224C80.966 138.422 82.1133 137.814 83.0035 136.399C83.1845 136.121 83.4414 135.974 83.7743 135.96ZM67.4924 136.288C67.4676 136.074 67.3256 135.882 67.0978 135.756C66.8699 135.629 66.5748 135.578 66.2774 135.614C65.98 135.649 65.7047 135.768 65.5119 135.944C65.3192 136.121 65.2248 136.341 65.2497 136.555C65.2745 136.769 65.4165 136.96 65.6444 137.087C65.8723 137.213 66.1674 137.265 66.4648 137.229C66.7621 137.194 67.0375 137.075 67.2302 136.898C67.423 136.722 67.5173 136.502 67.4924 136.288ZM75.1832 140.208C75.2333 140.239 75.2944 140.25 75.3632 140.24C75.432 140.23 75.5071 140.201 75.5841 140.152C75.6612 140.104 75.7387 140.038 75.8123 139.958C75.8859 139.879 75.954 139.787 76.013 139.688C76.0719 139.589 76.1204 139.485 76.1557 139.382C76.191 139.279 76.2123 139.179 76.2185 139.087C76.2248 138.996 76.2159 138.915 76.1921 138.849C76.1684 138.783 76.1305 138.733 76.0804 138.702C76.0304 138.672 75.9692 138.661 75.9005 138.67C75.8317 138.68 75.7566 138.71 75.6795 138.758C75.6025 138.806 75.5249 138.872 75.4513 138.952C75.3777 139.032 75.3096 139.124 75.2507 139.222C75.1917 139.321 75.1432 139.425 75.1079 139.528C75.0727 139.631 75.0514 139.732 75.0451 139.823C75.0389 139.915 75.0478 139.996 75.0715 140.062C75.0952 140.128 75.1331 140.178 75.1832 140.208ZM72.8959 140.148C72.862 140.054 72.7983 139.974 72.7154 139.922C72.6325 139.871 72.5353 139.849 72.4399 139.862C72.2372 139.891 72.1179 140.074 72.0817 140.411C72.0661 140.537 72.0949 140.664 72.1626 140.769C72.2304 140.874 72.3326 140.95 72.4508 140.983C72.6245 141.034 72.7765 141.023 72.9068 140.95C73.066 140.869 73.1131 140.749 73.0479 140.587L72.8959 140.148ZM82.1143 143.191C82.075 143.152 82.0192 143.129 81.9501 143.126C81.881 143.122 81.7999 143.137 81.7115 143.17C81.6231 143.204 81.5292 143.254 81.4349 143.319C81.3407 143.384 81.2482 143.462 81.1625 143.549C81.0768 143.636 80.9996 143.729 80.9354 143.825C80.8713 143.92 80.8215 144.015 80.7887 144.105C80.7559 144.194 80.7409 144.276 80.7445 144.346C80.748 144.416 80.7701 144.473 80.8094 144.513C80.8487 144.552 80.9045 144.575 80.9736 144.578C81.0427 144.582 81.1238 144.567 81.2122 144.533C81.3006 144.5 81.3945 144.45 81.4887 144.385C81.583 144.32 81.6755 144.242 81.7612 144.155C81.8469 144.068 81.9241 143.975 81.9882 143.879C82.0524 143.784 82.1022 143.689 82.1349 143.599C82.1677 143.51 82.1827 143.428 82.1792 143.358C82.1757 143.288 82.1536 143.231 82.1143 143.191Z" fill="#060B41"/>
</svg>
