<svg width="144" height="144" viewBox="0 0 144 144" fill="none" xmlns="http://www.w3.org/2000/svg">
<path d="M106.362 16.779L101.494 19.1928L99.0595 20.38C85.108 26.8399 71.2555 33.5966 58.2935 41.6493C57.1457 42.3616 57.2117 42.5 58.4914 42.0648C61.0244 41.2074 63.8048 40.195 66.8326 39.0277C67.4527 38.7837 68.0794 38.6881 68.7126 38.7408C69.0358 38.7672 69.3425 38.7046 69.6328 38.5529C72.212 37.2338 74.656 36.2017 76.9647 35.4564C78.8249 34.8497 82.9312 33.6131 89.2836 31.7467L93.5284 31.351C93.8714 31.3246 94.165 31.4301 94.4091 31.6676L96.6947 33.9033C98.4031 35.6246 99.7489 37.7878 100.732 40.3929C100.851 40.7029 100.778 40.9568 100.514 41.1546C97.4567 43.519 94.6762 45.5668 90.9756 47.2881C86.8067 49.2271 82.9213 51.3573 79.3197 53.6788C78.0795 54.4768 78.1488 54.6186 79.5274 54.1042C85.0783 52.0267 90.6886 49.5733 97.2389 49.9987C97.417 50.0119 97.6447 49.969 97.9217 49.8701C98.212 49.7712 98.4262 49.8602 98.5648 50.1372C98.7891 50.6055 99.0992 50.833 99.4949 50.8198L104.709 58.7933C104.894 59.0703 104.96 59.3737 104.907 59.7035C104.61 61.5765 103.628 62.8394 101.959 63.4923C101.899 62.8724 101.649 62.5624 101.207 62.5624C100.567 62.5558 99.9204 62.4965 99.2674 62.3844C98.931 62.325 98.6671 62.4338 98.4758 62.7108C98.0668 63.3176 98.0899 63.9804 98.5451 64.6993L97.2488 66.0249L96.2395 65.7776C95.9163 65.6984 95.6195 65.7545 95.349 65.9457C93.8912 67.0076 92.7962 68.2837 92.064 69.7742C92.018 69.867 91.951 69.9478 91.8681 70.01C91.7853 70.0722 91.6889 70.1141 91.5869 70.1324C91.4849 70.1506 91.3801 70.1448 91.2809 70.1152C91.1816 70.0857 91.0905 70.0332 91.0151 69.9622C90.1972 69.2037 89.2209 69.0356 88.0863 69.4576C87.5652 69.6555 87.5818 69.7577 88.1359 69.7643L89.4815 69.7742C89.5942 69.7714 89.7047 69.8056 89.7961 69.8716C89.8874 69.9376 89.9544 70.0318 89.987 70.1397C90.0196 70.2476 90.0159 70.3632 89.9764 70.4687C89.9369 70.5742 89.8638 70.6639 89.7684 70.7239C87.2749 72.3958 85.1674 74.2556 82.5453 75.6999C79.9398 77.1311 77.1527 78.7238 74.1843 80.4781C73.7291 80.7551 73.3168 80.699 72.9474 80.3099C72.6968 80.0461 72.3835 79.8846 72.0075 79.8252C71.9148 79.8107 71.82 79.8177 71.7305 79.8456C71.6411 79.8735 71.5595 79.9216 71.4922 79.9859C71.425 80.0502 71.374 80.1291 71.3432 80.2163C71.3124 80.3034 71.3027 80.3965 71.3149 80.488C71.3413 80.6858 71.4271 80.8475 71.5722 80.9728C71.9548 81.3157 71.9316 81.6257 71.5029 81.9027C68.4421 83.9076 65.2527 85.5069 61.9347 86.7006C61.7566 86.7666 61.5455 86.7962 61.3014 86.7896C61.1101 86.783 60.9254 86.7897 60.7473 86.8094C60.4241 86.8424 60.1372 86.9611 59.8865 87.1656C59.5171 87.4689 59.0752 87.6404 58.5607 87.68C58.2308 87.7064 58.0428 87.5547 57.9967 87.2249C57.9505 86.9018 57.779 86.694 57.4821 86.6017C57.1655 86.4962 56.8917 86.5654 56.6608 86.8094C56.2914 87.1854 55.866 87.4492 55.3844 87.6008C55.0744 87.6932 54.7809 87.8317 54.5038 88.0163L42.4521 96.0492C42.2267 96.1973 42.0509 96.4111 41.9475 96.6626C41.7298 97.2034 41.3571 97.5628 40.8294 97.7409C40.3478 97.8925 39.896 98.1168 39.4738 98.4136C36.0502 100.768 32.7091 103.136 29.4505 105.517C29.0877 105.78 28.7249 105.817 28.3621 105.625C28.2694 105.578 28.1971 105.499 28.1588 105.403C28.1205 105.306 28.1189 105.199 28.1543 105.101C28.9261 103.004 30.2058 102.077 31.9934 102.321C32.376 102.374 32.5673 102.209 32.5673 101.827V101.302C32.5673 100.874 32.3727 100.745 31.9835 100.916C30.1761 101.714 28.6425 102.872 27.3825 104.389C27.1582 104.653 27.145 104.923 27.3429 105.2C27.7189 105.728 28.2367 106.094 28.8964 106.298C29.1998 106.39 29.4967 106.377 29.7869 106.258C39.6486 102.282 47.2345 99.1061 52.5447 96.7318C54.9986 95.6304 57.337 94.7961 59.56 94.229C60.5494 93.9783 61.4795 93.6255 62.3503 93.1704C63.2672 92.6956 64.2006 92.3362 65.1505 92.0921C67.5714 91.4656 68.828 91.1358 68.9204 91.1029C73.3202 89.6387 77.7266 88.1977 82.1396 86.7798L90.6787 84.0691L94.2804 83.0304C102.81 80.5441 111.382 78.4567 119.997 76.7684C122.53 76.2737 128.786 75.4262 138.767 74.2259C139.097 74.1864 139.344 74.3149 139.509 74.6117C140.591 76.6232 141.93 79.4987 143.526 83.2382C143.971 84.2868 144.417 85.4047 143.289 86.1862C142.049 87.0436 140.874 87.1392 139.766 86.4731C139.476 86.3016 139.163 86.2323 138.826 86.2653C137.098 86.4236 135.475 86.8853 133.958 87.6503C132.25 88.5143 130.093 89.1705 127.487 89.619C127.045 89.6981 126.679 89.9124 126.389 90.262C126.151 90.5522 125.858 90.7665 125.508 90.905C125.145 91.0501 124.914 90.9314 124.815 90.5489C124.789 90.4631 124.782 90.3708 124.796 90.2719C124.815 90.0608 124.736 89.8993 124.558 89.7872C124.129 89.5102 123.78 89.5629 123.509 89.9454C123.127 90.4862 122.757 91.0402 122.401 91.6074C122.23 91.8778 121.992 92.0691 121.689 92.1812C120.468 92.6362 119.65 93.4936 119.235 94.7533C119.129 95.0698 118.912 95.2248 118.582 95.2182C117.751 95.1984 117.015 94.9412 116.375 94.4466C116.118 94.2422 115.851 94.2355 115.574 94.4268L113.1 96.1283C112.849 96.2998 112.734 96.5372 112.754 96.8406C112.807 97.5859 112.487 98.1003 111.794 98.3839L110.409 98.7203L109.706 97.5232C109.521 97.2132 109.291 97.1704 109.014 97.3946C104.33 101.114 99.3168 104.31 93.9736 106.981C93.8879 105.879 92.7699 105.728 90.6194 106.526C90.3094 106.644 90.062 106.839 89.8773 107.109C89.2375 108.059 88.4426 108.217 87.4927 107.584C87.2156 107.399 86.932 107.383 86.6418 107.535C85.9096 107.897 85.339 108.432 84.93 109.137C84.7717 109.408 84.5374 109.54 84.2274 109.533C83.7327 109.52 83.3502 109.701 83.0797 110.077C82.895 110.341 82.6574 110.549 82.3672 110.7C80.8731 111.521 78.7062 112.224 77.6771 113.589C76.6283 114.984 75.9752 116.606 73.6994 116.082C73.3696 116.009 73.0959 116.105 72.8782 116.369C72.6737 116.626 72.6045 116.913 72.6705 117.229C72.743 117.572 72.9475 117.691 73.284 117.586C74.1349 117.322 75.0089 117.253 75.9061 117.378C76.2227 117.424 76.5327 117.394 76.8361 117.289L81.5163 115.696C81.733 115.619 81.9649 115.59 82.1957 115.612C82.4264 115.634 82.6504 115.707 82.852 115.825C84.1053 116.544 84.4517 117.223 83.891 117.863C83.614 118.173 83.5381 118.529 83.6635 118.931C84.0461 120.145 84.8574 120.652 86.0975 120.455C86.3781 120.409 86.6441 120.308 86.8792 120.158L87.3938 119.811C87.9083 119.475 88.0633 119.597 87.8588 120.177C87.6411 120.778 87.2684 121.117 86.7407 121.196C85.9557 121.315 85.1641 121.483 84.3659 121.701C82.575 122.779 82.3672 124.58 80.1904 125.035C79.544 125.167 79.2274 125.576 79.2406 126.262C78.0928 125.589 77.1527 125.292 76.4205 125.371C76.0709 125.404 75.9555 125.589 76.0742 125.925C76.9713 128.418 76.1797 130.228 73.6994 131.356C65.6716 135.003 57.5481 138.436 49.3289 141.655C46.5056 142.756 43.5933 143.534 40.5919 143.989C40.2753 144.035 40.0147 143.933 39.8102 143.683C39.3881 143.135 38.923 142.706 38.4151 142.397C36.0667 140.979 33.5832 138.769 30.9644 135.768C30.7401 135.518 30.7434 135.274 30.9743 135.036C47.439 118.159 68.6532 106.694 89.5904 95.792C90.8305 95.1523 92.2355 94.5422 93.8055 93.9618C93.9308 93.9157 93.9704 93.8267 93.9242 93.6947L93.8253 93.4277C93.8187 93.4079 93.8055 93.398 93.7857 93.398C91.688 93.9025 89.63 94.9709 87.7698 95.4755C84.6497 96.3328 81.5328 97.1869 78.4192 98.0377C78.1026 98.1234 77.8289 98.285 77.598 98.5224C75.4014 100.738 73.3137 99.571 70.9587 100.62C68.175 101.86 65.9618 103.02 64.3193 104.102C63.1517 104.873 62.0568 105.348 61.0343 105.526C59.748 105.764 58.4221 105.869 57.0567 105.843C55.8099 105.817 54.6094 105.998 53.455 106.387C51.8652 106.928 50.2788 107.291 48.6956 107.475C48.1745 107.535 48.0327 107.798 48.2702 108.267C48.3757 108.465 48.5472 108.623 48.7847 108.742C49.1937 108.953 49.2233 109.21 48.8737 109.513C48.1085 110.186 47.2906 110.331 46.4199 109.948C46.1164 109.817 45.7998 109.76 45.47 109.78C43.1744 109.912 41.1196 110.694 39.3056 112.125C38.8504 112.488 38.3293 112.695 37.7422 112.748C37.3594 112.787 36.9918 112.923 36.6736 113.144C35.7699 113.784 35.5489 114.347 36.0107 114.835C36.2415 115.079 36.1987 115.254 35.882 115.36C35.5654 115.465 35.2455 115.482 34.9223 115.409C34.7244 115.363 34.6057 115.244 34.5661 115.053C34.5265 114.829 34.3945 114.704 34.1703 114.677C33.6557 114.611 33.2468 114.697 32.9433 114.934C32.7125 115.112 32.6333 115.347 32.7059 115.637C32.818 116.085 32.3892 116.402 31.4195 116.586C31.6438 116.23 31.5613 115.897 31.1721 115.587C31.0969 115.531 31.0336 115.46 30.986 115.379C30.9384 115.297 30.9075 115.207 30.8951 115.112L30.6082 113.104C30.5983 113.026 30.5707 112.95 30.5275 112.884C30.4842 112.817 30.4265 112.761 30.3583 112.72C30.2901 112.678 30.2133 112.652 30.1333 112.643C30.0533 112.634 29.9721 112.643 29.8958 112.669C29.777 112.709 29.6715 112.768 29.5791 112.847C29.5307 112.887 29.4908 112.936 29.4616 112.992C29.4324 113.048 29.4145 113.108 29.409 113.171C29.4035 113.234 29.4104 113.297 29.4294 113.356C29.4484 113.416 29.4791 113.472 29.5198 113.52C30.1134 114.219 30.4466 115.07 30.5191 116.072C30.5455 116.415 30.7302 116.586 31.0732 116.586H31.4195C31.3997 116.903 31.2085 117.124 30.8457 117.249C27.1582 118.555 23.9029 120.224 21.0796 122.255C19.6086 123.31 18.4542 123.891 17.6165 123.996C15.598 124.263 14.183 123.59 12.5999 122.146C10.3439 120.088 7.97578 118.321 5.49551 116.844C5.35367 116.76 5.23142 116.646 5.13678 116.511C5.04214 116.376 4.97721 116.222 4.94636 116.06C4.91552 115.897 4.91941 115.729 4.95778 115.568C4.99614 115.406 5.06813 115.254 5.16897 115.122C6.99619 112.728 9.10046 110.522 11.4818 108.504C20.7498 100.643 28.2797 94.8192 34.0713 91.0336C37.5147 88.7847 40.9382 86.5028 44.342 84.1879C48.5769 81.2992 53.0889 78.7172 57.4623 75.967C57.5481 75.9143 57.5678 75.8417 57.5217 75.7494C57.4755 75.6637 57.4063 75.6373 57.3139 75.6702C52.6931 77.6092 48.943 79.9043 43.6395 78.6677C42.7885 78.4699 42.3598 77.9192 42.3532 77.0157C42.3466 76.6859 42.2344 76.399 42.0167 76.155C40.3346 74.282 38.7713 72.1551 37.3267 69.7742C37.1419 69.4707 37.0631 69.1141 37.1024 68.7599C37.1418 68.4057 37.2971 68.0737 37.5443 67.8154C40.9085 64.3266 44.6619 61.128 48.8045 58.2196C48.9166 58.1404 48.9661 58.0316 48.9529 57.8931C48.9463 57.8007 48.91 57.7084 48.8441 57.6161C48.8045 57.5699 48.7583 57.56 48.7055 57.5864C46.7365 58.5064 44.4013 59.0308 42.6203 59.9211C32.0924 65.1378 24.3251 68.8575 19.3183 71.0801C16.4555 72.3529 12.8274 73.5005 8.4342 74.5227C8.11757 74.6018 7.83394 74.5326 7.58327 74.315L3.84306 71.1196C3.29555 70.315 2.58647 69.5829 1.71574 68.9234C-0.975616 66.8723 -0.500669 64.6399 3.14057 62.2261L32.4981 43.2123C32.6366 43.12 32.6663 43.0046 32.5871 42.8661L32.4684 42.6484C32.4024 42.5363 32.3134 42.5099 32.2012 42.5693C26.5942 45.5239 20.9542 48.3038 15.2813 50.9088C13.1902 51.8717 10.9772 52.8214 8.64201 53.7579C7.9098 54.0481 7.25016 53.9294 6.66307 53.4018C5.51529 52.3598 4.1465 50.7209 2.55676 48.4851C2.08181 47.819 2.14779 47.2123 2.75466 46.6649C3.16364 46.2955 3.65838 45.8504 4.23887 45.3294C5.86159 43.8652 5.822 41.8867 7.99883 40.848C9.67103 40.0566 11.1849 39.5916 12.7681 38.5133C15.1527 36.8711 18.2299 35.7334 20.2979 34.5958C27.1978 30.797 31.8318 28.3996 34.2 27.4038C39.8993 25.0196 45.6382 22.0617 51.0803 19.915C54.5896 18.53 58.0923 17.1352 61.5884 15.7304C75.8566 10.0256 90.3985 5.14192 105.214 1.07932L111.764 0.010917C112.127 -0.0418441 112.384 0.0966368 112.536 0.426393C112.628 0.624247 112.648 0.868258 112.595 1.15844C112.53 1.4882 112.576 1.80148 112.734 2.09826L116.85 10.1015C116.967 10.3282 116.989 10.5926 116.912 10.837C116.834 11.0815 116.662 11.2864 116.435 11.4073L106.362 16.779ZM43.3822 37.7812C43.0788 37.9659 43.1052 38.0813 43.4614 38.1275C44.1408 38.2066 44.6586 37.9131 45.0148 37.247C45.2655 36.7788 45.1633 36.6831 44.7081 36.9601L43.3822 37.7812ZM86.7407 55.6474C84.5045 56.0827 82.6113 56.6961 81.0611 57.4875C80.296 57.8766 80.3421 58.1239 81.1997 58.2294C82.176 58.3547 83.1093 58.0844 83.9998 57.4182C84.2964 57.1993 84.6517 57.0752 85.019 57.0621C85.9425 57.0291 86.7901 56.7719 87.5619 56.2905C87.6434 56.2397 87.7077 56.1654 87.7461 56.0773C87.7845 55.9893 87.7954 55.8917 87.7771 55.7974C87.7589 55.7031 87.7125 55.6165 87.644 55.5491C87.5756 55.4818 87.4883 55.4367 87.3938 55.4199C87.0969 55.3671 86.8792 55.443 86.7407 55.6474ZM74.0754 60.0299C74.0774 59.9645 74.0613 59.8999 74.0289 59.843C73.9966 59.7862 73.9492 59.7393 73.892 59.7077C73.8347 59.676 73.7699 59.6607 73.7045 59.6634C73.6392 59.6662 73.5758 59.6869 73.5214 59.7232C73.1124 60.0002 72.8419 60.3333 72.71 60.7224C72.5583 61.1577 72.7034 61.3127 73.1454 61.1874C73.7457 61.0225 74.0557 60.6367 74.0754 60.0299ZM75.6198 98.527C75.6681 98.5371 75.7198 98.5288 75.7719 98.5026C75.824 98.4764 75.8754 98.4328 75.9233 98.3743C75.9712 98.3158 76.0146 98.2435 76.051 98.1616C76.0874 98.0797 76.1162 97.9897 76.1356 97.8969C76.155 97.804 76.1646 97.7101 76.1641 97.6205C76.1635 97.5309 76.1526 97.4473 76.1322 97.3745C76.1117 97.3017 76.0821 97.2411 76.0448 97.1963C76.0076 97.1514 75.9636 97.1232 75.9152 97.1131C75.8669 97.103 75.8151 97.1113 75.7631 97.1375C75.711 97.1636 75.6596 97.2073 75.6117 97.2658C75.5638 97.3243 75.5203 97.3965 75.4839 97.4784C75.4475 97.5604 75.4188 97.6503 75.3994 97.7432C75.38 97.836 75.3703 97.9299 75.3709 98.0195C75.3714 98.1091 75.3823 98.1927 75.4027 98.2655C75.4232 98.3383 75.453 98.3989 75.4902 98.4437C75.5274 98.4886 75.5715 98.5169 75.6198 98.527ZM25.8169 107.047C25.8007 107.015 25.7402 107.005 25.6389 107.017C25.5375 107.03 25.3973 107.066 25.2262 107.122C25.0551 107.178 24.8565 107.254 24.6417 107.345C24.4269 107.436 24.2001 107.541 23.9743 107.653C23.7485 107.765 23.5281 107.882 23.3257 107.998C23.1233 108.114 22.9428 108.226 22.7946 108.329C22.6464 108.431 22.5333 108.521 22.4618 108.594C22.3904 108.667 22.3619 108.721 22.3781 108.754C22.3942 108.787 22.4547 108.797 22.5561 108.784C22.6574 108.771 22.7977 108.736 22.9688 108.68C23.1399 108.623 23.3385 108.548 23.5533 108.456C23.7681 108.365 23.9949 108.261 24.2207 108.149C24.4465 108.037 24.6669 107.919 24.8693 107.803C25.0717 107.687 25.2522 107.575 25.4004 107.473C25.5486 107.37 25.6617 107.28 25.7332 107.207C25.8046 107.134 25.833 107.08 25.8169 107.047ZM27.0169 114.308C26.9764 114.212 26.6153 114.253 26.0132 114.425C25.4111 114.596 24.6172 114.883 23.8062 115.222C23.4046 115.39 23.0109 115.566 22.6476 115.739C22.2843 115.913 21.9584 116.081 21.6886 116.234C21.4188 116.386 21.2104 116.521 21.0753 116.629C20.9401 116.738 20.8809 116.818 20.901 116.866C20.9415 116.963 21.3026 116.921 21.9047 116.75C22.5068 116.578 23.3007 116.292 24.1117 115.952C24.5133 115.784 24.907 115.609 25.2704 115.435C25.6337 115.262 25.9596 115.094 26.2293 114.941C26.4991 114.788 26.7075 114.654 26.8426 114.545C26.9778 114.437 27.037 114.356 27.0169 114.308ZM82.387 118.862C83.0137 118.235 83.0698 117.549 82.5553 116.804C82.5111 116.741 82.4457 116.696 82.3711 116.678C82.2964 116.66 82.2177 116.67 82.1495 116.705L81.9319 116.824C81.8007 116.895 81.6995 117.012 81.6468 117.151C81.5942 117.291 81.5935 117.445 81.6449 117.586C81.9879 118.476 82.0242 119.386 81.7537 120.316C81.6548 120.652 81.7768 120.778 82.1198 120.692C82.2518 120.659 82.3837 120.56 82.5156 120.395C82.8323 119.986 82.7993 119.63 82.4167 119.327C82.2254 119.182 82.2155 119.027 82.387 118.862ZM70.4718 119.438C70.5459 119.463 70.6266 119.465 70.7095 119.443C70.7925 119.422 70.8759 119.378 70.9551 119.314C71.0343 119.251 71.1076 119.168 71.1709 119.072C71.2343 118.975 71.2865 118.866 71.3245 118.751C71.3624 118.637 71.3854 118.518 71.3921 118.403C71.3988 118.288 71.3892 118.178 71.3637 118.079C71.3382 117.981 71.2973 117.896 71.2434 117.829C71.1895 117.763 71.1237 117.716 71.0497 117.691C70.9757 117.667 70.8949 117.665 70.812 117.687C70.7291 117.708 70.6457 117.752 70.5665 117.816C70.4874 117.879 70.414 117.962 70.3506 118.059C70.2872 118.155 70.235 118.264 70.1971 118.379C70.1591 118.493 70.1361 118.612 70.1294 118.727C70.1227 118.842 70.1324 118.952 70.1579 119.051C70.1834 119.149 70.2242 119.234 70.2781 119.301C70.332 119.367 70.3978 119.414 70.4718 119.438ZM66.3082 120.464C66.981 120.326 67.3769 120.088 67.4956 119.752C67.5217 119.682 67.5275 119.606 67.5124 119.533C67.4973 119.46 67.4619 119.393 67.4102 119.339C67.3585 119.285 67.2925 119.247 67.2201 119.229C67.1477 119.211 67.0717 119.214 67.0009 119.238C66.4797 119.396 66.1928 119.755 66.14 120.316C66.1379 120.338 66.1409 120.36 66.149 120.38C66.157 120.4 66.1697 120.419 66.1862 120.433C66.2026 120.448 66.2222 120.458 66.2434 120.463C66.2646 120.469 66.2868 120.469 66.3082 120.464ZM76.3513 122.364C77.1363 122.324 77.8355 122.568 78.4489 123.096C78.7062 123.313 78.9931 123.373 79.3098 123.274C79.7122 123.149 80.0254 122.832 80.2497 122.324C80.4014 121.988 80.3026 121.77 79.9529 121.671L76.5096 120.712C76.1864 120.619 75.9357 120.715 75.7576 120.999C75.1376 121.988 74.0194 122.756 72.4033 123.304C70.8927 123.818 70.929 124.184 72.5121 124.402C73.7918 124.58 74.8374 124.032 75.6488 122.759C75.8137 122.509 76.0478 122.377 76.3513 122.364ZM61.5121 122.659C61.4894 122.466 61.3601 122.294 61.1524 122.18C60.9447 122.067 60.6757 122.02 60.4047 122.052C60.1336 122.084 59.8827 122.191 59.7071 122.35C59.5314 122.509 59.4454 122.706 59.4681 122.899C59.4907 123.092 59.6201 123.264 59.8278 123.378C60.0355 123.492 60.3044 123.538 60.5755 123.506C60.8465 123.474 61.0975 123.367 61.2731 123.209C61.4488 123.05 61.5347 122.852 61.5121 122.659ZM68.5214 126.187C68.567 126.215 68.6227 126.225 68.6854 126.216C68.7481 126.207 68.8166 126.18 68.8868 126.137C68.957 126.094 69.0277 126.034 69.0948 125.963C69.1618 125.891 69.2239 125.808 69.2776 125.719C69.3313 125.63 69.3756 125.537 69.4077 125.444C69.4399 125.351 69.4593 125.261 69.465 125.179C69.4707 125.096 69.4625 125.023 69.4409 124.964C69.4193 124.904 69.3848 124.86 69.3391 124.832C69.2935 124.805 69.2378 124.795 69.1751 124.803C69.1124 124.812 69.044 124.839 68.9737 124.882C68.9035 124.926 68.8328 124.985 68.7658 125.057C68.6987 125.128 68.6366 125.211 68.5829 125.3C68.5292 125.389 68.485 125.483 68.4528 125.575C68.4207 125.668 68.4013 125.758 68.3956 125.841C68.3898 125.923 68.398 125.996 68.4196 126.056C68.4412 126.115 68.4758 126.16 68.5214 126.187ZM66.4368 126.133C66.4059 126.048 66.3478 125.977 66.2723 125.93C66.1967 125.883 66.1082 125.864 66.0212 125.876C65.8365 125.902 65.7277 126.067 65.6947 126.37C65.6805 126.483 65.7067 126.598 65.7685 126.692C65.8303 126.787 65.9234 126.855 66.0311 126.885C66.1894 126.931 66.328 126.921 66.4467 126.855C66.5918 126.783 66.6347 126.674 66.5753 126.529L66.4368 126.133ZM74.8383 128.872C74.8025 128.836 74.7517 128.816 74.6887 128.813C74.6257 128.81 74.5518 128.824 74.4713 128.853C74.3907 128.883 74.3051 128.929 74.2192 128.987C74.1333 129.046 74.049 129.116 73.9708 129.194C73.8928 129.272 73.8224 129.356 73.7639 129.442C73.7055 129.528 73.6601 129.614 73.6302 129.694C73.6004 129.775 73.5867 129.849 73.5899 129.912C73.5931 129.975 73.6132 130.025 73.6491 130.061C73.6849 130.097 73.7357 130.117 73.7987 130.12C73.8617 130.124 73.9356 130.11 74.0161 130.08C74.0967 130.05 74.1824 130.005 74.2682 129.946C74.3541 129.888 74.4385 129.818 74.5166 129.74C74.5947 129.662 74.665 129.577 74.7235 129.491C74.7819 129.405 74.8273 129.32 74.8572 129.239C74.887 129.159 74.9007 129.085 74.8975 129.022C74.8943 128.959 74.8742 128.908 74.8383 128.872Z" fill="#D475E6"/>
</svg>
