<svg width="134" height="65" viewBox="0 0 134 65" fill="none" xmlns="http://www.w3.org/2000/svg">
<path d="M87.2899 10.0553C86.4214 9.67288 86.0153 9.95542 86.0716 10.9029C86.5497 19.264 87.1534 27.108 87.8828 34.4352C87.99 35.4947 87.85 36.6017 87.4628 37.7563C85.6993 43.0533 80.2113 41.7142 76.1441 39.9187C69.423 36.9598 62.6503 34.0352 55.8259 31.1448C51.8274 29.4522 48.0283 28.3296 43.8751 27.5419C43.4329 27.4583 42.9749 27.5365 42.5844 27.7622C42.1939 27.9878 41.8969 28.3461 41.7475 28.7717C38.7071 37.3884 39.6412 47.0496 39.1581 55.837C38.9126 60.3579 36.1146 65.2417 30.7491 64.1415C28.9664 63.7784 27.1577 63.0896 25.3229 62.0751C15.3614 56.5616 8.01989 52.4397 3.2985 49.7093C0.562066 48.1269 0.118377 46.1429 1.96747 43.7573C3.63211 41.6251 8.77538 44.0767 10.7408 45.098C17.4653 48.6057 24.1111 52.0525 30.6782 55.4383C30.7027 55.4514 30.7303 55.4578 30.7581 55.4569C30.7859 55.4561 30.813 55.448 30.8367 55.4335C30.8605 55.4189 30.88 55.3985 30.8933 55.3741C30.9067 55.3498 30.9135 55.3224 30.9129 55.2947C31.1042 45.4758 31.1368 34.654 34.6657 25.6713C38.34 16.3206 50.621 20.0621 57.3474 22.8514C64.6584 25.8911 71.82 28.9828 78.8324 32.1266C78.8969 32.1554 78.968 32.1667 79.0384 32.1591C79.1088 32.1515 79.1759 32.1254 79.2329 32.0834C79.2898 32.0415 79.3346 31.9852 79.3625 31.9203C79.3905 31.8554 79.4007 31.7843 79.3921 31.7143C78.3335 23.9536 77.1054 14.5983 78.4096 7.06841C79.8019 -0.979581 86.3433 0.500933 91.969 2.52847C104.533 7.06085 117.385 11.6253 130.525 16.2219C132.542 16.9269 133.405 18.3132 133.116 20.3809C132.365 25.7098 126.862 24.6566 123.057 23.6691C110.659 20.4523 99.8329 15.5334 87.2899 10.0553Z" fill="#7945B5"/>
</svg>
