<svg width="114" height="182" viewBox="0 0 114 182" fill="none" xmlns="http://www.w3.org/2000/svg">
<path d="M107.786 86.5024C78.955 105.71 61.8976 135.633 59.4663 170.022C58.3177 186.469 38.3503 185.472 37.2208 170.137C35.97 153.37 31.7711 136.387 24.624 119.186C19.5444 106.969 13.5013 97.9336 6.49452 92.0806C-9.81626 78.4898 8.60035 69.3078 18.0767 62.5028C38.5417 47.8001 47.5012 27.1934 57.0924 5.20655C58.7771 1.35357 63.2185 -1.96267 67.0474 1.37274C72.7714 6.39503 66.9516 15.3086 69.5552 21.0785C72.1843 26.8803 74.4944 32.5097 76.4854 37.9664C81.9797 52.9758 89.0248 62.2728 105.125 66.4324C116.286 69.3078 116.631 80.5984 107.786 86.5024ZM52.4404 122.598C60.5703 105.397 71.5271 90.7388 85.3109 78.6239C85.4586 78.4921 85.5744 78.3283 85.6494 78.1449C85.7244 77.9615 85.7567 77.7634 85.7438 77.5657C85.7309 77.3679 85.6731 77.1757 85.5749 77.0037C85.4766 76.8316 85.3405 76.6843 85.1768 76.5729C73.4479 68.6625 66.4092 57.5508 64.0609 43.2379C63.4355 39.4169 62.3698 39.2891 60.8638 42.8545C54.342 58.3814 43.8256 71.295 29.3143 81.5951C29.1463 81.7126 29.0041 81.8635 28.8968 82.0383C28.7895 82.2132 28.7193 82.4083 28.6906 82.6115C28.6619 82.8147 28.6753 83.0216 28.7299 83.2194C28.7845 83.4172 28.8791 83.6017 29.008 83.7613C38.5035 95.3777 45.4464 108.796 49.8368 124.016C49.8901 124.187 49.9903 124.339 50.1257 124.456C50.2611 124.573 50.4261 124.648 50.6011 124.675C50.7761 124.701 50.9539 124.676 51.1136 124.604C51.2733 124.531 51.4082 124.414 51.5023 124.265C51.8469 123.741 52.1596 123.186 52.4404 122.598Z" fill="#F3B5C0"/>
</svg>
