<svg width="346" height="305" viewBox="0 0 346 305" fill="none" xmlns="http://www.w3.org/2000/svg">
<path d="M103.871 2V193.75C103.871 207.494 106.581 216.657 112 221.462C117.419 226.267 126.79 228.614 140 228.614V238C134.016 237.665 125.21 237.33 113.581 236.883C101.952 236.436 89.9839 236.212 77.6774 236.212C62.6613 236.212 48.2097 236.436 34.5484 236.883C20.8871 237.33 10.2742 237.665 2.70967 238V228.614C16.5968 228.614 27.4355 226.155 35.2258 221.239C43.0161 216.322 46.9677 206.6 46.9677 191.962V82.9015C46.9677 68.5985 45.6129 57.983 42.9032 51.1667C40.1935 44.3504 35.3387 39.8807 28.4516 37.7576C21.5645 35.6345 12.0806 34.6288 0 34.6288V24.7955C24.3871 24.2367 44.5968 22.2254 60.7419 18.9849C76.8871 15.7443 91.2258 10.0455 103.871 2Z" fill="#F0AEB9"/>
<path d="M256.266 0C277.113 0 294.562 4.58394 308.611 13.64C322.66 22.6961 329.685 35.3299 329.685 51.4296C329.685 62.7218 326.059 73.3431 318.808 83.1818C311.557 93.0205 301.699 101.518 289.123 108.673C276.547 115.828 262.158 121.307 245.842 125.22C264.31 124.885 281.079 127.232 296.148 132.152C311.217 137.071 323.34 144.674 332.404 154.96C341.468 165.246 346 178.103 346 193.644C346 210.638 340.448 225.955 329.458 239.707C318.468 253.459 303.966 265.086 285.951 274.813C267.936 284.54 248.222 291.919 226.581 297.174C204.941 302.429 183.414 305 162 305V296.503C176.502 295.944 191.118 293.372 205.734 288.9C220.35 284.428 233.832 277.832 246.069 269.223C258.305 260.614 268.163 249.881 275.527 237.247C282.892 224.613 286.631 210.079 286.631 193.644C286.631 176.091 282.438 161.556 273.941 150.264C265.443 138.972 253.887 132.711 239.044 131.481C234.512 133.27 230.32 134.947 226.581 136.4C222.842 137.854 219.217 138.636 215.931 138.636C210.832 138.636 208.227 136.4 208.227 131.928C208.227 128.909 209.586 126.673 212.305 125.22C215.025 123.766 218.197 122.984 221.823 122.984C224.202 122.984 226.695 123.096 229.3 123.431C231.906 123.766 234.626 123.99 237.685 124.326C250.374 115.381 259.325 105.654 264.65 95.033C269.975 84.4116 272.581 73.7903 272.581 63.0572C272.581 49.3053 268.956 39.243 261.704 32.8702C254.453 26.4974 244.823 23.2551 232.699 23.2551C220.576 23.2551 209.36 26.2738 198.936 32.423C188.512 38.5722 179.788 47.7401 172.877 59.9267L165.172 55.9018C170.271 46.063 176.729 36.8952 184.433 28.3981C192.138 19.901 201.882 13.081 213.665 7.82625C225.448 2.57148 239.611 0 256.266 0Z" fill="#F0AEB9"/>
</svg>
