<svg width="519" height="395" viewBox="0 0 519 395" fill="none" xmlns="http://www.w3.org/2000/svg">
<path d="M106.051 180.418C129.063 180.418 152.321 188.335 152.321 215.306V358.57L129.063 362.281V215.306C129.063 188.335 117.433 184.377 109.763 184.377L106.051 180.418ZM247.388 358.57C263.224 357.333 277.575 348.672 286.235 335.311L289.947 342.981C278.317 354.611 255.801 362.529 239.718 362.529C203.345 362.529 173.653 341.744 170.436 300.423C170.189 297.949 170.189 295.474 170.189 292.752C170.189 246.235 201.118 222.976 239.718 222.976C241.697 222.976 243.924 223.224 245.903 223.224C246.646 223.224 247.388 223.471 248.13 223.471C249.368 223.718 250.605 223.718 251.842 223.966C252.832 223.966 253.574 224.213 254.564 224.213C255.553 224.461 256.543 224.708 257.533 224.956C258.523 225.203 259.512 225.203 260.502 225.451C261.244 225.698 262.234 225.945 263.224 226.193C264.214 226.44 265.203 226.935 265.946 227.183C266.935 227.43 267.678 227.677 268.667 228.172C269.41 228.42 270.399 228.915 271.389 229.162C272.131 229.657 272.874 229.904 273.616 230.152C274.606 230.647 275.595 231.141 276.338 231.636C277.08 232.131 277.822 232.379 278.565 232.874C279.554 233.368 280.297 233.863 281.039 234.358C281.534 234.606 282.029 234.853 282.276 235.1C296.38 244.998 305.782 260.339 308.009 277.164H286.235C253.574 277.164 225.614 291.515 193.2 292.505V292.752C193.2 339.27 224.377 358.57 247.388 358.57ZM232.047 226.935C202.355 226.935 193.942 258.854 193.448 288.793C224.872 287.556 252.337 273.947 284.008 273.453C282.276 265.287 279.06 257.617 274.606 250.689C273.369 248.709 271.884 247.225 270.647 245.493C270.399 245.245 270.152 244.75 269.657 244.503C268.667 243.266 267.43 242.029 266.193 240.791C265.698 240.544 265.203 240.049 264.956 239.802C263.471 238.564 261.987 237.327 260.255 236.09C258.523 234.853 256.791 233.863 255.059 233.121C254.811 232.874 254.316 232.626 253.821 232.379C252.584 231.636 251.1 231.141 249.615 230.399C249.368 230.399 248.873 230.152 248.625 230.152C246.893 229.409 245.161 228.915 243.429 228.42C243.182 228.42 242.687 228.172 242.439 228.172C240.955 227.925 239.718 227.677 238.233 227.43C237.738 227.43 237.243 227.183 236.996 227.183C235.264 226.935 233.532 226.935 232.047 226.935ZM378.505 346.94L386.175 354.611C380.979 359.559 374.051 362.281 366.875 362.281C339.905 362.281 324.317 346.94 324.317 312.052V230.894H308.976V226.935H324.317V203.676L347.575 199.717V226.935H378.505V230.894H347.575V316.011C347.575 342.981 351.534 358.57 366.875 358.57C374.546 358.57 378.505 346.94 378.505 346.94ZM453.04 285.082C468.628 288.051 507.228 296.711 507.228 323.682C507.228 354.611 487.928 362.529 449.081 362.529C402.564 362.529 391.182 339.27 391.182 339.27L398.852 327.641C398.852 327.641 414.193 358.57 449.081 358.57C476.299 358.57 483.969 342.981 483.969 323.682C483.969 304.382 468.381 292.752 449.081 288.793C433.988 285.824 391.182 285.082 391.182 257.864C391.182 230.894 414.193 222.976 449.081 222.976C468.381 222.976 491.64 227.183 503.269 235.1L495.846 250.936C484.959 236.09 467.639 227.183 449.081 226.935C425.822 226.935 414.193 238.564 414.193 257.864C414.193 279.391 433.74 281.123 453.04 285.082Z" fill="#C055D4"/>
<path d="M147.223 11.0953L170.482 7.13636V185.288L147.223 189V84.5831C110.603 84.5831 79.1787 100.171 42.5586 100.171V185.288L19.5472 189V11.0953L42.5586 7.13636V96.2124C79.1787 96.2124 110.603 80.6241 147.223 80.6241V11.0953ZM266.871 185.288C282.706 184.051 297.057 175.391 305.718 162.03L309.429 169.7C297.8 181.33 275.283 189.247 259.2 189.247C222.827 189.247 193.135 168.463 189.919 127.142C189.671 124.667 189.671 122.193 189.671 119.471C189.671 72.9537 220.601 49.6949 259.2 49.6949C261.18 49.6949 263.407 49.9424 265.386 49.9424C266.128 49.9424 266.871 50.1898 267.613 50.1898C268.85 50.4372 270.087 50.4372 271.324 50.6847C272.314 50.6847 273.056 50.9321 274.046 50.9321C275.036 51.1795 276.026 51.427 277.015 51.6744C278.005 51.9218 278.995 51.9218 279.985 52.1693C280.727 52.4167 281.717 52.6641 282.706 52.9116C283.696 53.159 284.686 53.6539 285.428 53.9013C286.418 54.1487 287.16 54.3962 288.15 54.891C288.892 55.1385 289.882 55.6333 290.872 55.8808C291.614 56.3756 292.356 56.6231 293.099 56.8705C294.088 57.3654 295.078 57.8602 295.82 58.3551C296.563 58.85 297.305 59.0974 298.047 59.5923C299.037 60.0871 299.779 60.582 300.522 61.0769C301.016 61.3243 301.511 61.5717 301.759 61.8192C315.862 71.7165 325.265 87.0574 327.492 103.883H305.718C273.056 103.883 245.096 118.234 212.683 119.224V119.471C212.683 165.989 243.859 185.288 266.871 185.288ZM251.53 53.6539C221.838 53.6539 213.425 85.5728 212.93 115.512C244.354 114.275 271.819 100.666 303.491 100.171C301.759 92.0061 298.542 84.3356 294.088 77.4075C292.851 75.428 291.366 73.9434 290.129 72.2114C289.882 71.9639 289.634 71.4691 289.14 71.2216C288.15 69.9845 286.913 68.7473 285.676 67.5101C285.181 67.2627 284.686 66.7678 284.438 66.5204C282.954 65.2832 281.469 64.0461 279.737 62.8089C278.005 61.5717 276.273 60.582 274.541 59.8397C274.294 59.5923 273.799 59.3448 273.304 59.0974C272.067 58.3551 270.582 57.8602 269.097 57.1179C268.85 57.1179 268.355 56.8705 268.108 56.8705C266.376 56.1282 264.644 55.6333 262.912 55.1385C262.664 55.1385 262.169 54.891 261.922 54.891C260.437 54.6436 259.2 54.3962 257.716 54.1487C257.221 54.1487 256.726 53.9013 256.478 53.9013C254.746 53.6539 253.014 53.6539 251.53 53.6539ZM451.893 49.6949L455.604 51.1795L386.076 221.166C378.653 239.229 352.919 237.992 343.27 230.074L346.981 222.404C354.899 228.837 375.188 237.002 382.364 219.682L402.654 170.442L387.808 180.835L328.176 63.5512L347.228 49.9424L405.128 164.009L451.893 49.6949ZM478.509 189C472.324 189 467.127 183.804 467.127 177.618C467.127 171.185 472.324 165.989 478.509 165.989C484.943 165.989 490.139 171.185 490.139 177.618C490.139 183.804 484.943 189 478.509 189ZM486.427 138.771L470.839 142.73L467.127 11.0953L490.139 7.13636L486.427 138.771Z" fill="#C055D4"/>
</svg>
