<svg width="478" height="221" viewBox="0 0 478 221" fill="none" xmlns="http://www.w3.org/2000/svg">
<path d="M76.9518 173.659L84.6223 181.33C79.4262 186.278 72.498 189 65.3224 189C38.3522 189 22.7639 173.659 22.7639 138.771V57.6128H7.42301V53.6539H22.7639V30.3951L46.0226 26.4362V53.6539H76.9518V57.6128H46.0226V142.73C46.0226 169.7 49.9816 185.288 65.3224 185.288C72.9929 185.288 76.9518 173.659 76.9518 173.659ZM197.949 53.6539L221.207 49.6949V185.288L197.949 189V174.154C184.587 184.299 168.257 189.495 151.431 189C112.832 189 81.9024 165.989 81.9024 119.471C81.9024 72.9537 112.832 49.6949 151.431 49.6949C168.257 49.2001 184.587 54.6436 197.949 64.7884V53.6539ZM159.102 185.288C174.69 184.546 189.041 176.628 197.949 164.009V78.6446C183.845 63.5512 164.298 54.6436 143.761 53.6539C112.832 53.6539 104.914 88.542 104.914 119.471C104.914 165.989 135.843 185.288 159.102 185.288ZM215.808 7.13636C238.82 7.13636 262.078 15.0542 262.078 42.0245V185.288L238.82 189V42.0245C238.82 15.0542 227.19 11.0953 219.52 11.0953L215.808 7.13636ZM334.381 108.337C373.723 112.79 398.467 163.019 398.467 185.288L381.394 189.247C381.394 169.948 367.785 113.285 330.175 111.801L309.39 129.121V185.041L286.379 189V10.8479L309.39 7.13636V124.172L328.938 107.842L398.219 49.6949L400.941 52.6641L334.381 108.337Z" fill="#C055D4"/>
<path d="M464.501 162.121C464.059 162.462 463.584 162.771 463.18 163.155C462.654 163.655 462.048 164.02 461.426 164.367C461.319 164.427 461.219 164.391 461.169 164.282C461.15 164.241 461.145 164.167 461.169 164.134C461.285 163.97 461.397 163.798 461.542 163.657C462.2 163.019 462.863 162.383 463.539 161.761C463.924 161.409 464.235 161.013 464.375 160.506C464.568 159.808 464.919 159.189 465.295 158.579C465.778 157.798 466.277 157.024 466.719 156.221C467.429 154.925 468.107 153.61 468.782 152.293C468.944 151.979 469.043 151.628 469.148 151.288C469.371 150.559 469.523 149.813 469.973 149.163C470.265 148.739 470.32 148.21 470.327 147.691L470.317 147.7C470.398 147.515 470.522 147.336 470.55 147.143C470.707 146.088 470.812 145.035 470.774 143.954C470.724 142.617 470.581 141.307 470.324 139.999C470.096 138.839 469.697 137.734 469.312 136.622C469.041 135.838 468.535 135.181 468.024 134.545C467.384 133.749 466.686 133.003 465.934 132.306C465.091 131.519 464.126 130.974 463.039 130.64C461.87 130.281 460.691 129.95 459.469 129.788C458.345 129.638 457.249 129.638 456.13 129.893C453.76 130.431 451.545 131.336 449.536 132.677C447.835 133.811 446.285 135.152 445.001 136.767C444.524 137.367 444.086 137.996 443.765 138.701C443.321 139.678 442.748 140.59 442.382 141.607C442.173 142.186 441.935 142.748 441.861 143.368C441.802 143.851 441.574 144.213 441.134 144.47C440.756 144.692 440.616 145.052 440.683 145.519C440.813 146.424 440.395 146.983 439.435 147.231C438.812 146.917 438.13 146.583 437.46 146.224C437.336 146.157 437.243 146.009 437.172 145.878C436.756 145.125 436.112 144.635 435.332 144.342C434.878 144.17 434.538 143.903 434.253 143.53C433.321 142.312 432.375 141.105 431.358 139.956C429.373 137.717 426.959 136.2 424.08 135.357C421.349 134.556 418.635 134.647 415.911 135.285C414.618 135.588 413.37 136.052 412.167 136.624C412.075 136.667 411.979 136.705 411.887 136.75C409.978 137.67 408.524 139.044 407.656 141.005C406.948 142.605 406.42 144.256 406.334 146.019C406.287 146.988 406.261 147.962 406.28 148.932C406.318 150.952 406.85 152.881 407.544 154.751C408.241 156.628 409.27 158.343 410.406 159.989C410.639 160.325 410.891 160.649 411.121 160.987C411.316 161.273 411.573 161.34 411.911 161.335C412.21 161.33 412.327 161.478 412.296 161.847C412.267 162.19 412.376 162.45 412.595 162.676C413.201 163.298 413.814 163.912 414.425 164.529C414.82 164.929 415.217 165.327 415.609 165.73C416.322 166.463 417.035 167.195 417.872 167.793C418.038 167.912 418.2 168.038 418.349 168.179C419.802 169.551 421.425 170.703 423.046 171.863C424.375 172.814 425.677 173.805 427.011 174.751C427.926 175.401 428.877 176.003 429.811 176.623C432.066 178.119 434.317 179.622 436.582 181.106C437.357 181.613 438.02 182.254 438.703 182.866C438.997 183.13 439.202 183.509 439.401 183.862C439.706 184.4 439.306 185.086 438.707 185.076C438.403 185.072 438.094 185.046 437.795 184.993C437.205 184.886 436.682 185.01 436.207 185.367C435.922 185.582 435.632 185.789 435.344 186.003C435.099 186.187 434.847 186.363 434.612 186.558C433.93 187.127 433.193 187.118 432.475 186.694C431.686 186.227 430.968 185.648 430.284 185.038C430.255 185.012 430.248 184.936 430.26 184.893C430.291 184.779 430.379 184.736 430.5 184.755C430.702 184.786 430.904 184.814 431.106 184.845C431.311 185.026 431.515 185.012 431.719 184.848C432 184.641 432.033 184.467 431.803 184.359C431.679 184.302 431.539 184.283 431.408 184.248L431.422 184.233C431.527 184.443 431.629 184.655 431.734 184.865C431.52 184.865 431.306 184.865 431.092 184.865C430.849 184.607 430.609 184.348 430.367 184.09C430.255 183.971 430.222 183.769 430.327 183.674C430.433 183.576 430.576 183.442 430.695 183.45C430.94 183.466 431.18 183.573 431.422 183.631C431.717 183.702 432.012 183.771 432.311 183.819C432.402 183.833 432.551 183.802 432.592 183.74C432.837 183.364 433.062 182.976 433.274 182.58C433.31 182.513 433.26 182.375 433.21 182.297C432.715 181.558 432.069 180.991 431.249 180.653C430.398 180.303 429.594 179.898 428.896 179.276C428.387 178.826 427.712 178.719 427.058 178.605C427.025 178.6 426.966 178.647 426.949 178.683C426.932 178.721 426.937 178.798 426.963 178.819C427.246 179.038 427.508 179.257 427.543 179.66C427.56 179.858 427.664 180.046 427.729 180.241L427.745 180.227C427.165 180.334 426.659 179.958 426.096 179.972C426.022 179.974 425.946 180.055 425.887 180.115C425.87 180.131 425.898 180.212 425.927 180.248C425.991 180.324 426.065 180.396 426.143 180.46C426.302 180.589 426.471 180.706 426.626 180.837C426.833 181.013 426.942 181.291 426.844 181.353C426.695 181.449 426.557 181.387 426.417 181.337C425.444 180.987 424.617 180.382 423.778 179.803C422.77 179.107 421.779 178.383 420.695 177.807C420.47 177.687 420.258 177.523 420.018 177.456C419.208 177.228 418.58 176.711 417.934 176.211C417.33 175.741 416.679 175.336 416.058 174.889C415.687 174.622 415.312 174.35 414.977 174.043C413.432 172.631 411.806 171.306 410.377 169.767C410.275 169.658 410.145 169.57 410.014 169.491C409.876 169.408 409.724 169.398 409.617 169.546C409.529 169.667 409.467 169.858 409.298 169.827C409.165 169.803 409.023 169.691 408.932 169.579C408.186 168.674 407.43 167.776 406.532 167.011C406.38 166.883 406.254 166.711 406.144 166.542C405.949 166.24 405.714 165.982 405.462 165.723C405.146 165.399 404.858 165.025 404.642 164.627C404.2 163.81 403.682 163.062 402.983 162.45C402.669 162.173 402.439 161.842 402.277 161.461C401.659 160.008 400.839 158.646 400.449 157.088C400.29 156.454 399.936 155.866 399.648 155.266C399.38 154.708 399.197 154.137 399.109 153.517C399.009 152.812 398.904 152.093 398.671 151.426C398.469 150.842 398.317 150.261 398.184 149.661C397.913 148.436 397.965 147.222 398.184 146.004C398.339 145.149 398.503 144.299 398.629 143.439C398.747 142.636 399.018 141.853 399.239 141.066C399.351 140.669 399.432 140.28 399.361 139.861C399.32 139.618 399.38 139.361 399.389 139.108C399.413 138.418 400.197 138.084 400.176 137.339C400.157 136.631 400.746 136.164 401.055 135.585C401.127 135.452 401.234 135.335 401.307 135.202C401.502 134.842 401.778 134.702 402.194 134.788C402.315 134.811 402.489 134.716 402.6 134.628C402.757 134.502 402.888 134.34 403.014 134.18C403.468 133.613 404.036 133.184 404.654 132.815C405.707 132.189 406.71 131.488 407.677 130.741C408.136 130.386 408.611 130.105 409.18 130.038C410.354 129.9 411.421 129.345 412.588 129.173C412.785 129.145 412.983 129.054 413.156 128.952C413.788 128.575 414.492 128.425 415.198 128.354C416.068 128.266 416.914 128.094 417.741 127.832C418.749 127.513 419.757 127.58 420.767 127.765C421.668 127.932 422.561 128.132 423.457 128.311C423.607 128.339 423.762 128.349 423.914 128.349C425.276 128.356 426.516 128.778 427.686 129.452C427.95 129.604 428.225 129.745 428.508 129.854C429.083 130.076 429.613 130.369 430.108 130.745C430.388 130.96 430.721 131.105 431.03 131.284C431.874 131.774 432.651 132.346 433.31 133.075C433.616 133.416 433.937 133.749 434.272 134.063C434.983 134.728 435.625 135.452 436.219 136.224C436.559 136.665 436.861 137.151 437.338 137.472C437.49 137.575 437.78 137.51 437.878 137.353C438.135 136.943 438.154 136.484 438.165 136.024L438.149 136.04C438.688 135.555 439.05 134.969 439.18 134.244C439.233 133.947 439.332 133.661 439.399 133.365C439.477 133.015 439.608 132.689 439.865 132.432C440.473 131.82 440.935 131.098 441.398 130.378C441.655 129.978 441.99 129.697 442.449 129.576L442.434 129.59C442.479 129.459 442.51 129.318 442.577 129.199C442.772 128.84 442.855 128.821 443.371 128.975L443.361 128.966C443.856 127.832 444.55 126.86 445.598 126.172C446.104 125.588 446.793 125.248 447.414 124.819C447.77 124.573 448.163 124.54 448.571 124.678L448.56 124.664C448.274 125.083 447.915 125.426 447.473 125.676C447.079 125.898 446.72 126.165 446.437 126.524C446.071 126.636 445.755 126.827 445.515 127.134C445.413 127.237 445.308 127.339 445.206 127.441L445.199 127.434C445.301 127.332 445.403 127.227 445.505 127.125C445.878 127.022 446.164 126.784 446.427 126.515C447.359 126.258 448.272 125.957 449.049 125.345C449.456 125.026 449.931 124.852 450.44 124.755C450.998 124.647 451.485 124.4 451.939 124.047C452.641 123.499 453.444 123.232 454.347 123.266C454.751 123.28 455.155 123.22 455.559 123.204C456.37 123.168 457.183 123.123 457.993 123.116C458.654 123.109 459.31 123.161 459.916 123.49C460.201 123.645 460.51 123.621 460.791 123.461C461.214 123.218 461.651 123.206 462.117 123.304C462.764 123.437 463.405 123.573 464.023 123.826C464.682 124.092 465.366 124.295 466.032 124.545C466.213 124.614 466.369 124.752 466.529 124.869C466.552 124.886 466.552 124.967 466.533 125.005C466.514 125.043 466.453 125.095 466.422 125.088C466.224 125.048 466.02 125.014 465.837 124.938C465.407 124.757 464.962 124.681 464.499 124.693L464.515 124.676C464.587 124.745 464.649 124.845 464.732 124.876C465.535 125.162 466.018 125.76 466.336 126.52L466.348 126.508C466.348 126.622 466.348 126.736 466.348 126.848L466.336 126.834C466.79 127.322 467.306 127.732 467.879 128.068L467.862 128.051C468.409 128.659 468.948 129.268 469.502 129.869C469.78 130.171 470.12 130.388 470.498 130.564C470.959 130.776 471.399 131.038 471.839 131.293C472.352 131.589 472.713 132.034 472.801 132.613C472.944 133.573 473.448 134.309 474.066 135.007C474.334 135.312 474.57 135.65 474.798 135.986C475.492 137.008 475.737 138.141 475.47 139.342C475.302 140.097 475.199 140.845 475.221 141.617C475.23 141.919 475.161 142.224 475.135 142.529C475.121 142.682 475.102 142.836 475.123 142.986C475.166 143.289 475.23 143.589 475.297 143.889C475.304 143.918 475.378 143.934 475.428 143.958C475.646 142.898 475.478 141.819 475.589 140.79C475.687 140.678 475.777 140.693 475.81 140.821C476.257 142.586 476.269 144.354 475.817 146.121C475.729 146.467 475.68 146.821 475.589 147.164C475.573 147.224 475.449 147.265 475.368 147.295C475.347 147.303 475.271 147.245 475.264 147.21C475.204 146.869 475.154 146.526 475.097 146.162C474.817 146.331 474.762 146.593 474.745 146.824C474.674 147.789 474.291 148.708 474.372 149.699C474.396 149.978 474.223 150.285 474.104 150.561C473.902 151.033 473.676 151.49 473.683 152.021L473.704 152C473.502 152.005 473.303 152.026 473.101 152.014C472.899 152.002 472.744 151.764 472.801 151.569C472.911 151.183 473.032 150.797 473.141 150.411C473.151 150.375 473.115 150.313 473.082 150.285C473.048 150.256 472.982 150.23 472.949 150.244C472.77 150.33 472.566 150.397 472.428 150.53C471.881 151.059 471.278 151.076 470.624 150.785C470.643 150.742 470.66 150.697 470.679 150.654C470.667 150.702 470.652 150.749 470.641 150.799C470.522 151.021 470.374 151.231 470.286 151.464C469.944 152.372 469.502 153.222 468.898 153.982C468.611 154.344 468.375 154.732 468.295 155.192C468.271 155.328 468.292 155.525 468.378 155.611C468.466 155.697 468.656 155.68 468.801 155.706L468.782 155.683C468.727 156.059 468.575 156.366 468.176 156.466C467.917 156.531 467.705 156.652 467.584 156.895C467.541 156.978 467.51 157.095 467.534 157.176C467.558 157.25 467.665 157.345 467.738 157.348C468.04 157.352 468.342 157.305 468.644 157.319C469.096 157.343 469.545 157.455 470.004 157.333C470.391 157.126 470.443 156.678 470.672 156.354C470.99 155.902 471.294 155.428 471.537 154.927C471.855 154.268 472.388 154.115 473.037 154.177C473.105 154.184 473.17 154.306 473.217 154.387C473.234 154.415 473.208 154.496 473.177 154.525C472.946 154.718 472.708 154.904 472.473 155.092L472.464 155.082C472.887 155.273 472.832 155.616 472.749 155.968C472.687 156.226 472.547 156.423 472.283 156.495C472.093 156.547 471.888 156.547 471.703 156.607C471.408 156.704 471.209 156.921 471.076 157.202C471.019 157.328 471.095 157.51 471.254 157.545C471.347 157.567 471.449 157.543 471.549 157.54L471.551 157.543C471.629 158.043 471.446 158.453 471.068 158.755C470.755 159.005 470.398 159.201 470.061 159.42L469.97 159.36C469.873 159.317 469.78 159.329 469.695 159.394L469.709 159.379C469.272 159.403 468.863 159.308 468.49 159.074L468.501 159.086C468.39 159.01 468.28 158.989 468.166 159.084L468.173 159.074C467.434 158.994 466.804 159.222 466.262 159.732C465.972 160.003 465.649 160.239 465.357 160.508C464.972 160.866 464.786 161.316 464.801 161.845L464.815 161.835C464.706 161.945 464.596 162.054 464.487 162.164L464.501 162.121ZM443.045 130.805C443.147 130.702 443.25 130.598 443.352 130.495L443.359 130.502C443.257 130.605 443.152 130.707 443.05 130.81L443.045 130.805ZM439.972 136.322C440.233 136.191 440.514 136.091 440.654 135.798C440.706 135.686 440.626 135.455 440.495 135.438C440.409 135.426 440.283 135.445 440.229 135.502C440.005 135.731 440.043 136.048 439.991 136.333C439.525 136.617 439.356 137.046 439.382 137.572C439.342 137.598 439.299 137.625 439.259 137.655C438.898 137.929 438.779 138.28 438.966 138.701C439.123 139.056 439.304 139.401 439.485 139.773C439.67 139.509 439.618 139.256 439.563 139.03C439.444 138.544 439.38 138.056 439.366 137.558C439.836 137.281 439.986 136.843 439.972 136.322ZM473.635 143.515C473.778 143.465 473.921 143.42 474.063 143.365C474.453 143.215 474.586 142.915 474.56 142.517C474.551 142.355 474.429 142.217 474.282 142.236C474.185 142.248 474.089 142.298 473.994 142.327C473.873 142.362 473.797 142.317 473.759 142.196C473.652 141.853 473.918 141.488 473.7 141.155C473.676 141.117 473.621 141.083 473.578 141.081C473.538 141.078 473.481 141.105 473.452 141.138C473.331 141.271 473.45 141.56 473.143 141.595C472.949 141.195 472.958 140.707 472.644 140.352C472.604 140.383 472.547 140.404 472.542 140.433C472.48 140.835 472.442 141.24 472.366 141.638C472.278 142.096 472.407 142.472 472.813 142.672C473.196 142.863 473.279 143.31 473.635 143.515ZM473.709 147.043C473.576 146.6 473.452 146.183 473.334 145.78C473.051 145.683 472.806 145.769 472.561 145.795C472.328 145.821 472.162 146.05 472.131 146.338C472.107 146.559 472.209 146.721 472.385 146.843C472.78 147.126 473.215 147.131 473.709 147.043ZM472.164 138.675C472.399 139.037 472.644 139.349 473.017 139.535C473.055 139.554 473.122 139.547 473.158 139.523C473.193 139.499 473.236 139.44 473.231 139.401C473.162 138.842 472.868 138.363 472.659 137.853C472.651 137.834 472.575 137.846 472.495 137.839C472.39 138.106 472.281 138.382 472.164 138.675ZM463.125 124.462C463.165 124.431 463.222 124.407 463.237 124.366C463.251 124.328 463.234 124.245 463.206 124.23C462.899 124.068 462.59 123.909 462.227 123.983C462.205 123.987 462.174 124.083 462.188 124.097C462.438 124.376 462.776 124.44 463.125 124.462ZM434.151 181.468C434.168 181.511 434.17 181.568 434.201 181.596C434.32 181.699 434.465 181.739 434.593 181.639C434.636 181.606 434.641 181.449 434.6 181.399C434.5 181.277 434.353 181.258 434.215 181.346C434.179 181.368 434.17 181.425 434.151 181.468Z" fill="#C055D4"/>
<path d="M445.795 182.711C446.454 182.642 446.965 182.216 447.492 181.963C447.801 182.018 447.808 182.242 447.861 182.418C447.977 182.818 448.21 183.118 448.574 183.323L448.555 183.309C448.324 183.859 447.856 183.936 447.343 183.924L447.357 183.938C447.243 183.938 447.129 183.938 447.015 183.938L447.029 183.924C446.499 184.4 445.976 184.884 445.436 185.348C445.189 185.56 444.892 185.598 444.576 185.481C444.371 185.405 444.243 185.153 444.355 184.998C444.502 184.793 444.65 184.586 444.818 184.398C445.263 183.9 445.686 183.395 445.807 182.709C445.807 182.702 445.795 182.711 445.795 182.711Z" fill="#C055D4"/>
<path d="M445.201 177.483C445.249 176.997 445.505 176.606 445.878 176.342C446.872 175.639 447.68 174.736 448.593 173.945C449.054 173.545 449.553 173.205 450.145 173.033C450.333 172.978 450.537 172.974 450.734 172.981C450.82 172.983 450.929 173.055 450.984 173.128C451.079 173.262 451.055 173.421 450.963 173.548C450.875 173.667 450.772 173.791 450.649 173.867C450.48 173.969 450.283 174.026 450.097 174.103C449.895 173.955 449.693 173.893 449.496 174.112C449.456 174.136 449.415 174.162 449.375 174.186C449.41 174.155 449.446 174.126 449.482 174.095C449.691 174.093 449.9 174.093 450.107 174.091C450 174.298 449.891 174.508 449.784 174.715L449.8 174.7C449.399 174.779 449.075 174.972 448.861 175.332L448.871 175.322C448.493 175.37 448.203 175.527 448.098 175.932C448.039 176.161 447.873 176.258 447.644 176.187C447.385 176.106 447.141 176.134 446.922 176.277C446.584 176.497 446.242 176.711 445.938 176.971C445.705 177.168 445.489 177.373 445.189 177.468L445.201 177.483Z" fill="#C055D4"/>
<path d="M469.402 162.75C469.155 162.795 468.908 162.845 468.658 162.881C468.532 162.898 468.423 162.674 468.468 162.536C468.57 162.219 468.787 161.995 469.105 161.945C469.604 161.869 470.106 161.835 470.555 161.557C470.598 161.53 470.724 161.621 470.797 161.676C470.826 161.697 470.836 161.776 470.821 161.816C470.736 162.052 470.688 162.324 470.541 162.514C469.73 163.553 468.898 164.577 468.062 165.594C467.976 165.699 467.805 165.735 467.67 165.789C467.636 165.804 467.572 165.773 467.539 165.742C467.506 165.713 467.47 165.658 467.472 165.62C467.479 165.523 467.482 165.406 467.536 165.332C467.838 164.925 468.143 164.517 468.471 164.129C468.832 163.7 469.176 163.262 469.395 162.74C469.393 162.738 469.402 162.75 469.402 162.75Z" fill="#C055D4"/>
<path d="M455.288 176.263C455.431 176.313 455.581 176.346 455.714 176.418C455.909 176.523 455.98 176.809 455.84 176.923C455.217 177.433 454.604 177.961 453.95 178.428C453.418 178.809 452.857 179.143 452.367 179.586C452.153 179.781 451.847 179.879 451.571 179.996C451.519 180.017 451.409 179.929 451.34 179.872C451.319 179.855 451.326 179.762 451.35 179.731C451.92 179.017 452.574 178.39 453.311 177.852C453.717 177.554 454.152 177.292 454.549 176.982C454.823 176.768 455.053 176.497 455.303 176.249L455.288 176.263Z" fill="#C055D4"/>
<path d="M440.252 185.084C440.2 185.017 440.095 184.945 440.093 184.874C440.086 184.548 440.229 184.221 440.528 184.145C441.122 183.99 441.448 183.573 441.783 183.121C442.144 182.635 442.532 182.166 442.936 181.718C443.135 181.496 443.395 181.325 443.639 181.153C443.704 181.108 443.849 181.11 443.91 181.156C443.965 181.194 443.965 181.322 443.967 181.411C443.967 181.451 443.922 181.499 443.889 181.537C443.105 182.463 442.353 183.414 441.702 184.443C441.538 184.702 441.296 184.86 440.951 184.874C440.718 184.884 440.488 185.01 440.252 185.084Z" fill="#C055D4"/>
<path d="M474.745 153.227C474.7 153.215 474.646 153.215 474.61 153.189C474.572 153.162 474.527 153.11 474.527 153.072C474.534 152.924 474.534 152.767 474.579 152.629C475 151.331 475.442 150.04 475.851 148.737C475.955 148.403 475.967 148.041 476.038 147.696C476.067 147.55 476.115 147.4 476.191 147.274C476.231 147.205 476.35 147.138 476.428 147.143C476.509 147.15 476.637 147.231 476.654 147.3C476.695 147.493 476.752 147.722 476.687 147.891C476.167 149.265 475.889 150.714 475.406 152.098C475.29 152.431 475.135 152.75 474.978 153.065C474.94 153.141 474.824 153.174 474.745 153.227Z" fill="#C055D4"/>
<path d="M477.669 146.471C477.776 147.136 477.747 147.793 477.586 148.446C477.427 149.089 477.289 149.739 477.125 150.383C477.022 150.778 476.804 151.033 476.69 150.935C476.495 150.768 476.59 150.561 476.618 150.368C476.749 149.458 476.887 148.551 477.015 147.638C477.082 147.157 477.291 146.769 477.686 146.483L477.669 146.471Z" fill="#C055D4"/>
<path d="M453.104 175.729C453.064 175.82 453.049 175.941 452.983 175.994C452.063 176.711 451.122 177.392 449.998 177.761C449.959 177.773 449.869 177.747 449.867 177.726C449.85 177.64 449.848 177.547 449.86 177.461C449.867 177.418 449.912 177.375 449.948 177.34C450.791 176.506 451.849 176.027 452.912 175.558C452.942 175.544 453.009 175.577 453.04 175.606C453.073 175.634 453.085 175.687 453.104 175.729Z" fill="#C055D4"/>
<path d="M477.236 136.183C477.217 136.276 477.198 136.369 477.175 136.462C477.146 136.574 476.911 136.464 476.835 136.305C476.813 136.26 476.785 136.217 476.768 136.169C476.616 135.743 476.433 135.323 476.321 134.888C476.122 134.111 475.967 133.323 475.798 132.539C475.791 132.503 475.836 132.42 475.86 132.417C475.943 132.41 476.084 132.403 476.105 132.446C476.262 132.758 476.433 133.07 476.526 133.404C476.782 134.325 477.001 135.257 477.236 136.183Z" fill="#C055D4"/>
<path d="M454.048 171.43C454.354 171.501 454.749 171.582 455.136 171.69C455.196 171.706 455.231 171.842 455.258 171.93C455.269 171.968 455.236 172.028 455.208 172.064C454.982 172.357 454.673 172.523 454.326 172.611C454.188 172.647 454.012 172.652 453.884 172.6C453.56 172.466 453.251 172.295 452.94 172.133C452.902 172.114 452.857 172.045 452.864 172.009C452.883 171.916 452.902 171.794 452.969 171.744C453.256 171.516 453.598 171.442 454.048 171.43Z" fill="#C055D4"/>
<path d="M430.785 181.475C430.933 181.284 431.111 181.246 431.303 181.389C431.467 181.511 431.494 181.773 431.365 181.927C431.303 182.001 431.225 182.104 431.147 182.113C430.752 182.161 430.355 182.204 429.958 182.201C429.701 182.199 429.485 182.049 429.357 181.813C429.262 181.637 429.176 181.456 429.245 181.244C429.3 181.072 429.564 180.996 429.901 181.065C429.999 181.087 430.089 181.132 430.182 181.168L430.174 181.16C430.381 181.263 430.588 181.363 430.795 181.465L430.785 181.475Z" fill="#C055D4"/>
<path d="M427.721 180.243C427.862 180.382 428.099 180.503 428.128 180.663C428.268 181.42 428.637 182.068 429.003 182.723C429.062 182.828 429.005 182.926 428.893 182.968C428.848 182.985 428.789 182.992 428.746 182.978C428.294 182.837 427.973 182.525 427.702 182.158C427.531 181.927 427.591 181.689 427.736 181.463L427.719 181.48C427.726 181.063 427.733 180.648 427.74 180.231L427.721 180.243Z" fill="#C055D4"/>
<path d="M456.826 172.871C456.634 173.102 456.458 173.35 456.242 173.557C455.89 173.898 455.521 173.805 455.279 173.338C455.191 173.169 455.236 172.904 455.398 172.788C455.6 172.64 455.811 172.504 456.028 172.378C456.192 172.283 456.36 172.342 456.548 172.542C456.653 172.652 456.745 172.773 456.843 172.888C456.845 172.885 456.826 172.871 456.826 172.871Z" fill="#C055D4"/>
<path d="M474.313 154.57C474.185 155.63 473.809 156.53 473.16 157.326C473.134 157.359 473.041 157.386 473.025 157.369C472.965 157.307 472.87 157.212 472.884 157.155C472.97 156.812 473.046 156.457 473.196 156.14C473.46 155.592 473.773 155.068 474.073 154.537C474.092 154.503 474.163 154.482 474.206 154.487C474.244 154.492 474.277 154.542 474.313 154.57Z" fill="#C055D4"/>
<path d="M475.825 154.153C475.836 154.203 475.865 154.256 475.855 154.301C475.718 155.054 475.542 155.792 475.142 156.457C475.114 156.507 474.978 156.502 474.893 156.499C474.867 156.499 474.824 156.423 474.822 156.38C474.812 156.28 474.803 156.173 474.826 156.078C474.981 155.487 475.138 154.899 475.306 154.313C475.333 154.22 475.402 154.122 475.48 154.07C475.544 154.027 475.651 154.032 475.737 154.039C475.768 154.044 475.794 154.113 475.825 154.153Z" fill="#C055D4"/>
<path d="M477.353 138.191C477.9 139.094 478.03 140.085 477.949 141.117C477.945 141.169 477.826 141.224 477.752 141.255C477.731 141.264 477.667 141.209 477.643 141.171C477.427 140.814 477.353 140.414 477.348 140.004C477.341 139.397 477.36 138.787 477.37 138.177L477.353 138.191Z" fill="#C055D4"/>
<path d="M448.571 181.17C448.588 180.915 448.607 180.66 448.624 180.408C448.662 179.793 449.054 179.553 449.653 179.796C449.719 179.822 449.753 179.96 449.779 180.05C449.791 180.089 449.757 180.153 449.724 180.189C449.382 180.567 449.042 180.951 448.557 181.158L448.571 181.17Z" fill="#C055D4"/>
<path d="M477.686 146.483C477.595 145.828 477.493 145.173 477.422 144.516C477.408 144.387 477.512 144.239 477.574 144.108C477.588 144.077 477.66 144.063 477.705 144.063C477.752 144.063 477.809 144.08 477.845 144.111C477.881 144.142 477.911 144.194 477.919 144.242C478.035 145.006 478.083 145.766 477.667 146.474C477.669 146.471 477.686 146.483 477.686 146.483Z" fill="#C055D4"/>
<path d="M445.812 178.593C445.769 178.571 445.695 178.557 445.691 178.528C445.672 178.445 445.643 178.314 445.683 178.276C446.019 177.978 446.375 177.707 446.843 177.664C446.924 177.657 447.026 177.723 447.095 177.783C447.186 177.859 447.15 178.119 447.057 178.183C446.691 178.445 446.499 178.509 445.812 178.593Z" fill="#C055D4"/>
<path d="M469.393 155.075C469.949 154.973 470.436 154.701 470.935 154.463L470.923 154.453C470.805 154.732 470.66 154.989 470.382 155.149C470.08 155.323 469.785 155.511 469.485 155.692C469.243 155.837 469.005 155.747 468.77 155.666L468.789 155.69C468.889 155.485 468.989 155.28 469.089 155.075L469.074 155.063C469.186 155.151 469.298 155.149 469.407 155.063L469.393 155.075Z" fill="#C055D4"/>
<path d="M455.849 120C456.02 120.045 456.165 120.076 456.306 120.124C456.341 120.136 456.382 120.193 456.387 120.236C456.394 120.281 456.377 120.353 456.346 120.379C456.011 120.638 455.633 120.755 455.215 120.636C455.139 120.615 455.046 120.507 455.034 120.429C455.022 120.35 455.082 120.2 455.143 120.179C455.376 120.093 455.624 120.052 455.849 120Z" fill="#C055D4"/>
<path d="M448.952 176.704C448.778 177.099 448.4 177.318 448.003 177.24C447.968 177.233 447.927 177.175 447.913 177.132C447.899 177.09 447.896 177.023 447.92 176.99C448.139 176.697 448.405 176.475 448.792 176.494C448.85 176.501 448.899 176.632 448.952 176.704Z" fill="#C055D4"/>
<path d="M464.798 161.821C465.114 162.062 465.186 162.216 465.091 162.412C464.953 162.69 464.753 162.912 464.485 163.067C464.444 163.091 464.351 163.102 464.344 163.088C464.304 163.01 464.242 162.91 464.263 162.836C464.328 162.593 464.423 162.359 464.506 162.121L464.487 162.138C464.596 162.028 464.706 161.919 464.815 161.809L464.798 161.821Z" fill="#C055D4"/>
<path d="M448.571 183.323C448.543 183.083 448.505 182.842 448.486 182.602C448.474 182.468 448.655 182.335 448.79 182.356C448.935 182.38 449.054 182.528 449.049 182.668C449.042 183.007 448.857 183.202 448.552 183.307C448.555 183.307 448.571 183.323 448.571 183.323Z" fill="#C055D4"/>
<path d="M451.687 123.268C451.676 123.313 451.68 123.38 451.652 123.401C451.443 123.556 451.214 123.661 450.946 123.599C450.905 123.59 450.863 123.537 450.848 123.497C450.837 123.454 450.844 123.385 450.87 123.356C451.065 123.149 451.31 123.125 451.571 123.18C451.614 123.19 451.649 123.24 451.687 123.268Z" fill="#C055D4"/>
<path d="M458.05 171.642C457.991 171.949 457.851 172.207 457.584 172.383C457.333 172.547 457.081 172.709 456.826 172.871L456.845 172.888C456.95 172.176 457.318 171.728 458.065 171.656L458.05 171.642Z" fill="#C055D4"/>
<path d="M465.112 168.271C465.228 167.986 465.371 167.714 465.654 167.564C465.72 167.528 465.868 167.552 465.911 167.602C465.953 167.652 465.934 167.79 465.894 167.862C465.849 167.945 465.759 168.019 465.671 168.059C465.488 168.14 465.293 168.198 465.105 168.264L465.112 168.271Z" fill="#C055D4"/>
<path d="M411.11 159.005C410.988 158.884 410.853 158.808 410.808 158.693C410.746 158.543 410.872 158.434 410.998 158.36C411.038 158.336 411.086 158.307 411.131 158.305C411.224 158.3 411.342 158.279 411.402 158.324C411.53 158.429 411.521 158.598 411.44 158.72C411.369 158.829 411.238 158.898 411.11 159.005Z" fill="#C055D4"/>
<path d="M450.076 181.551C450.057 181.596 450.047 181.651 450.017 181.689C449.917 181.813 449.786 181.882 449.624 181.839C449.494 181.806 449.418 181.608 449.463 181.461C449.527 181.26 449.762 181.17 449.952 181.296C450.021 181.341 450.038 181.463 450.076 181.551Z" fill="#C055D4"/>
<path d="M466.954 163.05C467.042 162.638 467.199 162.269 467.586 162.045C467.693 161.983 467.791 162.007 467.85 162.109C467.872 162.147 467.876 162.216 467.857 162.257C467.662 162.643 467.304 162.843 466.945 163.038L466.954 163.05Z" fill="#C055D4"/>
<path d="M466.631 163.353C466.502 163.629 466.377 163.908 466.241 164.181C466.224 164.217 466.146 164.255 466.115 164.243C466.011 164.205 465.991 164.112 466.027 163.993C466.12 163.674 466.338 163.476 466.64 163.362C466.643 163.364 466.631 163.353 466.631 163.353Z" fill="#C055D4"/>
<path d="M461.048 120.655C461.143 120.674 461.24 120.684 461.333 120.712C461.373 120.727 461.433 120.786 461.428 120.815C461.414 120.905 461.392 121.017 461.333 121.067C461.266 121.122 461.15 121.134 461.057 121.129C460.893 121.12 460.748 120.927 460.822 120.822C460.869 120.748 460.969 120.71 461.048 120.655Z" fill="#C055D4"/>
<path d="M465.105 168.264C464.991 168.765 464.732 169.119 464.183 169.179L464.199 169.196C464.382 168.767 464.708 168.479 465.112 168.271L465.105 168.264Z" fill="#C055D4"/>
<path d="M455.78 122.635C455.731 122.577 455.683 122.52 455.635 122.463C455.671 122.442 455.726 122.396 455.735 122.406C455.792 122.454 455.837 122.515 455.885 122.573C455.852 122.594 455.816 122.615 455.78 122.635Z" fill="#C055D4"/>
<path d="M470.004 153.527C469.911 153.908 469.709 154.215 469.386 154.437L469.4 154.449C469.474 154.056 469.692 153.763 470.013 153.536L470.004 153.527Z" fill="#C055D4"/>
<path d="M476.687 145.635C476.649 145.654 476.611 145.671 476.573 145.69C476.554 145.604 476.53 145.516 476.523 145.428C476.523 145.414 476.595 145.392 476.633 145.376C476.652 145.464 476.668 145.549 476.687 145.635Z" fill="#C055D4"/>
<path d="M406.299 177.375C406.315 177.418 406.349 177.464 406.339 177.499C406.332 177.533 406.275 177.578 406.244 177.575C406.116 177.561 406.087 177.485 406.173 177.387C406.194 177.366 406.256 177.38 406.299 177.375Z" fill="#C055D4"/>
<path d="M432.601 130.886C432.566 130.91 432.501 130.96 432.497 130.955C432.44 130.895 432.392 130.826 432.342 130.76C432.38 130.736 432.442 130.686 432.449 130.693C432.504 130.75 432.551 130.819 432.601 130.886Z" fill="#C055D4"/>
<path d="M473.982 151.988C474.004 152.136 474.035 152.283 474.044 152.431C474.047 152.467 473.994 152.522 473.956 152.538C473.852 152.586 473.747 152.548 473.723 152.433C473.693 152.288 473.704 152.133 473.697 151.981L473.676 152.002C473.783 152.002 473.89 152.002 473.999 152.002L473.982 151.988Z" fill="#C055D4"/>
<path d="M453.199 172.847C453.23 172.864 453.263 172.878 453.294 172.895C453.278 172.928 453.266 172.976 453.242 172.988C453.221 172.997 453.18 172.962 453.149 172.947C453.163 172.912 453.18 172.881 453.199 172.847Z" fill="#C055D4"/>
<path d="M471.541 157.519C471.587 157.436 471.618 157.336 471.684 157.271C471.777 157.181 471.867 157.207 471.891 157.324C471.898 157.357 471.853 157.421 471.817 157.438C471.729 157.476 471.634 157.495 471.541 157.521C471.544 157.524 471.541 157.519 471.541 157.519Z" fill="#C055D4"/>
<path d="M458.276 122.627L458.267 122.506L458.374 122.558L458.276 122.627Z" fill="#C055D4"/>
<path d="M455.303 176.254C455.26 176.139 455.124 176.039 455.258 175.903C455.281 175.932 455.329 175.961 455.326 175.989C455.322 176.082 455.303 176.173 455.288 176.263L455.303 176.254Z" fill="#C055D4"/>
<path d="M437.531 135.421C437.78 135.581 438.006 135.762 438.139 136.036L438.156 136.019C437.821 135.948 437.631 135.731 437.54 135.412L437.531 135.421Z" fill="#C055D4"/>
<path d="M476.364 152.76C476.338 152.791 476.312 152.822 476.286 152.853C476.26 152.822 476.207 152.781 476.214 152.76C476.26 152.631 476.314 152.633 476.364 152.76Z" fill="#C055D4"/>
<path d="M449.779 124.049C449.579 124.152 449.377 124.254 449.177 124.359L449.187 124.371C449.389 124.269 449.591 124.166 449.793 124.066L449.779 124.049Z" fill="#C055D4"/>
<path d="M449.177 124.357C448.968 124.457 448.759 124.557 448.55 124.657L448.562 124.671C448.771 124.569 448.978 124.469 449.187 124.369L449.177 124.357Z" fill="#C055D4"/>
<path d="M473.374 132.66C473.414 132.725 473.457 132.787 473.498 132.851C473.469 132.829 473.426 132.813 473.412 132.782C473.393 132.741 473.395 132.691 473.391 132.644L473.374 132.66Z" fill="#C055D4"/>
<path d="M477.367 138.18C477.339 138.144 477.31 138.108 477.282 138.072C477.305 138.113 477.329 138.151 477.353 138.191L477.367 138.18Z" fill="#C055D4"/>
<path d="M470.938 154.463C470.95 154.418 470.961 154.372 470.973 154.327C470.957 154.37 470.94 154.411 470.926 154.453L470.938 154.463Z" fill="#C055D4"/>
<path d="M469.386 154.437C469.388 154.649 469.393 154.861 469.395 155.075L469.412 155.061C469.3 155.061 469.191 155.061 469.079 155.061L469.093 155.073C469.195 154.865 469.3 154.656 469.402 154.449C469.4 154.449 469.386 154.437 469.386 154.437Z" fill="#C055D4"/>
<path d="M458.376 171.342C458.445 171.306 458.514 171.27 458.583 171.232C458.557 171.258 458.535 171.297 458.502 171.308C458.459 171.325 458.409 171.32 458.362 171.328C458.364 171.33 458.376 171.342 458.376 171.342Z" fill="#C055D4"/>
<path d="M443.67 178.714C443.734 178.674 443.796 178.633 443.86 178.593C443.839 178.624 443.822 178.669 443.792 178.681C443.751 178.7 443.699 178.693 443.654 178.697L443.67 178.714Z" fill="#C055D4"/>
<path d="M466.327 126.503C466.327 126.608 466.327 126.713 466.327 126.82L466.338 126.834C466.338 126.72 466.338 126.605 466.338 126.493L466.327 126.503Z" fill="#C055D4"/>
<path d="M467.872 128.056L467.855 128.039C467.855 128.037 467.872 128.056 467.872 128.056Z" fill="#C055D4"/>
<path d="M473.388 132.644L473.372 132.66C473.374 132.66 473.388 132.644 473.388 132.644Z" fill="#C055D4"/>
<path d="M403.52 132.641L403.532 132.653C403.532 132.656 403.52 132.641 403.52 132.641Z" fill="#C055D4"/>
<path d="M437.54 135.412C437.436 135.307 437.334 135.202 437.229 135.1L437.219 135.109C437.324 135.214 437.429 135.319 437.531 135.421L437.54 135.412Z" fill="#C055D4"/>
<path d="M468.482 159.051C468.378 159.051 468.273 159.051 468.169 159.051L468.162 159.06C468.273 159.06 468.385 159.063 468.497 159.063L468.482 159.051Z" fill="#C055D4"/>
<path d="M470.051 159.401C469.923 159.484 469.806 159.475 469.702 159.358L469.687 159.372C469.778 159.356 469.871 159.344 469.963 159.339L470.051 159.401Z" fill="#C055D4"/>
<path d="M466.942 163.04C466.838 163.145 466.735 163.25 466.631 163.355L466.64 163.364C466.745 163.26 466.849 163.157 466.954 163.052C466.954 163.05 466.942 163.04 466.942 163.04Z" fill="#C055D4"/>
<path d="M464.183 169.179L464.199 169.196C464.197 169.196 464.183 169.179 464.183 169.179Z" fill="#C055D4"/>
<path d="M458.065 171.656C458.169 171.551 458.271 171.447 458.376 171.342L458.362 171.328C458.257 171.432 458.153 171.535 458.05 171.64C458.05 171.642 458.065 171.656 458.065 171.656Z" fill="#C055D4"/>
<path d="M449.784 174.717C449.784 174.817 449.784 174.915 449.784 175.015L449.798 175.029C449.798 174.92 449.8 174.812 449.8 174.703L449.784 174.717Z" fill="#C055D4"/>
<path d="M448.861 175.334L448.871 175.325C448.873 175.325 448.861 175.334 448.861 175.334Z" fill="#C055D4"/>
<path d="M445.189 177.471C445.087 177.573 444.985 177.676 444.88 177.776L444.897 177.792C444.999 177.69 445.101 177.585 445.201 177.483L445.189 177.471Z" fill="#C055D4"/>
<path d="M442.43 179.927L442.441 179.939C442.441 179.941 442.43 179.927 442.43 179.927Z" fill="#C055D4"/>
<path d="M450.694 180.87C450.806 180.87 450.917 180.87 451.027 180.87L451.012 180.851C450.91 180.851 450.808 180.853 450.706 180.853L450.694 180.87Z" fill="#C055D4"/>
<path d="M445.793 182.378C445.793 182.49 445.795 182.599 445.795 182.711L445.807 182.702C445.807 182.597 445.807 182.494 445.807 182.39L445.793 182.378Z" fill="#C055D4"/>
<path d="M469.096 167.052L469.079 167.035C469.079 167.033 469.096 167.052 469.096 167.052Z" fill="#C055D4"/>
</svg>
