<svg width="351" height="163" viewBox="0 0 351 163" fill="none" xmlns="http://www.w3.org/2000/svg">
<path d="M62.5038 148.343L69.3321 155.172C64.7064 159.577 58.5389 162 52.1511 162C28.1417 162 14.2648 148.343 14.2648 117.285V45.037H0.608079V41.5127H14.2648V20.8074L34.9701 17.2831V41.5127H62.5038V45.037H34.9701V120.81C34.9701 144.819 38.4944 158.696 52.1511 158.696C58.9794 158.696 62.5038 148.343 62.5038 148.343ZM170.217 41.5127L190.922 37.9884V158.696L170.217 162V148.784C158.323 157.815 143.785 162.441 128.807 162C94.4445 162 66.9109 141.515 66.9109 100.104C66.9109 58.6937 94.4445 37.9884 128.807 37.9884C143.785 37.5479 158.323 42.3938 170.217 51.4248V41.5127ZM135.635 158.696C149.512 158.035 162.287 150.987 170.217 139.753V63.7599C157.662 50.3235 140.261 42.3938 121.978 41.5127C94.4445 41.5127 87.3959 72.5707 87.3959 100.104C87.3959 141.515 114.93 158.696 135.635 158.696ZM186.116 0.102071C206.601 0.102071 227.306 7.15069 227.306 31.16V158.696L206.601 162V31.16C206.601 7.15069 196.249 3.62637 189.42 3.62637L186.116 0.102071ZM291.672 90.1922C326.694 94.1571 348.721 138.872 348.721 158.696L333.523 162.22C333.523 145.039 321.408 94.5976 287.927 93.276L269.424 108.695V158.476L248.939 162V3.40611L269.424 0.102071V104.289L286.826 89.7517L348.501 37.9884L350.924 40.6316L291.672 90.1922Z" fill="#E0CD70"/>
</svg>
