<svg width="217" height="83" viewBox="0 0 217 83" fill="none" xmlns="http://www.w3.org/2000/svg">
<path d="M159.641 52.2725C161.282 51.2847 162.922 50.7915 164.562 50.7931C165.658 50.5895 166.617 50.249 167.438 49.7716C169.775 49.2909 171.875 48.5483 173.738 47.5438C174.138 47.3306 174.331 47.0889 174.317 46.8187C174.294 46.35 174.75 45.7802 175.686 45.1092L190.586 40.7801C191.149 40.614 191.251 40.4182 190.892 40.1928C190.585 40.0036 190.157 39.9059 189.61 39.8999C188.877 39.8865 188.828 39.7839 189.465 39.5921C192.892 38.5653 196.176 38.0127 199.316 37.9344C200.01 37.9165 200.617 37.9942 201.135 38.1675L215.575 42.9813C215.839 43.0692 216.008 43.2024 216.047 43.3533C216.085 43.5043 215.991 43.6613 215.783 43.7918C213.866 44.9647 211.614 45.4163 208.252 45.6411C203.93 45.9274 199.963 46.7266 196.35 48.0389C191.273 49.8771 186.309 51.7374 181.457 53.6196C179.921 54.2209 178.942 54.8968 178.52 55.6474C178.029 56.5229 178.449 56.6071 179.781 55.8999C182.553 54.4193 185.62 53.3855 188.983 52.7986C189.587 52.6968 190.158 52.7044 190.698 52.8213C196.474 54.0437 201.988 55.6081 207.238 57.5143C207.398 57.5724 207.529 57.6449 207.622 57.7277C207.715 57.8106 207.768 57.9021 207.78 57.9971C207.792 58.092 207.761 58.1885 207.689 58.2811C207.618 58.3736 207.507 58.4603 207.364 58.5362C204.622 59.9988 200.451 60.8192 196.898 61.7167C196.26 61.8755 195.762 62.0992 195.403 62.3878C194.328 63.2427 192.794 63.877 190.802 64.2909C190.432 64.3645 190.182 64.3216 190.05 64.1624C189.984 64.0993 189.974 64.0251 190.02 63.94C190.054 63.872 190.126 63.8159 190.235 63.7718L194.153 62.3504C195.081 62.0169 194.99 61.9358 193.88 62.1069C190.021 62.7018 186.937 63.6618 184.63 64.9867C184.231 65.211 183.735 65.3627 183.143 65.4419C181.13 65.6964 179.64 66.1988 178.67 66.9488C178.264 67.2619 178.444 67.3884 179.211 67.3282C180.548 67.2288 181.853 67.1087 183.126 66.9682C184.25 66.8461 185.053 67.1214 185.533 67.794C185.549 67.865 185.24 68.0103 184.605 68.2298C183.132 68.347 181.739 68.5681 180.426 68.893C179.799 69.0457 179.611 69.2595 179.861 69.5346C180.045 69.741 180.459 69.9388 181.102 70.128C182.056 70.0806 182.565 70.1853 182.627 70.442C180.25 71.3669 177.611 72.1445 174.71 72.7748C173.051 73.139 172.168 73.3735 172.062 73.4783C170.641 74.9029 171.414 75.1935 174.378 74.35C178.697 73.1242 183.512 71.3847 188.823 70.9886C189.504 70.9383 189.746 71.0617 189.549 71.3588L188.819 72.4232C187.998 72.6408 188.081 73.1811 189.068 74.0442C185.082 73.352 181.984 73.6383 179.773 74.9032C179.267 74.9725 178.989 75.1217 178.938 75.3509C178.865 75.6309 179.066 75.6679 179.54 75.462C179.698 75.3878 179.895 75.3504 180.131 75.3497C180.454 75.3448 180.531 75.4045 180.363 75.5289C178.1 77.2441 174.718 78.5698 170.217 79.5061C165.071 80.5822 163.14 79.9815 158.152 78.977C154.399 78.2125 151.06 77.2809 148.136 76.1824C147.796 76.0533 147.391 75.961 146.948 75.9114C146.505 75.8619 146.035 75.8564 145.568 75.8952L136.884 76.6493C136.241 76.7088 135.661 76.6657 135.144 76.52C132.952 75.9102 130.673 75.418 128.306 75.0435C126.164 74.702 124.049 74.257 121.959 73.7084C119.857 73.1605 117.532 72.748 114.983 72.4709C114.397 72.4115 113.814 72.4377 113.235 72.5493C110.042 73.172 105.298 73.7058 103.417 72.2321C103.222 72.0801 102.947 71.9535 102.614 71.8623C102.28 71.771 101.897 71.7177 101.493 71.7064C101.09 71.695 100.678 71.7261 100.29 71.797C99.9017 71.868 99.5474 71.9768 99.2551 72.1152C93.2834 74.9595 87.2839 77.4957 81.2568 79.7237C78.1274 80.8821 68.5242 83.4063 64.6636 82.2215C63.036 81.7219 62.1534 81.4589 62.0154 81.4326C57.9111 80.5971 53.7753 79.752 49.608 78.8975C49.2622 78.8258 48.971 78.7137 48.7617 78.5718C48.5525 78.4298 48.4322 78.2627 48.4123 78.0863C48.3132 77.0908 48.8916 76.1003 50.1473 75.1149C55.9711 70.5424 64.2184 65.2306 74.889 59.1795C75.9768 58.5672 77.2744 58.3011 78.7817 58.3811C79.0584 58.3954 79.3442 58.3793 79.6146 58.3341C79.8851 58.2889 80.1321 58.2161 80.3344 58.1217C81.0384 57.7883 81.5425 57.4317 81.8467 57.0518C82.1393 56.689 81.9311 56.6248 81.2221 56.8589C79.9751 57.269 78.5055 57.5713 76.813 57.7658C76.0987 57.8443 75.4344 58.0096 74.8984 58.2421C62.7329 63.588 52.7132 68.985 38.9832 74.3505C33.9374 76.3253 29.724 75.1663 24.6792 74.5294C21.1909 74.0889 17.5814 73.0824 13.6332 72.7642C13.3924 72.7453 13.1698 72.7014 12.982 72.6357C12.7943 72.5701 12.6465 72.4844 12.5499 72.3853C12.4533 72.2861 12.4104 72.1761 12.4246 72.0636C12.4388 71.9511 12.5098 71.839 12.6319 71.736C17.3916 67.7523 23.0492 64.2134 29.6049 61.119C30.9886 60.4589 32.0463 59.7404 32.7781 58.9635C33.5324 58.1412 34.3465 57.2689 35.2201 56.3468C35.4444 56.1103 35.8575 55.9139 36.373 55.7986C36.8884 55.6834 37.4662 55.6583 37.985 55.7287C38.7233 55.8358 39.4161 55.7766 40.0635 55.551C41.5472 55.0297 41.671 54.1447 42.882 53.7613C44.6311 53.2047 46.2842 52.5921 47.8414 51.9234C48.3036 51.7236 48.8442 51.6001 49.463 51.5528C50.6757 51.4539 51.739 51.2243 52.653 50.8639C53.1403 50.6684 53.4579 50.4343 53.6059 50.1617C54.2856 48.8346 55.937 47.813 58.5603 47.097C59.1242 46.9419 59.1902 46.77 58.7584 46.5814C58.339 46.3922 57.9493 46.3009 57.5894 46.3078C57.3378 46.3113 57.0953 46.2834 56.8889 46.2272C56.6825 46.1711 56.5203 46.0888 56.4206 45.9896C56.3209 45.8904 56.2876 45.7783 56.3243 45.6657C56.3611 45.5531 56.4665 45.4446 56.6288 45.3522C58.2246 44.4605 59.9617 43.7885 61.8402 43.336C62.4296 43.1962 62.8605 42.9897 63.1327 42.7164C64.1173 41.7776 65.5235 40.9479 67.3514 40.2271C67.3687 40.2199 67.3828 40.2113 67.3928 40.2018C67.4029 40.1923 67.4088 40.1822 67.41 40.1721C67.4113 40.162 67.4079 40.152 67.4002 40.1428C67.3924 40.1336 67.3803 40.1254 67.3647 40.1187L67.0587 39.9597C66.8549 39.8593 66.6312 39.8566 66.3874 39.9516C54.3451 44.6502 45.2661 48.0964 39.1503 50.2901C36.9409 51.0851 34.4392 51.6237 31.6453 51.906C29.4077 52.1331 26.9041 52.0058 24.1344 51.5241C19.5729 50.7389 14.8212 49.8719 9.87887 48.9231C9.13433 49.1922 8.60218 49.1108 8.28257 48.679C8.13694 48.4983 8.126 48.2777 8.24975 48.0173C8.61964 47.2086 8.92777 46.5328 9.17418 45.9899L18.8218 40.23C19.5094 39.8145 19.3699 39.5064 18.4032 39.3056L9.32752 37.4343L1.02551 34.6292C0.54552 34.4706 0.373281 34.2526 0.508606 33.975C1.2955 32.3054 2.94988 30.7172 5.47183 29.2102C5.88593 28.9651 6.10799 28.6701 6.10018 28.3756C6.09237 28.0811 5.85521 27.8054 5.42905 27.5956L3.251 26.5181C2.76665 26.2792 2.52891 25.9561 2.58882 25.6182C2.64873 25.2804 3.00146 24.9547 3.57132 24.7113C5.48162 23.898 6.63037 23.2606 7.01748 22.7993C17.8386 17.2769 29.5296 12.3856 42.0906 8.12559C44.5589 7.29013 46.9487 6.37564 49.2601 5.38215C55.4649 2.72802 62.7544 -0.601752 69.8773 3.23186C72.0469 4.38999 74.4769 5.41085 77.1671 6.29443C77.673 6.45943 78.0342 6.69657 78.1986 6.97158C78.363 7.24659 78.322 7.54522 78.0816 7.82435C77.026 9.08719 75.0001 10.1992 72.0038 11.1603C64.1159 13.6962 56.6596 16.1692 49.6351 18.5794C49.1589 18.7467 48.6233 18.8451 48.0284 18.8746C46.9504 18.9336 46.1595 19.1442 45.6556 19.5064C45.26 19.7968 45.4133 19.8804 46.1153 19.7572C51.0112 18.8925 55.502 18.5039 59.7787 17.1808C70.0941 13.9883 80.4224 10.8035 90.7634 7.62642C99.3726 4.97739 108.573 2.5975 117.473 0.174483C118.024 0.0255148 118.552 0.0186927 119.056 0.154C124.885 1.69991 130.1 3.63834 134.701 5.96926C134.818 6.02836 134.9 6.1003 134.939 6.17923C134.978 6.25816 134.975 6.34184 134.928 6.4234C134.881 6.50497 134.792 6.58211 134.669 6.64854C134.547 6.71497 134.393 6.76878 134.221 6.80559C133.041 7.06862 132.16 7.46334 131.577 7.9897C131.255 8.27096 131.421 8.34842 132.073 8.22211C135.893 7.46054 139.215 6.79829 142.965 5.75002C149.68 3.87478 156.695 2.39925 164.01 1.32341C164.295 1.28309 164.591 1.26894 164.877 1.28186C165.163 1.29479 165.434 1.3345 165.672 1.39847C171.214 2.92545 176.206 4.61516 180.646 6.46764C181.37 6.77445 181.387 7.11631 180.697 7.49321C173.748 11.3035 167.09 14.2123 157.824 17.5075C148.788 20.7083 139.718 24.0904 130.614 27.6539C129.493 28.0909 128.637 28.8767 128.047 30.0115C127.9 30.2951 127.519 30.4937 126.903 30.6072C125.425 30.8739 124.168 31.1961 123.13 31.5737C105.85 37.8697 93.6681 42.6388 86.5854 45.8809C81.0575 48.4047 75.836 50.8443 70.9209 53.1995C70.7631 53.2737 70.7543 53.346 70.8945 53.4164L70.9134 53.4238C71.0535 53.4942 71.2214 53.4969 71.417 53.4319C78.1183 51.0185 84.8801 47.9471 90.5683 45.7746C99.4942 42.3719 108.269 38.927 117.621 35.8515C127.682 32.5445 137.828 29.2997 148.056 26.1171C152.829 24.6367 156.84 22.8459 161.397 21.1689C163.203 20.499 165.106 19.6749 167.108 18.6968C169.582 17.488 171.823 16.44 175.023 15.5765C178.113 14.7489 180.955 13.812 183.549 12.7657C186.68 11.505 189.991 11.3877 193.484 12.4139C197.052 13.4639 200.628 14.79 204.211 16.3921C204.388 16.4697 204.525 16.5642 204.613 16.6699C204.701 16.7755 204.739 16.8902 204.724 17.007C204.709 17.1239 204.641 17.2405 204.525 17.3499C204.409 17.4593 204.248 17.5592 204.049 17.6437C199.266 19.6497 194.242 21.6815 188.976 23.7391C186.563 24.6796 183.02 25.3943 180.492 26.6472C180.055 26.8679 180.065 27.0664 180.521 27.2427C182.029 27.8367 184.035 28.4365 186.537 29.0419C189.605 29.7741 193.093 30.9663 197.002 32.6186C197.433 32.8017 197.405 32.9882 196.918 33.1782C182.206 39.0318 162.02 45.7539 145.035 53.4946C142.684 54.5729 140.069 54.827 137.511 55.8658C137.385 55.9168 137.281 55.9776 137.207 56.0441C137.133 56.1106 137.091 56.1814 137.083 56.2519L136.992 56.671C136.935 57.011 137.23 57.082 137.879 56.884L142.745 55.4238C142.966 55.3585 143.216 55.3177 143.471 55.3051C143.726 55.2924 143.978 55.3085 144.204 55.3517C144.431 55.3949 144.624 55.4639 144.767 55.5523C144.91 55.6408 144.997 55.7459 145.022 55.8581C145.119 56.3231 144.71 56.7082 143.793 57.0135C142.18 57.5495 139.745 57.3055 137.576 57.9271C137.038 58.0865 136.669 58.301 136.472 58.5705C135.091 60.4133 131.502 60.9644 129.257 61.9132C126.835 62.9287 124.298 63.8809 121.646 64.7697C121.585 64.7838 121.573 64.8037 121.612 64.8294L121.862 64.9994C122.03 65.1127 122.254 65.132 122.536 65.0572C128.83 63.4405 134.3 61.3866 138.948 58.8954C139.698 58.4934 141.189 58.2508 143.422 58.1678C144.029 58.1431 144.603 58.0539 145.142 57.9C150.582 56.3644 155.415 54.4886 159.641 52.2725ZM93.6481 7.92275C92.8001 8.10853 92.0373 8.38679 91.3599 8.75756C90.7908 9.05663 90.8997 9.12309 91.6866 8.95693C92.5961 8.75705 93.3909 8.49929 94.071 8.18366C95.0668 7.71972 94.9259 7.63275 93.6481 7.92275ZM88.0607 9.79998C87.9797 9.71585 87.6667 9.68788 87.1904 9.72226C86.7142 9.75664 86.1138 9.85055 85.5213 9.98331C84.9288 10.1161 84.3928 10.2768 84.0311 10.4302C83.6695 10.5836 83.5119 10.717 83.593 10.8011C83.674 10.8852 83.987 10.9132 84.4632 10.8788C84.9395 10.8444 85.5399 10.7505 86.1324 10.6178C86.7249 10.485 87.2609 10.3243 87.6225 10.1709C87.9842 10.0175 88.1418 9.88412 88.0607 9.79998ZM130.187 10.369C130.082 10.2713 129.442 10.3095 128.407 10.4751C127.373 10.6408 126.029 10.9203 124.671 11.2522C123.998 11.4166 123.343 11.589 122.741 11.7593C122.14 11.9297 121.605 12.0949 121.166 12.2453C120.727 12.3958 120.394 12.5286 120.184 12.6362C119.975 12.7438 119.894 12.8241 119.946 12.8725C120.051 12.9702 120.691 12.932 121.726 12.7663C122.76 12.6007 124.104 12.3212 125.462 11.9892C126.135 11.8248 126.79 11.6525 127.392 11.4821C127.993 11.3117 128.528 11.1466 128.967 10.9961C129.406 10.8457 129.74 10.7128 129.949 10.6052C130.158 10.4976 130.239 10.4174 130.187 10.369ZM129.711 12.8247C124.279 13.0278 119.968 14.2946 116.779 16.625C116.468 16.856 116.041 17.0292 115.5 17.1445C111.026 18.1236 106.885 19.4234 103.077 21.0439C102.986 21.0838 102.93 21.1369 102.922 21.1916C102.915 21.2463 102.955 21.2982 103.035 21.3362L103.607 21.598C104.091 21.8227 104.543 21.7948 104.964 21.5141C107.224 19.9925 110.711 18.7777 115.425 17.8695C118.415 17.2901 121.382 16.2474 124.096 15.3501C126.975 14.3948 130.975 13.8895 133.68 12.8185C135.642 12.0358 135.375 11.792 132.88 12.0871C132.299 12.1546 131.802 12.2815 131.389 12.4678C130.931 12.672 130.333 12.7992 129.711 12.8247ZM65.7659 16.5273C65.5681 16.5481 65.3959 16.5843 65.2494 16.6358C64.858 16.7602 64.833 16.8831 65.1745 17.0043C65.3642 17.0723 65.5716 17.12 65.7966 17.1476C66.2219 17.2038 66.6113 17.1652 66.965 17.0316C67.636 16.7827 68.2296 16.4769 68.7459 16.1141C69.2142 15.7869 69.0547 15.7036 68.2676 15.8643C67.5175 16.0231 66.8251 16.2149 66.1902 16.4399C66.0681 16.4846 65.9267 16.5137 65.7659 16.5273ZM58.3186 19.2986C58.2646 19.2713 58.1777 19.2577 58.0626 19.2586C57.9475 19.2596 57.8065 19.2751 57.6478 19.3043C57.4892 19.3334 57.3159 19.3757 57.1378 19.4286C56.9597 19.4816 56.7803 19.5442 56.6099 19.6128C56.4395 19.6815 56.2814 19.7548 56.1446 19.8287C56.0078 19.9027 55.895 19.9757 55.8127 20.0436C55.7303 20.1115 55.6801 20.173 55.6648 20.2246C55.6494 20.2762 55.6693 20.3168 55.7233 20.3442C55.7772 20.3716 55.8643 20.3852 55.9794 20.3842C56.0944 20.3833 56.2353 20.3678 56.394 20.3386C56.5527 20.3094 56.726 20.2671 56.9041 20.2142C57.0822 20.1613 57.2616 20.0987 57.432 20.03C57.6024 19.9614 57.7605 19.888 57.8973 19.8141C58.0341 19.7402 58.147 19.6672 58.2293 19.5993C58.3116 19.5313 58.3618 19.4698 58.3772 19.4183C58.3925 19.3667 58.3726 19.326 58.3186 19.2986ZM45.5042 23.593C47.1129 22.9605 48.8434 22.4048 50.6958 21.926C51.3585 21.7605 51.6437 21.5004 51.5516 21.1457C51.4737 20.829 51.199 20.8011 50.7274 21.0622C49.0699 21.9625 47.0336 22.7406 44.6185 23.3965C44.6127 23.3993 44.6082 23.4023 44.6051 23.4053C44.602 23.4083 44.6006 23.4113 44.6008 23.414L44.8697 23.5748C45.0489 23.6819 45.2605 23.688 45.5042 23.593ZM54.1612 23.7727C54.1247 23.751 54.0783 23.7331 54.0247 23.72C53.9711 23.707 53.9113 23.699 53.8488 23.6966C53.7862 23.6942 53.7222 23.6974 53.6602 23.7061C53.5982 23.7147 53.5396 23.7285 53.4876 23.7469L30.9916 31.6797C30.8867 31.7167 30.8153 31.7696 30.7932 31.8268C30.771 31.8839 30.8001 31.9407 30.8737 31.9845L31.13 32.1372C31.1665 32.1589 31.2128 32.1768 31.2664 32.1898C31.32 32.2029 31.3798 32.2109 31.4424 32.2132C31.5049 32.2156 31.569 32.2124 31.631 32.2038C31.6929 32.1952 31.7516 32.1813 31.8036 32.163L54.2995 24.2302C54.4044 24.1932 54.4758 24.1403 54.4979 24.0831C54.52 24.0259 54.4911 23.9692 54.4175 23.9254L54.1612 23.7727ZM99.5678 21.9329C99.4601 21.8715 99.2193 21.8629 98.8982 21.909C98.5772 21.9552 98.2022 22.0522 97.8558 22.1789C97.6843 22.2416 97.5249 22.3097 97.3868 22.3793C97.2488 22.4488 97.1347 22.5185 97.0511 22.5844C96.9675 22.6502 96.9161 22.7109 96.8997 22.763C96.8834 22.815 96.9024 22.8575 96.9557 22.8879C97.0634 22.9493 97.3043 22.9578 97.6254 22.9117C97.9465 22.8655 98.3214 22.7685 98.6678 22.6419C98.8394 22.5791 98.9987 22.511 99.1368 22.4415C99.2749 22.3719 99.3889 22.3022 99.4725 22.2364C99.5561 22.1705 99.6076 22.1098 99.6239 22.0577C99.6403 22.0057 99.6212 21.9632 99.5678 21.9329ZM74.8927 30.6998C73.6987 30.9249 72.904 31.3097 72.5086 31.8544C72.1471 32.3311 72.3861 32.3939 73.226 32.0427L77.1517 30.4054C77.8211 30.1234 77.7369 30.0557 76.8993 30.2023C76.2346 30.3265 75.5389 30.5766 74.8927 30.6998ZM67.9355 33.2604C67.8737 33.2264 67.7963 33.1988 67.7079 33.1791C67.6194 33.1595 67.5216 33.1482 67.42 33.1459C67.3184 33.1437 67.215 33.1505 67.1157 33.1659C67.0164 33.1814 66.9233 33.2052 66.8414 33.236L56.1579 37.2579C55.9926 37.3201 55.8837 37.407 55.8551 37.4996C55.8265 37.5922 55.8805 37.6828 56.0054 37.7515L56.0502 37.7762C56.112 37.8103 56.1894 37.8379 56.2778 37.8575C56.3663 37.8772 56.4641 37.8885 56.5657 37.8907C56.6673 37.893 56.7706 37.8862 56.8699 37.8707C56.9691 37.8553 57.0624 37.8315 57.1443 37.8007L67.8278 33.7788C67.9931 33.7166 68.102 33.6296 68.1306 33.5371C68.1592 33.4445 68.1052 33.3539 67.9803 33.2851L67.9355 33.2604ZM117.252 38.183L117.857 37.9788C118.737 37.6864 118.665 37.6126 117.641 37.7574C115.445 38.0763 113.635 38.6498 112.21 39.4777C111.811 39.7075 111.336 39.8887 110.783 40.0211C104.237 41.5453 98.3381 43.485 93.0876 45.8403C90.3709 47.0529 89.4796 48.6226 86.2073 49.5311C86.1405 49.5489 86.0819 49.5726 86.0354 49.6007C85.9888 49.6287 85.9554 49.6604 85.9376 49.6936C85.9198 49.7267 85.9179 49.7606 85.9321 49.7928C85.9462 49.8251 85.9761 49.8549 86.0197 49.8804L86.346 50.0714C86.4992 50.1523 86.6669 50.155 86.8496 50.0796C95.8735 46.3985 103.682 43.383 110.274 41.033C113.656 39.8316 115.897 38.9162 116.996 38.2868C117.069 38.2502 117.155 38.2153 117.252 38.183ZM85.7396 54.7528C85.6572 54.8453 85.581 54.9375 85.511 55.0294C85.279 55.3615 85.5131 55.4466 86.2132 55.2848C86.852 55.137 87.3803 54.8925 87.7982 54.5512C87.898 54.4672 87.9471 54.3744 87.9402 54.2832C87.9333 54.1919 87.8706 54.1057 87.759 54.034C87.6475 53.9623 87.4914 53.908 87.3081 53.877C87.1248 53.846 86.9213 53.8396 86.7202 53.8584C86.2008 53.9063 85.9189 54.111 85.8747 54.4725C85.8672 54.5723 85.8222 54.6658 85.7396 54.7528ZM80.9275 73.8369C83.0355 72.251 85.5418 70.8028 88.4462 69.4925C88.5556 69.4429 88.6398 69.3862 88.6987 69.3224C88.8034 69.1791 88.5919 69.0486 88.0643 68.9311C87.8842 68.89 87.6699 68.8822 87.4641 68.9093C87.2583 68.9364 87.0758 68.9964 86.9533 69.0774L79.9629 73.5531C79.8425 73.6309 79.8645 73.6961 80.0286 73.7488L80.5198 73.8819C80.5524 73.8908 80.5889 73.8966 80.6272 73.8991C80.6655 73.9017 80.7049 73.9008 80.7429 73.8966C80.7809 73.8924 80.8168 73.885 80.8485 73.8747C80.8802 73.8644 80.907 73.8516 80.9275 73.8369Z" fill="#D269E6"/>
</svg>
