<svg width="63" height="55" viewBox="0 0 63 55" fill="none" xmlns="http://www.w3.org/2000/svg">
<path d="M37.0884 0.601333C37.0909 0.602338 37.0934 0.602573 37.0959 0.602033C37.101 0.599923 37.1027 0.591403 37.1009 0.576478C37.0996 0.565156 37.0971 0.557967 37.0934 0.554913C37.0872 0.549824 37.0867 0.54133 37.0917 0.529428C37.1043 0.500451 37.1159 0.497247 37.1264 0.519811C37.1385 0.546484 37.1372 0.558346 37.1225 0.555397C37.1179 0.554412 37.1141 0.559344 37.1112 0.570192C37.1069 0.586722 37.1076 0.601918 37.1132 0.615772C37.1217 0.636296 37.1315 0.644447 37.1426 0.640214C37.1528 0.635993 37.1582 0.617644 37.1587 0.585178C37.1589 0.573327 37.1572 0.565622 37.1535 0.562054C37.1444 0.552869 37.1442 0.542564 37.1527 0.531146C37.2023 0.463682 37.2482 0.442617 37.2904 0.467963C37.3537 0.50598 37.413 0.498185 37.4682 0.444575C37.4965 0.417248 37.5109 0.482017 37.5365 0.486403C37.5994 0.497632 37.6649 0.491835 37.7332 0.469005C37.83 0.436623 37.9293 0.449042 38.0311 0.506257C38.0946 0.541951 38.1428 0.479648 38.2041 0.485998C38.3023 0.496883 38.4044 0.507201 38.5106 0.516974C38.5195 0.517915 38.5272 0.528147 38.5335 0.547663C38.5417 0.572314 38.5508 0.591806 38.5607 0.606132C38.5677 0.616005 38.5756 0.617575 38.5829 0.610545C38.6386 0.55487 38.6931 0.532691 38.7463 0.544015C38.8757 0.57056 38.9977 0.52531 39.1237 0.599805C39.1771 0.63122 39.223 0.623039 39.2613 0.57526C39.3132 0.510605 39.3577 0.534898 39.4109 0.573785C39.4633 0.611139 39.5042 0.517995 39.5596 0.554545C39.5831 0.570286 39.6072 0.580356 39.6318 0.584748C39.7186 0.600895 39.8042 0.622715 39.8886 0.65022C39.9435 0.668226 39.9835 0.584369 40.0374 0.651075C40.0463 0.661806 40.0555 0.665576 40.0649 0.662393L40.2698 0.5885C40.2791 0.584929 40.2887 0.593174 40.2964 0.611421C40.3348 0.700688 40.3752 0.733005 40.4178 0.708372C40.4762 0.67379 40.5314 0.686388 40.5834 0.746154C40.6115 0.777819 40.6392 0.78965 40.6667 0.781654C40.7285 0.762496 40.789 0.736908 40.8481 0.704898C40.88 0.687581 40.9125 0.689328 40.9457 0.710123C41.0199 0.756792 41.0921 0.767154 41.1623 0.741214C41.2434 0.711822 41.3372 0.749534 41.4166 0.800531C41.4925 0.850012 41.5523 0.736593 41.6325 0.792991C41.6688 0.81788 41.7106 0.830091 41.7581 0.829623C41.8294 0.828404 41.9006 0.824864 41.9715 0.819014C42.0389 0.813196 42.0974 0.820603 42.1472 0.841234C42.2047 0.864365 42.262 0.88828 42.3192 0.912959C42.3737 0.936379 42.4193 0.891105 42.4714 0.923822C42.4999 0.941574 42.5283 0.947218 42.5564 0.940757C42.5934 0.931892 42.6217 0.991897 42.659 0.996163C42.7525 1.00683 42.8355 1.09721 42.9312 1.08622C42.9998 1.07833 43.0726 1.0928 43.1494 1.12966C43.212 1.15918 43.2714 1.13154 43.3327 1.1634C43.4868 1.24174 43.6386 1.30155 43.788 1.34284C43.8199 1.35103 43.8519 1.50991 43.8636 1.5894C43.8906 1.77048 43.9405 1.81662 44.0133 1.7278C44.0218 1.71741 44.0307 1.71423 44.0398 1.71826C44.1942 1.79144 44.3492 1.86514 44.5047 1.93934C44.6138 1.99159 44.7242 2.00518 44.83 2.07987C44.8853 2.119 44.9411 2.13957 44.9976 2.14159C45.127 2.14572 45.2742 2.13036 45.392 2.28067C45.4666 2.37654 45.4997 2.22938 45.5646 2.24574C45.6099 2.25714 45.6635 2.28572 45.7255 2.33148C46.0384 2.56333 46.3841 2.76162 46.7118 2.80244C46.8352 2.81745 46.9512 2.90054 47.0723 2.88853C47.1715 2.87828 47.2537 2.98256 47.3462 3.07284C47.3561 3.08253 47.3657 3.08115 47.375 3.06869C47.426 3.00173 47.4667 3.03817 47.4971 3.178C47.5037 3.20834 47.5122 3.21547 47.5227 3.19939C47.6063 3.07106 47.7386 2.98474 47.8138 3.2398C47.8212 3.26446 47.829 3.26721 47.8373 3.24807C47.8652 3.18494 47.8954 3.16532 47.9278 3.18921C48.0109 3.24919 48.1006 3.29365 48.1969 3.32258C48.2346 3.3338 48.267 3.38835 48.3004 3.44134C48.309 3.45517 48.3176 3.45611 48.3261 3.44418C48.3482 3.41304 48.3675 3.38503 48.3929 3.40565C48.5236 3.51023 48.6561 3.49579 48.7898 3.57021C48.8861 3.62335 49.0123 3.67157 49.0861 3.43128C49.0897 3.41932 49.0942 3.41033 49.0992 3.40506C49.1042 3.3998 49.1096 3.3984 49.115 3.401C49.1203 3.40359 49.1254 3.4101 49.1298 3.41999C49.1342 3.42987 49.1378 3.44284 49.1404 3.45778C49.1858 3.72705 49.262 3.65288 49.3383 3.71627C49.4078 3.77483 49.4787 3.80608 49.551 3.81C49.682 3.81721 49.8115 3.89785 49.9417 3.96921C49.9944 3.99805 50.044 4.01329 50.0904 4.01489C50.1134 4.01569 50.1357 4.02449 50.1574 4.04128C50.1883 4.06492 50.2157 4.05074 50.2462 4.05972C50.3832 4.09855 50.5229 4.13118 50.6579 4.21563C50.7303 4.26051 50.7999 4.25132 50.8732 4.28847C50.9613 4.33345 51.046 4.35065 51.1274 4.34006C51.1628 4.33559 51.1958 4.3587 51.2264 4.40941C51.2957 4.52465 51.3554 4.44446 51.4227 4.51026C51.4531 4.54035 51.4834 4.54958 51.5139 4.53795C51.5828 4.51176 51.6461 4.59538 51.7156 4.57847C51.7545 4.56933 51.794 4.57718 51.8341 4.60203C51.8934 4.63854 51.9503 4.62561 52.0091 4.6799C52.0803 4.74618 52.1576 4.76808 52.241 4.74562C52.2749 4.73653 52.3078 4.75758 52.3397 4.80879C52.3481 4.8221 52.3569 4.8282 52.366 4.82708C52.4269 4.81772 52.4911 4.81502 52.5585 4.81899C52.5884 4.82024 52.6042 4.77759 52.6303 4.7526C52.639 4.74427 52.6475 4.74702 52.6558 4.76085C52.7377 4.89374 52.8209 4.91765 52.9041 5.00107C52.9465 5.04392 52.9892 5.07081 53.0323 5.08172C53.1552 5.11245 53.2665 5.16777 53.366 5.24767C53.4204 5.29119 53.4796 5.26433 53.5264 5.35969C53.5306 5.36827 53.5355 5.37314 53.5405 5.37377C53.5454 5.3744 53.5503 5.37077 53.5545 5.36328L53.5927 5.29644C53.6012 5.28193 53.6101 5.28004 53.6195 5.29076C53.6551 5.33292 53.6861 5.37666 53.7245 5.38324C53.8128 5.39834 53.9006 5.45621 53.9881 5.55684C54.0147 5.58749 54.0426 5.60319 54.0717 5.60394C54.115 5.60428 54.1512 5.67116 54.1956 5.67768C54.2872 5.69223 54.3813 5.71732 54.4781 5.75295C54.5139 5.76599 54.5497 5.79551 54.5855 5.84152C54.6631 5.94122 54.73 5.88184 54.8089 5.93361C54.8816 5.98081 54.9524 5.99093 55.0167 6.12554C55.0203 6.13323 55.0244 6.13838 55.0287 6.14061C55.033 6.14283 55.0374 6.14209 55.0414 6.13843C55.1066 6.07957 55.1733 6.08123 55.2416 6.14341C55.3097 6.20533 55.3874 6.1582 55.4465 6.27508C55.4558 6.29354 55.4653 6.29576 55.4749 6.28176C55.4988 6.24752 55.5197 6.23186 55.5466 6.25014C55.6531 6.32277 55.7541 6.37277 55.8495 6.40017C55.9099 6.41812 55.9651 6.49486 56.0269 6.47647C56.0299 6.47541 56.0315 6.47978 56.0315 6.48957L56.032 6.51043C56.032 6.51111 56.032 6.51178 56.0319 6.5124C56.0318 6.51302 56.0317 6.51357 56.0315 6.51402C56.0314 6.51446 56.0312 6.51479 56.031 6.51497C56.0307 6.51516 56.0312 6.51508 56.031 6.51497C55.971 6.49701 55.9396 6.58115 55.938 6.76716C55.9361 6.95368 55.9424 7.11308 55.9566 7.24534C55.9585 7.26275 55.9616 7.27867 55.9659 7.2918C55.9701 7.30493 55.9753 7.31488 55.981 7.32084C56.0396 7.38054 56.0837 7.51535 56.1438 7.54953C56.1839 7.57232 56.218 7.65622 56.2463 7.80123C56.2504 7.82231 56.251 7.84395 56.2482 7.86613C56.2295 8.01083 56.2905 8.21502 56.3242 8.29815C56.3318 8.31714 56.3309 8.32256 56.3213 8.31441C56.3207 8.3139 56.3199 8.31339 56.3191 8.31289C56.3164 8.31137 56.3148 8.31473 56.3142 8.32298C56.3059 8.44208 56.2916 8.5602 56.2712 8.67735C56.2668 8.70316 56.2669 8.72892 56.2717 8.75463C56.2952 8.88578 56.325 8.98389 56.361 9.04897C56.3748 9.07413 56.3912 9.08226 56.4067 9.0717C56.4779 9.02386 56.547 9.06181 56.6072 9.20573C56.6119 9.21696 56.6175 9.22413 56.6234 9.22652C56.6293 9.22891 56.6352 9.22642 56.6407 9.21932L56.6763 9.17337C56.6818 9.16615 56.6878 9.16312 56.6938 9.16454C56.6998 9.16596 56.7057 9.17178 56.711 9.18152C56.7519 9.2584 56.797 9.30175 56.8462 9.31157C56.8571 9.31404 56.8621 9.33228 56.8611 9.36629C56.8581 9.46473 56.8686 9.52903 56.8927 9.55919C56.9046 9.57453 56.9129 9.56388 56.9175 9.52725C56.9426 9.32762 56.9871 9.26639 57.0511 9.34355C57.1123 9.41714 57.18 9.42111 57.2435 9.44985C57.285 9.46799 57.3248 9.47585 57.3627 9.47341C57.499 9.46279 57.6311 9.59338 57.7589 9.86518C57.8157 9.98569 57.8699 10.0145 57.9215 9.95168C57.9259 9.94628 57.9307 9.94381 57.9355 9.94443C57.9403 9.94504 57.9451 9.94874 57.9494 9.95527C57.9838 10.0067 58.0084 10.1015 58.0453 10.1383C58.0909 10.1842 58.1399 10.2094 58.1922 10.2141C58.2119 10.2159 58.2315 10.2268 58.251 10.2467C58.2624 10.259 58.2621 10.267 58.2502 10.2707C58.2158 10.2819 58.1824 10.2801 58.1499 10.2655C58.084 10.2363 58.016 10.2138 57.9459 10.198C57.9352 10.1961 57.9249 10.2058 57.9167 10.2253C57.8858 10.2998 57.8524 10.373 57.8166 10.445C57.7629 10.5522 57.7533 10.7424 57.7565 10.9325C57.7586 11.0453 57.7471 11.2169 57.7978 11.2613C57.8348 11.2934 57.8694 11.3463 57.9017 11.4202C57.9562 11.5457 58.0122 11.549 58.0761 11.563C58.1417 11.5778 58.2017 11.663 58.2558 11.8186C58.2619 11.836 58.2691 11.8458 58.2772 11.8477C58.3336 11.8611 58.3918 11.8832 58.4516 11.914C58.4768 11.9267 58.5247 11.9767 58.5952 12.0641C58.6456 12.127 58.7048 12.1573 58.7729 12.1551C58.8112 12.1537 58.8351 12.199 58.8446 12.2911C58.8474 12.3179 58.8459 12.3416 58.8401 12.3623L58.7182 12.7978C58.7105 12.8252 58.7066 12.8569 58.7065 12.893C58.7052 13.0543 58.6883 13.1984 58.6557 13.3255C58.6506 13.3452 58.6475 13.3692 58.6469 13.3947C58.6463 13.4202 58.6481 13.4459 58.6521 13.4685C58.6839 13.6475 58.7 13.8421 58.7002 14.0523C58.7004 14.0863 58.7028 14.119 58.7074 14.1504C58.7257 14.2718 58.7249 14.3825 58.705 14.4827C58.6994 14.51 58.6966 14.5402 58.6966 14.5732C58.6966 14.8426 58.7174 15.0988 58.759 15.3415C58.7627 15.3631 58.7632 15.385 58.7606 15.4072C58.746 15.5377 58.7416 15.6346 58.7476 15.6979C58.7743 15.9815 58.821 16.2204 58.8878 16.4145C58.916 16.4969 58.9521 16.454 58.9836 16.5093C59.0097 16.556 59.0339 16.6119 59.0559 16.6771C59.1156 16.8532 59.1985 17.0157 59.3049 17.1646C59.3125 17.1754 59.315 17.1928 59.3126 17.2171C59.3016 17.3305 59.2861 17.434 59.2662 17.5274C59.2505 17.601 59.2404 17.6374 59.248 17.734C59.2741 18.0521 59.2947 18.3286 59.2781 18.6672C59.257 19.1002 59.2456 19.5442 59.244 19.9991C59.2432 20.197 59.2481 20.547 59.278 20.7229C59.3166 20.9508 59.3521 21.174 59.3844 21.3927C59.396 21.4709 59.395 21.5489 59.3815 21.6268C59.3776 21.6496 59.3783 21.6712 59.3836 21.6917C59.4261 21.8562 59.4714 22.0103 59.5196 22.1541C59.5445 22.2288 59.5483 22.2875 59.535 22.3781C59.5311 22.4054 59.5319 22.4317 59.5373 22.4569L59.585 22.6766C59.5875 22.6882 59.5908 22.6979 59.5947 22.7051C59.5986 22.7123 59.6029 22.7167 59.6073 22.7182C59.6731 22.7381 59.7335 22.7857 59.7887 22.8609C59.7976 22.8732 59.8066 22.8738 59.8156 22.8629L59.8766 22.7905C59.8805 22.7856 59.8848 22.784 59.889 22.7857C59.8932 22.7875 59.8972 22.7925 59.9007 22.8004C59.9042 22.8082 59.907 22.8187 59.9088 22.8307C59.9106 22.8427 59.9115 22.8558 59.9112 22.8689L59.9037 23.3126C59.9033 23.3343 59.9043 23.356 59.9067 23.3766C59.9091 23.3972 59.9127 23.4162 59.9175 23.4326C59.9222 23.4489 59.9279 23.4621 59.9343 23.4716C59.9406 23.481 59.9475 23.4865 59.9544 23.4875C60.0332 23.5007 60.1114 23.4744 60.1886 23.5548C60.2192 23.5864 60.2499 23.5941 60.2806 23.5778C60.2907 23.5724 60.3011 23.5747 60.311 23.5846C60.3208 23.5945 60.3298 23.6117 60.3372 23.6348C60.3445 23.6578 60.35 23.6859 60.3531 23.7167C60.3563 23.7474 60.3569 23.7799 60.3551 23.8113C60.3479 23.9365 60.3603 24.051 60.3924 24.1548C60.4127 24.2205 60.4085 24.2577 60.3795 24.2662C60.3157 24.2854 60.2788 24.2007 60.2491 24.4406C60.22 24.6738 60.1971 24.8927 60.1804 25.0974C60.1777 25.1294 60.1783 25.1611 60.1821 25.1924C60.1944 25.2959 60.205 25.3991 60.214 25.502C60.2258 25.6348 60.2555 25.7273 60.2742 25.85C60.2759 25.8615 60.2767 25.8742 60.2763 25.8868C60.276 25.8995 60.2745 25.9116 60.2721 25.9219C60.2368 26.0742 60.2193 26.1844 60.2196 26.2524C60.2211 26.6218 60.2597 26.9604 60.3354 27.2683C60.3414 27.2926 60.3494 27.3114 60.3586 27.3226C60.3677 27.3339 60.3776 27.3371 60.3871 27.3319C60.4884 27.2776 60.5842 27.4551 60.6675 27.622C60.6915 27.6702 60.7166 27.6962 60.7427 27.7001C60.8424 27.7135 60.9347 27.7242 61.0195 27.7321C61.0307 27.7336 61.0417 27.7394 61.0526 27.7496C61.1136 27.8062 61.1724 27.7901 61.236 27.7988C61.3364 27.8117 61.4289 27.7722 61.5377 27.8236C61.5482 27.8282 61.5495 27.8413 61.5418 27.863C61.5332 27.8873 61.5227 27.8985 61.5102 27.8966C61.4509 27.8894 61.3952 27.8894 61.343 27.8967C61.3345 27.8983 61.3264 27.8932 61.3187 27.8814C61.2656 27.8 61.1911 27.868 61.1385 27.9095C61.1067 27.934 61.0912 28.004 61.0918 28.1194C61.0919 28.1446 61.0948 28.167 61.1004 28.1865C61.1056 28.204 61.1106 28.2217 61.1156 28.2397C61.1442 28.3409 61.1388 28.3636 61.0996 28.3079C61.0499 28.2365 60.9926 28.0833 60.9492 28.2947C60.9434 28.3223 60.9349 28.3432 60.9249 28.3542C60.9148 28.3652 60.9038 28.3656 60.8935 28.3555C60.8484 28.3116 60.7983 28.2957 60.743 28.3075C60.6399 28.3302 60.5934 28.7155 60.6067 28.9789C60.6185 29.2158 60.6552 29.4447 60.7168 29.6656C60.7397 29.7478 60.7558 29.844 60.7652 29.9542C60.7677 29.9839 60.7728 30.0112 60.7798 30.0333C60.7869 30.0553 60.7957 30.0714 60.8052 30.0798C60.8648 30.1325 60.9426 30.199 61.004 30.145C61.079 30.0786 61.1802 30.1889 61.2562 30.25C61.3242 30.3042 61.3871 30.2471 61.4495 30.3902C61.4605 30.4154 61.4593 30.4303 61.4459 30.4351C61.4135 30.4468 61.3831 30.478 61.3548 30.5287C61.3173 30.5956 61.2765 30.5682 61.2357 30.5732C61.2256 30.5743 61.2177 30.5875 61.212 30.6128L61.1888 30.7143C61.1839 30.736 61.177 30.7459 61.1682 30.7439C61.1123 30.7316 61.0572 30.7138 61.0027 30.6906C60.9312 30.6604 60.9101 30.9937 60.9019 31.1499C60.8917 31.3391 60.9163 31.4571 60.9758 31.5039C61.0699 31.5779 61.1732 31.5514 61.2694 31.6123C61.315 31.6417 61.3596 31.648 61.4032 31.6311C61.4363 31.6184 61.4707 31.6214 61.5066 31.6401C61.5408 31.6578 61.577 31.6713 61.6153 31.6808C61.7036 31.7031 61.7933 31.7452 61.8843 31.8072C61.9164 31.8293 61.9399 31.8128 61.9714 31.8024C61.9805 31.7993 61.9892 31.8043 61.9975 31.8176C62.0296 31.8683 62.0641 31.8925 62.1007 31.89C62.1118 31.8889 62.1129 31.8984 62.104 31.9186C62.096 31.9362 62.0872 31.9456 62.0776 31.9467C62.0127 31.9551 61.9508 31.9987 61.892 32.0776C61.8594 32.1217 61.8258 32.1504 61.7913 32.1636C61.7521 32.1789 61.7139 32.1968 61.6766 32.2173C61.6228 32.2464 61.5666 32.5499 61.5381 32.6869C61.4967 32.886 61.3803 32.8624 61.3114 32.8175C61.2775 32.7951 61.2453 32.8109 61.2148 32.8648C61.2053 32.8814 61.1941 32.8878 61.1831 32.8829C61.1393 32.8632 61.0926 32.839 61.0505 32.8873C60.9809 32.9683 60.9076 32.9966 60.8305 32.9721C60.7224 32.9377 60.6228 33.0607 60.6035 33.3994C60.5959 33.5363 60.5759 33.6292 60.5529 33.74C60.5465 33.7699 60.5487 33.7928 60.5595 33.8087C60.6327 33.9154 60.6067 34.3523 60.7071 34.2825C60.7163 34.2759 60.7261 34.2793 60.7348 34.2923C60.7921 34.3798 60.8527 34.4086 60.9168 34.3786C61.0055 34.3375 61.0994 34.3953 61.1877 34.4346C61.1952 34.4376 61.2023 34.4469 61.2081 34.4615L61.2377 34.5346C61.2413 34.5433 61.2455 34.5496 61.2499 34.553C61.2543 34.5564 61.2589 34.5569 61.2633 34.5545L61.4304 34.4616C61.4406 34.4559 61.4507 34.4591 61.4606 34.4714C61.4915 34.5112 61.5224 34.513 61.5533 34.4766C61.5621 34.4662 61.5712 34.4649 61.5806 34.4725C61.6339 34.5147 61.6919 34.5296 61.7545 34.5172C61.7957 34.5085 61.8389 34.5228 61.8841 34.5599C62.0221 34.6735 62.1625 34.7697 62.3054 34.8487C62.3109 34.8517 62.3133 34.8617 62.3126 34.8787L62.3121 34.8988C62.3118 34.905 62.3107 34.9079 62.3087 34.9074C62.2403 34.8903 62.1819 34.8174 62.1118 34.8266C61.9959 34.8417 61.8842 34.8719 61.7766 34.9173C61.739 34.9331 61.6986 34.9173 61.6554 34.8698C61.6465 34.8599 61.6369 34.86 61.6283 34.87C61.5968 34.9074 61.5632 34.9235 61.5275 34.9182C61.456 34.9081 61.3825 35.1584 61.3295 35.2895C61.3227 35.3066 61.3187 35.3285 61.3175 35.3553C61.3102 35.527 61.3386 35.6774 61.3173 35.8445C61.2868 36.0821 61.234 36.2008 61.2368 36.4875C61.2382 36.6258 61.2207 36.7427 61.1948 36.8496C61.1893 36.8729 61.1874 36.8989 61.1891 36.9277C61.192 36.9813 61.1986 37.0314 61.209 37.0782C61.2151 37.105 61.2182 37.1343 61.2184 37.1662C61.2192 37.2878 61.2327 37.3778 61.2586 37.4363C61.3738 37.6928 61.463 37.8501 61.5261 37.9082C61.6154 37.9908 61.7039 38.0662 61.7917 38.1343C61.8042 38.144 61.8044 38.1546 61.7923 38.166C61.745 38.2082 61.727 38.3099 61.738 38.471C61.7576 38.7578 61.8092 38.984 61.8928 39.1496C61.9459 39.2542 61.9639 39.4696 61.9766 39.6457C61.9787 39.6747 61.9834 39.7015 61.9903 39.7226C61.9972 39.7437 62.0059 39.7582 62.0154 39.7643C62.081 39.8064 62.1485 39.8521 62.2181 39.9014C62.2943 39.9548 62.3638 39.9899 62.4267 40.0068C62.5109 40.0296 62.5942 40.0654 62.6767 40.114C62.6805 40.1166 62.6821 40.1238 62.6816 40.1356C62.6812 40.148 62.679 40.1542 62.675 40.1527C62.5239 40.1001 62.3729 40.0385 62.2222 39.9678C62.1622 39.9398 62.1198 39.9797 62.0637 39.9934C62.0381 39.9998 62.0275 40.0393 62.0078 40.0805C61.9993 40.0981 61.9899 40.1064 61.9794 40.1055C61.9259 40.1014 61.8746 40.1421 61.8255 40.2275C61.7685 40.3278 61.7009 40.3153 61.6393 40.2711C61.5053 40.1756 61.3733 40.1071 61.2435 40.0656C61.1538 40.0363 61.0559 40.3016 61.0055 40.4914C61.0007 40.5095 60.9946 40.5217 60.9872 40.5279C60.8951 40.6054 60.808 40.556 60.7155 40.5407C60.6455 40.5298 60.5865 40.6115 60.5215 40.6562C60.4847 40.6813 60.4618 40.7881 60.4499 40.8926C60.4268 41.0927 60.3988 41.2862 60.3658 41.473C60.3432 41.6015 60.3079 41.6614 60.2727 41.7468C60.2559 41.7871 60.2438 41.8432 60.2382 41.9071C60.2228 42.0808 60.2004 42.2531 60.1711 42.424C60.169 42.4359 60.1678 42.4491 60.1676 42.4627C60.1674 42.4762 60.1681 42.4898 60.1698 42.5024C60.1714 42.5149 60.1739 42.5261 60.1771 42.5352C60.1804 42.5442 60.1842 42.5507 60.1883 42.5544C60.195 42.5605 60.1982 42.5754 60.1979 42.5991C60.1975 42.6383 60.1943 42.6404 60.1883 42.6054C60.1867 42.5967 60.1848 42.5892 60.1826 42.5831C60.176 42.5646 60.1708 42.5675 60.1673 42.5917L60.1544 42.6776C60.1505 42.7029 60.1507 42.7284 60.1549 42.7541C60.1687 42.8359 60.1868 42.9004 60.2093 42.9476C60.2164 42.962 60.2249 42.9687 60.2334 42.9666C60.2594 42.9592 60.2781 42.9896 60.2896 43.0581C60.3268 43.2787 60.3633 43.4958 60.3993 43.7092C60.4079 43.7612 60.4136 43.7585 60.4162 43.7013C60.4217 43.5725 60.4434 43.5215 60.4813 43.5484C60.5671 43.6099 60.6507 43.6869 60.7323 43.7794C60.7836 43.8368 60.838 43.7721 60.8892 43.7662C60.9351 43.7611 60.9553 43.8282 60.9497 43.9673C60.9485 43.9952 60.9508 44.0204 60.9567 44.043C60.9754 44.1144 60.9974 44.1227 61.0224 44.0678C61.0794 43.9429 61.1158 43.7763 61.1983 43.8629C61.2645 43.9325 61.3392 43.9619 61.4007 44.0672C61.4387 44.1325 61.4787 44.1074 61.5202 44.1479C61.5789 44.2051 61.6383 44.2529 61.6986 44.2915C61.778 44.3417 61.8486 44.4616 61.9256 44.5226C61.974 44.5608 62.0175 44.6127 62.0564 44.6782C62.1275 44.7981 62.2119 44.8034 62.2882 44.7926C62.2938 44.7919 62.2994 44.7961 62.3044 44.8048C62.3093 44.8135 62.3135 44.8263 62.3163 44.8418L62.3592 45.0771C62.3618 45.0912 62.3627 45.1075 62.3619 45.1232C62.361 45.1389 62.3583 45.153 62.3543 45.1629C62.3369 45.209 62.3283 45.2678 62.3287 45.3394C62.3297 45.5429 62.3186 45.7223 62.2954 45.8776C62.2918 45.9019 62.2898 45.9284 62.2897 45.9555C62.2896 45.9825 62.2913 46.0095 62.2947 46.0347C62.2982 46.0599 62.3033 46.0827 62.3097 46.1016C62.3161 46.1206 62.3237 46.1352 62.3319 46.1446C62.3875 46.2085 62.4299 46.3162 62.4593 46.4679C62.4639 46.4911 62.4652 46.5153 62.4633 46.5405C62.4343 46.9319 62.2796 46.6451 62.2676 46.9714C62.259 47.2033 62.248 47.4319 62.2348 47.6572C62.228 47.7709 62.2436 47.8356 62.2616 47.9243C62.2672 47.9526 62.269 47.9825 62.267 48.0139C62.2597 48.1356 62.2629 48.2538 62.2764 48.3685C62.3147 48.6928 62.2168 48.9086 62.1332 49.0377C62.0937 49.0989 62.0487 49.1269 61.9984 49.1217C61.9328 49.1146 61.8677 49.1222 61.8032 49.1445C61.7663 49.1572 61.7303 49.1522 61.695 49.1293C61.6287 49.0862 61.5614 49.0979 61.493 49.1645C61.4346 49.2215 61.3602 49.1744 61.3006 49.1348C61.2252 49.0845 61.1521 49.1424 61.0804 49.198C61.0589 49.2152 61.0443 49.1906 61.0366 49.1242C61.0225 49.0007 60.9818 48.9625 60.9544 49.0648C60.8987 49.2716 60.8625 49.3052 60.7738 49.2783C60.7414 49.2688 60.7093 49.2709 60.6776 49.2846C60.6024 49.3173 60.5272 49.3315 60.452 49.3271C60.3596 49.321 60.2761 49.4331 60.1821 49.4217C60.172 49.4208 60.1631 49.4304 60.1555 49.4505C60.1349 49.5056 60.1231 49.5745 60.0979 49.6149C60.0458 49.6994 59.9932 49.7878 59.9402 49.88C59.8971 49.9546 59.9035 50.1478 59.914 50.2767C59.9149 50.2869 59.915 50.2975 59.9143 50.3077C59.9137 50.3179 59.9123 50.3275 59.9102 50.3357C59.9082 50.3439 59.9056 50.3505 59.9026 50.355C59.8996 50.3596 59.8963 50.362 59.8929 50.362C59.723 50.3636 59.5525 50.3344 59.3813 50.2743C59.3552 50.2653 59.3297 50.2763 59.305 50.3075C59.229 50.4041 59.1328 50.3154 59.0482 50.3116C58.9167 50.3051 58.7856 50.2892 58.6549 50.2637C58.5604 50.2445 58.4742 50.3157 58.376 50.2479C58.2953 50.1925 58.2122 50.1748 58.1268 50.1947C58.0955 50.2022 58.0646 50.195 58.034 50.1732C57.9495 50.1137 57.8619 50.1355 57.7745 50.083C57.6876 50.0305 57.6053 50.0824 57.5183 50.1002C57.492 50.1051 57.469 50.0427 57.4515 49.9873C57.4441 49.9636 57.4359 49.9591 57.4267 49.9736C57.4046 50.0086 57.3869 50.0289 57.361 50.0268C57.2013 50.0134 57.0316 49.9973 56.852 49.9785C56.79 49.9722 56.7308 49.9016 56.6679 49.9084C56.5073 49.926 56.3626 49.9012 56.2338 49.8339C56.1973 49.8147 56.1605 49.8091 56.1234 49.8172C56.0452 49.8334 55.9765 49.7321 55.8993 49.7568C55.8263 49.7807 55.7488 49.773 55.6666 49.7336C55.5956 49.6993 55.5164 49.6895 55.4291 49.7043C55.3707 49.7149 55.3214 49.6621 55.2665 49.5992C55.1729 49.4927 55.0704 49.697 54.9726 49.5983C54.9291 49.5546 54.8938 49.5875 54.853 49.6203C54.8442 49.6275 54.8349 49.6265 54.8261 49.6175C54.7381 49.5279 54.6734 49.5541 54.5914 49.5162C54.4771 49.4625 54.3713 49.5099 54.2571 49.4137C54.2092 49.374 54.1734 49.4547 54.1249 49.4281C54.0342 49.3775 53.9469 49.366 53.8627 49.3936C53.7915 49.4175 53.7342 49.367 53.6665 49.3353C53.6483 49.3267 53.6307 49.3101 53.6137 49.2855C53.5821 49.2395 53.5585 49.3139 53.5257 49.3196C53.4602 49.3301 53.4005 49.3113 53.3464 49.2635C53.3163 49.237 53.2851 49.2293 53.2528 49.2404C53.2122 49.2547 53.1691 49.2428 53.1238 49.2046C53.1146 49.197 53.1056 49.1978 53.0969 49.2072C53.0419 49.2665 52.985 49.2719 52.9261 49.2235C52.8845 49.1894 52.8436 49.1767 52.8035 49.1853C52.7947 49.1875 52.7864 49.1827 52.7785 49.1709C52.7057 49.0645 52.6353 49.0394 52.5672 49.0957C52.5153 49.1387 52.4899 49.0323 52.4416 49.0599C52.2949 49.1442 52.1493 49.1318 52.0047 49.0224C51.9955 49.0154 51.986 49.0163 51.9773 49.025C51.926 49.0729 51.8736 49.0657 51.82 49.0034C51.811 48.9927 51.8017 48.9904 51.7924 48.9967C51.7286 49.0398 51.6991 49.0765 51.6389 48.9557C51.6346 48.947 51.6297 48.9418 51.6247 48.9407C51.6197 48.9395 51.6147 48.9424 51.6102 48.949C51.5937 48.9732 51.5772 48.9911 51.5583 48.9859C51.4881 48.9665 51.4304 49.0188 51.3607 48.9422C51.2837 48.8588 51.2022 48.9469 51.1224 48.9052C51.0443 48.8642 50.9684 48.8472 50.8946 48.8541C50.8238 48.861 50.7776 48.7455 50.7058 48.7903C50.6963 48.796 50.6867 48.7948 50.6772 48.7867C50.5993 48.7184 50.531 48.7366 50.4721 48.8413C50.4615 48.8604 50.4504 48.8626 50.4388 48.8478L50.3935 48.7895C50.3829 48.776 50.3715 48.7726 50.3605 48.7798C50.2934 48.8247 50.2318 48.771 50.1757 48.6185C50.1732 48.6117 50.1701 48.6075 50.1668 48.6064C50.1634 48.6054 50.1601 48.6075 50.1572 48.6125C50.1096 48.697 50.0595 48.7302 50.0069 48.7121C49.9078 48.6783 49.8101 48.718 49.7107 48.6888C49.5611 48.6454 49.4112 48.6243 49.2608 48.6252C49.1787 48.6253 49.1019 48.5673 49.0207 48.6083C48.9298 48.6532 48.8573 48.4476 48.7687 48.4948C48.7254 48.5184 48.6851 48.5729 48.6404 48.5618C48.5663 48.5445 48.4895 48.5244 48.4101 48.5015C48.3537 48.485 48.321 48.5827 48.2613 48.5331C48.2054 48.4865 48.1679 48.5788 48.1149 48.5562C48.0415 48.5254 47.9688 48.4983 47.8971 48.4748C47.8654 48.4643 47.8435 48.4877 47.813 48.5027C47.7496 48.5335 47.6939 48.3887 47.624 48.4482C47.5747 48.4896 47.5275 48.4507 47.4762 48.4728C47.4264 48.4944 47.3769 48.5184 47.3275 48.5446C47.2882 48.5659 47.2522 48.55 47.2127 48.5395C47.2021 48.5371 47.1939 48.5493 47.1882 48.5761L47.1304 48.8433C47.1282 48.8533 47.1254 48.8617 47.122 48.868C47.1187 48.8743 47.115 48.8783 47.1111 48.8798C47.0458 48.9057 46.9788 48.9419 46.91 48.9884C46.8652 49.0188 46.8188 49.0264 46.7709 49.0115C46.6818 48.9845 46.5901 49.0305 46.4957 49.1494C46.4711 49.1806 46.432 49.1987 46.4059 49.1804C46.317 49.12 46.228 49.1165 46.1387 49.1699C46.1085 49.1872 46.0764 49.111 46.0427 49.1253C45.992 49.1464 45.9386 49.1562 45.8824 49.1547C45.8618 49.1541 45.8443 49.1272 45.8312 49.0779C45.8244 49.0527 45.8173 49.0505 45.8097 49.0712C45.711 49.3357 45.6358 49.0791 45.5341 49.1705C45.4796 49.2205 45.4418 49.1235 45.3888 49.1449C45.2752 49.1903 45.1611 49.1816 45.0463 49.1189C44.9867 49.0855 44.9386 49.1547 44.8801 49.0811C44.8053 48.9868 44.7628 49.1449 44.689 49.1124C44.6575 49.0983 44.629 49.0694 44.6033 49.0259C44.5996 49.0199 44.5956 49.0168 44.5915 49.0167C44.5873 49.0166 44.5833 49.0196 44.5797 49.0253L44.5427 49.0844C44.5337 49.099 44.5241 49.1052 44.514 49.1033C44.4551 49.093 44.396 49.0931 44.3365 49.1035C44.3035 49.1092 44.2737 49.074 44.2499 49.0015C44.2423 48.979 44.2339 48.9736 44.2246 48.9856C44.1592 49.0707 44.1039 49.0944 44.0588 49.0568C44.0255 49.0293 43.9915 49.0002 43.9569 48.9697C43.9006 48.92 43.8744 49.0601 43.8225 49.0552C43.7508 49.0482 43.6835 49.0391 43.6207 49.0278C43.589 49.022 43.5599 48.9759 43.5291 48.9855C43.4638 49.0072 43.3991 49.012 43.3349 48.9998C43.3262 48.9983 43.3182 48.9901 43.3107 48.9753C43.3004 48.9542 43.2916 48.9293 43.2841 48.9006C43.2772 48.8728 43.2692 48.8688 43.2601 48.8884C43.1929 49.0349 43.1213 49.0846 43.0455 49.0374C42.9702 48.991 42.8907 49.0374 42.8142 49.0281C42.7766 49.0238 42.7531 48.9375 42.7188 48.9456C42.6547 48.9601 42.588 48.9345 42.5248 48.983C42.4887 49.0112 42.4518 48.9776 42.4147 49.0034C42.3448 49.051 42.2743 49.0465 42.203 48.9901C42.1285 48.9305 42.0802 49.0763 42.0084 48.9642C42.0003 48.9514 41.9919 48.9481 41.9831 48.9544C41.8695 49.0389 41.7563 48.9991 41.6374 49.0273C41.5741 49.0424 41.514 49.0038 41.457 48.9116C41.4468 48.8952 41.4372 48.8979 41.4285 48.9196C41.4008 48.99 41.3718 48.9983 41.3414 48.9445C41.3347 48.9327 41.3272 48.9266 41.3197 48.9269C41.3121 48.9273 41.3048 48.934 41.2986 48.9464C41.2714 49.0003 41.245 48.9949 41.2193 48.9302C41.2084 48.903 41.1964 48.8957 41.1835 48.9081C41.0858 48.9998 40.9969 49.0058 40.9168 48.9262C40.9083 48.9181 40.8998 48.9187 40.8914 48.928C40.8703 48.9514 40.8489 48.9617 40.8273 48.9588C40.7342 48.9453 40.638 48.9424 40.5387 48.9501C40.475 48.9543 40.413 48.9168 40.3527 48.8375C40.3448 48.8273 40.3373 48.8294 40.3303 48.8439C40.3189 48.8688 40.3121 48.8897 40.2978 48.9022C40.1876 48.9976 40.0813 49.0025 39.9791 48.9169C39.9003 48.8505 39.8447 48.9453 39.7688 48.9236C39.7009 48.9034 39.607 48.8719 39.543 48.9375C39.5147 48.9661 39.49 48.9475 39.4687 48.8818C39.4588 48.851 39.4476 48.8446 39.4352 48.8628C39.3943 48.923 39.3508 48.9566 39.3048 48.9638C39.2295 48.9753 39.1562 48.915 39.0818 48.9675C39.0366 48.9989 38.9952 48.939 38.9462 48.9681C38.8457 49.0263 38.7447 49.0319 38.6432 48.985C38.5734 48.9532 38.5156 49.0241 38.4468 49.0124C38.2842 48.9854 38.1368 48.9521 37.9741 49.0379C37.8658 49.0952 37.7573 49.0944 37.6485 49.0358C37.5885 49.0031 37.544 49.0886 37.4826 49.0467C37.4255 49.0078 37.3867 49.1118 37.3339 49.086C37.2567 49.0476 37.18 49.0517 37.1038 49.0983C37.071 49.1182 37.0371 49.1201 37.0021 49.104C36.9013 49.057 36.8078 49.1391 36.7074 49.1076C36.6573 49.0916 36.6053 49.0989 36.5513 49.1293C36.5424 49.1345 36.5336 49.1323 36.5249 49.1226C36.4609 49.0516 36.3989 49.0499 36.3386 49.1175C36.3119 49.1476 36.2827 49.1546 36.2512 49.1384C36.2284 49.1268 36.204 49.1232 36.1782 49.1275C36.0372 49.15 35.9035 49.1565 35.7771 49.1469C35.7172 49.1424 35.6744 49.1312 35.6489 49.1134C35.6387 49.1063 35.6294 49.1123 35.6212 49.1315C35.5985 49.1843 35.5736 49.2309 35.5434 49.2242C35.4704 49.2079 35.4009 49.204 35.335 49.2124C35.2455 49.2235 35.1552 49.2278 35.0641 49.2251C34.9503 49.2208 34.8476 49.2574 34.7375 49.2809C34.671 49.2954 34.6065 49.2404 34.5432 49.3121C34.4996 49.3613 34.4574 49.2952 34.4176 49.2407C34.4076 49.2274 34.3976 49.225 34.3874 49.2333C34.3486 49.2638 34.3144 49.3067 34.2731 49.3102C34.1505 49.3206 34.0342 49.2917 33.9091 49.3431C33.7978 49.389 33.6841 49.4095 33.5679 49.4044C33.5442 49.4037 33.5199 49.3959 33.495 49.3812C33.4116 49.331 33.3421 49.4979 33.2601 49.4106C33.2075 49.3547 33.1444 49.3885 33.0938 49.4331C33.041 49.48 32.9933 49.4148 32.9403 49.4446C32.8184 49.5123 32.71 49.5255 32.6152 49.4842C32.5399 49.4509 32.4732 49.5304 32.3962 49.5126C32.3178 49.4948 32.2476 49.5628 32.1689 49.5342C32.1129 49.5146 32.0612 49.5677 32.0049 49.5667C31.8942 49.5637 31.7899 49.5825 31.6921 49.6231C31.6445 49.6421 31.5999 49.5831 31.5559 49.6136C31.4911 49.6575 31.4248 49.6724 31.3569 49.6581C31.3057 49.6478 31.2518 49.6537 31.1951 49.6759C31.1156 49.7071 31.0295 49.7221 30.9369 49.721C30.6886 49.7178 30.3973 49.7611 30.0628 49.8509C30.0218 49.8622 29.9845 49.8162 29.9455 49.8498C29.9268 49.8654 29.9076 49.8733 29.888 49.8735C29.8335 49.8748 29.7822 49.7447 29.7316 49.8117C29.6759 49.8859 29.63 49.9248 29.5939 49.9282C29.4987 49.9379 29.4022 49.945 29.3043 49.9496C29.2138 49.9544 29.1297 50.0541 29.0419 49.9901C28.9807 49.9458 28.9221 50.0546 28.8594 50.0576C28.7074 50.0652 28.5553 50.0922 28.4022 50.0883C28.3305 50.087 28.2616 50.1297 28.1954 50.2163C28.187 50.2272 28.1788 50.2258 28.1707 50.212C28.139 50.1566 28.1087 50.0889 28.0703 50.1047C27.9971 50.1359 27.9231 50.1585 27.8482 50.1726C27.7883 50.184 27.7331 50.1104 27.6739 50.1628C27.6135 50.2164 27.5529 50.2554 27.4921 50.2797C27.4361 50.3019 27.3963 50.2018 27.3387 50.2248C27.1916 50.2834 27.0499 50.3263 26.9136 50.3534C26.8235 50.3713 26.7322 50.4603 26.6422 50.421C26.5743 50.3915 26.5061 50.4216 26.4397 50.4516C26.4143 50.4632 26.3883 50.4621 26.3618 50.4485C26.3232 50.4288 26.2857 50.4894 26.2472 50.4937C26.1701 50.5037 26.0935 50.5586 26.0178 50.5276C25.9118 50.4831 25.6598 50.4678 25.6339 50.8954C25.6326 50.9171 25.6284 50.9277 25.6213 50.9272C25.5947 50.927 25.5723 50.9055 25.5539 50.863C25.5487 50.8512 25.5452 50.8357 25.5435 50.8167C25.5267 50.6252 25.4467 50.6631 25.397 50.6249C25.3661 50.6005 25.3365 50.5959 25.3083 50.6111C25.2074 50.6652 25.105 50.7103 25.001 50.7463C24.9657 50.759 24.9361 50.7037 24.905 50.731C24.823 50.8022 24.7401 50.7674 24.6575 50.7992C24.5038 50.8584 24.3317 50.9026 24.1413 50.9318C24.1021 50.9378 24.0645 50.9274 24.0288 50.9004C23.9881 50.8699 23.9784 50.9434 23.9459 50.9492C23.8766 50.9617 23.8045 50.9655 23.7294 50.9606C23.6863 50.9574 23.6419 50.9746 23.5963 51.0121C23.5057 51.0872 23.4194 51.1097 23.3371 51.0796C23.2751 51.057 23.2353 51.1556 23.1737 51.0688C23.1692 51.0626 23.1644 51.0597 23.1596 51.0603C23.1548 51.0609 23.1502 51.065 23.1461 51.0722C23.1278 51.1064 23.1091 51.1297 23.0873 51.1369C22.8697 51.2066 22.6539 51.2687 22.4397 51.3234C22.3957 51.3351 22.3404 51.3857 22.2739 51.4749C22.2703 51.4801 22.268 51.4884 22.267 51.4997C22.2645 51.5245 22.2592 51.5382 22.2509 51.5408C22.2289 51.5478 22.2085 51.5644 22.1897 51.5909C22.1833 51.5997 22.1767 51.6006 22.1698 51.5934C22.1562 51.5791 22.1553 51.5598 22.167 51.5355L22.1838 51.5013C22.1926 51.4837 22.1918 51.4719 22.1813 51.4658C22.1565 51.4511 22.1336 51.4637 22.1124 51.5036C22.0826 51.5595 22.0441 51.5653 22.0195 51.4736C22.0133 51.4505 22.0056 51.4371 21.9962 51.4336C21.927 51.407 21.8594 51.4023 21.7935 51.4194C21.6275 51.4622 21.4622 51.5185 21.2976 51.5881C21.2465 51.6095 21.1978 51.5335 21.1511 51.5749C21.0941 51.6257 21.0373 51.6139 20.9799 51.65C20.873 51.7175 20.7661 51.7327 20.6592 51.6957C20.6484 51.6922 20.6381 51.6974 20.6283 51.7114C20.5944 51.7607 20.5603 51.7636 20.5261 51.7202C20.5222 51.7152 20.518 51.7132 20.5138 51.7143C20.5096 51.7154 20.5055 51.7196 20.502 51.7266C20.4528 51.8224 20.3957 51.8662 20.3305 51.8581C20.2857 51.8524 20.2365 51.858 20.1831 51.875C20.0746 51.9096 19.9584 51.9336 19.8346 51.9472C19.7056 51.9609 19.5915 51.9831 19.4923 52.014C19.3427 52.0613 19.1928 52.1043 19.0425 52.1428C19.0119 52.1509 18.9798 52.1481 18.9461 52.1345C18.9211 52.1245 18.8966 52.125 18.8725 52.136C18.6511 52.2366 18.446 52.3182 18.2571 52.3809C18.1809 52.4056 18.1055 52.3801 18.0302 52.4364C17.9612 52.4874 17.8883 52.468 17.818 52.5027C17.7792 52.5216 17.7399 52.5341 17.7001 52.5402C17.5359 52.5644 17.3735 52.5954 17.2129 52.6331C17.1228 52.654 17.0394 52.6301 16.9501 52.6805C16.7603 52.7859 16.6062 52.8353 16.4878 52.8288C16.4246 52.8253 16.3647 52.8382 16.3083 52.8677C16.2451 52.9007 16.191 52.8193 16.1293 52.8903C16.1052 52.9178 16.0787 52.9325 16.0498 52.9343C15.9584 52.9414 15.8724 52.9598 15.7917 52.9894C15.7602 53.0013 15.7249 52.9746 15.6919 52.9827C15.5242 53.022 15.3524 53.0484 15.1767 53.062C15.1399 53.0654 15.1137 53.109 15.076 53.1039C14.994 53.0944 14.9029 53.1136 14.8028 53.1615C14.7272 53.1978 14.6137 53.2118 14.4625 53.2035C14.3265 53.1956 14.1871 53.2232 14.0511 53.2408C13.9942 53.2475 13.9406 53.3145 13.8859 53.2926C13.7924 53.2549 13.712 53.3554 13.6184 53.3486C13.5526 53.3438 13.4923 53.3908 13.4272 53.3737C13.281 53.3344 13.1313 53.3361 12.9782 53.3789C12.9519 53.3863 12.917 53.3586 12.8734 53.2957C12.8691 53.2892 12.8656 53.279 12.8634 53.2664C12.8606 53.2515 12.8568 53.241 12.8521 53.2348C12.8417 53.2215 12.8338 53.2296 12.8285 53.259C12.8189 53.3122 12.8037 53.3335 12.783 53.3228C12.708 53.2854 12.6351 53.3075 12.5644 53.3891C12.4953 53.4694 12.4258 53.3635 12.3535 53.4013C12.3168 53.4202 12.2816 53.4223 12.2477 53.4077C12.175 53.3767 12.1163 53.4824 12.046 53.3657C12.0353 53.3477 12.0243 53.3437 12.013 53.3536C11.9251 53.4292 11.8385 53.4507 11.753 53.418C11.6496 53.3794 11.5511 53.3741 11.4574 53.4024C11.4485 53.405 11.4405 53.3976 11.4333 53.3802C11.4153 53.3361 11.3966 53.3257 11.3772 53.3491C11.3157 53.4223 11.2196 53.3885 11.1552 53.369C11.082 53.3466 11.0128 53.3928 10.9399 53.3974C10.9357 53.3977 10.9316 53.3954 10.9277 53.3907C10.9238 53.3859 10.9202 53.3788 10.9172 53.3698C10.897 53.3087 10.8739 53.2932 10.8478 53.3234C10.751 53.4341 10.6276 53.4469 10.4776 53.3618C10.4692 53.3567 10.4612 53.3591 10.4535 53.369C10.4037 53.4318 10.3544 53.3916 10.3057 53.2484C10.302 53.2373 10.2975 53.2289 10.2927 53.2237C10.2878 53.2186 10.2827 53.2167 10.2776 53.2184C10.2726 53.2201 10.2677 53.2252 10.2635 53.2334C10.2592 53.2416 10.2556 53.2527 10.2529 53.2659L10.2303 53.3727C10.2255 53.3955 10.2188 53.4076 10.21 53.4093C10.1737 53.415 10.1425 53.3759 10.107 53.3948C10.0537 53.4237 10.0018 53.4227 9.9512 53.3917C9.84527 53.3263 9.75666 53.4779 9.64876 53.3383C9.63884 53.3255 9.62887 53.3238 9.61884 53.3332C9.5917 53.3577 9.56464 53.3649 9.53766 53.3548C9.47803 53.3317 9.41708 53.3272 9.35483 53.3412C9.2997 53.3541 9.24396 53.255 9.19498 53.2848C9.12388 53.3278 9.04947 53.3208 8.97175 53.2638C8.9318 53.2343 8.89163 53.2244 8.85124 53.2341C8.78071 53.2503 8.66834 53.2892 8.60048 53.1979C8.59258 53.1872 8.58432 53.1829 8.57571 53.185C8.37907 53.2344 8.18678 53.2208 7.99885 53.1444C7.95803 53.1278 7.91873 53.1305 7.88095 53.1525C7.83227 53.1798 7.781 53.1882 7.72713 53.178C7.63254 53.1598 7.54883 53.2111 7.47601 53.3319C7.45152 53.3723 7.42021 53.3518 7.39527 53.3219C7.38671 53.3122 7.38039 53.3195 7.37632 53.3437C7.35717 53.4547 7.35037 53.5645 7.35592 53.6731C7.36421 53.8322 7.34129 53.9561 7.31716 54.0831C7.3149 54.095 7.3117 54.105 7.30787 54.112C7.30403 54.1191 7.29966 54.123 7.29515 54.1235C7.18573 54.1331 7.20047 53.8354 7.13927 53.6621C7.1328 53.6442 7.12464 53.6331 7.11606 53.6307C7.05118 53.6143 6.98543 53.5591 6.91879 53.4649C6.91037 53.4531 6.9047 53.4336 6.90178 53.4063C6.89103 53.3086 6.87589 53.2204 6.85636 53.1417C6.84841 53.1093 6.83801 53.0904 6.82518 53.0848C6.76736 53.0602 6.71199 53.0568 6.65907 53.0749C6.59325 53.0977 6.50668 53.0687 6.39935 52.9878C6.2972 52.911 6.19145 52.8969 6.08207 52.9453C5.94751 53.0054 5.80708 53.0006 5.66981 52.988C5.59407 52.9803 5.52576 52.8936 5.4483 52.9137C5.40262 52.925 5.35653 52.9216 5.31006 52.9035C5.24059 52.8756 5.17825 52.9396 5.10961 52.8954C4.99038 52.8193 4.86669 52.8205 4.74695 52.7684C4.6023 52.7059 4.45085 52.6603 4.2926 52.6315C4.27814 52.629 4.25088 52.5994 4.21083 52.5426C4.20493 52.5339 4.19884 52.5301 4.19254 52.5312C4.08916 52.5469 3.99656 52.673 3.89277 52.6478C3.76877 52.6181 3.64467 52.6031 3.52107 52.5378C3.45484 52.5024 3.39088 52.4858 3.32917 52.4879C3.24756 52.4911 3.17338 52.389 3.09471 52.413C3.08114 52.4167 3.06883 52.4058 3.0578 52.3801C2.9709 52.1754 2.8847 52.3184 2.78984 52.2405C2.75345 52.21 2.72151 52.1763 2.68332 52.1659C2.49797 52.1151 2.32303 51.9672 2.15849 51.722C2.0582 51.5723 1.97622 51.3359 1.87266 51.2086C1.8127 51.1355 1.75648 51.0459 1.70399 50.9398C1.63872 50.8075 1.56361 50.7379 1.49192 50.6366C1.42074 50.5361 1.38253 50.3216 1.35017 50.1195C1.3194 49.9273 1.2714 49.7794 1.2355 49.5966C1.21785 49.5072 1.19636 49.4229 1.17103 49.3438C1.09039 49.0919 1.042 48.7794 1.01345 48.4334C0.995086 48.2118 0.922979 48.068 0.888543 47.8574C0.793677 47.2735 0.702367 46.7306 0.614614 46.2287C0.577411 46.0149 0.578278 45.8001 0.542032 45.5825C0.49547 45.3032 0.460246 44.9957 0.436358 44.6601C0.42367 44.484 0.458911 44.3221 0.452353 44.1367C0.448481 44.0301 0.44816 43.9219 0.451392 43.8121C0.458532 43.5771 0.444601 43.3508 0.433611 43.1199C0.432357 43.0936 0.432932 43.0678 0.435338 43.0426C0.439245 43.0013 0.441237 42.9593 0.441313 42.9165C0.441728 42.6558 0.442547 42.4023 0.443768 42.1561C0.445471 41.8492 0.423698 41.5596 0.443591 41.255C0.45332 41.1057 0.444822 40.976 0.433909 40.8285C0.431824 40.8022 0.432151 40.7764 0.434889 40.7512C0.453659 40.5681 0.461074 40.3694 0.457135 40.1551C0.454079 39.9967 0.422877 39.8363 0.439016 39.6808C0.460965 39.4668 0.474887 39.2464 0.480781 39.0196C0.487685 38.7607 0.557663 38.6634 0.572752 38.4267C0.585573 38.2293 0.606213 38.0423 0.634673 37.8658C0.652812 37.7533 0.664685 37.6365 0.670294 37.5154C0.68797 37.1373 0.675077 36.7387 0.694173 36.3784C0.71811 35.9283 0.73784 35.4557 0.753365 34.9604C0.756183 34.8677 0.773531 34.8095 0.801085 34.7768C0.807641 34.769 0.813554 34.757 0.818437 34.7415C0.823321 34.726 0.827065 34.7073 0.829424 34.6868C0.831783 34.6663 0.832704 34.6443 0.832126 34.6224C0.831548 34.6004 0.829485 34.579 0.826072 34.5594C0.818515 34.5167 0.809011 34.4784 0.797559 34.4445C0.786791 34.4127 0.783851 34.3754 0.788738 34.3326C0.801593 34.2227 0.805093 34.1065 0.799238 33.9839C0.798346 33.9656 0.798658 33.9472 0.800155 33.9296C0.801652 33.912 0.804301 33.8958 0.807938 33.8818C0.847286 33.7325 0.8495 33.5785 0.81458 33.4196C0.808493 33.3913 0.805617 33.3605 0.80595 33.327C0.809266 33.0827 0.8329 32.8545 0.826736 32.608C0.819753 32.3291 0.813999 31.9729 0.854571 31.7206C0.895851 31.4644 0.893251 31.0494 0.882883 30.7806C0.87889 30.6786 0.84328 30.6264 0.848293 30.529C0.849271 30.5104 0.852463 30.4975 0.857867 30.4902C0.867041 30.4783 0.876479 30.4761 0.886178 30.4838C0.950168 30.5365 0.945639 30.2792 0.969056 30.2055C1.05185 29.9443 1.1247 29.6081 1.14186 29.2277C1.15043 29.0365 1.17137 28.847 1.2047 28.6591C1.22261 28.5574 1.23383 28.4499 1.23835 28.3365C1.26008 27.7969 1.28497 27.25 1.31302 26.6959C1.32888 26.3858 1.36888 26.101 1.39529 25.8009C1.43651 25.3368 1.47445 24.8936 1.55182 24.4601C1.59112 24.2392 1.6285 24.0083 1.66396 23.7673C1.67578 23.6873 1.68376 23.6043 1.68789 23.5182C1.69215 23.429 1.70078 23.3452 1.71378 23.2668C1.75247 23.0335 1.79299 22.818 1.83534 22.6203C1.88411 22.3918 1.89486 22.1189 1.93604 21.8774C1.97111 21.673 1.99749 21.4456 2.04576 21.2673C2.10196 21.0605 2.103 20.8626 2.08749 20.6023C2.07527 20.3984 2.10832 20.191 2.15708 20.0622C2.22669 19.8776 2.20351 19.4698 2.18336 19.2188C2.18126 19.1915 2.17697 19.1681 2.17047 19.1486L2.14403 19.0669C2.13856 19.0505 2.13797 19.033 2.14226 19.0144C2.1437 19.0082 2.14565 19.0046 2.14813 19.0035C2.15209 19.0009 2.15544 19.0045 2.15819 19.0143C2.16301 19.0317 2.16901 19.0425 2.17618 19.0465C2.21273 19.0678 2.23164 18.9664 2.27793 19.0162C2.28255 19.0212 2.28666 19.0297 2.28988 19.0408C2.29571 19.0608 2.30288 19.0721 2.31137 19.0746C2.32018 19.0765 2.32654 19.0651 2.33044 19.0404C2.34121 18.9707 2.35509 18.9067 2.37211 18.8483C2.41641 18.6964 2.43879 18.4929 2.46608 18.3072C2.48784 18.1581 2.52381 18.0864 2.57397 18.0921C2.58344 18.093 2.58837 18.079 2.58874 18.0502C2.59003 17.9536 2.57596 17.8648 2.57379 17.7706C2.56696 17.4561 2.60742 17.1674 2.63922 16.8843C2.65415 16.7491 2.68502 16.6231 2.73182 16.5062C2.73878 16.4886 2.74346 16.4664 2.74585 16.4396C2.75747 16.3061 2.78092 16.1938 2.8162 16.1028C2.82267 16.0862 2.82736 16.0656 2.83027 16.0408C2.85539 15.8365 2.88004 15.6354 2.92385 15.4595C2.95833 15.3216 2.99131 15.1827 3.02279 15.0427C3.04425 14.9477 3.05924 14.835 3.06774 14.7046C3.07742 14.5587 3.09411 14.4261 3.11783 14.3069C3.18501 13.9682 3.25303 13.6131 3.32187 13.2415C3.36842 12.9891 3.40289 12.7244 3.43809 12.4574C3.45478 12.3326 3.47682 12.2201 3.50421 12.1198C3.58782 11.8153 3.67692 11.5362 3.73325 11.1663C3.74915 11.062 3.77342 10.9745 3.80608 10.9036C3.83711 10.8363 3.8476 10.7478 3.83756 10.6382C3.83496 10.6099 3.83569 10.5831 3.83975 10.5578C3.89157 10.243 3.93086 10.0458 3.95762 9.96618C4.08048 9.60252 4.19874 9.20181 4.32845 8.87749C4.40765 8.67964 4.48373 8.46946 4.57219 8.32871C4.66057 8.18719 4.7457 8.03668 4.8276 7.87719C4.83573 7.86113 4.84157 7.83918 4.84512 7.81132C4.85734 7.71306 4.86943 7.62638 4.90101 7.57352C4.97561 7.4481 5.04398 7.27999 5.10611 7.06917C5.19716 6.76069 5.34222 6.62943 5.46578 6.43887C5.51711 6.36005 5.56805 6.27531 5.61859 6.18465C5.65201 6.12404 5.686 6.07914 5.72056 6.04995C5.81041 5.9741 5.88674 5.91461 5.96515 5.73918C6.0365 5.57928 6.11143 5.78179 6.18031 5.67369C6.22516 5.6037 6.27253 5.61096 6.32067 5.57107C6.45564 5.45948 6.55496 5.35958 6.61864 5.27137C6.64073 5.24024 6.65675 5.18135 6.66668 5.0947C6.66973 5.06788 6.67517 5.04721 6.68299 5.03271C6.70694 4.98765 6.73021 4.99206 6.75281 5.04593C6.75819 5.0591 6.7644 5.06854 6.77101 5.07357L6.86813 5.15453C6.87633 5.16166 6.88385 5.15798 6.89067 5.14349C6.90384 5.11554 6.91751 5.0966 6.93168 5.08667C7.02712 5.02184 7.11644 4.93389 7.19964 4.82282C7.25237 4.75223 7.30287 4.73292 7.35115 4.76491C7.3595 4.77049 7.36726 4.76707 7.37444 4.75463C7.42127 4.67379 7.47052 4.62849 7.52219 4.61871C7.60368 4.60322 7.6777 4.53679 7.75704 4.50587C7.89507 4.45248 8.03575 4.39055 8.17909 4.3201C8.22698 4.29644 8.27345 4.26352 8.3185 4.22135C8.36766 4.17552 8.41964 4.16239 8.47442 4.18194C8.48425 4.18545 8.49358 4.18098 8.50242 4.16853C8.55365 4.09693 8.59157 4.05533 8.61618 4.04376C8.71514 3.9995 8.81049 3.94266 8.90223 3.87324C8.95444 3.83408 9.00841 3.83742 9.06411 3.88323C9.07281 3.89036 9.08126 3.88847 9.08945 3.87757C9.21955 3.70988 9.35221 3.62536 9.48743 3.62402C9.55413 3.62337 9.61734 3.57174 9.68527 3.59425C9.72272 3.60676 9.76006 3.59867 9.79728 3.56996C9.85533 3.52534 9.9092 3.58664 9.96895 3.56286C10.0212 3.54226 10.0724 3.50955 10.1226 3.46475C10.2314 3.36784 10.3447 3.37136 10.4574 3.40039C10.4997 3.41079 10.5483 3.39022 10.6032 3.33867C10.7016 3.24574 10.783 3.39873 10.8806 3.37226C10.9198 3.36157 10.9601 3.35524 11.0016 3.35329C11.0578 3.35042 11.1083 3.268 11.1644 3.28522C11.1854 3.29171 11.2069 3.28841 11.2288 3.27531C11.2915 3.23709 11.3529 3.20042 11.4129 3.16531C11.4666 3.13386 11.4965 3.16448 11.5373 3.26222C11.5408 3.27041 11.5449 3.27569 11.5492 3.27755C11.5535 3.2794 11.5578 3.27777 11.5618 3.2728C11.641 3.17413 11.7195 3.12441 11.7973 3.12364C11.8267 3.12335 11.8549 3.11046 11.882 3.08494C11.8906 3.07713 11.8991 3.0773 11.9077 3.08546C11.9388 3.11452 11.9703 3.11473 12.002 3.08608C12.0106 3.07827 12.0192 3.07843 12.0279 3.08659C12.1063 3.15615 12.1682 3.05507 12.2453 3.09295C12.3043 3.12174 12.3615 3.11988 12.417 3.08739C12.5253 3.02296 12.6314 3.14633 12.7375 3.06182C12.8361 2.98356 12.9197 2.93637 13.0274 3.001C13.1356 3.0664 13.3074 3.07629 13.4193 2.93376C13.474 2.8647 13.5309 2.83941 13.59 2.85789C13.6919 2.89089 13.7883 2.77478 13.8925 2.86495C13.9467 2.91233 13.9964 2.90952 14.0415 2.85653C14.0684 2.82535 14.0954 2.80937 14.1224 2.80859C14.2613 2.80464 14.3971 2.76286 14.5299 2.68324C14.584 2.65076 14.6382 2.65666 14.6926 2.70095C14.7018 2.70843 14.7114 2.7078 14.7205 2.69913C14.7474 2.67259 14.7732 2.66255 14.7978 2.669C14.9226 2.70126 15.0385 2.6795 15.1457 2.60374C15.2058 2.56142 15.2598 2.53925 15.3075 2.53723C15.3656 2.5346 15.4206 2.52556 15.4725 2.5101C15.5336 2.4925 15.586 2.55844 15.6461 2.54162C15.6683 2.53522 15.6922 2.53421 15.718 2.53859C15.8697 2.56492 16.0227 2.53533 16.1768 2.44983C16.2382 2.41574 16.2923 2.43324 16.3391 2.50233C16.3702 2.54839 16.4028 2.52488 16.4321 2.48827C16.4405 2.4784 16.4491 2.47548 16.4581 2.47951C16.5451 2.51961 16.6448 2.39961 16.7286 2.34315C16.7743 2.31333 16.8037 2.41428 16.8481 2.39916C16.9047 2.37928 16.9599 2.32696 17.0168 2.34417C17.1084 2.37109 17.1761 2.23518 17.2615 2.2637C17.341 2.29074 17.423 2.28477 17.5074 2.24581C17.5907 2.20713 17.6645 2.3741 17.7497 2.3238C17.829 2.27665 17.9064 2.24497 17.9817 2.22878C18.2537 2.1689 18.518 2.1037 18.7745 2.03316C18.7995 2.02622 18.8244 2.02469 18.8491 2.02856C18.9219 2.04021 18.999 2.00777 19.0713 1.99546C19.1056 1.98997 19.1547 1.96475 19.2187 1.91981C19.2727 1.88167 19.333 1.8646 19.3994 1.86858C19.4572 1.87187 19.495 1.84908 19.5454 1.8084C19.5643 1.79327 19.5834 1.78432 19.6026 1.78156C19.7222 1.76569 19.8387 1.71895 19.9584 1.73941C20.0314 1.75209 20.0983 1.73932 20.1591 1.70111C20.2262 1.65872 20.286 1.72226 20.3503 1.67912C20.3745 1.66291 20.4 1.65468 20.4267 1.65442C20.5432 1.65327 20.6575 1.55863 20.7665 1.55833C20.8502 1.55827 20.9315 1.55129 21.0144 1.5242C21.0638 1.50825 21.113 1.50571 21.1619 1.51656C21.2604 1.538 21.3505 1.46137 21.4484 1.48977C21.4941 1.50324 21.5411 1.50535 21.5893 1.49612C21.6599 1.48305 21.7068 1.47255 21.7301 1.46459C21.941 1.39656 22.1246 1.35895 22.2808 1.35174C22.3107 1.35041 22.3394 1.34033 22.3671 1.32151C22.4084 1.29328 22.45 1.32224 22.4918 1.29401C22.5652 1.24537 22.641 1.24076 22.7194 1.28018C22.7554 1.29785 22.7917 1.29362 22.8283 1.2675C22.8814 1.22988 22.9362 1.22291 22.9929 1.24656C23.0541 1.27223 23.1076 1.1952 23.1665 1.26109C23.1761 1.27181 23.1858 1.27454 23.1957 1.26929C23.269 1.23044 23.3216 1.21035 23.3534 1.209C23.5535 1.20188 23.7381 1.16579 23.9072 1.10075C23.9409 1.08805 23.9725 1.09006 24.0021 1.10678C24.0469 1.13261 24.0826 1.09825 24.1264 1.09859C24.1895 1.099 24.2557 1.10195 24.3251 1.10745C24.3738 1.11109 24.4178 1.09366 24.4573 1.05514C24.5133 1.00049 24.5712 0.950718 24.6308 0.905824C24.6738 0.873714 24.7078 0.942931 24.7479 0.863709C24.7558 0.847661 24.7644 0.844486 24.7737 0.854184C24.8375 0.922333 24.8946 1.02842 24.9658 1.00067C25.0223 0.97847 25.0764 0.940581 25.1282 0.887005C25.1367 0.877647 25.1454 0.877302 25.1543 0.885973C25.2241 0.952262 25.2874 0.968382 25.3439 0.934333C25.3914 0.905016 25.4405 0.900157 25.4911 0.91975C25.5571 0.945377 25.6206 0.896835 25.6839 0.856795C25.7502 0.81441 25.8084 0.938262 25.8703 0.877369C25.9017 0.846148 25.9319 0.856924 25.961 0.909706C25.9675 0.921537 25.9752 0.92507 25.9825 0.919543C26.0636 0.862069 26.1479 0.836505 26.2356 0.84285C26.2853 0.846484 26.3342 0.83595 26.3824 0.811261C26.4367 0.783418 26.4918 0.779784 26.5478 0.800355C26.6277 0.829964 26.7066 0.82945 26.7842 0.798801C26.8415 0.775828 26.8931 0.81164 26.9487 0.790225C27.0515 0.752115 27.1546 0.720956 27.2579 0.696754C27.2927 0.688683 27.3233 0.695854 27.3497 0.718261C27.3924 0.753906 27.4233 0.767507 27.4425 0.759074C27.5956 0.694709 27.7478 0.671569 27.899 0.689656C27.9553 0.69683 27.9982 0.674773 28.0507 0.648752C28.1059 0.62116 28.1601 0.66003 28.2154 0.640936C28.2508 0.628223 28.2859 0.628139 28.3209 0.640677C28.4253 0.678288 28.5274 0.631678 28.6326 0.644554C28.7505 0.658845 28.8692 0.581167 28.9907 0.583833C29.0813 0.586029 29.1799 0.580681 29.2864 0.567781C29.3251 0.563276 29.3621 0.541009 29.3975 0.500989C29.4647 0.425363 29.5151 0.538473 29.582 0.506902C29.6489 0.475845 29.7229 0.466867 29.804 0.47998C29.8644 0.490204 29.9113 0.431007 29.9669 0.389502C30.0373 0.336253 30.1458 0.409375 30.2199 0.447286C30.2712 0.474602 30.32 0.533624 30.3723 0.479784C30.4479 0.400986 30.527 0.494491 30.6057 0.448115C30.6451 0.424543 30.6823 0.416192 30.7172 0.423058C30.8032 0.439212 30.8959 0.41666 30.979 0.490803C31.0244 0.531315 31.0642 0.474505 31.1121 0.484077C31.1722 0.495336 31.2335 0.501949 31.296 0.503909C31.3325 0.504322 31.3553 0.436082 31.393 0.447304C31.4833 0.475005 31.5691 0.493481 31.657 0.413788C31.7073 0.367955 31.7561 0.360256 31.8033 0.390706C31.8411 0.415062 31.8819 0.417238 31.9259 0.397226C32.0266 0.350893 32.1355 0.344928 32.2525 0.379321C32.2956 0.392294 32.3339 0.433647 32.3675 0.503384C32.3753 0.519795 32.3838 0.524865 32.393 0.51859C32.4316 0.493477 32.4607 0.420543 32.5017 0.41241C32.5904 0.395306 32.6673 0.495013 32.7565 0.472496C32.7666 0.469817 32.776 0.476167 32.7848 0.491535C32.8006 0.5192 32.8174 0.534497 32.835 0.537417C32.8461 0.538852 32.856 0.529222 32.8646 0.508529C32.8944 0.435077 32.9259 0.411834 32.9592 0.438813C33.0328 0.499912 33.1139 0.477469 33.1874 0.479064C33.2109 0.479862 33.2291 0.530695 33.2419 0.631553C33.246 0.663969 33.2495 0.663416 33.2523 0.629901C33.2735 0.383163 33.3658 0.402341 33.4275 0.519972C33.4347 0.534328 33.4425 0.53992 33.4508 0.536745C33.4925 0.523455 33.5297 0.489085 33.5625 0.433633C33.5684 0.423522 33.5752 0.419533 33.582 0.422244C33.5887 0.424959 33.595 0.434235 33.6 0.448721C33.6446 0.578113 33.6756 0.436382 33.7128 0.525661C33.7197 0.542595 33.7274 0.546644 33.7358 0.537802C33.7808 0.487898 33.8288 0.427146 33.8777 0.440576C33.9283 0.455016 33.9814 0.438779 34.037 0.39186C34.1042 0.335554 34.1694 0.440785 34.2397 0.426953C34.2946 0.415592 34.3461 0.415859 34.4004 0.465558C34.4424 0.503784 34.4722 0.51817 34.4897 0.508724C34.5598 0.471451 34.6285 0.441922 34.6956 0.420136C34.7269 0.410554 34.7466 0.434321 34.7752 0.46418C34.7834 0.472667 34.7922 0.47339 34.8004 0.466251C34.8564 0.417009 34.9121 0.440409 34.9662 0.368778C34.9927 0.333996 35.0212 0.330888 35.0517 0.359439C35.1058 0.410425 35.1604 0.415297 35.2154 0.374049C35.2922 0.316106 35.3561 0.432173 35.427 0.280004C35.4358 0.260854 35.4449 0.25999 35.4544 0.277415L35.5038 0.367344C35.5136 0.38528 35.5241 0.392131 35.5354 0.387896C35.605 0.359387 35.6524 0.340372 35.7262 0.406881C35.7353 0.415036 35.7442 0.41521 35.7531 0.407394C35.79 0.375603 35.8246 0.386081 35.857 0.438826C35.8651 0.452141 35.8735 0.455148 35.8822 0.447848C35.922 0.414998 35.9652 0.430286 36.0116 0.493712C36.019 0.503943 36.022 0.521172 36.0206 0.545403C36.0174 0.599529 36.0009 0.644525 35.9829 0.643153C35.9311 0.639544 35.8796 0.599606 35.8284 0.523344C35.8243 0.517193 35.8197 0.51506 35.8153 0.517229C35.8108 0.519398 35.8067 0.525764 35.8035 0.535473C35.8003 0.545187 35.7982 0.557774 35.7974 0.571546C35.7967 0.585314 35.7973 0.59961 35.7992 0.612504C35.8093 0.680927 35.8271 0.711409 35.8524 0.703945C35.8759 0.696499 35.8976 0.711224 35.9175 0.748124C35.9223 0.757102 35.9276 0.762955 35.9331 0.765293C35.9387 0.767634 35.9442 0.766416 35.9495 0.761721L36.0638 0.6609C36.0744 0.65152 36.0785 0.630102 36.0758 0.596641C36.0747 0.57965 36.0718 0.565765 36.0672 0.554991C36.0589 0.53601 36.0556 0.511055 36.0575 0.480124C36.0605 0.42909 36.071 0.399871 36.089 0.39248C36.107 0.385088 36.1235 0.399098 36.1384 0.434497C36.1415 0.441841 36.1453 0.445951 36.1491 0.446192C36.1529 0.446432 36.1566 0.442799 36.1596 0.435841C36.183 0.383061 36.2153 0.354149 36.2442 0.384002C36.2821 0.423299 36.3228 0.424439 36.3662 0.387433C36.3789 0.377004 36.3888 0.388756 36.3959 0.422687C36.3992 0.437083 36.3987 0.449967 36.3943 0.461344C36.3925 0.465482 36.3908 0.469878 36.3892 0.474533C36.3867 0.481291 36.3847 0.490012 36.3836 0.499877C36.3825 0.509738 36.3822 0.520404 36.3828 0.530862C36.3833 0.541321 36.3848 0.551229 36.3869 0.55962C36.389 0.568011 36.3918 0.574617 36.395 0.578809C36.4236 0.617683 36.4537 0.655508 36.4855 0.692291C36.4952 0.704044 36.5051 0.708066 36.5152 0.704358C36.5412 0.694313 36.5479 0.6502 36.5353 0.572012C36.5324 0.553485 36.5273 0.538981 36.5211 0.531546C36.515 0.524114 36.5082 0.524326 36.5023 0.532151C36.4749 0.567453 36.4529 0.559683 36.4361 0.508843C36.4339 0.501998 36.4324 0.493399 36.4316 0.484052C36.4309 0.474701 36.4311 0.464991 36.4321 0.456058C36.4331 0.447125 36.4349 0.43934 36.4373 0.433617C36.4398 0.427893 36.4427 0.424469 36.4457 0.423745C36.4891 0.413013 36.5317 0.428562 36.5736 0.470395C36.5823 0.479068 36.5911 0.479236 36.6 0.470905C36.6818 0.388951 36.7355 0.450246 36.8104 0.530653C36.8726 0.597274 36.9399 0.435873 36.9785 0.304887C36.9851 0.282222 36.9944 0.268454 37.0044 0.266349C37.0144 0.264243 37.0244 0.273957 37.0324 0.293532C37.0585 0.357677 37.0651 0.435916 37.0521 0.52827C37.0484 0.55355 37.0498 0.575955 37.0565 0.595467C37.0626 0.613436 37.0696 0.617491 37.0775 0.607624C37.0791 0.605548 37.0796 0.601934 37.0789 0.596787C37.078 0.589586 37.0784 0.583658 37.08 0.579003C37.0837 0.567118 37.0856 0.569414 37.0858 0.585897C37.086 0.588989 37.0861 0.591822 37.0861 0.594397C37.0863 0.598519 37.0871 0.600831 37.0884 0.601333ZM2.72665 45.1019C2.72931 45.0859 2.72843 45.0728 2.72402 45.0625C2.71604 45.0441 2.71211 45.05 2.71225 45.0804L2.71252 45.184C2.71261 45.188 2.7131 45.1918 2.71391 45.195C2.71472 45.1981 2.71583 45.2005 2.71707 45.2016C2.71831 45.2028 2.71962 45.2028 2.72083 45.2015C2.72204 45.2003 2.72309 45.1979 2.72383 45.1947C2.72715 45.1782 2.7278 45.1604 2.72579 45.1413C2.72433 45.1274 2.72461 45.1143 2.72665 45.1019ZM2.86766 16.0203C2.86684 16.0165 2.86576 16.0133 2.86451 16.0108C2.86325 16.0084 2.86185 16.0068 2.86039 16.0063C2.85894 16.0057 2.85747 16.0061 2.85609 16.0075C2.85471 16.0089 2.85346 16.0112 2.85241 16.0143C2.84758 16.0293 2.84352 16.0463 2.84022 16.0654C2.83349 16.1062 2.83718 16.135 2.85128 16.1519C2.86018 16.1626 2.86907 16.1638 2.87795 16.1555C2.8888 16.1456 2.89102 16.126 2.88459 16.0967L2.86766 16.0203ZM3.90007 25.3798C3.89763 25.3796 3.89525 25.394 3.89346 25.4201C3.89166 25.4461 3.8906 25.4815 3.89051 25.5186C3.89042 25.5557 3.8913 25.5913 3.89296 25.6177C3.89462 25.6442 3.89693 25.6591 3.89937 25.6594C3.90181 25.6597 3.90419 25.6452 3.90599 25.6192C3.90778 25.5932 3.90884 25.5577 3.90893 25.5206C3.90903 25.4836 3.90815 25.4479 3.90648 25.4215C3.90482 25.3951 3.90252 25.3801 3.90007 25.3798ZM7.81808 7.96902C7.83298 7.98227 7.83857 7.96856 7.83485 7.9279C7.83437 7.92238 7.83335 7.91739 7.83194 7.91355C7.83053 7.90971 7.82878 7.9072 7.82692 7.90634C7.81491 7.89976 7.80666 7.91324 7.80218 7.94677C7.80017 7.96122 7.80174 7.9697 7.80691 7.97222C7.81075 7.97425 7.81447 7.97318 7.81808 7.96902ZM7.96489 7.83851C7.96536 7.81841 7.96249 7.80504 7.95628 7.79841C7.95276 7.79484 7.95062 7.79615 7.94985 7.80234C7.94353 7.85083 7.94377 7.90081 7.95058 7.95226C7.95686 7.9996 7.96066 7.99801 7.96199 7.94751L7.96489 7.83851ZM9.04398 49.3326C9.04061 49.3275 9.03722 49.3285 9.03381 49.3358C9.02877 49.3461 9.02895 49.3557 9.03434 49.3644C9.04277 49.3782 9.05219 49.3825 9.0626 49.3772C9.07068 49.373 9.07198 49.3614 9.06648 49.3424C9.06219 49.328 9.05727 49.325 9.05171 49.3333C9.04909 49.3369 9.04651 49.3367 9.04398 49.3326ZM9.45604 4.03329C9.45862 4.01896 9.45904 4.00156 9.45721 3.98492C9.45539 3.96827 9.45147 3.95375 9.44632 3.94454C9.44116 3.93534 9.4352 3.93219 9.42974 3.93582C9.42427 3.93944 9.41976 3.94953 9.41719 3.96385C9.41462 3.97818 9.4142 3.99558 9.41602 4.01223C9.41784 4.02887 9.42176 4.04339 9.42692 4.0526C9.43207 4.06181 9.43803 4.06494 9.4435 4.06132C9.44896 4.0577 9.45347 4.04762 9.45604 4.03329ZM11.2602 6.50382C11.2672 6.47593 11.2651 6.45688 11.2539 6.44669C11.2391 6.43292 11.2235 6.42844 11.2069 6.43324C11.1955 6.43696 11.193 6.45399 11.1992 6.48433C11.2032 6.50387 11.2084 6.51876 11.2146 6.529C11.2328 6.55922 11.248 6.55082 11.2602 6.50382ZM15.4547 48.5939C15.4502 48.5917 15.4457 48.5958 15.4421 48.6052C15.4385 48.6145 15.4361 48.6285 15.4355 48.6438C15.4348 48.6592 15.436 48.6748 15.4387 48.6872C15.4414 48.6996 15.4454 48.7078 15.4499 48.7099C15.4543 48.7121 15.4589 48.708 15.4625 48.6986C15.466 48.6893 15.4684 48.6753 15.4691 48.66C15.4697 48.6446 15.4685 48.629 15.4658 48.6166C15.4631 48.6042 15.4591 48.596 15.4547 48.5939ZM15.8163 49.4511C15.8163 49.4479 15.8156 49.4448 15.8145 49.442C15.8133 49.4391 15.8116 49.4366 15.8095 49.4345C15.8073 49.4324 15.8048 49.4307 15.802 49.4297C15.7993 49.4286 15.7963 49.4281 15.7933 49.4283C15.7904 49.4285 15.7874 49.4292 15.7847 49.4306C15.782 49.4319 15.7795 49.4338 15.7774 49.4362C15.7754 49.4385 15.7737 49.4412 15.7726 49.4442C15.7715 49.4472 15.771 49.4503 15.7711 49.4535C15.7711 49.4566 15.7717 49.4597 15.7729 49.4625C15.7741 49.4654 15.7758 49.4679 15.7779 49.47C15.7801 49.4722 15.7826 49.4738 15.7853 49.4748C15.7881 49.4759 15.7911 49.4764 15.794 49.4762C15.797 49.4761 15.7999 49.4753 15.8027 49.4739C15.8054 49.4726 15.8079 49.4707 15.8099 49.4683C15.812 49.466 15.8136 49.4633 15.8147 49.4603C15.8158 49.4573 15.8164 49.4542 15.8163 49.4511ZM29.8454 45.0485C29.8538 45.053 29.8587 45.0424 29.8603 45.0167C29.8619 44.9909 29.8612 44.9646 29.8583 44.9379C29.8553 44.9111 29.8493 44.8972 29.8402 44.8963C29.8282 44.8949 29.8188 44.912 29.8121 44.9476C29.8081 44.9693 29.8092 44.9886 29.8154 45.0055C29.8239 45.0286 29.8339 45.0429 29.8454 45.0485ZM36.6683 0.580745C36.6513 0.554121 36.6326 0.539369 36.6124 0.536475C36.61 0.536262 36.6077 0.537944 36.6056 0.541356C36.6036 0.544768 36.6019 0.549778 36.6007 0.555902C36.5995 0.562021 36.5988 0.569036 36.5988 0.576227C36.5988 0.583418 36.5994 0.590538 36.6005 0.596875C36.6179 0.696398 36.6533 0.70377 36.6812 0.780006C36.6899 0.803618 36.6999 0.811768 36.7111 0.804443C36.7399 0.784066 36.7618 0.738251 36.7767 0.667002C36.7796 0.652858 36.7812 0.636251 36.7812 0.619165C36.7812 0.602074 36.7795 0.585232 36.7765 0.570659C36.7735 0.556089 36.7693 0.544404 36.7642 0.537007C36.7592 0.52961 36.7536 0.526815 36.7482 0.528955C36.7284 0.536876 36.7094 0.554325 36.6915 0.581291C36.6838 0.593219 36.6761 0.593032 36.6683 0.580745ZM36.7066 3.81404C36.7067 3.80832 36.7041 3.80226 36.6994 3.7972C36.6947 3.79215 36.6882 3.7885 36.6815 3.78707C36.6782 3.78637 36.6749 3.78622 36.6718 3.78665C36.6687 3.78709 36.6659 3.78808 36.6635 3.78959C36.6611 3.79109 36.6592 3.79308 36.6579 3.79542C36.6566 3.79778 36.6559 3.80044 36.6558 3.80327C36.6558 3.809 36.6584 3.81506 36.6631 3.82012C36.6678 3.82517 36.6742 3.82882 36.6809 3.83025C36.6843 3.83096 36.6876 3.8311 36.6907 3.83067C36.6938 3.83024 36.6966 3.82924 36.699 3.82773C36.7013 3.82623 36.7033 3.82424 36.7046 3.82189C36.7059 3.81955 36.7066 3.81688 36.7066 3.81404ZM36.9048 0.586144C36.9027 0.587711 36.9008 0.591849 36.8992 0.59856C36.8959 0.613021 36.8966 0.625897 36.9013 0.637184C36.9204 0.682336 36.9421 0.698087 36.9665 0.684452C36.9787 0.677633 36.9815 0.657768 36.9749 0.624861C36.9668 0.583724 36.9559 0.553435 36.9421 0.533993C36.933 0.520685 36.9252 0.525405 36.9186 0.548138C36.9154 0.558474 36.9121 0.56881 36.9087 0.579147C36.9076 0.582252 36.9063 0.584581 36.9048 0.586144ZM37.157 3.06438C37.1626 3.06381 37.1679 3.05939 37.1728 3.05109C37.1828 3.03451 37.1825 3.01828 37.1721 3.00241C37.1669 2.99474 37.1613 2.99041 37.1553 2.98944C37.1491 2.98795 37.1456 2.99675 37.1448 3.01582C37.1447 3.02252 37.1449 3.02922 37.1453 3.03591C37.1458 3.04427 37.1473 3.05178 37.1495 3.05703C37.1517 3.06227 37.1543 3.06489 37.157 3.06438ZM39.5341 3.95672C39.5371 3.93557 39.536 3.91806 39.5309 3.9042C39.5295 3.90053 39.5278 3.89815 39.526 3.89733C39.5242 3.89651 39.5224 3.89729 39.5208 3.89958C39.5191 3.90187 39.5178 3.90558 39.5168 3.91026C39.5159 3.91493 39.5154 3.92039 39.5154 3.92599C39.5155 3.95587 39.5179 3.9847 39.5225 4.01248C39.5248 4.02637 39.5274 4.02711 39.5305 4.01472C39.5329 4.00542 39.5338 3.99356 39.5334 3.97914C39.5329 3.97142 39.5332 3.96394 39.5341 3.95672ZM39.9958 6.09516C39.9958 6.08676 39.9933 6.07849 39.9888 6.07217C39.9844 6.06584 39.9784 6.06197 39.9721 6.06142C39.969 6.06115 39.9659 6.0617 39.9631 6.06304C39.9602 6.06438 39.9576 6.06649 39.9554 6.06924C39.9532 6.07199 39.9514 6.07532 39.9503 6.07906C39.9491 6.0828 39.9485 6.08687 39.9485 6.09103C39.9485 6.09943 39.9509 6.10769 39.9554 6.11402C39.9598 6.12035 39.9658 6.12421 39.9721 6.12476C39.9752 6.12503 39.9783 6.12449 39.9812 6.12314C39.984 6.1218 39.9866 6.1197 39.9888 6.11695C39.991 6.1142 39.9928 6.11087 39.994 6.10713C39.9952 6.10339 39.9958 6.09932 39.9958 6.09516ZM40.0861 5.13445C40.0738 5.12684 40.0616 5.12774 40.0496 5.13714C40.0375 5.14653 40.0377 5.15503 40.0501 5.16263C40.0636 5.17126 40.0758 5.17088 40.0866 5.1615C40.099 5.15107 40.0988 5.14206 40.0861 5.13445ZM44.394 4.09116C44.3819 4.10622 44.3824 4.11781 44.3954 4.12593C44.4066 4.13252 44.4176 4.13524 44.4286 4.13411C44.4412 4.13295 44.4421 4.12186 44.4312 4.10084C44.4196 4.07829 44.4072 4.07506 44.394 4.09116ZM44.8884 5.98586C44.8897 5.99925 44.8917 6.0116 44.8945 6.0229C44.8952 6.02549 44.896 6.02753 44.897 6.02886C44.898 6.03019 44.8991 6.03076 44.9001 6.03052C44.9012 6.03028 44.9022 6.02924 44.9031 6.02749C44.9039 6.02574 44.9047 6.02333 44.9052 6.02048C44.9107 5.98848 44.908 5.96532 44.8973 5.951C44.8931 5.94538 44.8887 5.94491 44.8841 5.94959C44.8835 5.94999 44.8831 5.95088 44.8827 5.95215C44.8824 5.95342 44.8822 5.95503 44.8822 5.95675C44.8821 5.95847 44.8823 5.96025 44.8825 5.96186C44.8828 5.96347 44.8832 5.96485 44.8837 5.96582C44.8861 5.97095 44.8876 5.97763 44.8884 5.98586ZM44.915 6.30864C44.9138 6.30962 44.9127 6.31137 44.9117 6.31376C44.9108 6.31615 44.91 6.31913 44.9095 6.3225C44.909 6.32587 44.9087 6.32955 44.9086 6.3333C44.9086 6.33705 44.9089 6.34079 44.9093 6.34425C44.9151 6.38953 44.9263 6.39972 44.943 6.37483C44.9444 6.37291 44.9455 6.36995 44.9464 6.36622C44.9473 6.3625 44.9478 6.35811 44.948 6.35349C44.9482 6.34887 44.948 6.34416 44.9474 6.33978C44.9469 6.3354 44.9459 6.3315 44.9448 6.32844C44.9364 6.30585 44.9265 6.29925 44.915 6.30864ZM46.5326 5.95729C46.5441 5.96026 46.5484 5.9445 46.5456 5.91001C46.5424 5.8678 46.5351 5.82923 46.5238 5.79431C46.5156 5.76966 46.5097 5.77384 46.5062 5.80684C46.502 5.8481 46.5017 5.88907 46.5055 5.92974C46.5079 5.95753 46.5136 5.96777 46.5224 5.96047C46.5257 5.95787 46.5291 5.95681 46.5326 5.95729Z" fill="#EC87FF"/>
</svg>
