<svg width="224" height="256" viewBox="0 0 224 256" fill="none" xmlns="http://www.w3.org/2000/svg">
<path d="M12.2953 74.0895L8.73282 74.4398C8.45402 74.469 8.18801 74.572 7.96247 74.7384C7.73692 74.9047 7.56002 75.1282 7.45012 75.3856L5.44863 80.1851C5.20999 80.7268 5.17784 81.2815 5.35217 81.8493C6.77352 86.4459 5.59785 89.7572 1.82509 91.7832C1.40976 92.003 1.0581 92.3259 0.804254 92.7207C0.550402 93.1156 0.402907 93.569 0.376 94.0372C0.349093 94.5053 0.443733 94.9723 0.650721 95.393C0.857709 95.8136 1.17006 96.1737 1.55756 96.4385C13.7009 104.689 24.4711 113.332 33.8682 122.368C37.6703 123.906 40.7182 125.594 43.0118 127.432C49.6044 132.739 56.0305 137.882 62.2901 142.86L85.5367 160.666C89.9259 164.197 94.284 167.774 98.6108 171.396C105.162 176.849 114.738 183.972 122.443 190.723C124.529 192.567 128.144 195.357 133.289 199.094C138.271 202.727 142.661 206.959 146.457 211.788L161.707 225.94C164.426 227.617 166.626 229.473 168.307 231.509C171.528 235.392 175.612 237.371 178.803 241.28C182.652 245.985 186.763 250.376 191.136 254.452C191.426 254.72 191.767 254.928 192.138 255.064C192.509 255.2 192.904 255.261 193.3 255.244C193.695 255.227 194.083 255.133 194.442 254.965C194.8 254.798 195.122 254.562 195.389 254.27L198.69 250.619C199.12 250.149 199.506 250.189 199.847 250.737L202.486 255.142L208.48 254.353C209.086 254.275 209.64 253.957 210.018 253.468L211.829 251.094C212.212 250.588 212.715 250.253 213.336 250.089L220.157 248.235C220.765 248.07 221.33 247.773 221.812 247.366C222.294 246.959 222.68 246.452 222.945 245.88C223.209 245.309 223.345 244.686 223.343 244.057C223.34 243.428 223.2 242.807 222.931 242.238L210.002 214.769L201.411 199.69C188.408 178.52 174.179 158.207 158.724 138.751C155.937 135.251 151.584 131.907 148.651 127.782C148.577 127.683 148.533 127.565 148.522 127.442C148.51 127.319 148.533 127.195 148.588 127.084C148.642 126.973 148.726 126.879 148.83 126.812C148.934 126.745 149.055 126.708 149.179 126.704L159.666 126.295L172.04 126.531C172.623 126.549 173.163 126.4 173.658 126.086L187.756 116.899C188.543 114.237 187.667 111.522 185.128 108.754L182.374 104.822L156.034 75.7717L148.033 66.1527L142.51 59.839L112.702 26.5292L91.2254 1.99608C90.617 0.622146 89.6397 -0.00394668 88.2936 0.117813C76.9795 1.12514 65.6421 1.41432 54.2815 0.985451C46.1661 0.682827 38.1909 1.70581 30.3562 4.05422C29.6719 4.25923 29.324 4.71302 29.3124 5.41575C29.2084 9.64124 27.8636 14.3413 23.973 16.8771C21.3363 18.5912 19.0062 20.9548 16.9828 23.968C16.6661 24.4373 16.5306 25.0056 16.6011 25.5687C16.6717 26.1318 16.9435 26.652 17.3667 27.0338C20.0188 29.3909 22.9678 31.6144 25.3074 34.2565C35.4872 45.7006 45.9311 56.9093 56.639 67.8827C57.2499 68.5195 57.6232 69.0716 57.7588 69.5392C57.8114 69.7219 57.8148 69.9151 57.769 70.0997C57.7232 70.2843 57.6296 70.4538 57.4977 70.5911C57.3657 70.7284 57.2 70.8288 57.017 70.8822C56.8341 70.9356 56.6404 70.9403 56.4552 70.8956C53.3446 70.2061 50.5782 70.4016 48.1559 71.4823C45.2255 72.7829 43.2329 73.4863 42.178 73.5926C37.6564 74.0854 33.7043 74.0781 29.5041 75.3698C27.5263 75.9896 25.634 75.93 23.8271 75.1913C23.1078 74.89 22.3802 74.8609 21.6444 75.104C18.0916 76.2373 14.9752 75.8991 12.2953 74.0895ZM21.8333 23.1124C22.8828 22.0992 23.9443 21.4816 25.018 21.2598C25.6254 21.1365 26.1625 21.2834 26.6294 21.7004C27.1925 22.2024 27.5651 22.8222 27.7473 23.5598C27.9047 24.1566 27.6948 24.5741 27.1177 24.8122C25.1102 25.5994 23.3693 25.4139 21.8949 24.2561C21.4432 23.8965 21.4227 23.5153 21.8333 23.1124ZM61.7773 24.5102L67.6804 24.7764C71.6334 24.7405 75.0133 24.6777 77.82 24.5882C79.9273 24.5296 80.7347 25.4215 81.9608 26.921C95.2284 43.3078 109.98 59.7941 126.217 76.38C127.345 77.5309 128.698 78.2974 130.275 78.6793C130.88 78.8267 131.299 79.1767 131.53 79.7293L134.04 85.6775L143.88 94.2223L149.688 100.498C149.838 100.66 149.941 100.86 149.987 101.076C150.033 101.292 150.019 101.516 149.948 101.725C149.876 101.935 149.75 102.121 149.581 102.264C149.413 102.408 149.209 102.504 148.99 102.541C146.534 102.931 144.16 103.054 141.87 102.909C132.717 102.266 123.726 102.33 114.897 103.099C114.211 103.157 113.641 103.449 113.189 103.973L110.244 107.364C108.188 115.296 108.628 121.606 111.563 126.294C114.883 125.541 117.578 125.518 119.648 126.224C120.219 126.43 120.659 126.793 120.968 127.312C122.642 130.112 124.521 132.759 126.606 135.253C128.803 137.89 130.796 140.433 132.587 142.882C137.693 149.833 142.895 156.729 148.194 163.568C157.553 175.634 167.93 190.414 179.324 207.908C180.45 209.661 180.102 210.042 178.277 209.05C177.205 208.485 175.846 207.414 174.199 205.835C161.646 193.838 148.64 182.293 135.181 171.198L115.569 155.416C93.9727 138.292 72.2993 121.341 50.5486 104.565C46.3798 101.356 41.2926 98.7936 36.7304 95.9827C34.6135 94.6751 34.7946 93.9155 37.2738 93.7036C44.5961 93.0984 51.9801 92.8205 59.4259 92.8701C68.3001 92.9235 78.7841 91.5214 85.4144 86.1456C85.8802 85.7651 86.183 85.2802 86.3229 84.6909C86.91 82.0872 85.4487 79.7659 85.8359 77.8042C86.1406 76.2999 87.0787 75.2607 88.6501 74.6867C88.7887 74.6338 88.9144 74.5518 89.0185 74.4463C89.1227 74.3407 89.2029 74.214 89.2537 74.0749C89.3045 73.9358 89.3248 73.7875 89.3132 73.6399C89.3015 73.4923 89.2582 73.349 89.1862 73.2197L85.8188 67.2398C80.391 63.7365 76.8678 59.8722 75.249 55.6469C73.8165 52.9681 72.054 50.5544 69.9615 48.4057C62.6461 40.8708 55.3573 33.2737 48.0952 25.6142C47.9989 25.5165 47.9339 25.3924 47.9082 25.2577C47.8825 25.123 47.8974 24.9838 47.9509 24.8574C48.0045 24.731 48.0943 24.6232 48.209 24.5476C48.3238 24.472 48.4584 24.4321 48.5958 24.4327L61.7773 24.5102Z" fill="#633598"/>
</svg>
