<svg width="776" height="298" viewBox="0 0 776 298" fill="none" xmlns="http://www.w3.org/2000/svg">
<path d="M572.311 188.422C578.207 184.872 584.102 183.099 589.996 183.105C593.934 182.373 597.378 181.15 600.329 179.434C608.727 177.706 616.275 175.038 622.972 171.428C624.408 170.661 625.101 169.793 625.053 168.822C624.97 167.137 626.609 165.09 629.972 162.678L683.519 147.12C685.543 146.523 685.91 145.82 684.619 145.01C683.514 144.33 681.979 143.979 680.013 143.957C677.376 143.909 677.202 143.54 679.489 142.851C691.808 139.161 703.609 137.175 714.892 136.894C717.389 136.829 719.568 137.108 721.43 137.731L773.324 155.031C774.273 155.347 774.881 155.826 775.02 156.368C775.159 156.91 774.819 157.475 774.071 157.944C767.181 162.159 759.09 163.782 747.008 164.59C731.476 165.619 717.218 168.491 704.235 173.207C685.988 179.813 668.147 186.499 650.712 193.263C645.193 195.424 641.675 197.853 640.156 200.55C638.393 203.697 639.903 203.999 644.689 201.458C654.65 196.137 665.673 192.421 677.758 190.312C679.928 189.946 681.983 189.974 683.924 190.394C704.681 194.787 724.495 200.409 743.364 207.26C743.94 207.468 744.408 207.729 744.742 208.027C745.076 208.324 745.269 208.653 745.311 208.995C745.353 209.336 745.242 209.683 744.985 210.015C744.729 210.348 744.33 210.659 743.814 210.932C733.962 216.188 718.971 219.137 706.205 222.362C703.911 222.933 702.12 223.737 700.832 224.774C696.966 227.846 691.454 230.126 684.294 231.613C682.968 231.878 682.067 231.724 681.592 231.151C681.357 230.925 681.322 230.658 681.485 230.352C681.607 230.108 681.865 229.906 682.259 229.748L696.338 224.639C699.672 223.441 699.345 223.149 695.357 223.764C681.488 225.902 670.407 229.352 662.115 234.114C660.681 234.92 658.9 235.465 656.771 235.75C649.538 236.664 644.18 238.47 640.697 241.165C639.235 242.29 639.883 242.745 642.641 242.529C647.445 242.171 652.134 241.74 656.708 241.235C660.75 240.796 663.634 241.785 665.362 244.203C665.419 244.458 664.306 244.98 662.023 245.769C656.731 246.19 651.725 246.985 647.005 248.152C644.755 248.701 644.079 249.469 644.976 250.458C645.638 251.2 647.125 251.911 649.435 252.59C652.865 252.42 654.692 252.797 654.916 253.719C646.374 257.043 636.891 259.837 626.466 262.103C620.503 263.411 617.33 264.254 616.946 264.631C611.842 269.751 614.618 270.795 625.273 267.763C640.794 263.358 658.098 257.107 677.183 255.683C679.63 255.503 680.5 255.946 679.794 257.014L677.171 260.839C674.218 261.621 674.515 263.563 678.062 266.664C663.74 264.177 652.606 265.206 644.661 269.751C642.842 270.001 641.842 270.537 641.659 271.36C641.397 272.367 642.118 272.5 643.822 271.76C644.39 271.493 645.097 271.359 645.946 271.356C647.106 271.338 647.384 271.553 646.781 272C638.648 278.164 626.494 282.929 610.319 286.293C591.824 290.161 584.885 288.002 566.958 284.392C553.471 281.644 541.472 278.297 530.962 274.349C529.74 273.885 528.285 273.553 526.694 273.375C525.103 273.197 523.412 273.177 521.735 273.316L490.525 276.027C488.214 276.241 486.13 276.086 484.273 275.562C476.395 273.371 468.203 271.602 459.698 270.256C452.001 269.029 444.398 267.429 436.889 265.458C429.334 263.489 420.978 262.006 411.82 261.01C409.711 260.797 407.617 260.891 405.538 261.292C394.062 263.53 377.011 265.448 370.252 260.152C369.553 259.606 368.565 259.151 367.366 258.823C366.166 258.495 364.788 258.304 363.34 258.263C361.891 258.222 360.41 258.334 359.015 258.589C357.619 258.844 356.346 259.235 355.295 259.732C333.834 269.954 312.274 279.068 290.613 287.075C279.367 291.239 244.855 300.31 230.981 296.052C225.132 294.257 221.96 293.312 221.464 293.217C206.714 290.214 191.851 287.177 176.875 284.106C175.632 283.849 174.585 283.446 173.833 282.936C173.081 282.425 172.649 281.825 172.577 281.191C172.221 277.613 174.3 274.054 178.812 270.513C199.742 254.08 229.381 234.99 267.729 213.244C271.638 211.044 276.302 210.087 281.719 210.375C282.713 210.426 283.74 210.368 284.712 210.206C285.684 210.043 286.571 209.782 287.298 209.442C289.829 208.244 291.64 206.963 292.733 205.597C293.785 204.294 293.037 204.063 290.489 204.904C286.007 206.378 280.726 207.464 274.643 208.163C272.076 208.446 269.689 209.04 267.763 209.875C224.043 229.087 188.034 248.483 138.691 267.765C120.558 274.862 105.416 270.697 87.2854 268.408C74.7493 266.825 61.7774 263.208 47.5888 262.064C46.7234 261.997 45.9232 261.839 45.2484 261.603C44.5737 261.367 44.0424 261.059 43.6953 260.703C43.3482 260.346 43.1941 259.951 43.2451 259.547C43.2962 259.142 43.5512 258.739 43.99 258.369C61.0955 244.053 81.4278 231.335 104.988 220.214C109.96 217.842 113.761 215.26 116.391 212.468C119.102 209.512 122.028 206.378 125.167 203.064C125.973 202.214 127.458 201.508 129.311 201.094C131.163 200.68 133.239 200.59 135.104 200.843C137.757 201.227 140.247 201.014 142.573 200.204C147.905 198.33 148.35 195.15 152.703 193.772C158.988 191.772 164.929 189.57 170.526 187.167C172.187 186.449 174.129 186.005 176.353 185.835C180.712 185.48 184.533 184.655 187.817 183.36C189.569 182.657 190.71 181.816 191.242 180.836C193.685 176.066 199.62 172.395 209.047 169.822C211.073 169.265 211.311 168.647 209.759 167.969C208.252 167.289 206.851 166.961 205.558 166.986C204.654 166.998 203.782 166.898 203.04 166.696C202.299 166.494 201.716 166.199 201.357 165.842C200.999 165.486 200.879 165.083 201.012 164.678C201.144 164.274 201.522 163.884 202.106 163.552C207.841 160.347 214.083 157.932 220.834 156.306C222.953 155.803 224.501 155.061 225.479 154.079C229.018 150.705 234.071 147.723 240.641 145.133C240.703 145.107 240.753 145.076 240.789 145.042C240.826 145.008 240.847 144.972 240.851 144.935C240.856 144.899 240.844 144.863 240.816 144.83C240.788 144.797 240.744 144.768 240.688 144.743L239.589 144.172C238.856 143.811 238.052 143.801 237.176 144.143C193.899 161.029 161.27 173.413 139.291 181.297C131.351 184.154 122.361 186.09 112.32 187.105C104.279 187.921 95.2813 187.463 85.3276 185.732C68.9348 182.91 51.8579 179.794 34.0963 176.385C31.4206 177.352 29.5082 177.059 28.3596 175.507C27.8362 174.858 27.7969 174.065 28.2417 173.129C29.571 170.223 30.6783 167.794 31.5638 165.843L66.2354 145.143C68.7064 143.65 68.2049 142.543 64.731 141.821L32.1149 135.096L2.27927 125.015C0.554269 124.446 -0.06472 123.662 0.421611 122.664C3.24953 116.664 9.19503 110.956 18.2584 105.541C19.7466 104.66 20.5446 103.599 20.5166 102.541C20.4885 101.483 19.6362 100.492 18.1046 99.7382L10.2772 95.8656C8.53656 95.0071 7.68214 93.846 7.89744 92.6318C8.11275 91.4176 9.38039 90.2474 11.4284 89.3726C18.2936 86.4497 22.4219 84.1592 23.8131 82.5011C62.7018 62.6547 104.717 45.0767 149.859 29.767C158.729 26.7645 167.317 23.4781 175.624 19.9077C197.923 10.3693 224.12 -1.59719 249.718 12.18C257.515 16.3421 266.248 20.0108 275.916 23.1862C277.734 23.7792 279.032 24.6314 279.623 25.6198C280.214 26.6081 280.066 27.6813 279.202 28.6844C275.409 33.2228 268.128 37.2191 257.36 40.6732C229.013 49.7866 202.216 58.6741 176.972 67.3356C175.26 67.937 173.336 68.2906 171.198 68.3967C167.323 68.6087 164.481 69.3656 162.67 70.6671C161.249 71.711 161.799 72.0114 164.323 71.5684C181.917 68.4609 198.056 67.0644 213.426 62.3093C250.497 50.8364 287.615 39.391 324.778 27.9731C355.718 18.4531 388.781 9.90024 420.766 1.19243C422.749 0.657072 424.645 0.632554 426.455 1.11882C447.404 6.67451 466.146 13.6408 482.68 22.0176C483.101 22.23 483.394 22.4886 483.536 22.7722C483.677 23.0559 483.663 23.3566 483.495 23.6497C483.327 23.9428 483.009 24.2201 482.567 24.4588C482.126 24.6976 481.573 24.8909 480.954 25.0232C476.714 25.9685 473.547 27.387 471.453 29.2787C470.298 30.2894 470.892 30.5678 473.236 30.1139C486.965 27.377 498.902 24.997 512.379 21.2297C536.513 14.4905 561.723 9.18777 588.009 5.32141C589.037 5.17654 590.098 5.12568 591.127 5.17212C592.155 5.21856 593.128 5.3613 593.984 5.59119C613.902 11.0788 631.84 17.1513 647.798 23.8087C650.398 24.9113 650.459 26.1399 647.981 27.4944C623.008 41.1879 599.081 51.6413 565.778 63.4835C533.307 74.9864 500.712 87.1411 467.994 99.9475C463.964 101.518 460.889 104.342 458.769 108.42C458.239 109.44 456.868 110.153 454.656 110.561C449.345 111.52 444.826 112.677 441.098 114.034C378.995 136.661 335.217 153.8 309.763 165.452C289.897 174.522 271.132 183.289 253.468 191.753C252.901 192.02 252.87 192.279 253.373 192.533L253.441 192.559C253.945 192.812 254.548 192.822 255.251 192.588C279.334 183.915 303.635 172.877 324.077 165.069C356.155 152.841 387.69 140.461 421.299 129.408C457.457 117.523 493.917 105.862 530.677 94.4247C547.827 89.1045 562.243 82.6687 578.621 76.642C585.11 74.2344 591.95 71.273 599.143 67.7578C608.037 63.4134 616.088 59.6471 627.588 56.544C638.692 53.5698 648.907 50.2027 658.231 46.4427C669.481 41.9119 681.382 41.4903 693.933 45.1782C706.757 48.9519 719.607 53.7175 732.484 59.475C733.121 59.754 733.613 60.0935 733.93 60.4733C734.247 60.853 734.382 61.2652 734.328 61.6851C734.274 62.105 734.031 62.524 733.615 62.9171C733.198 63.3103 732.616 63.6694 731.903 63.9732C714.713 71.1823 696.657 78.4842 677.735 85.8786C669.061 89.2586 656.329 91.8269 647.243 96.3299C645.675 97.1228 645.71 97.8361 647.349 98.47C652.768 100.605 659.975 102.76 668.968 104.936C679.994 107.567 692.53 111.852 706.577 117.79C708.128 118.448 708.027 119.118 706.275 119.801C653.402 140.837 580.86 164.995 519.818 192.813C511.37 196.689 501.972 197.602 492.781 201.335C492.325 201.519 491.952 201.737 491.687 201.976C491.422 202.215 491.27 202.469 491.242 202.723L490.915 204.229C490.708 205.451 491.77 205.706 494.101 204.994L511.589 199.747C512.384 199.512 513.281 199.365 514.197 199.32C515.113 199.275 516.019 199.332 516.833 199.488C517.647 199.643 518.342 199.891 518.856 200.209C519.369 200.527 519.683 200.904 519.771 201.308C520.121 202.979 518.65 204.363 515.355 205.46C509.557 207.386 500.807 206.509 493.014 208.743C491.078 209.316 489.754 210.087 489.043 211.056C484.081 217.678 471.186 219.659 463.117 223.068C454.412 226.718 445.295 230.14 435.764 233.334C435.543 233.385 435.502 233.456 435.641 233.549L436.542 234.159C437.142 234.567 437.949 234.636 438.963 234.367C461.581 228.557 481.241 221.176 497.942 212.223C500.639 210.778 505.998 209.907 514.021 209.608C516.204 209.519 518.264 209.199 520.202 208.646C539.753 203.127 557.122 196.386 572.311 188.422ZM335.145 29.038C332.097 29.7057 329.356 30.7057 326.922 32.0382C324.877 33.113 325.268 33.3518 328.096 32.7547C331.365 32.0364 334.221 31.11 336.665 29.9757C340.244 28.3084 339.737 27.9958 335.145 29.038ZM315.065 35.7844C314.774 35.4821 313.649 35.3815 311.938 35.5051C310.226 35.6287 308.068 35.9662 305.939 36.4433C303.81 36.9204 301.884 37.4981 300.584 38.0493C299.284 38.6005 298.718 39.0799 299.009 39.3823C299.3 39.6846 300.425 39.7851 302.137 39.6616C303.848 39.538 306.006 39.2005 308.135 38.7234C310.265 38.2463 312.191 37.6685 313.491 37.1174C314.79 36.5662 315.357 36.0868 315.065 35.7844ZM466.458 37.8294C466.081 37.4783 463.78 37.6154 460.062 38.2107C456.345 38.806 451.515 39.8106 446.634 41.0036C444.218 41.5943 441.862 42.2136 439.7 42.826C437.539 43.4383 435.615 44.0319 434.038 44.5725C432.461 45.1132 431.263 45.5906 430.511 45.9773C429.759 46.364 429.468 46.6524 429.655 46.8263C430.032 47.1774 432.333 47.0402 436.05 46.4449C439.768 45.8496 444.598 44.8451 449.478 43.6521C451.895 43.0613 454.252 42.442 456.413 41.8296C458.574 41.2173 460.498 40.6238 462.075 40.0831C463.651 39.5424 464.85 39.0651 465.602 38.6784C466.354 38.2917 466.645 38.0032 466.458 37.8294ZM464.747 46.6546C445.226 47.3846 429.735 51.9371 418.273 60.3122C417.154 61.1424 415.622 61.7646 413.678 62.1789C397.599 65.6978 382.717 70.3691 369.03 76.1928C368.702 76.3362 368.503 76.5269 368.475 76.7235C368.447 76.92 368.593 77.1067 368.881 77.2431L370.937 78.184C372.674 78.9917 374.299 78.8912 375.812 77.8826C383.935 72.4143 396.466 68.0483 413.405 64.7847C424.152 62.7022 434.816 58.9552 444.569 55.7302C454.914 52.2971 469.29 50.4815 479.012 46.6323C486.061 43.8195 485.102 42.9434 476.136 44.0039C474.049 44.2465 472.263 44.7025 470.778 45.3721C469.134 46.1057 466.984 46.5629 464.747 46.6546ZM234.942 59.9608C234.232 60.0358 233.613 60.1658 233.086 60.3509C231.68 60.7981 231.59 61.2395 232.817 61.6753C233.499 61.9195 234.244 62.0911 235.053 62.19C236.581 62.3923 237.981 62.2534 239.252 61.7732C241.663 60.8788 243.796 59.7798 245.652 58.4761C247.335 57.3001 246.762 57.0008 243.933 57.5781C241.237 58.1488 238.749 58.8384 236.467 59.6469C236.029 59.8077 235.52 59.9123 234.942 59.9608ZM208.178 69.9206C207.984 69.8222 207.672 69.7733 207.258 69.7768C206.845 69.7802 206.338 69.836 205.768 69.9408C205.198 70.0456 204.575 70.1975 203.935 70.3878C203.295 70.5781 202.65 70.803 202.038 71.0497C201.425 71.2964 200.857 71.5601 200.366 71.8257C199.874 72.0913 199.469 72.3537 199.173 72.5978C198.877 72.8418 198.696 73.0629 198.641 73.2483C198.586 73.4336 198.657 73.5797 198.851 73.6781C199.045 73.7766 199.358 73.8254 199.772 73.822C200.185 73.8185 200.692 73.7628 201.262 73.6579C201.832 73.5531 202.455 73.4012 203.095 73.2109C203.735 73.0207 204.38 72.7958 204.992 72.549C205.605 72.3023 206.173 72.0387 206.664 71.773C207.156 71.5074 207.562 71.245 207.857 71.001C208.153 70.7569 208.334 70.5358 208.389 70.3505C208.444 70.1651 208.372 70.019 208.178 69.9206ZM162.126 85.3537C167.908 83.0805 174.127 81.0836 180.784 79.3629C183.165 78.7681 184.19 77.8332 183.859 76.5585C183.579 75.4202 182.592 75.3203 180.897 76.2585C174.941 79.4938 167.623 82.2901 158.943 84.6475C158.922 84.6574 158.906 84.6683 158.895 84.6791C158.884 84.69 158.879 84.7007 158.88 84.7103L159.846 85.288C160.49 85.6732 161.25 85.6951 162.126 85.3537ZM193.237 85.9993C193.106 85.9213 192.94 85.8569 192.747 85.81C192.554 85.7631 192.34 85.7346 192.115 85.726C191.89 85.7174 191.66 85.7289 191.437 85.7599C191.214 85.7909 191.004 85.8407 190.817 85.9066L109.971 114.415C109.594 114.548 109.337 114.739 109.258 114.944C109.178 115.149 109.283 115.353 109.547 115.511L110.468 116.06C110.6 116.138 110.766 116.202 110.959 116.249C111.151 116.296 111.366 116.324 111.591 116.333C111.816 116.342 112.046 116.33 112.269 116.299C112.491 116.268 112.702 116.218 112.889 116.152L193.735 87.6435C194.112 87.5105 194.368 87.3203 194.448 87.1149C194.527 86.9095 194.423 86.7056 194.159 86.548L193.237 85.9993ZM356.419 79.3874C356.032 79.1668 355.167 79.136 354.013 79.3018C352.859 79.4676 351.512 79.8165 350.267 80.2715C349.65 80.4969 349.078 80.7416 348.581 80.9916C348.085 81.2417 347.675 81.4921 347.375 81.7287C347.075 81.9654 346.89 82.1834 346.831 82.3706C346.772 82.5578 346.84 82.7103 347.032 82.8195C347.419 83.0401 348.285 83.0708 349.439 82.905C350.593 82.7392 351.94 82.3905 353.185 81.9354C353.802 81.71 354.374 81.4653 354.87 81.2153C355.367 80.9652 355.777 80.7148 356.077 80.4782C356.377 80.2416 356.562 80.0234 356.621 79.8362C356.68 79.6491 356.611 79.4966 356.419 79.3874ZM267.742 110.894C263.451 111.703 260.595 113.086 259.174 115.043C257.875 116.757 258.734 116.982 261.753 115.72L275.861 109.836C278.266 108.823 277.964 108.579 274.954 109.106C272.565 109.552 270.064 110.451 267.742 110.894ZM242.74 120.096C242.517 119.974 242.239 119.875 241.922 119.804C241.604 119.734 241.252 119.693 240.887 119.685C240.522 119.677 240.15 119.701 239.793 119.757C239.437 119.812 239.102 119.898 238.808 120.009L200.413 134.462C199.819 134.686 199.428 134.998 199.325 135.331C199.222 135.664 199.417 135.989 199.865 136.236L200.026 136.325C200.248 136.447 200.526 136.547 200.844 136.617C201.162 136.688 201.514 136.728 201.879 136.737C202.244 136.745 202.615 136.72 202.972 136.665C203.329 136.609 203.664 136.524 203.958 136.413L242.353 121.959C242.947 121.736 243.338 121.423 243.441 121.09C243.543 120.758 243.349 120.432 242.901 120.185L242.74 120.096ZM419.973 137.787L422.147 137.053C425.31 136.002 425.051 135.737 421.371 136.257C413.48 137.404 406.974 139.465 401.853 142.44C400.42 143.266 398.711 143.917 396.725 144.393C373.198 149.87 352 156.841 333.131 165.306C323.368 169.663 320.164 175.305 308.405 178.57C308.165 178.634 307.954 178.719 307.787 178.82C307.619 178.92 307.499 179.034 307.435 179.153C307.371 179.273 307.364 179.394 307.415 179.51C307.466 179.626 307.574 179.733 307.73 179.825L308.903 180.512C309.453 180.802 310.056 180.812 310.713 180.541C343.143 167.312 371.204 156.475 394.896 148.029C407.05 143.712 415.103 140.422 419.054 138.16C419.314 138.028 419.623 137.903 419.973 137.787ZM306.724 197.335C306.428 197.668 306.154 197.999 305.902 198.329C305.068 199.523 305.91 199.829 308.426 199.247C310.721 198.716 312.62 197.837 314.122 196.611C314.48 196.309 314.657 195.976 314.632 195.648C314.607 195.32 314.382 195.01 313.981 194.752C313.58 194.494 313.019 194.299 312.361 194.188C311.702 194.077 310.971 194.053 310.248 194.121C308.381 194.293 307.368 195.029 307.209 196.328C307.182 196.687 307.021 197.022 306.724 197.335ZM289.43 265.919C297.006 260.22 306.013 255.016 316.451 250.307C316.844 250.128 317.146 249.925 317.358 249.696C317.734 249.18 316.974 248.711 315.078 248.289C314.431 248.141 313.661 248.113 312.921 248.211C312.181 248.308 311.526 248.524 311.085 248.815L285.963 264.899C285.531 265.179 285.61 265.414 286.2 265.603L287.965 266.081C288.082 266.113 288.213 266.134 288.351 266.143C288.489 266.152 288.63 266.149 288.766 266.134C288.903 266.119 289.032 266.092 289.146 266.055C289.26 266.018 289.357 265.972 289.43 265.919Z" fill="#D269E6"/>
</svg>
