<svg width="228" height="294" viewBox="0 0 228 294" fill="none" xmlns="http://www.w3.org/2000/svg">
<path fill-rule="evenodd" clip-rule="evenodd" d="M119.541 6.60194C120.934 6.12109 122.229 5.86595 123.711 6.08184C135.716 7.84824 146.828 11.7474 157.047 17.7793C166.991 23.6477 176.409 30.1899 185.3 37.406C190.01 41.2332 196.997 49.5058 193.808 55.9728C192.349 58.9429 190.497 61.9196 188.253 64.9029C184.884 69.4104 181.502 73.6923 178.107 77.7485C163.105 95.6611 145.392 115.311 124.967 136.697C113.656 148.539 100.254 163.134 84.7622 180.484C81.2098 184.459 77.3826 188.256 73.5358 191.897C72.646 192.734 71.6058 193.418 70.4152 193.948C69.6041 194.308 68.9983 194.884 68.4041 195.448C67.7187 196.1 67.0488 196.736 66.0973 197.01C63.7912 197.677 59.7285 195.557 57.7462 194.282C51.5343 190.297 44.8613 186.971 37.6976 185.518C33.5302 184.668 29.4969 183.526 25.5977 182.094C25.4701 182.046 25.3539 181.972 25.2564 181.876C25.1589 181.781 25.0824 181.667 25.0316 181.54C24.9808 181.414 24.9569 181.278 24.9615 181.142C24.966 181.006 24.9989 180.872 25.058 180.749C26.0001 178.786 27.2595 177.076 28.8361 175.617C29.5362 174.976 30.0988 174.249 30.524 173.438C35.5354 163.834 40.3373 153.815 44.93 143.38C47.3378 137.904 49.8262 132.423 52.3193 126.931L52.3194 126.931L52.3195 126.931L52.3196 126.93C55.7907 119.285 59.2708 111.619 62.5547 103.921C74.4617 75.9846 87.4382 50.2069 101.891 21.4973L101.891 21.497L102.093 21.0962C105.409 14.5017 109.109 8.13283 113.123 1.89156C114.928 -0.915053 118.285 -0.0809263 120.728 1.09667C120.818 1.14064 120.898 1.20322 120.961 1.28014C121.025 1.35706 121.072 1.44653 121.098 1.54245C121.124 1.63836 121.129 1.73848 121.112 1.83598C121.096 1.93348 121.059 2.02606 121.003 2.10744L118.707 5.52248C118.621 5.6475 118.577 5.79658 118.581 5.94824C118.585 6.0999 118.637 6.24631 118.73 6.36637C118.823 6.48642 118.951 6.57392 119.097 6.61626C119.243 6.6586 119.398 6.65358 119.541 6.60194ZM115.409 15.6793L114.114 15.169C113.939 15.0963 113.743 15.0945 113.566 15.164C113.389 15.2334 113.244 15.3687 113.162 15.5419C105.691 31.446 98.8018 45.9893 92.4951 59.1719C79.9733 85.3735 68.1156 111.627 56.9218 137.934C51.8974 149.759 46.8632 160.436 41.4462 171.505C40.4387 173.559 39.271 175.489 37.9429 177.295C37.8705 177.393 37.8246 177.508 37.8096 177.628C37.7947 177.749 37.8112 177.872 37.8577 177.984C37.9041 178.097 37.9787 178.196 38.0745 178.271C38.1702 178.346 38.2838 178.395 38.4041 178.414C41.793 178.937 45.0118 179.689 48.0604 180.671C48.4202 180.788 48.767 180.759 49.1006 180.582C53.3697 178.308 57.8042 176.596 62.2597 174.876C64.2259 174.117 66.1961 173.356 68.1581 172.545C68.2388 172.512 68.308 172.457 68.3571 172.385C68.4061 172.313 68.4329 172.228 68.4339 172.141C68.435 172.054 68.4103 171.969 68.3629 171.896C68.3156 171.823 68.2478 171.765 68.1679 171.731C67.7427 171.547 67.2847 171.476 66.794 171.515C61.7762 171.888 56.7387 172.447 51.6815 173.193C50.9812 173.3 50.266 173.139 49.6796 172.741C47.0954 171.014 46.9875 169.104 49.3558 167.01C49.7042 166.701 50.1178 166.479 50.5628 166.363C59.2247 164.132 67.7492 161.773 76.1363 159.287C80.3888 158.025 84.4809 156.441 88.4128 154.538C89.3614 154.073 89.3091 153.848 88.2558 153.861C85.7788 153.886 83.3044 154.165 80.8395 154.442C78.5487 154.7 76.266 154.957 73.997 155.009C70.7194 155.094 67.4254 155.352 64.115 155.784C63.7421 155.83 63.4052 155.741 63.1042 155.519C60.7392 153.812 60.435 151.064 63.0061 149.386C63.9874 148.745 65.0048 148.215 66.058 147.796C74.5302 144.433 83.9935 141.031 94.448 137.59C94.5134 137.57 94.569 137.538 94.6148 137.492C94.7129 137.381 94.677 137.253 94.5069 137.109C94.3106 136.939 94.0816 136.861 93.8199 136.874C91.2292 136.998 88.5404 137.204 85.7534 137.492C82.6197 137.813 78.956 137.701 74.7625 137.158C70.1502 136.57 70.5133 131.349 74.2522 129.916C83.5945 126.331 93.1592 123.187 102.946 120.486C103.975 120.208 104.88 119.806 105.78 119.406C106.598 119.043 107.413 118.681 108.314 118.415C109.387 118.101 109.368 118.013 108.255 118.15C104.18 118.628 99.8453 118.876 95.2527 118.896C92.7307 118.906 86.7053 116.884 90.2282 113.233C91.3928 112.03 92.6423 111.251 93.9769 110.898C98.4225 109.727 102.961 108.413 107.487 107.103L107.487 107.103C114.149 105.174 120.783 103.254 127.048 101.811C127.578 101.686 127.584 101.543 127.067 101.379C126.119 101.071 125.187 100.964 124.271 101.055C118.062 101.683 111.526 101.981 104.664 101.948C102.472 101.935 100.431 101.444 98.5401 100.476C98.182 100.293 97.8938 99.9977 97.7201 99.6359C97.5463 99.2742 97.4965 98.866 97.5784 98.4742C97.9775 96.577 99.214 95.3209 101.288 94.7059C110.545 91.9647 119.099 89.8941 126.95 88.4941C130.936 87.776 134.922 86.7777 138.933 85.7734L138.933 85.7733L138.933 85.7733L138.933 85.7733C141.883 85.0345 144.846 84.2924 147.832 83.6561C152.968 82.557 158.378 80.9902 164.064 78.9555C165.909 78.3013 165.856 77.8728 163.907 77.67C157.384 76.9896 150.861 76.7704 144.339 77.0125C134.081 77.3985 122.455 78.1966 109.462 79.407C107.114 79.6228 104.762 79.3448 102.407 78.5728C102.047 78.4551 101.844 78.2097 101.798 77.8368C101.406 74.4414 104.585 73.2344 107.137 72.4493C112.429 70.8138 117.807 69.139 123.27 67.4249C133.253 64.2912 142.586 61.3276 151.267 58.534C156.684 56.7938 163.285 53.925 171.07 49.9277C172.765 49.0576 174.253 49.3291 175.535 50.7423C175.777 51.017 175.941 51.3245 176.026 51.6647C176.412 53.1694 175.967 54.3666 174.691 55.2564C172.676 56.6564 169.867 58.0892 166.262 59.5546C154.244 64.4351 143.266 68.2067 133.328 70.8694C132.812 71.0076 132.275 71.1293 131.736 71.2515C130.669 71.4935 129.593 71.7374 128.647 72.1157C128 72.3708 128.023 72.5016 128.716 72.5082C132.504 72.5736 136.109 72.4657 139.53 72.1843C147.617 71.5236 157.757 71.8278 169.952 73.097C170.923 73.2049 171.669 72.9302 172.297 72.1942C176.294 67.4969 180.115 62.7865 183.759 58.063C185.002 56.4536 186.059 54.7788 186.929 53.0386C189.362 48.1417 176.487 38.8878 172.807 36.2676C166.017 31.4264 159.389 27.0922 152.926 23.265C144.224 18.1162 134.189 14.5573 122.818 12.5881C120.345 12.1563 118.343 13.1376 116.95 15.1984C116.57 15.7741 116.057 15.9344 115.409 15.6793ZM126.989 112.066C129.069 113.214 129.746 116.011 127.352 117.355C123.172 119.704 119.007 121.63 114.86 123.135C108.455 125.458 101.559 127.679 94.1732 129.798C91.6479 130.525 91.697 130.845 94.3204 130.76C95.7257 130.715 97.1658 130.62 98.6197 130.523C102.567 130.262 106.616 129.994 110.346 130.711C113.26 131.27 112.966 134.931 111.091 136.393C110.274 137.034 109.384 137.623 108.422 138.159C102.632 141.378 96.5153 144.021 90.0712 146.088C86.3291 147.286 86.4109 147.685 90.3166 147.286C94.0914 146.906 98.092 146.949 102.318 147.413C102.645 147.449 102.976 147.406 103.282 147.286C103.588 147.167 103.86 146.974 104.075 146.726C106.253 144.227 108.455 141.81 110.679 139.474C128.585 120.718 144.578 103.548 158.657 87.9642C159.363 87.1791 159.206 86.9141 158.185 87.1693C151.571 88.8376 144.758 90.5124 137.744 92.1937C135.416 92.7543 133.072 93.2245 130.739 93.6925L130.739 93.6926L130.739 93.6926C127.477 94.3468 124.238 94.9968 121.091 95.8835C121.019 95.9031 120.99 95.9489 121.003 96.0209V96.0307C121.022 96.1288 121.081 96.1746 121.179 96.1681C128.238 95.6905 135.559 95.7232 143.142 96.2662C147.479 96.5803 147.273 100.996 143.662 102.537C138.264 104.833 132.651 106.688 126.832 107.974C122.723 108.876 118.772 110.018 114.977 111.398C114.297 111.647 114.32 111.758 115.046 111.732C117.905 111.647 120.905 111.552 124.045 111.447C125.196 111.408 126.178 111.614 126.989 112.066ZM82.4659 164.95L84.7622 166.667C84.8869 166.758 85.0391 166.802 85.193 166.793C85.3468 166.784 85.4928 166.722 85.6062 166.618C86.8557 165.447 88.0366 164.266 89.1488 163.075C90.9806 161.106 90.7124 160.756 88.3441 162.025C86.4927 163.02 84.5561 163.844 82.5346 164.498C82.214 164.603 82.1911 164.753 82.4659 164.95ZM56.9905 184.606C56.9402 184.63 56.8973 184.667 56.8667 184.713C56.836 184.76 56.8187 184.814 56.8167 184.87C56.8147 184.925 56.828 184.98 56.8552 185.029C56.8824 185.078 56.9224 185.118 56.9709 185.145L64.4977 189.247C64.5564 189.279 64.6236 189.29 64.6892 189.279C64.7548 189.268 64.815 189.237 64.8608 189.189L78.1088 175.244C78.1592 175.193 78.1902 175.127 78.1963 175.055C78.2025 174.984 78.1834 174.913 78.1424 174.855C78.1015 174.796 78.0413 174.754 77.9723 174.735C77.9034 174.717 77.8301 174.723 77.7653 174.753L56.9905 184.606ZM167.861 190.877C169.482 190.766 171.077 190.721 172.675 190.675H172.675C174.899 190.611 177.128 190.548 179.441 190.308C181.306 190.117 183.182 190.17 185.056 190.224C186.741 190.272 188.425 190.32 190.098 190.19C192.239 190.019 194.387 190.047 196.536 190.076H196.537C198.713 190.104 200.89 190.132 203.062 189.955C206.457 189.673 209.973 189.5 213.611 189.434C217.32 189.366 218.822 191.201 217.664 194.881C217.554 195.231 217.332 195.535 217.032 195.746C216.733 195.957 216.372 196.063 216.005 196.049C215.467 196.023 214.963 195.902 214.461 195.782L214.461 195.782C213.802 195.624 213.148 195.467 212.423 195.529C207.85 195.921 203.336 196.284 198.793 196.314C188.816 196.366 178.734 196.441 168.548 196.539C167.999 196.539 167.933 196.719 168.352 197.079C169.307 197.897 170.367 198.495 171.531 198.875C174.965 199.984 178.279 201.166 181.576 202.342L181.576 202.342L181.577 202.342L181.577 202.342L181.578 202.343L181.579 202.343C184.876 203.519 188.155 204.689 191.521 205.774C194.786 206.82 198.063 207.929 201.354 209.1C201.672 209.213 201.952 209.41 202.167 209.669C202.381 209.928 202.521 210.241 202.571 210.572C202.983 213.163 201.02 214.439 198.763 214.36C184.959 213.863 171.155 214.072 157.351 214.988C156.566 215.041 156.524 215.247 157.224 215.607C158.82 216.424 160.478 217.056 162.199 217.501C166.595 218.639 170.969 219.748 175.319 220.827C176.831 221.2 178.685 222.672 178.283 224.439C177.956 225.891 177.073 226.692 175.633 226.843C173.291 227.091 170.867 227.039 168.362 226.686C163.448 225.992 158.725 225.744 154.191 225.94C154.131 225.942 154.074 225.966 154.029 226.007C153.984 226.048 153.955 226.104 153.946 226.166L153.916 226.421C153.903 226.48 153.92 226.509 153.966 226.509C156.772 226.833 166.281 229.434 161.836 233.869C160.828 234.877 159.562 235.407 158.038 235.459C154.486 235.59 150.613 235.622 146.419 235.557C145.536 235.544 145.5 235.708 146.311 236.048C147.914 236.728 149.507 237.294 151.09 237.745C151.392 237.833 151.645 238.034 151.797 238.305L152.67 239.895C152.853 240.222 153.112 240.3 153.445 240.13C164.142 234.726 174.515 229.613 184.563 224.792C191.976 221.239 200.912 216.604 211.373 210.886C217.585 207.491 221.569 203.144 220.657 195.607C219.607 186.863 215.544 178.63 210.902 171.025C209.931 169.425 208.645 167.472 206.545 167.423C205.688 167.41 204.861 167.26 204.062 166.972C201.992 166.226 201.953 163.576 203.425 162.252C208.557 157.62 214.523 163.046 217.31 167.698C222.433 176.255 225.995 183.88 227.762 193.556C228.665 198.561 226.859 202.869 224.621 207.442C221.564 213.687 216.038 216.642 210.291 219.715C209.545 220.114 208.795 220.515 208.047 220.925C200.392 225.126 191.878 229.388 182.503 233.712C166.088 241.301 143.403 253.074 114.447 269.03C113.06 269.796 111.579 270.084 110.002 269.894C109.583 269.842 109.263 269.635 109.04 269.276C108.098 267.715 107.902 265.144 109.668 263.967C113.273 261.572 117.018 259.354 120.904 257.313C121.349 257.078 121.398 256.78 121.052 256.42C119.285 254.595 117.529 252.436 116.282 250.228C113.888 245.989 111.268 242.031 108.422 238.354C108.141 237.987 108.016 237.575 108.049 237.117L108.128 235.763C108.147 235.39 107.987 235.279 107.647 235.43C105.638 236.339 103.734 236.81 101.935 236.843C101.769 236.846 101.605 236.808 101.457 236.732C101.31 236.656 101.184 236.543 101.091 236.406C100.998 236.268 100.942 236.109 100.926 235.943C100.911 235.778 100.937 235.611 101.003 235.459C101.801 233.607 102.812 232.1 104.035 230.935C114.307 221.154 124.584 212.545 134.869 205.106C143.047 199.186 151.152 193.193 159.186 187.128C162.93 184.303 166.57 181.181 170.217 178.053C174.551 174.336 178.894 170.61 183.435 167.364C187.007 164.813 191.25 163.138 196.163 162.34C196.439 162.297 196.721 162.32 196.986 162.407C197.25 162.494 197.489 162.643 197.684 162.84C198.381 163.547 198.341 164.626 197.723 165.372C195.64 167.873 192.957 169.442 190.27 171.013C188.034 172.321 185.795 173.63 183.896 175.48C178.865 180.387 173.432 185.303 167.596 190.229C167.027 190.713 167.115 190.929 167.861 190.877ZM128.313 233.457C128.261 231.998 128.768 230.945 129.835 230.297C132.456 228.707 135.798 228.795 138.994 228.879C140.513 228.919 141.998 228.958 143.357 228.815C143.92 228.756 143.969 228.563 143.505 228.236C141.424 226.794 139.02 225.008 140.727 222.064C141.218 221.22 141.983 220.667 143.024 220.405C145.883 219.692 148.385 219.375 150.531 219.453C151.643 219.499 151.78 219.159 150.943 218.433C150.869 218.369 150.794 218.306 150.719 218.244C150.64 218.178 150.561 218.113 150.482 218.048C149.603 217.322 148.761 216.628 148.46 215.45C147.253 210.592 153.769 209.179 157.086 208.963C160.959 208.727 164.809 208.479 168.636 208.217C171.248 208.038 173.839 208.066 176.424 208.094C178.52 208.116 180.612 208.138 182.709 208.05C183.088 208.037 183.108 207.952 182.768 207.795C179.601 206.343 176.186 205.106 172.523 204.086C167.783 202.781 163.043 200.7 161.011 195.921C160.861 195.561 160.635 195.502 160.334 195.744C153.616 201.116 147.279 205.829 141.326 209.885C135.533 213.833 130.043 218.39 124.6 222.908L124.6 222.908L124.599 222.909L124.599 222.909C122.574 224.59 120.555 226.266 118.53 227.903C115.808 230.101 112.808 232.165 109.531 234.095C109.001 234.409 109.043 234.533 109.658 234.468C112.318 234.193 114.545 235.528 116.135 237.579C117.856 239.79 119.488 242.044 121.032 244.34C121.654 245.262 122.504 245.576 123.583 245.282C123.658 245.26 123.727 245.222 123.784 245.171C123.842 245.119 123.887 245.056 123.916 244.985C123.946 244.914 123.958 244.837 123.953 244.761C123.948 244.685 123.926 244.612 123.888 244.546C123.659 244.14 123.4 243.764 123.112 243.418C121.68 241.661 122.308 239.159 124.153 238.109C125.711 237.224 127.598 237.238 129.38 237.252L129.385 237.252C129.599 237.253 129.811 237.255 130.021 237.255C130.616 237.255 130.724 237.023 130.345 236.558C130.138 236.309 129.908 236.076 129.68 235.845C129.009 235.165 128.35 234.497 128.313 233.457ZM129.246 252.55C129.224 252.38 129.08 252.233 128.848 252.14C128.615 252.048 128.312 252.019 128.004 252.059C127.852 252.078 127.704 252.115 127.568 252.165C127.431 252.216 127.31 252.28 127.21 252.353C127.11 252.427 127.034 252.509 126.986 252.594C126.938 252.68 126.919 252.767 126.93 252.851C126.952 253.022 127.095 253.169 127.328 253.261C127.561 253.354 127.864 253.383 128.171 253.343C128.323 253.323 128.472 253.287 128.608 253.237C128.744 253.186 128.866 253.122 128.966 253.049C129.065 252.975 129.142 252.893 129.19 252.808C129.238 252.722 129.257 252.635 129.246 252.55ZM45.2092 225.077C45.641 226.392 45.2713 227.481 44.1003 228.344C43.8647 228.521 43.7241 228.462 43.6783 228.168C42.9129 223.448 37.3683 223.477 33.8454 224.733C27.905 226.84 21.5296 228.923 14.7192 230.984C10.4799 232.26 10.1266 237.373 14.4346 238.727C15.8281 239.159 17.3492 239.162 18.9978 238.737C19.4885 238.606 19.6488 238.782 19.4787 239.267C19.374 239.541 19.1908 239.754 18.9291 239.904C17.7188 240.578 16.5183 241.226 15.3276 241.847C14.9089 242.063 14.7192 242.407 14.7585 242.878L14.9449 244.909C14.9549 245.033 14.9322 245.158 14.8792 245.271C14.8262 245.384 14.7446 245.481 14.643 245.552C14.5413 245.622 14.423 245.665 14.3002 245.674C14.1775 245.684 14.0545 245.66 13.9439 245.606C13.0726 245.189 12.3699 244.485 11.6906 243.804C10.4038 242.515 9.20092 241.31 7.09425 242.299C3.90953 243.795 5.33816 246.248 6.54977 248.328L6.63303 248.471C7.66342 250.248 9.29244 252.77 11.4808 252.907C13.5547 253.031 15.6318 253.414 17.7123 254.055C18.0067 254.14 18.1048 254.33 18.0067 254.624C17.8824 254.991 17.7123 255.334 17.4964 255.655C16.4856 257.176 17.5945 259.276 18.9291 260.032C20.7282 261.046 22.439 260.748 24.0615 259.139C24.8879 258.315 25.7081 257.495 26.5256 256.677C31.212 251.988 35.8104 247.388 40.9993 242.809C44.4732 239.747 55.0421 229.306 52.3042 224.38C51.7808 223.438 51.0187 222.577 50.0177 221.799C45.4545 218.256 40.7539 215.047 35.2192 213.428C29.907 211.878 24.8008 210.481 19.9006 209.238C19.5474 209.146 19.3674 208.917 19.3609 208.551C19.3544 206.902 19.9006 205.532 20.9997 204.439C21.1996 204.241 21.3378 203.99 21.3976 203.715C21.4573 203.44 21.436 203.154 21.3363 202.891C21.2365 202.628 21.0626 202.4 20.8356 202.234C20.6087 202.068 20.3384 201.972 20.0576 201.956C17.6632 201.829 14.3561 202.261 13.2668 204.753C8.01343 216.824 3.70865 227.363 0.352494 236.372C-1.67886 241.847 5.65169 243.82 7.50641 239.149C10.856 230.722 13.9865 222.685 16.8977 215.037C16.9893 214.795 17.1594 214.714 17.408 214.792C24.1269 216.925 31.2219 219.107 38.6931 221.338C40.2109 221.789 42.1769 222.77 44.5909 224.282C44.8825 224.465 45.1012 224.746 45.2092 225.077ZM30.1359 240.807C31.8238 239.826 32.815 238.498 33.1094 236.823C33.1426 236.632 33.1248 236.435 33.0577 236.251C32.9906 236.067 32.8766 235.902 32.7266 235.773C31.0976 234.399 29.1873 233.771 26.9957 233.889C26.7274 233.909 26.5737 233.784 26.5344 233.516L26.4952 233.261C26.4886 233.222 26.5017 233.199 26.5344 233.192C30.0018 232.322 33.2435 231.161 36.2594 229.708C36.5985 229.542 36.9819 229.484 37.3585 229.542C38.9352 229.777 40.5119 229.852 42.0886 229.767C42.8932 229.721 43.0143 229.99 42.4516 230.572C38.5001 234.667 34.5879 238.432 30.7149 241.867C30.688 241.892 30.6565 241.911 30.6221 241.924C30.5877 241.936 30.5511 241.942 30.5145 241.94C30.4779 241.938 30.4421 241.929 30.4091 241.913C30.3761 241.897 30.3466 241.875 30.3224 241.847L30.0182 241.504C29.9745 241.453 29.9426 241.393 29.9247 241.328C29.9068 241.263 29.9034 241.195 29.9146 241.128C29.9258 241.062 29.9514 240.999 29.9897 240.943C30.0279 240.888 30.0778 240.841 30.1359 240.807ZM83.3382 254.398C82.4615 256.354 81.1367 257.918 79.3638 259.089C75.0787 261.895 70.8916 264.885 66.8028 268.058C66.4843 268.298 66.1295 268.484 65.7527 268.608C63.1947 269.412 61.6737 269.19 61.1895 267.94C60.6727 266.606 60.9508 265.464 62.0237 264.515C66.3873 260.649 71.2776 257.329 76.6946 254.555C78.8535 253.446 80.5905 251.67 82.2686 249.943C82.4676 249.734 82.7231 249.588 83.004 249.522C83.2848 249.457 83.5786 249.474 83.8495 249.573C84.1204 249.672 84.3565 249.848 84.5289 250.079C84.7012 250.311 84.8024 250.587 84.82 250.875C84.8749 251.706 84.3677 252.57 83.89 253.384C83.685 253.734 83.4855 254.074 83.3382 254.398ZM73.4289 290.51L73.1541 289.44C73.0887 289.172 73.1933 289.041 73.4681 289.048C75.1691 289.1 76.7098 288.505 78.0902 287.262C81.6164 284.089 85.2834 281.505 89.0909 279.509C93.6541 277.134 96.3626 273.032 94.2135 267.831C92.6041 263.952 90.2391 260.36 87.1184 257.056C86.353 256.239 85.4436 256.016 84.3903 256.389L83.4385 256.733C82.2347 257.158 82.009 257.884 82.7613 258.911L87.7367 265.702C87.7793 265.762 87.804 265.833 87.808 265.907C87.8119 265.981 87.795 266.054 87.7591 266.119C87.7233 266.183 87.6699 266.237 87.6052 266.272C87.5404 266.308 87.467 266.324 87.3932 266.32C84.2791 266.065 80.6875 266.428 76.6182 267.409C73.684 268.116 70.4358 270.236 73.0854 273.768C73.5499 274.39 73.4387 274.884 72.7517 275.25L70.9854 276.183C70.6321 276.372 70.4129 276.66 70.3279 277.046C69.9288 278.799 68.9638 280.268 67.4329 281.452C67.3906 281.486 67.3415 281.51 67.2888 281.523C67.2361 281.536 67.1811 281.537 67.1273 281.527C67.0736 281.517 67.0223 281.495 66.9769 281.464C66.9314 281.432 66.8929 281.391 66.8638 281.344C66.6169 280.953 66.3403 280.391 66.0283 279.757C64.6905 277.038 62.7029 273 59.6313 275.427C59.3204 275.674 59.0901 276.008 58.9695 276.387C58.8489 276.766 58.8436 277.173 58.9542 277.556C60.6029 283.121 64.2338 290.657 69.4447 293.464C69.7456 293.621 70.0596 293.65 70.3867 293.552C71.5055 293.199 72.4443 292.535 73.2032 291.56C73.3191 291.413 73.3997 291.242 73.4389 291.06C73.478 290.878 73.4746 290.69 73.4289 290.51ZM86.0306 272.988C86.3505 273.16 86.5301 273.392 86.5297 273.634C86.5295 273.754 86.4851 273.872 86.3991 273.983C86.3131 274.094 86.1871 274.194 86.0284 274.278C85.8697 274.363 85.6814 274.43 85.4741 274.475C85.2669 274.521 85.0448 274.544 84.8206 274.544C84.3677 274.543 83.9336 274.446 83.6136 274.274C83.2937 274.103 83.1142 273.87 83.1146 273.628C83.1148 273.508 83.1592 273.39 83.2452 273.279C83.3312 273.168 83.4571 273.068 83.6158 272.984C83.7745 272.899 83.9629 272.832 84.1701 272.787C84.3774 272.741 84.5995 272.718 84.8237 272.718C85.2766 272.719 85.7107 272.816 86.0306 272.988ZM71.0639 287.478C70.2526 287.118 69.6933 286.49 69.3858 285.594C69.2157 285.103 69.3858 284.893 69.8961 284.965L70.7891 285.093C71.3386 285.165 71.6101 285.479 71.6036 286.035L71.584 287.144C71.5774 287.517 71.4041 287.628 71.0639 287.478Z" fill="#FFCE6E"/>
</svg>
