<svg width="382" height="274" viewBox="0 0 382 274" fill="none" xmlns="http://www.w3.org/2000/svg">
<path fill-rule="evenodd" clip-rule="evenodd" d="M115.155 145.215C115.858 142.582 115.343 142.321 113.607 144.433C104.726 155.28 95.1522 164.556 84.887 172.261C83.1762 173.547 82.4845 175.204 82.8121 177.23C86.7435 201.692 90.7293 226.693 94.7698 252.235C95.6435 257.768 95.953 263.61 93.9509 268.797C92.0034 273.857 85.5968 274.403 82.3571 270.308C79.0203 266.098 76.7876 261.007 75.6592 255.038C66.4861 206.818 59.758 160.115 55.4748 114.929C54.9834 109.779 55.7841 102.48 61.7357 100.933C68.4699 99.204 71.0908 106.593 72.0191 111.799C74.7128 126.93 77.1517 141.624 79.3358 155.881C79.3611 156.035 79.4267 156.18 79.5257 156.301C79.6247 156.421 79.7533 156.514 79.8983 156.567C80.0433 156.621 80.1995 156.635 80.3502 156.607C80.5009 156.579 80.6409 156.511 80.7555 156.409C94.3877 144.487 108.002 131.546 116.647 115.894C122.016 106.175 126.148 91.0319 113.517 84.7163C108.966 82.4473 103.895 81.0459 98.3009 80.512C70.4175 77.8183 31.9232 90.0127 11.3383 110.252C10.1929 111.38 10.1395 112.558 10.0739 114.006L10.0641 114.219C10.0391 114.791 9.88373 115.35 9.60956 115.852C9.33538 116.354 8.94978 116.787 8.48246 117.117C8.01514 117.448 7.47846 117.667 6.91346 117.757C6.34846 117.848 5.7702 117.808 5.22293 117.641C-5.53363 114.329 2.91133 102.917 7.60709 98.385C12.3514 93.7984 17.478 89.9339 22.9867 86.7912C47.594 72.7161 73.6935 67.0132 101.286 69.6826C119.159 71.4117 134.32 81.0034 133.737 101.079C133.665 103.857 134.471 104.142 136.158 101.934C149.79 84.1885 181.933 61.4195 200.989 87.3372C201.087 87.4706 201.187 87.6043 201.287 87.7384L201.287 87.739C202.43 89.2698 203.619 90.8624 203.1 92.8702C203.012 93.2283 202.83 93.5562 202.573 93.8207C202.316 94.0853 201.994 94.2772 201.637 94.3769C201.281 94.4766 200.903 94.4807 200.544 94.3887C200.184 94.2967 199.854 94.1119 199.587 93.853C192.689 87.0642 184.408 83.2602 174.944 86.5728C159.291 92.0329 145.932 108.031 139.307 122.373C127.901 147.066 125.116 172.862 130.953 199.762C133.258 210.379 137.784 218.812 144.53 225.061C158.417 237.929 176.509 223.059 184.881 212.084C202.257 189.297 214.257 164.86 220.882 138.772C226.706 115.858 223.539 93.3434 206.449 75.798C204.058 73.3349 204.216 71.0416 206.922 68.9182C207.407 68.5421 207.947 68.36 208.542 68.3722C211.794 68.4207 214.682 69.6159 217.205 71.9577C222.314 76.7141 226.603 82.3078 230.073 88.7386C230.425 89.3939 230.977 89.673 231.729 89.5759L232.712 89.4667C233.892 89.3165 235.084 89.6229 236.045 90.3234C237.006 91.0238 237.663 92.0652 237.881 93.2342C242.431 117.987 246.745 144.93 250.822 174.063C250.883 174.5 251.125 174.785 251.55 174.919C251.618 174.94 251.689 174.946 251.76 174.937C251.831 174.928 251.899 174.904 251.961 174.867C252.023 174.829 252.076 174.778 252.118 174.718C252.16 174.658 252.19 174.59 252.205 174.518C256.67 151.804 261.912 128.052 267.93 103.263C268.749 99.8592 270.406 95.9461 273.718 94.3991C281.781 90.6133 286.277 98.3486 288.024 105.101C291.543 118.569 294.952 132.056 298.253 145.561C299.66 151.349 300.643 151.282 301.201 145.361C304.744 107.552 311.6 70.4531 321.768 34.064C324.753 23.4106 328.108 13.734 331.833 5.03406C333.689 0.702315 340.242 -3.04701 342.426 3.66901C343.445 6.79952 343.639 10.4214 343.008 14.5348C340.096 33.6454 336.067 56.7116 330.923 83.7335C323.915 120.626 318.783 158.392 315.707 195.176C315.392 198.877 314.384 202.371 312.686 205.659C308.973 212.776 299.108 213.031 295.013 206.224C293.448 203.639 292.21 200.496 291.3 196.796C286.192 175.998 281.575 156.463 277.449 138.19C276.442 133.773 275.569 133.803 274.829 138.281C270.412 165.242 265.856 191.894 261.16 218.236C259.067 229.957 244.925 231.158 241.958 219.492C237.068 200.248 233.798 179.311 232.148 156.682C232.142 156.584 232.113 156.49 232.065 156.405C232.016 156.32 231.949 156.248 231.868 156.193C231.787 156.139 231.695 156.104 231.598 156.09C231.502 156.077 231.403 156.086 231.311 156.117C230.813 156.275 230.48 156.597 230.31 157.082C220.063 186.167 181.314 265.958 137.341 237.001C127.076 230.23 120.323 219.073 116.592 207.698C109.992 187.483 109.512 166.655 115.155 145.215ZM358.732 187.372C355.875 195.307 345.755 193.233 345.082 185.406L345.018 184.634C344.089 173.447 343.103 161.579 344.135 150.388C345.907 131.047 349.013 111.093 353.454 90.5265C358.708 66.1741 364.041 42.21 369.452 18.6341C370.089 15.7766 373.093 7.44072 378.134 10.6622C380.585 12.2275 381.786 14.7634 381.738 18.2701C381.568 29.6273 380.652 41.1361 378.99 52.7967C372.207 100.13 367.378 136.556 364.502 162.073C363.483 171.101 361.559 179.534 358.732 187.372ZM348.452 234.185C342.134 233.353 337.737 227.169 338.632 220.372C339.526 213.576 345.374 208.74 351.692 209.572C358.011 210.404 362.407 216.588 361.513 223.385C360.618 230.182 354.77 235.017 348.452 234.185Z" fill="#B7DFF2"/>
</svg>
