<svg width="442" height="106" viewBox="0 0 442 106" fill="none" xmlns="http://www.w3.org/2000/svg">
<path d="M95.2365 82.2343L90.118 67.6887C89.8743 67.0078 89.9633 66.2912 90.3711 65.6508C90.7789 65.0103 91.4826 64.4819 92.3722 64.1481L103.299 59.9871C117.903 56.8602 131.535 53.8732 144.194 51.0261C146.952 50.4056 150.347 48.2703 154.219 49.4383C154.997 49.6695 155.739 49.6208 156.447 49.2923C157.525 48.8056 158.471 48.4893 159.284 48.3433C169.309 46.5913 178.592 44.5837 189.253 43.4887C198.571 42.5397 207.756 41.1466 216.808 39.3094C221.37 38.3968 227.602 38.5794 232.747 35.9696C233.507 35.5802 234.135 35.6654 234.63 36.225L235.213 36.8638C235.691 37.4113 236.398 37.6425 237.335 37.5573C243.311 36.9855 249.225 36.219 255.078 35.2578C268.258 33.1225 281.148 32.1917 294.169 29.8922C299.924 28.8701 305.865 29.2899 311.912 28.3409C314.193 27.988 317.075 27.7569 320.558 27.6474C326.233 27.4831 329.919 25.2201 335.595 26.1691C336.461 26.3151 337.336 26.3151 338.22 26.1691C344.232 25.2323 350.27 24.7395 356.334 24.6908C356.44 24.6908 356.493 24.6543 356.493 24.5813L356.467 24.125C356.467 23.7965 356.228 23.6323 355.751 23.6323C335.56 23.462 322.158 23.1882 315.545 22.811C305.998 22.2757 292.074 22.1905 273.775 22.5555C254.291 22.9449 234.816 23.3585 215.349 23.7965C189.182 24.3927 155.174 27.0755 113.324 31.845C75.6641 34.8745 39.2775 37.6668 1.4853 33.743C0.636633 33.6578 0.203444 33.3172 0.185764 32.721L0.000138984 23.176C-0.00747611 22.622 0.298099 22.0877 0.852346 21.6858C1.40659 21.284 2.1661 21.0462 2.97046 21.0225C8.91113 20.8278 14.8165 20.3898 20.6864 19.7085C25.4071 19.161 30.3488 18.0355 35.5115 16.3321C41.3108 14.4098 48.1531 13.3999 56.0387 13.3026C64.3132 13.2174 72.5523 12.7672 80.7561 11.9521C94.7414 10.5529 108.833 8.87382 123.03 6.91494C126.602 6.69594 130.217 6.30053 133.877 5.72868C141.913 4.46941 147.933 4.35992 155.545 4.37817C156.447 4.37817 157.286 4.23823 158.064 3.95839C163.369 2.09685 168.248 3.48386 172.651 3.2466C189.094 2.34625 205.563 1.84745 222.059 1.75011C222.678 1.75011 223.129 1.90825 223.412 2.22459C223.783 2.63826 224.313 2.80255 225.003 2.71738C228.009 2.38887 231.014 2.0847 234.02 1.80486C236.99 1.53719 239.094 1.89611 240.332 2.88163C240.898 3.34397 241.587 3.45956 242.401 3.22839C243.02 3.05805 243.373 2.73563 243.461 2.26112C243.568 1.60411 244.107 1.32423 245.079 1.42156C247.661 1.6649 250.286 1.65276 252.956 1.38508C253.805 1.29992 254.574 1.43375 255.263 1.78659C256.748 2.55311 258.287 2.7052 259.878 2.24285C260.674 2.01168 261.505 1.91434 262.371 1.95084C272.732 2.35235 283.092 2.81471 293.453 3.33789C298.89 3.62989 307.483 3.39261 312.999 2.57135C329.902 0.0162947 346.955 -0.634593 364.158 0.618599C369.091 0.983607 373.599 0.0163035 378.426 0.527314C388.044 1.525 397.645 2.43142 407.228 3.2466C417.995 4.14087 428.179 6.36747 438.894 7.91875C439.76 8.05258 440.228 8.41755 440.299 9.01373C440.67 12.3535 440.458 15.1093 441.44 18.6499C442.394 22.1783 442.129 25.7007 440.644 29.2169C440.396 29.8009 439.831 30.1355 438.947 30.2207C427.985 31.2184 417.385 31.9058 407.148 32.283C392.562 32.8183 381.989 33.3415 375.429 33.8525C324.403 37.8676 277.09 43.221 233.49 49.9128C227.991 50.7523 228.053 51.3303 233.675 51.6466C240.606 52.0481 247.855 51.8596 255.422 51.0809C259.135 50.7159 265.5 53.1431 269.478 51.4094C270.203 51.093 270.999 50.9531 271.865 50.9896C282.633 51.5371 291.411 51.3181 298.386 55.4792C299.076 55.8807 299.509 56.3856 299.686 56.994C301.171 61.8364 302.161 66.5876 302.656 71.2475C303.116 75.7006 300.791 78.7849 295.681 80.5005C281.979 85.1117 267.498 90.1428 252.24 95.5936C245.185 98.1121 237.981 101.476 230.625 105.686C230.378 105.831 230.082 105.93 229.764 105.974C229.446 106.018 229.116 106.006 228.804 105.939C228.493 105.872 228.21 105.751 227.981 105.589C227.753 105.427 227.586 105.228 227.496 105.011C224.738 98.2216 220.282 91.1405 224.658 83.7308C227.257 79.296 232.986 77.1789 238.741 74.8246C238.885 74.7681 239.006 74.6867 239.09 74.5884C239.175 74.4901 239.221 74.3782 239.223 74.264C239.226 74.1497 239.185 74.0371 239.105 73.9369C239.025 73.8368 238.909 73.7528 238.767 73.6931C238.467 73.5714 237.98 73.5409 237.309 73.6018C215.164 75.6458 193.549 77.6169 171.166 80.537C146.21 83.8038 125.895 84.0411 103.034 85.0996C99.135 85.2821 97.6233 84.0593 95.2365 82.2343ZM204.289 4.75044C204.294 4.57622 203.804 4.40265 202.928 4.26784C202.051 4.13302 200.859 4.04802 199.614 4.03158C198.37 4.01513 197.174 4.06858 196.29 4.18012C195.407 4.29166 194.908 4.45215 194.903 4.62635C194.898 4.80057 195.388 4.97419 196.264 5.10901C197.141 5.24383 198.333 5.32877 199.578 5.34522C200.822 5.36166 202.018 5.30827 202.902 5.19673C203.785 5.08519 204.284 4.92464 204.289 4.75044ZM213.122 9.6525C212.909 9.6525 212.688 9.6525 212.459 9.6525C212.441 9.6525 212.432 9.6525 212.432 9.6525C212.432 9.64033 212.441 9.63423 212.459 9.63423C214.899 9.73157 216.852 9.76812 218.32 9.74379C220.194 9.69512 220.22 9.50648 218.399 9.17797C216.826 8.9103 215.279 9.03199 213.758 9.543C213.528 9.616 213.316 9.6525 213.122 9.6525ZM144.91 15.3649C146.572 14.8539 146.501 14.6105 144.698 14.6349L139.447 14.7079C139.183 14.7119 138.931 14.7833 138.74 14.9081C138.549 15.0329 138.432 15.2023 138.412 15.3831L138.359 15.8942C138.352 15.9499 138.362 16.006 138.388 16.059C138.414 16.112 138.455 16.1607 138.51 16.2019C138.565 16.2432 138.632 16.2761 138.707 16.2985C138.781 16.3209 138.862 16.3324 138.943 16.3321C140.888 16.2956 142.877 15.9732 144.91 15.3649ZM266.906 58.0343C274.889 57.9248 282.686 58.9103 290.085 58.3627C290.527 58.3384 290.73 58.1741 290.695 57.87L290.642 57.3773C290.624 57.2313 290.518 57.1643 290.324 57.1764C282.35 57.3711 274.579 57.7118 267.012 58.1984C266.888 58.2106 266.826 58.1802 266.826 58.1072C266.826 58.095 266.826 58.0889 266.826 58.0889C266.809 58.0524 266.835 58.0343 266.906 58.0343Z" fill="#3E426B"/>
</svg>
