<svg width="76" height="97" viewBox="0 0 76 97" fill="none" xmlns="http://www.w3.org/2000/svg">
<path d="M45.123 14.7593C49.0009 13.2001 53.136 11.6863 57.2051 11.1428C73.4487 8.97557 78.0322 20.0643 75.2293 33.6502C70.2896 57.6132 52.7403 77.1511 35.5866 93.9006C33.6345 95.8026 30.3963 98.3193 27.8704 96.1843C25.694 94.3405 27.0658 92.2444 28.2134 90.4329C30.5876 86.6634 33.3927 83.1699 36.6286 79.9524C44.7801 71.8461 51.9884 62.9053 57.9372 53.4857C61.6919 47.5424 64.5476 41.1117 66.5041 34.1936C68.199 28.1835 70.2765 16.7584 59.4474 18.1558C54.7825 18.7553 50.2605 20.1333 45.8814 22.2898C45.2395 22.6046 44.8922 23.1438 44.8394 23.9072C44.3822 30.8554 42.5795 36.9259 39.4315 42.1188C36.7803 46.4922 32.0846 49.7269 26.8548 47.0227C22.6537 44.8424 21.3941 39.4016 22.6405 35.3193C24.7971 28.2029 30.2908 23.4543 36.4637 19.4755C36.7647 19.282 37.0005 19.0059 37.1414 18.6823C37.2822 18.3587 37.3219 18.0021 37.2552 17.6576C36.9474 16.0187 36.6022 14.4509 36.2197 12.9543C33.8719 3.85172 24.7707 6.89886 19.864 11.2334C8.15125 21.5717 5.843 40.3526 9.0284 54.6178C11.6598 66.3988 16.3687 77.7916 22.5086 88.3304C23.8145 90.5688 25.7139 95.0069 22.0866 96.4884C20.5917 97.0965 19.2551 96.7925 18.0768 95.5762C16.5643 94.0106 15.1002 91.9878 13.6845 89.5078C7.55111 78.7512 3.35008 67.1816 1.08139 54.799C-1.55002 40.4626 0.534002 26.2491 8.28976 13.8665C11.396 8.91087 15.6696 4.76392 20.9061 2.1179C28.0814 -1.49855 37.2156 -0.79337 41.5815 6.65302C42.8521 8.82245 43.8458 11.4297 44.5624 14.4746C44.6372 14.7895 44.8241 14.8844 45.123 14.7593ZM28.9388 36.0375C28.2529 37.4155 27.6858 40.1973 29.3279 41.1936C29.9742 41.5818 30.581 41.4826 31.1482 40.8961C34.1753 37.7778 35.6394 32.7639 36.2593 28.5199C36.3033 28.2309 36.2021 28.1684 35.9559 28.3323C32.7991 30.4155 30.46 32.9839 28.9388 36.0375Z" fill="#B7DFF2"/>
</svg>
