<svg width="436" height="358" viewBox="0 0 436 358" fill="none" xmlns="http://www.w3.org/2000/svg">
<path d="M115.728 5.49219V13.3509C107.277 13.6456 100.814 14.628 96.4396 16.298C92.065 17.9679 89.0823 21.1114 87.4916 25.7285C85.9008 30.3455 85.1055 37.4183 85.1055 47.1435V242.04C85.1055 251.471 85.9008 258.544 87.4916 263.259C89.0823 267.974 92.065 271.118 96.4396 272.69C100.814 274.261 107.277 275.342 115.728 275.833V283.692C109.066 283.201 100.615 282.808 90.2754 282.709C79.9355 282.611 69.4962 282.513 58.858 282.513C46.9273 282.513 35.792 282.611 25.4521 282.709C15.1122 282.808 6.66129 283.201 0 283.692V275.833C8.74916 275.342 15.311 274.261 19.6856 272.69C24.0602 271.118 26.9434 267.974 28.4348 263.259C29.9261 258.544 30.6221 251.471 30.6221 242.04V47.1435C30.6221 37.4183 29.9261 30.3455 28.4348 25.7285C26.9434 21.1114 24.0602 17.9679 19.6856 16.298C15.311 14.628 8.74916 13.6456 0 13.3509V5.49219C6.66129 5.78689 15.1122 5.98336 25.4521 6.27806C35.792 6.57277 46.9273 6.671 58.858 6.671C69.4962 6.671 79.9355 6.57277 90.2754 6.27806C100.615 5.98336 109.066 5.78689 115.728 5.49219Z" fill="#F0AEB9"/>
<path d="M281.519 0C308.562 0 332.324 5.59936 352.706 16.8963C373.087 28.1933 388.995 44.3037 400.23 65.4241C411.464 86.5445 417.131 112.085 417.131 142.243C417.131 171.615 411.365 197.255 399.832 219.259C388.299 241.264 372.292 258.455 351.712 270.734C331.131 283.013 307.668 289.202 281.122 289.202C254.079 289.202 230.317 283.603 209.935 272.306C189.554 261.009 173.646 244.8 162.412 223.581C151.177 202.363 145.51 176.822 145.51 146.959C145.51 117.587 151.376 91.9473 163.008 69.9429C174.641 47.9384 190.747 30.7474 211.128 18.4681C231.51 6.18876 254.974 0 281.519 0ZM429.062 283.308L435.425 285.665C433.039 298.731 429.659 310.028 425.284 319.458C420.909 328.889 415.441 336.256 408.78 341.463C403.511 345.883 396.452 349.714 387.702 352.858C378.953 356.001 368.613 357.573 356.683 357.573C342.366 357.573 328.347 355.314 314.727 350.893C301.106 346.473 287.187 340.971 272.969 334.39C258.752 327.808 243.64 321.718 227.434 315.922C225.545 315.431 223.755 314.841 222.065 314.35C220.375 313.859 218.784 313.466 217.492 313.171C212.421 315.529 207.052 317.395 201.186 318.672C195.32 319.949 189.753 320.637 184.483 320.637C179.214 320.637 174.839 319.851 171.36 318.279C167.88 316.708 166.19 314.35 166.19 311.206C166.19 304.625 173.348 301.383 187.665 301.383C196.911 301.383 206.853 302.955 217.492 306.098C227.334 303.446 235.686 300.499 242.745 297.257C249.804 294.015 257.062 290.872 264.618 288.023C272.174 285.174 281.122 283.308 291.462 282.522L291.859 288.809C283.906 289.595 276.847 291.068 270.782 293.328C264.717 295.587 258.652 297.945 252.687 300.597C246.722 303.249 239.663 305.705 231.411 308.063C248.611 309.929 265.314 311.698 281.321 313.564C297.328 315.431 312.34 316.806 326.259 317.69C340.179 318.574 352.706 318.672 363.841 317.886C381.041 316.609 394.761 313.269 404.803 308.063C414.845 302.857 422.997 294.605 429.062 283.308ZM279.929 7.07287C264.319 7.07287 250.699 12.9669 239.166 24.7551C227.633 36.5432 218.685 52.7518 212.322 73.4793C205.959 94.2067 202.777 118.176 202.777 145.387C202.777 173.187 206.356 197.353 213.515 217.884C220.673 238.415 230.317 254.329 242.546 265.429C254.775 276.53 268.097 282.129 282.713 282.129C298.322 282.129 311.943 276.235 323.476 264.447C335.009 252.659 343.957 236.352 350.32 215.526C356.683 194.7 359.864 170.83 359.864 143.815C359.864 115.818 356.285 91.5544 349.127 71.1217C341.968 50.6889 332.324 34.8732 320.294 23.7727C308.264 12.6722 294.743 7.07287 279.929 7.07287Z" fill="#F0AEB9"/>
</svg>
