<svg width="768" height="1441" viewBox="0 0 768 1441" fill="none" xmlns="http://www.w3.org/2000/svg">
<g opacity="0.6">
<path d="M47.7251 -528.071H101.316C80.8394 -487.289 60.7748 -446.649 41.1221 -406.151C34.221 -391.922 24.2526 -380.506 18.0331 -365.383C12.1827 -351.183 5.23892 -337.65 -2.79825 -324.785C-6.24884 -319.29 -7.6972 -312.814 -11.1904 -307.064C-12.8944 -304.195 -12.4116 -303.769 -9.74202 -305.786C-4.20404 -309.96 -2.45746 -317.16 2.48413 -322.186C12.1969 -332.041 21.6824 -342.819 30.9408 -354.52C40.8665 -367.087 52.2833 -378.631 63.4444 -390.218C70.5444 -397.602 78.539 -406.633 87.4281 -417.312C110.631 -445.115 135.608 -470.902 162.361 -494.673C162.962 -495.196 163.68 -495.568 164.453 -495.759C165.226 -495.95 166.032 -495.954 166.804 -495.77C167.576 -495.586 168.291 -495.221 168.889 -494.704C169.487 -494.187 169.951 -493.533 170.242 -492.799C171.478 -489.774 170.668 -485.131 168.794 -482.49C164.335 -476.27 160.615 -469.34 157.633 -461.701C157.54 -461.467 157.501 -461.215 157.518 -460.964C157.534 -460.713 157.606 -460.469 157.729 -460.249C157.851 -460.029 158.02 -459.839 158.224 -459.692C158.429 -459.545 158.663 -459.446 158.911 -459.4L160.529 -459.102C163 -458.676 164.889 -459.528 166.195 -461.658L207.773 -528.071H258.466C248.583 -508.518 239.339 -489.092 227.922 -470.476C214.063 -447.813 200.786 -425.874 188.091 -404.66C183.704 -397.247 177.441 -391.156 172.969 -383.871C150.05 -346.426 126.364 -309.747 103.999 -271.791C81.9612 -234.445 60.7039 -199.286 40.2275 -166.314C36.0528 -159.626 30.3018 -154.854 26.3826 -147.825C16.8403 -130.7 8.03632 -113.462 -0.0292664 -96.1093C-22.4368 -47.7585 -49.3598 -0.813538 -76.1977 43.1069C-76.8205 44.115 -77.6984 44.9409 -78.7427 45.501C-79.7869 46.061 -80.9606 46.3356 -82.1449 46.2966C-83.3293 46.2578 -84.4824 45.9069 -85.4877 45.2794C-86.493 44.652 -87.3148 43.7703 -87.87 42.7235L-91.9596 35.0129C-92.6412 33.7065 -93.5784 32.5989 -94.7712 31.6901C-111.896 18.6262 -113.998 2.09747 -101.076 -17.8961C-62.7362 -77.195 -24.2685 -140.243 10.5781 -204.142C23.6988 -228.254 37.7426 -252.564 52.7093 -277.073C52.961 -277.485 53.0646 -277.969 53.0024 -278.443C52.9403 -278.917 52.7163 -279.351 52.3685 -279.672L51.3035 -280.652C51.1732 -280.773 51.019 -280.865 50.8517 -280.922C50.6843 -280.98 50.5077 -281.002 50.3338 -280.985C50.1599 -280.969 49.9928 -280.916 49.844 -280.829C49.6953 -280.742 49.5683 -280.623 49.4717 -280.481C35.925 -261.595 21.8954 -243.008 7.38309 -224.718C-6.03583 -207.806 -18.5602 -189.232 -31.7661 -171.681C-42.3877 -157.538 -52.1572 -144.062 -61.0748 -131.254C-88.5658 -91.7499 -116.171 -52.4303 -143.889 -13.2953C-158.259 7.01062 -170.84 26.4645 -181.632 45.0664C-197.309 72.1599 -213.454 98.2736 -231.772 122.982C-238.077 131.416 -247.364 136.869 -251.837 146.113C-256.409 155.684 -259.632 166.192 -261.507 177.637C-261.848 179.739 -262.501 179.838 -263.466 177.935C-264.148 176.572 -264.659 174.811 -265 172.653V70.5411C-263.069 64.3784 -263.069 58.173 -265 51.925V-0.430115C-260.57 -9.48969 -255.273 -18.1801 -249.11 -26.5012C-242.323 -35.6744 -236.416 -43.9955 -231.389 -51.4647C-212.503 -79.5238 -193.802 -107.455 -175.285 -135.259C-150.833 -171.98 -128.169 -208.956 -105.421 -245.89C-95.8788 -261.439 -87.6144 -279.288 -78.3277 -294.539C-64.1846 -317.713 -51.5892 -339.411 -40.5417 -359.632C-33.6689 -372.241 -26.8813 -383.601 -20.179 -393.712C-10.2532 -408.707 -4.33185 -425.491 3.67691 -441.125C18.6152 -470.235 33.298 -499.217 47.7251 -528.071Z" fill="#F8C7CF"/>
<path d="M336.041 -528.071H382.176C376.723 -504.982 368.8 -481.425 358.405 -457.398C354.543 -448.509 347.713 -432.066 337.915 -408.068C334.038 -398.483 327.308 -389.026 323.9 -381.145C314.698 -359.788 304.801 -338.346 294.208 -316.819C265.183 -257.747 237.124 -200.152 210.03 -144.034C192.905 -108.506 159.947 -51.124 111.156 28.1116C106.499 35.6944 100.194 40.1816 92.2419 41.5732C90.7935 41.8288 89.6291 42.5388 88.7487 43.7032L87.2151 45.7906C86.8627 46.2548 86.39 46.6136 85.8482 46.8284C85.3064 47.0432 84.7162 47.1057 84.1415 47.0092C83.5667 46.9127 83.0293 46.6608 82.5875 46.2808C82.1456 45.9008 81.8161 45.4072 81.6346 44.8534C80.669 41.6442 81.5493 37.8386 84.2757 33.4366C84.4672 33.126 84.5588 32.762 84.5374 32.3962C84.516 32.0305 84.3827 31.6816 84.1565 31.3988C83.9303 31.116 83.6226 30.9139 83.277 30.8209C82.9314 30.7279 82.5654 30.7488 82.231 30.8807L80.4843 31.4771C78.7236 32.1019 77.5166 33.2804 76.8634 35.0128C59.1135 80.4242 38.907 125.225 16.2438 169.415C0.268921 200.683 -21.0736 233.145 -38.9655 264.839C-44.333 274.381 -51.575 282.475 -56.8574 291.975C-60.805 299.075 -65.2211 305.806 -70.1059 312.167C-86.592 333.552 -103.078 353.063 -124.932 370.529C-126.678 371.892 -129.49 372.701 -131.705 372.829C-136.079 373.113 -136.817 371.608 -133.92 368.314C-133.267 367.575 -132.529 366.879 -131.705 366.226C-129.944 364.806 -129.888 363.315 -131.535 361.753L-135.411 358.09C-136.576 356.982 -137.911 356.698 -139.416 357.238L-144.443 358.984C-145.139 359.226 -145.901 359.193 -146.574 358.892C-147.246 358.591 -147.779 358.045 -148.064 357.366C-150.62 351.359 -145.38 347.908 -141.801 344.202C-140.807 343.18 -140.694 342.086 -141.461 340.922L-153.687 321.496C-154.425 320.36 -155.107 320.389 -155.732 321.582C-159.622 329.136 -162.633 336.364 -164.763 343.265C-170.301 361.441 -176.918 378.807 -184.614 395.365C-193.688 414.918 -198.757 434.684 -209.365 453.939C-214.562 463.311 -217.97 472.811 -222.358 482.566C-225.453 489.467 -228.222 496.724 -230.665 504.335C-238.957 530.235 -246.994 556.079 -254.776 581.866C-258.397 593.88 -258.397 606.83 -262.103 619.567C-262.558 621.158 -263.026 621.158 -263.509 619.567L-265 614.626V592.303L-257.119 549.065C-256.863 547.73 -257.417 547.006 -258.78 546.892L-265 546.423V506.933C-248.698 459.761 -234.314 412.007 -221.846 363.67C-212.134 325.884 -200.674 289.547 -190.45 252.655C-181.419 220.194 -158.841 172.142 -145.593 125.623C-142.923 116.307 -139.686 116.109 -135.88 125.026C-132.387 133.248 -132.685 139.723 -123.696 144.537C-118.499 147.349 -113.515 157.189 -114.112 162.983C-115.049 171.801 -114.452 179.469 -116.881 188.287C-124.151 214.727 -131.563 241.38 -139.118 268.247C-140.339 272.535 -141.872 276.88 -143.718 281.282C-143.845 281.557 -143.89 281.862 -143.848 282.162C-143.806 282.462 -143.678 282.743 -143.48 282.972C-143.283 283.201 -143.023 283.368 -142.733 283.454C-142.443 283.54 -142.134 283.54 -141.844 283.455C-140.424 283.114 -139.217 282.347 -138.223 281.154C-138.029 280.924 -137.776 280.751 -137.49 280.653C-137.205 280.556 -136.899 280.537 -136.604 280.601C-135.724 280.771 -135.156 281.225 -134.9 281.964C-134.815 282.191 -134.815 282.432 -134.9 282.688C-137.002 288.709 -138.109 295.085 -138.223 301.815C-138.251 304.031 -137.371 304.471 -135.582 303.136C-124.137 294.531 -114.793 286.068 -107.551 277.747C-77.5325 243.099 -49.3598 203.211 -23.0332 158.084C-9.27342 134.483 1.03571 107.432 12.7507 82.0004C35.073 33.394 51.9851 -20.3243 72.3478 -67.5675C101.23 -134.648 133.535 -204.568 169.262 -277.329C173.011 -284.968 182.454 -302.917 197.591 -331.175C206.594 -348.045 215.668 -366.164 224.812 -385.532C225.041 -385.998 225.395 -386.392 225.834 -386.669C226.273 -386.946 226.779 -387.095 227.294 -387.1C227.809 -387.104 228.313 -386.963 228.748 -386.694C229.183 -386.424 229.532 -386.037 229.754 -385.575C230.691 -383.644 230.89 -381.528 230.35 -379.228C226.346 -362.614 221.149 -348.229 214.759 -336.074C179.997 -270.044 148.076 -204.668 118.995 -139.945C118.256 -138.297 118.782 -137.346 120.571 -137.09C121.309 -136.977 122.005 -137.105 122.658 -137.474C125.612 -139.121 126.379 -138.297 124.959 -135.003L108.813 -97.8133C108.756 -97.6713 108.785 -97.5577 108.898 -97.4725L110.091 -96.7057C110.716 -96.3365 111.227 -96.4359 111.625 -97.0039C118.441 -106.759 124.873 -115.961 130.028 -126.866C149.681 -168.586 170.498 -211.896 192.479 -256.796C201.567 -275.398 210.698 -294.071 219.871 -312.815C219.934 -312.936 220.02 -313.044 220.125 -313.132C220.231 -313.22 220.352 -313.286 220.484 -313.325C220.615 -313.365 220.752 -313.378 220.889 -313.363C221.025 -313.349 221.157 -313.307 221.277 -313.241L222.725 -312.474C223.577 -312.019 223.818 -311.352 223.449 -310.472L202.788 -261.098C202.561 -260.559 202.732 -260.218 203.3 -260.076L204.45 -259.693C204.677 -259.636 204.847 -259.707 204.961 -259.906C225.92 -300.375 246.24 -340.391 265.921 -379.952C270.309 -388.77 277.295 -398.653 282.024 -408.92C300.427 -448.793 318.433 -488.51 336.041 -528.071ZM197.679 -246.722C198.055 -246.513 198.665 -246.764 199.377 -247.419C200.089 -248.074 200.844 -249.08 201.476 -250.215C202.108 -251.35 202.565 -252.522 202.747 -253.472C202.928 -254.422 202.82 -255.074 202.445 -255.283C202.069 -255.491 201.459 -255.241 200.747 -254.586C200.035 -253.931 199.28 -252.925 198.648 -251.789C198.016 -250.654 197.559 -249.483 197.377 -248.532C197.196 -247.582 197.304 -246.931 197.679 -246.722ZM37.9698 96.9103C40.5258 90.989 43.6356 86.1326 45.8933 80.2112C52.8229 62.0921 59.724 44.1292 66.5968 26.3224C66.8333 25.7039 66.8289 25.019 66.5843 24.4036C66.3397 23.7882 65.8728 23.2871 65.2762 22.9997L64.0834 22.4459C63.9431 22.3795 63.7912 22.3413 63.6369 22.3334C63.4827 22.3254 63.3293 22.348 63.186 22.3998C63.0427 22.4515 62.9125 22.5313 62.8032 22.6345C62.6938 22.7375 62.6076 22.8618 62.5498 22.9997C50.1675 51.7687 37.9272 80.5521 25.8288 109.349C18.5868 126.73 7.51089 142.577 0.567139 159.873C-2.41486 167.285 -5.92224 174.442 -9.95502 181.343C-28.0599 212.356 -47.4002 242.729 -68.4445 274.977C-68.7285 275.403 -68.6575 275.773 -68.2315 276.085L-67.1239 276.937C-66.3003 277.562 -65.5903 277.448 -64.9939 276.596C-50.8224 256.177 -36.1539 234.806 -20.9884 212.484C-10.3384 196.807 -2.32965 178.787 7.51089 162.003C12.9637 152.716 18.1467 142.407 23.0598 131.075C28.0582 119.573 33.0282 108.185 37.9698 96.9103ZM-5.63965 161.834C-5.5643 161.71 -5.51419 161.572 -5.49216 161.428C-5.47015 161.284 -5.47668 161.137 -5.51138 160.996C-5.54608 160.855 -5.60825 160.722 -5.69437 160.605C-5.78046 160.487 -5.88882 160.388 -6.01324 160.313L-6.74216 159.872C-6.86655 159.796 -7.00458 159.746 -7.14838 159.724C-7.29214 159.702 -7.43887 159.709 -7.58014 159.743C-7.72141 159.778 -7.85443 159.84 -7.97168 159.926C-8.0889 160.012 -8.18802 160.121 -8.26337 160.245L-46.2202 222.919C-46.2956 223.043 -46.3457 223.181 -46.3677 223.325C-46.3897 223.469 -46.3832 223.616 -46.3485 223.757C-46.3138 223.898 -46.2516 224.031 -46.1655 224.148C-46.0794 224.266 -45.9711 224.365 -45.8466 224.44L-45.1177 224.881C-44.9933 224.957 -44.8553 225.007 -44.7115 225.029C-44.5677 225.051 -44.421 225.044 -44.2797 225.01C-44.1385 224.975 -44.0054 224.913 -43.8882 224.827C-43.771 224.741 -43.6718 224.632 -43.5965 224.508L-5.63965 161.834Z" fill="#F8C7CF"/>
<path d="M466.992 -528.071H534.343C535.706 -525.884 535.408 -523.499 533.448 -520.915C533.363 -520.801 533.377 -520.687 533.491 -520.574L534.471 -519.807C534.953 -519.438 535.379 -519.509 535.749 -520.02L541.414 -528.071H544.567C544.368 -525.884 544.027 -524.436 543.544 -523.726C535.536 -512.054 527.484 -501.02 521.946 -487.9C516.579 -475.035 509.252 -461.985 499.965 -448.75C490.252 -434.82 485.097 -417.993 476.45 -402.828C450.435 -357.132 425.273 -310.969 400.963 -264.336C396.192 -255.177 388.737 -245.549 383.241 -235.624C343.822 -164.34 307.371 -99.1765 273.888 -40.1331C257.416 -11.0801 239.197 20.2024 219.232 53.7142C217.869 56.0146 216.122 60.658 216.165 63.2992C216.335 74.9999 214.56 85.7776 210.84 95.6324C210.357 96.9672 210.755 97.9328 212.033 98.5292C212.771 98.8984 213.524 98.941 214.29 98.657C215.512 98.231 216.335 98.6144 216.761 99.8072C219.999 109.037 219.147 117.628 214.205 125.58C212.189 128.846 212.771 131.374 215.952 133.163C217.287 133.93 217.812 135.066 217.528 136.571L216.42 142.748C215.767 146.383 216.619 146.766 218.976 143.898C222.299 139.837 224.003 135.108 224.088 129.712C224.088 128.974 224.458 128.605 225.196 128.605L226.815 128.562C227.269 128.562 227.525 128.789 227.582 129.244C228.973 141.683 227.283 153.199 222.512 163.792C220.922 167.342 219.445 170.92 218.082 174.527C213.424 186.91 208.497 199.193 203.3 211.376C199.977 219.129 199.466 227.394 196.228 235.36C186.828 258.25 179.359 282.518 173.821 308.163C170.924 321.582 165.641 332.828 161.509 345.395C147.253 389.301 133.507 431.12 120.273 470.852C112.832 493.145 94.585 566.658 65.5319 691.391C65.1343 693.038 65.7591 693.62 67.4063 693.137C68.4287 692.825 69.0251 692.101 69.1955 690.965C70.6439 681.209 77.5876 677.375 81.5068 669.154C91.5178 648.109 97.9077 628.769 109.112 605.51C120.528 581.739 129.006 557.414 140.55 533.771C145.279 524.101 148.303 514.133 151.797 504.079C154.267 497.05 159.251 491.342 161.509 484.185C163.128 478.96 165.23 473.876 167.814 468.934C174.005 457.007 180.012 444.582 185.834 431.66C193.076 415.514 197.208 397.878 204.918 382.883C215.739 361.966 222.81 340.879 232.225 319.878C242.421 297.186 252.715 273.984 263.11 250.27C275.805 221.387 293.086 186.597 314.954 145.9C318.447 139.397 320.35 131.615 320.662 122.555C320.691 121.079 321.301 119.9 322.494 119.02C323.914 117.969 325.547 117.458 327.393 117.486C329.154 117.514 330.432 118.31 331.227 119.872C332.448 122.229 334.294 123.649 336.765 124.132C337.428 124.255 338.022 124.624 338.431 125.167C338.84 125.71 339.036 126.388 338.98 127.071C338.838 129.144 339.108 131.132 339.789 133.035C340.414 134.853 341.209 134.924 342.175 133.248C343.879 130.238 346.307 128.42 349.46 127.795C350.359 127.613 351.291 127.662 352.17 127.937C353.049 128.213 353.845 128.706 354.486 129.371L362.027 137.21C363.191 138.403 363.589 139.808 363.219 141.427C361.856 147.476 360.578 153.81 359.385 160.427C358.249 166.788 356.602 173.221 354.444 179.724C346.321 203.836 337.077 227.507 326.711 250.738C323.133 258.79 320.875 267.608 317.765 275.702C310.495 294.673 301.592 315.831 291.055 339.175C290.998 339.346 291.041 339.474 291.183 339.559L292.206 340.027C292.944 340.397 293.512 340.226 293.909 339.516C304.048 321.568 313.86 302.596 323.346 282.603C338.724 250.227 356.276 218.575 377.405 190.545C383.823 182.025 391.264 174.456 399.727 167.839C414.126 156.508 434.404 162.429 451.231 166.178C458.771 167.882 463.329 173.846 471.295 174.527C472.971 174.669 474.348 175.408 475.427 176.742L482.584 185.859C482.926 186.291 483.367 186.635 483.87 186.862C484.372 187.089 484.922 187.193 485.473 187.163C486.023 187.134 486.559 186.973 487.035 186.695C487.511 186.416 487.913 186.027 488.207 185.561C493.972 176.444 500.093 167.697 506.568 159.319C528.521 130.806 550.786 102.548 573.364 74.5455C585.548 59.4226 598.498 39.7841 606.848 25.3853C622.439 -1.59454 639.735 -32.6072 658.734 -67.6526C676.03 -99.6451 708.022 -145.653 733.795 -188.21C751.304 -217.135 768.94 -245.72 785.383 -275.795C794.954 -293.29 805.235 -310.514 816.226 -327.469C827.813 -345.361 836.929 -363.977 848.857 -381.315C857.718 -394.237 866.124 -407.599 874.076 -421.401C894.751 -457.299 915.625 -492.855 936.698 -528.071H1012.99V-481.723C1001.07 -457.81 988.925 -433.585 976.571 -409.047C969.329 -394.734 959.787 -382.252 952.077 -368.407C946.425 -358.24 940.205 -348.116 933.418 -338.034C922.171 -321.278 911.351 -303.457 900.957 -284.571C888.134 -261.311 872.585 -239.585 860.018 -216.667C855.19 -207.891 849.482 -199.428 842.893 -191.277C836.106 -182.871 830.156 -174.237 825.044 -165.377C812.065 -142.884 798.916 -119.752 785.596 -95.9815C781.123 -88.0153 778.866 -79.751 774.307 -72.083C766.554 -59.0049 763.317 -44.5209 755.564 -31.528C751.616 -24.996 748.08 -17.9813 744.956 -10.4837C732.489 19.2794 716.485 49.9229 696.946 81.4467C696.577 82.0431 696.691 82.5117 697.287 82.8525L698.267 83.4915C698.721 83.7755 699.09 83.6761 699.374 83.1933L843.021 -152.852C845.123 -156.289 844.256 -157.396 840.422 -156.175C839.002 -155.721 837.554 -155.493 836.077 -155.493C835.501 -155.502 834.938 -155.666 834.448 -155.969C833.958 -156.271 833.559 -156.7 833.292 -157.211C833.026 -157.722 832.903 -158.295 832.936 -158.87C832.968 -159.445 833.156 -160 833.479 -160.478C858.612 -197.752 882.341 -230.384 910.456 -273.069C924.94 -295.05 940.575 -316.776 957.359 -338.247C972.78 -357.97 985.049 -380.761 1001.32 -400.655C1003.03 -402.728 1004.55 -405.015 1005.88 -407.514C1008.98 -413.279 1011.35 -414.784 1012.99 -412.029V-329.215C999.249 -304.224 984.594 -278.777 969.031 -252.877C963.323 -243.377 955.314 -235.581 949.18 -226.124C923.535 -186.563 896.938 -147.641 869.39 -109.358C865.258 -103.649 859.55 -98.8357 855.886 -92.7865C839.641 -65.8918 822.133 -38.8552 803.36 -11.6765C792.285 4.38367 783.339 21.2532 773.2 37.5263C765.901 49.2271 759.085 61.4673 752.752 74.2473C745.652 88.5325 738.225 103.542 730.472 119.275C729.71 120.833 729.559 122.617 730.049 124.275C730.538 125.933 731.632 127.341 733.113 128.221C736.067 129.982 737.104 132.439 736.223 135.591C735.627 137.749 736.024 139.709 737.416 141.47C739.404 143.969 739.134 146.213 736.607 148.201C735.385 149.195 734.619 150.473 734.306 152.035C733.057 158.652 731.878 163.437 730.771 166.391C718.672 199.051 706.801 231.696 695.157 264.328C680.162 306.374 663.122 348.59 648.212 391.232C635.262 428.124 620.906 464.547 607.614 501.353C606.052 505.641 607.188 506.536 611.022 504.037C616.518 500.501 621.587 485.208 624.441 479.158C627.594 472.342 632.876 468.125 635.475 461.181C637.463 455.899 639.99 450.957 643.057 446.357C658.521 423.055 670.321 397.452 685.572 373.766C691.28 364.906 696.549 355.562 701.377 345.736C705.466 337.443 709.953 329.775 714.838 322.732C720.177 315.036 724.977 307.183 729.237 299.174C747.555 264.668 764.552 233.656 788.323 201.578C793.719 194.336 798.547 185.248 802.807 174.314C804.681 169.586 803.616 165.368 801.997 160.81C801.823 160.311 801.778 159.776 801.865 159.254C801.952 158.733 802.169 158.241 802.495 157.826C802.822 157.41 803.248 157.083 803.734 156.875C804.221 156.667 804.751 156.584 805.278 156.635C815.672 157.573 822.488 156.721 824.192 169.586C824.22 169.841 824.362 170.012 824.618 170.097L826.365 170.693C827.415 171.006 827.912 170.622 827.855 169.543C827.401 163.38 827.472 159.518 828.068 157.956C839.144 128.903 852.237 100.844 867.345 73.7787C885.805 40.7213 895.12 24.0363 895.291 23.7239C928.973 -38.8126 966.177 -105.013 1006.9 -174.876C1007.9 -176.552 1008.9 -178.299 1009.93 -180.116C1010.84 -181.735 1011.59 -181.664 1012.18 -179.903L1012.99 -177.603V-95.6407C985.588 -47.9289 957.913 0.123657 929.967 48.517C922.441 61.5526 914.986 74.2899 907.602 86.7291C900.744 98.231 890.52 105.984 885.365 118.381C884.73 119.869 883.601 121.089 882.17 121.831C871.818 127.369 870.115 138.999 862.361 147.562C862.248 147.704 862.12 147.718 861.978 147.604L861.083 146.965C860.373 146.426 860.26 145.787 860.743 145.048C865.031 138.005 868.723 130.564 871.818 122.726C873.139 119.318 872.457 116.89 871.222 113.737C870.654 112.289 870.682 110.869 871.307 109.477C875.539 100.02 880.48 90.2791 886.132 80.2539C887.069 78.5215 887.041 76.8033 886.047 75.0993C885.024 73.3669 884.087 73.4095 883.235 75.2271C879.742 82.6821 873.863 87.7088 869.816 95.1212C858.087 116.449 846.628 137.451 835.438 158.126C834.993 158.953 834.742 159.871 834.704 160.809C834.667 161.747 834.845 162.68 835.224 163.536C835.602 164.393 836.172 165.149 836.889 165.747C837.605 166.346 838.45 166.77 839.357 166.987C846.542 168.748 852.279 172.482 856.568 178.191C857.533 179.469 858.03 180.889 858.059 182.451C858.087 184.694 858.797 186.654 860.189 188.33C861.126 189.466 861.254 190.687 860.572 191.993C849.269 213.918 837.923 236.013 826.535 258.278C807.919 294.659 784.574 328.483 764.126 364.48C745.808 396.685 726.894 429.274 707.383 462.246C686.566 497.491 662.014 542.277 633.728 596.606C606.975 648.01 574.33 702.665 535.791 760.573C529.486 769.987 527.995 780.68 520.966 790.563C515.002 798.884 510.146 807.418 506.397 816.165C497.48 836.926 488.576 856.65 479.687 875.337C477.5 879.994 475.541 879.895 473.808 875.038L469.591 863.238C468.853 861.165 467.532 860.682 465.629 861.79L462.434 863.622C461.737 864.025 460.936 864.215 460.132 864.169C459.327 864.124 458.554 863.843 457.906 863.364C457.259 862.884 456.766 862.225 456.488 861.469C456.21 860.712 456.16 859.891 456.343 859.106C457.081 856.039 456.101 854.079 453.403 853.227C451.188 852.546 449.385 853.014 447.993 854.633C441.22 862.429 435.639 861.364 431.166 872.695C431.03 873.052 430.795 873.361 430.488 873.588C430.182 873.816 429.817 873.95 429.437 873.977C429.057 874.004 428.677 873.922 428.341 873.74C428.006 873.558 427.73 873.284 427.545 872.951C425.841 869.827 424.662 866.49 424.009 862.94C423.868 862.149 423.527 861.408 423.02 860.789C422.513 860.17 421.856 859.693 421.112 859.404C418.13 858.212 415.66 856.309 413.7 853.696C413.3 853.167 412.763 852.757 412.148 852.51C411.533 852.262 410.862 852.186 410.207 852.29C403.391 853.483 396.149 847.349 397.342 839.936C398.79 830.933 400.934 823.393 403.774 817.316C424.875 772.217 447.226 727.998 470.826 684.66C476.237 674.734 480.113 664.468 485.609 654.712C489.783 647.3 493.163 639.745 495.747 632.049C503.387 609.329 512.219 588.924 522.244 570.833C524.715 566.403 524.289 562.526 525.908 557.925C531.986 540.488 538.234 523.349 544.652 506.507C545.305 504.775 546.484 503.526 548.188 502.759C550.63 501.68 551.17 500.004 549.807 497.732C548.955 496.34 548.784 494.892 549.295 493.387C551.425 486.94 553.825 480.238 556.495 473.28C557.545 470.553 559.491 469.034 562.331 468.721C564.688 468.466 565.1 467.429 563.566 465.612C563.254 465.242 562.856 464.958 562.373 464.76C560.811 464.163 560.357 463.084 561.01 461.522C573.137 432.554 584.994 400.107 596.581 364.182C599.506 355.122 603 346.346 607.061 337.855C616.39 318.259 621.459 297.215 629.127 276.682C642.163 241.608 655.525 206.335 669.214 170.864C672.849 161.378 674.78 147.334 675.007 128.732C675.036 127.284 675.632 126.134 676.797 125.282C680.574 122.555 684.393 122.286 688.256 124.472C690.556 125.779 691.309 125.182 690.514 122.683C689.719 120.156 688.469 117.784 686.765 115.569C685.771 114.263 685.572 112.829 686.168 111.267L691.451 97.8476C692.104 96.2004 691.635 95.7744 690.045 96.5696C688.938 97.1093 687.858 97.7056 686.807 98.3588C685.16 99.4096 683.797 99.1114 682.718 97.4642C681.241 95.2206 679.168 93.758 676.498 93.0764C675.675 92.8655 674.917 92.4514 674.293 91.8713C673.668 91.2911 673.196 90.5634 672.92 89.7537C672.38 88.1917 671.628 86.7574 670.662 85.451C670.208 84.8547 669.626 84.4854 668.916 84.3434C668.12 84.2014 667.368 84.3008 666.658 84.6417C665.957 84.9658 665.4 85.5396 665.094 86.2541C664.788 86.9687 664.753 87.7744 664.996 88.5182C665.479 89.9667 665.664 91.4719 665.55 93.0338C665.408 94.7662 664.556 95.2632 662.994 94.5248C661.319 93.7296 660.424 92.2954 660.31 90.2222C660.254 89.1146 659.785 88.2343 658.905 87.5811C658.365 87.1551 657.811 87.1408 657.243 87.5385C656.533 88.0212 656.05 88.6744 655.795 89.498C648.922 112.559 639.309 134.554 626.955 155.485C626.671 155.94 626.77 156.295 627.253 156.55L628.233 157.061C629.028 157.487 629.624 157.289 630.022 156.465C635.617 144.821 641.481 133.319 647.616 121.959C647.985 121.249 648.539 120.752 649.277 120.468C649.618 120.326 650.001 120.312 650.427 120.425C651.478 120.653 651.847 121.277 651.535 122.3C645.968 141.101 638.229 158.694 628.318 175.081C628.176 175.308 628.19 175.535 628.361 175.763L629.17 176.7C629.908 177.58 630.604 177.552 631.257 176.615C637.988 166.675 643.469 156.153 647.701 145.048C649.575 140.064 652.855 135.591 655.326 130.82C657.513 126.617 658.081 126.815 657.03 131.416C651.918 153.824 645.003 173.803 636.284 191.354C633.075 197.801 629.695 204.319 626.145 210.907C612.939 235.331 597.902 267.452 581.032 307.268C580.138 309.398 580.351 311.741 579.967 313.999C579.683 315.561 578.916 316.839 577.667 317.833C572.938 321.667 573.705 326.779 570.68 331.38C566.591 337.628 563.85 344.614 562.459 352.339C561.209 359.382 558.809 366.51 555.259 373.724C531.659 421.734 506.44 469.233 484.927 518.904C464.763 565.508 443.804 612.112 422.05 658.717C420.772 661.443 418.684 662.423 415.787 661.656C414.708 661.372 413.643 661.443 412.593 661.869C410.69 662.664 410.477 663.772 411.954 665.192C413.43 666.612 414.524 668.216 415.234 670.005C415.688 671.141 415.617 672.235 415.021 673.286C402.127 695.949 388.353 721.551 373.699 750.093C368.076 761.027 360.592 770.782 351.249 779.359C349.119 781.319 345.569 786.53 340.599 794.993C339.747 796.499 340.017 797.748 341.408 798.742C342.289 799.395 342.8 800.247 342.942 801.298C343.311 804.025 342.331 804.664 340.003 803.215C336.964 801.312 334.621 801.838 332.973 804.791C328.344 813.084 318.83 832.055 304.432 861.705C303.494 863.607 303.452 866.149 304.304 869.33C304.645 870.693 305.525 871.417 306.945 871.503C307.541 871.531 308.01 871.815 308.351 872.355C309.203 873.718 309.089 875.01 308.01 876.231C305.227 879.412 304.148 883.104 304.772 887.307C305.923 895.146 302.472 901.195 296.295 905.625C294.989 906.591 293.753 906.52 292.589 905.412C287.562 900.598 284.495 896.466 277.679 893.271C271.942 890.601 267.498 886.072 264.345 879.682C263.635 878.29 262.613 877.211 261.278 876.444C253.042 871.673 250.046 865.127 252.289 856.806C257.515 837.295 264.757 819.531 274.015 803.513C280.107 792.991 282.961 781.958 289.181 771.734C301.79 751.059 313.69 730.085 324.88 708.814C327.89 703.049 331.809 697.326 336.637 691.646C341.209 686.25 344.461 680.911 346.392 675.629C350.141 665.263 354.799 655.238 360.365 645.553C362.211 642.316 363.532 638.652 364.327 634.563C365.151 630.388 366.187 626.497 367.437 622.89C367.92 621.47 368.814 620.405 370.12 619.695L374.807 617.097C376.397 616.216 376.937 614.91 376.425 613.177C375.062 608.747 375.914 604.998 378.981 601.931C379.927 600.958 380.576 599.748 380.856 598.438C381.906 593.61 384.363 589.96 388.225 587.49C389.645 586.609 390.299 585.331 390.185 583.656C389.986 579.992 391.733 578.388 395.425 578.842C398.066 579.183 399.415 578.004 399.472 575.306C399.529 572.523 398.208 570.606 395.51 569.555C395.008 569.361 394.591 569.001 394.333 568.54C394.075 568.079 393.994 567.548 394.104 567.042C394.388 565.764 394.985 564.656 395.893 563.719C396.745 562.839 397.413 561.845 397.896 560.737L423.456 498.925C423.856 497.95 424.569 497.138 425.481 496.621C426.394 496.103 427.451 495.909 428.482 496.071C432.572 496.724 435.213 494.651 436.406 489.851C436.86 488.033 436.164 487.323 434.318 487.721L432.188 488.147C430.683 488.459 429.746 487.863 429.377 486.358C429.292 485.875 429.32 485.392 429.462 484.909C429.689 484.256 430.385 483.56 431.549 482.822C437.4 479.045 440.069 473.592 439.558 466.464C439.475 465.152 439.74 463.844 440.325 462.672L452.509 439.157C452.735 438.732 453.006 438.332 453.318 437.964C454.823 436.232 456.399 435.423 458.047 435.536C460.318 435.678 461.213 434.627 460.73 432.384C458.487 422.302 461.724 415.301 470.443 411.382C471.835 410.757 472.672 409.707 472.956 408.23C473.638 404.85 474.987 401.882 477.003 399.326C478.111 397.963 478.352 396.458 477.728 394.811C476.79 392.283 476.947 389.869 478.196 387.569C488.136 369.365 499.07 349.612 510.998 328.312C534.939 285.5 556.963 241.75 582.608 199.917C601.352 169.33 618.321 138.09 633.515 106.197C640.076 92.48 638.698 91.6423 629.383 103.684C613.962 123.564 596.851 143.912 578.05 164.729C557.091 187.904 534.343 206.605 515.641 230.759C514.647 232.037 513.37 232.846 511.807 233.187L508.783 233.911C508.203 234.022 507.663 234.337 507.249 234.806L495.577 248.055C494.327 249.474 492.865 249.758 491.189 248.906C489.542 248.055 488.236 246.748 487.27 244.987C484.657 240.159 482.655 240.401 481.263 245.711C476.691 263.092 471.465 280.274 465.587 297.257C453.318 332.757 440.794 369.833 428.014 408.485C427.701 409.394 427.602 410.317 427.715 411.254C427.772 411.624 427.9 411.979 428.099 412.319C428.951 413.683 428.951 415.046 428.099 416.409C424.662 421.862 421.879 427.584 419.749 433.577C406.998 469.417 393.834 506.152 380.259 543.782C377.249 552.104 373.273 560.126 368.331 567.851C360.72 579.722 353.805 593.795 347.585 610.068C338.696 633.412 326.782 657.453 311.844 682.189C307.584 689.204 304.19 696.261 301.663 703.361C298.34 712.62 294.279 720.046 289.479 725.641C284.168 731.832 279.695 738.336 276.06 745.152C266.83 762.532 258.225 780.566 250.245 799.253C250.216 799.282 250.188 799.282 250.159 799.253L249.18 798.827C248.896 798.685 248.825 798.458 248.967 798.146C253.709 788.064 257.401 778.507 260.043 769.476C262.513 760.956 268.222 754.566 270.565 746.217C272.269 740.167 274.427 734.09 277.04 727.984C285.73 707.536 293.782 686.79 302.685 666.342C312.313 644.19 321.145 621.996 329.182 599.758C332.505 590.599 337.191 582.293 339.96 572.75C343.027 562.242 347.173 551.72 352.399 541.184C352.768 540.417 352.683 539.721 352.143 539.096C351.32 538.159 350.567 538.202 349.886 539.224C347.159 543.314 345.086 547.858 343.666 552.856C341.366 560.993 336.509 567.638 333.74 575.306C320.989 610.976 306.491 646.661 290.246 682.359C286.327 690.965 278.872 695.267 274.74 704C268.037 718.229 260.994 732.812 253.61 747.75C253.468 748.034 253.269 748.119 253.014 748.006H252.971C252.63 747.864 252.502 747.608 252.588 747.239C255.768 734.658 260.014 722.318 265.325 710.22C272.539 693.805 279.894 676.523 287.392 658.376C287.704 657.666 287.491 657.155 286.753 656.842L285.517 656.374C285.091 656.203 284.779 656.331 284.58 656.757C277.651 672.803 267.895 694.245 255.314 721.083C242.279 748.858 230.038 779.572 218.593 813.226C211.237 834.838 205.543 858.907 201.51 885.433C201.454 885.83 201.269 886.171 200.957 886.455C200.587 886.739 200.161 886.881 199.679 886.881C198.656 886.91 198.088 886.412 197.975 885.39C196.697 873.093 197.506 860.952 200.403 848.967C204.776 830.593 211.053 810.329 219.232 788.177C231.728 754.41 244.536 722.034 257.657 691.05C262.343 679.974 267.98 665.859 274.569 648.706C280.022 634.506 285.83 620.433 291.992 606.489C297.9 593.113 302.926 580.958 307.073 570.024C311.475 558.295 315.863 546.438 320.236 534.453C324.581 522.61 327.095 510.64 332.164 499.01C335.345 491.711 338.327 484.285 341.11 476.73C354.146 441.415 367.352 408.017 379.322 372.063C389.972 340.084 401.346 307.013 413.445 272.848C421.482 250.156 427.73 227.862 432.188 205.966C432.643 203.694 432.075 203.396 430.484 205.071C401.815 235.658 387.288 272.336 367.778 307.992C358.292 325.316 348.877 342.896 339.534 360.731C316.388 404.921 300.91 433.122 293.1 445.334C273.135 476.46 254.391 506.195 236.868 534.538C233.418 540.119 227.922 544.123 224.131 549.832C205.387 577.891 186.373 608.733 167.09 642.358C163.881 647.953 160.884 653.321 158.101 658.461C140.096 691.32 122.772 724.405 106.13 757.719C101.614 766.778 97.7799 775.823 94.6276 784.855C89.0896 800.744 80.1862 814.121 72.0071 828.519C71.2971 829.769 71.0273 831.09 71.1977 832.481C71.8509 837.565 69.9907 841.74 65.6171 845.006C63.8279 846.34 62.6493 845.928 62.0813 843.77C61.2009 840.334 59.5963 837.025 57.2675 833.844C57.0974 833.619 56.8724 833.44 56.614 833.326C56.3555 833.211 56.0722 833.165 55.7906 833.19C55.5092 833.216 55.2388 833.313 55.0053 833.472C54.7717 833.631 54.5826 833.847 54.4559 834.1L48.9606 845.304C48.0234 847.235 46.9442 847.32 45.723 845.559L44.9988 844.537C43.8344 842.861 43.7634 841.143 44.7858 839.382C47.4554 834.838 49.202 830.536 50.0255 826.475C50.4799 824.089 49.557 822.513 47.2566 821.746C46.717 821.576 46.1916 821.405 45.6804 821.235C43.3232 820.468 41.7754 821.277 41.037 823.663C38.197 832.779 37.5296 842.194 39.0348 851.907C39.3188 853.696 40.3696 854.534 42.1872 854.42C43.7776 854.307 45.3538 853.88 46.9158 853.142C53.675 849.876 54.5412 851.026 49.5144 856.593C41.2216 865.709 32.1905 865.851 22.4209 857.019C20.6033 855.4 19.6661 855.812 19.6093 858.254C19.3821 867.058 17.6781 875.493 14.4973 883.558C7.25537 901.848 -0.043396 922.963 -7.39896 946.904C-11.2614 959.372 -15.3793 970.391 -19.7529 979.962C-32.7885 1008.42 -45.7246 1036.58 -58.5613 1064.44C-78.4129 1107.58 -102.169 1167.16 -129.831 1243.19C-147.51 1291.79 -166.467 1340.23 -182.016 1389.73C-187.326 1406.57 -192.666 1423.34 -198.033 1440.04H-256.352C-251.212 1422.63 -245.674 1405.43 -239.738 1388.45C-238.844 1385.85 -236.629 1383.77 -235.223 1381.51C-234.484 1380.31 -234.229 1379.02 -234.456 1377.63C-235.904 1369.48 -232.922 1364.96 -225.51 1364.08C-223.92 1363.91 -223.21 1363.02 -223.38 1361.4C-223.636 1358.9 -224.828 1357.17 -226.958 1356.2C-228.492 1355.52 -228.875 1354.43 -228.109 1352.92C-223.849 1344.63 -221.151 1336.52 -220.015 1328.6C-219.787 1326.92 -218.85 1326.24 -217.203 1326.55C-215.556 1326.89 -213.809 1326.88 -211.963 1326.51C-210.742 1326.28 -210.117 1325.55 -210.089 1324.3C-210.06 1323.56 -210.359 1322.89 -210.983 1322.29C-211.58 1321.73 -212.29 1321.48 -213.113 1321.57C-213.483 1321.6 -213.823 1321.71 -214.136 1321.91C-216.124 1323.07 -216.848 1322.52 -216.308 1320.25C-215.343 1316.41 -214.235 1312.68 -212.986 1309.05C-203.841 1282.58 -195.96 1259.79 -189.343 1240.67C-188.86 1239.28 -189.329 1238.77 -190.749 1239.14C-191.459 1239.34 -191.97 1239.76 -192.282 1240.42C-195.392 1247.06 -199.865 1252.34 -202.676 1259.25C-208.64 1273.87 -215.272 1288.21 -222.571 1302.27C-225.851 1308.53 -227.129 1315.35 -231.474 1320.76C-238.801 1329.75 -240.676 1343.47 -246 1354.03C-248.159 1358.32 -250.743 1364.87 -253.754 1373.67C-256.196 1380.83 -259.945 1387.41 -265 1393.44V1349.86L-184.316 1176.73C-184.174 1176.45 -183.975 1176.38 -183.72 1176.52L-182.74 1176.94C-181.774 1177.4 -181.533 1178.08 -182.016 1178.99C-184.941 1184.5 -187.099 1190.09 -188.491 1195.77C-189.513 1200.06 -188.817 1200.36 -186.403 1196.67C-183.109 1191.64 -180.709 1186.05 -179.204 1179.88C-178.324 1176.25 -176.634 1173.15 -174.135 1170.6C-172.885 1169.32 -172.076 1169.55 -171.706 1171.28L-169.917 1179.5C-169.576 1181.03 -169.818 1182.47 -170.641 1183.8C-171.863 1185.85 -172.487 1188.02 -172.516 1190.32C-172.573 1192.93 -172.104 1193.02 -171.11 1190.58C-161.369 1166.24 -151.954 1142.24 -142.866 1118.58C-136.278 1101.34 -129.391 1084.36 -122.205 1067.63C-114.85 1050.51 -107.608 1033.55 -100.48 1016.77C-98.4916 1012.08 -96.248 1007.65 -93.7488 1003.48C-87.1884 992.529 -83.9934 980.771 -78.285 969.269C-56.0479 924.369 -32.7317 880.136 -8.33615 836.571C-6.54697 833.418 -6.12097 830.777 -5.0134 827.454C-4.44537 825.779 -3.42297 825.424 -1.9462 826.39C-0.0150146 827.611 1.50439 829.329 2.612 831.544C3.29358 832.879 4.08878 832.95 4.99759 831.757C5.48038 831.189 5.63657 830.536 5.46619 829.797C1.74579 812.019 -0.128601 800.659 -0.157013 795.718C-0.583008 739.614 10.7911 693.435 26.4679 619.993C35.7546 576.598 45.3538 533.615 55.2654 491.044C57.4805 481.558 55.4073 480.408 49.0458 487.593C44.9136 492.279 45.4674 504.122 41.8464 510.299C37.8988 516.944 35.6268 521.02 35.0304 522.525C17.4225 566.318 0.0844116 610.21 -16.9839 654.201C-34.748 699.996 -58.1353 743.022 -77.8591 788.05C-85.0442 804.38 -92.5134 819.971 -100.267 834.824C-101.204 836.613 -102.581 837.906 -104.399 838.701C-104.986 838.955 -105.459 839.418 -105.726 840C-105.993 840.582 -106.036 841.241 -105.847 841.853C-104.782 845.261 -104.569 849.266 -106.657 852.333C-109.809 857.076 -112.237 862.145 -113.941 867.541C-114.31 868.762 -114.083 869.841 -113.259 870.778C-113.069 870.994 -112.831 871.164 -112.566 871.275C-112.301 871.386 -112.015 871.435 -111.731 871.419C-111.447 871.402 -111.171 871.32 -110.927 871.18C-110.682 871.039 -110.474 870.844 -110.32 870.608C-105.691 863.593 -100.593 857.516 -95.0268 852.375C-91.6472 849.28 -91.0366 849.748 -93.195 853.781L-121.737 907.286C-122.059 907.885 -122.255 908.545 -122.311 909.223C-122.367 909.901 -122.282 910.583 -122.062 911.227C-121.842 911.871 -121.492 912.463 -121.033 912.965C-120.574 913.467 -120.016 913.869 -119.394 914.145C-115.929 915.679 -111.641 914.5 -106.529 910.609C-106.38 910.481 -106.191 910.408 -105.995 910.402C-105.798 910.397 -105.606 910.46 -105.45 910.58C-105.295 910.701 -105.186 910.871 -105.142 911.063C-105.098 911.254 -105.121 911.455 -105.208 911.632C-107.821 918.107 -109.937 925.065 -111.555 932.505C-114.452 945.924 -123.569 953.124 -136.263 957.213C-137.712 957.696 -138.748 957.256 -139.373 955.893C-142.696 948.736 -148.191 947.018 -155.859 950.738C-156.654 951.108 -156.924 950.88 -156.669 950.057L-156.072 948.054C-155.675 946.691 -155.774 945.371 -156.37 944.093C-158.387 939.605 -162.334 937.007 -168.213 936.297C-169.946 936.07 -170.712 936.837 -170.514 938.597C-168.866 952.201 -170.13 966.969 -174.305 982.901C-182.882 1015.5 -194.37 1045.38 -208.768 1072.53C-211.125 1076.96 -215.144 1087.11 -220.824 1102.99C-225.908 1117.3 -240.633 1148.8 -265 1197.48V1046.55C-255.656 1023.8 -246.554 1000.85 -237.694 977.704C-233.462 966.685 -230.863 956.404 -229.898 946.862C-229.822 946.149 -229.932 945.432 -230.216 944.781C-230.5 944.131 -230.948 943.57 -231.517 943.155C-232.482 942.417 -233.49 942.332 -234.541 942.9C-236.658 944.07 -238.411 945.793 -239.611 947.884C-246.994 960.891 -255.458 974.239 -265 987.928V961.942C-257.957 944.504 -247.733 929.737 -234.328 917.638C-232.17 915.679 -231.176 916.133 -231.346 919.001C-231.375 919.371 -231.332 919.726 -231.218 920.066C-230.834 921.163 -230.028 922.09 -228.961 922.665C-225.354 924.653 -222.145 927.081 -219.333 929.95C-217.402 931.909 -216.081 931.568 -215.371 928.927L-213.795 923.048C-213.426 921.714 -212.56 920.989 -211.196 920.876L-195.903 919.598C-194.568 919.484 -193.361 919.797 -192.282 920.535C-188.448 923.233 -184.6 926.314 -180.738 929.779C-180.255 930.234 -179.772 930.219 -179.289 929.736C-178.551 928.998 -178.451 928.175 -178.991 927.266C-187.028 913.918 -188.391 898.639 -183.081 881.428C-182.768 880.406 -183.066 879.597 -183.975 879C-184.316 878.773 -184.714 878.659 -185.168 878.659C-185.622 878.659 -185.963 878.858 -186.19 879.256C-190.592 886.952 -194.881 895.643 -199.056 905.327C-199.141 905.469 -199.254 905.511 -199.396 905.455L-200.717 905.029C-201.398 904.773 -201.626 904.304 -201.398 903.623C-197.139 891.382 -191.956 877.594 -185.85 862.258C-181.306 850.842 -182.47 850.217 -189.343 860.384C-190.99 862.798 -192.14 865.78 -192.793 869.33C-193.361 872.426 -195.065 873.306 -197.905 871.971L-203.358 869.458C-203.858 869.223 -204.273 868.84 -204.546 868.361C-204.82 867.881 -204.94 867.33 -204.888 866.78C-204.837 866.23 -204.618 865.71 -204.26 865.29C-203.902 864.869 -203.424 864.569 -202.889 864.431C-201.157 864.005 -200.816 863.096 -201.867 861.705C-203.259 859.859 -204.352 860.015 -205.147 862.173C-210.628 877.225 -216.237 892.476 -221.974 907.925C-223.337 911.617 -225.95 913.662 -229.813 914.06C-230.113 914.093 -230.418 914.058 -230.704 913.959C-230.989 913.86 -231.25 913.698 -231.466 913.487C-231.682 913.275 -231.848 913.017 -231.953 912.734C-232.057 912.45 -232.097 912.146 -232.07 911.845C-231.559 905.341 -230.168 898.837 -227.896 892.334C-208.527 837.011 -186.063 784.528 -160.503 734.885C-135.241 685.767 -112.535 642.997 -92.3004 595.626C-87.6712 584.806 -82.7438 574 -77.5183 563.208C-69.1261 545.955 -62.2675 528.233 -53.918 510.767C-39.3488 480.294 -24.8933 449.807 -10.5514 419.306C-9.01776 416.096 -7.79657 412.774 -6.88776 409.337C-5.56717 404.438 -5.18378 399.241 -2.15918 394.981C4.57159 385.354 5.168 374.32 10.7486 363.798C20.7169 345.054 26.3827 323.03 35.5417 303.818C41.3068 291.776 45.9786 279.777 49.5569 267.821C59.6531 234.124 75.9262 201.408 91.0918 170.523C95.6642 161.236 102.012 152.162 110.134 143.302C111.327 142.024 112.363 142.137 113.244 143.642L118.398 152.12C118.842 152.866 119.483 153.476 120.251 153.883C121.018 154.289 121.883 154.476 122.75 154.423C123.617 154.37 124.453 154.08 125.166 153.583C125.878 153.087 126.44 152.404 126.79 151.609L147.707 104.238C148.332 102.818 148.232 101.454 147.409 100.148L136.077 82.5117C135.195 81.1304 134.658 79.5551 134.509 77.9172C134.361 76.2795 134.607 74.6268 135.225 73.0971C138.207 65.7983 141.743 58.7552 145.833 51.9677C214.929 -61.7312 285.347 -177.731 345.072 -293.772C352.882 -308.938 366.372 -333.092 385.542 -366.235C399.458 -390.289 412.507 -414.685 424.691 -439.421C439.146 -468.815 453.247 -498.365 466.992 -528.071ZM815.587 -217.732L814.607 -218.286C814.437 -218.371 814.309 -218.342 814.224 -218.2C765.859 -136.267 728.953 -73.9858 703.507 -31.3576C703.109 -30.7044 703.024 -29.966 703.251 -29.1424C703.649 -27.4668 704.401 -27.2964 705.509 -28.6312C711.359 -35.788 716.954 -43.5837 722.293 -52.0185C757.935 -108.08 789.175 -162.849 816.013 -216.326C816.325 -216.951 816.183 -217.419 815.587 -217.732ZM794.926 -135.77C775.798 -123.927 766.682 -94.4905 754.882 -75.3632C751.133 -69.314 750.579 -63.4779 749.088 -56.7897C747.015 -47.4177 748.705 -46.6793 754.158 -54.5745C769.891 -77.3796 785.156 -102.883 799.953 -131.084C803.957 -138.752 802.281 -140.314 794.926 -135.77ZM390.526 232.335C389.546 234.849 387.97 236.936 387.075 239.62C386.451 241.636 386.933 241.948 388.524 240.557C392.613 237.035 395.311 233.23 396.618 229.14C397.356 226.925 396.689 226.343 394.615 227.394C392.826 228.331 391.463 229.978 390.526 232.335ZM379.38 256.338C379.776 256.556 380.494 256.154 381.378 255.219C382.262 254.284 383.238 252.893 384.092 251.351C384.947 249.81 385.609 248.245 385.934 247C386.259 245.755 386.219 244.932 385.824 244.713C385.429 244.494 384.71 244.896 383.827 245.832C382.943 246.767 381.966 248.158 381.112 249.699C380.258 251.241 379.595 252.806 379.271 254.051C378.946 255.296 378.985 256.118 379.38 256.338ZM455.278 246.776C454.624 246.492 454.142 246.663 453.829 247.288C449.115 256.006 446.147 265.35 444.926 275.318C444.613 277.761 444.912 277.846 445.82 275.574C449.314 266.742 452.636 257.526 455.789 247.927C455.959 247.387 455.803 247.018 455.32 246.819L455.278 246.776ZM323.976 361.311C324.665 361.675 328.141 356.731 333.638 347.566C339.135 338.401 346.204 325.766 353.29 312.439C360.377 299.112 366.899 286.185 371.423 276.502C375.947 266.819 378.102 261.174 377.414 260.808C376.725 260.444 373.249 265.388 367.752 274.553C362.255 283.718 355.186 296.353 348.1 309.68C341.013 323.007 334.491 335.934 329.967 345.617C325.443 355.3 323.288 360.945 323.976 361.311ZM355.892 268.715C357.397 267.125 358.193 265.307 358.278 263.263C358.391 260.849 357.809 260.664 356.531 262.709C347.102 277.846 339.079 293.083 332.462 308.418C327.606 319.75 320.151 329.761 315.763 341.305C314.23 345.367 314.712 345.636 317.212 342.115C322.664 334.532 330.29 328.866 334.124 320.645C339.008 310.108 344.674 299.643 351.121 289.249C354.302 284.165 355.48 278.599 354.657 272.549C354.458 271.101 354.87 269.823 355.892 268.715ZM441.177 283.455C440.013 285.557 439.303 287.899 439.047 290.484C438.763 292.869 439.331 293.097 440.751 291.165C442.455 288.865 443.08 286.38 442.625 283.711C442.37 282.234 441.887 282.149 441.177 283.455ZM411.698 375.598C411.897 375.655 412.025 375.584 412.081 375.385C417.79 357.181 423.825 339.474 430.186 322.263C430.385 321.752 430.2 321.383 429.632 321.156H429.59C429.221 321.014 428.951 321.127 428.78 321.497C421.766 338.65 415.475 356.173 409.909 374.065C409.738 374.661 409.951 375.059 410.548 375.258L411.698 375.598ZM305.497 366.056C308.876 362.62 310.751 358.658 311.12 354.171C311.404 350.677 310.708 350.479 309.032 353.574L292.291 384.587C292.04 385.059 291.92 385.591 291.945 386.125C291.97 386.659 292.138 387.176 292.432 387.618C292.726 388.061 293.134 388.414 293.612 388.638C294.09 388.862 294.62 388.949 295.145 388.889C297.644 388.634 299.76 387.455 301.492 385.354C302.344 384.303 302.699 383.096 302.557 381.733C302.131 378.012 302.415 374.036 303.409 369.805C303.75 368.356 304.446 367.107 305.497 366.056ZM314.371 383.42C314.667 383.561 315.335 382.89 316.229 381.554C317.122 380.219 318.168 378.329 319.136 376.3C320.104 374.271 320.914 372.27 321.39 370.735C321.865 369.2 321.966 368.259 321.671 368.117C321.375 367.977 320.706 368.648 319.813 369.983C318.92 371.318 317.874 373.208 316.906 375.237C315.938 377.266 315.128 379.268 314.652 380.802C314.177 382.337 314.076 383.279 314.371 383.42ZM289.351 391.829C285.887 396.714 283.089 401.925 280.959 407.463C280.76 408.003 280.917 408.4 281.428 408.656L282.365 409.167C282.422 409.195 282.464 409.181 282.493 409.124C285.162 403.7 288.187 398.659 291.566 394.001C292.134 393.263 292.007 392.667 291.183 392.212L290.118 391.658C289.806 391.516 289.55 391.573 289.351 391.829ZM307.536 397.555C307.614 397.413 307.662 397.256 307.68 397.095C307.697 396.934 307.682 396.77 307.636 396.615C307.591 396.459 307.515 396.314 307.413 396.188C307.311 396.061 307.185 395.956 307.043 395.879L306.818 395.757C306.53 395.6 306.192 395.564 305.878 395.656C305.564 395.749 305.299 395.962 305.142 396.25L289.399 425.124C289.322 425.266 289.273 425.423 289.256 425.584C289.238 425.745 289.253 425.909 289.299 426.064C289.345 426.22 289.421 426.365 289.523 426.491C289.625 426.618 289.75 426.723 289.893 426.8L290.117 426.923C290.405 427.079 290.743 427.115 291.057 427.023C291.372 426.93 291.636 426.717 291.793 426.429L307.536 397.555ZM275.624 422.358C275.7 422.228 275.749 422.084 275.77 421.934C275.79 421.784 275.781 421.632 275.742 421.486C275.703 421.34 275.636 421.203 275.545 421.083C275.453 420.963 275.339 420.862 275.209 420.786L274.251 420.228C274.121 420.152 273.977 420.103 273.827 420.083C273.677 420.062 273.525 420.072 273.379 420.11C273.233 420.149 273.096 420.216 272.976 420.308C272.855 420.399 272.755 420.514 272.679 420.644L241.565 474.104C241.489 474.234 241.439 474.378 241.419 474.528C241.398 474.678 241.408 474.83 241.446 474.976C241.485 475.122 241.552 475.259 241.643 475.379C241.735 475.499 241.849 475.6 241.98 475.676L242.937 476.234C243.068 476.31 243.212 476.359 243.362 476.379C243.511 476.399 243.664 476.39 243.81 476.351C243.956 476.313 244.093 476.246 244.213 476.154C244.333 476.063 244.434 475.948 244.51 475.818L275.624 422.358ZM276.912 446.058C275.861 447.024 275.308 447.663 275.251 447.975C274.228 452.605 275.066 452.974 277.764 449.083C279.525 446.555 281.229 443.701 282.876 440.52C284.353 437.652 283.969 437.382 281.726 439.711C279.852 441.628 278.872 444.269 276.912 446.058ZM202.49 564.06C202.047 563.314 201.862 562.443 201.962 561.581C202.062 560.719 202.442 559.914 203.044 559.289C209.661 552.558 214.56 544.791 217.741 535.987C218.252 534.567 219.104 533.402 220.297 532.493C225.665 528.461 229.584 523.278 232.055 516.944C232.509 515.78 232.225 514.871 231.203 514.218C230.663 513.877 230.095 513.678 229.499 513.622C228.05 513.48 226.943 514.019 226.176 515.24C219.445 526.089 212.686 536.271 205.898 545.785C200.573 553.325 200.531 562.143 194.993 569.598C190.278 575.931 186.189 583.017 182.724 590.855C182.184 592.076 182.554 592.843 183.832 593.156L185.28 593.496C186.586 593.837 187.41 593.354 187.751 592.048C189.852 583.954 194.354 576.882 201.255 570.833C203.584 568.788 203.995 566.531 202.49 564.06ZM412.695 832.893C413.133 833.073 413.97 832.239 415.02 830.572C416.07 828.905 417.247 826.542 418.294 824.004C419.34 821.466 420.169 818.96 420.598 817.037C421.028 815.115 421.023 813.933 420.584 813.752C420.146 813.571 419.309 814.406 418.259 816.073C417.209 817.74 416.032 820.102 414.985 822.641C413.939 825.179 413.11 827.685 412.681 829.607C412.251 831.53 412.256 832.712 412.695 832.893ZM5.38098 862.429C1.4902 869.642 -1.53439 877.495 -3.69278 885.987C-3.72119 886.043 -3.707 886.1 -3.65018 886.157C-3.3378 886.498 -2.9686 886.697 -2.5426 886.753C-1.435 886.952 -0.62561 886.555 -0.11441 885.561L16.4569 854.633C17.0249 853.582 16.9113 852.617 16.1161 851.736C11.8845 846.937 8.73215 841.64 6.65897 835.847C6.6192 835.755 6.55368 835.678 6.47046 835.623C6.38721 835.569 6.28986 835.54 6.19037 835.54C6.09088 835.54 5.99353 835.569 5.91028 835.623C5.82706 835.678 5.76154 835.755 5.72177 835.847L-6.46179 867.711C-7.22858 869.756 -6.73157 870.125 -4.97076 868.819C-1.93198 866.547 0.39679 863.465 2.01559 859.575C2.21439 859.063 2.58359 858.893 3.12317 859.063L4.18817 859.404C5.77856 859.944 6.17618 860.952 5.38098 862.429ZM-211.232 944.515C-210.712 944.535 -210.192 944.416 -209.702 944.165C-209.211 943.914 -208.759 943.535 -208.372 943.051C-207.986 942.568 -207.671 941.987 -207.447 941.344C-207.223 940.701 -207.094 940.007 -207.067 939.303C-207.013 937.881 -207.377 936.5 -208.081 935.466C-208.785 934.432 -209.77 933.828 -210.82 933.787C-211.34 933.767 -211.86 933.886 -212.351 934.137C-212.841 934.389 -213.293 934.767 -213.68 935.251C-214.066 935.735 -214.381 936.315 -214.605 936.958C-214.829 937.601 -214.958 938.295 -214.985 938.999C-215.04 940.422 -214.675 941.802 -213.971 942.836C-213.267 943.871 -212.282 944.474 -211.232 944.515ZM-208.853 1236.58C-211.864 1245.95 -216.081 1254.91 -221.506 1263.46C-221.617 1263.63 -221.693 1263.82 -221.73 1264.02C-221.766 1264.22 -221.763 1264.43 -221.719 1264.62C-221.675 1264.82 -221.592 1265 -221.474 1265.16C-221.357 1265.32 -221.208 1265.45 -221.037 1265.55L-219.929 1266.23C-219.759 1266.32 -219.631 1266.29 -219.546 1266.15C-213.44 1257.49 -209.18 1247.91 -206.766 1237.43C-206.681 1237.04 -206.837 1236.77 -207.235 1236.63L-208.257 1236.28C-208.541 1236.17 -208.74 1236.27 -208.853 1236.58ZM-226.359 1281.18C-225.911 1281.34 -225.266 1280.87 -224.567 1279.89C-223.867 1278.91 -223.17 1277.49 -222.629 1275.94C-222.36 1275.17 -222.139 1274.4 -221.976 1273.66C-221.813 1272.93 -221.712 1272.24 -221.68 1271.64C-221.647 1271.05 -221.683 1270.55 -221.785 1270.19C-221.887 1269.82 -222.054 1269.6 -222.276 1269.52C-222.724 1269.36 -223.368 1269.83 -224.068 1270.81C-224.767 1271.79 -225.464 1273.21 -226.006 1274.76C-226.274 1275.52 -226.496 1276.3 -226.659 1277.03C-226.821 1277.77 -226.922 1278.46 -226.955 1279.05C-226.988 1279.65 -226.952 1280.14 -226.849 1280.51C-226.747 1280.87 -226.58 1281.1 -226.359 1281.18ZM-238.026 1302.1C-237.821 1302.22 -237.547 1302.2 -237.219 1302.06C-236.891 1301.92 -236.516 1301.66 -236.115 1301.29C-235.714 1300.91 -235.295 1300.44 -234.882 1299.89C-234.468 1299.34 -234.069 1298.72 -233.707 1298.08C-233.344 1297.44 -233.025 1296.78 -232.769 1296.14C-232.512 1295.5 -232.323 1294.9 -232.211 1294.36C-232.1 1293.82 -232.068 1293.37 -232.118 1293.01C-232.169 1292.66 -232.3 1292.42 -232.505 1292.3C-232.71 1292.19 -232.984 1292.2 -233.311 1292.34C-233.639 1292.48 -234.014 1292.74 -234.416 1293.12C-234.817 1293.49 -235.236 1293.97 -235.649 1294.52C-236.062 1295.07 -236.462 1295.68 -236.824 1296.32C-237.187 1296.97 -237.505 1297.63 -237.762 1298.27C-238.018 1298.9 -238.208 1299.51 -238.319 1300.05C-238.431 1300.58 -238.463 1301.04 -238.412 1301.39C-238.362 1301.75 -238.23 1301.99 -238.026 1302.1ZM-249.366 1324.72C-250.587 1326.88 -250.033 1327.52 -247.704 1326.64C-245.603 1325.87 -244.112 1324.42 -243.231 1322.29C-242.749 1321.13 -242.791 1319.99 -243.359 1318.89C-244.268 1317.15 -245.191 1317.14 -246.128 1318.84L-249.366 1324.72Z" fill="#F8C7CF"/>
<path d="M552.743 -528.071H604.971C598.027 -507.623 591.424 -486.749 583.032 -467.324C567.696 -432.051 557.444 -409.118 552.275 -398.525C532.452 -357.97 512.33 -315.569 491.911 -271.322C482.851 -251.726 474.303 -234.204 466.266 -218.754C456.922 -200.805 447.905 -183.41 439.215 -166.569C439.13 -166.427 439.172 -166.314 439.343 -166.229L440.408 -165.632C440.834 -165.377 441.189 -165.462 441.473 -165.888C476.376 -221.012 510.768 -273.154 544.649 -322.314C548.341 -327.682 551.877 -332.879 555.257 -337.906C565.566 -353.071 576.102 -367.91 586.866 -382.423C600.697 -401.053 611.105 -415.949 618.091 -427.11C638.71 -460.139 657.723 -493.793 675.133 -528.071H861.081C843.728 -502.369 832.709 -485.258 828.023 -476.739C816.55 -455.865 804.977 -435.8 793.304 -416.545C783.052 -399.647 774.589 -383.161 767.915 -367.087C746.019 -314.405 725.187 -266.693 705.421 -223.951C700.522 -213.301 691.747 -205.506 686.592 -194.813C680.344 -181.891 673.414 -169.949 665.803 -158.987C657.496 -146.973 651.149 -133.427 644.418 -120.476C640.414 -112.766 633.129 -110.593 629.466 -103.01C615.28 -73.574 596.323 -44.6061 583.202 -17.5978C571.757 6.00244 559.786 30.0571 547.291 54.5662C541.71 65.4717 534.809 75.5679 528.547 86.0048C526.275 89.8104 524.301 89.6542 522.625 85.5363C521.745 83.3779 520.183 82.6821 517.939 83.4489C516.235 84.0169 515.085 83.4631 514.489 81.7875C511.99 74.8864 513.665 68.6241 519.516 63.001C519.658 62.8589 519.672 62.7169 519.558 62.575L518.664 61.6378C518.307 61.2744 517.822 61.0634 517.307 61.0475C516.793 61.0317 516.288 61.2123 515.895 61.5526C513.651 63.569 511.18 65.2588 508.482 66.6219C506.636 67.5591 505.983 67.0195 506.523 65.0032C507.346 62.1348 509.334 59.9196 512.487 58.3576C512.997 58.1002 513.424 57.7034 513.718 57.2134C514.012 56.7233 514.161 56.1599 514.148 55.5886V54.1828C514.12 52.2232 513.211 51.6411 511.422 52.4362C509.064 53.487 507.46 55.2478 506.608 57.7186C506.068 59.3942 504.975 59.9196 503.328 59.2948C501.283 58.5564 499.806 57.2358 498.897 55.333C494.382 45.9611 492.294 33.4367 497.449 23.3406C506.48 5.81781 516.25 -11.6197 526.757 -28.972C529.015 -32.7208 532.551 -34.8082 536.854 -35.4898C538.614 -35.7454 539.864 -36.6968 540.602 -38.344C569.854 -103.238 599.333 -169.083 629.04 -235.879C635.032 -249.312 640.414 -262.675 645.185 -275.966C655.366 -304.209 669.978 -331.132 680.159 -358.95C687.231 -378.205 698.264 -395.884 706.656 -414.33C714.949 -432.648 724.08 -451.321 734.048 -470.349C737.144 -476.284 735.866 -477.477 730.214 -473.927C729.533 -473.501 728.78 -471.825 727.956 -468.9C727.417 -466.941 726.607 -465.166 725.528 -463.575C716.98 -451.079 709.099 -437.93 701.885 -424.128C695.495 -411.887 687.501 -398.298 677.902 -383.36C659.413 -354.562 643.651 -324.7 624.439 -297.053C617.282 -286.743 610.551 -276.477 604.247 -266.253C600.796 -260.63 595.556 -255.986 591.978 -250.15C564.259 -204.852 534.34 -162.167 502.22 -122.095C491.229 -108.378 481.261 -94.9875 472.315 -81.9236C463.057 -68.4052 453.202 -54.7449 442.751 -40.9426C436.318 -32.5078 427.457 -29.0146 421.408 -21.0485C408.628 -4.26416 395.195 13.1024 381.109 31.0511C375.372 38.3215 369.451 39.8976 363.345 35.7797C361.953 34.8425 360.732 35.0271 359.681 36.3335C349.968 48.517 339.787 57.3494 329.137 62.8306C325.417 64.7334 324.323 63.7393 325.857 59.8486C328.37 53.5864 333.993 48.6448 337.827 42.9364C360.32 9.56659 382.756 -22.7524 405.135 -54.0207C408.003 -58.0251 410.787 -62.6116 413.485 -67.7804C414.166 -69.0584 414.18 -70.3364 413.527 -71.6144L407.265 -84.437C406.64 -85.7433 406.484 -87.1065 406.796 -88.5265C407.819 -93.1273 408.33 -96.2939 408.33 -98.0263C408.33 -105.751 406.527 -106.191 402.92 -99.3469C390.254 -75.3206 376.281 -50.7405 361.002 -25.6066C351.857 -10.6115 342.485 6.84027 332.886 26.7485C328.242 36.4613 318.487 41.1047 312.864 50.6044C312.617 51.0233 312.272 51.3765 311.859 51.6339C311.447 51.8912 310.978 52.0452 310.493 52.0829C310.008 52.1205 309.521 52.0406 309.074 51.85C308.626 51.6594 308.231 51.3636 307.922 50.9878C306.048 48.7442 303.719 47.8922 300.936 48.4318C299.857 48.6591 298.962 48.3608 298.252 47.5372C292.799 41.2609 290.882 34.7715 292.501 28.0692C295.256 16.766 300.581 2.99207 308.476 -13.2527C353.248 -105.609 401.514 -194.856 442.026 -288.021C452.79 -312.729 465.556 -339.596 480.324 -368.62C492.734 -393.016 504.875 -418.703 516.747 -445.683C528.845 -473.146 540.844 -500.609 552.743 -528.071Z" fill="#F8C7CF"/>
<path d="M1012.99 450.104V538.371C1008.81 550.356 1003.6 562 997.352 573.303C989.4 587.673 983.848 598.962 980.695 607.17C974.518 623.145 969.151 639.12 960.588 654.328C948.774 675.344 937.769 696.175 927.573 716.822C925.017 722.062 925.486 728.878 919.905 733.862C918.855 734.827 918.045 735.963 917.477 737.27C910.974 753.088 903.022 767.501 893.621 780.508C878.598 801.354 863.29 823.747 847.699 847.688C827.166 879.269 808.408 906.192 791.424 928.458C790.544 929.594 790.615 930.687 791.637 931.738C797.942 938.099 801.663 944.603 802.798 951.248C805.099 964.71 803.225 981.452 800.285 995.467C797.048 1010.72 793.909 1025.77 790.871 1040.62C788.57 1052.04 784.31 1063.07 782.819 1074.53C781.712 1083.25 780.135 1091.81 778.091 1100.22C759.915 1174.91 745.772 1225.24 735.661 1251.19C711.152 1314.13 686.615 1377.08 662.049 1440.04H623.709L683.817 1285.74C684.272 1284.58 683.931 1283.74 682.795 1283.23L681.772 1282.76C681.29 1282.56 680.949 1282.7 680.75 1283.19L619.364 1440.04H606.882C618.952 1407.52 631.533 1375.26 644.625 1343.25C646.968 1337.54 647.82 1329.92 650.504 1323.61C661.41 1297.84 672.997 1273.77 682.284 1247.02C688.588 1228.87 695.305 1210.11 702.433 1190.74C724.841 1129.66 738.643 1053.53 753.383 983.965C753.922 981.523 753.07 980.884 750.827 982.048C745.402 984.973 740.773 989.716 736.939 996.276C736.854 996.475 736.726 996.518 736.556 996.404L735.278 995.637C734.653 995.268 734.525 994.771 734.894 994.146C739.524 985.882 744.934 977.76 751.125 969.779C755.854 963.688 757.472 957.979 755.641 950.482C755.552 950.087 755.357 949.726 755.075 949.437C754.793 949.147 754.436 948.941 754.041 948.84C753.647 948.74 753.23 948.748 752.836 948.865C752.442 948.981 752.086 949.201 751.807 949.502C749.222 952.313 746.354 954.188 743.201 955.125C741.81 955.523 741.54 955.139 742.392 953.975C742.704 953.549 742.605 953.066 742.094 952.526C741.185 951.646 740.262 951.646 739.325 952.526L722.583 968.629C721.901 969.282 721.603 969.14 721.688 968.203C721.916 965.676 722.981 963.56 724.883 961.856C732.693 954.983 740.262 947.415 747.589 939.15C747.845 938.838 747.845 938.525 747.589 938.213L746.78 937.361C746.513 937.041 746.134 936.831 745.713 936.769C745.291 936.706 744.854 936.795 744.479 937.02C734.468 943.069 728.93 951.76 718.408 956.829C714.319 958.817 711.053 961.657 708.61 965.349C694.851 985.967 678.663 1006.76 667.715 1028.61C659.663 1044.71 650.547 1059.66 643.56 1076.45C634.274 1098.77 623.368 1119.56 613.911 1141.46C610.304 1149.86 605.845 1158.58 600.535 1167.61C593.605 1179.43 586.903 1192.45 580.428 1206.68C570.402 1228.69 558.673 1250.92 545.24 1273.39C536.933 1287.23 531.14 1302.02 522.918 1315.69C516.897 1325.69 511.757 1336 507.497 1346.62C500.965 1363.03 493.865 1379.38 486.197 1395.65C486.026 1395.99 486.112 1396.25 486.452 1396.42L487.475 1396.97C488.526 1397.48 489.335 1397.24 489.903 1396.25C493.283 1390.48 497.074 1384.82 501.277 1379.25C501.618 1378.79 502.016 1378.72 502.47 1379.04L502.512 1379.08C502.91 1379.36 502.995 1379.72 502.768 1380.14C491.692 1399.65 481.482 1419.62 472.139 1440.04H404.277C421.062 1402.35 433.046 1374.31 440.232 1355.9C446.622 1339.52 458.748 1306.37 476.612 1256.48C486.183 1229.69 495.37 1202.49 504.174 1174.85C526.581 1104.39 549.656 1034.94 573.399 966.499C577.801 953.833 580.839 940.172 582.515 925.518C582.597 924.86 582.412 924.195 581.999 923.662C581.586 923.13 580.976 922.772 580.3 922.664L573.739 921.684C571.95 921.4 570.672 920.435 569.905 918.787C567.065 912.568 567.023 906.348 569.778 900.129C573.782 891.012 584.304 892.716 588.266 900.384C591.475 906.519 595.153 912.795 599.299 919.213C599.795 919.985 600.006 920.919 599.896 921.855C599.754 923.161 600.038 924.368 600.748 925.476C601.855 927.151 602.324 926.981 602.153 924.964C601.614 918.205 604.127 913.349 609.694 910.395C610.381 910.031 610.907 909.421 611.167 908.688C611.428 907.954 611.403 907.15 611.099 906.433C608.373 900.043 604.198 895.059 600.492 889.266C598.163 885.631 595.309 885.006 591.929 887.391C590.822 888.187 589.785 888.116 588.82 887.178C576.863 875.818 572.717 862.016 576.381 845.771C581.521 822.995 589.217 800.417 599.47 778.038C603.332 769.603 607.862 762.091 613.059 755.502C618.086 749.112 618.98 742.254 622.644 735.438C644.313 695.053 667.459 656.387 692.082 619.439C700.431 606.943 708.696 593.595 716.875 579.395C727.184 561.546 741.242 545.315 752.573 527.21C763.649 509.517 774.881 492.491 786.27 476.133C825.518 419.816 859.002 367.901 886.72 320.388C905.947 287.416 922.589 251.533 936.647 212.738C938.805 206.746 936.988 205.056 931.194 207.669C925.145 210.395 919.905 210.608 914.154 214.868C904.811 221.77 895.694 228.259 886.805 234.336C883.028 236.921 882.318 236.253 884.675 232.334C892.798 218.788 903.973 207.3 918.201 197.871C927.531 191.694 940.566 192.035 946.615 202.727C947.581 204.46 948.93 204.843 950.662 203.878C955.774 201.009 960.574 201.691 965.061 205.922C966.027 206.831 966.211 207.868 965.615 209.032C959.949 220.236 958.714 232.845 952.665 244.646C949.37 251.007 946.701 257.61 944.656 264.455C940.481 278.314 932.501 296.845 920.715 320.047C920.679 320.114 920.657 320.187 920.65 320.263C920.643 320.338 920.652 320.414 920.676 320.486C920.7 320.558 920.739 320.624 920.789 320.681C920.84 320.737 920.901 320.782 920.97 320.814L922.035 321.325C923.058 321.836 923.825 321.595 924.336 320.601C937.684 294.303 950.606 264.937 963.102 232.505C966.453 223.729 968.483 215.806 969.193 208.734C969.237 208.301 969.445 207.903 969.772 207.624C970.098 207.345 970.518 207.209 970.94 207.243L972.346 207.328C972.692 207.358 973.028 207.46 973.332 207.628C973.636 207.796 973.901 208.026 974.11 208.303C974.319 208.58 974.467 208.899 974.545 209.237C974.623 209.576 974.628 209.927 974.561 210.268C973.141 216.942 972.516 223.701 972.687 230.545C972.857 236.339 971.749 242.558 969.364 249.204C955.419 288.254 940.126 322.958 923.484 353.318C921.552 356.811 922.291 357.507 925.699 355.405C929.277 353.218 931.819 349.938 933.324 345.565C933.531 344.955 933.905 344.416 934.402 344.007C934.9 343.599 935.502 343.338 936.14 343.254C936.778 343.17 937.427 343.266 938.013 343.531C938.6 343.796 939.101 344.22 939.459 344.755C943.065 350.009 943.591 355.505 941.035 361.241C940.098 363.371 940.68 363.939 942.781 362.945C945.224 361.781 947.723 361.326 950.279 361.582C951.103 361.666 951.887 361.978 952.542 362.485C953.197 362.991 953.697 363.671 953.985 364.447C954.273 365.223 954.338 366.065 954.173 366.876C954.007 367.687 953.617 368.436 953.048 369.037C946.942 375.455 941.518 382.058 936.775 388.846C934.758 391.714 932.103 394.242 928.809 396.429C927.218 397.508 926.423 399.027 926.423 400.987C926.451 404.054 927.374 404.352 929.192 401.882C936.065 392.623 944.741 383.677 955.221 375.044C955.647 374.674 955.916 374.774 956.03 375.342L959.097 392.936C959.152 393.226 959.138 393.524 959.056 393.806C958.975 394.087 958.828 394.344 958.629 394.554C950.662 403.202 942.483 411.04 935.795 420.924C924.662 437.339 913.615 453.044 902.652 468.039C889.191 486.485 881.523 505.995 870.788 524.782C864.313 536.057 859.215 546.707 855.494 556.732C852.314 565.309 848.693 572.92 844.632 579.565C843.893 580.786 844.177 581.653 845.483 582.164L846.932 582.76C847.879 583.121 848.706 583.741 849.317 584.549C851.192 586.878 851.391 589.349 849.914 591.962C849.175 593.297 848.068 594.163 846.591 594.56C840.485 596.179 837.063 600.567 836.325 607.724C835.075 619.992 831.17 630.373 824.61 638.864C823.843 639.887 823.403 641.023 823.289 642.272C822.579 649.117 820.094 655.72 815.834 662.081C814.13 664.637 813.349 664.382 813.491 661.314C813.519 660.548 813.633 659.795 813.832 659.057C814.087 657.977 814.627 657.083 815.451 656.373C819.001 653.391 820.818 649.187 820.903 643.763C820.932 641.406 820.35 641.25 819.157 643.295C812.88 653.944 807.371 665.887 802.628 679.121C801.549 682.131 801.492 685.199 802.458 688.323C802.696 689.086 802.75 689.897 802.617 690.688C802.484 691.48 802.167 692.231 801.691 692.881C797.516 698.504 795.94 704.582 796.962 711.113C797.303 713.414 796.366 714.933 794.151 715.672L790.487 716.907C789.039 717.39 788.045 718.327 787.505 719.719C777.991 744.313 769.67 769.276 762.542 794.609C758.495 809.05 751.253 829.115 747.589 847.135C746.056 854.76 741.327 857.444 739.41 864.387C734.184 883.444 729.612 902.301 725.693 920.96C725.437 922.153 724.741 922.976 723.605 923.431L720.283 924.709C719.317 925.078 718.834 924.737 718.834 923.686C718.806 920.506 719.047 917.524 719.558 914.74C724.33 889.095 730.052 862.584 736.726 835.207C738.473 828.135 738.941 821.106 741.668 814.503C743.997 808.965 745.729 803.314 746.865 797.548C749.464 784.513 754.831 773.011 757.217 759.933C757.274 759.677 757.174 759.521 756.918 759.464L755.47 759.166C754.987 759.052 754.661 759.237 754.49 759.72C742.676 793.43 733.162 827.34 725.948 861.448C725.806 862.215 725.352 862.499 724.585 862.3L723.137 861.874C722.889 861.802 722.658 861.679 722.46 861.514C722.262 861.348 722.102 861.144 721.989 860.915C721.876 860.686 721.814 860.436 721.806 860.183C721.799 859.93 721.846 859.678 721.944 859.446C724.159 854.249 724.017 849.761 721.518 845.984C720.865 844.99 720.623 843.911 720.794 842.747C722.072 833.261 724.003 823.889 726.587 814.631C727.951 809.86 728.661 805.145 728.717 800.488C728.746 797.364 728.235 797.279 727.184 800.232C722.753 812.756 719.147 825.181 716.363 837.507C713.495 850.173 710.442 862.726 707.205 875.165C697.62 911.971 688.077 948.735 675.638 985.328C671.719 996.887 672.94 997.455 679.302 987.032C691.443 967.096 700.985 954.103 719.814 932.93C724.415 927.776 731.827 925.135 737.876 921.684C739.211 920.889 739.722 919.739 739.41 918.234C738.686 914.57 738.345 911.503 740.049 907.967C747.234 893.057 755.47 878.346 764.757 863.834C766.376 861.334 767.313 861.562 767.568 864.515C767.654 865.481 767.696 866.461 767.696 867.455C767.81 873.703 769.698 874.299 773.362 869.244C785.418 852.502 795.301 835.76 806.718 819.274C812.454 811.01 817.169 803.271 820.861 796.057C828.188 781.872 837.858 769.646 844.376 755.162C853.45 735.055 866.826 716.95 877.093 697.439C882.858 686.533 889.091 675.443 895.794 664.168C900.948 655.521 904.143 645.552 909.128 636.649C930.456 598.792 952.182 557.726 974.305 513.45C985.424 491.298 997.948 470.212 1008.98 447.889C1010.29 445.248 1011.18 445.376 1011.67 448.273C1011.75 448.869 1012.19 449.48 1012.99 450.104ZM955.647 207.626L951.727 206.732C951.53 206.694 951.325 206.735 951.158 206.847C950.991 206.959 950.874 207.131 950.833 207.328L950.705 207.839C950.011 210.918 949.38 213.978 948.848 216.847C948.316 219.715 947.894 222.334 947.605 224.554C947.316 226.774 947.166 228.552 947.165 229.784C947.163 231.017 947.309 231.681 947.595 231.738L948.66 231.993C948.94 232.084 949.355 231.562 949.882 230.456C950.409 229.351 951.037 227.685 951.73 225.554C952.423 223.423 953.167 220.87 953.92 218.041C954.673 215.213 955.419 212.165 956.115 209.075L956.243 208.521C956.281 208.323 956.239 208.119 956.128 207.952C956.016 207.784 955.844 207.668 955.647 207.626ZM632.825 846.836L628.778 847.816C627.16 848.185 626.478 849.194 626.734 850.841L627.287 854.164C627.515 855.669 627.373 857.131 626.861 858.551L618.043 882.492C617.799 883.16 617.708 883.873 617.778 884.58C617.847 885.286 618.075 885.967 618.445 886.57C618.814 887.174 619.315 887.684 619.91 888.062C620.504 888.441 621.177 888.677 621.877 888.755L629.63 889.649C631.05 889.82 632.3 890.388 633.379 891.353C642.581 899.816 645.563 910.253 642.325 922.664C637.639 940.598 635.253 959.641 629.375 976.936C619.662 1005.42 606.584 1042.53 590.14 1088.25C572.277 1137.89 552.553 1197.01 530.969 1265.59C530.884 1265.85 530.898 1266.12 531.012 1266.4C531.154 1266.77 531.409 1267.05 531.779 1267.25C532.046 1267.4 532.358 1267.43 532.651 1267.35C532.944 1267.27 533.195 1267.09 533.355 1266.83C581.024 1186.31 620.77 1106.82 661.282 1017.45C666.011 1007.05 666.948 994.019 669.504 984.689C674.218 967.138 679.003 949.615 683.86 932.121C689.824 910.608 692.295 887.817 699.75 867.668C705.586 851.906 706.48 835.718 711.294 820.084C714.361 810.172 717.031 799.991 719.303 789.54C723.137 771.861 730.507 756.866 734.468 739.655C737.138 728.04 741.512 715.799 747.589 702.934C750.145 697.482 750.358 692.412 753.468 686.789C756.62 681.194 759.375 674.222 761.732 665.872C765.566 652.24 770.792 638.538 777.409 624.764C787.974 602.782 794.492 582.59 803.31 561.205C803.382 561.027 803.416 560.836 803.409 560.644C803.403 560.452 803.357 560.262 803.273 560.086C803.189 559.911 803.07 559.753 802.922 559.623C802.775 559.493 802.602 559.394 802.415 559.33C801.251 558.961 800.285 559.288 799.518 560.31C779.212 586.665 761.59 614.412 746.652 643.55C739.495 657.466 729.527 673.853 716.747 692.71C701.184 715.601 685.024 742.268 668.268 772.713C664.378 779.784 660.813 786.714 657.576 793.501C649.865 809.689 644.029 827.07 637.043 843.301C636.219 845.175 634.813 846.354 632.825 846.836ZM824.441 625.387C824.75 625.553 825.337 625.17 826.074 624.324C826.811 623.478 827.637 622.237 828.371 620.874C828.734 620.199 829.064 619.515 829.341 618.86C829.618 618.205 829.838 617.593 829.987 617.057C830.136 616.522 830.211 616.074 830.209 615.74C830.207 615.406 830.128 615.191 829.975 615.109C829.667 614.943 829.079 615.326 828.342 616.172C827.605 617.018 826.779 618.259 826.046 619.622C825.682 620.297 825.353 620.981 825.075 621.636C824.798 622.291 824.579 622.904 824.43 623.439C824.281 623.974 824.205 624.422 824.207 624.756C824.209 625.09 824.289 625.305 824.441 625.387ZM765.907 683.977C764.572 685.795 763.962 687.13 764.075 687.982C764.117 688.3 764.252 688.6 764.464 688.841C764.676 689.082 764.956 689.255 765.266 689.338C765.577 689.42 765.905 689.408 766.209 689.303C766.513 689.198 766.778 689.005 766.972 688.749C768.307 687.045 768.889 685.681 768.719 684.659C768.349 682.131 767.412 681.904 765.907 683.977ZM742.264 756.61C748.697 745.364 750.017 733.947 755.087 722.871C758.126 716.254 760.369 708.955 761.817 700.975C761.874 700.804 761.817 700.691 761.647 700.634L760.582 700.293C760.156 700.123 759.858 700.25 759.687 700.676C753.07 717.745 747.192 734.685 742.051 751.498C737.578 766.237 731.06 780.679 728.803 795.418C728.689 796.1 728.959 796.512 729.612 796.654H729.655C729.91 796.711 730.066 796.611 730.123 796.356C733.304 786.7 736.556 777.441 739.879 768.581C740.816 766.025 741.256 763.483 741.199 760.955C741.142 759.422 741.497 757.973 742.264 756.61ZM772.728 718.917C772.829 718.629 772.813 718.313 772.682 718.038C772.55 717.762 772.315 717.551 772.027 717.449L771.304 717.193C771.017 717.091 770.701 717.108 770.425 717.239C770.15 717.37 769.938 717.606 769.836 717.893L759.342 747.529C759.24 747.816 759.257 748.132 759.388 748.408C759.52 748.683 759.755 748.895 760.042 748.997L760.765 749.253C761.053 749.354 761.369 749.338 761.644 749.206C761.92 749.075 762.131 748.84 762.233 748.552L772.728 718.917ZM592.134 843.188C592.591 843.353 593.277 842.822 594.041 841.713C594.805 840.605 595.585 839.008 596.209 837.276C596.518 836.418 596.779 835.552 596.978 834.728C597.177 833.904 597.309 833.138 597.367 832.474C597.426 831.81 597.409 831.26 597.318 830.856C597.227 830.453 597.064 830.203 596.837 830.122C596.38 829.957 595.694 830.488 594.93 831.597C594.166 832.705 593.386 834.302 592.762 836.034C592.453 836.892 592.192 837.758 591.993 838.582C591.794 839.406 591.662 840.172 591.603 840.836C591.545 841.5 591.562 842.05 591.653 842.454C591.744 842.857 591.907 843.107 592.134 843.188ZM776.37 895.342C776.761 895.612 777.976 894.651 779.75 892.671C781.523 890.691 783.708 887.855 785.825 884.786C786.874 883.267 787.874 881.736 788.768 880.281C789.663 878.826 790.434 877.475 791.039 876.306C791.643 875.137 792.069 874.173 792.292 873.468C792.514 872.763 792.529 872.332 792.336 872.199C791.945 871.929 790.729 872.89 788.956 874.87C787.183 876.849 784.997 879.685 782.88 882.754C781.832 884.274 780.832 885.805 779.937 887.26C779.043 888.715 778.271 890.066 777.667 891.234C777.062 892.403 776.637 893.368 776.414 894.073C776.192 894.777 776.177 895.209 776.37 895.342ZM770.891 924.368L775.322 927.137C775.436 927.207 775.564 927.254 775.696 927.274C775.829 927.295 775.965 927.29 776.095 927.258C776.226 927.226 776.349 927.169 776.457 927.09C776.566 927.011 776.658 926.911 776.727 926.796L776.94 926.455C780.546 920.663 784.049 914.884 787.249 909.451C790.449 904.018 793.283 899.037 795.59 894.792C797.896 890.547 799.63 887.121 800.691 884.711C801.753 882.301 802.121 880.954 801.776 880.746L800.839 880.192C800.521 879.936 799.49 880.834 797.804 882.834C796.118 884.833 793.81 887.896 791.014 891.844C788.218 895.792 784.99 900.548 781.514 905.838C778.038 911.127 774.385 916.846 770.763 922.664L770.593 922.962C770.448 923.189 770.398 923.463 770.453 923.726C770.509 923.99 770.667 924.22 770.891 924.368ZM786.355 964.923C784.395 959.555 784.055 954.543 785.333 949.885C785.337 949.875 785.339 949.863 785.337 949.851C785.335 949.839 785.33 949.827 785.322 949.815C785.314 949.803 785.304 949.792 785.291 949.782C785.278 949.772 785.263 949.764 785.247 949.757L784.182 949.544C783.671 949.459 783.359 949.658 783.245 950.141C781.939 955.906 782.081 961.16 783.671 965.903C783.842 966.442 784.197 966.627 784.736 966.457L785.759 966.158C786.383 965.96 786.582 965.548 786.355 964.923ZM770.167 1069.25L772.553 1069.76C772.665 1069.79 772.781 1069.79 772.893 1069.77C773.006 1069.75 773.114 1069.7 773.209 1069.64C773.305 1069.57 773.386 1069.49 773.449 1069.4C773.512 1069.3 773.555 1069.19 773.575 1069.08L797.516 953.464C797.557 953.309 797.544 953.144 797.478 952.978C797.412 952.813 797.294 952.649 797.131 952.498C796.968 952.348 796.763 952.212 796.53 952.1C796.296 951.987 796.037 951.901 795.77 951.845H795.684C795.418 951.789 795.148 951.764 794.89 951.773C794.632 951.781 794.391 951.822 794.181 951.894C793.97 951.965 793.796 952.065 793.666 952.189C793.537 952.312 793.455 952.456 793.427 952.612L769.485 1068.23C769.461 1068.34 769.459 1068.46 769.48 1068.57C769.501 1068.68 769.545 1068.79 769.608 1068.88C769.672 1068.98 769.754 1069.06 769.85 1069.12C769.946 1069.19 770.054 1069.23 770.167 1069.25ZM750.912 1092.85C762.982 1050.22 771.999 1006.78 777.963 962.537C777.996 962.273 777.961 962.004 777.859 961.758C777.757 961.511 777.592 961.296 777.381 961.132C777.171 960.969 776.921 960.863 776.657 960.826C776.393 960.788 776.123 960.82 775.875 960.919C773.206 961.998 771.786 963.844 771.615 966.457C770.763 980.202 769.159 992.599 766.802 1003.65C760.355 1033.81 753.766 1063.27 747.035 1092.04C746.922 1092.55 747.106 1092.91 747.589 1093.11L748.91 1093.74C749.932 1094.23 750.6 1093.93 750.912 1092.85ZM764.228 1097.32C764.604 1097.4 765.141 1096.65 765.721 1095.24C766.302 1093.82 766.878 1091.87 767.323 1089.79C767.768 1087.71 768.046 1085.69 768.095 1084.16C768.145 1082.64 767.961 1081.73 767.586 1081.65C767.21 1081.57 766.673 1082.32 766.093 1083.73C765.512 1085.14 764.936 1087.1 764.491 1089.18C764.046 1091.26 763.768 1093.28 763.719 1094.81C763.669 1096.33 763.853 1097.23 764.228 1097.32ZM742.52 1124.5C744.352 1118.32 746.78 1110.87 747.674 1104.31C747.731 1103.88 747.561 1103.63 747.163 1103.54C746.993 1103.49 746.822 1103.47 746.652 1103.5C746.056 1103.64 745.658 1104.01 745.459 1104.61C742.846 1112.05 741.384 1118.59 741.071 1124.25C740.844 1128.48 741.327 1128.56 742.52 1124.5ZM725.182 1163.27C728.618 1154.78 731.288 1145.73 733.19 1136.13C733.247 1135.9 733.176 1135.76 732.977 1135.71L731.912 1135.36C731.789 1135.33 731.66 1135.31 731.531 1135.32C731.402 1135.33 731.276 1135.37 731.162 1135.43C731.047 1135.49 730.945 1135.57 730.862 1135.67C730.779 1135.77 730.716 1135.88 730.677 1136C728.149 1144.64 725.963 1153.43 724.117 1162.37C724.003 1162.94 724.23 1163.3 724.798 1163.44H724.841C725.011 1163.49 725.125 1163.44 725.182 1163.27ZM724.418 1172.66C724.563 1172.26 724.541 1171.81 724.358 1171.42C724.174 1171.04 723.844 1170.74 723.44 1170.59L723.28 1170.53C722.875 1170.39 722.43 1170.41 722.042 1170.6C721.654 1170.78 721.355 1171.11 721.21 1171.51L684.879 1272.98C684.734 1273.39 684.756 1273.83 684.939 1274.22C685.123 1274.61 685.453 1274.91 685.857 1275.05L686.018 1275.11C686.422 1275.25 686.867 1275.23 687.255 1275.05C687.643 1274.87 687.942 1274.54 688.087 1274.13L724.418 1172.66ZM660.004 1388.15C659.55 1387.95 659.209 1388.08 658.982 1388.54C656.028 1394.61 653.6 1401.17 651.697 1408.22C651.555 1408.76 651.768 1409.13 652.336 1409.32C652.847 1409.49 653.188 1409.34 653.358 1408.86C655.886 1402.81 658.272 1396.25 660.515 1389.17C660.686 1388.69 660.529 1388.35 660.047 1388.15H660.004Z" fill="#F8C7CF"/>
<path d="M253.778 1440.04H221.019L221.956 1432.37C222.126 1430.98 221.686 1430.75 220.635 1431.69C218.846 1433.34 217.525 1436.12 216.673 1440.04H209.602C223.262 1397.84 236.525 1355.59 249.39 1313.31C253.693 1299.21 260.466 1286 265.322 1271.9C270.221 1257.67 276.611 1243.91 281.212 1229.64C281.468 1228.93 281.226 1228.45 280.488 1228.19L279.167 1227.77C278.713 1227.62 278.401 1227.78 278.23 1228.23C269.767 1250.16 261.588 1271.93 253.693 1293.54C246.621 1312.99 239.237 1334.92 231.541 1359.31C222.992 1386.35 214.075 1413.26 204.788 1440.04H193.499C209.176 1394.52 224.143 1348.99 238.399 1303.47C243.313 1287.82 255.241 1255.85 274.183 1207.57C274.376 1207.08 274.391 1206.53 274.226 1206.04C273.743 1204.45 273.005 1203.75 272.011 1203.95C269.256 1204.55 268.617 1203.65 270.094 1201.27C276.228 1191.19 280.999 1180.31 284.407 1168.64C284.578 1168.1 284.407 1167.67 283.896 1167.36C283.101 1166.88 282.476 1167.03 282.022 1167.83C276.966 1176.63 272.465 1185.42 268.517 1194.2C263.959 1204.34 257.655 1213.41 254.119 1223.55C251.875 1230.05 248.467 1236.4 243.895 1242.59C236.44 1252.73 233.16 1264.44 225.705 1274.75C217.142 1286.6 208.452 1298.86 201.38 1311.39C177.155 1354.3 158.993 1385.03 146.895 1403.58C135.762 1420.59 128.18 1432.74 124.147 1440.04H114.264L239.081 1227.81C240.047 1226.16 239.876 1224.63 238.57 1223.21L237.42 1221.97C235.346 1219.73 233.543 1219.93 232.009 1222.57L219.016 1244.59C218.789 1244.99 218.633 1245.16 218.548 1245.1L217.611 1244.59C217.014 1244.28 216.858 1243.81 217.142 1243.19C222.68 1231.37 228.104 1219.5 233.415 1207.57C233.472 1207.4 233.429 1207.28 233.287 1207.19L232.137 1206.64C231.598 1206.38 231.186 1206.52 230.902 1207.06C219.201 1229.3 208.31 1250.94 198.228 1271.98C196.069 1276.5 193.158 1280.52 189.495 1284.04C182.934 1290.34 177.354 1298.4 173.094 1306.11C161.024 1327.92 148.627 1349.81 135.904 1371.8C134.001 1375.06 133.291 1374.82 133.774 1371.07C134.924 1361.91 145.361 1349.39 149.494 1340.48C162.359 1313.09 181.188 1288.77 195.118 1261.93C206.705 1239.64 217.781 1216.99 228.346 1193.98C230.93 1188.39 232.961 1182.43 234.438 1176.09C234.92 1174.13 234.736 1174.08 233.884 1175.92C221.501 1202.7 208.338 1227.72 194.394 1250.98C176.701 1280.49 158.113 1310.51 138.631 1341.04C131.019 1352.97 125.325 1364.51 121.548 1375.67C118.779 1383.81 113.454 1390.16 111.154 1398.25C110.501 1400.58 111.168 1401.06 113.156 1399.7C118.24 1396.23 122.003 1391.76 124.445 1386.28C124.843 1385.4 125.254 1385.4 125.68 1386.28C125.936 1386.79 125.893 1387.29 125.553 1387.77C114.391 1404.36 104.579 1421.78 96.116 1440.04H36.9023C39.0323 1434.33 40.9493 1428.69 42.6533 1423.13C44.4425 1417.28 46.4447 1411.7 48.6599 1406.39C54.709 1391.85 60.4458 1376.96 65.8702 1361.74C69.8178 1350.67 73.9074 1340.22 78.139 1330.39C83.8047 1317.31 88.5333 1303.98 94.8381 1291.84C96.9113 1287.89 98.6862 1283.77 100.163 1279.48C108.2 1256.31 118.098 1232.22 129.855 1207.23C136.202 1193.81 138.545 1179.5 144.765 1166.12C152.547 1149.4 159.632 1133.07 166.022 1117.13C170.453 1106.14 171.646 1095.58 177.141 1084.08C183.19 1071.38 188.543 1058.4 193.201 1045.14C205.555 1009.92 217.312 974.51 228.474 938.896C233.415 923.135 239.592 910.014 246.877 895.828C247.093 895.421 247.418 895.081 247.817 894.849C248.215 894.617 248.671 894.501 249.132 894.514C249.593 894.528 250.041 894.67 250.425 894.924C250.81 895.179 251.115 895.537 251.307 895.956L257.569 909.886C258.222 911.363 259.359 912.201 260.977 912.4C264.414 912.769 266.842 914.558 268.262 917.767C268.887 919.272 269.866 920.479 271.201 921.388L274.013 923.348C275.262 924.228 275.958 925.421 276.1 926.926C278.784 954.786 272.224 977.577 263.235 1005.44C241.339 1073.14 221.274 1128.18 203.042 1170.55C188.927 1203.38 174.897 1236.41 160.953 1269.64C160.811 1269.95 160.896 1270.18 161.209 1270.32L162.401 1270.92C163.026 1271.23 163.509 1271.09 163.85 1270.49C192.562 1219.74 212.74 1179.53 224.384 1149.85C250.739 1082.74 275.163 1023.7 297.656 972.721C304.188 957.896 311.898 941.637 320.787 923.944C324.905 915.736 328.697 910.298 332.162 907.628C339.262 902.204 346.816 902.956 354.825 909.886C355.961 910.88 357.295 911.377 358.829 911.377C359.965 911.377 361.058 911.121 362.109 910.61C362.91 910.231 363.804 910.094 364.682 910.215C365.559 910.336 366.382 910.71 367.051 911.292C369.493 913.393 371.978 913.393 374.506 911.292C375.087 910.81 375.794 910.508 376.537 910.425C377.279 910.342 378.025 910.48 378.681 910.823L386.263 914.7C387.57 915.353 388.777 915.239 389.884 914.359C392.781 912.059 395.749 912.144 398.788 914.615C399.924 915.495 401.202 915.836 402.622 915.637C420.13 912.996 420.854 935.233 420.556 947.246C419.505 992.203 409.977 1034.29 391.972 1073.51C385.127 1088.39 378.255 1104.38 371.353 1121.48C358.573 1153.09 345.651 1184.97 332.588 1217.12C308.902 1275.42 286.253 1338.54 264.641 1406.47C264.243 1407.66 263.547 1408.6 262.553 1409.28C262.099 1409.57 261.758 1409.94 261.531 1410.39C261.133 1411.16 260.92 1411.98 260.892 1412.86C260.75 1416.55 259.188 1419.2 256.206 1420.79C253.934 1422.01 254.048 1422.93 256.547 1423.55C256.916 1423.64 257.229 1423.84 257.484 1424.15C258.478 1425.29 258.705 1426.58 258.166 1428.03L253.778 1440.04ZM244.901 1208.53C245.38 1208.76 246.941 1206.67 249.24 1202.72C251.54 1198.77 254.389 1193.29 257.161 1187.48C259.934 1181.66 262.402 1176 264.023 1171.73C265.645 1167.46 266.287 1164.93 265.808 1164.7C265.328 1164.47 263.767 1166.56 261.468 1170.51C259.169 1174.46 256.319 1179.94 253.547 1185.75C250.775 1191.56 248.306 1197.23 246.685 1201.5C245.063 1205.77 244.421 1208.3 244.901 1208.53ZM231.157 1405.83C232.861 1402.85 233.813 1399.95 234.012 1397.14C234.239 1393.9 233.699 1393.78 232.393 1396.76C228.9 1404.71 226.131 1413.23 224.086 1422.32C223.433 1425.22 223.958 1425.46 225.662 1423.04C228.246 1419.29 229.666 1414.98 229.922 1410.09C229.979 1408.56 230.391 1407.14 231.157 1405.83Z" fill="#F8C7CF"/>
<path d="M-16.9836 1440.04H-28.4855C-23.9131 1424.67 -18.4888 1409.68 -12.2124 1395.05C-9.344 1388.41 -7.0294 1382.07 -5.26861 1376.05C-3.30902 1369.35 -1.15063 1362.93 1.20656 1356.8C11.4021 1330.13 21.4414 1303.73 31.3246 1277.61C33.6534 1271.47 32.7446 1270.96 28.5982 1276.07C27.6042 1277.29 27.0788 1278.97 27.022 1281.1C26.9936 1282.63 26.454 1283.95 25.4032 1285.06C23.5856 1286.96 22.4355 1288.72 21.9527 1290.34C17.0111 1306.36 11.2885 1320.94 4.78494 1334.09C-1.66183 1347.13 -6.87321 1359.71 -10.8492 1371.84C-15.0808 1384.67 -20.136 1397.45 -26.0147 1410.18C-26.0715 1410.32 -26.1851 1410.36 -26.3555 1410.3L-27.5483 1409.83C-28.1163 1409.61 -28.3009 1409.2 -28.1021 1408.6C-24.3817 1398.38 -20.5904 1388.17 -16.728 1377.97C-13.8596 1370.5 -11.4598 1363.06 -9.52859 1355.65C-9.38659 1355.08 -9.5996 1354.7 -10.1676 1354.5H-10.2102C-10.8066 1354.3 -11.2042 1354.48 -11.403 1355.05C-20.633 1379.13 -30.1469 1403.13 -39.9448 1427.05C-41.3932 1430.57 -42.9836 1434 -44.716 1437.35C-44.858 1437.67 -45.0994 1437.77 -45.4402 1437.65V1437.61C-45.7242 1437.5 -45.8094 1437.3 -45.6958 1437.01C-39.6467 1419.26 -32.8449 1400.97 -25.2905 1382.15C-20.4767 1370.13 -17.4522 1357.57 -12.3828 1345.68C-8.83281 1337.36 -5.46743 1328.31 -2.28664 1318.54C-0.12825 1311.95 2.24315 1305.54 4.82754 1299.29C7.58232 1292.73 9.91113 1286.25 11.8139 1279.86C15.2787 1268.36 19.4819 1257.44 24.4235 1247.1C24.5561 1246.82 24.6174 1246.51 24.6021 1246.2C24.5868 1245.88 24.4953 1245.58 24.3357 1245.31C24.1761 1245.04 23.9531 1244.82 23.6863 1244.65C23.4194 1244.49 23.1167 1244.4 22.8046 1244.38L21.6119 1244.29C21.1575 1244.26 20.845 1244.46 20.6747 1244.89L-54.301 1440.04H-66.9531C-24.6657 1333.23 6.85813 1247.29 27.6184 1182.22C40.3416 1142.41 61.0735 1069.32 89.8141 962.963C90.2685 961.231 89.9277 959.683 88.7918 958.32L87.5137 956.743C86.4346 955.465 86.1079 954.031 86.5339 952.441L89.4307 941.621C90.2543 938.497 89.6721 938.212 87.6842 940.768C80.6694 949.856 75.6994 960.208 72.7742 971.824C72.6322 972.363 72.3056 972.576 71.7944 972.463L70.559 972.207C69.5082 971.98 69.0822 971.341 69.281 970.29C70.3034 964.61 70.204 958.888 68.9828 953.123C68.3297 950.055 67.5629 950.027 66.6824 953.037C59.7387 977.191 49.0035 1001.09 37.1182 1025.84C30.4726 1039.76 20.6889 1063.33 7.76691 1096.56C3.93293 1106.52 -2.71262 1115.56 -5.95021 1125.78C-11.971 1144.84 -19.7668 1162.83 -29.3375 1179.75C-30.0191 1180.97 -31.0699 1181.57 -32.4899 1181.54C-32.8591 1181.51 -33.1999 1181.4 -33.5123 1181.2C-34.5063 1180.58 -34.8187 1179.71 -34.4495 1178.6C-28.6275 1161.56 -22.1523 1143.83 -15.024 1125.4C-11.1048 1115.31 -7.66842 1105.54 -4.71483 1096.09C-0.667847 1083.01 3.20872 1069.55 8.7893 1056.98C15.2929 1042.41 20.8167 1027.97 25.3607 1013.66C32.4322 991.42 41.7616 969.651 48.5775 946.562C53.1783 931.013 71.3258 881.81 93.4351 905.922C93.6317 906.139 93.877 906.305 94.1515 906.408C94.426 906.511 94.7221 906.547 95.016 906.514C95.3099 906.481 95.5936 906.379 95.8443 906.217C96.0949 906.055 96.3057 905.837 96.4597 905.581C99.6973 899.986 104.199 898.14 109.964 900.043C111.117 900.409 112.331 900.553 113.542 900.469L120.273 899.915C121.721 899.773 122.985 900.171 124.064 901.108C136.078 911.289 146.003 918.233 146.727 936.253C147.622 957.638 142.467 982.218 135.865 1002.54C123.937 1039.22 111.796 1075.47 101.529 1113.38C88.2948 1162.12 73.5552 1210.38 57.3105 1258.18C49.3017 1281.65 38.8648 1305 30.4726 1328.77C28.5556 1334.18 24.3808 1337.67 22.3786 1342.06C9.25791 1371.17 1.22075 1389.97 -1.73284 1398.46C-9.3724 1420.58 -14.456 1434.44 -16.9836 1440.04ZM125.461 961.2C125.83 961.344 126.431 960.846 127.132 959.816C127.834 958.786 128.579 957.309 129.202 955.709C129.511 954.916 129.781 954.118 129.997 953.359C130.212 952.599 130.369 951.895 130.459 951.284C130.548 950.673 130.568 950.169 130.518 949.801C130.467 949.432 130.348 949.205 130.165 949.134C129.797 948.991 129.195 949.489 128.494 950.519C127.792 951.549 127.048 953.026 126.424 954.626C126.115 955.418 125.845 956.217 125.63 956.976C125.414 957.735 125.257 958.44 125.168 959.051C125.078 959.661 125.058 960.165 125.109 960.534C125.159 960.903 125.279 961.129 125.461 961.2ZM121.463 984.796C121.556 984.482 121.521 984.143 121.364 983.856C121.208 983.568 120.944 983.354 120.63 983.26L120.303 983.164C119.989 983.071 119.65 983.106 119.363 983.263C119.075 983.419 118.861 983.683 118.768 983.997L86.3661 1093.38C86.2731 1093.7 86.3087 1094.03 86.465 1094.32C86.6214 1094.61 86.8857 1094.82 87.1998 1094.92L87.5265 1095.01C87.8407 1095.11 88.1789 1095.07 88.4668 1094.92C88.7548 1094.76 88.9688 1094.49 89.0618 1094.18L121.463 984.796ZM70.7294 1080.45C69.4798 1084 68.4574 1087.58 67.6622 1091.19C67.1226 1093.55 67.4635 1093.69 68.6846 1091.61C70.9566 1087.7 72.0642 1084.03 72.0074 1080.62C71.9506 1078.35 71.5246 1078.29 70.7294 1080.45ZM62.9763 1108.23C60.7895 1111.58 60.2357 1114.89 61.3149 1118.15C62.2237 1120.91 63.6579 1121.21 65.6174 1119.05C69.7922 1114.53 70.5306 1109.31 67.8326 1103.37C67.009 1101.58 66.1002 1101.54 65.1062 1103.24C64.2542 1104.78 63.8708 1106.82 62.9763 1108.23ZM86.0654 1104.39C86.0654 1102.78 85.5258 1102.59 84.4466 1103.84C82.7142 1105.83 81.9758 1108.17 82.2314 1110.87C82.4302 1113.06 83.0834 1113.2 84.191 1111.3C85.469 1109.14 86.0938 1106.84 86.0654 1104.39ZM61.4853 1134C64.8081 1131.36 66.0293 1128.02 65.1488 1123.99C64.6945 1121.95 63.6721 1121.6 62.0817 1122.97C61.3433 1123.59 60.5055 1124.03 59.5683 1124.29C57.6655 1124.83 56.7425 1126.09 56.7993 1128.08C56.8561 1131.09 56.2455 1134.07 54.9675 1137.03C54.3711 1138.36 54.6267 1139.48 55.7343 1140.39C56.3023 1140.87 57.0265 1141.1 57.9069 1141.07C59.6677 1141.02 60.4771 1140.11 60.3351 1138.35L60.2073 1136.94C60.1221 1135.75 60.5481 1134.77 61.4853 1134ZM37.0862 1259.13C37.3982 1259.23 37.9745 1258.46 38.6884 1257C39.4023 1255.53 40.1953 1253.49 40.8929 1251.32C41.2384 1250.24 41.5501 1249.16 41.8101 1248.15C42.0702 1247.14 42.2735 1246.21 42.4086 1245.41C42.5436 1244.62 42.6077 1243.97 42.5972 1243.51C42.5867 1243.06 42.5018 1242.79 42.3473 1242.74C42.0353 1242.64 41.459 1243.41 40.7451 1244.88C40.0312 1246.34 39.2382 1248.39 38.5406 1250.56C38.1951 1251.64 37.8835 1252.71 37.6234 1253.72C37.3634 1254.74 37.16 1255.67 37.025 1256.46C36.8899 1257.26 36.8258 1257.91 36.8363 1258.36C36.8468 1258.82 36.9318 1259.08 37.0862 1259.13Z" fill="#F8C7CF"/>
<path d="M773.408 1440.04H735.707C734.6 1439.16 733.151 1438.61 731.362 1438.38C729.119 1438.12 728.437 1436.96 729.317 1434.89C729.942 1433.44 730.127 1431.93 729.871 1430.37C729.53 1428.27 730.368 1426.89 732.385 1426.24C735.48 1425.22 736.219 1423.31 734.6 1420.53C733.748 1419.05 733.322 1417.46 733.322 1415.76C733.35 1405.59 735.026 1396.35 738.349 1388.03C740.819 1381.89 742.296 1375.11 742.779 1367.66C743.319 1359.14 745.335 1350.14 748.828 1340.66C748.937 1340.37 749.136 1340.13 749.397 1339.97C749.658 1339.81 749.966 1339.74 750.277 1339.76C751.015 1339.82 751.498 1339.49 751.725 1338.78C751.981 1337.96 751.697 1337.46 750.873 1337.29C750.39 1337.18 749.936 1337.21 749.51 1337.38C749.481 1337.38 749.467 1337.36 749.467 1337.33C749.439 1331.62 751.413 1326.24 755.389 1321.19C756.326 1320 756.581 1318.69 756.155 1317.27L755.857 1316.16C755.656 1315.46 755.674 1314.72 755.91 1314.02C756.146 1313.33 756.588 1312.72 757.178 1312.28C759.223 1310.78 759.833 1308.79 759.01 1306.32C758.498 1304.79 758.541 1303.27 759.137 1301.76C765.641 1285.57 772.045 1269.37 778.35 1253.16C784.598 1237.17 791.485 1221.18 799.011 1205.19C824.145 1151.9 847.702 1098.86 864.529 1042.46C872.794 1014.68 881.867 985.899 891.751 956.108C894.988 946.352 900.782 936.341 907.512 928.418C910.125 925.322 911.517 925.805 911.687 929.866L912.326 947.247C912.383 949.178 913.32 950.499 915.138 951.209C919.909 953.083 921.599 956.761 920.207 962.242C919.582 964.599 920.491 965.735 922.934 965.65C923.331 965.622 923.729 965.707 924.126 965.906C925.518 966.587 926.185 967.709 926.128 969.271C925.475 995.143 922.124 1020.46 916.075 1045.23C908.918 1074.59 900.143 1105.26 889.748 1137.24C882.904 1158.23 874.966 1176.28 865.935 1191.39C859.659 1201.84 854.05 1212.05 849.108 1222.02C825.167 1270.12 808.425 1308.37 798.883 1336.74C791.3 1359.29 782.809 1393.72 773.408 1440.04Z" fill="#F8C7CF"/>
<path d="M469.166 1105.8C467.207 1109.86 466.497 1113.37 467.036 1116.32C467.462 1118.79 468.172 1118.88 469.166 1116.58L479.348 1093.15C479.433 1092.92 479.589 1092.84 479.816 1092.89L481.265 1093.06C482.571 1093.26 483.054 1094 482.713 1095.28L478.794 1110.1C478.737 1110.33 478.822 1110.5 479.05 1110.61L480.242 1111.13C480.867 1111.38 481.265 1111.18 481.435 1110.53C482.827 1105.96 485.496 1102.68 489.444 1100.69C489.778 1100.52 490.147 1100.44 490.521 1100.44C490.894 1100.45 491.261 1100.55 491.588 1100.73C491.915 1100.91 492.193 1101.17 492.399 1101.48C492.604 1101.79 492.73 1102.15 492.767 1102.52C493.789 1111.94 489.273 1122.84 487.91 1132.26C486.803 1139.95 485.525 1146.34 484.076 1151.43C472.688 1191.24 458.346 1230.66 441.051 1269.68C416.115 1325.86 392.586 1382.64 370.463 1440.04H335.829L343.284 1419.04C343.511 1418.41 343.312 1418 342.688 1417.8L341.41 1417.42C341.324 1417.39 341.253 1417.43 341.197 1417.55L332.165 1440.04H318.789C345.854 1370.09 373.771 1300.65 402.54 1231.73C409.385 1215.31 415.803 1198.37 421.795 1180.9C430.912 1154.36 440.838 1128.12 448.548 1101.29C450.891 1093.11 447.909 1087.82 447.739 1079.99C447.653 1076.21 449.017 1073.44 451.828 1071.68C452.372 1071.33 453.023 1071.2 453.658 1071.3C454.294 1071.4 454.87 1071.74 455.279 1072.23C457.806 1075.36 460.973 1077.83 464.779 1079.64C465.403 1079.94 465.94 1080.39 466.336 1080.95C466.731 1081.51 466.973 1082.16 467.036 1082.84C467.462 1087.67 466.724 1092.08 464.821 1096.09C462.72 1100.6 464.168 1103.84 469.166 1105.8ZM362.14 1372.97C362.193 1372.84 362.219 1372.7 362.218 1372.56C362.217 1372.42 362.189 1372.28 362.134 1372.15C362.08 1372.02 362 1371.91 361.901 1371.81C361.801 1371.71 361.683 1371.63 361.554 1371.58L361.475 1371.55C361.345 1371.49 361.207 1371.47 361.067 1371.47C360.927 1371.47 360.789 1371.5 360.66 1371.55C360.531 1371.61 360.414 1371.69 360.316 1371.79C360.218 1371.89 360.14 1372 360.087 1372.13L342.746 1414.84C342.693 1414.97 342.667 1415.11 342.668 1415.25C342.669 1415.39 342.697 1415.53 342.752 1415.65C342.806 1415.78 342.885 1415.9 342.985 1416C343.085 1416.1 343.203 1416.17 343.332 1416.23L343.411 1416.26C343.54 1416.31 343.679 1416.34 343.819 1416.34C343.959 1416.34 344.097 1416.31 344.226 1416.25C344.355 1416.2 344.472 1416.12 344.57 1416.02C344.668 1415.92 344.746 1415.8 344.798 1415.67L362.14 1372.97Z" fill="#F8C7CF"/>
<path d="M469.167 1105.8C467.804 1100.75 468.372 1096.93 470.871 1094.34C472.49 1092.67 473.058 1092.98 472.575 1095.28L470.317 1106.06C470.317 1106.14 470.289 1106.16 470.232 1106.1C469.806 1105.62 469.451 1105.52 469.167 1105.8Z" fill="#F8C7CF"/>
<path d="M517.678 1440.04H495.867C506.517 1421.21 516.997 1402.42 527.306 1383.68C537.871 1364.48 547.811 1345.43 557.126 1326.51C570.701 1298.96 585.526 1270.28 601.6 1240.46C610.801 1223.45 622.303 1207.57 636.106 1192.83C637.98 1190.85 638.917 1191.22 638.917 1193.94C638.917 1194.94 638.704 1195.84 638.278 1196.67C613.869 1243.53 588.948 1289.32 565.347 1338.78C549.245 1372.52 533.355 1406.27 517.678 1440.04Z" fill="#F8C7CF"/>
<path d="M258.07 1224.74C254.064 1232.15 251.454 1238.5 252.241 1238.92C253.027 1239.35 256.912 1233.69 260.918 1226.28C264.924 1218.87 267.534 1212.52 266.748 1212.09C265.961 1211.67 262.076 1217.33 258.07 1224.74Z" fill="#F8C7CF"/>
<path d="M574.759 1345.86L574.605 1345.79C573.921 1345.47 573.111 1345.77 572.795 1346.46L531.162 1436.56C530.846 1437.24 531.144 1438.05 531.827 1438.37L531.982 1438.44C532.665 1438.76 533.475 1438.46 533.791 1437.77L575.425 1347.67C575.741 1346.99 575.443 1346.18 574.759 1345.86Z" fill="#F8C7CF"/>
</g>
</svg>
