<svg width="334" height="228" viewBox="0 0 334 228" fill="none" xmlns="http://www.w3.org/2000/svg">
<path fill-rule="evenodd" clip-rule="evenodd" d="M321.071 110.106C322.264 109.364 322.894 108.491 322.962 107.486C323.065 107.139 323.174 106.8 323.282 106.464C323.74 105.044 324.176 103.689 324.038 102.149C323.903 100.556 323.835 98.975 323.833 97.4046C323.832 96.327 323.744 95.2241 323.568 94.0958C323.391 92.9944 323.244 91.8523 323.126 90.6694C322.953 88.9669 322.731 87.2715 322.459 85.5832C320.53 73.5615 318.608 61.4206 316.691 49.1606C316.265 46.4483 315.887 43.7116 315.51 40.9848L315.51 40.9826L315.509 40.9805L315.509 40.978C315.013 37.3883 314.519 33.8159 313.923 30.3392C313.433 27.4774 313.087 24.5037 312.885 21.4183C312.47 14.9309 310.794 3.25014 303.319 0.846993C298.156 -0.810413 294.135 5.33022 292.903 9.39569C292.031 12.2472 292.518 16.71 293.254 19.4344C297.154 33.8726 299.996 47.0768 301.78 59.0469C302.618 64.6757 303.418 69.1913 304.181 72.5937C304.61 74.5295 304.989 76.4725 305.319 78.4227C305.607 80.1347 305.943 81.8228 306.278 83.5067L306.279 83.5099C306.769 85.9726 307.257 88.4264 307.594 90.933C307.887 93.1316 308.221 95.3489 308.597 97.5847C308.97 99.7878 309.842 101.805 310.728 103.852L310.728 103.853C310.921 104.3 311.115 104.748 311.304 105.2C311.4 105.438 311.435 105.683 311.41 105.935L311.103 108.915L312.434 108.771C312.618 108.755 312.772 108.816 312.896 108.952L314.253 110.475C314.439 110.685 314.587 110.66 314.697 110.403C314.855 110.012 314.825 109.621 314.608 109.23C314.456 108.95 314.537 108.832 314.851 108.876C315.145 108.916 315.745 109.324 316.396 109.767C316.861 110.084 317.353 110.419 317.778 110.649C317.852 110.592 317.939 110.545 318.039 110.509C318.275 110.424 318.343 110.269 318.244 110.042C318.198 109.944 318.215 109.855 318.295 109.774C318.489 109.564 318.716 109.476 318.974 109.51C319.404 109.569 319.819 109.554 320.22 109.463C320.559 109.39 320.608 109.477 320.368 109.723C320.243 109.85 320.102 109.897 319.945 109.864C319.761 109.825 319.604 109.873 319.475 110.006L318.878 110.599C319.626 110.884 320.357 110.72 321.071 110.106ZM70.9946 87.1443C67.9007 82.2439 63.4283 79.7492 57.5776 79.6602L49.4984 80.2805C48.5115 80.3591 48.0262 79.9009 48.0424 78.9058C48.077 76.8188 48.322 74.6845 48.7774 72.5029C49.2959 70.0192 48.5999 65.7991 46.1602 64.4114C44.3544 63.3798 41.6959 62.9525 39.9098 64.4824C36.8288 67.1287 35.1446 70.7173 33.4585 74.3102C33.1565 74.9535 32.8545 75.597 32.5445 76.2352C31.8081 77.7597 31.2257 79.4922 30.7973 81.4325C30.0699 84.7244 29.4094 86.845 28.8157 87.7943C26.7669 91.0332 23.7644 93.4005 20.4433 95.8233C16.4011 99.915 11.6357 105.153 6.14707 111.538C3.68349 114.404 1.82517 117.321 0.572111 120.289C0.716776 122.603 1.44764 124.266 2.7647 125.28C3.79835 126.082 5.147 126.232 6.81065 125.729C9.60369 124.893 12.1019 123.305 14.3052 120.963L19.8721 114.715L25.2082 108.803C25.5952 108.377 25.9628 108.392 26.311 108.848C26.8082 109.501 26.7251 110.229 26.6406 110.971C26.6048 111.285 26.5687 111.601 26.5763 111.916C26.6457 115.494 26.5914 119.07 26.4134 122.644C26.357 123.789 26.7071 125.408 27.0851 127.157C27.4121 128.669 27.7599 130.278 27.8836 131.76C27.9147 132.127 27.9659 132.483 28.0158 132.831L28.0158 132.831L28.0158 132.831C28.2335 134.349 28.4253 135.686 26.8032 136.873C23.7709 139.091 20.8009 141.419 17.8932 143.859C16.0937 145.456 14.6098 147.494 13.4417 149.973C14.1642 158.498 18.5263 161.543 26.528 159.107L32.3983 154.463C32.6542 154.268 32.8434 154.316 32.9659 154.608C33.3589 155.523 33.6971 156.447 34.0333 157.366C34.582 158.867 35.1256 160.353 35.8946 161.761C38.6007 166.746 41.4136 171.703 45.5095 175.672C45.8897 176.039 46.2489 176.25 46.5742 176.44C47.2114 176.814 47.7186 177.112 47.9992 178.36C49.0033 182.862 50.0402 187.448 51.1101 192.119C51.29 192.915 50.991 193.433 50.2134 193.673C49.9663 193.752 49.7376 193.86 49.5114 193.966C49.0661 194.175 48.6301 194.379 48.0814 194.355C46.9637 194.315 45.835 194.436 44.6953 194.716C43.5299 195.002 42.3342 195.055 41.1083 194.876C36.634 194.215 27.8566 191.653 25.8108 186.914C25.0681 185.823 24.8499 184.728 25.1559 183.627C25.4972 182.299 25.7828 180.947 26.0128 179.572C26.1827 178.541 26.1009 177.619 25.7674 176.806C25.3362 175.745 24.7918 174.95 24.1343 174.421C23.4954 173.905 22.4474 173.677 20.9903 173.737C18.8999 174.035 17.0753 175.278 15.5166 177.465C13.9246 180.103 13.3501 182.898 13.7933 185.85C15.4108 194.535 20.7509 203.821 28.8309 208.09C37.1854 210.816 45.6089 211.009 54.1013 208.669C54.1665 208.65 54.2348 208.645 54.3021 208.654C54.3693 208.662 54.4342 208.684 54.4928 208.718C54.5513 208.752 54.6024 208.798 54.643 208.852C54.6836 208.907 54.7129 208.969 54.729 209.034L55.6341 212.73C56.4138 216.671 57.3177 220.563 58.346 224.406C58.602 225.368 59.0994 226.223 59.8382 226.971C59.9964 227.132 60.2079 227.229 60.432 227.244C60.6561 227.258 60.877 227.19 61.0523 227.051C61.7581 226.503 62.0453 225.765 61.914 224.837C61.4456 221.566 60.641 218.261 59.8154 214.869C59.2635 212.602 58.7021 210.296 58.2255 207.936C58.169 207.652 58.2774 207.47 58.5507 207.388C63.9728 205.837 70.7001 202.427 78.7328 197.16C81.9093 195.074 84.1404 193.517 85.426 192.489C90.2628 187.622 94.6296 182.388 98.5266 176.787C99.0107 176.095 99.577 175.117 100.226 173.851C100.732 172.866 101.299 171.881 101.929 170.898C101.996 170.156 102.279 169.464 102.778 168.823C102.979 168.563 103.192 168.556 103.417 168.8C106.542 172.215 109.462 174.815 112.177 176.601C116.892 179.709 122.323 181.094 128.469 180.754C132.674 180.522 136.408 179.229 139.67 176.874L142.089 175.009C143.38 173.846 144.237 172.817 144.659 171.924C144.993 171.23 145.2 171.261 145.281 172.017C145.335 172.531 145.749 172.765 146.522 172.718C146.987 172.685 147.093 172.473 146.838 172.085C146.669 171.829 146.425 171.625 146.106 171.475C145.857 171.358 145.8 171.045 145.935 170.536L148.986 164.902C149.568 164.646 150.059 164.328 150.461 163.948C150.66 163.764 150.88 163.725 151.121 163.833C151.439 163.973 151.648 164.192 151.75 164.488C151.84 164.748 152.013 164.934 152.271 165.043C152.453 165.12 152.637 165.142 152.823 165.11C152.877 165.099 152.927 165.074 152.967 165.036C153.007 164.998 153.035 164.95 153.049 164.897C153.063 164.844 153.061 164.788 153.045 164.736C153.028 164.683 152.997 164.637 152.955 164.601L150.915 162.917C150.526 163.198 150.169 163.304 149.844 163.235C149.531 163.169 149.45 162.994 149.603 162.712L150.375 161.296L152.063 151.968C152.128 151.623 152.225 151.612 152.354 151.935C154.551 157.448 157.808 162.198 162.125 166.184C162.295 166.445 162.597 166.683 163.03 166.897L166.861 169.978C166.968 170.063 167.09 170.128 167.221 170.171L174.727 172.568C174.985 172.651 175.208 172.789 175.397 172.982C175.689 173.267 176.003 173.255 176.339 172.947C176.621 172.698 176.95 172.6 177.326 172.654C178.507 172.826 179.632 172.795 180.701 172.56C183.647 171.931 186.472 171.145 189.174 170.205C191.911 169.25 193.745 169.696 196.196 170.736C198.26 171.612 200.919 171.999 203.06 171.323C208.941 169.465 213.444 165.424 216.568 159.199C219.16 154.045 221.009 149.466 222.114 145.46C223.095 141.909 223.837 139.413 224.338 137.973C224.792 134.172 225.58 130.482 226.7 126.903C226.848 126.434 226.962 125.955 227.042 125.468C227.08 125.256 227.153 125.245 227.26 125.432L229.614 129.66C231.448 133.969 233.945 137.474 237.105 140.174C239.109 141.893 241.143 142.82 243.207 142.955C247.309 143.226 250.291 141.308 252.154 137.2C252.619 136.175 252.822 135.081 252.762 133.919C252.702 132.783 252.759 131.697 252.816 130.608L252.816 130.608L252.816 130.607C252.85 129.957 252.884 129.305 252.893 128.641C252.903 127.857 252.983 127.071 253.132 126.286C253.645 123.591 253.735 120.92 253.825 118.275C253.892 116.3 253.959 114.339 254.2 112.394C254.489 110.1 254.73 107.787 254.925 105.454C254.961 105.003 255.075 104.629 255.183 104.275C255.397 103.573 255.587 102.953 255.091 101.971C255.067 101.925 255.057 101.874 255.061 101.823C255.065 101.772 255.084 101.724 255.115 101.685L255.302 101.414C255.358 101.344 255.412 101.344 255.463 101.414C256.02 102.166 256.32 103.023 256.361 103.986C257.729 104.501 258.32 105.367 258.133 106.584C258.712 106.769 259.009 107.318 259.025 108.232C259.142 108.444 259.207 108.649 259.219 108.845C260.213 110.55 261.132 112.313 261.978 114.133C262.252 114.733 262.421 115.243 262.484 115.665C262.524 115.92 262.621 116.15 262.774 116.355C263.331 117.107 263.703 117.95 263.889 118.883C263.945 119.14 264.041 119.378 264.176 119.598L265.118 121.14C265.468 121.359 265.713 121.611 265.856 121.893C265.953 122.088 265.92 122.258 265.756 122.404C265.619 122.522 265.571 122.674 265.614 122.858C266.645 124.284 267.628 125.885 268.565 127.41L268.566 127.41L268.566 127.411C269.283 128.577 269.972 129.698 270.634 130.664C274.821 136.768 279.245 142.695 283.908 148.446C287.058 152.338 290.656 155.744 294.701 158.665C295.048 159.41 295.555 159.736 296.222 159.64C299.227 161.293 302.196 161.41 305.129 159.989C305.365 159.878 305.545 159.708 305.671 159.479L306.853 157.378C306.967 156.846 306.968 156.274 306.857 155.664L307.078 154.751C307.136 154.504 307.142 154.253 307.097 154C305.88 147.33 301.954 143.434 297.819 139.329C295.989 137.512 294.117 135.654 292.421 133.497C290.527 131.092 288.909 128.758 287.568 126.494C287.158 125.804 286.767 124.949 286.398 123.929C286.117 123.165 285.756 122.508 285.314 121.958C284.956 121.512 284.738 120.999 284.521 120.488C284.289 119.942 284.058 119.398 283.659 118.942C282.708 117.855 281.983 116.662 281.483 115.362C280.984 114.068 280.416 112.793 279.78 111.536C277.7 107.42 276.019 103.142 274.738 98.7004C274.652 98.4064 274.43 97.869 274.071 97.0882C273.815 96.5332 273.6 95.9917 273.425 95.4636C272.553 92.8129 271.587 90.1986 270.622 87.5864C268.745 82.5078 266.871 77.437 265.695 72.1219C265.07 70.4612 264.61 68.7569 264.315 67.0088C263.621 62.9331 263.114 58.9597 262.793 55.0884C262.55 52.1721 262.264 49.7146 261.935 47.7159C261.529 45.2986 261.112 42.8565 260.685 40.3896C259.471 33.3561 255.509 28.5484 248.797 25.9664C246.001 25.36 244.172 25.073 243.31 25.1053C237.127 25.3558 232.816 31.6509 231.263 37.2196C231.171 40.0098 231.445 42.5983 232.087 44.9849C235.055 55.9577 237.331 66.5083 238.915 76.6366C239.515 78.0075 239.757 79.5353 239.643 81.2202C241.314 84.6026 242.14 87.9845 242.122 91.3656C242.103 94.7953 242.182 97.9641 242.359 100.872C242.431 102.064 242.227 103.517 241.748 105.232C241.643 105.618 241.51 105.625 241.351 105.255C239.956 102.021 238.179 98.9438 236.021 96.0229C235.581 95.4245 235.404 94.7654 235.491 94.0457C235.524 93.7818 235.487 93.5291 235.38 93.2878C234.339 90.9421 234.494 88.3692 234.646 85.8561L234.647 85.8557L234.647 85.8553C234.676 85.3766 234.704 84.8999 234.725 84.4275C234.944 79.3496 233.017 74.4419 228.41 71.8615C222.324 68.4416 214.911 68.2458 211.025 75.1398C209.963 77.0239 209.31 78.8161 209.064 80.5163C208.547 84.0827 208.579 87.864 209.161 91.8603C209.653 95.2604 209.834 98.8753 209.911 102.286C210.091 110.11 210.102 116.865 209.943 122.553C209.864 125.491 209.623 128.386 209.22 131.237C209.213 131.309 209.174 131.343 209.104 131.341L209.097 131.343C209.025 131.335 208.99 131.294 208.991 131.219C209.024 126.618 208.828 122.081 208.403 117.608C208.061 114.063 207.256 109.977 205.986 105.352C204.707 100.685 203.461 96.6493 202.247 93.2455C201.173 90.2213 199.505 87.0956 197.243 83.8684C194.957 80.5494 193.303 78.4234 192.281 77.4905C189.716 75.1385 186.891 73.2003 183.805 71.676C182.59 71.0766 181.358 70.6759 180.123 70.2747L180.123 70.2746C179.246 69.9893 178.367 69.7038 177.494 69.3464C174.55 68.1315 169.915 69.1272 167.034 70.1675L163.826 71.2571C160.185 73.2476 157.022 75.8025 154.335 78.9218C153.939 79.3814 153.193 80.578 152.099 82.5116C151.112 84.2576 149.743 85.6884 147.992 86.8038C147.878 87.6575 147.87 88.1685 147.968 88.3366C148.15 89.2813 147.868 90.3401 147.121 91.513C147.113 91.8522 147.033 92.1069 146.879 92.2769C146.696 92.4902 146.523 92.4818 146.359 92.2518C141.412 85.2196 136.389 79.7062 128.207 76.7844C125.996 75.9918 123.83 75.7746 121.708 76.1329C116.335 77.0424 111.747 79.4709 107.945 83.4184C104.848 86.6302 102.568 89.5451 101.106 92.1632C99.8483 94.4081 98.2273 97.7762 96.243 102.267C94.874 105.358 94.1224 108.59 93.3747 111.806L93.3747 111.806L93.3746 111.806C93.0104 113.373 92.6471 114.936 92.2138 116.476C92.1957 116.538 92.1654 116.596 92.1247 116.645C92.0839 116.695 92.0336 116.737 91.9765 116.767C91.9195 116.797 91.857 116.815 91.7928 116.821C91.7285 116.826 91.6638 116.819 91.6025 116.799C86.2501 115.013 80.7528 114.532 75.1107 115.355C73.8504 115.542 72.4012 116.112 70.763 117.066C69.3405 117.784 67.83 118.141 66.2317 118.138C65.2511 118.14 64.3756 118.239 63.6051 118.436C62.6037 118.683 61.6718 119.024 60.8094 119.459C60.3328 119.704 60.2689 119.626 60.6177 119.224C61.4207 118.302 62.2175 117.39 63.008 116.488C65.6491 113.463 67.8573 110.069 69.6328 106.306C72.0467 100.863 74.4119 92.5512 70.9946 87.1443ZM44.4471 118.384C44.403 118.109 44.4414 117.83 44.5622 117.549L44.1668 106.602C44.1628 106.555 44.167 106.508 44.1793 106.463C44.4091 105.275 44.5189 104.063 44.5085 102.827C44.48 99.5352 45.3496 97.1451 47.1171 95.6564C48.022 94.8972 49.5587 94.4972 51.7273 94.4566C52.7174 94.2057 53.65 94.2987 54.5252 94.7356C54.7643 94.8595 54.925 95.0473 55.0073 95.299C55.7958 97.844 54.9554 100.569 53.9016 103.111C52.5256 106.403 51.0513 109.538 49.4785 112.516C48.2032 114.915 46.6673 116.92 44.8708 118.533C44.6345 118.746 44.4933 118.696 44.4471 118.384ZM106.494 134.227C105.587 130.831 105.523 127.482 106.302 124.18C106.713 119.22 107.533 115.116 108.763 111.868C109.056 111.093 109.337 110.316 109.617 109.542L109.617 109.542L109.618 109.541C110.643 106.705 111.656 103.905 113.235 101.335C114.259 99.6677 115.274 98.1439 116.281 96.7639C117.321 95.3397 119.052 93.7752 121.474 92.0704C123.074 90.9528 124.617 90.6668 126.104 91.2124C130.944 92.9825 134.663 99.7848 136.304 104.388C136.94 106.18 137.447 107.948 137.826 109.69C139.138 115.789 139.809 122.91 138.951 129.224C138.426 133.044 137.62 136.668 136.533 140.096C135.739 142.592 135.023 145.311 134.386 148.252C133.646 151.665 132.754 154.981 131.712 158.202C130.764 159.12 130.103 160.123 129.73 161.21C129.584 161.636 129.294 161.914 128.859 162.043C128.565 162.129 128.447 162.021 128.505 161.72L128.731 160.557C128.801 160.205 128.656 160.03 128.297 160.032C128.115 160.031 127.911 160.125 127.686 160.315C127.891 161.26 127.797 162.107 127.404 162.856C127.28 163.095 127.088 163.248 126.828 163.316C126.303 163.453 125.75 163.499 125.167 163.454C124.148 163.802 123.186 163.886 122.282 163.707C120.03 163.03 118.192 161.959 116.769 160.495C114.558 158.223 112.901 156.245 111.799 154.561C110.823 153.077 110.013 151.354 109.37 149.391C109.33 149.271 109.348 149.16 109.424 149.059C109.576 148.852 109.582 148.641 109.443 148.428C108.726 147.329 108.561 146.243 108.388 145.106L108.388 145.106L108.388 145.106C108.31 144.594 108.231 144.071 108.098 143.533C107.341 140.456 106.806 137.354 106.494 134.227ZM161.264 92.1053C162.968 88.5893 165.134 85.0536 168.401 82.8024C170.761 81.4854 173.057 81.8588 175.291 83.9229L181.292 89.4184C181.593 89.696 181.566 89.9347 181.209 90.1345L180.978 90.2689C180.637 90.4656 180.569 90.7285 180.774 91.0575C181.175 91.7281 181.735 92.0724 182.451 92.0905C182.585 92.0944 182.714 92.1385 182.823 92.2171C182.932 92.2958 183.015 92.4053 183.062 92.5318C183.213 92.9557 183.47 93.2156 183.718 93.4674C184.007 93.7596 184.284 94.0408 184.373 94.5544C184.427 94.8494 184.396 95.1128 184.282 95.3447C184.25 95.4102 184.198 95.4639 184.134 95.4983C184.069 95.5327 183.996 95.546 183.924 95.5364C183.852 95.5267 183.784 95.4946 183.731 95.4446C183.678 95.3946 183.643 95.3292 183.629 95.2576C183.461 94.4707 183.107 94.0641 182.566 94.0379C181.769 93.993 181.701 94.194 182.364 94.641C183.384 95.3224 183.581 96.2026 182.955 97.2818C182.708 97.7116 182.783 97.7797 183.18 97.4861C183.625 97.1616 183.953 96.7479 184.163 96.2448C184.303 95.8954 184.471 95.8806 184.669 96.2004C185.483 97.5394 186.071 98.7438 186.434 99.8134C187.945 104.246 188.914 108.962 189.341 113.959C190.305 116.271 190.509 118.396 189.951 120.335C190.606 126.15 190.393 131.999 189.313 137.881C189.196 138.532 189.004 139.264 188.738 140.079C188.437 141.018 188.228 141.743 188.11 142.254C183.999 152.488 178.194 155.134 170.696 150.195C169.592 149.466 168.377 148.078 167.052 146.031C165.226 143.216 163.784 140.377 162.726 137.516C161.732 134.814 160.935 131.943 160.336 128.905C158.754 120.883 158.156 112.784 158.543 104.606C158.883 102.115 159.273 99.6432 159.712 97.1914C160.07 95.1953 160.587 93.5 161.264 92.1053ZM52.351 177.397L54.5322 175.024C54.948 171.891 54.4674 168.684 53.0902 165.404C52.4407 163.866 51.9879 162.656 51.7318 161.774C51.5948 161.303 51.4512 160.832 51.3075 160.36C50.943 159.163 50.5772 157.962 50.3141 156.757C49.2928 152.034 48.1828 147.148 46.9843 142.101C46.4539 139.869 47.0357 138.201 48.7298 137.097C51.2677 135.438 53.9417 133.791 56.7519 132.153C58.9864 130.856 61.9014 129.597 65.497 128.376C65.8477 128.253 66.5475 127.945 67.5966 127.452C69.3001 126.656 71.9889 127.157 74.1968 127.567L74.1969 127.567L74.197 127.567L74.1971 127.567C74.7165 127.664 75.2093 127.756 75.6564 127.824C78.3071 128.427 80.762 129.501 83.0212 131.046C84.8145 132.27 86.206 133.711 87.1956 135.369C90.0813 140.206 90.3639 144.814 90.4523 150.587C90.4917 153.072 90.0192 155.383 89.0349 157.52C88.2481 160.298 86.8708 163.221 84.903 166.288C83.0695 169.141 81.4792 171.452 80.1322 173.222C78.105 175.883 75.72 178.51 72.9772 181.105C67.8187 185.971 61.9233 189.614 55.291 192.034C55.0569 192.124 54.9095 192.043 54.8488 191.793L54.3354 189.7L52.0966 178.3C52.0646 178.14 52.0709 177.974 52.1151 177.817C52.1594 177.66 52.2402 177.516 52.351 177.397ZM319.374 119.307C321.147 120.241 322.678 121.442 323.968 122.912C324.141 123.108 324.357 123.236 324.616 123.297C327.131 123.865 328.085 124.9 329.431 126.36C329.644 126.591 329.866 126.832 330.107 127.085C330.446 127.441 330.805 127.766 331.186 128.06C332.428 129.019 332.862 130.149 332.489 131.451C332.417 131.712 332.416 131.973 332.483 132.233L333.481 135.829C333.481 135.832 333.48 135.834 333.479 135.837C333.705 137.863 333.416 139.4 332.613 140.449C331.537 141.853 330.507 143.265 329.524 144.683C329.46 144.776 329.369 144.847 329.261 144.885C329.154 144.924 329.036 144.929 328.924 144.899C327.933 144.635 326.977 144.735 326.056 145.197C326.01 145.22 325.971 145.253 325.94 145.294C325.909 145.334 325.889 145.382 325.88 145.431C325.871 145.481 325.874 145.532 325.888 145.579C325.903 145.627 325.929 145.67 325.964 145.706C326.15 145.907 326.568 145.935 327.22 145.787C326.181 146.037 325.617 146.561 325.53 147.36C324.752 146.604 323.938 146.166 323.089 146.045C322.824 146.007 322.593 145.898 322.396 145.717C322.139 145.479 321.829 145.428 321.465 145.565C321.275 145.635 321.174 145.773 321.161 145.979L321.11 146.769C321.106 146.836 321.118 146.903 321.145 146.964C321.172 147.025 321.213 147.078 321.265 147.12C321.316 147.161 321.377 147.188 321.442 147.2C321.507 147.212 321.573 147.208 321.635 147.187C321.808 147.137 321.986 147.093 322.172 147.056C322.506 146.984 322.795 147.061 323.038 147.286C323.222 147.453 323.336 147.663 323.381 147.917C323.438 148.228 323.314 148.427 323.009 148.514C322.766 148.584 322.535 148.515 322.317 148.306C321.302 148.031 320.449 147.555 319.756 146.878C319.518 146.652 319.24 146.493 318.921 146.401C318.332 146.24 318.002 145.866 317.934 145.279C317.921 145.164 317.871 145.057 317.791 144.973C317.711 144.89 317.607 144.835 317.493 144.816C317.379 144.798 317.262 144.817 317.16 144.872C317.058 144.926 316.977 145.012 316.929 145.117C316.592 145.849 315.998 146.297 315.146 146.462C314.789 146.527 314.706 146.407 314.897 146.101C315.097 145.788 315.19 145.461 315.176 145.121C315.171 144.854 315.051 144.652 314.815 144.517L312.735 143.323C312.772 142.806 312.674 142.453 312.444 142.263C311.68 141.633 311.033 141.71 310.504 142.497C310.278 141.684 309.869 141.044 309.277 140.578C309.048 140.398 308.911 140.166 308.865 139.88C308.725 139.018 308.278 138.453 307.522 138.185C306.628 137.87 306.557 137.418 307.308 136.829C307.826 136.415 307.895 135.926 307.515 135.364C307.079 134.711 306.78 133.991 306.618 133.203C306.592 133.074 306.616 132.941 306.685 132.83C306.754 132.72 306.863 132.639 306.989 132.606C307.331 132.516 307.685 132.505 308.052 132.571C308.448 132.648 308.668 132.486 308.711 132.086C308.736 131.861 308.81 131.651 308.931 131.455C308.994 131.352 309.014 131.23 308.989 131.112C308.964 130.995 308.896 130.891 308.797 130.822C308.337 130.501 308.216 130.07 308.435 129.527C308.825 128.527 309.337 127.648 309.968 126.89C310.052 126.789 310.116 126.673 310.154 126.548C310.193 126.423 310.206 126.291 310.193 126.161C310.149 125.618 310.212 125.085 310.381 124.564C310.451 124.373 310.572 124.231 310.747 124.137C311.543 123.694 312.155 123.117 312.581 122.405C312.69 122.227 312.851 122.147 313.064 122.164C313.347 122.188 313.581 122.337 313.764 122.611C313.946 122.881 314.189 122.969 314.492 122.876L316.777 122.196C317.02 122.121 317.257 122.127 317.489 122.215C318.664 122.651 319.431 122.6 319.791 122.062C319.861 122.198 319.874 122.346 319.83 122.504C319.761 122.75 319.624 122.875 319.417 122.88C319.625 122.877 319.764 122.751 319.834 122.505C319.877 122.346 319.864 122.198 319.794 122.062C318.973 120.339 318.833 119.42 319.374 119.307ZM318.509 122.74C317.79 122.7 317.14 122.906 316.558 123.357C315.221 124.396 313.925 125.638 312.669 127.084C312.057 127.781 311.822 128.503 311.567 129.289C311.458 129.623 311.346 129.968 311.2 130.328C311.121 130.527 311.022 130.624 310.903 130.618C311.024 130.626 311.124 130.529 311.203 130.328C311.349 129.968 311.462 129.623 311.57 129.289C311.825 128.503 312.06 127.782 312.672 127.084C313.928 125.638 315.225 124.396 316.562 123.358C317.142 122.907 317.792 122.701 318.509 122.74ZM310.396 130.343C310.384 130.342 310.371 130.342 310.358 130.342C310.012 130.352 309.857 130.528 309.892 130.869C309.922 131.207 310.083 131.475 310.374 131.674C310.604 131.832 310.725 132.049 310.737 132.326L310.798 133.922C310.801 134.019 310.778 134.116 310.732 134.203C310.686 134.29 310.618 134.363 310.535 134.417L310.177 134.641C310.13 134.672 310.126 134.705 310.165 134.74C310.983 135.483 311.348 136.348 311.261 137.336C311.239 137.576 311.306 137.788 311.46 137.972C312.809 139.574 314.267 140.881 315.836 141.893C316.747 142.484 317.531 143.255 318.187 144.207C318.328 144.404 318.513 144.539 318.742 144.611C318.798 144.63 318.853 144.643 318.905 144.65C318.854 144.643 318.8 144.63 318.745 144.612C318.516 144.539 318.331 144.404 318.19 144.207C317.534 143.255 316.75 142.484 315.839 141.893C314.271 140.881 312.812 139.574 311.463 137.972C311.309 137.788 311.242 137.576 311.264 137.336C311.352 136.348 310.986 135.483 310.168 134.74C310.129 134.705 310.133 134.672 310.181 134.641L310.538 134.417C310.621 134.363 310.689 134.29 310.735 134.203C310.781 134.116 310.804 134.02 310.801 133.922L310.741 132.326C310.728 132.049 310.607 131.832 310.378 131.674C310.086 131.475 309.925 131.207 309.896 130.87C309.86 130.528 310.015 130.353 310.362 130.343C310.373 130.342 310.385 130.342 310.396 130.343ZM320.026 144.128C320.066 144.13 320.106 144.137 320.145 144.147C320.781 144.316 321.412 144.44 322.039 144.519C321.413 144.44 320.783 144.316 320.148 144.147C320.108 144.137 320.067 144.13 320.026 144.128ZM327.22 145.787C327.243 145.782 327.265 145.777 327.288 145.772C327.265 145.777 327.243 145.782 327.22 145.787Z" fill="#F3B5C0"/>
</svg>
