<svg width="388" height="378" viewBox="0 0 388 378" fill="none" xmlns="http://www.w3.org/2000/svg">
<path d="M274.752 198.119C276.653 197.758 277.945 198.218 278.629 199.499C278.825 199.86 279.123 199.998 279.524 199.911L282.894 199.145C283.278 199.051 283.659 199.078 284.036 199.228C286.267 200.108 288.619 200.383 291.094 200.053L299.789 201.491C301.517 201.774 303.657 202.273 306.21 202.988C307.482 203.342 308.263 204.089 308.554 205.228C308.303 205.865 308.373 206.376 308.766 206.761C308.428 207.374 308.224 207.944 308.154 208.47C308.091 208.965 308.291 209.123 308.754 208.942C308.974 208.863 309.163 208.698 309.32 208.447C310.215 208.572 310.914 208.993 311.417 209.708C311.558 209.928 311.704 210.058 311.853 210.097C312.112 210.176 312.328 210.097 312.501 209.861C312.595 209.736 312.627 209.594 312.595 209.437C312.54 209.217 312.43 209.032 312.265 208.883C311.99 208.639 312.014 208.435 312.336 208.27C313.247 207.79 313.53 207.087 313.184 206.16C312.988 205.625 313.169 205.409 313.726 205.511C314.276 205.621 314.755 205.617 315.164 205.499C320.795 206.6 325.119 207.975 328.135 209.626C330.46 210.891 332.428 211.728 334.038 212.137C336.669 212.805 338.609 213.516 339.858 214.271C344.948 217.324 348.777 220.554 354.467 222.275C354.837 222.393 355.088 222.633 355.221 222.995C355.59 224.008 356.294 224.633 357.33 224.869C357.707 224.948 358.049 225.105 358.355 225.341C367.769 232.461 376.876 242.635 380.705 253.812C382.716 259.667 384.727 267.672 386.737 277.826C386.918 278.754 386.969 279.677 386.891 280.597C386.796 281.61 386.549 282.424 386.843 283.473C387.609 286.291 388.41 288.542 387.762 291.56C386.784 296.205 386.278 300.791 384.428 305.248C383.415 307.688 382.696 310.246 381.118 312.38C377.237 317.662 374.579 320.959 373.141 322.271C366.049 328.763 356.631 334.214 344.889 338.623C334.568 342.34 324.345 345.103 314.221 346.911C292.519 350.785 270.515 351.603 248.208 349.363C245.44 349.08 243.107 348.019 240.315 347.418C239.93 347.331 239.619 347.449 239.384 347.771C236.784 351.316 234.223 354.9 231.702 358.523C230.728 359.914 229.299 362.476 227.414 366.21C225.835 369.33 223.981 372.151 221.853 374.674C219.06 377.987 215.985 378.388 211.744 377.74C208.814 377.299 205.771 376.765 202.613 376.136C195.344 374.686 195.214 361.199 195.497 355.552C195.709 351.127 195.968 346.675 196.275 342.195C196.301 341.785 196.174 341.38 195.919 341.059C195.664 340.739 195.299 340.526 194.896 340.462C177.852 337.743 164.645 329.188 155.274 314.797C154.01 312.856 152.203 309.197 149.855 303.821C148.81 299.742 148.198 295.51 148.017 291.124C147.915 288.664 148.276 286.012 149.101 283.167C150.562 278.156 151.728 273.712 154.179 268.477C155.176 266.363 156.527 264.292 158.232 262.264C159.433 260.85 160.631 259.388 161.825 257.879C162.508 257.006 163.392 256.228 164.476 255.545C165.795 254.711 166.777 253.658 167.421 252.385C168.246 250.742 169.067 249.06 169.884 247.339C170.135 246.82 170.237 246.227 170.19 245.559C170.159 245.158 170.288 244.816 170.579 244.533L178.944 236.257L184.375 231.754L188.64 228.724C188.797 228.614 188.931 228.638 189.041 228.795L189.288 229.16C189.398 229.317 189.367 229.451 189.194 229.561C188.094 230.237 187.34 230.866 186.932 231.447C186.193 232.508 186.382 232.721 187.497 232.084C190.372 230.445 192.705 228.064 195.615 226.484C197.963 225.203 200.355 223.722 202.79 222.04C203.371 221.945 204.188 221.454 205.241 220.566C206.293 220.943 207.106 221.721 207.679 222.9C207.844 223.246 208.111 223.36 208.48 223.242C215.612 220.947 222.198 217.925 228.238 214.176C228.309 214.703 228.604 215.155 229.122 215.532C229.523 215.815 229.809 215.728 229.982 215.273L230.288 214.436C230.438 214.019 230.732 213.791 231.172 213.752C232.829 213.602 234.341 213.072 235.708 212.16C236.016 211.945 236.379 211.818 236.757 211.795C237.927 211.708 238.936 211.48 239.784 211.111C239.981 210.498 240.33 210.25 240.833 210.368C242.412 210.581 243.747 210.329 244.839 209.614C245.169 209.402 245.526 209.284 245.911 209.26C246.728 209.221 247.517 209.016 248.279 208.647C249.52 209.292 250.345 209.04 250.753 207.893C250.895 207.507 250.847 206.934 250.612 206.171C250.518 204.757 249.815 204.002 248.503 203.908C248 203.869 247.655 203.77 247.466 203.613C247.05 203.267 247.018 202.831 247.372 202.305C247.498 202.115 247.665 201.958 247.861 201.843C248.057 201.729 248.277 201.662 248.504 201.646C248.73 201.63 248.957 201.666 249.167 201.751C249.378 201.837 249.565 201.97 249.716 202.139C250.965 203.519 254.57 205.653 256.373 204.049C256.915 203.578 256.825 203.326 256.102 203.295C255.403 203.263 254.779 203.452 254.229 203.861C254.163 203.912 254.085 203.945 254.002 203.955C253.919 203.966 253.835 203.953 253.758 203.919C253.682 203.885 253.616 203.831 253.568 203.763C253.521 203.694 253.492 203.614 253.487 203.531C253.384 202.422 252.823 201.739 251.802 201.479C251.338 201.361 251.248 201.11 251.531 200.725L251.802 200.371C251.84 200.316 251.895 200.274 251.958 200.251C252.021 200.228 252.09 200.224 252.155 200.241L254.146 200.772C254.507 200.864 254.89 200.839 255.242 200.701C256.428 200.222 257.606 200.108 258.776 200.359C259.153 200.438 259.487 200.348 259.778 200.088L260.497 199.452C260.629 199.333 260.789 199.251 260.96 199.214C261.132 199.177 261.309 199.185 261.474 199.239C262.362 199.53 263.273 199.636 264.208 199.558C264.569 199.527 264.917 199.388 265.209 199.157C266.238 198.332 267.373 198.178 268.614 198.697C268.785 198.77 268.971 198.799 269.156 198.783C269.341 198.766 269.519 198.704 269.675 198.603C270.311 198.186 270.99 198.068 271.713 198.249C272.16 198.367 272.361 198.654 272.314 199.11C272.29 199.314 272.325 199.483 272.42 199.617C272.577 199.86 272.734 199.86 272.891 199.617C273.401 198.799 274.022 198.3 274.752 198.119ZM266.223 201.574C265.044 201.652 264.043 201.955 263.218 202.481C262.857 202.709 262.798 203.004 263.041 203.366C263.403 203.892 263.937 204.006 264.644 203.707C265.578 203.307 266.23 202.796 266.6 202.175C266.851 201.743 266.725 201.542 266.223 201.574ZM277.073 204.816C276.924 204.792 276.795 204.847 276.685 204.981C276.634 205.044 276.596 205.117 276.573 205.195C276.55 205.273 276.543 205.354 276.552 205.434C276.561 205.514 276.585 205.592 276.624 205.661C276.663 205.731 276.716 205.792 276.779 205.841C277.132 206.116 277.49 206.179 277.851 206.03C277.923 206 277.988 205.955 278.042 205.899C278.096 205.842 278.137 205.774 278.164 205.7C278.19 205.626 278.201 205.547 278.196 205.468C278.191 205.389 278.17 205.311 278.134 205.24C278.063 205.106 277.949 205.02 277.792 204.981C277.407 204.878 277.168 204.823 277.073 204.816ZM257.374 207.338C256.723 207.291 256.106 207.319 255.525 207.421C255.509 207.429 255.497 207.437 255.489 207.445C255.474 207.539 255.466 207.543 255.466 207.456C255.466 207.441 255.474 207.433 255.489 207.433C256.848 207.543 258.203 207.484 259.554 207.256C259.711 207.232 259.825 207.177 259.896 207.091C259.974 206.981 260.01 206.859 260.002 206.725C259.955 206.356 259.754 206.23 259.401 206.348C259.008 206.482 258.655 206.694 258.341 206.985C258.066 207.244 257.744 207.362 257.374 207.338ZM325.143 213.422C323.87 212.762 323.47 211.846 323.941 210.675C324.082 210.337 324.133 210.066 324.094 209.861C324.016 209.484 323.823 209.256 323.517 209.178C323.014 209.052 322.775 209.244 322.798 209.755L322.928 212.361C322.951 212.777 323.12 213.127 323.434 213.41C323.866 213.795 324.393 213.984 325.013 213.976C325.775 213.968 325.818 213.783 325.143 213.422ZM325.484 210.533L325.838 212.29C325.909 212.644 326.113 212.754 326.45 212.62C327.008 212.4 327.397 211.999 327.617 211.418C327.774 211.017 327.664 210.714 327.287 210.51C326.745 210.219 326.187 210.156 325.614 210.321C325.571 210.332 325.533 210.36 325.509 210.399C325.485 210.439 325.476 210.486 325.484 210.533ZM282.681 212.349C279.744 212.231 275.829 212.4 270.935 212.856C247.336 215.025 223.255 221.509 203.744 234.265C197.131 238.588 192.226 242.313 189.029 245.441C183.303 251.045 178.355 256.551 174.184 261.958C169.809 267.624 167.217 271.747 166.408 274.325C164.939 279.017 163.404 283.575 161.801 288C160.498 291.608 159.893 295.302 159.987 299.082C159.689 310.596 164.122 318.884 173.289 323.945C175.394 325.101 178.747 326.166 183.35 327.14C190.938 328.736 198.329 331.007 205.523 333.954C205.892 334.104 206.269 334.143 206.654 334.072C212.899 332.846 212.133 341.724 211.579 345.201C210.943 349.194 210.589 352.758 210.519 355.894C210.495 356.947 210.33 358.004 210.024 359.065C209.702 360.174 210.016 361.262 210.966 362.331C211.555 362.991 212.09 362.948 212.569 362.201C214.454 359.23 216.516 356.554 218.177 353.513C222.029 346.475 227.696 337.868 231.855 329.321C232.028 328.96 232.311 328.818 232.704 328.897C235.838 329.557 239.038 330.536 242.306 331.832C243.468 332.296 244.611 333 245.734 333.943C246.849 334.87 248.181 335.365 249.728 335.428C260.52 335.884 271.304 335.892 282.081 335.452C287.492 335.224 292.991 334.642 298.575 333.707C303.814 332.819 309.265 331.821 314.928 330.712C319.146 329.981 323.768 329.097 328.795 328.06C331.352 327.541 333.779 326.233 336.453 325.655C338.535 325.199 340.384 324.562 342.002 323.745C344.712 322.377 347.752 321.588 350.32 320.185C353.313 318.558 356.242 316.829 359.109 314.997C360.052 314.384 361.206 314.667 362.326 313.783C366.795 310.278 370.801 306.321 374.343 301.911C380.187 294.618 383.014 286.369 382.826 277.166C382.755 273.429 381.247 269.526 379.857 265.99C379.174 264.269 378.494 261.899 377.819 258.881C377.261 256.405 376.354 254.067 375.097 251.866C370.227 243.323 363.48 236.336 354.856 230.905C354.534 230.701 354.295 230.422 354.137 230.068C353.815 229.353 353.254 228.913 352.453 228.748C352.248 228.703 352.067 228.584 351.943 228.415C351.819 228.246 351.762 228.037 351.781 227.828C351.836 227.215 351.553 226.732 350.933 226.378C350.367 226.048 349.931 226.174 349.625 226.755C349.374 227.25 349.228 227.793 349.189 228.382C349.158 228.814 349.358 229.058 349.79 229.113C350.096 229.152 350.332 229.027 350.497 228.736C350.725 228.335 351.023 228.268 351.392 228.535C352.94 229.659 353.607 230.917 353.395 232.308C353.349 232.605 353.368 232.908 353.451 233.197C353.534 233.485 353.68 233.752 353.878 233.978C354.076 234.204 354.321 234.384 354.596 234.505C354.871 234.626 355.169 234.685 355.469 234.678C356.663 234.654 357.405 235.141 357.696 236.139C357.853 236.674 357.672 236.843 357.154 236.646C355.669 236.073 354.487 235.314 353.607 234.371C352.555 233.239 351.805 232.528 351.357 232.237C350.493 231.671 349.605 231.141 348.694 230.646C348.349 230.465 347.987 230.398 347.61 230.445C346.102 230.642 345.258 230.041 345.077 228.642C345.03 228.256 344.818 228.036 344.441 227.981C343.039 227.757 341.484 227.486 340.211 226.779C331.65 222.071 323.489 218.719 315.729 216.723C310.168 215.284 302.322 213.846 292.189 212.408L282.681 212.349ZM334.733 218.185C334.691 218.313 334.611 218.426 334.504 218.508C334.397 218.591 334.268 218.639 334.133 218.646C333.998 218.654 333.864 218.621 333.748 218.551C333.632 218.481 333.54 218.378 333.484 218.255C332.385 215.89 330.468 214.51 327.735 214.117C325.991 213.858 325.822 214.263 327.228 215.332C327.715 215.701 328.603 216.039 329.891 216.345C330.283 216.44 330.625 216.624 330.916 216.9C333.036 218.896 335.738 220.177 339.022 220.743C339.226 220.774 339.371 220.696 339.457 220.507C339.575 220.263 339.54 220.012 339.351 219.753C339.26 219.63 339.141 219.539 339.01 219.493C338.24 219.242 337.647 218.798 337.231 218.161C336.893 217.65 336.991 217.241 337.525 216.935L337.832 216.758C337.906 216.716 337.988 216.689 338.073 216.68C338.159 216.671 338.245 216.68 338.328 216.705C338.41 216.73 338.487 216.772 338.553 216.828C338.62 216.883 338.675 216.952 338.715 217.029C339.461 218.554 340.632 219.092 342.226 218.644C343.302 218.338 343.314 217.996 342.261 217.619L336.936 215.732C336.771 215.673 336.595 215.647 336.419 215.657C336.244 215.666 336.072 215.711 335.915 215.788C335.758 215.865 335.618 215.973 335.504 216.105C335.39 216.237 335.304 216.391 335.251 216.558L334.733 218.185ZM345.926 221.745C347.002 221.761 347.932 222.118 348.718 222.818C349.016 223.085 349.142 223.022 349.095 222.629C349.071 222.409 348.957 222.275 348.753 222.228C347.292 221.859 346.094 221.038 345.16 219.764C344.406 218.743 344.06 218.864 344.123 220.13C344.131 220.318 344.111 220.684 344.064 221.226C344.025 221.658 343.789 221.859 343.357 221.827L341.06 221.651C340.502 221.611 340.337 221.847 340.565 222.358C340.643 222.531 340.801 222.641 341.036 222.688C342.426 222.995 343.691 222.782 344.83 222.051C345.16 221.839 345.525 221.737 345.926 221.745ZM203.756 225.706C203.316 226.099 203.387 226.311 203.968 226.343C204.439 226.366 204.718 226.119 204.805 225.6C204.867 225.176 204.71 225.069 204.333 225.282C204.161 225.376 203.968 225.517 203.756 225.706ZM183.934 234.418C183.844 234.318 183.719 234.257 183.585 234.249C183.451 234.242 183.319 234.287 183.219 234.377L178.064 238.973C177.963 239.062 177.903 239.188 177.895 239.322C177.887 239.456 177.933 239.588 178.022 239.688L178.054 239.724C178.143 239.824 178.269 239.885 178.403 239.892C178.537 239.9 178.669 239.854 178.769 239.765L183.924 235.169C184.024 235.08 184.085 234.954 184.093 234.82C184.1 234.686 184.055 234.554 183.965 234.453L183.934 234.418Z" fill="#F3B5C0"/>
<path d="M113.248 0.119359C111.347 -0.242176 110.055 0.2176 109.371 1.49869C109.175 1.86023 108.877 1.99776 108.476 1.9113L105.106 1.14501C104.722 1.0507 104.341 1.0782 103.964 1.22753C101.733 2.10779 99.3805 2.38288 96.9064 2.05279L88.2115 3.49107C86.4835 3.77401 84.3431 4.27307 81.7904 4.98828C80.518 5.34196 79.7365 6.08862 79.4459 7.22824C79.6972 7.86486 79.6266 8.37571 79.2338 8.76082C79.5716 9.37386 79.7757 9.94368 79.8464 10.4703C79.9093 10.9654 79.709 11.1226 79.2456 10.9418C79.0257 10.8632 78.8371 10.6982 78.6801 10.4467C77.7847 10.5724 77.0856 10.9929 76.583 11.7081C76.4416 11.9282 76.2963 12.0579 76.147 12.0972C75.8878 12.1758 75.6718 12.0972 75.499 11.8614C75.4047 11.7356 75.3734 11.5942 75.4048 11.437C75.4598 11.2169 75.5697 11.0322 75.7346 10.8829C76.0095 10.6392 75.986 10.4349 75.664 10.2699C74.7528 9.79043 74.4701 9.087 74.8157 8.15958C75.0121 7.62514 74.8314 7.409 74.2737 7.51117C73.7239 7.6212 73.2448 7.61728 72.8364 7.49939C67.2047 8.59971 62.8809 9.97512 59.8647 11.6256C57.5398 12.891 55.5723 13.728 53.9621 14.1367C51.3309 14.8048 49.3908 15.516 48.142 16.2705C43.0523 19.3239 39.2232 22.5542 33.5326 24.2754C33.1635 24.3933 32.9122 24.633 32.7787 24.9945C32.4095 26.0084 31.7065 26.6332 30.6697 26.869C30.2927 26.9476 29.951 27.1048 29.6447 27.3406C20.2311 34.4613 11.1239 44.6354 7.29488 55.8115C5.28413 61.6668 3.27341 69.6717 1.26266 79.8261C1.08202 80.7535 1.03096 81.677 1.1095 82.5966C1.20375 83.6104 1.45114 84.4239 1.1566 85.4731C0.390793 88.2907 -0.410324 90.5425 0.237671 93.5605C1.21555 98.2054 1.72211 102.791 3.57182 107.248C4.58505 109.688 5.30373 112.246 6.88248 114.38C10.7626 119.662 13.4213 122.959 14.8587 124.271C21.9513 130.763 31.3687 136.214 43.1112 140.623C53.4319 144.34 63.6545 147.103 73.7789 148.911C95.4808 152.785 117.485 153.603 139.792 151.363C142.56 151.08 144.893 150.019 147.685 149.418C148.07 149.331 148.381 149.449 148.616 149.771C151.216 153.316 153.777 156.9 156.298 160.523C157.272 161.914 158.701 164.476 160.586 168.21C162.165 171.33 164.019 174.151 166.147 176.674C168.94 179.987 172.015 180.388 176.256 179.74C179.186 179.299 182.229 178.765 185.387 178.136C192.656 176.686 192.786 163.199 192.503 157.552C192.291 153.127 192.032 148.675 191.725 144.195C191.699 143.785 191.826 143.38 192.081 143.059C192.336 142.739 192.701 142.526 193.104 142.462C210.148 139.743 223.355 131.188 232.726 116.797C233.99 114.856 235.797 111.197 238.145 105.821C239.19 101.742 239.802 97.5099 239.983 93.1243C240.085 90.6643 239.724 88.0117 238.899 85.1666C237.438 80.1562 236.272 75.7117 233.821 70.4773C232.824 68.3631 231.473 66.2921 229.768 64.2643C228.567 62.8496 227.369 61.3878 226.175 59.8788C225.492 59.0064 224.608 58.2283 223.524 57.5445C222.205 56.7114 221.223 55.6582 220.579 54.385C219.754 52.7424 218.933 51.0604 218.116 49.3392C217.865 48.8205 217.763 48.2271 217.81 47.5591C217.841 47.1582 217.712 46.8163 217.421 46.5334L209.056 38.2574L203.625 33.7539L199.36 30.7241C199.203 30.6141 199.069 30.6376 198.959 30.7948L198.712 31.1603C198.602 31.3175 198.633 31.4511 198.806 31.5611C199.906 32.237 200.66 32.8658 201.068 33.4474C201.807 34.5084 201.618 34.7206 200.503 34.084C197.628 32.4453 195.295 30.0639 192.385 28.4842C190.037 27.2031 187.645 25.7215 185.21 24.0396C184.629 23.9453 183.812 23.4541 182.759 22.566C181.707 22.9432 180.894 23.7213 180.321 24.9002C180.156 25.246 179.889 25.36 179.52 25.2421C172.388 22.9472 165.802 19.9252 159.762 16.1762C159.691 16.7028 159.396 17.1547 158.878 17.532C158.477 17.8149 158.191 17.7285 158.018 17.2726L157.712 16.4356C157.562 16.019 157.268 15.7911 156.828 15.7518C155.171 15.6025 153.659 15.072 152.292 14.1603C151.984 13.9446 151.621 13.8182 151.243 13.7948C150.073 13.7084 149.064 13.4804 148.216 13.111C148.019 12.498 147.67 12.2504 147.167 12.3683C145.588 12.5805 144.253 12.329 143.161 11.6138C142.831 11.4016 142.474 11.2837 142.089 11.2601C141.272 11.2208 140.483 11.0165 139.721 10.6471C138.48 11.2916 137.655 11.0401 137.247 9.89259C137.105 9.50748 137.153 8.93373 137.388 8.17136C137.482 6.75666 138.185 6.00215 139.497 5.90784C140 5.86854 140.345 5.7703 140.534 5.61311C140.95 5.26729 140.982 4.83109 140.628 4.30451C140.502 4.1154 140.335 3.95767 140.139 3.84343C139.943 3.7292 139.723 3.66152 139.496 3.64558C139.27 3.62963 139.043 3.66587 138.833 3.75149C138.622 3.83712 138.435 3.96983 138.284 4.13946C137.035 5.5188 133.43 7.65265 131.627 6.04932C131.085 5.57775 131.175 5.32625 131.898 5.29481C132.597 5.26338 133.221 5.452 133.771 5.86069C133.837 5.91232 133.915 5.94506 133.998 5.95538C134.081 5.96571 134.165 5.95323 134.242 5.91928C134.318 5.88533 134.384 5.83121 134.432 5.76272C134.479 5.69424 134.508 5.61398 134.513 5.53059C134.616 4.42241 135.177 3.73863 136.198 3.47927C136.662 3.36138 136.752 3.10987 136.469 2.72476L136.198 2.37108C136.16 2.31597 136.105 2.27402 136.042 2.25084C135.979 2.22766 135.91 2.22436 135.845 2.2414L133.854 2.77193C133.493 2.86385 133.11 2.8391 132.758 2.70118C131.572 2.22175 130.394 2.1078 129.224 2.3593C128.847 2.43789 128.513 2.34751 128.222 2.08815L127.503 1.45153C127.371 1.33307 127.211 1.2511 127.04 1.21386C126.868 1.17661 126.691 1.1854 126.526 1.23933C125.638 1.53013 124.727 1.63622 123.792 1.55762C123.431 1.52697 123.083 1.38759 122.791 1.1568C121.762 0.331552 120.627 0.178293 119.386 0.697018C119.215 0.769586 119.029 0.798949 118.844 0.782501C118.659 0.766053 118.481 0.704296 118.325 0.602702C117.689 0.186151 117.01 0.068273 116.287 0.249041C115.84 0.366933 115.639 0.653798 115.686 1.10965C115.71 1.31399 115.675 1.48296 115.58 1.61657C115.423 1.86022 115.266 1.86022 115.109 1.61657C114.599 0.799189 113.978 0.300126 113.248 0.119359ZM121.777 3.57358C122.956 3.65218 123.957 3.95477 124.782 4.48136C125.143 4.70928 125.202 5.00401 124.959 5.36555C124.597 5.89213 124.063 6.00608 123.356 5.70743C122.422 5.30659 121.77 4.79572 121.4 4.17483C121.149 3.74256 121.275 3.54215 121.777 3.57358ZM110.927 6.81561C111.076 6.79203 111.205 6.84705 111.315 6.98066C111.366 7.04419 111.404 7.11702 111.427 7.19489C111.45 7.27276 111.457 7.35413 111.448 7.43423C111.439 7.51434 111.415 7.59158 111.376 7.66147C111.337 7.73135 111.284 7.79247 111.221 7.84127C110.868 8.11635 110.51 8.17923 110.149 8.0299C110.077 8.00012 110.012 7.95547 109.958 7.89876C109.904 7.84204 109.863 7.77449 109.836 7.70032C109.81 7.62616 109.799 7.54699 109.804 7.46778C109.809 7.38857 109.83 7.31103 109.866 7.24002C109.937 7.10641 110.051 7.01996 110.208 6.98066C110.593 6.87849 110.832 6.82347 110.927 6.81561ZM130.626 9.3385C131.277 9.29134 131.894 9.31886 132.475 9.42103C132.491 9.42889 132.503 9.43674 132.511 9.4446C132.526 9.53891 132.534 9.54285 132.534 9.4564C132.534 9.44068 132.526 9.43281 132.511 9.43281C131.152 9.54285 129.797 9.48391 128.446 9.25598C128.289 9.23241 128.175 9.17739 128.104 9.09094C128.026 8.9809 127.99 8.85907 127.998 8.72546C128.045 8.35606 128.246 8.23032 128.599 8.34821C128.992 8.48182 129.345 8.69402 129.659 8.98482C129.934 9.24418 130.256 9.36208 130.626 9.3385ZM62.8573 15.4217C64.1297 14.7615 64.5303 13.8459 64.059 12.6748C63.9176 12.3369 63.8666 12.0657 63.9059 11.8614C63.9844 11.4841 64.1768 11.2562 64.4831 11.1776C64.9858 11.0519 65.2254 11.2444 65.2018 11.7553L65.0722 14.3607C65.0487 14.7772 64.8798 15.127 64.5656 15.4099C64.1336 15.795 63.6073 15.9837 62.9868 15.9758C62.225 15.968 62.1818 15.7833 62.8573 15.4217ZM62.5156 12.5334L62.1622 14.29C62.0915 14.6436 61.8873 14.7537 61.5495 14.6201C60.9919 14.4 60.6031 13.9992 60.3831 13.4176C60.2261 13.0167 60.336 12.7141 60.713 12.5098C61.2549 12.219 61.8127 12.1561 62.386 12.3212C62.4293 12.332 62.4666 12.3598 62.4907 12.3992C62.5147 12.4386 62.5236 12.4865 62.5156 12.5334ZM105.319 14.3489C108.256 14.231 112.171 14.4 117.065 14.8559C140.664 17.0251 164.745 23.5091 184.256 36.265C190.869 40.5877 195.774 44.3131 198.971 47.4412C204.697 53.045 209.645 58.5505 213.816 63.9578C218.191 69.6245 220.783 73.7468 221.592 76.3247C223.061 81.0168 224.596 85.5753 226.199 90.0002C227.502 93.6077 228.107 97.3016 228.013 101.082C228.311 112.596 223.878 120.884 214.711 125.945C212.606 127.101 209.253 128.166 204.65 129.14C197.062 130.736 189.671 133.007 182.477 135.954C182.108 136.104 181.731 136.143 181.346 136.072C175.101 134.846 175.867 143.724 176.421 147.201C177.057 151.194 177.411 154.758 177.481 157.894C177.505 158.947 177.67 160.004 177.976 161.065C178.298 162.174 177.984 163.262 177.034 164.331C176.445 164.991 175.91 164.948 175.431 164.201C173.546 161.23 171.484 158.554 169.823 155.513C165.971 148.475 160.304 139.868 156.145 131.321C155.972 130.96 155.689 130.818 155.296 130.897C152.162 131.557 148.962 132.536 145.694 133.832C144.532 134.296 143.389 135 142.266 135.943C141.151 136.87 139.819 137.365 138.272 137.428C127.48 137.884 116.696 137.892 105.919 137.452C100.508 137.224 95.0095 136.642 89.425 135.707C84.186 134.819 78.735 133.821 73.072 132.712C68.8541 131.981 64.2318 131.097 59.205 130.06C56.6483 129.541 54.2213 128.233 51.5469 127.655C49.4655 127.199 47.6157 126.562 45.9977 125.745C43.2879 124.377 40.2482 123.588 37.6798 122.185C34.6873 120.558 31.7575 118.829 28.8907 116.997C27.9481 116.384 26.7935 116.667 25.6743 115.783C21.2051 112.278 17.1993 108.321 13.657 103.911C7.81323 96.6178 4.98569 88.3693 5.17419 79.1659C5.24489 75.4287 6.75288 71.5265 8.14313 67.9897C8.82646 66.2685 9.50592 63.8989 10.1814 60.8809C10.7391 58.4051 11.6463 56.0669 12.903 53.8663C17.7727 45.323 24.5197 38.336 33.1439 32.9051C33.4659 32.7008 33.7055 32.4217 33.8626 32.0681C34.1846 31.3528 34.7462 30.9127 35.5473 30.7477C35.752 30.7026 35.9332 30.5843 36.0569 30.415C36.1805 30.2456 36.2382 30.037 36.2189 29.8281C36.1639 29.2151 36.4466 28.7317 37.0671 28.378C37.6327 28.0479 38.0686 28.1737 38.375 28.7553C38.6263 29.2504 38.7716 29.7928 38.8109 30.3822C38.8423 30.8145 38.642 31.0581 38.21 31.1131C37.9037 31.1524 37.668 31.0267 37.5031 30.7359C37.2753 30.335 36.9769 30.2682 36.6077 30.5355C35.0604 31.6594 34.3927 32.9169 34.6048 34.308C34.6515 34.6048 34.6324 34.9082 34.549 35.1968C34.4656 35.4854 34.3198 35.7522 34.122 35.9782C33.9242 36.2043 33.6792 36.3841 33.4044 36.5049C33.1295 36.6258 32.8314 36.6847 32.5312 36.6776C31.3373 36.6541 30.5951 37.1413 30.3045 38.1395C30.1474 38.6739 30.3281 38.8429 30.8465 38.6465C32.3309 38.0727 33.513 37.3142 34.3927 36.3711C35.4453 35.2393 36.1953 34.5281 36.643 34.2373C37.507 33.6714 38.3946 33.1409 39.3057 32.6457C39.6513 32.465 40.0126 32.3982 40.3896 32.4453C41.8976 32.6418 42.742 32.0406 42.9227 30.6416C42.9698 30.2565 43.1819 30.0364 43.5589 29.9814C44.9609 29.7574 46.5161 29.4862 47.7885 28.7789C56.3499 24.0711 64.5106 20.719 72.2708 18.7227C77.8318 17.2844 85.6784 15.8461 95.8107 14.4079L105.319 14.3489ZM53.267 20.1846C53.309 20.313 53.3887 20.4259 53.4958 20.5083C53.6029 20.5907 53.7324 20.6388 53.8673 20.6465C54.0021 20.6541 54.1362 20.6209 54.2519 20.5511C54.3676 20.4813 54.4596 20.3782 54.5158 20.2553C55.6154 17.8896 57.5319 16.5103 60.2653 16.1173C62.009 15.8579 62.1778 16.2627 60.7719 17.3316C60.2849 17.701 59.3974 18.0389 58.1093 18.3454C57.7166 18.4398 57.3749 18.6245 57.0843 18.8995C54.9636 20.8958 52.2616 22.1769 48.9785 22.7428C48.7743 22.7742 48.629 22.6957 48.5426 22.507C48.4247 22.2634 48.4601 22.0119 48.6486 21.7525C48.7404 21.6297 48.8594 21.5393 48.9902 21.4932C49.7599 21.2417 50.353 20.7976 50.7692 20.161C51.107 19.6501 51.0088 19.2414 50.4747 18.9349L50.1684 18.7581C50.094 18.7159 50.0118 18.6895 49.9266 18.6803C49.8414 18.6712 49.755 18.6795 49.6725 18.7048C49.59 18.7301 49.5132 18.7719 49.4465 18.8276C49.3799 18.8834 49.3249 18.9519 49.2847 19.0292C48.5386 20.554 47.3683 21.0923 45.7738 20.6443C44.6978 20.3378 44.686 19.9959 45.7385 19.6187L51.0638 17.7324C51.2294 17.6729 51.4052 17.6472 51.5806 17.6568C51.756 17.6663 51.9275 17.711 52.0848 17.788C52.2421 17.8651 52.382 17.973 52.4961 18.1052C52.6101 18.2374 52.696 18.3913 52.7486 18.5577L53.267 20.1846ZM42.0744 23.7449C40.9983 23.7606 40.0676 24.1182 39.2821 24.8177C38.9836 25.0849 38.858 25.0221 38.9051 24.6291C38.9286 24.409 39.0426 24.2754 39.2468 24.2283C40.7077 23.8589 41.9055 23.0375 42.8402 21.7643C43.5942 20.7426 43.9398 20.8644 43.877 22.1298C43.8691 22.3184 43.8888 22.6839 43.9359 23.2262C43.9752 23.6584 44.2108 23.8589 44.6428 23.8274L46.9402 23.6506C47.4979 23.6113 47.6629 23.8471 47.4351 24.3579C47.3565 24.5308 47.1994 24.6409 46.9638 24.688C45.5735 24.9946 44.309 24.7823 43.1701 24.0514C42.8402 23.8392 42.4749 23.737 42.0744 23.7449ZM184.244 27.7061C184.684 28.099 184.613 28.3112 184.032 28.3427C183.561 28.3663 183.282 28.1187 183.195 27.6C183.133 27.1756 183.29 27.0694 183.667 27.2817C183.839 27.376 184.032 27.5174 184.244 27.7061ZM204.066 36.4182C204.156 36.3178 204.281 36.257 204.415 36.2493C204.549 36.2416 204.681 36.2875 204.781 36.3769L209.936 40.9726C210.037 41.062 210.097 41.1876 210.105 41.3219C210.113 41.4561 210.067 41.5879 209.978 41.6883L209.946 41.7235C209.857 41.8239 209.731 41.8847 209.597 41.8924C209.463 41.9001 209.331 41.8542 209.231 41.7648L204.076 37.1691C203.976 37.0797 203.915 36.954 203.907 36.8198C203.9 36.6856 203.945 36.5538 204.035 36.4534L204.066 36.4182Z" fill="#F3B5C0"/>
</svg>
