<svg width="443" height="376" viewBox="0 0 443 376" fill="none" xmlns="http://www.w3.org/2000/svg">
<path d="M74.4598 186.102C94.9449 186.102 115.65 193.151 115.65 217.16V344.696L94.9449 348V217.16C94.9449 193.151 84.5922 189.626 77.7639 189.626L74.4598 186.102ZM200.28 344.696C214.377 343.595 227.153 335.885 234.862 323.991L238.166 330.819C227.814 341.172 207.769 348.22 193.452 348.22C161.072 348.22 134.64 329.718 131.776 292.933C131.556 290.73 131.556 288.527 131.556 286.104C131.556 244.694 159.09 223.988 193.452 223.988C195.214 223.988 197.196 224.209 198.958 224.209C199.619 224.209 200.28 224.429 200.941 224.429C202.042 224.649 203.144 224.649 204.245 224.869C205.126 224.869 205.787 225.09 206.668 225.09C207.549 225.31 208.43 225.53 209.311 225.751C210.192 225.971 211.073 225.971 211.954 226.191C212.615 226.411 213.496 226.632 214.377 226.852C215.258 227.072 216.139 227.513 216.8 227.733C217.681 227.953 218.342 228.174 219.223 228.614C219.884 228.834 220.765 229.275 221.646 229.495C222.307 229.936 222.968 230.156 223.629 230.376C224.51 230.817 225.391 231.257 226.052 231.698C226.712 232.138 227.373 232.359 228.034 232.799C228.915 233.24 229.576 233.68 230.237 234.121C230.677 234.341 231.118 234.561 231.338 234.782C243.893 243.592 252.264 257.249 254.246 272.227H234.862C205.787 272.227 180.896 285.003 152.041 285.884V286.104C152.041 327.515 179.795 344.696 200.28 344.696ZM186.623 227.513C160.191 227.513 152.702 255.927 152.261 282.58C180.236 281.479 204.685 269.364 232.88 268.923C231.338 261.654 228.475 254.826 224.51 248.659C223.408 246.896 222.087 245.575 220.985 244.033C220.765 243.813 220.545 243.372 220.104 243.152C219.223 242.05 218.122 240.949 217.021 239.848C216.58 239.628 216.139 239.187 215.919 238.967C214.598 237.865 213.276 236.764 211.734 235.663C210.192 234.561 208.65 233.68 207.108 233.019C206.888 232.799 206.448 232.579 206.007 232.359C204.906 231.698 203.584 231.257 202.263 230.596C202.042 230.596 201.602 230.376 201.381 230.376C199.84 229.715 198.298 229.275 196.756 228.834C196.536 228.834 196.095 228.614 195.875 228.614C194.553 228.394 193.452 228.174 192.13 227.953C191.69 227.953 191.249 227.733 191.029 227.733C189.487 227.513 187.945 227.513 186.623 227.513ZM317.002 334.343L323.83 341.172C319.205 345.577 313.037 348 306.649 348C282.64 348 268.763 334.343 268.763 303.285V231.037H255.106V227.513H268.763V206.807L289.468 203.283V227.513H317.002V231.037H289.468V306.81C289.468 330.819 292.993 344.696 306.649 344.696C313.478 344.696 317.002 334.343 317.002 334.343ZM383.355 279.276C397.232 281.919 431.594 289.629 431.594 313.638C431.594 341.172 414.413 348.22 379.831 348.22C338.42 348.22 328.288 327.515 328.288 327.515L335.116 317.162C335.116 317.162 348.773 344.696 379.831 344.696C404.06 344.696 410.888 330.819 410.888 313.638C410.888 296.457 397.012 286.104 379.831 282.58C366.394 279.937 328.288 279.276 328.288 255.046C328.288 231.037 348.773 223.988 379.831 223.988C397.012 223.988 417.717 227.733 428.069 234.782L421.461 248.879C411.77 235.663 396.351 227.733 379.831 227.513C359.125 227.513 348.773 237.865 348.773 255.046C348.773 274.21 366.174 275.752 383.355 279.276Z" fill="#E0CD70"/>
<path d="M131.06 9.62637L151.766 6.10207V164.696L131.06 168V75.0464C98.4604 75.0464 70.4862 88.9233 37.8863 88.9233V164.696L17.4013 168V9.62637L37.8863 6.10207V85.399C70.4862 85.399 98.4604 71.522 131.06 71.522V9.62637ZM237.572 164.696C251.67 163.595 264.445 155.885 272.155 143.991L275.459 150.819C265.106 161.172 245.062 168.22 230.744 168.22C198.365 168.22 171.932 149.718 169.069 112.933C168.848 110.73 168.848 108.527 168.848 106.104C168.848 64.6937 196.382 43.9884 230.744 43.9884C232.506 43.9884 234.489 44.2087 236.251 44.2087C236.912 44.2087 237.572 44.4289 238.233 44.4289C239.335 44.6492 240.436 44.6492 241.537 44.8695C242.418 44.8695 243.079 45.0897 243.96 45.0897C244.841 45.31 245.722 45.5303 246.604 45.7505C247.485 45.9708 248.366 45.9708 249.247 46.1911C249.908 46.4113 250.789 46.6316 251.67 46.8519C252.551 47.0722 253.432 47.5127 254.093 47.733C254.974 47.9532 255.635 48.1735 256.516 48.614C257.176 48.8343 258.058 49.2748 258.939 49.4951C259.599 49.9357 260.26 50.1559 260.921 50.3762C261.802 50.8167 262.683 51.2573 263.344 51.6978C264.005 52.1383 264.666 52.3586 265.326 52.7992C266.207 53.2397 266.868 53.6802 267.529 54.1208C267.97 54.341 268.41 54.5613 268.63 54.7816C281.186 63.5923 289.556 77.249 291.538 92.2274H272.155C243.079 92.2274 218.189 105.003 189.333 105.884V106.104C189.333 147.515 217.087 164.696 237.572 164.696ZM223.916 47.5127C197.483 47.5127 189.994 75.9274 189.554 102.58C217.528 101.479 241.978 89.3639 270.172 88.9233C268.63 81.6544 265.767 74.8261 261.802 68.6585C260.701 66.8964 259.379 65.5748 258.278 64.0329C258.058 63.8126 257.837 63.3721 257.397 63.1518C256.516 62.0505 255.414 60.9491 254.313 59.8478C253.872 59.6275 253.432 59.187 253.212 58.9667C251.89 57.8654 250.568 56.764 249.026 55.6627C247.485 54.5613 245.943 53.6802 244.401 53.0194C244.181 52.7992 243.74 52.5789 243.299 52.3586C242.198 51.6978 240.877 51.2573 239.555 50.5965C239.335 50.5965 238.894 50.3762 238.674 50.3762C237.132 49.7154 235.59 49.2748 234.048 48.8343C233.828 48.8343 233.387 48.614 233.167 48.614C231.845 48.3938 230.744 48.1735 229.423 47.9532C228.982 47.9532 228.541 47.733 228.321 47.733C226.779 47.5127 225.237 47.5127 223.916 47.5127ZM402.282 43.9884L405.586 45.31L343.691 196.635C337.083 212.715 314.175 211.613 305.584 204.565L308.888 197.736C315.937 203.463 333.999 210.732 340.387 195.313L358.449 151.48L345.233 160.731L292.148 56.3235L309.108 44.2087L360.651 145.753L402.282 43.9884ZM425.977 168C420.47 168 415.844 163.374 415.844 157.868C415.844 152.141 420.47 147.515 425.977 147.515C431.704 147.515 436.329 152.141 436.329 157.868C436.329 163.374 431.704 168 425.977 168ZM433.025 123.285L419.148 126.81L415.844 9.62637L436.329 6.10207L433.025 123.285Z" fill="#E0CD70"/>
</svg>
