<svg width="94" height="44" viewBox="0 0 94 44" fill="none" xmlns="http://www.w3.org/2000/svg">
<path d="M14.2405 0.675781V1.64281C13.2006 1.67908 12.4054 1.79996 11.8671 2.00545C11.3288 2.21095 10.9617 2.59776 10.766 3.16589C10.5702 3.73402 10.4724 4.60435 10.4724 5.80106V29.7835C10.4724 30.9439 10.5702 31.8142 10.766 32.3945C10.9617 32.9747 11.3288 33.3615 11.8671 33.5549C12.4054 33.7483 13.2006 33.8813 14.2405 33.9417V34.9087C13.4208 34.8483 12.3809 34.8 11.1085 34.7879C9.8362 34.7758 8.55163 34.7637 7.24258 34.7637C5.77449 34.7637 4.40427 34.7758 3.13193 34.7879C1.85958 34.8 0.819684 34.8483 0 34.9087V33.9417C1.0766 33.8813 1.88405 33.7483 2.42235 33.5549C2.96065 33.3615 3.31544 32.9747 3.49895 32.3945C3.68246 31.8142 3.7681 30.9439 3.7681 29.7835V5.80106C3.7681 4.60435 3.68246 3.73402 3.49895 3.16589C3.31544 2.59776 2.96065 2.21095 2.42235 2.00545C1.88405 1.79996 1.0766 1.67908 0 1.64281V0.675781C0.819684 0.712045 1.85958 0.736221 3.13193 0.772485C4.40427 0.808748 5.77449 0.820836 7.24258 0.820836C8.55163 0.820836 9.8362 0.808748 11.1085 0.772485C12.3809 0.736221 13.4208 0.712045 14.2405 0.675781Z" fill="white"/>
<path d="M34.6386 0C37.9663 0 40.8902 0.689011 43.3982 2.07912C45.9062 3.46923 47.8636 5.45165 49.2461 8.05055C50.6285 10.6495 51.3259 13.7923 51.3259 17.5033C51.3259 21.1176 50.6163 24.2725 49.1971 26.9802C47.778 29.6879 45.8083 31.8033 43.2758 33.3143C40.7434 34.8253 37.8561 35.5868 34.5896 35.5868C31.262 35.5868 28.338 34.8978 25.83 33.5077C23.322 32.1176 21.3646 30.1231 19.9821 27.5121C18.5997 24.9011 17.9023 21.7582 17.9023 18.0835C17.9023 14.4692 18.6242 11.3143 20.0555 8.60659C21.4869 5.8989 23.4689 3.78352 25.9768 2.27253C28.4848 0.761538 31.3721 0 34.6386 0ZM52.794 34.8615L53.5769 35.1516C53.2833 36.7593 52.8674 38.1495 52.3291 39.3099C51.7908 40.4703 51.1179 41.3769 50.2982 42.0176C49.6498 42.5615 48.7812 43.033 47.7046 43.4198C46.628 43.8066 45.3556 44 43.8875 44C42.1258 44 40.4008 43.722 38.7248 43.178C37.0487 42.6341 35.3359 41.9571 33.5864 41.1473C31.837 40.3374 29.9774 39.5879 27.9832 38.8747C27.7508 38.8143 27.5306 38.7418 27.3226 38.6813C27.1146 38.6209 26.9189 38.5725 26.7598 38.5363C26.1359 38.8264 25.4752 39.056 24.7534 39.2132C24.0316 39.3703 23.3465 39.4549 22.6981 39.4549C22.0497 39.4549 21.5114 39.3582 21.0832 39.1648C20.655 38.9714 20.447 38.6813 20.447 38.2945C20.447 37.4846 21.3279 37.0857 23.0896 37.0857C24.2274 37.0857 25.4508 37.2791 26.7598 37.6659C27.971 37.3396 28.9987 36.9769 29.8673 36.578C30.7359 36.1791 31.629 35.7923 32.5588 35.4418C33.4886 35.0912 34.5896 34.8615 35.862 34.7648L35.9109 35.5385C34.9322 35.6352 34.0636 35.8165 33.3173 36.0945C32.571 36.3725 31.8247 36.6626 31.0907 36.989C30.3566 37.3154 29.488 37.6176 28.4726 37.9077C30.5891 38.1374 32.6444 38.3549 34.6141 38.5846C36.5838 38.8143 38.4311 38.9835 40.1439 39.0923C41.8567 39.2011 43.3982 39.2132 44.7684 39.1165C46.8849 38.9593 48.5732 38.5484 49.8088 37.9077C51.0445 37.267 52.0477 36.2516 52.794 34.8615ZM34.4428 0.87033C32.5221 0.87033 30.846 1.5956 29.4269 3.04615C28.0077 4.4967 26.9066 6.49121 26.1237 9.04176C25.3407 11.5923 24.9492 14.5418 24.9492 17.8901C24.9492 21.311 25.3896 24.2846 26.2705 26.811C27.1513 29.3374 28.338 31.2956 29.8428 32.6615C31.3476 34.0275 32.987 34.7165 34.7854 34.7165C36.7061 34.7165 38.3822 33.9912 39.8014 32.5407C41.2205 31.0901 42.3216 29.0835 43.1046 26.5209C43.8875 23.9582 44.279 21.0209 44.279 17.6967C44.279 14.2516 43.8386 11.2659 42.9578 8.75165C42.0769 6.23736 40.8902 4.29121 39.4099 2.92527C37.9295 1.55934 36.2657 0.87033 34.4428 0.87033Z" fill="#EC87FF"/>
<path d="M66.9468 9.37891V30.1218C66.9468 31.6086 67.2404 32.5998 67.8276 33.1196C68.4149 33.6393 69.4303 33.8932 70.8617 33.8932V34.9086C70.2133 34.8723 69.259 34.8361 67.9989 34.7877C66.7388 34.7393 65.442 34.7152 64.1085 34.7152C62.4813 34.7152 60.9154 34.7393 59.435 34.7877C57.9547 34.8361 56.8047 34.8723 55.985 34.9086V33.8932C57.4898 33.8932 58.6643 33.6273 59.5084 33.0954C60.3526 32.5635 60.7808 31.5119 60.7808 29.9284V18.1306C60.7808 16.5833 60.634 15.435 60.3404 14.6976C60.0467 13.9602 59.5207 13.4767 58.7744 13.247C58.0281 13.0174 57.0005 12.9086 55.6914 12.9086V11.8448C58.334 11.7844 60.5239 11.5668 62.2733 11.2163C64.0228 10.8657 65.5765 10.2492 66.9468 9.37891Z" fill="white"/>
<path d="M83.3897 9.23535C85.6408 9.23535 87.5248 9.73096 89.0418 10.7101C90.5589 11.6892 91.3174 13.0551 91.3174 14.7958C91.3174 16.0167 90.9259 17.165 90.1429 18.2288C89.3599 19.2925 88.2956 20.2112 86.9376 20.9848C85.5796 21.7584 84.0259 22.3507 82.2642 22.7738C84.2583 22.7375 86.069 22.9914 87.6961 23.5233C89.3232 24.0551 90.6323 24.8771 91.611 25.9892C92.5897 27.1013 93.0791 28.4914 93.0791 30.1716C93.0791 32.009 92.4796 33.665 91.2929 35.1518C90.1062 36.6386 88.5402 37.8958 86.595 38.9474C84.6498 39.9991 82.5211 40.7969 80.1844 41.365C77.8477 41.9332 75.5232 42.2112 73.2109 42.2112V41.2925C74.7769 41.2321 76.3551 40.954 77.9333 40.4705C79.5115 39.987 80.9673 39.2738 82.2886 38.343C83.6099 37.4123 84.6743 36.2518 85.4695 34.8859C86.2647 33.52 86.6684 31.9485 86.6684 30.1716C86.6684 28.2738 86.2158 26.7024 85.2982 25.4815C84.3807 24.2606 83.1328 23.5837 81.5301 23.4507C81.0408 23.6441 80.5881 23.8255 80.1844 23.9826C79.7806 24.1397 79.3891 24.2244 79.0344 24.2244C78.4838 24.2244 78.2024 23.9826 78.2024 23.4991C78.2024 23.1727 78.3492 22.931 78.6429 22.7738C78.9365 22.6167 79.279 22.5321 79.6705 22.5321C79.9274 22.5321 80.1966 22.5441 80.478 22.5804C80.7594 22.6167 81.053 22.6408 81.3833 22.6771C82.7535 21.7101 83.72 20.6584 84.295 19.5101C84.87 18.3617 85.1514 17.2134 85.1514 16.0529C85.1514 14.5661 84.7599 13.4782 83.9769 12.7892C83.194 12.1002 82.154 11.7496 80.845 11.7496C79.536 11.7496 78.3248 12.076 77.1992 12.7408C76.0737 13.4057 75.1317 14.3969 74.3854 15.7145L73.5535 15.2793C74.104 14.2156 74.8014 13.2244 75.6333 12.3057C76.4652 11.387 77.5173 10.6496 78.7897 10.0815C80.062 9.51337 81.5913 9.23535 83.3897 9.23535Z" fill="white"/>
</svg>
