<svg width="1009" height="600" viewBox="0 0 1009 600" fill="none" xmlns="http://www.w3.org/2000/svg">
<path d="M154.238 149.298V159.772C142.975 160.164 134.362 161.474 128.531 163.699C122.701 165.925 118.726 170.115 116.606 176.268C114.486 182.421 113.426 191.848 113.426 204.809V464.561C113.426 477.13 114.486 486.556 116.606 492.841C118.726 499.125 122.701 503.315 128.531 505.409C134.362 507.504 142.975 508.944 154.238 509.599V520.073C145.36 519.418 134.097 518.894 120.316 518.764C106.535 518.633 92.6221 518.502 78.4439 518.502C62.5431 518.502 47.7024 518.633 33.9217 518.764C20.141 518.894 8.87794 519.418 0 520.073V509.599C11.6606 508.944 20.406 507.504 26.2363 505.409C32.0666 503.315 35.9093 499.125 37.8969 492.841C39.8845 486.556 40.812 477.13 40.812 464.561V204.809C40.812 191.848 39.8845 182.421 37.8969 176.268C35.9093 170.115 32.0666 165.925 26.2363 163.699C20.406 161.474 11.6606 160.164 0 159.772V149.298C8.87794 149.691 20.141 149.952 33.9217 150.345C47.7024 150.738 62.5431 150.869 78.4439 150.869C92.6221 150.869 106.535 150.738 120.316 150.345C134.097 149.952 145.36 149.691 154.238 149.298Z" fill="black"/>
<path d="M380.877 0C419.027 0 452.55 7.90797 481.303 23.8626C510.057 39.8173 532.498 62.5701 548.348 92.3983C564.197 122.227 572.192 158.298 572.192 200.89C572.192 242.372 564.057 278.582 547.787 309.659C531.516 340.736 508.934 365.015 479.901 382.357C450.867 399.699 417.765 408.44 380.315 408.44C342.165 408.44 308.642 400.532 279.889 384.577C251.135 368.622 228.694 345.731 212.844 315.764C196.995 285.797 189 249.725 189 207.549C189 166.067 197.275 129.857 213.686 98.7802C230.096 67.7033 252.819 43.4244 281.572 26.0824C310.325 8.74038 343.427 0 380.877 0ZM589.023 400.115L598 403.445C594.634 421.897 589.865 437.852 583.693 451.17C577.522 464.489 569.808 474.894 560.41 482.247C552.976 488.49 543.018 493.901 530.675 498.341C518.332 502.78 503.745 505 486.914 505C466.716 505 446.939 501.809 427.724 495.566C408.508 489.323 388.871 481.554 368.814 472.258C348.757 462.963 327.437 454.361 304.575 446.176C301.91 445.482 299.385 444.65 297.001 443.956C294.616 443.262 292.372 442.707 290.549 442.291C283.395 445.621 275.821 448.257 267.546 450.06C259.271 451.864 251.416 452.835 243.982 452.835C236.548 452.835 230.377 451.725 225.468 449.505C220.559 447.286 218.174 443.956 218.174 439.516C218.174 430.221 228.273 425.643 248.471 425.643C261.515 425.643 275.541 427.863 290.549 432.302C304.435 428.556 316.216 424.394 326.175 419.816C336.133 415.238 346.372 410.798 357.032 406.775C367.692 402.751 380.316 400.115 394.903 399.005L395.464 407.885C384.243 408.994 374.284 411.076 365.728 414.266C357.172 417.457 348.617 420.787 340.201 424.533C331.785 428.279 321.827 431.747 310.185 435.077C334.45 437.713 358.014 440.21 380.596 442.846C403.178 445.482 424.357 447.424 443.994 448.673C463.63 449.922 481.303 450.06 497.012 448.951C521.277 447.147 540.633 442.43 554.8 435.077C568.966 427.724 580.467 416.07 589.023 400.115ZM378.632 9.98901C356.611 9.98901 337.396 18.3132 321.126 34.9615C304.855 51.6099 292.232 74.5014 283.255 103.775C274.278 133.048 269.79 166.9 269.79 205.33C269.79 244.592 274.84 278.721 284.938 307.717C295.037 336.713 308.642 359.188 325.894 374.865C343.146 390.543 361.941 398.451 382.56 398.451C404.581 398.451 423.796 390.126 440.067 373.478C456.337 356.83 468.96 333.799 477.937 304.387C486.914 274.975 491.402 241.262 491.402 203.11C491.402 163.57 486.353 129.302 476.254 100.445C466.155 71.5879 452.55 49.2514 435.578 33.5742C418.607 17.897 399.531 9.98901 378.632 9.98901Z" fill="#FBCAD2"/>
<path d="M725.082 243.573V468.238C725.082 484.341 728.262 495.077 734.622 500.707C740.983 506.336 751.981 509.086 767.484 509.086V520.083C760.461 519.691 750.126 519.298 736.477 518.774C722.829 518.25 708.783 517.989 694.34 517.989C676.717 517.989 659.756 518.25 643.723 518.774C627.689 519.298 615.234 519.691 606.356 520.083V509.086C622.654 509.086 635.375 506.205 644.518 500.445C653.661 494.684 658.298 483.294 658.298 466.143V338.362C658.298 321.604 656.708 309.166 653.528 301.18C650.348 293.193 644.65 287.956 636.567 285.469C628.485 282.981 617.354 281.803 603.176 281.803V270.282C631.797 269.627 655.516 267.27 674.464 263.474C693.413 259.677 710.241 253 725.082 243.573Z" fill="black"/>
<path d="M903.189 242.006C927.57 242.006 947.976 247.374 964.407 257.979C980.838 268.583 989.053 283.378 989.053 302.231C989.053 315.454 984.813 327.892 976.332 339.413C967.852 350.934 956.324 360.884 941.616 369.263C926.907 377.642 910.079 384.058 890.998 388.64C912.597 388.247 932.208 390.997 949.831 396.757C967.454 402.518 981.633 411.421 992.233 423.466C1002.83 435.511 1008.13 450.567 1008.13 468.765C1008.13 488.665 1001.64 506.602 988.788 522.706C975.935 538.809 958.974 552.425 937.905 563.816C916.837 575.206 893.781 583.847 868.472 590C843.163 596.154 817.987 599.165 792.943 599.165V589.215C809.904 588.56 826.998 585.549 844.091 580.312C861.184 575.075 876.952 567.35 891.263 557.269C905.574 547.188 917.102 534.62 925.715 519.825C934.328 505.031 938.701 488.011 938.701 468.765C938.701 448.21 933.798 431.19 923.86 417.967C913.922 404.744 900.406 397.412 883.048 395.972C877.748 398.067 872.845 400.03 868.472 401.732C864.099 403.434 859.859 404.351 856.016 404.351C850.054 404.351 847.006 401.732 847.006 396.495C847.006 392.96 848.596 390.342 851.776 388.64C854.956 386.938 858.667 386.022 862.907 386.022C865.689 386.022 868.605 386.152 871.652 386.545C874.7 386.938 877.88 387.2 881.458 387.593C896.298 377.119 906.766 365.728 912.994 353.291C919.222 340.853 922.27 328.415 922.27 315.847C922.27 299.743 918.03 287.96 909.549 280.497C901.069 273.035 889.806 269.238 875.627 269.238C861.449 269.238 848.331 272.773 836.14 279.974C823.95 287.174 813.747 297.91 805.664 312.181L796.654 307.468C802.616 295.946 810.169 285.211 819.18 275.26C828.19 265.31 839.586 257.324 853.366 251.17C867.147 245.017 883.71 242.006 903.189 242.006Z" fill="black"/>
</svg>
