<svg width="94" height="44" viewBox="0 0 94 44" fill="none" xmlns="http://www.w3.org/2000/svg">
<path d="M14.2405 0.675781V1.64281C13.2006 1.67908 12.4054 1.79996 11.8671 2.00545C11.3288 2.21095 10.9617 2.59776 10.766 3.16589C10.5702 3.73402 10.4724 4.60435 10.4724 5.80106V29.7835C10.4724 30.9439 10.5702 31.8142 10.766 32.3945C10.9617 32.9747 11.3288 33.3615 11.8671 33.5549C12.4054 33.7483 13.2006 33.8813 14.2405 33.9417V34.9087C13.4208 34.8483 12.3809 34.8 11.1085 34.7879C9.8362 34.7758 8.55163 34.7637 7.24258 34.7637C5.77449 34.7637 4.40427 34.7758 3.13193 34.7879C1.85958 34.8 0.819684 34.8483 0 34.9087V33.9417C1.0766 33.8813 1.88405 33.7483 2.42235 33.5549C2.96065 33.3615 3.31544 32.9747 3.49895 32.3945C3.68246 31.8142 3.7681 30.9439 3.7681 29.7835V5.80106C3.7681 4.60435 3.68246 3.73402 3.49895 3.16589C3.31544 2.59776 2.96065 2.21095 2.42235 2.00545C1.88405 1.79996 1.0766 1.67908 0 1.64281V0.675781C0.819684 0.712045 1.85958 0.736221 3.13193 0.772485C4.40427 0.808748 5.77449 0.820836 7.24258 0.820836C8.55163 0.820836 9.8362 0.808748 11.1085 0.772485C12.3809 0.736221 13.4208 0.712045 14.2405 0.675781Z" fill="black"/>
<path d="M34.6425 0C37.9702 0 40.8941 0.689011 43.4021 2.07912C45.9101 3.46923 47.8675 5.45165 49.25 8.05055C50.6324 10.6495 51.3298 13.7923 51.3298 17.5033C51.3298 21.1176 50.6202 24.2725 49.201 26.9802C47.7819 29.6879 45.8122 31.8033 43.2797 33.3143C40.7473 34.8253 37.86 35.5868 34.5935 35.5868C31.2659 35.5868 28.3419 34.8978 25.8339 33.5077C23.326 32.1176 21.3685 30.1231 19.986 27.5121C18.6036 24.9011 17.9062 21.7582 17.9062 18.0835C17.9062 14.4692 18.6281 11.3143 20.0595 8.60659C21.4908 5.8989 23.4728 3.78352 25.9807 2.27253C28.4887 0.761538 31.376 0 34.6425 0ZM52.7979 34.8615L53.5809 35.1516C53.2872 36.7593 52.8713 38.1495 52.333 39.3099C51.7947 40.4703 51.1218 41.3769 50.3021 42.0176C49.6537 42.5615 48.7851 43.033 47.7085 43.4198C46.6319 43.8066 45.3595 44 43.8915 44C42.1297 44 40.4047 43.722 38.7287 43.178C37.0526 42.6341 35.3398 41.9571 33.5904 41.1473C31.8409 40.3374 29.9813 39.5879 27.9871 38.8747C27.7547 38.8143 27.5345 38.7418 27.3265 38.6813C27.1185 38.6209 26.9228 38.5725 26.7637 38.5363C26.1398 38.8264 25.4792 39.056 24.7573 39.2132C24.0355 39.3703 23.3504 39.4549 22.702 39.4549C22.0536 39.4549 21.5153 39.3582 21.0871 39.1648C20.6589 38.9714 20.4509 38.6813 20.4509 38.2945C20.4509 37.4846 21.3318 37.0857 23.0935 37.0857C24.2313 37.0857 25.4547 37.2791 26.7637 37.6659C27.9749 37.3396 29.0026 36.9769 29.8712 36.578C30.7398 36.1791 31.6329 35.7923 32.5627 35.4418C33.4925 35.0912 34.5935 34.8615 35.8659 34.7648L35.9148 35.5385C34.9361 35.6352 34.0675 35.8165 33.3212 36.0945C32.5749 36.3725 31.8286 36.6626 31.0946 36.989C30.3606 37.3154 29.4919 37.6176 28.4765 37.9077C30.593 38.1374 32.6483 38.3549 34.618 38.5846C36.5877 38.8143 38.4351 38.9835 40.1478 39.0923C41.8606 39.2011 43.4021 39.2132 44.7723 39.1165C46.8888 38.9593 48.5771 38.5484 49.8128 37.9077C51.0484 37.267 52.0516 36.2516 52.7979 34.8615ZM34.4467 0.87033C32.526 0.87033 30.8499 1.5956 29.4308 3.04615C28.0116 4.4967 26.9105 6.49121 26.1276 9.04176C25.3446 11.5923 24.9531 14.5418 24.9531 17.8901C24.9531 21.311 25.3935 24.2846 26.2744 26.811C27.1552 29.3374 28.3419 31.2956 29.8467 32.6615C31.3515 34.0275 32.9909 34.7165 34.7893 34.7165C36.71 34.7165 38.3861 33.9912 39.8053 32.5407C41.2244 31.0901 42.3255 29.0835 43.1085 26.5209C43.8915 23.9582 44.2829 21.0209 44.2829 17.6967C44.2829 14.2516 43.8425 11.2659 42.9617 8.75165C42.0808 6.23736 40.8941 4.29121 39.4138 2.92527C37.9335 1.55934 36.2696 0.87033 34.4467 0.87033Z" fill="#EC87FF"/>
<path d="M66.9429 9.37891V30.1218C66.9429 31.6086 67.2365 32.5998 67.8237 33.1196C68.411 33.6393 69.4264 33.8932 70.8578 33.8932V34.9086C70.2094 34.8723 69.2551 34.8361 67.995 34.7877C66.7349 34.7393 65.4381 34.7152 64.1045 34.7152C62.4774 34.7152 60.9115 34.7393 59.4311 34.7877C57.9508 34.8361 56.8008 34.8723 55.9811 34.9086V33.8932C57.4859 33.8932 58.6604 33.6273 59.5045 33.0954C60.3487 32.5635 60.7769 31.5119 60.7769 29.9284V18.1306C60.7769 16.5833 60.6301 15.435 60.3365 14.6976C60.0428 13.9602 59.5168 13.4767 58.7705 13.247C58.0242 13.0174 56.9965 12.9086 55.6875 12.9086V11.8448C58.3301 11.7844 60.52 11.5668 62.2694 11.2163C64.0189 10.8657 65.5726 10.2492 66.9429 9.37891Z" fill="black"/>
<path d="M83.3897 9.23438C85.6408 9.23438 87.5248 9.72998 89.0418 10.7091C90.5589 11.6882 91.3174 13.0542 91.3174 14.7948C91.3174 16.0157 90.9259 17.164 90.1429 18.2278C89.3599 19.2915 88.2956 20.2102 86.9376 20.9838C85.5796 21.7575 84.0259 22.3498 82.2642 22.7728C84.2583 22.7366 86.069 22.9904 87.6961 23.5223C89.3232 24.0542 90.6323 24.8761 91.611 25.9882C92.5897 27.1003 93.0791 28.4904 93.0791 30.1706C93.0791 32.008 92.4796 33.664 91.2929 35.1509C90.1062 36.6377 88.5402 37.8948 86.595 38.9465C84.6498 39.9981 82.5211 40.7959 80.1844 41.364C77.8477 41.9322 75.5232 42.2102 73.2109 42.2102V41.2915C74.7769 41.2311 76.3551 40.9531 77.9333 40.4695C79.5115 39.986 80.9673 39.2728 82.2886 38.3421C83.6099 37.4113 84.6743 36.2509 85.4695 34.8849C86.2647 33.519 86.6684 31.9476 86.6684 30.1706C86.6684 28.2728 86.2158 26.7014 85.2982 25.4805C84.3807 24.2596 83.1328 23.5827 81.5301 23.4498C81.0408 23.6432 80.5881 23.8245 80.1844 23.9816C79.7806 24.1388 79.3891 24.2234 79.0344 24.2234C78.4838 24.2234 78.2024 23.9816 78.2024 23.4981C78.2024 23.1717 78.3492 22.93 78.6429 22.7728C78.9365 22.6157 79.279 22.5311 79.6705 22.5311C79.9274 22.5311 80.1966 22.5432 80.478 22.5794C80.7594 22.6157 81.053 22.6399 81.3833 22.6761C82.7535 21.7091 83.72 20.6575 84.295 19.5091C84.87 18.3607 85.1514 17.2124 85.1514 16.052C85.1514 14.5651 84.7599 13.4772 83.9769 12.7882C83.194 12.0992 82.154 11.7487 80.845 11.7487C79.536 11.7487 78.3248 12.075 77.1992 12.7399C76.0737 13.4047 75.1317 14.3959 74.3854 15.7135L73.5535 15.2783C74.104 14.2146 74.8014 13.2234 75.6333 12.3047C76.4652 11.386 77.5173 10.6487 78.7897 10.0805C80.062 9.5124 81.5913 9.23438 83.3897 9.23438Z" fill="black"/>
</svg>
