<svg width="539" height="442" viewBox="0 0 539 442" fill="none" xmlns="http://www.w3.org/2000/svg">
<path d="M143.052 6.78809V16.5024C132.606 16.8667 124.618 18.0809 119.21 20.1452C113.803 22.2095 110.116 26.0952 108.149 31.8024C106.183 37.5095 105.2 46.2524 105.2 58.2738V299.188C105.2 310.845 106.183 319.588 108.149 325.417C110.116 331.245 113.803 335.131 119.21 337.074C124.618 339.017 132.606 340.352 143.052 340.959V350.674C134.818 350.067 124.372 349.581 111.59 349.459C98.8092 349.338 85.905 349.217 72.755 349.217C58.0074 349.217 44.2429 349.338 31.4616 349.459C18.6803 349.581 8.2341 350.067 0 350.674V340.959C10.8149 340.352 18.9261 339.017 24.3336 337.074C29.7411 335.131 33.3051 331.245 35.1485 325.417C36.992 319.588 37.8523 310.845 37.8523 299.188V58.2738C37.8523 46.2524 36.992 37.5095 35.1485 31.8024C33.3051 26.0952 29.7411 22.2095 24.3336 20.1452C18.9261 18.0809 10.8149 16.8667 0 16.5024V6.78809C8.2341 7.15237 18.6803 7.39523 31.4616 7.75951C44.2429 8.1238 58.0074 8.24523 72.755 8.24523C85.905 8.24523 98.8092 8.1238 111.59 7.75951C124.372 7.39523 134.818 7.15237 143.052 6.78809Z" fill="black"/>
<path d="M347.99 0C381.418 0 410.791 6.92143 435.984 20.8857C461.178 34.85 480.842 54.7643 494.729 80.8714C508.617 106.979 515.622 138.55 515.622 175.829C515.622 212.136 508.494 243.829 494.238 271.029C479.982 298.229 460.195 319.479 434.756 334.657C409.316 349.836 380.312 357.486 347.499 357.486C314.071 357.486 284.698 350.564 259.504 336.6C234.311 322.636 214.647 302.6 200.76 276.371C186.872 250.143 179.867 218.571 179.867 181.657C179.867 145.35 187.118 113.657 201.497 86.4571C215.876 59.2571 235.785 38.0071 260.979 22.8286C286.173 7.65 315.177 0 347.99 0ZM530.369 350.2L538.235 353.114C535.285 369.264 531.107 383.229 525.699 394.886C520.292 406.543 513.533 415.65 505.298 422.086C498.785 427.55 490.059 432.286 479.244 436.171C468.429 440.057 455.648 442 440.9 442C423.203 442 405.875 439.207 389.038 433.743C372.201 428.279 354.995 421.479 337.421 413.343C319.847 405.207 301.167 397.679 281.134 390.514C278.799 389.907 276.587 389.179 274.498 388.571C272.409 387.964 270.442 387.479 268.845 387.114C262.577 390.029 255.94 392.336 248.689 393.914C241.439 395.493 234.556 396.343 228.043 396.343C221.529 396.343 216.122 395.371 211.82 393.429C207.519 391.486 205.43 388.571 205.43 384.686C205.43 376.55 214.278 372.543 231.976 372.543C243.405 372.543 255.695 374.486 268.845 378.371C281.011 375.093 291.335 371.45 300.06 367.443C308.786 363.436 317.758 359.55 327.098 356.029C336.438 352.507 347.499 350.2 360.28 349.229L360.772 357C350.94 357.971 342.214 359.793 334.717 362.586C327.221 365.379 319.724 368.293 312.35 371.571C304.976 374.85 296.251 377.886 286.05 380.8C307.311 383.107 327.958 385.293 347.744 387.6C367.531 389.907 386.088 391.607 403.294 392.7C420.499 393.793 435.984 393.914 449.749 392.943C471.01 391.364 487.97 387.236 500.383 380.8C512.795 374.364 522.873 364.164 530.369 350.2ZM346.024 8.74286C326.729 8.74286 309.892 16.0286 295.636 30.6C281.38 45.1714 270.319 65.2071 262.454 90.8286C254.589 116.45 250.656 146.079 250.656 179.714C250.656 214.079 255.08 243.95 263.929 269.329C272.777 294.707 284.698 314.379 299.815 328.1C314.931 341.821 331.399 348.743 349.465 348.743C368.76 348.743 385.597 341.457 399.853 326.886C414.109 312.314 425.17 292.157 433.035 266.414C440.9 240.671 444.833 211.164 444.833 177.771C444.833 143.164 440.409 113.171 431.56 87.9143C422.712 62.6571 410.791 43.1071 395.92 29.3857C381.05 15.6643 364.336 8.74286 346.024 8.74286Z" fill="black"/>
</svg>
