<svg width="428" height="377" viewBox="0 0 428 377" fill="none" xmlns="http://www.w3.org/2000/svg">
<path d="M129.097 2V239.25C129.097 256.256 132.465 267.593 139.2 273.538C145.936 279.483 157.582 282.386 174 282.386V294C166.563 293.585 155.618 293.17 141.164 292.617C126.711 292.064 111.837 291.788 96.5419 291.788C77.879 291.788 59.9177 292.064 42.9387 292.617C25.9596 293.17 12.7693 293.585 3.36773 294V282.386C20.6274 282.386 34.0984 279.345 43.7806 273.261C53.4629 267.178 58.3742 255.15 58.3742 237.038V102.098C58.3742 84.4015 56.6903 71.2671 53.3226 62.8333C49.9548 54.3996 43.9209 48.8693 35.3613 46.2424C26.8016 43.6155 15.0145 42.3712 0 42.3712V30.2045C30.3097 29.5133 55.4274 27.0246 75.4935 23.0152C95.5597 19.0057 113.381 11.9545 129.097 2Z" fill="black"/>
<path d="M317.296 0C343.015 0 364.541 5.66605 381.873 16.86C399.206 28.0539 407.872 43.6701 407.872 63.5704C407.872 77.5282 403.399 90.6569 394.453 102.818C385.507 114.979 373.347 125.482 357.831 134.327C342.316 143.172 324.564 149.943 304.436 154.78C327.22 154.365 347.907 157.268 366.498 163.348C385.088 169.429 400.044 178.826 411.227 191.54C422.409 204.254 428 220.147 428 239.356C428 260.362 421.151 279.295 407.592 296.293C394.034 313.291 376.142 327.664 353.917 339.687C331.693 351.71 307.371 360.831 280.674 367.326C253.976 373.821 227.418 377 201 377V366.497C218.892 365.806 236.923 362.628 254.954 357.1C272.986 351.572 289.619 343.418 304.715 332.777C319.812 322.136 331.972 308.869 341.058 293.253C350.143 277.637 354.756 259.671 354.756 239.356C354.756 217.659 349.584 199.694 339.101 185.736C328.618 171.778 314.36 164.039 296.049 162.519C290.458 164.73 285.286 166.803 280.674 168.6C276.061 170.396 271.588 171.364 267.534 171.364C261.244 171.364 258.03 168.6 258.03 163.072C258.03 159.341 259.707 156.577 263.062 154.78C266.416 152.983 270.33 152.016 274.803 152.016C277.738 152.016 280.813 152.154 284.028 152.569C287.243 152.983 290.598 153.26 294.372 153.674C310.027 142.619 321.07 130.596 327.639 117.467C334.209 104.338 337.424 91.2097 337.424 77.9428C337.424 60.9446 332.951 48.507 324.005 40.6298C315.059 32.7526 303.178 28.7449 288.222 28.7449C273.265 28.7449 259.427 32.4762 246.568 40.077C233.708 47.6778 222.945 59.0099 214.419 74.0733L204.914 69.0982C211.204 56.9369 219.171 45.6048 228.676 35.1019C238.181 24.599 250.202 16.169 264.739 9.67375C279.276 3.17852 296.748 0 317.296 0Z" fill="black"/>
</svg>
