<svg width="151" height="91" viewBox="0 0 151 91" fill="none" xmlns="http://www.w3.org/2000/svg">
<path d="M136.041 66.8351C125.477 75.9431 113.466 81.4866 101 84.8598C81.2478 83.9616 46.8224 89.487 27.5391 81.5951C17.4301 77.4578 4.98099 68.8966 1.49241 51.129C-2.66506 29.9548 20.6386 17.1908 28.7721 12.463C50.6005 -0.225231 76.8617 -0.920774 99.6299 3.37996C110.749 5.48024 121.964 9.2968 132.342 16.3107C138.214 20.2787 145.438 25.5692 148.718 35.0445C153.913 50.0538 143.006 60.8308 136.041 66.8351Z" fill="#EC87FF"/>
<path d="M45.2567 90.0958C74.2386 90.0958 109.652 89.5858 136.041 66.8351C143.006 60.8308 153.913 50.0538 148.718 35.0445C145.438 25.5692 138.214 20.2787 132.342 16.3107C121.964 9.2968 110.749 5.48024 99.6299 3.37996C76.8617 -0.920774 50.6005 -0.225231 28.7721 12.463C20.6386 17.1908 -2.66506 29.9548 1.49241 51.129C4.98099 68.8966 17.4301 77.4578 27.5391 81.5951C46.8224 89.487 81.2478 83.9616 101 84.8598" stroke="#EC87FF" stroke-width="1.74698" stroke-linecap="round"/>
</svg>
