<svg width="168" height="90" viewBox="0 0 168 90" fill="none" xmlns="http://www.w3.org/2000/svg">
<path d="M150.811 65.1251C121.536 87.2849 86.5194 86.5 54.3677 86.5C47.739 85.3618 41.2014 83.368 30.4418 79.5017C19.2271 75.4719 5.41641 67.133 1.54626 49.827C-3.06593 29.2027 22.7866 16.7702 31.8097 12.1653C56.0255 -0.193408 85.159 -0.870884 110.418 3.31814C122.753 5.36387 135.195 9.0813 146.708 15.913C153.221 19.778 161.236 24.931 164.875 34.1602C170.638 48.7797 158.538 59.2768 150.811 65.1251Z" fill="#7945B5"/>
<path d="M54.3677 86.5C86.5194 86.5 121.536 87.2849 150.811 65.1251C158.538 59.2768 170.638 48.7797 164.875 34.1602C161.236 24.931 153.221 19.778 146.708 15.913C135.195 9.0813 122.753 5.36387 110.418 3.31814C85.159 -0.870884 56.0255 -0.193408 31.8097 12.1653C22.7866 16.7702 -3.06593 29.2027 1.54626 49.827C5.41641 67.133 19.2271 75.4719 30.4418 79.5017C51.8342 87.1886 56.5367 87.4739 78.4493 88.3488" stroke="#7945B5" stroke-width="1.74698" stroke-linecap="round"/>
</svg>
