<svg width="256" height="89" viewBox="0 0 256 89" fill="none" xmlns="http://www.w3.org/2000/svg">
<path d="M230.992 65.9801C194.161 84.3821 151.422 86.9226 110.028 87.2401C86.2118 86.9146 74.2237 87.1952 46.1994 80.5484C28.9825 76.4649 7.78012 68.0148 1.83863 50.478C-5.24206 29.5788 34.447 16.9805 48.2993 12.3141C85.4758 -0.209318 130.202 -0.895829 168.979 3.34905C187.916 5.42205 207.018 9.18905 224.692 16.1118C234.692 20.0284 246.996 25.2501 252.582 34.6023C261.431 49.4168 242.854 60.0538 230.992 65.9801Z" fill="#FBCAD2"/>
<path d="M82.948 87.2722C132.308 87.2722 186.048 88.4354 230.992 65.9801C242.854 60.0538 261.431 49.4168 252.582 34.6023C246.996 25.2501 234.692 20.0284 224.692 16.1118C207.018 9.18905 187.916 5.42205 168.979 3.34905C130.202 -0.895829 85.4758 -0.209318 48.2993 12.3141C34.447 16.9805 -5.24206 29.5788 1.83863 50.478C7.78012 68.0148 28.9825 76.4649 46.1994 80.5484C79.0412 88.3378 89.8596 86.6135 123.5 87.5" stroke="#FBCAD2" stroke-width="1.74698" stroke-linecap="round"/>
</svg>
