<svg width="245" height="84" viewBox="0 0 245 84" fill="none" xmlns="http://www.w3.org/2000/svg">
<path d="M221.124 65.0143C178.108 87.1358 124.242 82.5637 77 82.5637C66.1056 82.7453 55.2206 82.0418 44.26 79.366C27.7819 75.3432 7.48921 67.0187 1.80265 49.7426C-4.97423 29.154 33.0119 16.743 46.2699 12.146C81.8512 -0.191346 124.658 -0.867651 161.771 3.31414C179.896 5.35633 198.178 9.06734 215.094 15.8872C224.665 19.7456 236.441 24.8897 241.787 34.1029C250.256 48.6971 232.477 59.1761 221.124 65.0143Z" fill="#6922BC"/>
<path d="M77 82.5637C124.242 82.5637 178.108 87.1358 221.124 65.0143C232.477 59.1761 250.256 48.6971 241.787 34.1029C236.441 24.8897 224.665 19.7455 215.094 15.8872C198.178 9.06733 179.896 5.35633 161.771 3.31414C124.658 -0.867651 81.8512 -0.191346 46.2699 12.146C33.0119 16.743 -4.97423 29.154 1.80265 49.7426C7.48921 67.0187 27.7819 75.3432 44.26 79.366C75.6927 87.0397 106.503 78.4927 138.7 79.366" stroke="#6922BC" stroke-width="1.74698" stroke-linecap="round"/>
</svg>
