<svg width="229" height="85" viewBox="0 0 229 85" fill="none" xmlns="http://www.w3.org/2000/svg">
<path d="M206.727 61.7051C168.986 81.3984 124.312 81.6467 82.4546 81.6033C68.5613 80.4803 54.7753 78.6206 41.4306 75.3149C26.0302 71.5001 7.06479 63.6059 1.75015 47.2229C-4.58349 27.6986 30.9182 15.9291 43.309 11.5698C76.5632 -0.129758 116.57 -0.771103 151.256 3.19451C168.195 5.13113 185.282 8.6503 201.092 15.1176C210.036 18.7765 221.042 23.6547 226.039 32.3916C233.954 46.2315 217.337 56.1687 206.727 61.7051Z" fill="#CAD2F5"/>
<path d="M74.3021 81.5964C118.454 81.5964 166.524 82.683 206.727 61.7051C217.337 56.1687 233.954 46.2315 226.039 32.3916C221.042 23.6547 210.036 18.7765 201.092 15.1176C185.282 8.6503 168.195 5.13113 151.256 3.19451C116.57 -0.771103 76.5632 -0.129758 43.309 11.5698C30.9182 15.9291 -4.58349 27.6986 1.75015 47.2229C7.06479 63.6059 26.0302 71.5001 41.4306 75.3149C70.8075 82.5919 102.323 82.862 132.414 83.6902" stroke="#CAD2F5" stroke-width="1.74698" stroke-linecap="round"/>
</svg>
