<svg width="674" height="438" viewBox="0 0 674 438" fill="none" xmlns="http://www.w3.org/2000/svg">
<path fill-rule="evenodd" clip-rule="evenodd" d="M108.582 435.254C147.188 443.391 186.984 429.129 220.922 399.19C237.58 417.61 258.063 430.306 281.543 435.254C323.999 444.203 367.894 426.061 403.854 389.771C421.749 413.283 444.993 429.502 472.285 435.254C553.933 452.463 640.899 369.484 666.53 249.916C692.161 130.347 646.75 19.4676 565.102 2.2589C522.646 -6.6895 478.752 11.4522 442.791 47.742C424.896 24.2304 401.653 8.0113 374.36 2.2589C335.754 -5.87802 295.959 8.3847 262.021 38.3237C245.362 19.903 224.879 7.20768 201.399 2.2589C119.752 -14.9497 32.7854 68.0292 7.15463 187.598C-18.4762 307.166 26.9344 418.046 108.582 435.254Z" fill="#EBEBEB"/>
</svg>
